<svg width="114" height="55" viewBox="0 0 114 55" fill="none" xmlns="http://www.w3.org/2000/svg">
<path d="M45.4958 49.5789C45.6022 49.4617 45.656 49.3185 45.656 49.1519C45.656 48.9853 45.6022 48.8434 45.4958 48.725C45.3883 48.6078 45.262 48.548 45.1146 48.548C44.9673 48.548 44.8399 48.6065 44.7334 48.725C44.627 48.8421 44.5732 48.9853 44.5732 49.1519C44.5732 49.3185 44.627 49.4604 44.7334 49.5789C44.8399 49.696 44.9673 49.7559 45.1146 49.7559C45.262 49.7546 45.3894 49.696 45.4958 49.5789Z" fill="#B79C72"/>
<path d="M31.0606 48.8643C31.119 48.8956 31.167 48.932 31.2044 48.9737C31.2418 49.0153 31.2699 49.0492 31.2886 49.0765C31.3073 49.1038 31.3202 49.1442 31.3283 49.1989C31.3365 49.2535 31.34 49.2978 31.34 49.329C31.34 49.3603 31.3389 49.4123 31.3365 49.4852C31.3342 49.5581 31.3318 49.6154 31.3318 49.657V54.0656C31.3318 54.1554 31.3307 54.2179 31.3283 54.2557C31.326 54.2934 31.3155 54.3416 31.2979 54.4014C31.2804 54.4613 31.2512 54.5134 31.2091 54.5576C31.1681 54.6019 31.1097 54.6514 31.0348 54.7047V54.8518H33.0414C33.2928 54.8518 33.5313 54.8336 33.7558 54.7958C33.9804 54.7594 34.2002 54.6943 34.4142 54.6019C34.6282 54.5095 34.8117 54.3923 34.9638 54.2518C35.1158 54.1099 35.2397 53.9277 35.3333 53.7051C35.4268 53.4812 35.4736 53.2274 35.4736 52.941C35.4736 52.5128 35.3169 52.1731 35.0023 51.9245C34.6878 51.6758 34.2423 51.5236 33.6635 51.4663V51.3674C33.8669 51.3192 34.0575 51.2554 34.2376 51.1747C34.4165 51.094 34.5872 50.9925 34.7498 50.8688C34.9111 50.7452 35.0398 50.5916 35.1345 50.4081C35.2292 50.2245 35.2771 50.0228 35.2771 49.8028C35.2771 48.8682 34.5557 48.3997 33.1139 48.3997H30.5811L30.5332 48.4582V48.6509C30.6513 48.6899 30.753 48.7264 30.8407 48.7628C30.9296 48.7993 31.0021 48.8331 31.0606 48.8643ZM32.3609 49.3082C32.3609 49.2965 32.3609 49.2848 32.3609 49.2744C32.3609 49.2639 32.3609 49.2509 32.3609 49.2366C32.3609 49.0999 32.3667 49.0023 32.3772 48.9437C32.3877 48.8852 32.417 48.8487 32.4649 48.8344C32.5877 48.8019 32.6999 48.7849 32.8017 48.7849C33.7056 48.7849 34.1581 49.1481 34.1581 49.8744C34.1581 50.3326 34.0049 50.6879 33.6985 50.9378C33.3922 51.1877 32.9455 51.3127 32.3597 51.3127V49.3082H32.3609ZM32.3609 53.7623V51.6589C32.5935 51.668 32.7865 51.6785 32.9385 51.6928C33.0905 51.7058 33.2647 51.7435 33.46 51.8047C33.6553 51.8659 33.8038 51.9479 33.9055 52.0533C34.1569 52.3241 34.2832 52.6143 34.2832 52.9241C34.2832 53.394 34.1359 53.7702 33.84 54.05C33.5442 54.3299 33.1642 54.4704 32.6988 54.4704C32.6508 54.4704 32.6087 54.4639 32.5725 54.4509C32.5362 54.4379 32.5058 54.4236 32.4825 54.4106C32.4579 54.3975 32.438 54.3702 32.4228 54.3299C32.4065 54.2895 32.3948 54.2583 32.3866 54.2335C32.3784 54.2101 32.3725 54.1632 32.369 54.0956C32.3655 54.0266 32.3632 53.9784 32.3632 53.9485C32.3608 53.9159 32.3609 53.8548 32.3609 53.7623Z" fill="#B79C72"/>
<path d="M37.5449 51.6381C37.5975 51.4962 37.677 51.383 37.7857 51.2958C37.8945 51.2099 38.0243 51.1656 38.1775 51.1656C38.3061 51.1656 38.409 51.2138 38.4885 51.3088C38.5668 51.4038 38.6206 51.5236 38.6475 51.6667L38.7563 51.7422L39.3702 51.2112C39.3702 50.9821 39.3175 50.7868 39.2111 50.628C39.1059 50.4692 38.9434 50.3885 38.7235 50.3885C38.5095 50.3885 38.3014 50.464 38.0991 50.6137C37.8968 50.7647 37.6899 50.96 37.4794 51.2008L37.3917 51.1565C37.3917 50.9001 37.3531 50.7035 37.2771 50.5669C37.2011 50.4302 37.0584 50.3612 36.8491 50.3612C36.7415 50.3612 36.6316 50.382 36.5159 50.4237C36.4013 50.4653 36.2808 50.5291 36.1569 50.6163C36.0329 50.7022 35.9324 50.7764 35.8564 50.8402C35.7804 50.9027 35.6775 50.9886 35.5488 51.0992L35.681 51.314C35.764 51.2398 35.8587 51.1747 35.9663 51.1201C36.0727 51.0654 36.1639 51.0381 36.2387 51.0381C36.2761 51.0381 36.3101 51.0446 36.3393 51.0576C36.3685 51.0706 36.3931 51.0927 36.4141 51.1253C36.434 51.1565 36.4515 51.1864 36.4667 51.2164C36.4819 51.2463 36.4936 51.2906 36.503 51.3478C36.5124 51.4064 36.5194 51.4546 36.5229 51.4949C36.5264 51.5353 36.5299 51.5925 36.5334 51.6667C36.5357 51.7409 36.5369 51.7995 36.5369 51.8438C36.5369 51.8867 36.5369 51.9518 36.5369 52.0377C36.5369 52.0859 36.5369 52.121 36.5369 52.1444C36.5369 52.5076 36.5182 53.4018 36.4808 54.8245L36.6457 54.887L37.5168 54.5303C37.4396 53.5684 37.401 52.8864 37.401 52.4842C37.401 52.3384 37.4127 52.1965 37.4349 52.0572C37.4548 51.9193 37.4922 51.78 37.5449 51.6381Z" fill="#B79C72"/>
<path d="M43.2902 50.3221L42.7967 50.6709C42.412 50.4093 42.011 50.2778 41.597 50.2778C40.9445 50.2778 40.4499 50.5147 40.1143 50.9885C39.7787 51.4623 39.6104 52.1613 39.6104 53.088C39.6104 53.2937 39.6302 53.4993 39.67 53.7063C39.7097 53.9133 39.7729 54.115 39.8582 54.3116C39.9436 54.5081 40.0652 54.6669 40.2231 54.7893C40.3809 54.9116 40.5657 54.9728 40.7773 54.9728C41.2591 54.9728 41.7689 54.7463 42.3068 54.2933L42.4109 54.3376C42.4588 54.7424 42.6284 54.9454 42.9207 54.9454C43.0517 54.9454 43.1838 54.9168 43.3159 54.8608C43.4481 54.8049 43.5732 54.7242 43.6913 54.62C43.8094 54.5159 43.9123 54.4144 44 54.3142C44.0877 54.2139 44.1801 54.1007 44.2771 53.9718L44.1204 53.7792C43.8667 54.0356 43.6749 54.1632 43.5463 54.1632C43.4796 54.1632 43.427 54.1397 43.3873 54.0942C43.3487 54.0486 43.3206 53.9588 43.3054 53.826C43.289 53.6933 43.2797 53.5709 43.2773 53.4577C43.275 53.3445 43.2738 53.1596 43.2738 52.9032C43.2738 52.2537 43.3183 51.422 43.406 50.4067L43.2902 50.3221ZM42.3629 53.7623C42.0449 54.0929 41.7233 54.2582 41.3994 54.2582C41.2357 54.2582 41.0954 54.21 40.9761 54.1124C40.8568 54.0161 40.7668 53.8872 40.7072 53.7258C40.6475 53.5644 40.6031 53.403 40.5774 53.239C40.5505 53.075 40.5376 52.9058 40.5376 52.7301C40.5376 52.5778 40.5446 52.4294 40.5575 52.2836C40.5704 52.1378 40.5926 51.9816 40.6218 51.8163C40.651 51.651 40.6943 51.5001 40.7528 51.3634C40.8101 51.2267 40.8779 51.1018 40.9574 50.9885C41.0357 50.8753 41.1375 50.7868 41.2603 50.723C41.383 50.6592 41.521 50.6267 41.6742 50.6267C42.177 50.6267 42.4284 51.0198 42.4284 51.8059C42.4272 52.7522 42.405 53.4043 42.3629 53.7623Z" fill="#B79C72"/>
<path d="M44.6748 53.1296C44.6725 53.36 44.6713 53.5292 44.6713 53.6373C44.6713 53.7453 44.6725 53.8663 44.6748 54.0017C44.6771 54.1371 44.6853 54.2386 44.697 54.305C44.7087 54.3714 44.7263 54.4404 44.7473 54.5106C44.7684 54.5809 44.7976 54.6421 44.835 54.6955C44.9473 54.8686 45.1121 54.9545 45.3285 54.9545C45.7167 54.9545 46.1446 54.6343 46.6124 53.9939V53.8911L46.4721 53.744C46.3949 53.8299 46.3317 53.8976 46.285 53.9444C46.2382 53.9926 46.175 54.0434 46.0967 54.0967C46.0172 54.1501 45.947 54.1774 45.8862 54.1774C45.8383 54.1774 45.7962 54.1696 45.7599 54.1553C45.7237 54.141 45.6921 54.1149 45.6652 54.0798C45.6383 54.0447 45.6161 54.0082 45.5986 53.9705C45.581 53.9327 45.5682 53.8794 45.5588 53.8078C45.5495 53.7362 45.5424 53.6698 45.5366 53.6086C45.5308 53.5474 45.5284 53.4654 45.5261 53.3613C45.5249 53.2572 45.5249 53.1648 45.5261 53.0841C45.5272 53.0034 45.5284 52.8953 45.5296 52.76C45.5308 52.6246 45.5319 52.5075 45.5319 52.4098C45.5319 52.2875 45.5354 52.1026 45.5436 51.8553C45.5518 51.608 45.5553 51.4232 45.5553 51.3008C45.5553 51.0483 45.5483 50.8739 45.5331 50.7776C45.5179 50.6826 45.4933 50.6006 45.4583 50.5316C45.3834 50.391 45.2454 50.322 45.0443 50.322C44.897 50.322 44.7344 50.3663 44.5567 50.4535C44.379 50.542 44.2305 50.6318 44.1112 50.7242C43.9919 50.8166 43.8528 50.9351 43.6914 51.0822L43.82 51.2826C44.0633 51.0887 44.2539 50.9924 44.3895 50.9924C44.5555 50.9924 44.6503 51.142 44.6748 51.4388V52.5114C44.6783 52.6936 44.6771 52.8992 44.6748 53.1296Z" fill="#B79C72"/>
<path d="M49.5557 53.5995C49.5545 53.6959 49.5545 53.8104 49.558 53.9419C49.5604 54.0733 49.5662 54.1709 49.5744 54.2347C49.5826 54.2985 49.5931 54.3688 49.606 54.4443C49.62 54.5198 49.6375 54.581 49.6621 54.6252C49.6866 54.6695 49.7159 54.7098 49.751 54.7463C49.8656 54.8647 50.0129 54.9246 50.1918 54.9246C50.3929 54.9246 50.6221 54.8113 50.8817 54.5849C51.0068 54.4781 51.2138 54.2647 51.5003 53.9458L51.4079 53.7935H51.312C51.1109 53.951 50.9285 54.0304 50.7624 54.0304C50.663 54.0304 50.5859 53.9991 50.5297 53.9367C50.4982 53.9067 50.4736 53.8781 50.4596 53.8494C50.4444 53.8208 50.4303 53.7596 50.4175 53.6659C50.4046 53.5722 50.3976 53.4433 50.3976 53.2793C50.3976 53.1804 50.4023 53.0229 50.4116 52.8029C50.421 52.5843 50.4257 52.4281 50.4257 52.3357C50.4257 52.2732 50.4257 52.1834 50.4257 52.0675C50.428 51.7786 50.428 51.5781 50.4233 51.4662C50.4198 51.3542 50.4034 51.2032 50.3777 51.0106C50.3508 50.818 50.3099 50.6865 50.2538 50.6136C50.1976 50.5407 50.1146 50.4717 50.0047 50.408C49.8948 50.3442 49.758 50.3116 49.5954 50.3116C49.1242 50.3116 48.5781 50.5264 47.9584 50.9546L47.8625 50.9143C47.8496 50.7242 47.8029 50.5707 47.7245 50.4561C47.645 50.3416 47.5094 50.2843 47.3176 50.2843C47.21 50.2843 47.0978 50.3064 46.9785 50.3494C46.8592 50.3923 46.7388 50.4561 46.6172 50.542C46.4956 50.6266 46.3903 50.706 46.3003 50.7789C46.2103 50.8518 46.1074 50.9403 45.9893 51.0444L46.1378 51.2631C46.1459 51.2566 46.1728 51.2384 46.2196 51.2045C46.2664 51.172 46.3073 51.1447 46.3424 51.1238C46.3775 51.103 46.4184 51.0783 46.4663 51.0497C46.5143 51.021 46.5587 51.0002 46.6008 50.9846C46.6417 50.9703 46.6792 50.9624 46.7107 50.9624C46.761 50.9624 46.8054 50.9755 46.8429 51.0002C46.8803 51.0249 46.9095 51.0679 46.9317 51.1251C46.9528 51.1837 46.9703 51.2384 46.9844 51.2905C46.9972 51.3425 47.0066 51.4193 47.0124 51.5208C47.0183 51.6224 47.0206 51.7044 47.0229 51.7669C47.0241 51.8293 47.0253 51.923 47.0253 52.048C47.0253 52.0805 47.0253 52.1066 47.0253 52.1235C47.0253 52.4151 47.0054 53.3093 46.9656 54.8035L47.0662 54.866L47.9689 54.5757C47.942 54.4482 47.9221 54.0447 47.9093 53.3652C47.8952 52.6858 47.8894 52.022 47.8894 51.3725C48.3548 51.0926 48.6869 50.952 48.8845 50.952C49.0985 50.952 49.2505 51.0002 49.3417 51.0952C49.4083 51.1668 49.4598 51.3009 49.496 51.4974C49.5323 51.694 49.5533 51.8697 49.558 52.0272C49.5639 52.1834 49.5662 52.3851 49.5662 52.6324C49.5662 52.7782 49.565 52.9513 49.5639 53.1505C49.558 53.3548 49.5569 53.5019 49.5557 53.5995Z" fill="#B79C72"/>
<path d="M59.5976 48.924V48.8966C59.4667 48.7756 59.3252 48.6754 59.172 48.5986C58.8189 48.4203 58.3769 48.3304 57.8472 48.3304C57.3982 48.3304 56.9655 48.4151 56.5504 48.5856C56.1353 48.7548 55.7705 48.9995 55.4548 49.3184C54.8795 49.8989 54.5918 50.728 54.5918 51.8071C54.5918 52.1442 54.6234 52.4618 54.6865 52.7625C54.7497 53.0631 54.8561 53.3521 55.0057 53.6294C55.1554 53.9066 55.3437 54.1448 55.5693 54.3439C55.795 54.5431 56.0827 54.7032 56.43 54.8216C56.7773 54.9401 57.1701 55 57.6063 55C58.4225 55 59.2165 54.698 59.9906 54.0927L59.8175 53.8649C59.1112 54.2489 58.4868 54.4416 57.9431 54.4416C57.6461 54.4416 57.3748 54.3817 57.1281 54.2632C56.8813 54.1448 56.679 53.9873 56.5177 53.7947C56.3575 53.6007 56.2218 53.3768 56.1107 53.1204C55.9997 52.864 55.9201 52.605 55.8722 52.3407C55.8243 52.0778 55.7997 51.811 55.7997 51.5428C55.7997 51.3437 55.8126 51.1419 55.8383 50.9402C55.864 50.7371 55.9038 50.5289 55.9587 50.3154C56.0137 50.1007 56.0897 49.9015 56.1856 49.7167C56.2815 49.5318 56.3949 49.3665 56.5247 49.2182C56.6545 49.0711 56.8135 48.9539 57.0018 48.8693C57.19 48.7847 57.397 48.7418 57.6215 48.7418C57.8413 48.7418 58.039 48.7821 58.2155 48.8628C58.3921 48.9435 58.5394 49.0554 58.6587 49.1999C58.778 49.3444 58.8762 49.5019 58.9557 49.6737C59.034 49.8455 59.0995 50.0343 59.1498 50.2438L59.2819 50.2712L60.056 49.485C59.9496 49.3015 59.8315 49.1427 59.7017 49.0047L59.6666 49.006L59.5976 48.924Z" fill="#B79C72"/>
<path d="M65.3922 48.8526V48.3918L65.3081 48.302C65.1479 48.3085 64.8918 48.3202 64.5398 48.3398C64.1878 48.3593 63.8791 48.3736 63.6125 48.384C63.3459 48.3944 63.0898 48.3996 62.8443 48.3996C62.5473 48.3996 62.1275 48.3879 61.5861 48.3645C61.0447 48.3411 60.674 48.3254 60.4764 48.3202L60.4121 48.3918V48.8955C60.4484 48.9294 60.4846 48.9645 60.5197 49.0023L62.138 48.9151C62.2748 48.9034 62.3427 48.958 62.3427 49.0804V50.2961C62.3427 51.7044 62.3216 53.2143 62.2783 54.8257L62.3508 54.9377L63.5342 54.5628C63.4406 52.9098 63.3939 51.4884 63.3939 50.2961V49.0361C63.3939 48.9801 63.4056 48.9424 63.4301 48.9242C63.4547 48.906 63.4991 48.8968 63.5669 48.8968C63.7295 48.8968 63.9493 48.8994 64.2229 48.906C64.4977 48.9125 64.7409 48.9177 64.9549 48.9242C65.1689 48.9307 65.2847 48.9333 65.2999 48.9333L65.3922 48.8526Z" fill="#B79C72"/>
<path d="M70.8562 54.3987C71.0994 54.2243 71.2982 54.0043 71.4525 53.7375C71.6057 53.4707 71.6829 53.1869 71.6829 52.8862C71.6829 52.717 71.6571 52.5582 71.6069 52.4099C71.5554 52.2628 71.4899 52.1313 71.4104 52.0168C71.3297 51.9022 71.2186 51.7851 71.0748 51.6666C70.9322 51.5482 70.7895 51.4427 70.6468 51.3516C70.5054 51.2605 70.3265 51.1525 70.109 51.0275C69.9569 50.9442 69.8318 50.8726 69.736 50.8115C69.6401 50.7503 69.5278 50.6696 69.3992 50.5681C69.2706 50.4665 69.1688 50.3676 69.094 50.2713C69.0192 50.175 68.9548 50.0578 68.9011 49.9224C68.8473 49.7871 68.8204 49.6439 68.8204 49.4916C68.8204 49.2326 68.8987 49.0139 69.0554 48.8356C69.2121 48.6573 69.4191 48.5675 69.6751 48.5675C69.9909 48.5675 70.2434 48.6846 70.4317 48.9202C70.62 49.1558 70.7346 49.4396 70.7743 49.7741L70.9146 49.8235L71.6969 49.1441C71.5741 48.8135 71.3777 48.5766 71.1076 48.4334C70.8375 48.2902 70.4832 48.2186 70.0447 48.2186C69.7664 48.2186 69.5033 48.2538 69.2565 48.3254C69.0086 48.397 68.783 48.5037 68.5783 48.6469C68.3737 48.79 68.2112 48.984 68.0907 49.23C67.9703 49.476 67.9106 49.7584 67.9106 50.076C67.9106 50.2869 67.9551 50.4887 68.0451 50.6813C68.1351 50.8739 68.2474 51.0366 68.3819 51.1707C68.5175 51.3048 68.6754 51.4375 68.8555 51.5703C69.0355 51.7031 69.2086 51.8163 69.3735 51.91C69.5383 52.0037 69.702 52.1053 69.8669 52.2133C70.0318 52.3226 70.1569 52.4216 70.2423 52.5101C70.5393 52.8173 70.6878 53.1088 70.6878 53.3861C70.6878 53.6815 70.5849 53.9419 70.3791 54.1696C70.1733 54.3974 69.9254 54.512 69.6366 54.512C69.2893 54.512 69.0063 54.3688 68.7876 54.0837C68.5701 53.7974 68.4602 53.472 68.4602 53.1049L68.3035 53.0424L67.5049 54.0382C67.692 54.3362 67.9317 54.564 68.2228 54.7241C68.514 54.8829 68.8286 54.9636 69.1665 54.9636C69.4553 54.9636 69.7488 54.9129 70.0458 54.8113C70.3428 54.7111 70.6129 54.5731 70.8562 54.3987Z" fill="#B79C72"/>
<path d="M75.7714 53.6906L75.6708 53.6632C75.1809 54.0837 74.7295 54.2932 74.3144 54.2932C74.1484 54.2932 73.9998 54.2555 73.8665 54.1787C73.7344 54.1032 73.628 54.0043 73.5473 53.8845C73.4666 53.7635 73.3988 53.6255 73.345 53.4693C73.2901 53.3131 73.2515 53.1608 73.2304 53.0111C73.2094 52.8627 73.1989 52.7131 73.1989 52.5647C73.1989 52.3863 73.2141 52.1963 73.2433 51.9972C73.2725 51.798 73.3193 51.5924 73.3836 51.3828C73.4479 51.1732 73.5426 51.0001 73.6689 50.8647C73.7952 50.7294 73.9414 50.6617 74.1109 50.6617C74.3565 50.6617 74.5389 50.7723 74.657 50.9923C74.7751 51.2123 74.8336 51.4843 74.8336 51.8058L74.9739 51.8683L75.7328 51.3685C75.7222 51.1719 75.679 51.0014 75.603 50.8569C75.527 50.7125 75.4264 50.6005 75.3025 50.5224C75.1785 50.4443 75.0452 50.3858 74.9049 50.3506C74.7646 50.3155 74.6126 50.2972 74.4489 50.2972C74.1331 50.2972 73.8478 50.3519 73.5918 50.4599C73.3357 50.5693 73.1252 50.7125 72.958 50.8908C72.7908 51.0691 72.6516 51.28 72.5405 51.5234C72.4294 51.7655 72.3499 52.0154 72.302 52.2718C72.254 52.5282 72.2295 52.7951 72.2295 53.071C72.2295 53.3066 72.2587 53.5318 72.316 53.7452C72.3733 53.96 72.4599 54.1566 72.5745 54.3375C72.689 54.5171 72.8469 54.6603 73.0457 54.7657C73.2445 54.8711 73.4748 54.9245 73.7344 54.9245C74.4863 54.9245 75.1925 54.5562 75.8532 53.8207L75.7714 53.6906Z" fill="#B79C72"/>
<path d="M76.6837 50.9885C76.3481 51.4623 76.1797 52.1613 76.1797 53.088C76.1797 53.2937 76.1996 53.4993 76.2405 53.7063C76.2803 53.9133 76.3434 54.115 76.4288 54.3116C76.5141 54.5081 76.6357 54.6669 76.7936 54.7893C76.9514 54.9116 77.1362 54.9728 77.3478 54.9728C77.8296 54.9728 78.3394 54.7463 78.8773 54.2933L78.9814 54.3376C79.0293 54.7424 79.1989 54.9454 79.4912 54.9454C79.6222 54.9454 79.7543 54.9168 79.8864 54.8608C80.0186 54.8049 80.1437 54.7242 80.2618 54.62C80.3799 54.5159 80.4828 54.4144 80.5705 54.3142C80.6582 54.2139 80.7506 54.1007 80.8476 53.9718L80.6909 53.7792C80.4372 54.0356 80.2454 54.1632 80.1168 54.1632C80.0501 54.1632 79.9975 54.1397 79.9578 54.0942C79.9192 54.0486 79.8911 53.9588 79.8759 53.826C79.8595 53.6933 79.8502 53.5709 79.8478 53.4577C79.8455 53.3445 79.8443 53.1596 79.8443 52.9032C79.8443 52.2537 79.8888 51.422 79.9765 50.4067L79.8607 50.3221L79.3673 50.6709C78.9825 50.4093 78.5826 50.2778 78.1675 50.2778C77.5139 50.2778 77.0193 50.5147 76.6837 50.9885ZM78.9966 51.8059C78.9966 52.7535 78.9755 53.4056 78.9323 53.7623C78.6142 54.0929 78.2926 54.2582 77.9687 54.2582C77.805 54.2582 77.6647 54.21 77.5454 54.1124C77.4262 54.0161 77.3361 53.8872 77.2765 53.7258C77.2169 53.5644 77.1724 53.403 77.1467 53.239C77.1198 53.075 77.107 52.9058 77.107 52.7301C77.107 52.5778 77.114 52.4294 77.1268 52.2836C77.1397 52.1378 77.1619 51.9816 77.1912 51.8163C77.2204 51.651 77.2636 51.5001 77.3221 51.3634C77.3794 51.2267 77.4472 51.1018 77.5267 50.9885C77.6051 50.8753 77.7068 50.7868 77.8296 50.723C77.9524 50.6592 78.0904 50.6267 78.2435 50.6267C78.7452 50.6267 78.9966 51.0198 78.9966 51.8059Z" fill="#B79C72"/>
<path d="M80.3479 51.2071C80.3947 51.1746 80.4356 51.1472 80.4707 51.1264C80.5058 51.1056 80.5467 51.0809 80.5947 51.0522C80.6426 51.0236 80.6871 51.0028 80.7291 50.9871C80.7701 50.9728 80.8075 50.965 80.8391 50.965C80.8893 50.965 80.9338 50.978 80.9712 51.0028C81.0086 51.0275 81.0378 51.0704 81.0601 51.1277C81.0811 51.1863 81.0986 51.241 81.1127 51.293C81.1255 51.3451 81.1349 51.4219 81.1407 51.5234C81.1466 51.6249 81.1489 51.7069 81.1513 51.7694C81.1524 51.8319 81.1536 51.9256 81.1536 52.0506C81.1536 52.0831 81.1536 52.1091 81.1536 52.1261C81.1536 52.4176 81.1337 53.3118 81.094 54.8061L81.1945 54.8686L82.0972 54.5783C82.0704 54.4508 82.0505 54.0473 82.0364 53.3678C82.0236 52.6884 82.0166 52.0245 82.0166 51.375C82.482 51.0952 82.814 50.9546 83.0117 50.9546C83.2256 50.9546 83.3777 51.0028 83.4689 51.0978C83.5355 51.1694 83.587 51.3034 83.6232 51.5C83.6595 51.6965 83.6805 51.8722 83.6852 52.0297C83.691 52.1859 83.6934 52.3877 83.6934 52.635C83.6934 52.7808 83.6922 52.9539 83.691 53.153C83.6899 53.3522 83.6887 53.5006 83.6875 53.5982C83.6864 53.6945 83.6864 53.8091 83.6899 53.9405C83.6922 54.072 83.698 54.1696 83.7062 54.2334C83.7144 54.2972 83.7249 54.3675 83.7378 54.4429C83.7507 54.5184 83.7694 54.5796 83.7939 54.6239C83.8185 54.6681 83.8477 54.7085 83.8828 54.7449C83.9974 54.8634 84.1447 54.9232 84.3236 54.9232C84.5248 54.9232 84.754 54.81 85.0135 54.5835C85.1387 54.4768 85.3456 54.2633 85.6321 53.9444L85.5397 53.7921H85.4438C85.2427 53.9496 85.0603 54.029 84.8943 54.029C84.7949 54.029 84.7177 53.9978 84.6616 53.9353C84.63 53.9054 84.6054 53.8767 84.5914 53.8481C84.5762 53.8195 84.5622 53.7583 84.5493 53.6646C84.5364 53.5709 84.5294 53.442 84.5294 53.278C84.5294 53.1791 84.5341 53.0216 84.5435 52.8016C84.5528 52.5829 84.5575 52.4267 84.5575 52.3343C84.5575 52.2718 84.5575 52.182 84.5575 52.0662C84.5598 51.7772 84.5598 51.5768 84.5552 51.4648C84.5505 51.3529 84.5353 51.2019 84.5096 51.0093C84.4827 50.8166 84.4417 50.6852 84.3856 50.6123C84.3295 50.5394 84.2465 50.4704 84.1365 50.4066C84.0266 50.3428 83.8898 50.3103 83.7273 50.3103C83.2561 50.3103 82.71 50.5251 82.0902 50.9533L81.9943 50.9129C81.9815 50.7229 81.9347 50.5693 81.8564 50.4548C81.7769 50.3402 81.6412 50.283 81.4494 50.283C81.3419 50.283 81.2296 50.3051 81.1103 50.348C80.9911 50.391 80.8706 50.4548 80.749 50.5407C80.6274 50.6253 80.5222 50.7047 80.4321 50.7776C80.3421 50.8505 80.2392 50.939 80.1211 51.0431L80.2696 51.2618C80.2743 51.2592 80.3012 51.2396 80.3479 51.2071Z" fill="#B79C72"/>
<path d="M35.7749 38.2587C35.1657 38.7286 34.5565 39.1776 33.9473 39.6085C33.3381 40.0393 32.7289 40.4298 32.1196 40.7825C31.5104 41.1353 30.9246 41.4281 30.3622 41.6624C29.8933 41.8186 29.4127 41.9162 28.9216 41.9553C28.4293 41.9943 28.1007 41.8967 27.937 41.6624C27.702 41.35 27.6143 40.9257 27.6727 40.3907C27.7312 39.8558 27.889 39.2752 28.1475 38.6492C28.7801 38.3107 29.477 37.9059 30.2394 37.4361C31.0006 36.9662 31.7455 36.465 32.4716 35.9301C33.1978 35.3964 33.8713 34.8536 34.4934 34.3057C35.1143 33.7577 35.6007 33.2487 35.9527 32.7802C36.2333 32.3884 36.4099 31.9523 36.48 31.4694C36.5502 30.9878 36.5151 30.5505 36.3748 30.1587C36.2345 29.7682 35.9819 29.461 35.6194 29.2397C35.2558 29.0185 34.7939 28.9599 34.2314 29.064C33.317 29.2723 32.433 29.7422 31.5771 30.4724C30.7211 31.2026 29.9482 32.0434 29.2571 32.9962C28.5661 33.949 27.9686 34.933 27.4646 35.9509C26.9606 36.9688 26.6028 37.8435 26.3923 38.5724C26.0637 39.7725 25.9585 40.8424 26.0754 41.7809C26.1924 42.7193 26.6262 43.3324 27.3757 43.6201C28.1486 43.9325 29.0221 43.9259 29.995 43.6005C30.9667 43.2751 31.9337 42.8053 32.8949 42.1922C33.8549 41.5791 34.7693 40.9205 35.637 40.2163C36.1468 39.8024 36.6017 39.4341 37.0144 39.1008L36.376 37.7914C36.176 37.9463 35.9796 38.0999 35.7749 38.2587ZM29.7284 35.4797C29.8453 35.2975 29.9623 35.1023 30.0804 34.8927C30.3844 34.3981 30.713 33.9217 31.0649 33.4648C31.4169 33.0092 31.9314 32.4274 32.6119 31.7232C32.9393 31.4108 33.2445 31.1622 33.5263 30.98C33.9719 30.6937 34.3168 30.5557 34.5635 30.5687C34.8103 30.5817 34.9202 30.6923 34.8979 30.9019C34.8746 31.3458 34.6746 31.8013 34.3004 32.2712C33.9251 32.7411 33.4573 33.224 32.8949 33.7199C32.2857 34.2419 31.6823 34.6922 31.0848 35.0697C30.4873 35.4485 29.919 35.7804 29.3799 36.068C29.4945 35.8585 29.6115 35.6633 29.7284 35.4797Z" fill="#E53519"/>
<path d="M47.655 37.449C47.496 37.5726 47.3265 37.7054 47.1464 37.8473C46.4308 38.4083 45.7105 38.9758 44.9843 39.5498C44.9843 38.9237 44.8136 38.3627 44.4745 37.8668C44.1342 37.3722 43.801 36.8242 43.4724 36.2228C43.3321 36.0146 43.1847 35.7868 43.0327 35.5382C42.8795 35.2909 42.7918 35.0631 42.7684 34.8535C42.7684 34.5932 42.786 34.4032 42.8211 34.286C42.8561 34.1689 42.9672 34.0062 43.1555 33.7966C43.3426 33.5884 43.6174 33.2877 43.981 32.8972C44.3447 32.5067 44.8533 31.9067 45.5105 31.0971C46.2366 30.2354 46.6471 29.5117 46.7406 28.9247C46.8342 28.3376 46.7874 27.9797 46.6003 27.8482C46.4366 27.692 46.2308 27.653 45.9852 27.7311C45.7397 27.8092 45.4871 27.9458 45.2299 28.1424C44.9714 28.3376 44.7142 28.5667 44.4569 28.827C44.1985 29.0887 43.9647 29.336 43.7542 29.5703C43.1917 30.1963 42.6878 30.855 42.2422 31.5461C41.7967 32.2373 41.3512 32.8438 40.9069 33.3658C40.4614 33.8357 40.086 34.2405 39.782 34.5789C39.4768 34.9186 39.1669 35.244 38.8501 35.5577C38.5332 35.8701 38.1824 36.1968 37.7953 36.5352C37.4083 36.875 36.9335 37.2928 36.3711 37.7874L36.3723 37.7887C36.7605 37.4828 37.1393 37.1821 37.496 36.8867L37.8117 38.4512C37.5696 38.6452 37.2984 38.8638 37.0095 39.0968L37.0388 39.1554C37.8117 38.5554 38.4677 37.9879 39.0067 37.4529C39.5458 36.9192 40.1316 36.3647 40.7642 35.7894C40.9045 35.6593 41.0215 35.5877 41.1162 35.5746C41.2097 35.5616 41.2799 35.5877 41.3267 35.6527C41.3734 35.7178 41.4144 35.7959 41.4495 35.887C41.4845 35.9781 41.5255 36.0497 41.5722 36.1018C41.6658 36.258 41.7944 36.4611 41.9593 36.7084C42.123 36.957 42.2937 37.2303 42.4691 37.5297C42.6445 37.8304 42.7965 38.1362 42.9263 38.4486C43.0549 38.761 43.1192 39.0487 43.1192 39.3103C43.1192 39.6761 43.09 40.0145 43.0315 40.3282C42.9731 40.6406 42.814 40.9282 42.5568 41.1885C42.1581 41.5543 41.6775 41.7626 41.1162 41.8146C40.5537 41.8667 40.1199 41.6714 39.8159 41.2276C39.4406 40.733 39.0301 40.4779 38.5858 40.4648C38.1403 40.4518 37.8479 40.5364 37.7065 40.7187C37.5428 40.9543 37.4656 41.1885 37.4784 41.4228C37.4901 41.6584 37.5428 41.8862 37.6363 42.1075C37.7298 42.3301 37.8468 42.5188 37.9883 42.675C38.1286 42.8312 38.2338 42.9366 38.3051 42.9874C38.7273 43.2998 39.1845 43.5028 39.6756 43.5939C40.1679 43.6851 40.6543 43.6851 41.1349 43.5939C41.6143 43.5028 42.0844 43.3336 42.5416 43.085C42.9988 42.8377 43.4034 42.5435 43.7542 42.2051C44.2231 41.8927 44.7083 41.5465 45.2135 41.1677C45.7175 40.7902 46.2027 40.418 46.6728 40.0522C47.1183 39.7047 47.5299 39.3884 47.9134 39.1007L47.2703 37.7835C47.4036 37.6716 47.5311 37.5583 47.655 37.449Z" fill="#E53519"/>
<path d="M37.4977 36.8893C37.1399 37.1834 36.7611 37.4854 36.374 37.7913L37.0125 39.1007C37.3013 38.8678 37.5726 38.6491 37.8146 38.4551L37.4977 36.8893Z" fill="#E53519"/>
<path d="M59.3672 36.8151C59.0222 37.0819 58.5814 37.4256 58.0435 37.8473C57.3291 38.4083 56.6076 38.9758 55.8814 39.5498C55.8814 38.9237 55.7107 38.3627 55.3716 37.8668C55.0313 37.3722 54.6981 36.8242 54.3695 36.2228C54.2292 36.0146 54.0819 35.7868 53.9298 35.5382C53.7767 35.2909 53.689 35.0631 53.6656 34.8535C53.6656 34.5932 53.6831 34.4032 53.7182 34.286C53.7533 34.1689 53.8644 34.0062 54.0526 33.7966C54.2397 33.5884 54.5145 33.2877 54.8782 32.8972C55.2418 32.5067 55.7505 31.9067 56.4076 31.0971C57.1338 30.2354 57.5442 29.5117 57.6378 28.9247C57.7313 28.3376 57.6845 27.9797 57.4974 27.8482C57.3337 27.692 57.1279 27.653 56.8824 27.7311C56.6368 27.8092 56.3843 27.9458 56.127 28.1424C55.8686 28.3376 55.6113 28.5667 55.3541 28.827C55.0957 29.0887 54.8618 29.336 54.6513 29.5703C54.0889 30.1963 53.5849 30.855 53.1394 31.5461C52.6939 32.2373 52.2484 32.8438 51.804 33.3658C51.3585 33.8357 50.9832 34.2405 50.6791 34.5789C50.3739 34.9186 50.0641 35.244 49.7472 35.5577C49.4303 35.8701 49.0795 36.1968 48.6925 36.5352C48.3978 36.7943 48.0517 37.0988 47.6553 37.4477C48.1253 37.0806 48.5007 36.7891 48.7813 36.5743L48.9567 38.2963C48.6983 38.5046 48.3709 38.7597 47.9722 39.0591C47.9523 39.0734 47.9312 39.0903 47.9114 39.1046L47.9371 39.1567C48.71 38.5567 49.366 37.9892 49.905 37.4542C50.4441 36.9205 51.0299 36.366 51.6625 35.7907C51.8028 35.6605 51.9198 35.589 52.0145 35.5759C52.108 35.5629 52.1782 35.589 52.225 35.654C52.2717 35.7191 52.3127 35.7972 52.3478 35.8883C52.3828 35.9794 52.4238 36.051 52.4705 36.1031C52.5641 36.2593 52.6927 36.4623 52.8576 36.7097C53.0213 36.9583 53.192 37.2316 53.3674 37.531C53.5428 37.8317 53.6948 38.1375 53.8246 38.4499C53.9532 38.7623 54.0175 39.05 54.0175 39.3116C54.0175 39.6774 53.9883 40.0158 53.9298 40.3295C53.8714 40.6419 53.7123 40.9295 53.4551 41.1898C53.0564 41.5556 52.5758 41.7639 52.0145 41.8159C51.4521 41.868 51.0182 41.6727 50.7142 41.2289C50.3389 40.7343 49.9284 40.4792 49.4841 40.4661C49.0386 40.4531 48.7462 40.5377 48.6048 40.72C48.4411 40.9555 48.3639 41.1898 48.3767 41.4241C48.3884 41.6597 48.4411 41.8875 48.5346 42.1088C48.6281 42.3314 48.7451 42.5201 48.8866 42.6763C49.0269 42.8325 49.1321 42.9379 49.2035 42.9887C49.6256 43.3011 50.0828 43.5041 50.5739 43.5952C51.0662 43.6864 51.5526 43.6864 52.0332 43.5952C52.5126 43.5041 52.9827 43.3349 53.4399 43.0863C53.8971 42.839 54.3017 42.5448 54.6525 42.2064C55.1214 41.894 55.6067 41.5478 56.1118 41.169C56.6158 40.7915 57.101 40.4193 57.5711 40.0535C57.805 39.8713 58.0295 39.6982 58.2458 39.5316C58.5031 38.7402 58.8281 37.9293 59.2234 37.0988C59.2678 37.0064 59.3192 36.9127 59.3672 36.8151Z" fill="#E53519"/>
<path d="M48.9569 38.2976L48.7815 36.5756C48.5008 36.7903 48.1255 37.0819 47.6554 37.449C47.5315 37.5583 47.4028 37.6715 47.2695 37.7887L47.9127 39.1059C47.9325 39.0916 47.9536 39.0747 47.9735 39.0604C48.371 38.761 48.6984 38.5072 48.9569 38.2976Z" fill="#E53519"/>
<path d="M66.1715 36.8449C65.8721 37.0753 65.4839 37.376 65.0033 37.7496C64.4993 38.1414 63.9661 38.5514 63.4037 38.9822C62.8412 39.413 62.3022 39.8178 61.7865 40.1953C61.2708 40.5741 60.8487 40.8669 60.5213 41.0752C60.1226 41.3368 59.8758 41.3681 59.7835 41.1728C59.6899 40.9776 59.7016 40.6574 59.8185 40.2135C60.0302 39.3532 60.4219 38.3496 60.996 37.2003C61.5702 36.0522 62.1969 34.9185 62.8763 33.7952C63.2821 33.1249 63.6785 32.5001 64.0678 31.9092C63.8176 31.792 63.5873 31.6189 63.3791 31.3872C63.2084 31.1972 63.0739 30.9889 62.9722 30.7664C62.8821 30.8952 62.7933 31.0202 62.6997 31.1555C62.0905 32.0302 61.4872 32.9687 60.8896 33.9736C60.3459 34.8873 59.8407 35.8375 59.366 36.815C59.4806 36.7265 59.5835 36.6471 59.677 36.5755L59.8524 38.2975C59.5952 38.5058 59.2666 38.7609 58.8679 39.0603C58.6679 39.2113 58.4586 39.3701 58.2411 39.5367C58.1628 39.7775 58.0891 40.017 58.0236 40.2539C57.8833 40.7758 57.8178 41.2652 57.8307 41.7208C57.8424 42.1777 57.9301 42.563 58.0938 42.8754C58.2575 43.1877 58.4925 43.3973 58.7965 43.5014C59.1006 43.6056 59.4876 43.5665 59.9565 43.3843C60.3786 43.2281 60.8826 42.9404 61.4684 42.5226C62.0543 42.1061 62.6518 41.6492 63.261 41.1533C63.7615 40.7472 64.2362 40.3463 64.6969 39.948C64.8174 39.5562 64.9694 39.1501 65.16 38.7284C65.4383 38.114 65.7774 37.4853 66.1715 36.8449Z" fill="#E53519"/>
<path d="M65.303 28.9259C65.607 28.965 65.9472 28.9715 66.3226 28.9455C65.9706 29.2579 65.4783 29.8644 64.8457 30.7651C64.6563 31.0359 64.4634 31.3183 64.2693 31.6086C64.4599 31.6854 64.6622 31.7296 64.8832 31.7296C65.3825 31.7296 65.8069 31.5344 66.1776 31.1348C66.5471 30.7352 66.726 30.2718 66.726 29.7173C66.726 29.1615 66.5459 28.6917 66.1753 28.2777C65.8046 27.8651 65.3813 27.6647 64.882 27.6647C64.3839 27.6647 63.9676 27.8651 63.6086 28.2751C63.2485 28.6877 63.0742 29.1589 63.0742 29.716C63.0742 29.9803 63.1163 30.2237 63.197 30.4501C63.6004 29.8787 63.9641 29.375 64.2833 28.9455C64.6587 28.8934 64.9978 28.8869 65.303 28.9259Z" fill="#E53519"/>
<path d="M64.2686 31.6086C64.4627 31.3184 64.6556 31.0346 64.845 30.7652C65.4776 29.8658 65.9699 29.2592 66.3219 28.9455C65.9465 28.9715 65.6063 28.965 65.3022 28.926C64.997 28.8869 64.6579 28.8934 64.2826 28.9455C63.9634 29.3763 63.5997 29.8801 63.1963 30.4502C63.284 30.6988 63.4185 30.9266 63.6067 31.1361C63.8067 31.36 64.0277 31.5123 64.2686 31.6086Z" fill="#E53519"/>
<path d="M59.8531 38.2976L59.6777 36.5756C59.5842 36.6472 59.4813 36.7265 59.3667 36.8151C59.3199 36.9127 59.2673 37.0051 59.2217 37.104C58.8265 37.9345 58.5014 38.7454 58.2441 39.5368C58.4616 39.3701 58.6709 39.2113 58.8709 39.0604C59.2673 38.761 59.5959 38.5072 59.8531 38.2976Z" fill="#E53519"/>
<path d="M78.7034 36.8802L78.6964 36.8099C78.3678 37.0715 77.8883 37.4555 77.2546 37.9644C76.6208 38.4734 75.9648 38.9498 75.2854 39.3923C75.0048 39.5485 74.7756 39.6344 74.6002 39.6474C74.4248 39.6604 74.295 39.6084 74.2132 39.4912C74.1313 39.3741 74.0846 39.2049 74.0729 38.9823C74.0612 38.761 74.067 38.5072 74.0904 38.2196C74.723 37.6195 75.3907 36.7852 76.0946 35.7152C76.539 35.0631 76.9494 34.3785 77.3247 33.6613C77.6989 32.9441 77.9632 32.2789 78.1164 31.6659C78.2684 31.0528 78.2742 30.5179 78.1339 30.061C77.9936 29.6054 77.6299 29.2852 77.0441 29.103C76.505 28.9468 75.9017 28.9468 75.234 29.103C74.5663 29.2592 73.8682 29.5338 73.1421 29.9243C72.4148 30.3161 71.6828 30.8042 70.9449 31.3912C70.2059 31.9783 69.509 32.6239 68.853 33.3281C68.0789 34.1624 67.3703 35.0501 66.726 35.9886C66.5284 36.2762 66.346 36.5613 66.1718 36.845C66.1858 36.8346 66.2022 36.8216 66.2162 36.8112L66.3916 38.5332C66.0162 38.8209 65.5532 39.2049 65.0036 39.6878C64.9042 39.775 64.8001 39.8622 64.6996 39.9494C64.5663 40.3815 64.4727 40.7981 64.4236 41.1938C64.3301 41.9513 64.4353 42.5631 64.7405 43.033C65.0679 43.5549 65.5368 43.7827 66.146 43.7176C66.7552 43.6525 67.4112 43.4313 68.1152 43.0525C68.8179 42.675 69.5324 42.1986 70.2597 41.6246C70.9859 41.0506 71.6418 40.5039 72.2288 39.9806C72.5329 40.7109 72.9024 41.2198 73.3362 41.5062C73.7688 41.7938 74.3254 41.7417 75.006 41.35C75.8257 40.8801 76.5647 40.3776 77.2207 39.844C77.6557 39.4899 78.0392 39.1828 78.3806 38.9146L78.0637 37.3982C78.2824 37.2238 78.4941 37.052 78.7034 36.8802ZM73.1947 33.289C72.8544 33.3671 72.5504 33.6417 72.2803 34.1103C72.0102 34.5802 71.8114 35.1933 71.6828 35.9495C71.5542 36.7071 71.5717 37.5024 71.7354 38.3367C71.1963 38.8847 70.6573 39.3871 70.1182 39.8427C69.5792 40.2995 69.0693 40.69 68.5887 41.0167C68.1082 41.3434 67.6685 41.5777 67.2709 41.7209C66.8722 41.8641 66.5448 41.8966 66.2864 41.8185C65.9578 41.6884 65.9052 41.2771 66.1285 40.5859C66.3507 39.8947 66.7085 39.145 67.2008 38.3354C68.2321 36.6915 69.2974 35.2701 70.4 34.07C71.5015 32.8699 72.755 31.8924 74.1617 31.1348C74.5839 30.9005 74.9697 30.7378 75.3217 30.6454C75.6725 30.5543 75.9484 30.5608 76.1472 30.6649C76.346 30.7704 76.4454 30.9916 76.4454 31.3301C76.4454 31.6698 76.2922 32.1514 75.9882 32.7775C75.8245 33.0899 75.607 33.4686 75.3381 33.9125C75.0679 34.3563 74.7464 34.8392 74.371 35.3612C74.371 34.8132 74.2892 34.3576 74.1243 33.9919C73.8448 33.4452 73.5338 33.2109 73.1947 33.289Z" fill="#E53519"/>
<path d="M66.3924 38.5319L66.217 36.8098C66.203 36.8202 66.1866 36.8332 66.1726 36.8437C65.7785 37.4841 65.4382 38.1127 65.1623 38.7271C64.9728 39.1488 64.8197 39.5549 64.6992 39.9467C64.7998 39.8595 64.905 39.7723 65.0032 39.6851C65.554 39.2048 66.017 38.8195 66.3924 38.5319Z" fill="#E53519"/>
<path d="M95.1119 37.7887C95.1142 37.7874 95.1154 37.7861 95.1177 37.7834C95.0616 37.8251 95.0137 37.8615 94.954 37.9058C94.2863 38.4017 93.6058 38.9107 92.9147 39.4313C92.2237 39.9533 91.6086 40.4036 91.0695 40.7811C90.5305 41.1599 90.2265 41.3486 90.1551 41.3486C89.8032 41.5048 89.6278 41.4397 89.6278 41.1534C89.7213 40.5793 89.9739 39.9207 90.3843 39.1775C90.7936 38.4343 91.2625 37.6585 91.7898 36.8489C92.3172 36.0406 92.8563 35.2128 93.407 34.3641C93.9578 33.5167 94.4091 32.7149 94.7599 31.9574C94.9704 31.3053 95.0347 30.7898 94.9529 30.4124C94.8698 30.0349 94.7003 29.7863 94.443 29.6691C94.1846 29.552 93.863 29.539 93.476 29.6301C93.089 29.7225 92.6961 29.8982 92.2985 30.1586C91.7594 30.5243 91.0976 31.0775 90.3118 31.822C89.526 32.5652 88.7122 33.367 87.8691 34.2287C87.026 35.0891 86.211 35.9378 85.4264 36.7721C84.6406 37.6064 83.9905 38.3119 83.476 38.8846C83.8502 38.1023 84.1846 37.3852 84.4781 36.733C84.7704 36.0809 85.0581 35.4548 85.3387 34.8548C85.6193 34.2548 85.9128 33.6287 86.218 32.9766C86.5221 32.3244 86.874 31.6073 87.2728 30.825C87.3897 30.5647 87.5066 30.303 87.6236 30.0427C87.7405 29.7824 87.8352 29.5338 87.9054 29.2995C87.9989 29.0131 87.9872 28.784 87.8703 28.6148C87.7522 28.4456 87.5826 28.3545 87.3605 28.3415C87.1371 28.3285 86.8857 28.4066 86.6039 28.5758C86.3233 28.7463 86.0532 29.0131 85.7959 29.3776C85.0698 30.2913 84.1086 31.4511 82.9135 32.8594C81.8471 34.1168 80.4416 35.4575 78.7028 36.8814L78.8712 38.5332C78.7204 38.6477 78.5543 38.7779 78.3789 38.9146L78.414 39.0812C79.5155 38.1948 80.3703 37.4841 80.9806 36.9491C81.5899 36.4154 82.0705 35.9781 82.4213 35.6384C82.7732 35.3 83.048 35.0188 83.2468 34.7975C83.4456 34.5763 83.6748 34.3355 83.932 34.0738C83.6034 34.778 83.2468 35.5212 82.8597 36.3048C82.4727 37.0871 82.074 37.8902 81.6647 38.7115C81.2543 39.5328 80.8567 40.3424 80.4697 41.1377C80.0826 41.933 79.7494 42.6828 79.4676 43.3882C79.4676 43.7006 79.5845 43.9362 79.8195 44.0924C80.0534 44.2486 80.2884 44.2616 80.5223 44.1315C81.4589 43.3232 82.4493 42.3834 83.4924 41.3135C84.5354 40.2448 85.5784 39.1489 86.6203 38.0269C87.6633 36.9049 88.683 35.8297 89.6792 34.7988C90.6755 33.7679 91.5829 32.8881 92.4037 32.1578C92.6142 31.9756 92.7195 31.9561 92.7195 32.0993C92.7195 32.2424 92.6025 32.4976 92.3675 32.862C92.0167 33.41 91.5595 34.0881 90.997 34.8965C90.4346 35.7048 89.8897 36.5664 89.3623 37.4789C88.835 38.3926 88.3953 39.305 88.0445 40.2175C87.6925 41.1312 87.5639 41.9395 87.6575 42.6437C87.7978 43.0876 88.0901 43.3674 88.5356 43.4859C88.9811 43.603 89.367 43.6225 89.6956 43.5444C90.1177 43.3882 90.6451 43.0889 91.2777 42.645C91.9103 42.2012 92.5546 41.7261 93.2106 41.2171C93.8666 40.7082 94.4992 40.2071 95.1084 39.7112C95.4498 39.4339 95.7468 39.1918 96.0076 38.9796C95.9304 39.0408 95.8567 39.1007 95.7772 39.1632L95.1119 37.7887Z" fill="#E53519"/>
<path d="M78.7021 36.8801C78.4928 37.0519 78.2812 37.2238 78.0625 37.3969L78.3794 38.9133C78.5536 38.7766 78.7208 38.6464 78.8717 38.5319L78.7021 36.8801Z" fill="#E53519"/>
<path d="M107.522 36.5756C107.146 36.8632 106.601 37.2863 105.887 37.8473C105.172 38.4083 104.451 38.9758 103.725 39.5498C103.725 38.9237 103.554 38.3627 103.215 37.8668C102.875 37.3722 102.541 36.8242 102.213 36.2228C102.073 36.0146 101.925 35.7868 101.773 35.5382C101.62 35.2909 101.532 35.0631 101.509 34.8535C101.509 34.5932 101.526 34.4032 101.562 34.286C101.597 34.1689 101.708 34.0062 101.896 33.7966C101.985 33.6964 102.099 33.5727 102.23 33.4296C101.519 33.1914 100.973 32.7189 100.596 32.1162C100.279 32.5744 99.9619 32.9948 99.6462 33.3658C99.2006 33.8357 98.8253 34.2405 98.5213 34.5789C98.2161 34.9186 97.9062 35.244 97.5893 35.5577C97.2736 35.8701 96.9216 36.1968 96.5346 36.5352C96.1499 36.8736 95.6763 37.2902 95.1162 37.7822C95.55 37.4594 95.8973 37.1938 96.1522 36.9908C96.2376 36.9231 96.3124 36.8619 96.3756 36.8086L96.551 38.5306C96.3966 38.6569 96.213 38.8065 96.0084 38.9732C96.6796 38.4408 97.2619 37.9345 97.746 37.4542C98.2851 36.9205 98.8709 36.366 99.5035 35.7907C99.6438 35.6605 99.7608 35.5889 99.8555 35.5759C99.949 35.5629 100.019 35.5889 100.067 35.654C100.114 35.7191 100.155 35.7972 100.19 35.8883C100.225 35.9794 100.266 36.051 100.313 36.1031C100.406 36.2593 100.535 36.4623 100.7 36.7096C100.863 36.9582 101.033 37.2316 101.21 37.531C101.385 37.8316 101.537 38.1375 101.667 38.4499C101.795 38.7623 101.86 39.05 101.86 39.3116C101.86 39.6773 101.83 40.0158 101.772 40.3294C101.714 40.6418 101.556 40.9295 101.297 41.1898C100.898 41.5556 100.418 41.7638 99.8555 41.8159C99.293 41.868 98.8592 41.6727 98.5552 41.2289C98.1798 40.7343 97.7694 40.4791 97.3251 40.4661C96.8795 40.4531 96.586 40.5377 96.4457 40.7199C96.282 40.9555 96.2049 41.1898 96.2165 41.4241C96.2282 41.6597 96.2809 41.8875 96.3744 42.1088C96.4679 42.3313 96.5849 42.5201 96.7264 42.6763C96.8667 42.8325 96.9731 42.9379 97.0421 42.9887C97.4642 43.3011 97.9214 43.5041 98.4125 43.5952C98.9048 43.6863 99.3913 43.6863 99.8718 43.5952C100.352 43.5041 100.821 43.3349 101.279 43.0863C101.736 42.839 102.139 42.5448 102.491 42.2064C102.96 41.894 103.445 41.5478 103.95 41.169C104.454 40.7915 104.941 40.4193 105.41 40.0535C105.879 39.689 106.311 39.3558 106.71 39.0552C107.109 38.7558 107.436 38.5007 107.695 38.2924L107.522 36.5756Z" fill="#E53519"/>
<path d="M96.1542 36.992C95.8992 37.1951 95.552 37.4606 95.1181 37.7834C95.1158 37.7847 95.1146 37.786 95.1123 37.7886L95.78 39.1579C95.8595 39.0955 95.9332 39.0356 96.0103 38.9744C96.215 38.8078 96.3986 38.6581 96.5529 38.5319L96.3775 36.8098C96.3132 36.8645 96.2383 36.9244 96.1542 36.992Z" fill="#E53519"/>
<path d="M96.1542 36.9921C95.8993 37.1951 95.552 37.4606 95.1182 37.7834C95.5508 37.4606 95.8993 37.1951 96.1542 36.9921Z" fill="#E53519"/>
<path d="M22.2177 31.5891C21.3746 30.8589 20.4251 30.2198 19.3704 29.6718C18.3157 29.1238 17.2317 28.6344 16.1185 28.2049C15.0053 27.774 13.8805 27.3966 12.7439 27.0699C11.6073 26.7445 10.535 26.4373 9.52708 26.1509C7.58134 25.6029 6.0998 24.9768 5.08016 24.2727C4.06051 23.5685 3.40453 22.8123 3.11219 22.0026C2.8187 21.1943 2.83623 20.3392 3.16481 19.4397C3.49222 18.5403 4.03128 17.6344 4.78198 16.7207C4.96323 16.5007 5.15265 16.2807 5.35144 16.0594C5.71861 15.6507 6.11969 15.242 6.54649 14.8307C6.84583 14.543 7.15454 14.2554 7.48311 13.9664C7.48545 13.9651 7.48662 13.9625 7.48896 13.9612C7.78363 13.7022 8.08414 13.4471 8.387 13.1933C9.17044 12.5385 9.98312 11.9008 10.8285 11.2799C11.8599 10.4976 13.0315 9.72053 14.3435 8.95127C15.6555 8.18201 17.0505 7.4518 18.5262 6.75934C20.003 6.06818 21.5255 5.42908 23.0959 4.84205C24.6651 4.25502 26.2238 3.76561 27.7708 3.37512C29.3178 2.98333 30.8286 2.70349 32.3054 2.53297C33.7823 2.36376 35.1644 2.34424 36.453 2.4744C37.413 2.57853 38.3625 2.78158 39.3003 3.08095C40.2369 3.38163 40.9935 3.78513 41.5676 4.29407C42.1418 4.803 42.4575 5.41607 42.5171 6.13326C42.5756 6.85046 42.1944 7.67829 41.3747 8.61806C40.8824 9.21811 40.2556 9.83768 39.4944 10.4768C39.2477 10.6837 38.9869 10.8829 38.7297 11.0833C38.4596 11.2942 38.1836 11.5012 37.903 11.7042C37.627 11.9034 37.3546 12.1038 37.0693 12.2964C36.6752 12.5607 36.2788 12.8093 35.8812 13.0423C35.5187 13.2557 35.1562 13.4549 34.7914 13.6436C34.6897 13.697 34.5868 13.7517 34.4851 13.8024C34.0945 13.9964 33.7227 14.1617 33.3648 14.3062L32.4095 14.6407L30.0557 17.7359C30.8052 17.4756 31.667 17.1619 32.6399 16.7975C33.4794 16.4825 34.3389 16.1206 35.2135 15.7171C35.3515 15.6533 35.4895 15.5922 35.6275 15.5258C35.8695 15.4112 36.1116 15.2928 36.3525 15.1717C36.9067 14.8932 37.4575 14.5951 38.0059 14.2801C38.221 14.1565 38.4362 14.0315 38.6513 13.9026C38.7648 13.8337 38.8735 13.7608 38.9858 13.6905C39.8499 13.1438 40.6485 12.5385 41.3759 11.8682C42.0786 11.2421 42.7346 10.5119 43.345 9.67758C43.9542 8.84324 44.3822 7.98157 44.6277 7.09516C44.8733 6.20876 44.8441 5.33406 44.54 4.47369C44.2348 3.61202 43.5204 2.84406 42.3955 2.16462C40.6614 1.12202 38.8922 0.520664 37.0868 0.364469C35.2825 0.208274 33.442 0.247322 31.5676 0.481614C29.6219 0.717208 27.6305 1.14024 25.5912 1.7533C23.5519 2.36637 21.5723 3.09007 19.6499 3.92441C17.7287 4.76005 15.9116 5.66598 14.2009 6.6435C12.4901 7.62232 10.9899 8.59333 9.70131 9.55913C9.66623 9.58647 9.6253 9.61771 9.58905 9.64504C9.23007 9.91838 8.82549 10.236 8.37881 10.5952C8.03503 10.8725 7.67137 11.1679 7.27614 11.4946C7.00603 11.7185 6.73708 11.9515 6.47048 12.1897C6.07876 12.5385 5.69054 12.903 5.30583 13.2831C5.01818 13.5668 4.7317 13.8558 4.44639 14.1565C3.68165 14.9648 2.98824 15.8147 2.36032 16.7037L2.09956 17.0786C2.05629 17.1424 2.01069 17.2036 1.96743 17.2686C1.24011 18.3646 0.795769 19.4593 0.632064 20.5552C0.468359 21.6512 0.6613 22.7133 1.21205 23.7442C1.7628 24.7751 2.84676 25.7201 4.46393 26.5817C5.19008 26.9475 5.94545 27.2469 6.73124 27.4812C7.51585 27.7155 8.29579 27.9641 9.06871 28.2244C10.6391 28.7463 12.1733 29.2097 13.6735 29.6132C15.1726 30.018 16.6611 30.5986 18.138 31.3548C19.685 32.1371 20.8625 32.9272 21.6705 33.7225C22.4785 34.5177 22.9532 35.3404 23.0947 36.1877C23.235 37.0351 23.0479 37.9423 22.5323 38.9068C22.0166 39.8713 21.2086 40.9282 20.1071 42.0763C18.7472 43.4846 17.2013 44.7628 15.4672 45.9108C13.7331 47.0589 11.9523 47.9843 10.1246 48.6885C9.30374 49.0009 8.46651 49.2105 7.61174 49.3146C6.75579 49.4187 5.97118 49.4187 5.25672 49.3146C4.5411 49.2105 3.9389 49.0139 3.44662 48.7276C2.95433 48.4399 2.66083 48.0754 2.56729 47.6316C2.47374 47.0836 2.68422 46.5161 3.19989 45.9291C3.71556 45.342 4.41247 44.768 5.2918 44.207C6.17113 43.646 7.16038 43.1111 8.26188 42.6021C9.36338 42.0932 10.4356 41.6376 11.4787 41.2328C12.5217 40.828 13.4759 40.4896 14.3435 40.2149C15.21 39.9403 15.8554 39.7516 16.2764 39.6474L12.6562 38.709C12.0002 38.8131 11.2261 39.0096 10.3363 39.296C9.44523 39.5837 8.53082 39.9416 7.59419 40.3724C6.6564 40.8033 5.73147 41.2992 4.81706 41.8589C3.90265 42.4199 3.08296 43.0265 2.35681 43.6786C1.63066 44.3307 1.05068 45.0088 0.616862 45.713C0.183045 46.4172 -0.0215876 47.1214 0.00179879 47.8255C0.0251852 48.6338 0.336228 49.312 0.933751 49.8613C2.77426 51.5482 5.80046 51.595 8.05023 51.2566C11.4576 50.7438 14.7212 49.2352 17.5837 47.1383C20.2451 45.1898 23.2689 42.4186 24.6335 39.1229C25.2252 37.695 25.2743 36.1122 24.6791 34.6778C24.2558 33.6626 23.4361 32.633 22.2177 31.5891Z" fill="#E53519"/>
<path d="M104.822 13.7086C104.74 14.0106 104.654 14.3165 104.57 14.6133L104.522 14.7838C104.505 14.8424 104.49 14.897 104.455 14.9543L104.445 14.9725C103.929 15.8173 103.649 16.7701 103.589 17.8842C103.58 18.0261 103.501 18.1745 103.441 18.2747C103.375 18.3867 103.289 18.4934 103.214 18.5884L102.938 18.9386L103.489 18.5858L103.485 18.6379C103.481 18.6795 103.478 18.7186 103.472 18.7576C103.4 19.2119 103.344 19.6961 103.513 20.1777C103.535 20.2402 103.508 20.3326 103.487 20.4055L103.483 20.4185C103.419 20.6489 103.405 20.8558 103.44 21.0537L103.497 21.3661L103.66 20.5161C103.701 20.5474 103.739 20.5799 103.776 20.6111C103.91 20.7257 104.027 20.8194 104.195 20.822L104.321 20.8207L104.24 20.714L104.221 20.6944C103.825 20.4042 103.642 19.9538 103.693 19.3915C103.768 18.5598 103.865 17.7424 103.98 16.9614C104.053 16.4694 104.286 16.0372 104.511 15.6194L104.579 15.4932L105.099 16.183L104.906 15.7144C104.883 15.6572 104.86 15.5986 104.848 15.5387C104.84 15.4984 104.83 15.4567 104.819 15.4099C104.787 15.2823 104.756 15.1508 104.779 15.0363C104.894 14.4857 105.02 13.9533 105.153 13.391C105.2 13.1958 105.246 13.0006 105.292 12.8027L105.967 13.3129L105.677 12.9368C105.664 12.9212 105.652 12.9055 105.638 12.8899C105.453 12.683 105.428 12.4955 105.561 12.3003C105.8 11.9488 106.037 11.5974 106.275 11.246C106.282 11.2356 106.287 11.2264 106.294 11.2147L106.386 11.0702L106.085 11.1536L106.38 10.4572L106.185 10.6251C105.941 10.8347 105.852 11.1536 105.759 11.4907L105.758 11.4933C105.553 11.0702 105.434 10.5939 105.384 9.99771L105.333 9.40027L105.265 9.99511C105.192 10.6381 105.298 11.203 105.591 11.7237C105.205 12.1922 105.06 12.765 104.906 13.3702C104.88 13.4861 104.851 13.598 104.822 13.7086Z" fill="#1A2847"/>
<path d="M107.744 38.2755C107.885 36.9492 107.743 29.2917 107.555 27.968C108.642 27.9432 109.653 27.6712 110.457 26.8186C111.225 26.0051 111.557 24.3208 111.505 23.1402C113.57 21.7905 113.8 20.222 113.8 20.222C113.787 20.2324 113.772 20.2454 113.757 20.2585C113.876 19.9435 113.952 19.6141 113.971 19.333C114.047 18.1902 113.959 17.8335 113.845 17.689C113.903 16.4148 113.855 15.1639 113.703 13.9469C113.722 13.8922 113.722 13.8727 113.697 13.8948C113.541 12.6726 113.279 11.4842 112.912 10.3375C112.65 9.51876 112.252 8.28092 111.402 6.90771C109.832 4.37345 107.818 3.15644 106.616 2.42883C103.951 0.817419 101.156 0 98.3091 0C98.2985 0 98.2892 0 98.2787 0C94.6678 0.00780974 91.1236 1.33416 88.0296 3.83588C85.7342 5.692 84.2924 7.71341 83.9685 8.27571C83.5464 9.00853 83.3079 9.72963 83.2494 9.96522C83.1453 10.37 83.1278 10.6095 83.1091 10.8633C83.0915 11.1002 83.074 11.3462 82.9828 11.7836C82.8787 12.2821 82.7758 12.5659 82.6928 12.7936C82.5864 13.0865 82.5022 13.3182 82.5268 13.7438C82.5384 13.9417 82.5653 14.0367 82.646 14.3192C82.6986 14.504 82.7781 14.7825 82.8986 15.2446C83.0108 15.6767 83.0611 15.8876 83.0997 16.0568C83.1325 16.1961 83.157 16.3015 83.2014 16.4655C83.371 17.0877 83.6551 18.1303 84.2421 18.9881C84.7707 19.7599 85.3705 20.1335 86.0066 20.5279C86.6392 20.921 86.969 21.0069 87.7641 21.2151C88.2856 21.3518 89.0013 21.5392 90.1507 21.9024L90.3273 21.9584C91.1739 22.2265 91.7854 22.4204 92.5689 22.3059C92.6039 22.3007 93.44 22.1744 94.1884 21.6421C94.2761 21.5796 94.4585 21.4507 94.6491 21.2178C94.6959 21.1618 94.7391 21.1019 94.7812 21.0407C95.0794 21.3544 95.6874 21.8035 96.7352 21.836C97.8951 21.8712 99.3416 21.1514 99.9987 20.783C100.007 21.3909 100.041 22.4322 100.181 22.8187L100.196 22.8604C100.277 23.0856 100.401 23.4292 100.732 23.778C101.128 24.7308 101.734 26.7405 102.288 27.2195C102.53 27.4291 102.795 27.5593 103.114 27.5241C103.185 27.5163 103.281 27.5749 103.337 27.6347C103.601 27.9237 103.852 28.2296 104.116 28.5198C104.426 28.8622 104.777 29.1642 105.05 29.5377C105.379 29.9868 105.61 30.5126 105.754 31.0684C105.904 31.649 105.953 32.2503 106.004 32.849C106.01 32.9154 106.058 37.898 106.064 37.9644L106.332 37.7562L106.343 32.6629C106.372 31.0372 105.863 29.6692 104.736 28.6084C104.473 28.3611 104.2 28.1268 103.932 27.886C103.76 27.7324 103.59 27.5788 103.418 27.4252C103.538 27.2508 103.607 27.1453 103.628 27.0295C103.641 26.9553 103.604 26.8316 103.552 26.7913C103.504 26.7536 103.389 26.7679 103.331 26.8095C102.924 27.0998 102.814 27.1336 102.453 26.7809C102.084 26.419 101.637 25.0901 101.235 24.1868C101.6 24.421 102.1 24.6371 102.791 24.7933C102.83 24.8701 102.867 24.9573 102.896 25.0133C103.622 26.3513 104.629 27.3015 106.006 27.7102C106.31 27.8001 106.625 27.8404 106.933 27.9198C107.016 27.9406 107.143 28.007 107.156 28.0747C107.381 29.2683 107.516 30.4423 107.516 31.6776C107.516 31.7804 107.513 37.9944 107.512 38.1597L107.508 38.4369L107.744 38.2755ZM91.3317 21.7072L91.3107 21.6668C91.32 21.6824 91.3317 21.6954 91.3411 21.7098C91.3387 21.7085 91.3352 21.7085 91.3317 21.7072ZM110.201 26.3396C109.38 27.256 108.349 27.5332 107.23 27.4343C105.904 27.3172 104.746 26.7692 103.836 25.6511C103.638 25.4064 103.428 25.1695 103.223 24.8844C103.53 24.9378 103.872 24.9794 104.248 25.0094L104.323 25.0263C107.493 24.8831 109.608 24.2232 111.017 23.4383C111.01 24.4262 110.744 25.7344 110.201 26.3396ZM112.141 22.22C112.094 22.2682 112.045 22.3137 111.995 22.358C111.671 22.643 111.299 22.8213 110.911 22.9671C110.527 23.1103 110.118 23.2183 109.711 23.1793C109.442 23.1533 109.243 23.0608 109.229 23.1012C109.211 23.1494 109.489 23.3446 109.526 23.3693C109.649 23.4552 109.681 23.4604 109.684 23.4917C109.698 23.6336 109.116 23.821 108.875 23.8965C108.6 23.9824 108.321 24.0475 108.041 24.1113C107.134 24.3169 106.217 24.4965 105.296 24.615C105.276 24.6176 105.255 24.6202 105.236 24.6215C105.912 24.1802 106.92 23.2587 107.951 21.3479C109.103 19.2159 109.623 18.1889 109.847 17.732C110.222 18.1485 110.572 18.5976 110.89 19.0714C111.249 19.6063 111.492 20.058 111.686 20.4212C112.015 21.0329 112.231 21.4377 112.647 21.4377C112.65 21.4377 112.651 21.4377 112.653 21.4377C112.686 21.4377 112.717 21.4312 112.749 21.426C112.426 21.8699 112.245 22.1146 112.141 22.22ZM96.5621 0.636491C96.5925 0.738018 96.6252 0.839547 96.6592 0.939772C96.7141 0.981424 96.7597 1.03088 96.7843 1.08425C97.0228 1.6049 97.2356 2.13987 97.4391 2.67874C97.4625 2.73861 97.48 2.80239 97.4975 2.86487C97.024 2.78027 96.5539 2.66702 96.0838 2.55638C95.5425 2.42883 95.3986 2.04485 95.4548 1.45912C95.4746 1.24956 95.4559 1.03479 95.429 0.820021C95.7985 0.745828 96.175 0.68335 96.5621 0.636491ZM95.5904 2.68004C96.1856 3.18116 96.8708 3.2931 97.5864 3.33736C97.7115 4.1769 98.1185 5.00344 97.611 5.87292C97.6507 5.88463 97.6917 5.89635 97.7314 5.90806C97.8741 5.67637 98.0167 5.44469 98.1617 5.20779C98.3406 5.22602 98.5289 5.26246 98.7172 5.25465C98.778 5.25205 98.8575 5.14011 98.882 5.06201C98.8926 5.02686 98.7897 4.898 98.7359 4.8954C98.2822 4.87197 98.219 4.53225 98.1454 4.12354C97.9466 3.02106 97.7361 1.9212 97.1678 0.948884C97.1105 0.851262 97.0754 0.723702 97.0567 0.589635C97.4566 0.555793 97.8624 0.532362 98.2798 0.53106C98.2892 0.53106 98.2985 0.53106 98.3091 0.53106C99.8257 0.53106 101.328 0.77186 102.804 1.24695C102.763 1.71944 102.514 2.04745 102.052 2.26873C101.785 2.39629 101.581 2.68524 101.396 2.85706C101.138 2.71779 100.857 2.54597 100.561 2.41321C100.34 2.31429 100.098 2.27914 99.8713 2.19584C99.6491 2.11383 99.4339 2.0071 99.1557 1.88475C99.2048 2.04875 99.2515 2.20625 99.2948 2.35463C99.2422 2.50432 99.1872 2.65921 99.1334 2.81411C99.9976 2.21536 100.541 2.90652 101.132 3.34777C101.196 3.39593 101.248 3.55603 101.227 3.63934C101.151 3.94001 101.103 4.29015 100.932 4.51403C100.483 5.10496 99.9742 5.63993 99.4667 6.22306C99.4047 6.05124 99.3603 5.92499 99.3147 5.80003C99.2971 5.80133 99.2796 5.80394 99.2621 5.80524C99.2796 6.39357 99.3275 6.9832 99.3065 7.56893C99.2855 8.15206 99.1942 8.73128 99.1393 9.25584C99.0574 9.32092 99.0411 9.33914 99.02 9.34825C98.8867 9.40813 98.7522 9.4654 98.6189 9.52397C98.737 9.6255 98.8434 9.75826 98.9767 9.82204C99.165 9.91185 99.3731 9.9483 99.5719 10.0121C100.075 10.1722 100.375 10.521 100.423 11.1185C100.431 11.2265 100.47 11.3319 100.495 11.4374C100.531 11.4374 100.568 11.4361 100.604 11.4361C100.606 11.164 100.607 10.8907 100.608 10.5848C100.705 10.5679 100.823 10.5718 100.919 10.5249C100.987 10.4911 101.05 10.3935 101.07 10.3115C101.078 10.2763 100.962 10.1501 100.922 10.1605C100.31 10.3245 99.9987 9.66845 99.4737 9.5474C99.6678 8.55166 99.6713 7.57935 99.5333 6.60053C99.5205 6.50681 99.6257 6.36233 99.7087 6.28423C100.215 5.80654 100.731 5.34056 101.281 4.83553C101.766 5.21039 102.299 4.91753 102.811 4.68844C103.152 4.53615 103.396 4.58952 103.644 4.86026C103.774 5.00344 103.93 5.11798 104.074 5.24554C104.105 5.20779 104.138 5.17004 104.17 5.1323C104.053 4.98912 103.936 4.84594 103.812 4.69365C103.985 4.59603 104.157 4.49971 104.33 4.40339C103.371 4.09751 102.439 4.77695 101.556 4.46587C101.564 4.04674 101.524 3.71093 101.59 3.40505C101.642 3.16815 101.796 2.92865 101.963 2.76334C102.139 2.59153 102.385 2.50953 102.598 2.38327C102.949 2.17501 103.147 1.86913 103.161 1.40575C103.161 1.39273 103.162 1.38102 103.163 1.36931C104.255 1.75068 105.333 2.25832 106.39 2.89741C106.636 3.0458 106.916 3.21631 107.219 3.41415C106.873 4.63768 106.294 5.54491 105.009 5.64904C105.199 5.96143 105.573 6.01219 106.011 5.85079C106.279 5.75317 106.557 5.68939 106.835 5.62691C106.937 5.60348 107.047 5.62561 107.155 5.62691C107.169 5.58786 107.182 5.54882 107.196 5.50977C107.079 5.42256 106.962 5.33535 106.859 5.25986C107.104 4.77045 107.36 4.2563 107.639 3.69661C108.273 4.13786 108.976 4.70406 109.663 5.44469H109.662C109.663 5.44599 109.666 5.44729 109.667 5.44859C109.68 5.46161 109.692 5.47592 109.704 5.48894C109.383 5.62821 109.132 5.72323 108.896 5.84949C108.828 5.88594 108.803 6.0161 108.757 6.10331C108.84 6.11242 108.924 6.13845 109.005 6.12804C109.3 6.09159 109.593 6.03042 109.888 6.00308C110.02 5.99007 110.116 6.00178 110.18 6.04083C110.207 6.07467 110.235 6.10982 110.262 6.14496C110.29 6.22436 110.282 6.3376 110.241 6.49119C110.216 6.5823 110.189 6.67212 110.227 6.8192C110.321 6.72808 110.417 6.63437 110.541 6.51462C110.702 6.7359 110.859 6.96628 111.013 7.21229C111.557 8.09089 111.907 8.91351 112.156 9.60207C112.084 9.55911 112.008 9.52788 111.927 9.51616C111.458 9.44978 110.98 9.93919 110.622 10.4312C110.684 10.1696 110.712 9.89624 110.677 9.59426C110.668 9.51095 110.724 9.41984 110.766 9.34565C110.918 9.08142 110.994 8.78856 110.942 8.42931C110.834 8.67271 110.724 8.91481 110.607 9.17774C110.414 8.9044 110.305 8.62585 109.994 8.56207C110.021 8.63757 110.027 8.67792 110.048 8.70655C110.434 9.23761 110.49 9.80382 110.316 10.3479C110.049 11.177 109.759 11.9958 109.444 12.7963C109.232 13.3377 108.832 13.7035 108.454 14.0849C108.376 13.8935 108.307 13.7243 108.238 13.5551C108.207 13.5642 108.177 13.5733 108.147 13.5824C108.161 13.6879 108.186 13.7946 108.184 13.8974C108.18 14.0914 108.212 14.3178 108.142 14.4675C107.804 15.186 107.437 15.8837 107.068 16.6113C106.946 16.4382 106.832 16.2768 106.718 16.1154C106.695 16.1362 106.673 16.1583 106.652 16.1792C106.674 16.2325 106.694 16.2872 106.72 16.3393C106.851 16.6048 106.885 16.8417 106.665 17.0122C106.327 17.2738 105.99 17.5355 105.654 17.7984C105.62 17.8257 105.587 17.8557 105.512 17.922C105.652 17.9442 105.735 17.9559 105.845 17.9728C105.759 18.2592 105.668 18.5533 105.581 18.7798C105.258 19.9278 105.24 20.9262 105.261 20.9496C105.517 20.6099 106.07 18.0913 106.264 17.7502C106.452 18.5742 106.375 19.3109 106.245 20.0411C106.604 19.3174 106.749 18.5325 106.485 17.5979C107.109 17.2218 107.41 16.5059 107.774 15.8512C107.956 15.5232 108.143 15.199 108.33 14.8749C108.365 14.8138 108.399 14.7461 108.449 14.7031C109.242 14.0185 109.757 13.0969 110.065 11.9905C110.104 11.85 110.213 11.7328 110.316 11.6417C110.455 11.5168 110.618 11.4269 110.772 11.3228C110.76 11.2929 110.748 11.2642 110.735 11.2343C110.664 11.246 110.593 11.259 110.519 11.2721C110.884 10.6277 111.469 9.84677 111.881 9.90665C112.187 9.9509 112.371 10.4885 112.473 10.9323C112.853 12.5906 113.107 13.6215 113.254 14.2046C113.265 14.2918 113.272 14.379 113.28 14.4662C113.059 14.7617 112.802 15.0871 112.699 15.1353C112.624 15.1704 112.547 15.2003 112.47 15.2069C112.39 15.2134 112.306 15.1951 112.226 15.2264C112.192 15.2394 112.16 15.2537 112.126 15.2667L112.37 15.4398L112.591 15.4984C112.591 15.4984 112.498 15.9605 112.318 16.1349C112.318 16.1349 112.63 16.1258 112.912 15.7418C112.912 15.7418 112.972 15.6963 113.025 15.4841C113.025 15.4841 113.079 15.2342 113.191 15.0272C113.191 15.0272 113.241 14.9283 113.311 14.7877C113.398 15.7796 113.418 16.7922 113.363 17.8231L113.336 18.3347L113.511 18.2123C113.528 18.3867 113.537 18.7095 113.499 19.2926C113.447 20.0684 112.957 20.9041 112.651 20.9067C112.651 20.9067 112.651 20.9067 112.65 20.9067C112.509 20.9067 112.363 20.6463 112.095 20.1491C111.895 19.7755 111.645 19.3109 111.271 18.7538C110.873 18.1628 110.428 17.607 109.947 17.1033L109.863 17.0148C109.923 16.8 109.936 16.6686 109.931 16.541C109.926 16.4343 109.922 16.3406 109.865 16.2482C109.75 16.0568 109.517 16.0425 109.469 16.0399C109.63 16.1336 109.712 16.3471 109.716 16.5488C109.719 16.7193 109.676 16.8859 109.626 17.0486L109.568 17.1814C109.566 17.1879 109.312 17.7671 108.073 20.0866C108.038 20.0164 108.003 19.9461 107.969 19.8758C107.896 19.9148 107.916 20.032 107.926 20.1205C107.938 20.2337 107.915 20.3444 107.878 20.4524C107.772 20.6489 107.661 20.8546 107.543 21.0746C107.322 21.4833 107.104 21.8425 106.89 22.1601C106.835 22.125 106.776 22.1002 106.714 22.0898C106.775 22.1276 106.803 22.2018 106.809 22.2799C105.565 24.0748 104.51 24.4367 104.345 24.4848C101.207 24.2557 100.809 23.1428 100.638 22.6678L100.622 22.6235C100.609 22.5897 100.599 22.5428 100.587 22.4894C100.728 22.2864 100.87 22.0794 101.025 21.8542C100.901 21.8334 100.731 21.8048 100.509 21.7683C100.504 21.6902 100.499 21.6108 100.496 21.5288C100.545 20.8142 100.537 20.084 100.72 19.4358C100.919 18.7317 101.356 18.1303 101.69 17.4834C101.625 17.4964 101.521 17.5081 101.425 17.5394C101.317 17.5745 101.215 17.6266 101.094 17.6773C100.872 14.543 102.029 12.165 103.97 10.1969C103.929 10.1657 103.889 10.1331 103.848 10.1019C103.727 10.1305 103.604 10.1605 103.417 10.2047C103.434 9.97563 103.428 9.79341 103.466 9.6281C103.565 9.19596 103.628 8.75862 104.242 8.80938C104.491 8.83021 104.729 8.58029 104.972 8.45404C104.943 8.39807 104.913 8.3434 104.884 8.28743C104.736 8.33168 104.588 8.37984 104.437 8.41889C103.978 8.53604 103.856 8.43842 103.78 7.92818C103.672 7.19667 103.793 6.53284 104.047 5.90416C104.093 5.79092 104.117 5.66466 104.151 5.54491C104.11 5.51888 104.069 5.49285 104.028 5.46681C103.938 5.58787 103.828 5.6972 103.759 5.83257C103.362 6.62135 103.179 8.0245 103.193 8.89399C103.207 9.45238 103.228 9.8663 103.219 10.275C103.217 10.3896 103.143 10.5106 103.066 10.5913C101.858 11.8526 101.096 13.3794 100.78 15.1639C100.778 15.1626 100.774 15.1613 100.77 15.1613C100.569 15.2003 100.378 15.2837 100.193 15.3839C99.6538 15.7041 99.0469 16.2508 99.1486 17.0096C99.1556 17.02 99.1697 17.0187 99.1779 17.0109C99.3322 16.8508 99.4375 16.6803 99.5661 16.5085C99.8608 15.9683 100.247 15.4828 100.773 15.2043C100.724 15.4919 100.684 15.7848 100.657 16.0868C100.608 16.6491 100.388 17.0773 100.085 17.4769C100.034 17.5446 99.9824 17.6123 99.9309 17.6799C99.952 17.706 99.9718 17.732 99.9929 17.7593C100.183 17.6331 100.374 17.5068 100.58 17.3715C100.705 17.7867 100.704 18.1095 100.505 18.4713C100.283 18.8761 100.147 19.376 100.106 19.8641C100.098 19.9552 100.093 20.0476 100.09 20.1387C99.8432 20.2897 98.0518 21.3518 96.7504 21.3128C95.436 21.2724 94.973 20.498 94.9543 20.4667L94.925 20.4146C95.049 19.6844 95.0326 19.1378 94.8724 18.7512C94.752 18.4596 94.7146 18.375 94.7087 18.362C94.6842 18.3112 94.6549 18.2592 94.6245 18.2032C94.4889 17.9611 94.3345 17.6851 94.4433 17.253L94.4468 17.2387C94.4667 17.1593 94.5251 16.9159 94.842 16.3549C94.9823 16.1076 95.1168 15.928 95.1846 15.8394C95.2279 15.8525 95.2688 15.8681 95.3121 15.8811C95.4618 15.9254 95.6079 16.0581 95.726 16.1844C95.8874 16.3549 96.0195 16.5592 96.1645 16.7493C96.1902 16.7337 96.2171 16.7167 96.2429 16.7011C96.1856 16.5384 96.1294 16.3757 96.0651 16.1896C96.1423 16.2169 96.2078 16.2351 96.2709 16.2625C96.7901 16.4864 97.3116 16.6725 97.8671 16.5671C97.9396 16.5527 98.5722 16.1609 98.6938 15.7965C98.799 15.639 98.9031 15.4503 99.0212 15.2147C99.2317 14.1968 99.3673 13.4653 99.3065 11.6925C99.2702 11.5701 99.165 11.4452 99.0036 11.3202C98.9604 11.1406 98.9077 10.9714 98.8423 10.8269C98.6283 10.3531 98.592 9.8702 98.3839 9.39251C98.3441 9.3027 98.2985 9.20898 98.2833 9.11266C98.0425 7.56763 97.01 6.24388 96.1341 5.0568C96.023 4.90712 95.9681 4.67803 95.9342 4.47628C95.871 4.10271 95.8909 3.71093 95.8324 3.33606C95.7634 3.63153 95.7026 3.89836 95.6266 4.22246C95.5728 4.14176 95.5237 4.07668 95.4816 4.00509C95.2536 3.61591 95.0151 3.24234 94.7134 2.94427L94.6725 2.95989C94.8514 2.84014 95.0315 2.72299 95.2139 2.60975C95.3051 2.55248 95.498 2.60194 95.5904 2.68004ZM93.5464 9.55651C93.3219 7.8657 92.9173 7.62751 92.0941 7.28518C91.9269 7.2162 91.7375 7.13679 91.5317 7.03136C90.8535 6.68513 90.4126 5.4564 90.2068 4.74181C90.7447 4.47628 91.2826 4.33961 91.7597 4.40079C91.6241 4.60905 91.4978 4.80299 91.3715 4.99693C91.3878 5.01385 91.4031 5.03077 91.4194 5.04769C92.1234 4.60644 92.832 4.1717 93.5312 3.72134C93.813 3.53911 94.0913 3.35038 94.3708 3.16164C94.4982 3.27749 94.6175 3.41285 94.7263 3.57165C95.3659 4.50882 96.1563 5.46421 96.7445 6.44694C97.1421 7.11076 97.5408 7.89694 97.708 8.67271C97.4157 8.63496 97.169 8.60372 96.9071 8.56988C96.9012 8.5816 96.9012 8.5816 96.8965 8.59331C97.0333 8.75471 97.2415 8.78335 97.3993 8.9057C97.5782 9.04497 97.8051 9.16082 97.9092 9.35997C98.1898 9.89624 98.3243 10.4429 98.4751 10.9974C97.3069 10.4104 95.1613 9.865 93.5441 9.61378C93.5453 9.59426 93.5488 9.57603 93.5464 9.55651ZM95.1963 0.865578C95.1835 1.24826 95.1765 1.63223 95.1367 2.01231C95.1192 2.17501 95.0151 2.38587 94.8923 2.46527C94.3918 2.78938 93.868 3.07053 93.3605 3.36339C93.3242 3.06923 93.2857 2.76725 93.2482 2.46527C93.2249 2.47048 93.2026 2.47699 93.1793 2.4822C93.0845 2.82452 92.9922 3.16815 92.8939 3.51048C92.7945 3.85541 92.549 3.96214 92.2543 3.98297C91.7164 4.02071 91.1774 4.0936 90.6418 4.07408C90.4734 4.06757 90.3132 3.81115 90.1168 3.64194C90.1133 3.7695 90.1086 3.94782 90.1039 4.14176C89.6386 4.43072 89.1521 4.734 88.6423 5.05029C88.6072 4.98912 88.5546 4.89931 88.4996 4.80429C88.4727 4.83162 88.4517 4.84334 88.4459 4.86026C88.3628 5.11277 88.3067 5.38091 88.1956 5.6165C87.9723 6.08899 87.266 7.2995 87.0497 7.77589C87.0286 7.82275 87.0087 7.8631 86.9877 7.89955C86.6521 7.93599 86.2978 7.98806 85.9224 8.06485C85.3705 8.17679 84.8724 8.31997 84.4269 8.47226C84.9285 7.7056 88.7043 2.27524 95.1963 0.865578ZM83.1336 12.9928C83.2178 12.7611 83.3336 12.4435 83.4458 11.9046C83.5452 11.4295 83.5651 11.1523 83.5838 10.9076C83.6013 10.6603 83.6166 10.4663 83.7078 10.1123C83.7089 10.1058 83.8364 9.6242 84.1322 9.01243C84.3088 8.91481 84.5251 8.80678 84.7789 8.70135C85.3694 8.45794 88.0436 7.4635 90.553 9.08012C92.2672 10.1852 93.005 11.9281 93.2564 12.6192C93.2938 12.6049 93.3324 12.5906 93.3699 12.5776C93.3804 12.3094 93.3909 12.0413 93.4038 11.7276C93.5581 11.7537 93.7008 11.7966 93.8423 11.794C93.9276 11.7927 94.0118 11.7211 94.096 11.6808C94.0761 11.6157 94.0364 11.522 93.9557 11.4543C93.8481 11.3645 93.7312 11.397 93.5441 11.3606C93.4014 11.3332 93.2529 11.3072 93.0927 11.2747C92.7583 10.7019 92.1257 9.7856 91.071 9.03326C89.5965 7.98285 88.1442 7.8605 87.4964 7.85009C87.4122 7.85529 87.3245 7.8631 87.2368 7.87091C87.6718 6.78145 88.7499 5.58526 89.8841 4.91623C90.1367 5.7805 90.6161 6.99882 91.3844 7.39061C91.6018 7.50125 91.7983 7.58325 91.9702 7.65484C92.6624 7.9425 92.9816 8.07787 93.1863 9.55781C92.8986 9.51876 92.632 9.49143 92.4005 9.47581C92.4625 9.49924 92.8261 9.61509 93.2985 9.76347C93.3102 9.76868 93.3219 9.77128 93.3348 9.77519C94.3264 10.085 95.7693 10.5288 95.9786 10.5835C96.8123 10.8022 97.9805 11.4686 98.5277 12.0465C98.8575 12.3953 98.8575 13.434 98.7382 14.3074C98.7335 14.3439 98.2833 15.57 98.0635 16.1323C97.7443 16.2677 97.39 16.2573 97.0193 16.131C96.1213 15.8238 95.2279 15.488 94.3451 15.1183C93.7487 14.8684 93.2775 14.3777 92.7969 13.913C92.9676 13.8076 93.1173 13.7139 93.2681 13.6215C93.2506 13.5837 93.2342 13.546 93.2167 13.5082C93.1149 13.5291 93.0144 13.5655 92.9126 13.5681C92.7185 13.5707 92.5011 13.6189 92.3327 13.5356C91.5258 13.1347 90.733 12.696 89.9098 12.2574C90.0501 12.096 90.1811 11.9463 90.3121 11.7966C90.2852 11.7693 90.2583 11.7432 90.2314 11.7159C90.1846 11.7458 90.1343 11.7732 90.0899 11.8083C89.8596 11.984 89.6327 12.0348 89.4035 11.7628C89.0539 11.3462 88.7019 10.9297 88.3511 10.5145C88.3149 10.4716 88.2763 10.4325 88.1898 10.3401C88.205 10.5184 88.2143 10.6238 88.2272 10.7631C88.0179 10.5952 87.8437 10.4572 87.6706 10.318C87.6531 10.3466 87.6367 10.3739 87.6191 10.4026C87.8027 10.8399 88.1687 11.0521 88.5593 11.2838C88.3488 11.3567 87.0251 10.9779 86.078 11.0339C85.1846 11.0859 84.6654 11.5766 84.4912 11.5454C84.8712 11.7432 85.5682 11.3176 86.3656 11.3267C87.2321 11.3371 88.1956 11.7094 88.6879 11.5844C88.5651 11.8994 88.4038 12.3068 88.3734 12.3953C88.088 12.4097 87.8308 12.4227 87.5735 12.4344C87.5724 12.4682 87.57 12.5021 87.5689 12.5346C87.7408 12.5685 87.9208 12.5815 88.0834 12.6466C88.1804 12.6856 88.2938 12.7936 88.3219 12.8965C88.3967 13.1737 88.4307 13.4653 88.5336 13.749C88.5078 13.4262 88.4798 13.1034 88.4564 12.7806C88.4505 12.6973 88.433 12.601 88.4611 12.5307C88.5102 12.4123 88.6984 11.9593 88.8317 11.6378C89.3696 12.355 90.1308 12.7025 90.8523 13.1217C91.2277 13.3403 91.6007 13.5655 91.9737 13.7894C92.0438 13.8323 92.121 13.8727 92.176 13.9339C92.9641 14.7955 93.8785 15.3761 94.8982 15.7418C94.6128 16.0438 94.103 16.692 94.0562 17.3741C93.5967 16.5163 92.5314 15.2498 92.5314 15.2498C92.5314 15.2498 93.6704 17.1749 94.096 17.8244C93.0623 17.1931 91.3411 17.2166 90.4922 17.2751C90.7716 17.1541 91.1926 16.9081 91.6521 16.5189C91.7772 16.4122 92.5677 15.5088 92.3865 14.97C92.017 15.708 91.4767 16.1323 91.168 16.4135C90.477 17.046 89.2199 17.2179 88.6645 17.1437C87.2765 16.9575 86.237 16.4616 85.7658 15.1353C85.7213 15.0103 85.6816 14.8828 85.6535 14.75C85.4734 13.9052 86.071 11.8968 86.6568 11.4074C86.1785 11.561 85.3284 13.464 85.2934 13.7803C85.132 15.3448 86.2499 16.869 86.527 17.1046C87.0403 17.3832 87.8846 17.4912 88.4459 17.5784C88.7242 17.5849 88.8621 17.637 89.1638 17.6357C89.3953 17.6422 89.5333 17.6279 89.635 17.7008C89.6491 17.7112 89.6432 17.7086 89.6736 17.7359C89.8233 17.8687 89.9613 17.9403 90.035 17.9767C90.215 18.0678 90.3822 18.1134 90.5109 18.1381C90.4582 18.0756 90.3834 17.9715 90.3296 17.8231C90.2571 17.624 90.2583 17.4469 90.2653 17.3519C90.2758 17.3493 90.2887 17.3441 90.3004 17.3415C90.6921 17.3715 91.4007 17.4326 92.1315 17.5342C93.0097 17.6578 93.8084 17.8348 94.1299 17.9103C94.1615 17.991 94.2001 18.0639 94.2433 18.1459C94.2913 18.2357 94.3462 18.3386 94.4047 18.4778C94.6117 18.9698 94.7052 19.5387 94.6853 20.1738L94.5403 20.4771C94.4737 20.6164 94.393 20.7453 94.2983 20.8611C94.1498 21.042 94.0095 21.1423 93.9335 21.1956C93.2763 21.6629 92.5151 21.78 92.5081 21.7814C92.1947 21.8269 91.9094 21.8139 91.6159 21.7631C91.5235 21.6733 91.4393 21.564 91.3633 21.4273L91.3235 21.3883L91.2347 21.4182C91.2312 21.4156 91.2288 21.413 91.2277 21.4104C91.2288 21.4013 91.23 21.387 91.2288 21.3687C91.2253 21.3206 91.2054 21.275 91.1715 21.2321L91.0487 21.0798L91.0698 21.3024C91.071 21.3141 91.0721 21.3245 91.0733 21.3362C91.0113 21.318 90.7634 21.1462 90.6559 21.072C90.6114 21.042 90.5752 21.016 90.5553 21.003C90.5518 21.0004 90.1881 20.7596 90.1273 20.8351L90.0934 20.8767L90.125 20.921C90.1355 20.9366 90.1437 20.9418 90.3168 21.0576C90.4103 21.1201 90.5261 21.1969 90.5658 21.2282L90.6313 21.2711C90.8032 21.3844 90.9657 21.4885 91.0686 21.5171C91.0803 21.5666 91.0967 21.6082 91.1154 21.6473C90.9119 21.5913 90.698 21.5236 90.4582 21.4481L90.2805 21.3922C89.1217 21.0264 88.4002 20.8377 87.8741 20.6997C87.1023 20.498 86.8135 20.4212 86.2382 20.0645C86.1657 20.0203 86.0955 19.976 86.0254 19.9317C86.0534 19.8042 86.0721 19.7183 86.0721 19.7183C86.1166 19.4827 86.2312 19.2588 86.2312 19.2588C86.3235 19.0623 86.306 18.9842 86.306 18.9842C86.3352 18.4895 86.1119 18.2461 86.1119 18.2461C86.1364 18.5104 85.9213 18.9191 85.9213 18.9191L85.7237 18.7941L85.4383 18.7356C85.4547 18.7707 85.4711 18.8058 85.4875 18.841C85.5261 18.9256 85.5986 18.9751 85.6535 19.0401C85.7061 19.1026 85.7447 19.1833 85.7763 19.2666C85.8055 19.3408 85.8114 19.5504 85.8067 19.7925C85.3682 19.5035 84.9753 19.1872 84.621 18.6679C84.0866 17.8856 83.8177 16.9003 83.6575 16.3119C83.6154 16.1557 83.592 16.0555 83.5604 15.924C83.5195 15.7509 83.4692 15.5362 83.3546 15.0975C83.233 14.6302 83.1523 14.3478 83.0985 14.1604C83.0179 13.8792 83.0073 13.8375 83.0003 13.71C82.9839 13.4067 83.0331 13.2687 83.1336 12.9928Z" fill="url(#paint0_radial_52_875)"/>
<path d="M83.3372 14.2267C83.3372 14.2267 83.5302 12.8965 83.4974 12.7064C83.4647 12.5177 83.4904 12.3784 83.4904 12.3784C83.4904 12.3784 83.2472 13.6657 83.2928 13.9456C83.3384 14.2254 83.3372 14.2267 83.3372 14.2267Z" fill="#1A2847"/>
<path d="M84.3182 11.5598C84.4059 11.5507 84.4807 11.5741 84.4936 11.6769C84.5298 11.9516 84.1054 12.579 84.2726 13.2792L84.2819 13.6775C84.2819 13.6775 84.3322 12.7521 84.5088 12.3499C84.6853 11.9477 84.8724 11.6769 84.4901 11.5442C84.4141 11.5181 84.3474 11.5077 84.2901 11.509L84.3182 11.5598Z" fill="#1A2847"/>
<path d="M86.5184 10.0589C86.5184 10.0589 86.1068 9.93267 85.5327 10.331C84.9585 10.7293 84.2967 11.1614 84.2979 11.2017C84.299 11.2421 85.2894 10.5731 85.5923 10.4182C85.8963 10.2633 86.2132 10.0837 86.5184 10.0589Z" fill="#1A2847"/>
<path d="M86.2441 9.52262C85.7494 9.47707 84.9192 9.97689 84.5977 10.1865C85.9564 9.5812 86.4382 9.51221 86.4382 9.51221L86.2441 9.52262Z" fill="#1A2847"/>
<path d="M84.5974 10.1865C84.5308 10.2165 84.4629 10.2465 84.3916 10.2791L84.4618 10.2764C84.4618 10.2764 84.5132 10.2413 84.5974 10.1865Z" fill="#1A2847"/>
<defs>
<radialGradient id="paint0_radial_52_875" cx="0" cy="0" r="1" gradientUnits="userSpaceOnUse" gradientTransform="translate(98.2611 19.2208) scale(16.52 18.3891)">
<stop stop-color="#192847"/>
<stop offset="0.7514" stop-color="#442E46"/>
<stop offset="1" stop-color="#E5361C"/>
</radialGradient>
</defs>
</svg>
