<svg xmlns="http://www.w3.org/2000/svg" width="14" height="16" viewBox="0 0 14 16">
  <path id="calendar-days-solid" d="M4,0A1,1,0,0,1,5,1V2H9V1a1,1,0,1,1,2,0V2h1.5A1.5,1.5,0,0,1,14,3.5V5H0V3.5A1.5,1.5,0,0,1,1.5,2H3V1A1,1,0,0,1,4,0ZM0,6H14v8.5A1.5,1.5,0,0,1,12.5,16H1.5A1.5,1.5,0,0,1,0,14.5ZM2,8.5v1a.5.5,0,0,0,.5.5h1A.5.5,0,0,0,4,9.5v-1A.5.5,0,0,0,3.5,8h-1A.5.5,0,0,0,2,8.5Zm4,0v1a.5.5,0,0,0,.5.5h1A.5.5,0,0,0,8,9.5v-1A.5.5,0,0,0,7.5,8h-1A.5.5,0,0,0,6,8.5ZM10.5,8a.5.5,0,0,0-.5.5v1a.5.5,0,0,0,.5.5h1a.5.5,0,0,0,.5-.5v-1a.5.5,0,0,0-.5-.5ZM2,12.5v1a.5.5,0,0,0,.5.5h1a.5.5,0,0,0,.5-.5v-1a.5.5,0,0,0-.5-.5h-1A.5.5,0,0,0,2,12.5ZM6.5,12a.5.5,0,0,0-.5.5v1a.5.5,0,0,0,.5.5h1a.5.5,0,0,0,.5-.5v-1a.5.5,0,0,0-.5-.5Zm3.5.5v1a.5.5,0,0,0,.5.5h1a.5.5,0,0,0,.5-.5v-1a.5.5,0,0,0-.5-.5h-1A.5.5,0,0,0,10,12.5Z" fill="#81f2c2"/>
</svg>
