<svg xmlns="http://www.w3.org/2000/svg" width="42" height="44" viewBox="0 0 42 44">
  <path id="file-pdf-solid" d="M0,5.5A5.465,5.465,0,0,1,5.419,0H18.968V11a2.727,2.727,0,0,0,2.71,2.75H32.516V26.125H14.9a5.465,5.465,0,0,0-5.419,5.5V44H5.419A5.465,5.465,0,0,1,0,38.5ZM32.516,11H21.677V0ZM14.9,30.25h2.71a4.813,4.813,0,0,1,0,9.625H16.258v2.75a1.355,1.355,0,1,1-2.71,0v-11A1.369,1.369,0,0,1,14.9,30.25Zm2.71,6.875a2.063,2.063,0,0,0,0-4.125H16.258v4.125Zm8.129-6.875h2.71a4.1,4.1,0,0,1,4.065,4.125v5.5A4.1,4.1,0,0,1,28.452,44h-2.71a1.369,1.369,0,0,1-1.355-1.375v-11A1.369,1.369,0,0,1,25.742,30.25Zm2.71,11a1.369,1.369,0,0,0,1.355-1.375v-5.5A1.369,1.369,0,0,0,28.452,33H27.1v8.25Zm6.774-9.625a1.369,1.369,0,0,1,1.355-1.375h4.065a1.375,1.375,0,0,1,0,2.75h-2.71v2.75h2.71a1.375,1.375,0,0,1,0,2.75h-2.71v4.125a1.355,1.355,0,1,1-2.71,0v-11Z" fill="#cb0606"/>
</svg>
