<svg xmlns="http://www.w3.org/2000/svg" width="33" height="44" viewBox="0 0 33 44">
  <path id="file-word-solid" d="M5.5,0A5.505,5.505,0,0,0,0,5.5v33A5.505,5.505,0,0,0,5.5,44h22A5.505,5.505,0,0,0,33,38.5V13.75H22A2.747,2.747,0,0,1,19.25,11V0ZM22,0V11H33ZM9.539,22.095l2.3,7.666L14.558,22a2.067,2.067,0,0,1,3.9,0l2.716,7.76,2.286-7.666a2.064,2.064,0,0,1,3.953,1.186L23.289,37.03a2.059,2.059,0,0,1-3.919.086l-2.87-8.19-2.862,8.19A2.068,2.068,0,0,1,11.645,38.5,2.042,2.042,0,0,1,9.72,37.03L5.595,23.28a2.064,2.064,0,1,1,3.953-1.186Z" fill="#2a5893"/>
</svg>
