<svg id="ic_comment" xmlns="http://www.w3.org/2000/svg" width="24" height="25" viewBox="0 0 24 25">
  <g id="Comments">
    <path id="Path" d="M0,0H24V25H0Z" fill="none"/>
    <g id="iconspace_Chat_3_25px" data-name="iconspace_Chat 3_25px" transform="translate(2 3)">
      <path id="Path-2" data-name="Path" d="M5.144,19a1.539,1.539,0,0,1-1.536-1.532l0-2.315A4.727,4.727,0,0,1,1.025,13.5,4.678,4.678,0,0,1,0,10.563V4.72A4.718,4.718,0,0,1,4.706,0H15.294A4.718,4.718,0,0,1,20,4.72v5.843a4.718,4.718,0,0,1-4.706,4.719h-4.78l-4.449,3.4A1.507,1.507,0,0,1,5.144,19ZM4.706,2A2.716,2.716,0,0,0,2,4.72v5.843a2.712,2.712,0,0,0,.767,1.9,2.685,2.685,0,0,0,1.863.822.994.994,0,0,1,.972,1l0,2.237,3.962-3.029a1.007,1.007,0,0,1,.608-.205h5.118A2.716,2.716,0,0,0,18,10.563V4.72A2.716,2.716,0,0,0,15.294,2Z" fill="#92929d"/>
    </g>
  </g>
</svg>
