<svg id="ic_Saved" xmlns="http://www.w3.org/2000/svg" width="24" height="24" viewBox="0 0 24 24">
  <g id="Saved">
    <circle id="Oval" cx="12" cy="12" r="12" fill="none"/>
    <g id="Group_13_Copy" data-name="Group 13 Copy" transform="translate(4.048 1.048)">
      <path id="Rectangle_92" data-name="Rectangle 92" d="M1.906,21.069A1.9,1.9,0,0,1,0,19.165V3.81A3.814,3.814,0,0,1,3.81,0h9.285A3.814,3.814,0,0,1,16.9,3.81V19.165a1.9,1.9,0,0,1-3.1,1.487L8.453,16.365,3.1,20.651A1.886,1.886,0,0,1,1.906,21.069ZM8.452,14.46a1.911,1.911,0,0,1,1.19.418L15,19.165V3.81A1.907,1.907,0,0,0,13.095,1.9H3.81A1.907,1.907,0,0,0,1.9,3.81V19.165l5.358-4.287A1.911,1.911,0,0,1,8.452,14.46Z" fill="#92929d"/>
    </g>
  </g>
</svg>
