<svg id="session-logo" xmlns="http://www.w3.org/2000/svg" width="22" height="24" viewBox="0 0 22 24">
  <path id="Path_18246" data-name="Path 18246" d="M582.692,746.041l-1.143-1.721h-.909l2.052,3.09,2.051-3.09h-.909Z" transform="translate(-571.638 -723.41)" fill="#e52e2b"/>
  <path id="Path_18247" data-name="Path 18247" d="M398.721,268.94H380.139a1.681,1.681,0,0,0-1.709,1.646v17.408a1.681,1.681,0,0,0,1.709,1.646h7.472v-.727h0V269.667h3.575v19.246h0v.727h7.535a1.681,1.681,0,0,0,1.709-1.646V270.586A1.681,1.681,0,0,0,398.721,268.94Zm-18.581,19.973a.948.948,0,0,1-.973-.919V270.586a.948.948,0,0,1,.973-.919h2.384v19.246Zm18.581-19.246a.948.948,0,0,1,.973.919v17.408a.948.948,0,0,1-.973.919h-2.448V269.667Zm-11.866,19.246H383.28V269.667h3.575Zm5.086-19.246h3.575v19.246h-3.575Z" transform="translate(-378.43 -268.94)" fill="#2d8235"/>
</svg>
