<svg id="Group_23" data-name="Group 23" xmlns="http://www.w3.org/2000/svg" width="53.989" height="43.147" viewBox="0 0 53.989 43.147">
  <g id="Group_21" data-name="Group 21" transform="translate(1.163 0)">
    <g id="Group_20" data-name="Group 20" transform="translate(0.007 28.719)">
      <path id="Path_18204" data-name="Path 18204" d="M964.707,568.174c-.2-.294-.272-.294-.349-.294a.207.207,0,0,0-.213.193.188.188,0,0,0,.213.184.748.748,0,0,1,.766.717.759.759,0,0,1-.792.771c-.187,0-.469-.019-.792-.542l.452-.285c.17.257.264.276.34.276.1,0,.213-.073.2-.175a.227.227,0,0,0-.2-.211.7.7,0,0,1-.775-.735.775.775,0,0,1,.775-.762c.221,0,.494.019.817.551Z" transform="translate(-963.54 -567.228)" fill="#2d8235"/>
      <path id="Path_18205" data-name="Path 18205" d="M1045.36,569.99v-2.37h1.516v.579h-.936v.322h.936v.57h-.936v.322h.936v.579Z" transform="translate(-1038.031 -567.511)" fill="#2d8235"/>
      <path id="Path_18206" data-name="Path 18206" d="M1127.377,568.174c-.2-.294-.272-.294-.349-.294a.207.207,0,0,0-.213.193.188.188,0,0,0,.213.184.747.747,0,0,1,.766.717.759.759,0,0,1-.792.771c-.187,0-.469-.019-.792-.542l.452-.285c.17.257.264.276.34.276.1,0,.213-.073.2-.175a.227.227,0,0,0-.2-.211.7.7,0,0,1-.775-.735.776.776,0,0,1,.775-.762c.221,0,.494.019.817.551Z" transform="translate(-1111.638 -567.228)" fill="#2d8235"/>
      <path id="Path_18207" data-name="Path 18207" d="M1208.717,568.174c-.2-.294-.272-.294-.349-.294a.207.207,0,0,0-.213.193.188.188,0,0,0,.213.184.747.747,0,0,1,.766.717.759.759,0,0,1-.792.771c-.187,0-.469-.019-.792-.542l.452-.285c.17.257.264.276.34.276.1,0,.213-.073.2-.175a.227.227,0,0,0-.2-.211.7.7,0,0,1-.775-.735.775.775,0,0,1,.775-.762c.221,0,.494.019.817.551Z" transform="translate(-1185.691 -567.228)" fill="#2d8235"/>
      <path id="Path_18208" data-name="Path 18208" d="M1294.7,570.09v-2.37h.579v2.37Z" transform="translate(-1265.034 -567.602)" fill="#2d8235"/>
      <path id="Path_18209" data-name="Path 18209" d="M1366.577,569.6a1.245,1.245,0,1,1,0-2.49,1.245,1.245,0,1,1,0,2.49Zm0-1.892a.644.644,0,1,0,0,1.286.643.643,0,0,0,0-1.286Z" transform="translate(-1329.31 -567.046)" fill="#2d8235"/>
      <path id="Path_18210" data-name="Path 18210" d="M1448.359,567.584V568.9h-.579v-2.5l1.737,1.423c0-.037-.009-.082-.009-.119v-1.176h.579v2.5Z" transform="translate(-1404.401 -566.4)" fill="#2d8235"/>
      <path id="Path_18211" data-name="Path 18211" d="M1534.077,568.174c-.2-.294-.272-.294-.349-.294a.207.207,0,0,0-.213.193.188.188,0,0,0,.213.184.747.747,0,0,1,.766.717.759.759,0,0,1-.792.771c-.187,0-.469-.019-.792-.542l.452-.285c.17.257.264.276.34.276.1,0,.213-.073.2-.175a.227.227,0,0,0-.2-.211.7.7,0,0,1-.775-.735.776.776,0,0,1,.775-.762c.221,0,.494.019.817.551Z" transform="translate(-1481.905 -567.228)" fill="#2d8235"/>
    </g>
    <path id="Path_18212" data-name="Path 18212" d="M1149.326,245.81v12.324h3.706v.9h-6.322V245.81Z" transform="translate(-1130.294 -245.81)"/>
    <path id="Path_18213" data-name="Path 18213" d="M1210.6,277.02h-2.3l-2.037,6.883h6.252Zm-3.111,6.156,1.149-4,1.063,4Z" transform="translate(-1184.51 -274.224)"/>
    <path id="Path_18214" data-name="Path 18214" d="M1063.876,277.02h-2.3l-2.037,6.883h6.252Zm-3.111,6.156,1.149-4,1.063,4Z" transform="translate(-1050.933 -274.224)"/>
    <path id="Path_18215" data-name="Path 18215" d="M963.55,303.206V294.19h4.01q3.1,0,3.1,2.213,0,1.572-1.87,2.015,2.252.449,2.252,2.391,0,2.4-3.032,2.4Zm2.616-5.093h.806q1.117,0,1.116-1.651,0-1.527-1.182-1.526h-.74Zm0,4.346h.746q1.466,0,1.466-1.678,0-1.922-1.513-1.922h-.7v3.6Z" transform="translate(-963.542 -289.856)"/>
    <path id="Path_18216" data-name="Path 18216" d="M1304.515,294.19v9.016h-2l-3.765-5.707v5.707h-.879V294.19h1.658l4.108,6.163V294.19Z" transform="translate(-1267.913 -289.856)"/>
    <path id="Path_18217" data-name="Path 18217" d="M1391.658,298.1l1.116.29c.018.229.026.427.026.595a2.587,2.587,0,0,1-.951,2.1,3.878,3.878,0,0,1-2.549.786q-4.01,0-4.01-4.511a4.248,4.248,0,0,1,1.169-3.471,3.86,3.86,0,0,1,3.045-1.331q2.927,0,2.926,2.814l-1.123.515q.02-.4.02-.615,0-2-1.6-1.995-1.69,0-1.691,4.234,0,3.64,1.889,3.64a1.623,1.623,0,0,0,1.3-.621,2.339,2.339,0,0,0,.519-1.552A6.53,6.53,0,0,0,1391.658,298.1Z" transform="translate(-1347.502 -288.372)"/>
    <path id="Path_18218" data-name="Path 18218" d="M1485.106,294.19v.9h-3.23v2.728h2.715v.9h-2.715V302.3h3.778v.9h-6.394V294.19Z" transform="translate(-1433.054 -289.856)"/>
    <path id="Path_18219" data-name="Path 18219" d="M966.738,451.91v.49h-1.771v1.629h1.5v.49h-1.5v2.276H963.55V451.91Z" transform="translate(-963.542 -433.447)"/>
    <path id="Path_18220" data-name="Path 18220" d="M1004.262,450.95q2.132,0,2.133,2.526T1004.222,456q-2.173,0-2.172-2.584Q1002.051,450.95,1004.262,450.95Zm-.039.39a.545.545,0,0,0-.542.442,10.208,10.208,0,0,0,0,3.388.553.553,0,0,0,1.084,0,10.2,10.2,0,0,0,0-3.386A.546.546,0,0,0,1004.222,451.34Z" transform="translate(-998.593 -432.573)"/>
    <path id="Path_18221" data-name="Path 18221" d="M1057.54,456.795V451.91h2.1a2.239,2.239,0,0,1,1.31.345,1.077,1.077,0,0,1,.49.925q0,.888-1.052,1.156a1.434,1.434,0,0,1,.7.44,2.182,2.182,0,0,1,.217.931,2.228,2.228,0,0,0,.276,1.088h-1.539a2.15,2.15,0,0,1-.147-.848l-.007-.29-.007-.365q0-.844-.68-.845h-.244v2.347h-1.417Zm1.417-2.752h.287q.8,0,.805-.841t-.805-.841h-.287Z" transform="translate(-1049.112 -433.447)"/>
    <path id="Path_18222" data-name="Path 18222" d="M1132.158,433.886v3.391h-1.978V430.46h1.978V433.2h1.613V430.46h1.977v6.816h-1.977v-3.391Z" transform="translate(-1115.245 -413.919)"/>
    <path id="Path_18223" data-name="Path 18223" d="M1209.809,430.46v.684h-2.442v2.062h2.052v.684h-2.052v2.7h2.857v.684h-4.834v-6.816h4.419Z" transform="translate(-1183.718 -413.919)"/>
    <path id="Path_18224" data-name="Path 18224" d="M1264.756,430.46l1.9,6.816h-1.988l-.4-1.478h-2.052l-.434,1.478H1261l2.017-6.816Zm-2.352,4.655h1.672l-.8-3.022Z" transform="translate(-1234.346 -413.919)"/>
    <path id="Path_18225" data-name="Path 18225" d="M1329.948,430.46v6.133h2.8v.684h-4.779v-6.816h1.978Z" transform="translate(-1295.317 -413.919)"/>
    <path id="Path_18226" data-name="Path 18226" d="M1388.038,430.46v6.816h-1.978V430.46Z" transform="translate(-1348.203 -413.919)"/>
    <path id="Path_18227" data-name="Path 18227" d="M1425.933,430.46v6.816h-1.513l-2.846-4.314v4.314h-.664V430.46h1.253l3.106,4.659V430.46Z" transform="translate(-1379.931 -413.919)"/>
    <path id="Path_18228" data-name="Path 18228" d="M1489.312,432.422h2.8v3.68h-.628l-.214-.469a2.955,2.955,0,0,1-1.741.584,3.028,3.028,0,0,1-2.346-.907,3.629,3.629,0,0,1-.836-2.554,3.748,3.748,0,0,1,.885-2.594,2.958,2.958,0,0,1,2.317-.992,2.154,2.154,0,0,1,2.294,1.928l-.928.425v-.165l-.015-.369q-.1-1.2-1.113-1.2a1.015,1.015,0,0,0-1.022.64,6.914,6.914,0,0,0-.274,2.382,7.214,7.214,0,0,0,.222,2.212.833.833,0,0,0,.846.584q.734,0,.733-.819v-1.678h-.983Z" transform="translate(-1439.509 -412.744)"/>
    <rect id="Rectangle_18" data-name="Rectangle 18" width="52.606" height="0.189" transform="translate(0 2.805)"/>
    <rect id="Rectangle_19" data-name="Rectangle 19" width="52.606" height="0.189" transform="translate(0 15.004)"/>
    <rect id="Rectangle_20" data-name="Rectangle 20" width="52.614" height="0.189" transform="translate(0.008 25.557)"/>
  </g>
  <g id="Group_22" data-name="Group 22" transform="translate(0 34.714)">
    <path id="Path_18229" data-name="Path 18229" d="M952.392,650.23a2.919,2.919,0,0,1-1.429-1.345,5.743,5.743,0,0,1,0-4.61,2.917,2.917,0,0,1,1.429-1.345v.382a2.271,2.271,0,0,0-.86,1.162,8.638,8.638,0,0,0,0,4.212,2.267,2.267,0,0,0,.86,1.162Z" transform="translate(-950.48 -642.93)" fill="#e52e2b"/>
    <path id="Path_18230" data-name="Path 18230" d="M984.166,658.41h.9v4.672a1.474,1.474,0,0,1-.425.923,1.309,1.309,0,0,1-.966.245h-1.339a1.237,1.237,0,0,1-.969-.387,2.033,2.033,0,0,1-.327-1.357v-1.371h.931v1.741a.525.525,0,0,0,.573.584h1.036q.634.012.592-.783V658.41Z" transform="translate(-978.298 -657.023)" fill="#e52e2b"/>
    <path id="Path_18231" data-name="Path 18231" d="M1032.919,675.79V678.9a1.308,1.308,0,0,1-.211.81,1.2,1.2,0,0,1-1.02.358h-1.14v-.79h1.25q.351-.031.269-.378a1.477,1.477,0,0,1-1.4-.6,1.721,1.721,0,0,1-.148-1.575q.3-.924,2.1-.941Zm-.853.767q-1.005.043-.845,1.032a.731.731,0,0,0,.845.576Z" transform="translate(-1023.237 -672.846)" fill="#e52e2b"/>
    <path id="Path_18232" data-name="Path 18232" d="M1064.926,659.967h.911v2.375h.88V658.41h.911v4.672H1064v-.74h.926Zm.113-1.234v.355h-.113v.3h.8v-.3h-.46v-.226c-.005-.07.029-.1.1-.1h.358v-.307h-.518A.47.47,0,0,0,1065.039,658.733Z" transform="translate(-1053.831 -657.023)" fill="#e52e2b"/>
    <path id="Path_18233" data-name="Path 18233" d="M1110.581,663.082h-.911V658.41h.911Z" transform="translate(-1095.41 -657.023)" fill="#e52e2b"/>
    <path id="Path_18234" data-name="Path 18234" d="M1156.011,678.357h-2.051a.2.2,0,0,0-.2.211q-.012.191.452.164h1.561v.795h-1.631q-.915.051-1.121-.43a1.285,1.285,0,0,1,0-1.006.82.82,0,0,1,.759-.46l.008-.012h0a1.6,1.6,0,0,1-.191-1.039,1.488,1.488,0,0,1,.682-1.1,1.662,1.662,0,0,1,1.366-.237l.183.732q-1.453-.086-1.343,1.067a.637.637,0,0,0,.5.581h1.032v.737Z" transform="translate(-1134.782 -672.299)" fill="#e52e2b"/>
    <path id="Path_18235" data-name="Path 18235" d="M1194.49,675.79v2.375h.37v.74h-.37a1.308,1.308,0,0,1-.211.81,1.2,1.2,0,0,1-1.02.358h-1.14v-.79h1.25q.351-.031.269-.378a1.477,1.477,0,0,1-1.4-.6,1.721,1.721,0,0,1-.148-1.575q.3-.924,2.1-.941Zm-.852.767q-1.005.043-.845,1.032a.731.731,0,0,0,.845.576Z" transform="translate(-1170.333 -672.846)" fill="#e52e2b"/>
    <path id="Path_18236" data-name="Path 18236" d="M1223.054,661.551h.911v2.375h.526v.74H1222.4v-.74h.654Zm.012-1.4h.818v.818h-.818Z" transform="translate(-1198.041 -658.607)" fill="#e52e2b"/>
    <path id="Path_18237" data-name="Path 18237" d="M1244.638,658.41h.911v4.672h-1.409v-.74h.5Z" transform="translate(-1217.834 -657.023)" fill="#e52e2b"/>
    <path id="Path_18238" data-name="Path 18238" d="M1266.081,663.082h-.911V658.41h.911Z" transform="translate(-1236.98 -657.023)" fill="#e52e2b"/>
    <path id="Path_18239" data-name="Path 18239" d="M1284.55,650.239v-.382a2.286,2.286,0,0,0,.863-1.162,8.581,8.581,0,0,0,0-4.212,2.276,2.276,0,0,0-.863-1.162v-.382a2.917,2.917,0,0,1,1.432,1.345,5.742,5.742,0,0,1,0,4.61A2.917,2.917,0,0,1,1284.55,650.239Z" transform="translate(-1254.624 -642.939)" fill="#e52e2b"/>
    <path id="Path_18240" data-name="Path 18240" d="M1346.946,675.79v.778h-1.46v1.44h1.46v.825q.039,1.328-1.277,1.238h-1.553l0,0-.008,0a.684.684,0,0,1-.646-.818v-2.782h.755v2.807h1.479c.2-.023.309-.115.335-.272v-.163c0-.018-.005-.037-.008-.055h-1.4v-2.016q-.027-.969.763-.981h1.558Zm-2.78,5.49h.818v-.818h-.818Zm1.168,0h.818v-.818h-.818Z" transform="translate(-1308.26 -672.846)" fill="#e52e2b"/>
    <path id="Path_18241" data-name="Path 18241" d="M1386.8,675.79v2.375h.385v.74h-.432a1.279,1.279,0,0,1-1.467,1.168v-.795q.642,0,.639-.891v-2.6Z" transform="translate(-1346.339 -672.846)" fill="#e52e2b"/>
    <path id="Path_18242" data-name="Path 18242" d="M1404.67,662.342h3.266q.2-1.086-.495-1.117h-2.394v-1.051l2.2-1.764h1.253l-2.352,1.947h1.312q1.363.074,1.425,1.285v.7h.246l.008.74h-4.466Z" transform="translate(-1363.983 -657.023)" fill="#e52e2b"/>
    <path id="Path_18243" data-name="Path 18243" d="M1456.41,676.374h.95v1.791h.958V675.79h.95v2.375h.409v.74h-6.295v-.74h1.122v-1.207h.95v1.207h.958v-1.791Z" transform="translate(-1408.329 -672.846)" fill="#e52e2b"/>
    <path id="Path_18244" data-name="Path 18244" d="M1522.458,658.41h.911v4.672h-1.409v-.74h.5Z" transform="translate(-1470.766 -657.023)" fill="#e52e2b"/>
    <path id="Path_18245" data-name="Path 18245" d="M1543.9,663.082h-.911V658.41h.911Z" transform="translate(-1489.912 -657.023)" fill="#e52e2b"/>
  </g>
  <rect id="Rectangle_21" data-name="Rectangle 21" width="52.614" height="0.189" transform="translate(1.235 33.342)"/>
</svg>
