<svg id="Group_19" data-name="Group 19" xmlns="http://www.w3.org/2000/svg" width="46.164" height="50" viewBox="0 0 46.164 50">
  <path id="Path_18202" data-name="Path 18202" d="M584.937,747.924l-2.393-3.6h-1.9l4.3,6.472,4.3-6.472h-1.9Z" transform="translate(-561.743 -700.792)" fill="#e52e2b"/>
  <path id="Path_18203" data-name="Path 18203" d="M421.008,268.94H382.017a3.514,3.514,0,0,0-3.587,3.427V308.6a3.514,3.514,0,0,0,3.587,3.427H397.7v-1.513h0V270.453h7.5v40.063h0v1.513h15.811a3.514,3.514,0,0,0,3.587-3.427V272.367A3.514,3.514,0,0,0,421.008,268.94Zm-38.991,41.576a1.982,1.982,0,0,1-2.042-1.912V272.367a1.982,1.982,0,0,1,2.042-1.912h5v40.062Zm38.991-40.063a1.982,1.982,0,0,1,2.042,1.912V308.6a1.982,1.982,0,0,1-2.042,1.912h-5.137V270.453Zm-24.9,40.063h-7.5V270.453h7.5Zm10.673-40.063h7.5v40.062h-7.5Z" transform="translate(-378.43 -268.94)" fill="#2d8235"/>
</svg>
