<svg xmlns="http://www.w3.org/2000/svg" width="47.992" height="43.005" viewBox="0 0 47.992 43.005">
  <g id="upload-icon" transform="translate(-0.002 0.005)">
    <g id="Path_1" data-name="Path 1" transform="matrix(1, 0.017, -0.017, 1, 0.582, 0)" fill="#f2f8f5">
      <path d="M 9.925785064697266 31.88959693908691 L 9.923675537109375 31.88959693908691 C 7.535535335540771 31.88959693908691 5.291295528411865 30.97247695922852 3.604365587234497 29.30716705322266 C 1.92093551158905 27.64531707763672 0.9941354990005493 25.43662643432617 0.9946755170822144 23.08794593811035 C 0.9950954914093018 21.26761627197266 1.554115533828735 19.52079582214355 2.611295461654663 18.03633689880371 C 3.647455453872681 16.58138656616211 5.082055568695068 15.48022651672363 6.760015487670898 14.8518762588501 L 7.425315380096436 14.60274600982666 L 7.409065723419189 13.89250659942627 C 7.406785488128662 13.79288578033447 7.405635356903076 13.69388580322266 7.405655384063721 13.5982666015625 C 7.406425476074219 10.23518657684326 8.734865188598633 7.072366237640381 11.14623546600342 4.692476272583008 C 13.56108570098877 2.309156179428101 16.77222633361816 0.9961861968040466 20.18812561035156 0.9954062104225159 C 22.92866516113281 0.9954062104225159 25.53816604614258 1.836086273193359 27.73754501342773 3.426566123962402 C 29.89130592346191 4.984076023101807 31.47337532043457 7.121206283569336 32.31270599365234 9.606936454772949 L 32.62369537353516 10.52793598175049 L 33.55313491821289 10.24313640594482 C 34.40922546386719 9.980806350708008 35.30256652832031 9.847685813903809 36.20835494995117 9.847476005554199 C 38.59866714477539 9.847476005554199 40.8429069519043 10.76453590393066 42.5297737121582 12.42970657348633 C 44.21319580078125 14.09148597717285 45.14000701904297 16.30024528503418 45.13946533203125 18.64912605285645 C 45.13928604125977 19.44526672363281 45.03140640258789 20.23412704467773 44.8188362121582 20.99379539489746 L 44.67291641235352 21.51529693603516 L 45.0298957824707 21.9224853515625 C 45.92630386352539 22.94498634338379 46.41981506347656 24.25335693359375 46.41950607299805 25.60657691955566 C 46.41878509521484 28.71772575378418 43.84801483154297 31.24941635131836 40.68882369995117 31.25012588500977 C 39.43891525268555 31.25041580200195 34.00835418701172 31.37735557556152 27.72028541564941 31.52434539794922 C 20.40617561340332 31.69531631469727 12.11618518829346 31.88909530639648 9.925785064697266 31.88959693908691 Z" stroke="none"/>
      <path d="M 9.925565719604492 30.88959693908691 C 12.10438537597656 30.88910675048828 20.38823509216309 30.69546699523926 27.69691467285156 30.52461624145508 C 33.99119567871094 30.37748527526855 39.42711639404297 30.25041580200195 40.68860626220703 30.25012588500977 C 43.29663467407227 30.24953651428223 45.41891479492188 28.16634559631348 45.41950607299805 25.60634613037109 C 45.41975402832031 24.4958553314209 45.01434707641602 23.42168617248535 44.2779541015625 22.58171653747559 L 43.5639762878418 21.7673168182373 L 43.85582733154297 20.72433662414551 C 44.04387664794922 20.05230712890625 44.13930511474609 19.35402679443359 44.13946533203125 18.64889717102051 C 44.13994598388672 16.56966590881348 43.31878662109375 14.61371612548828 41.82726669311523 13.14137649536133 C 40.3287467956543 11.66213607788086 38.333984375 10.8474760055542 36.20859527587891 10.8474760055542 C 35.40210723876953 10.84766578674316 34.60725402832031 10.96601581573486 33.84611511230469 11.19925594329834 L 31.98724555969238 11.76886653900146 L 31.36526489257812 9.926846504211426 C 30.59286499023438 7.639346122741699 29.13578605651855 5.671796321868896 27.15155601501465 4.236886024475098 C 25.12377548217773 2.770496129989624 22.71690559387207 1.995406270027161 20.18834495544434 1.995406270027161 C 17.03699493408203 1.996126174926758 14.07524585723877 3.206726312637329 11.8486852645874 5.404216289520264 C 9.629125595092773 7.594786167144775 8.406365394592285 10.50492668151855 8.405655860900879 13.59845638275146 C 8.405635833740234 13.68642616271973 8.406695365905762 13.77765655517578 8.408805847167969 13.86963653564453 L 8.441305160522461 15.29009628295898 L 7.110705375671387 15.78836631774902 C 5.620135307312012 16.3465461730957 4.345935344696045 17.32446670532227 3.425845384597778 18.61642646789551 C 2.489935398101807 19.93059539794922 1.99504554271698 21.47690582275391 1.994675517082214 23.08817672729492 C 1.994195461273193 25.16721534729004 2.815355539321899 27.12309646606445 4.306895732879639 28.59551620483398 C 5.805465698242188 30.07487678527832 7.800205707550049 30.88959693908691 9.923675537109375 30.88959693908691 L 9.925565719604492 30.88959693908691 M 9.923672676086426 32.88959503173828 C 4.438675880432129 32.88959503173828 -0.006574345286935568 28.50148582458496 -0.005324497818946838 23.08771705627441 C -0.004354497883468866 18.89658546447754 2.661015510559082 15.319016456604 6.40932559967041 13.91538619995117 C 6.406915664672852 13.81006622314453 6.405635356903076 13.70396614074707 6.405655384063721 13.59807586669922 C 6.407385349273682 6.086996078491211 12.57821559906006 -0.002863781759515405 20.18789482116699 -0.004593781661242247 C 20.18863868713379 -0.004593950230628252 20.19038772583008 -0.004594133235514164 20.19112968444824 -0.004594133235514164 C 26.27549362182617 -0.004594133235514164 31.43681716918945 3.887115478515625 33.26015472412109 9.287015914916992 C 34.19214248657227 9.001430511474609 35.18371963500977 8.847282409667969 36.21044921875 8.847476005554199 C 41.6954460144043 8.847476005554199 46.14070510864258 13.23502731323242 46.13946533203125 18.64935684204102 C 46.13925552368164 19.55451583862305 46.01471710205078 20.43104553222656 45.78184509277344 21.26326560974121 C 46.80264663696289 22.42764663696289 47.41988372802734 23.94592666625977 47.41950607299805 25.6068058013916 C 47.41865539550781 29.27468681335449 44.40535736083984 32.24928665161133 40.68905639648438 32.25012588500977 C 37.95039367675781 32.25075531005859 13.94544506072998 32.88868713378906 9.926015853881836 32.88959503173828 C 9.925345420837402 32.88959503173828 9.924342155456543 32.88959503173828 9.923672676086426 32.88959503173828 Z" stroke="none" fill="#10458c"/>
    </g>
    <g id="Group_4" data-name="Group 4" transform="translate(17.55 20.499)">
      <line id="Line_1" data-name="Line 1" y2="21.501" transform="translate(6.88)" fill="none" stroke="#10458c" stroke-linecap="round" stroke-width="2"/>
      <line id="Line_2" data-name="Line 2" x2="6.88" y2="6.88" transform="translate(6.88)" fill="none" stroke="#10458c" stroke-linecap="round" stroke-width="2"/>
      <line id="Line_3" data-name="Line 3" x1="6.88" y2="6.88" fill="none" stroke="#10458c" stroke-linecap="round" stroke-width="2"/>
    </g>
  </g>
</svg>
