<svg xmlns="http://www.w3.org/2000/svg" enable-background="new 0 0 64 64" viewBox="0 0 64 64" id="Arrow"><g transform="translate(28 328)" fill="#000000" class="color000000 svgShape"><path fill="#10458c" d="M4-272.1c-13.2 0-23.9-10.7-23.9-23.9S-9.2-319.9 4-319.9s23.9 10.7 23.9 23.9S17.2-272.1 4-272.1zm0-45.2c-11.7 0-21.3 9.6-21.3 21.3s9.6 21.3 21.3 21.3 21.3-9.6 21.3-21.3-9.6-21.3-21.3-21.3z" class="color134563 svgShape"></path><path fill="#10458c" d="m3.5-282.3-1.8-1.9L13.4-296 1.7-307.8l1.8-1.9L17.2-296 3.5-282.3" class="color134563 svgShape"></path><path fill="#10458c" d="M15.3-294.6h-24v-2.8h24z" class="color134563 svgShape"></path></g></svg>