<svg xmlns="http://www.w3.org/2000/svg" width="10" height="7" viewBox="0 0 10 7">
  <path id="eye-solid" d="M5,.556A5.165,5.165,0,0,0,1.656,1.815,6.228,6.228,0,0,0,.043,3.863a.451.451,0,0,0,0,.384A6.228,6.228,0,0,0,1.656,6.3,5.165,5.165,0,0,0,5,7.556,5.165,5.165,0,0,0,8.343,6.3,6.277,6.277,0,0,0,9.957,4.248a.451.451,0,0,0,0-.384A6.261,6.261,0,0,0,8.343,1.815,5.165,5.165,0,0,0,5,.556Zm-2.5,3.5A2.385,2.385,0,0,1,5,1.806a2.385,2.385,0,0,1,2.5,2.25A2.385,2.385,0,0,1,5,6.306,2.385,2.385,0,0,1,2.5,4.056Zm2.5-1a1.061,1.061,0,0,1-1.111,1A1.241,1.241,0,0,1,3.536,4c-.1-.028-.207.025-.2.116a1.316,1.316,0,0,0,.056.323A1.694,1.694,0,0,0,5.43,5.5,1.492,1.492,0,0,0,6.609,3.666,1.639,1.639,0,0,0,5.071,2.556a.134.134,0,0,0-.128.183A.923.923,0,0,1,5,3.056Z" transform="translate(0 -0.556)" fill="#10458c"/>
</svg>
