<svg xmlns="http://www.w3.org/2000/svg" width="105.982" height="51.58" viewBox="0 0 105.982 51.58">
  <g id="healing-logo" transform="translate(-742.018 -1.12)">
    <path id="Path_18197" data-name="Path 18197" d="M693.058,931.047c.747-2.495-.41-4.911-1.71-6.995a28.5,28.5,0,0,0-5.792-6.035c-.162-.138-3.276,3-3.561,3.312a20.916,20.916,0,0,0-2.849,3.833q-.238.43-.441.88a6.5,6.5,0,0,0,.906,7.217,8.289,8.289,0,0,0,6.1,2.757C688.766,936.017,692.147,934.089,693.058,931.047Z" transform="translate(71.155 -883.33)" fill="#81f2c2"/>
    <path id="Path_18198" data-name="Path 18198" d="M667.6,725.454c.026.023.885-.757.97-.829a38.237,38.237,0,0,0,3.142-3c.159-.174.316-.349.468-.527,2.4-2.79,4.428-6.665,2.428-10.241a8.1,8.1,0,0,0-10.689-2.854,8.343,8.343,0,0,0-.768.467,7.1,7.1,0,0,0-2.883,8.436C661.608,720.468,664.787,723.076,667.6,725.454Z" transform="translate(86.37 -705.925)" fill="#81f2c2"/>
    <path id="Path_18199" data-name="Path 18199" d="M639.483,758.6a11.384,11.384,0,0,1-2.3-7.48,15.954,15.954,0,0,1,2.321-7.206,27.676,27.676,0,0,1,3.307-4.069,65.907,65.907,0,0,1,6.23-4.943c6.038-4.426,12.281-9,12.62-15.873v0a14.429,14.429,0,0,0-4.02-10.641,13.912,13.912,0,0,0-1.515-1.366,11.67,11.67,0,0,1,2.51,7.869A16.13,16.13,0,0,1,656.7,721.5a15.5,15.5,0,0,1-1.3,2.067c-2.021,2.751-5.314,5.145-8.62,7.562-5.945,4.345-12.092,8.84-12.432,15.7A14.164,14.164,0,0,0,639.483,758.6Zm12.31-29.06c.364-.288.719-.578,1.057-.861.215-.18.428-.365.634-.549h0a.346.346,0,0,1,.472.024.325.325,0,0,1-.023.466c-.2.178-.414.363-.65.561-.342.286-.7.58-1.071.873a.338.338,0,0,1-.211.074h0a.342.342,0,0,1-.26-.124.331.331,0,0,1-.077-.211A.357.357,0,0,1,651.794,729.54Zm-3.542,2.667c.531-.387,1.158-.848,1.786-1.316v0a.35.35,0,0,1,.472.061.331.331,0,0,1,.067.2.324.324,0,0,1-.133.265c-.6.45-1.215.9-1.792,1.323a.346.346,0,0,1-.2.066h0a.333.333,0,0,1-.269-.133.321.321,0,0,1-.067-.2A.333.333,0,0,1,648.252,732.207Zm-3.581,2.656c.514-.4,1.066-.808,1.786-1.34a.349.349,0,0,1,.47.066.325.325,0,0,1-.067.461c-.685.506-1.25.929-1.774,1.332a.339.339,0,0,1-.47-.055.324.324,0,0,1-.072-.2A.334.334,0,0,1,644.671,734.864Zm-3.435,2.867c.523-.484,1.073-.967,1.686-1.474a.347.347,0,0,1,.472.04.326.326,0,0,1,.08.209.333.333,0,0,1-.116.252l0,0s-.007.006-.012.008c-.6.5-1.142.971-1.648,1.441a.335.335,0,0,1-.231.09.343.343,0,0,1-.244-.1.328.328,0,0,1-.092-.228A.332.332,0,0,1,641.236,737.73Z" transform="translate(107.68 -705.9)" fill="#10458c"/>
    <g id="Group_11" data-name="Group 11" transform="translate(776.615 14.501)">
      <path id="Path_18162" data-name="Path 18162" d="M1013.947,824.56a1.59,1.59,0,0,0-1.5.981,7.479,7.479,0,0,0,0,5.324,1.588,1.588,0,0,0,1.5.981,1.676,1.676,0,0,0,1.541-.989,6.852,6.852,0,0,0,0-5.3A1.676,1.676,0,0,0,1013.947,824.56Z" transform="translate(-984.699 -819.187)" fill="none"/>
      <path id="Path_18163" data-name="Path 18163" d="M1249.059,828.861a1.147,1.147,0,0,0,1.06-.822,6.43,6.43,0,0,0,0-4.236,1.094,1.094,0,0,0-2.12,0,6.432,6.432,0,0,0,0,4.236A1.151,1.151,0,0,0,1249.059,828.861Z" transform="translate(-1181.772 -817.866)" fill="none"/>
      <path id="Path_18164" data-name="Path 18164" d="M852.543,810.257v.7h4.728v-.7h-1.05V799.4h1.05v-.7h-4.728v.7h1.052v5.989h-4.379V799.4h1.052v-.7H845.54v.7h1.05v10.857h-1.05v.7h4.728v-.7h-1.052v-4.08h4.379v4.08Z" transform="translate(-845.54 -797.563)" fill="#10458c"/>
      <path id="Path_18165" data-name="Path 18165" d="M939.949,825.675l-.49-.315a3.69,3.69,0,0,1-2.854,1.314,1.875,1.875,0,0,1-1.7-1,5.13,5.13,0,0,1-.595-2.644,4.8,4.8,0,0,1,.631-2.626c.421-.654.86-.981,1.322-.981a1.255,1.255,0,0,1,1.034.421,1.857,1.857,0,0,1,.341,1.2,2.538,2.538,0,0,1-2.38,2.408l.034.419a4.456,4.456,0,0,0,1.05.123,3.538,3.538,0,0,0,2.565-.937,2.8,2.8,0,0,0,.971-2.039,2.258,2.258,0,0,0-.875-1.822,3.7,3.7,0,0,0-2.416-.718,4.956,4.956,0,0,0-3.668,1.322,4.434,4.434,0,0,0-1.322,3.265,4.776,4.776,0,0,0,1.243,3.319,4.268,4.268,0,0,0,3.327,1.374,4.324,4.324,0,0,0,2.207-.568A4.558,4.558,0,0,0,939.949,825.675Z" transform="translate(-917.503 -814.103)" fill="#10458c"/>
      <path id="Path_18166" data-name="Path 18166" d="M1005.641,826.569a.863.863,0,0,1-.7-.272,1.117,1.117,0,0,1-.228-.744v-6.811h-2.626v.981a2.723,2.723,0,0,0-2.4-1.243,3.938,3.938,0,0,0-3.16,1.314,4.928,4.928,0,0,0-1.129,3.335,5.142,5.142,0,0,0,1.05,3.327,3.7,3.7,0,0,0,3.065,1.3,2.92,2.92,0,0,0,2.678-1.558,1.9,1.9,0,0,0,2.049,1.558,4.194,4.194,0,0,0,2.8-1.278l-.315-.421A1.824,1.824,0,0,1,1005.641,826.569Zm-4-.8a1.674,1.674,0,0,1-1.541.989,1.587,1.587,0,0,1-1.5-.981,7.479,7.479,0,0,1,0-5.324,1.588,1.588,0,0,1,1.5-.981,1.678,1.678,0,0,1,1.541.989,6.86,6.86,0,0,1,0,5.307Z" transform="translate(-970.852 -814.103)" fill="#10458c"/>
      <path id="Path_18167" data-name="Path 18167" d="M1069.829,804.226a.864.864,0,0,1-.7-.272,1.118,1.118,0,0,1-.228-.744V792.828a.892.892,0,0,0-.49-.762,2.323,2.323,0,0,0-1.252-.306,4.1,4.1,0,0,0-1.541.314,3.678,3.678,0,0,0-1.288.84l.473.542a2.719,2.719,0,0,1,1.471-.858v10.243q0,2.573,2.154,2.573a4.194,4.194,0,0,0,2.8-1.278l-.314-.421A1.814,1.814,0,0,1,1069.829,804.226Z" transform="translate(-1028.49 -791.76)" fill="#10458c"/>
      <path id="Path_18168" data-name="Path 18168" d="M1113.88,826.464l-.315-.421a1.806,1.806,0,0,1-1.086.508.863.863,0,0,1-.7-.272,1.117,1.117,0,0,1-.228-.744v-5.656q0-1.418-1.646-1.419a4.329,4.329,0,0,0-1.636.315,3.677,3.677,0,0,0-1.288.84l.473.542a2.719,2.719,0,0,1,1.471-.858v5.866q0,2.573,2.154,2.573A4.18,4.18,0,0,0,1113.88,826.464Z" transform="translate(-1064.153 -814.086)" fill="#10458c"/>
      <path id="Path_18169" data-name="Path 18169" d="M1160.955,826.569a.864.864,0,0,1-.7-.272,1.118,1.118,0,0,1-.228-.744v-4.5a2.549,2.549,0,0,0-.691-1.882,2.421,2.421,0,0,0-1.786-.691,5.367,5.367,0,0,0-1.8.254,3.969,3.969,0,0,0-1.366.885,4.186,4.186,0,0,0-2.591-.875,4.236,4.236,0,0,0-1.646.314l.246.647a3.518,3.518,0,0,1,1.4-.262V827.5h2.626v-6.251a1.521,1.521,0,0,1,.568-1.225,1.807,1.807,0,0,1,1.156-.473,1.328,1.328,0,0,1,.919.3,1.071,1.071,0,0,1,.333.84v4.5q0,2.573,2.154,2.573a4.194,4.194,0,0,0,2.8-1.278l-.315-.421A1.8,1.8,0,0,1,1160.955,826.569Z" transform="translate(-1100.252 -814.103)" fill="#10458c"/>
      <path id="Path_18170" data-name="Path 18170" d="M1236.648,821.5h-3.239q-1.015,0-1.016-.875a2.664,2.664,0,0,1,.613-1.3,4.488,4.488,0,0,0,2.189.508,4.194,4.194,0,0,0,2.976-1.06,3.554,3.554,0,0,0-.052-5.262,4.2,4.2,0,0,0,1.157-2.031l-.683-.175a3.5,3.5,0,0,1-1.034,1.786,4.55,4.55,0,0,0-2.364-.613,4.2,4.2,0,0,0-2.977,1.06,3.435,3.435,0,0,0-1.138,2.618,3.335,3.335,0,0,0,1.419,2.854,4.253,4.253,0,0,0-1.3,2.644q0,2.153,2.573,2.154h3.239a1.118,1.118,0,0,1,.744.228.81.81,0,0,1,.272.657,1.788,1.788,0,0,1-.508,1.042l.421.4a4.151,4.151,0,0,0,1.278-2.749Q1239.221,821.5,1236.648,821.5Zm-2.495-7.458a1.094,1.094,0,0,1,2.12,0,6.434,6.434,0,0,1,0,4.236,1.094,1.094,0,0,1-2.12,0,5.341,5.341,0,0,1-.359-2.118A5.281,5.281,0,0,1,1234.153,814.042Z" transform="translate(-1167.925 -808.108)" fill="#10458c"/>
      <path id="Path_18171" data-name="Path 18171" d="M912.028,904.564a3.034,3.034,0,0,1-1.384-.31,2.252,2.252,0,0,1-.953-.88,2.59,2.59,0,0,1,0-2.565,2.314,2.314,0,0,1,.957-.89,2.989,2.989,0,0,1,1.379-.316,4.1,4.1,0,0,1,1.173.169,6.018,6.018,0,0,1,1.224.549v-1.3a5.985,5.985,0,0,0-1.261-.472,5.2,5.2,0,0,0-1.2-.138,4.525,4.525,0,0,0-2.075.467,3.52,3.52,0,0,0-1.446,1.328,3.658,3.658,0,0,0-.526,1.944,3.536,3.536,0,0,0,.511,1.859,3.4,3.4,0,0,0,1.4,1.3,4.422,4.422,0,0,0,2.026.452,5.372,5.372,0,0,0,1.365-.154,6.321,6.321,0,0,0,1.283-.518v-1.3a8.16,8.16,0,0,1-1.351.611A3.829,3.829,0,0,1,912.028,904.564Z" transform="translate(-897.701 -880.94)" fill="#81f2c2"/>
      <path id="Path_18172" data-name="Path 18172" d="M975.945,912.9a2.293,2.293,0,0,0-1.732.693,2.468,2.468,0,0,0-.663,1.786,2.386,2.386,0,0,0,.717,1.815,2.574,2.574,0,0,0,1.851.681,3.444,3.444,0,0,0,2.041-.595v-.939a3.837,3.837,0,0,1-.865.475,2.448,2.448,0,0,1-.87.157,1.641,1.641,0,0,1-1.106-.346,1.482,1.482,0,0,1-.48-.988h3.391v-.19a2.68,2.68,0,0,0-.616-1.872A2.136,2.136,0,0,0,975.945,912.9Zm-1.083,1.976a1.39,1.39,0,0,1,.367-.831,1.051,1.051,0,0,1,.767-.282.941.941,0,0,1,.734.295,1.4,1.4,0,0,1,.318.817Z" transform="translate(-952.581 -893.056)" fill="#81f2c2"/>
      <path id="Path_18173" data-name="Path 18173" d="M1030.835,912.9a1.812,1.812,0,0,0-.8.177,2.256,2.256,0,0,0-.716.588v-.672h-1.261v4.791h1.261V914.6a2.55,2.55,0,0,1,.565-.572.966.966,0,0,1,.549-.172.742.742,0,0,1,.608.272,1.129,1.129,0,0,1,.223.739v2.919h1.256v-3.047a1.9,1.9,0,0,0-.459-1.332A1.578,1.578,0,0,0,1030.835,912.9Z" transform="translate(-998.161 -893.056)" fill="#81f2c2"/>
      <path id="Path_18174" data-name="Path 18174" d="M1081.232,910.66a.718.718,0,0,1-.195-.523v-2.211h1.641v-.953h-1.641V905.7h-.1l-1.9,2.021v.2h.749v2.293a1.59,1.59,0,0,0,.454,1.2,1.736,1.736,0,0,0,1.265.441,3.183,3.183,0,0,0,1.283-.3v-1.011a2.166,2.166,0,0,1-1.016.318A.711.711,0,0,1,1081.232,910.66Z" transform="translate(-1040.782 -887.036)" fill="#81f2c2"/>
      <path id="Path_18175" data-name="Path 18175" d="M1127.055,912.9a2.293,2.293,0,0,0-1.731.693,2.475,2.475,0,0,0-.663,1.786,2.386,2.386,0,0,0,.718,1.815,2.575,2.575,0,0,0,1.851.681,3.441,3.441,0,0,0,2.041-.595v-.939a3.874,3.874,0,0,1-.865.475,2.449,2.449,0,0,1-.87.157,1.64,1.64,0,0,1-1.106-.346,1.482,1.482,0,0,1-.48-.988h3.391v-.19a2.68,2.68,0,0,0-.616-1.872A2.136,2.136,0,0,0,1127.055,912.9Zm-1.083,1.976a1.389,1.389,0,0,1,.367-.831,1.051,1.051,0,0,1,.767-.282.941.941,0,0,1,.734.295,1.4,1.4,0,0,1,.318.817Z" transform="translate(-1078.938 -893.056)" fill="#81f2c2"/>
      <path id="Path_18176" data-name="Path 18176" d="M1181.9,912.9a1.13,1.13,0,0,0-.765.31,3.318,3.318,0,0,0-.693,1h-.021v-1.22h-1.261v4.791h1.261V915.6a1.646,1.646,0,0,1,.172-.718,1.546,1.546,0,0,1,.457-.577.94.94,0,0,1,.577-.218,1.674,1.674,0,0,1,.883.41l.452-1.1a2.765,2.765,0,0,0-.567-.38A1.164,1.164,0,0,0,1181.9,912.9Z" transform="translate(-1124.51 -893.056)" fill="#81f2c2"/>
      <path id="Path_18177" data-name="Path 18177" d="M1118.08,796.217a4.687,4.687,0,0,0-.511.475,2.967,2.967,0,0,0-.408.55c-.023.041-.044.083-.064.126a.933.933,0,0,0,.129,1.035,1.19,1.19,0,0,0,.875.4,1.113,1.113,0,0,0,1.055-.713,1.25,1.25,0,0,0-.246-1A4.093,4.093,0,0,0,1118.08,796.217Z" transform="translate(-1072.531 -795.486)" fill="#10458c"/>
    </g>
  </g>
</svg>
