<svg xmlns="http://www.w3.org/2000/svg" width="18" height="18" viewBox="0 0 18 18">
  <path id="instagram" d="M8.927,36.21a4.615,4.615,0,1,0,4.614,4.615A4.607,4.607,0,0,0,8.927,36.21Zm0,7.615a3,3,0,1,1,3-3,3.005,3.005,0,0,1-3,3Zm5.879-7.8a1.076,1.076,0,1,1-1.076-1.076A1.074,1.074,0,0,1,14.806,36.021Zm3.056,1.092a5.328,5.328,0,0,0-1.454-3.772,5.36,5.36,0,0,0-3.771-1.454c-1.486-.084-5.939-.084-7.425,0a5.352,5.352,0,0,0-3.771,1.45A5.345,5.345,0,0,0-.012,37.11C-.1,38.6-.1,43.05-.012,44.536a5.328,5.328,0,0,0,1.454,3.772,5.367,5.367,0,0,0,3.771,1.454c1.486.084,5.939.084,7.425,0a5.325,5.325,0,0,0,3.771-1.454,5.363,5.363,0,0,0,1.454-3.772C17.946,43.05,17.946,38.6,17.862,37.114Zm-1.919,9.017a3.037,3.037,0,0,1-1.711,1.711c-1.185.47-4,.361-5.3.361s-4.124.1-5.3-.361a3.037,3.037,0,0,1-1.711-1.711c-.47-1.185-.361-4-.361-5.306s-.1-4.125.361-5.306a3.037,3.037,0,0,1,1.711-1.711c1.185-.47,4-.361,5.3-.361s4.124-.1,5.3.361a3.037,3.037,0,0,1,1.711,1.711c.47,1.185.361,4,.361,5.306S16.412,44.95,15.942,46.131Z" transform="translate(17.925 49.825) rotate(180)" fill="#10458c"/>
</svg>
