<svg xmlns="http://www.w3.org/2000/svg" width="27.341" height="51.58" viewBox="0 0 27.341 51.58">
  <g id="Group_14899" data-name="Group 14899" transform="translate(-742.018 -1.12)">
    <path id="Path_18197" data-name="Path 18197" d="M693.058,931.047c.747-2.495-.41-4.911-1.71-6.995a28.5,28.5,0,0,0-5.792-6.035c-.162-.138-3.276,3-3.561,3.312a20.916,20.916,0,0,0-2.849,3.833q-.238.43-.441.88a6.5,6.5,0,0,0,.906,7.217,8.289,8.289,0,0,0,6.1,2.757C688.766,936.017,692.147,934.089,693.058,931.047Z" transform="translate(71.155 -883.331)" fill="#81f2c2"/>
    <g id="Group_14898" data-name="Group 14898">
      <path id="Path_18198" data-name="Path 18198" d="M667.6,725.454c.026.023.885-.757.97-.829a38.237,38.237,0,0,0,3.142-3c.159-.174.316-.349.468-.527,2.4-2.79,4.428-6.665,2.428-10.241a8.1,8.1,0,0,0-10.689-2.854,8.343,8.343,0,0,0-.768.467,7.1,7.1,0,0,0-2.883,8.436C661.608,720.468,664.787,723.076,667.6,725.454Z" transform="translate(86.37 -705.925)" fill="#81f2c2"/>
      <path id="Path_18199" data-name="Path 18199" d="M639.483,758.6a11.384,11.384,0,0,1-2.3-7.48,15.954,15.954,0,0,1,2.321-7.206,27.676,27.676,0,0,1,3.307-4.069,65.907,65.907,0,0,1,6.23-4.943c6.038-4.426,12.281-9,12.62-15.873v0a14.429,14.429,0,0,0-4.02-10.641,13.912,13.912,0,0,0-1.515-1.366,11.67,11.67,0,0,1,2.51,7.869A16.13,16.13,0,0,1,656.7,721.5a15.5,15.5,0,0,1-1.3,2.067c-2.021,2.751-5.314,5.145-8.62,7.562-5.945,4.345-12.092,8.84-12.432,15.7A14.164,14.164,0,0,0,639.483,758.6Zm12.31-29.06c.364-.288.719-.578,1.057-.861.215-.18.428-.365.634-.549h0a.346.346,0,0,1,.472.024.325.325,0,0,1-.023.466c-.2.178-.414.363-.65.561-.342.286-.7.58-1.071.873a.338.338,0,0,1-.211.074h0a.342.342,0,0,1-.26-.124.331.331,0,0,1-.077-.211A.357.357,0,0,1,651.794,729.54Zm-3.542,2.667c.531-.387,1.158-.848,1.786-1.316v0a.35.35,0,0,1,.472.061.331.331,0,0,1,.067.2.324.324,0,0,1-.133.265c-.6.45-1.215.9-1.792,1.323a.346.346,0,0,1-.2.066h0a.333.333,0,0,1-.269-.133.321.321,0,0,1-.067-.2A.333.333,0,0,1,648.252,732.207Zm-3.581,2.656c.514-.4,1.066-.808,1.786-1.34a.349.349,0,0,1,.47.066.325.325,0,0,1-.067.461c-.685.506-1.25.929-1.774,1.332a.339.339,0,0,1-.47-.055.324.324,0,0,1-.072-.2A.334.334,0,0,1,644.671,734.864Zm-3.435,2.867c.523-.484,1.073-.967,1.686-1.474a.347.347,0,0,1,.472.04.326.326,0,0,1,.08.209.333.333,0,0,1-.116.252l0,0s-.007.006-.012.008c-.6.5-1.142.971-1.648,1.441a.335.335,0,0,1-.231.09.343.343,0,0,1-.244-.1.328.328,0,0,1-.092-.228A.332.332,0,0,1,641.236,737.73Z" transform="translate(107.68 -705.9)" fill="#10458c"/>
    </g>
  </g>
</svg>
