<svg id="Phone" xmlns="http://www.w3.org/2000/svg" width="24" height="24" viewBox="0 0 24 24">
  <rect id="Phone_Background_" data-name="Phone (Background)" width="24" height="24" fill="none"/>
  <path id="Vector" d="M24,0V24H0V0Z" fill="none"/>
  <path id="Vector-2" data-name="Vector" d="M8.581,12.316a.743.743,0,0,0,.734-.056L11.662,10.7a.75.75,0,0,1,.712-.065l4.391,1.882a.748.748,0,0,1,.45.778,4.5,4.5,0,0,1-4.464,3.93A12.75,12.75,0,0,1,0,4.47,4.5,4.5,0,0,1,3.93.005a.748.748,0,0,1,.778.45L6.592,4.85a.75.75,0,0,1-.062.706L4.97,7.939a.743.743,0,0,0-.05.732h0A7.908,7.908,0,0,0,8.581,12.316Z" transform="translate(3.75 3.03)" fill="none" stroke="#838383" stroke-linecap="round" stroke-linejoin="round" stroke-width="1.5" stroke-dasharray="0 0"/>
</svg>
