<svg id="quote" xmlns="http://www.w3.org/2000/svg" width="55" height="55" viewBox="0 0 55 55">
  <path id="Vector" d="M0,55H55V0H0Z" fill="none"/>
  <path id="Vector-2" data-name="Vector" d="M37.159,28.8c2.356-2.521,3.621-5.349,3.621-9.933C40.78,10.8,35.16,3.575,26.988,0L24.946,3.176c7.628,4.158,9.119,9.553,9.714,12.955a8.158,8.158,0,0,0-9.446,13.028,7.974,7.974,0,0,0,5.66,2.363A8.822,8.822,0,0,0,37.159,28.8Zm-22.871,0c2.356-2.521,3.621-5.349,3.621-9.933,0-8.067-5.62-15.3-13.791-18.871L2.074,3.176c7.628,4.158,9.119,9.553,9.714,12.955a8.133,8.133,0,0,0-4.412-.717A8.083,8.083,0,0,0,2.345,29.159a7.974,7.974,0,0,0,5.66,2.363A8.822,8.822,0,0,0,14.29,28.8Z" transform="translate(7.306 10.969)" fill="#10458c"/>
</svg>
