<svg xmlns="http://www.w3.org/2000/svg" width="2160.359" height="1313.207" viewBox="0 0 2160.359 1313.207">
  <g id="content-background-shape" transform="matrix(-0.985, -0.174, 0.174, -0.985, 1870.505, 1010.509)" opacity="0.3">
    <g id="content-background-shape-2" data-name="content-background-shape" transform="translate(80.527 -48.109)">
      <g id="content-background-shape-3" data-name="content-background-shape" transform="translate(66.676 412.692)" opacity="0.7">
        <path id="content-bc-shape2" d="M177.952.127c24.641.974,46.426,14.21,69.506,24.623,29.619,13.364,65.661,15.107,85.073,45.122,20.285,31.365,26.894,76.319,18.269,114.664-8.38,37.258-42.7,54.579-63.051,84.44-21.146,31.027-27.8,79.481-58.8,94.349-31.145,14.937-66.542-3.248-97.22-19.522-27.993-14.849-47.711-42.816-69.334-68.83C39.033,246.868,1.844,225.068.066,185.406c-1.8-40.117,33.627-66.793,53.885-98.758C69.66,61.861,83.018,34.781,105.442,19.134,127.277,3.9,152.716-.871,177.952.127Z" transform="translate(-188.935 -460.183)" fill="#10458c" fill-rule="evenodd" opacity="0.62"/>
        <path id="content-bc-shape1" d="M242.2,10.174c33.583,2.347,63.862,16.555,95.769,28.07,40.947,14.777,90.084,18.522,117.93,49.05,29.1,31.9,40.229,76.355,30.313,113.468-9.635,36.06-55.522,51.107-81.8,79.239-27.306,29.23-34.061,76.367-75.547,89.195-41.68,12.888-90.719-6.943-133.246-24.633-38.805-16.142-66.971-44.679-97.636-71.408C64.855,244.276,13.2,220.8,8.9,181.808c-4.354-39.439,42.594-63.6,68.646-93.8,20.2-23.418,37.1-49.218,66.873-63.294C173.412,11.011,207.809,7.77,242.2,10.174Z" transform="translate(1543.274 -343.788) rotate(75)" fill="#81f2c2" fill-rule="evenodd" opacity="0.621"/>
      </g>
    </g>
  </g>
</svg>
