<svg id="review-illustration" xmlns="http://www.w3.org/2000/svg" xmlns:xlink="http://www.w3.org/1999/xlink" width="554" height="553" viewBox="0 0 554 553">
  <defs>
    <clipPath id="clip-path">
      <rect id="Rectangle_196" data-name="Rectangle 196" width="554" height="553" fill="none"/>
    </clipPath>
    <clipPath id="clip-path-3">
      <rect id="Rectangle_182" data-name="Rectangle 182" width="533.839" height="79.436" fill="none"/>
    </clipPath>
    <clipPath id="clip-path-4">
      <rect id="Rectangle_185" data-name="Rectangle 185" width="53.397" height="45.046" fill="none"/>
    </clipPath>
    <clipPath id="clip-path-5">
      <rect id="Rectangle_188" data-name="Rectangle 188" width="9.17" height="31.371" fill="none"/>
    </clipPath>
    <clipPath id="clip-path-6">
      <rect id="Rectangle_192" data-name="Rectangle 192" width="196.132" height="167.58" fill="none"/>
    </clipPath>
    <clipPath id="clip-path-7">
      <path id="Path_75244" data-name="Path 75244" d="M501.445,311.008v84.358a27.978,27.978,0,0,1-26.674,27.939l7.845,22.3a3.683,3.683,0,0,1-5.688,4.215l-40.354-26.469H333.311a28.032,28.032,0,0,1-27.9-25.734c-.049-.735-.1-1.471-.1-2.255V311.008a28.015,28.015,0,0,1,28-27.988H473.447a28.016,28.016,0,0,1,28,27.988" transform="translate(-305.313 -283.02)" fill="none"/>
    </clipPath>
    <linearGradient id="linear-gradient" x1="-0.588" y1="1.688" x2="-0.585" y2="1.688" gradientUnits="objectBoundingBox">
      <stop offset="0" stop-color="#fff"/>
      <stop offset="1" stop-color="#231f20"/>
    </linearGradient>
    <clipPath id="clip-path-8">
      <rect id="Rectangle_193" data-name="Rectangle 193" width="59.428" height="27.841" fill="none"/>
    </clipPath>
    <clipPath id="clip-path-9">
      <rect id="Rectangle_194" data-name="Rectangle 194" width="62.616" height="24.302" fill="none"/>
    </clipPath>
  </defs>
  <g id="Group_14842" data-name="Group 14842" clip-path="url(#clip-path)">
    <g id="Group_14841" data-name="Group 14841">
      <g id="Group_14840" data-name="Group 14840" clip-path="url(#clip-path)">
        <path id="Path_75208" data-name="Path 75208" d="M269.273,706.869c.566-.178,1.088-.408,1.631-.612A37.85,37.85,0,0,0,275.382,704a18.81,18.81,0,0,0,3.327-5.562c3.2-7.913,4.716-24.1-17.77-46.954-15.341-15.547-17.315-15.107-17.082-33.095.037-.729.023-1.462.044-2.265.415-20.317-28.364-25.679-34.715-49.616s-34.252-11.913-17.455,7.841c16.82,19.779-7.63,47.671,19.637,65.365,27.239,17.716,15.5,21.682,22.695,45.706,6.279,20.931,21.3,26.4,35.21,21.449" transform="translate(-79.439 -235.848)" fill="rgba(129,242,194,0.3)"/>
        <path id="Path_75209" data-name="Path 75209" d="M278.238,714.366c-.487-1.12-48.9-112.349-73.322-142.44l-1.405,1.021c24.287,29.929,72.622,140.967,73.107,142.084Z" transform="translate(-86.719 -243.816)" fill="#f8f8f8"/>
        <path id="Path_75210" data-name="Path 75210" d="M277.2,704.491c2.743,1.569,6.216-1.568,10.088-7.962,12.262-20.339,28.8-73.731,40.649-114.082,7.975-27.186,13.834-48.421,14.875-49.7a267.5,267.5,0,0,0-32.741,37.2c-17.328,23.671-35.593,56.488-38.018,92.186a109.482,109.482,0,0,0,5.147,42.351" transform="translate(-115.803 -227.116)" fill="rgba(129,242,194,0.3)"/>
        <path id="Path_75211" data-name="Path 75211" d="M268.358,725.236c-11.609-2.987-8.314-44.718-25.535-72.487s18.519-15.519,30.506-21.619,1.876-37.673,13.651-40.8,23.106,9.687,18.737,26.67,11.987-6.1,19,.375-18.193,42.431-6.967,44.608,32.017-8.927,15.287,21.025-39.685,48.661-64.677,42.228" transform="translate(-101.507 -251.46)" fill="rgba(129,242,194,0.55)"/>
        <path id="Path_75212" data-name="Path 75212" d="M287.19,673.883l2.6-.408c2.115,13.533,12.8,26.872,16.419,31.067,5.019-9.316,9.114-19.081,9.392-26.506.287-7.7-.791-15.365-1.935-23.475-.542-3.839-1.069-7.722-1.466-11.639-2.235-1.718-8.925-7.213-8.344-11.006l2.6.4c-.2,1.3,2.363,4.277,5.414,6.928-.59-8.086-.356-16.33,2.072-24.734l2.527.731c-3.824,13.236-1.982,26.31-.2,38.953.083.588.161,1.186.244,1.778,1.958.37,7.372.679,11.559-6.116l2.239,1.38c-4.472,7.255-10.4,7.738-13.43,7.421a115.122,115.122,0,0,1,1.349,19.478,41.835,41.835,0,0,1-2.457,11.592c3.889,1.344,16.981,5.062,26.011-2.194l1.649,2.052c-8.554,6.87-19.912,5.1-25.852,3.47-1.113-.306-2.025-.6-2.7-.844-7.5,19.694-25.033,42.642-25.96,43.848l-2.085-1.6A260.664,260.664,0,0,0,304.856,707c-2.978-3.321-15.273-17.807-17.667-33.117" transform="translate(-122.223 -261.97)" fill="#e6e9f8"/>
        <g id="Group_14822" data-name="Group 14822" transform="translate(16.308 473.564)" opacity="0.05">
          <g id="Group_14821" data-name="Group 14821">
            <g id="Group_14820" data-name="Group 14820" clip-path="url(#clip-path-3)">
              <path id="Path_75213" data-name="Path 75213" d="M212.54,825.831c-66.5,4.493-65.9,19.031-97.76,19.031-48.706,0-147.07,42.547-34.323,55.414,152.6,17.415,159.97-20.059,242.713-18.551s157.552,17.556,214.7,8.135c51.2-8.44,20.646-54.258-81.093-50.924-101.691,3.332-195.94-16.367-244.241-13.1" transform="translate(-28.417 -825.465)"/>
            </g>
          </g>
        </g>
        <path id="Path_75214" data-name="Path 75214" d="M333.43,307.729c46.477,30.386,119.625,133.417,154.544,55.522s-2.879-116.635,51.983-128.374,110.585-78.694,80.822-92.618-95.695,47.628-102.94,6.175S607.2,55.713,535.019,51.826,417.2,148.369,288.8,112.59C175.168,80.923,132.441,366.242,231.954,301.871c92.268-59.685,101.476,5.859,101.476,5.859" transform="translate(-75.079 -22.047)" fill="#f3f5f8"/>
        <path id="Path_75215" data-name="Path 75215" d="M522.708,85.385a24.517,24.517,0,1,1-24.516-24.508,24.512,24.512,0,0,1,24.516,24.508" transform="translate(-201.84 -25.952)" fill="#f3f5f8"/>
        <path id="Path_75216" data-name="Path 75216" d="M629.517,17.462A17.468,17.468,0,1,1,612.049,0a17.465,17.465,0,0,1,17.468,17.462" transform="translate(-253.359)" fill="#f3f5f8"/>
        <path id="Path_75217" data-name="Path 75217" d="M399.069,82.625a14.741,14.741,0,1,1-14.741-14.736,14.738,14.738,0,0,1,14.741,14.736" transform="translate(-157.486 -28.942)" fill="#f3f5f8"/>
        <path id="Path_75218" data-name="Path 75218" d="M384.663,782.985v28.969a8.077,8.077,0,0,1-8.041,8.039H257.814a8.035,8.035,0,0,1-7.992-8.039v-7.7L238.2,797.445l11.621-6.813v-7.647a8,8,0,0,1,7.992-8.039H376.622a8.045,8.045,0,0,1,8.041,8.039" transform="translate(-101.501 -330.365)" fill="#cce9f1"/>
        <rect id="Rectangle_183" data-name="Rectangle 183" width="42.495" height="10.572" transform="translate(167.448 453.233)" fill="rgba(16,69,140,0.4)"/>
        <rect id="Rectangle_184" data-name="Rectangle 184" width="96.84" height="12.458" transform="translate(165.479 471.001)" fill="rgba(16,69,140,0.4)"/>
        <g id="Group_14825" data-name="Group 14825" transform="translate(229.765 444.581)" opacity="0.1">
          <g id="Group_14824" data-name="Group 14824">
            <g id="Group_14823" data-name="Group 14823" clip-path="url(#clip-path-4)">
              <path id="Path_75219" data-name="Path 75219" d="M453.764,782.985v28.969a8.077,8.077,0,0,1-8.041,8.039H400.661a7.543,7.543,0,0,1-.294-2.108V774.946h45.356a8.045,8.045,0,0,1,8.041,8.039" transform="translate(-400.367 -774.946)"/>
            </g>
          </g>
        </g>
        <path id="Path_75220" data-name="Path 75220" d="M549.756,698.415v82.936a9.185,9.185,0,0,1-9.169,9.167H415.944a9.172,9.172,0,0,1-7.355-3.726,9.068,9.068,0,0,1-1.814-5.441V698.415a9.185,9.185,0,0,1,9.169-9.166H540.587a9.185,9.185,0,0,1,9.169,9.166" transform="translate(-173.333 -293.832)" fill="#393768"/>
        <rect id="Rectangle_186" data-name="Rectangle 186" width="43.517" height="14.092" transform="translate(261.416 414.191)" fill="#e6e9f8"/>
        <rect id="Rectangle_187" data-name="Rectangle 187" width="89.69" height="38.907" transform="translate(261.416 439.006)" fill="#e6e9f8"/>
        <g id="Group_14828" data-name="Group 14828" transform="translate(233.442 461.59)" opacity="0.1">
          <g id="Group_14827" data-name="Group 14827">
            <g id="Group_14826" data-name="Group 14826" clip-path="url(#clip-path-5)">
              <path id="Path_75221" data-name="Path 75221" d="M415.945,820.916a18.9,18.9,0,0,1-7.355,15.048,9.068,9.068,0,0,1-1.814-5.441v-25.93a19.086,19.086,0,0,1,9.169,16.323" transform="translate(-406.775 -804.594)"/>
            </g>
          </g>
        </g>
        <path id="Path_75222" data-name="Path 75222" d="M352.279,818.855a19.1,19.1,0,1,1,19.1,19.1,19.1,19.1,0,0,1-19.1-19.1" transform="translate(-150.111 -340.943)" fill="#e6e9f8"/>
        <path id="Path_75223" data-name="Path 75223" d="M375.733,836.784a2.455,2.455,0,0,1-1.855-.847l-7-8.094a2.452,2.452,0,0,1,3.711-3.207l4.875,5.634,9.471-14.5a2.451,2.451,0,1,1,4.1,2.68l-11.25,17.223a2.443,2.443,0,0,1-1.886,1.106c-.055,0-.11,0-.165,0" transform="translate(-156.076 -347.297)" fill="#10458c"/>
        <path id="Path_75224" data-name="Path 75224" d="M141.734,885.012s-.321,5.19,1.117,6.864-13.393,1.8-13.393,1.8,4.2-7.712,2.372-11.084,9.9,2.42,9.9,2.42" transform="translate(-55.164 -375.806)" fill="#edb6a4"/>
        <path id="Path_75225" data-name="Path 75225" d="M159.752,911.519l-32.85-2.491c-2.114-3.612-1.651-7.2.817-10.76,5.379.781,10.458.647,15.005-1.116,4.02,3.864,10.208,7.12,17.351,10.108,2.279,1.163,1.731,2.63-.323,4.259" transform="translate(-53.502 -382.462)" fill="#10458c"/>
        <rect id="Rectangle_189" data-name="Rectangle 189" width="1.413" height="32.997" transform="matrix(0.076, -0.997, 0.997, 0.076, 73.24, 527.97)" fill="#a8cfef"/>
        <path id="Path_75226" data-name="Path 75226" d="M47.974,882.34s-1.64,4.936-.678,6.921-13.408-1.686-13.408-1.686,6.038-6.379,5.132-10.108,8.954,4.873,8.954,4.873" transform="translate(-14.441 -373.671)" fill="#edb6a4"/>
        <path id="Path_75227" data-name="Path 75227" d="M59.336,913.273,28.217,902.46c-1.119-4.032.246-7.378,3.544-10.192,5,2.131,9.945,3.3,14.792,2.759,2.9,4.764,8.045,9.495,14.185,14.211,1.906,1.707,1,2.985-1.4,4.034" transform="translate(-11.86 -380.38)" fill="#10458c"/>
        <rect id="Rectangle_190" data-name="Rectangle 190" width="1.416" height="32.996" transform="matrix(0.328, -0.945, 0.945, 0.328, 15.844, 523.397)" fill="#a8cfef"/>
        <path id="Path_75228" data-name="Path 75228" d="M37.661,776.989l12.985,1.466,26.22-72.531V630.482L44.651,634.4c.826,13.768,4.5,43.332,10.3,71.8Z" transform="translate(-16.048 -268.779)" fill="#e6e9f8"/>
        <path id="Path_75229" data-name="Path 75229" d="M92.905,626.769l34.969,2.13,5.827,71.837-6.243,76.136-14.155-.983-1.517-76.2c-10.262-28.048-18.555-55.6-18.881-72.923" transform="translate(-39.588 -267.196)" fill="#e6e9f8"/>
        <path id="Path_75230" data-name="Path 75230" d="M45.817,558.242c7.524-37.438,6.817-73.346,7.935-104.616,19.424-3.19,37.272-4.183,50.414,1.387q4.876,51.153,4.838,102.3c-8.793,7.265-35.188,6.456-63.186.932" transform="translate(-19.523 -192.278)" fill="#81f2c2"/>
        <path id="Path_75231" data-name="Path 75231" d="M140.5,397.788l16.34-19.912-7.492-55L159.53,320.2c4.577,25.015,13.679,54.212,13.088,62.668.027,6.329-14.97,27.27-26.017,41.376Z" transform="translate(-59.869 -136.503)" fill="#81f2c2"/>
        <path id="Path_75232" data-name="Path 75232" d="M35.362,393.843,33.73,425.137C20.377,410.072.506,384.212,0,379.831c.286-6.469,18.555-42.5,30.789-68.6l8.11,5.558L18.184,376.919Z" transform="translate(0 -132.679)" fill="#81f2c2"/>
        <path id="Path_75233" data-name="Path 75233" d="M87.249,421.179c.934,4.386,2.321,11.368.39,17.137-5.9,9.483,28.452,9.626,16.282-.577-2.359-4.558-1.927-9.422-1.61-16.5Z" transform="translate(-37.051 -179.552)" fill="#e0a494"/>
        <path id="Path_75234" data-name="Path 75234" d="M77.245,405.869c2.188,4.317,14.975,8.395,20.489,7.737,6.064-.723,7.882-32.705,5.671-33.207l-22.513-8.382L70.471,384.268a126.292,126.292,0,0,0,6.774,21.6" transform="translate(-30.029 -158.593)" fill="#edb6a4"/>
        <path id="Path_75235" data-name="Path 75235" d="M53.419,220.906,69.26,242.322a1.758,1.758,0,0,0,1.97.621L96.5,234.5a1.757,1.757,0,0,1,1.987,2.687L83.008,258.866a1.757,1.757,0,0,0,.018,2.065l15.841,21.415a1.757,1.757,0,0,1-1.942,2.72l-25.408-8.017a1.757,1.757,0,0,0-1.96.655L54.078,299.383a1.758,1.758,0,0,1-3.188-1.006l-.224-26.634a1.756,1.756,0,0,0-1.228-1.66L24.03,262.065A1.756,1.756,0,0,1,24,258.723l25.27-8.443a1.757,1.757,0,0,0,1.2-1.681l-.223-26.634a1.757,1.757,0,0,1,3.17-1.059" transform="translate(-9.716 -93.869)" fill="#f4f884"/>
        <path id="Path_75236" data-name="Path 75236" d="M85.891,380.829c5.159,2.5,12.119,3.276,19.612,3.544,3.941-3.727-1.046-6.665-2.488-11.5-5.916-7.26-10.384-8.616-19.889-7.371-8.857,2.728-7.712,3.257-11.722,8.165-2.358,5.078-4.574,9.376-3.826,14.876,1.109,8.173,4.351,11.813,10.662,16.789,3.6-2.641,3.85-2.737,3.282-7.053-3.086-2.156-5.085-4.736-4.9-8.161a3.943,3.943,0,0,1,3.232-3.138,4.764,4.764,0,0,1,2.294,4.065c3.317-2.406,3.986-6.089,3.742-10.214" transform="translate(-28.734 -155.641)" fill="#393768"/>
        <path id="Path_75237" data-name="Path 75237" d="M53.65,305.305,58,299.14c3.99-1.646,7.518-2.932,10.058-.293a9.819,9.819,0,0,1,2.2,8.147l-8.5,3.869Z" transform="translate(-22.861 -126.756)" fill="#edb6a4"/>
        <path id="Path_75238" data-name="Path 75238" d="M147.855,315.611c-3.5-1.237-7.23-1.218-8.749-2.671-1.257-1.989-2.516-3.978-1.987-6.249.515-2.009,2.926-2.376,6.1-3.522,6.768.884,11.62,3.586,14.819,9.771Z" transform="translate(-58.376 -129.243)" fill="#edb6a4"/>
        <path id="Path_75239" data-name="Path 75239" d="M501.445,311.008v84.358a27.978,27.978,0,0,1-26.674,27.94l7.846,22.3a3.683,3.683,0,0,1-5.688,4.215l-40.354-26.469H333.311a28.032,28.032,0,0,1-27.9-25.734c-.049-.735-.1-1.47-.1-2.255V311.008a28.016,28.016,0,0,1,28-27.989H473.447a28.016,28.016,0,0,1,28,27.989" transform="translate(-130.098 -120.653)" fill="#e6e9f8"/>
        <path id="Path_75240" data-name="Path 75240" d="M450.888,266.629H317.91a28.015,28.015,0,0,0-28,27.989v79.7a26.023,26.023,0,0,1-20.741-25.44V270.551a26.028,26.028,0,0,1,25.988-25.979H425.243a26,26,0,0,1,25.645,22.057" transform="translate(-114.698 -104.263)" fill="#10458c"/>
        <path id="Path_75241" data-name="Path 75241" d="M510.3,359.1l-5.225,28.262a25.94,25.94,0,0,1-25.552,21.322H452.9a11.193,11.193,0,0,1-11.237-11.162V359.962a11.181,11.181,0,0,1,4.437-8.944c4.939-9.087,10.664-17.1,14.1-24.4,1.36-3.649,14.386-6.439,15.889,4.794-.286,5.152-2.648,11.09-6.156,17.387h31.707a8.738,8.738,0,0,1,8.661,10.3" transform="translate(-188.199 -137.872)" fill="#10458c"/>
        <path id="Path_75242" data-name="Path 75242" d="M404.718,425.747h16.767a3.135,3.135,0,0,0,3.135-3.134V382.821a3.135,3.135,0,0,0-3.135-3.134H404.718a3.135,3.135,0,0,0-3.135,3.134v39.792a3.135,3.135,0,0,0,3.135,3.134" transform="translate(-171.12 -161.863)" fill="#10458c"/>
        <path id="Path_75243" data-name="Path 75243" d="M371.82,317.7H345.159a5.668,5.668,0,1,1,0-11.335H371.82a5.668,5.668,0,1,1,0,11.335" transform="translate(-144.661 -130.606)" fill="#10458c"/>
        <g id="Group_14833" data-name="Group 14833" transform="translate(175.215 162.367)" style="mix-blend-mode: soft-light;isolation: isolate">
          <g id="Group_14832" data-name="Group 14832">
            <g id="Group_14831" data-name="Group 14831" clip-path="url(#clip-path-6)">
              <g id="Group_14830" data-name="Group 14830" transform="translate(0 0)">
                <g id="Group_14829" data-name="Group 14829" clip-path="url(#clip-path-7)">
                  <rect id="Rectangle_191" data-name="Rectangle 191" width="251.216" height="257.756" transform="matrix(0.576, -0.817, 0.817, 0.576, -79.643, 112.928)" fill="url(#linear-gradient)"/>
                </g>
              </g>
            </g>
          </g>
        </g>
        <path id="Path_75245" data-name="Path 75245" d="M876.369,755.711l-14.209.69-6.577-73.541-8.05-46.4-3.955-22.807-1.794-10.484-.736-4.138,43.1-1.425-9.108,76.926Z" transform="translate(-358.383 -254.765)" fill="#e6e9f8"/>
        <path id="Path_75246" data-name="Path 75246" d="M837.242,600.135l-.1.294-3.285,8.921-.246.686-2.6,7.107-7.5,20.391a.374.374,0,0,1-.049.147l-16.818,45.977-2.5,49.458-1.324,26.077H788.748l-4.069-73.77,7.7-70.486.2-1.666.147-1.47.245-2.3,24.811-5.245,17.015-3.628h.1Z" transform="translate(-334.363 -255.842)" fill="#e6e9f8"/>
        <path id="Path_75247" data-name="Path 75247" d="M866.563,522.17a7.7,7.7,0,0,1-1.912,1.52,22.865,22.865,0,0,1-4.9,2.4,72.223,72.223,0,0,1-10.542,2.793l-.245.049c-3.187.637-6.62,1.225-10.151,1.667-4.952.735-10.051,1.275-14.955,1.667-11.719.98-22.261,1.177-26.184.784a5.812,5.812,0,0,1-1.373-.245c.981-6.813,1.863-14.068,2.6-21.812h.049c0-.245.049-.49.049-.735.245-2.5.49-5.048.735-7.7.148-1.372.246-2.7.344-4.117V498.4c.1-1.275.2-2.6.294-3.922.539-7.009.981-14.215,1.275-21.714v-.049c.246-6.127.393-12.352.491-18.774.1-9.853,0-20.048-.343-30.488l19.76-4.755,13.73-3.284,7.012.931,17.5,2.255c-1.029,5.245-.981,14.509-.294,26.175v.049q.367,7.058,1.029,15.146c.1,1.177.2,2.353.295,3.578a3.693,3.693,0,0,1,.049.735v.049c.147,1.422.294,2.892.392,4.363.1,1.029.2,2.107.294,3.137.1,1.127.2,2.255.343,3.382,1.177,12.6,2.55,26.126,3.874,39.361.245,2.5.539,5.1.784,7.6" transform="translate(-339.314 -177.093)" fill="#81f2c2"/>
        <path id="Path_75248" data-name="Path 75248" d="M844.417,405.723c-.676,4.224.408,7.666-4.087,8.55-.112,5.614,5.873,7.966,10.725,8.549,9.108-.74,13.388-5.3,11.881-9.761-5.687-2.068-3.305-4.038-4.7-7.338Z" transform="translate(-358.076 -172.963)" fill="#e0a494"/>
        <path id="Path_75249" data-name="Path 75249" d="M862.879,363.814c0,2.713.39,6.024-.944,9.242-2.714,6.805-7.911,13.334-13.891,13.334a9.193,9.193,0,0,1-4.462-1.241,13.816,13.816,0,0,1-2.254-1.517,8.87,8.87,0,0,1-.69-.644c-5.059-4.69-7.675-13.334-7.675-19.174A14.966,14.966,0,0,1,848.045,348.5c13.369-.142,14.834,6.851,14.834,15.312" transform="translate(-354.938 -148.568)" fill="#edb6a4"/>
        <path id="Path_75250" data-name="Path 75250" d="M858.456,477.185h-9.379a2.134,2.134,0,0,1-2.128-1.624l-2.811-18a1.469,1.469,0,0,1,1.621-1.624h9.378a2.134,2.134,0,0,1,2.129,1.624l2.811,18a1.469,1.469,0,0,1-1.621,1.624" transform="translate(-359.692 -194.367)" fill="#e6e9f8"/>
        <path id="Path_75251" data-name="Path 75251" d="M856.16,459.591a.985.985,0,0,1-1.087,1.089,1.431,1.431,0,0,1-1.428-1.089.986.986,0,0,1,1.088-1.089,1.431,1.431,0,0,1,1.428,1.089" transform="translate(-363.745 -195.463)" fill="#393768"/>
        <path id="Path_75252" data-name="Path 75252" d="M856.6,464.139a.376.376,0,0,1-.414.415.545.545,0,0,1-.544-.415.376.376,0,0,1,.414-.415.546.546,0,0,1,.544.415" transform="translate(-364.598 -197.689)" fill="#393768"/>
        <path id="Path_75253" data-name="Path 75253" d="M856.63,484.211c-1.551.867-4.258.6-5.439.323a12.549,12.549,0,0,1-5.051-3.91,13.791,13.791,0,0,1-.865-6.44c.5-1.513,12.2,2.244,14.052,1.228.416-.056,1.143,1.323.805,2.041Z" transform="translate(-360.155 -201.993)" fill="#edb6a4"/>
        <path id="Path_75254" data-name="Path 75254" d="M783.572,886.673c.283,2.991-7.909,8.326-13.374,12.306-3.55,2.5-3.6,3.536-.477,5.625,3.962,1.572,8.939.575,12.238-.438,1.855-.483,14.286-9.96,14.5-13.61-.114-1.431-.843-5.461-2.351-5.072-4.165-.7-6.438-.727-10.539,1.189" transform="translate(-327.023 -377.302)" fill="#393768"/>
        <path id="Path_75255" data-name="Path 75255" d="M795.733,877.449l-.77,7.414a12.571,12.571,0,0,0,10.123.623,2.09,2.09,0,0,0,1.312-2.236l-.759-5.8Z" transform="translate(-338.745 -374.063)" fill="#edb6a4"/>
        <path id="Path_75256" data-name="Path 75256" d="M891.487,883.62c-.283,2.991,7.909,8.325,13.375,12.306,3.55,2.5,3.6,3.536.478,5.625-3.963,1.572-8.94.575-12.238-.438-1.855-.483-14.286-9.96-14.5-13.61.114-1.431.843-5.461,2.351-5.071,4.165-.7,6.438-.727,10.539,1.189" transform="translate(-374.383 -376.001)" fill="#393768"/>
        <path id="Path_75257" data-name="Path 75257" d="M892.362,874.4l.77,7.414a12.572,12.572,0,0,1-10.123.622A2.089,2.089,0,0,1,881.7,880.2l.759-5.8Z" transform="translate(-375.696 -372.761)" fill="#edb6a4"/>
        <path id="Path_75258" data-name="Path 75258" d="M933.614,477.825a12.465,12.465,0,0,1-1.422,1.863c-1.961,1.96-4.756,3.235-7.061,2.451a190.2,190.2,0,0,1-17.8-7.255c-.49-.2-.981-.441-1.471-.686-.784-.294-1.569-.686-2.3-1.029-.588-.294-1.079-.539-1.618-.784l.245-.491.883-1.813,1.275-2.549.784-1.617,1.471-2.941.343-.735,11.082,4.657L903.8,447.19v-.049l-3.384-4.657c-.392-7.3-.343-15.636,3.678-21.518,7.4,7.5,18.731,29.8,29.959,51.86a5.112,5.112,0,0,1-.441,5" transform="translate(-383.614 -179.461)" fill="#81f2c2"/>
        <path id="Path_75259" data-name="Path 75259" d="M868.613,480.154l-3.5,6.756c7.223,2.9,14.935,6.729,22.426,10.405l4.425-9.028Z" transform="translate(-368.636 -204.693)" fill="#edb6a4"/>
        <path id="Path_75260" data-name="Path 75260" d="M861.361,362.277l.927-3.59s.069-7.2.524-12.256a7.372,7.372,0,0,0-2.926-6.321c-1.743-1.4-.636-1.55-2.277-3.246-1.995-2.062-3.19-2.531-3.226-3.711,0,0-1.369,1.348-2.3,1.31s.466-.59.5-1.49a3.9,3.9,0,0,0-.073-1.229s-.948,1.548-2.1,1.72-.612-.161-.612-.161.29-1.583-.108-2.063c0,0-2.039,2.547-7.6,3.249s-5.119,3.838-5.119,3.838-7.728.472-4.633,17.712c.636,5.619.6,4.182.6,4.182l1.185,2.576s-.781-7.94.652-10.037-.484-7.955,5.146-7.736,9.937,1.994,18.642-.356c.521.427.329,5.583,1.478,7.3,1.228,1.835,1.322,10.306,1.322,10.306" transform="translate(-354.36 -141.21)" fill="#393768"/>
        <path id="Path_75261" data-name="Path 75261" d="M884.972,371.6s1.562-.874,2.052.641-.874,3.147-.853,4.482-1.464,5.394-1.542,3.909c-.009-.18.343-9.032.343-9.032" transform="translate(-376.953 -158.307)" fill="#e0a494"/>
        <path id="Path_75262" data-name="Path 75262" d="M831.517,374.392s-1.645-.707-1.974.852,1.2,3.039,1.317,4.368,2.071,4.98,1.993,3.494c-.009-.179-1.335-8.714-1.335-8.714" transform="translate(-353.46 -159.538)" fill="#e0a494"/>
        <path id="Path_75263" data-name="Path 75263" d="M812.625,537.951l-10.453,6.993-.216,3.208c-.216,3.207-2.961,5.044-6.166,4.125L700.516,524.95a7.653,7.653,0,0,1-5.388-7.439l1.747-25.975c.216-3.207,3.007-5.031,6.166-4.125l95.274,27.328a7.608,7.608,0,0,1,5.387,7.439l-.216,3.207Z" transform="translate(-296.198 -207.688)" fill="#e6e9f8"/>
        <path id="Path_75264" data-name="Path 75264" d="M767.8,528.677l-35.354-10.141.545-8.093,35.354,10.14Z" transform="translate(-312.106 -217.605)" fill="rgba(16,69,140,0.52)"/>
        <path id="Path_75265" data-name="Path 75265" d="M797.7,559.994l-66.758-19.148.545-8.094L798.248,551.9Z" transform="translate(-311.466 -227.116)" fill="rgba(16,69,140,0.52)"/>
        <path id="Path_75266" data-name="Path 75266" d="M802.492,576.826c-.138-.138-21.438-16.783-27.51-24.049l-.138-.138,2.3-1.977,5.933-5.15,23.04,24.554Z" transform="translate(-330.172 -232.556)" fill="#edb6a4"/>
        <path id="Path_75267" data-name="Path 75267" d="M827.894,594.181a8.289,8.289,0,0,1-1.978,1.61c-1.334.873-2.9,1.517-3.91,1.333a5.593,5.593,0,0,1-3.956-4.966,3.266,3.266,0,0,1,.046-.643c.368-.184.782-.368,1.15-.552h.046a49.5,49.5,0,0,0,5.235-2.819c1.089-.825,4.609.771,5.869,1.98.961,1.406-1.031,2.54-2.5,4.058" transform="translate(-348.583 -250.633)" fill="#edb6a4"/>
        <path id="Path_75268" data-name="Path 75268" d="M768.514,485.967l6.853,9.472-.69.6-5.842,5.242-2.254,2.023-.368.322c-3.128-3.449-5.7-7.173-7.957-10.024a14.445,14.445,0,0,1-1.748-15.128c0-.092.046-.138.092-.231,10.4-21.2,20.929-43.084,27.644-48.786,4.16,6.97,4.581,15.76,4.358,23.949Z" transform="translate(-321.771 -183.08)" fill="#81f2c2"/>
        <g id="Group_14836" data-name="Group 14836" transform="translate(456.985 330.275)" opacity="0.05">
          <g id="Group_14835" data-name="Group 14835">
            <g id="Group_14834" data-name="Group 14834" clip-path="url(#clip-path-8)">
              <path id="Path_75269" data-name="Path 75269" d="M855.727,575.7l-5.247,13.038-1.275,3.186v5.294l-.245.049-10.395,2.353-8.777,1.96-5.639.736-8.973,1.225s-13.435-.539-17.652-.686l.147-1.47a5.853,5.853,0,0,1-1.373-.245c.981-6.814,1.863-14.068,2.6-21.812h.049l6.031,3.529s3.01,4.679,6.442,5.414c.588.1,3.015,1.3,3.554,1.449,1.569.294,4.009-2.177,4.107-2.128a7.349,7.349,0,0,0,2.047-2.675c.441,0,1.011.441,1.5.441h.049c20.2,7.278,22.068,2.047,22.609-2.673Z" transform="translate(-796.299 -575.699)"/>
            </g>
          </g>
        </g>
        <g id="Group_14839" data-name="Group 14839" transform="translate(485.963 278.611)" opacity="0.05">
          <g id="Group_14838" data-name="Group 14838">
            <g id="Group_14837" data-name="Group 14837" clip-path="url(#clip-path-9)">
              <path id="Path_75270" data-name="Path 75270" d="M909.41,507.261c-1.962,1.96-4.756,3.235-7.061,2.451a190.2,190.2,0,0,1-17.8-7.255c-.491-.2-.981-.441-1.471-.686.1,1.127.2,2.255.344,3.382a7.617,7.617,0,0,1-3.334-1.863c-2.256-2.255-14.024-7.892-16.476-9.215s-7.845-2.353-11.767-3.578a10.192,10.192,0,0,1-1.471-.637,7.964,7.964,0,0,1-2.4-2.108,8.914,8.914,0,0,1-1.177-2.108s.343.147.932.344a58.884,58.884,0,0,0,8.629,2.794,6.4,6.4,0,0,1,1.079.245,26.9,26.9,0,0,1,2.795.735h.049c4.266,1.225,10.444,3.333,13.043,4.852a73.867,73.867,0,0,0,6.963,3.039c.147.049.245.1.392.148.687.294,1.373.539,2.109.833,5.736,2.255,12.258,4.657,14.66,5.637,2.8,1.127,8.483,2.3,11.964,2.99" transform="translate(-846.794 -485.644)"/>
            </g>
          </g>
        </g>
        <path id="Path_75271" data-name="Path 75271" d="M137.438,216.809l-3.448-3.485q2.755-2.725,5.378-5.151l3.327,3.6q-2.564,2.37-5.257,5.036" transform="translate(-57.095 -88.746)" fill="#cce9f1"/>
        <path id="Path_75272" data-name="Path 75272" d="M520.023,200.543l-14.135-4.471,1.484-4.672,14.126,4.466Zm-28.189-11.411a31.414,31.414,0,0,1-8.643-13.305l4.616-1.666a26.609,26.609,0,0,0,7.274,11.295ZM479.964,160.8c-.469-4.325-.723-9.243-.775-15.038l4.9-.043c.052,5.629.3,10.39.747,14.554Zm4.3-29.824-4.9-.115.081-3.353c.1-3.775.187-7.6.24-11.438l4.9.067c-.053,3.856-.149,7.7-.24,11.491Zm-224.214-5.206a69.906,69.906,0,0,1-12.322-1.089l.857-4.825a64.758,64.758,0,0,0,14.221.955l.206,4.9q-1.5.065-2.962.063m-93.69-1.037-2.973-3.9a95.29,95.29,0,0,1,12.722-8.308l2.313,4.322a90.485,90.485,0,0,0-12.062,7.881m111.764-1.146L277,118.813q2.241-.524,4.585-1.2a77.254,77.254,0,0,0,9.067-3.255l1.935,4.5a82.142,82.142,0,0,1-9.637,3.458q-2.467.718-4.834,1.266m-45.068-2.91c-2.9-1.029-5.694-2.128-8.434-3.207-1.834-.721-3.644-1.434-5.444-2.107l1.719-4.59c1.824.682,3.661,1.4,5.521,2.137,2.692,1.058,5.435,2.138,8.282,3.147Zm-41.465-8.831-1.025-4.791a41.747,41.747,0,0,1,8.856-.948h.038a44.46,44.46,0,0,1,6.718.524l-.747,4.844a39.025,39.025,0,0,0-5.974-.466h-.034a37.141,37.141,0,0,0-7.834.838m114.426-.048-2.591-4.16a133.221,133.221,0,0,0,11.885-8.391l3.026,3.858a138.1,138.1,0,0,1-12.32,8.693m173.574-10.433c-.177-5.378-.531-10.141-1.073-14.557l4.865-.6c.561,4.562.925,9.466,1.111,14.992ZM329.76,93.4l-3.29-3.633c3.625-3.281,7.188-6.682,10.709-10.122l3.429,3.5c-3.57,3.487-7.176,6.927-10.848,10.251m21.4-20.7L347.7,69.229c3.551-3.531,7.091-7.025,10.642-10.4l3.381,3.552C358.2,65.733,354.688,69.2,351.161,72.7m124.613-.081A65.621,65.621,0,0,0,470.6,59.347l4.329-2.3A70.317,70.317,0,0,1,480.5,71.321Zm-103.156-20.1-3.17-3.738a144.236,144.236,0,0,1,11.943-9.191l2.767,4.045a140.1,140.1,0,0,0-11.54,8.884m89.744-4.573a50.494,50.494,0,0,0-11.152-8.588l2.432-4.256a55.257,55.257,0,0,1,12.235,9.425ZM396.627,36.457l-2.059-4.447a65.9,65.9,0,0,1,14.542-4.849l.977,4.806a60.943,60.943,0,0,0-13.46,4.49m41.467-2.731a59.88,59.88,0,0,0-13.939-2.692l.326-4.892a64.9,64.9,0,0,1,15.088,2.908Z" transform="translate(-69.619 -11.144)" fill="rgba(129,242,194,0.41)"/>
        <path id="Path_75273" data-name="Path 75273" d="M816.76,336.1c-1.2,0-3.136-.582-6.488-1.587l1.408-4.7c1.887.567,3.132.931,3.927,1.148l.1-.275c1.523.553,3.821,1.388,3.046,3.732-.388,1.163-.862,1.677-1.992,1.677" transform="translate(-345.269 -140.604)" fill="#cce9f1"/>
      </g>
    </g>
  </g>
</svg>
