<svg xmlns="http://www.w3.org/2000/svg" width="14.813" height="21.026" viewBox="0 0 14.813 21.026">
  <path id="youtube" d="M35.52,66.318a2.645,2.645,0,0,0-1.859-1.875C32.021,64,25.446,64,25.446,64s-6.575,0-8.215.443a2.645,2.645,0,0,0-1.859,1.875,29.862,29.862,0,0,0,0,10.207,2.605,2.605,0,0,0,1.859,1.845c1.64.443,8.215.443,8.215.443s6.575,0,8.215-.443a2.605,2.605,0,0,0,1.859-1.845,29.862,29.862,0,0,0,0-10.207ZM23.3,74.554V68.289l5.5,3.132-5.5,3.132Z" transform="translate(-64 35.959) rotate(-90)" fill="#10458c"/>
</svg>
