<svg id="Brain_CT_Scan" data-name="Brain CT Scan" xmlns="http://www.w3.org/2000/svg" width="93" height="80" viewBox="0 0 93 80">
  <g id="Group_14909" data-name="Group 14909" transform="translate(20.07 0)">
    <g id="Group_14908" data-name="Group 14908" transform="translate(0)">
      <path id="Path_75458" data-name="Path 75458" d="M685.912,336.042c-.137.456-.282.917-.423,1.365l-.082.258a.906.906,0,0,1-.111.257l-.019.027a8.5,8.5,0,0,0-1.437,4.393,1.316,1.316,0,0,1-.247.588,4.528,4.528,0,0,1-.38.472l-.463.528.924-.531-.008.08c-.006.063-.011.121-.022.181a3.886,3.886,0,0,0,.068,2.142.6.6,0,0,1-.043.344l-.007.021a1.9,1.9,0,0,0-.072.959l.1.471.273-1.282c.069.047.133.1.2.144a1.156,1.156,0,0,0,.7.318l.21,0-.135-.161-.031-.029a1.975,1.975,0,0,1-.887-1.966c.126-1.254.288-2.487.483-3.664a5.9,5.9,0,0,1,.891-2.023l.114-.191.873,1.042-.323-.707a1.353,1.353,0,0,1-.1-.266c-.013-.061-.03-.123-.049-.194a1.221,1.221,0,0,1-.066-.563c.192-.831.4-1.632.629-2.481.078-.294.156-.589.233-.888l1.133.769-.487-.567c-.021-.025-.042-.048-.064-.07-.312-.312-.354-.595-.129-.891q.6-.794,1.2-1.59l.034-.046.153-.218-.5.125.494-1.049-.327.253a2.416,2.416,0,0,0-.715,1.306v0a5.757,5.757,0,0,1-.627-2.257l-.084-.9-.114.9a3.821,3.821,0,0,0,.546,2.607,5.71,5.71,0,0,0-1.148,2.484C686.009,335.705,685.962,335.874,685.912,336.042Z" transform="translate(-648.471 -315.365)" fill="#0e2748"/>
      <path id="Path_75459" data-name="Path 75459" d="M373.964,206.691a29.77,29.77,0,0,0-.238-5.644c.032-.083.031-.113-.01-.078A27.4,27.4,0,0,0,372.4,195.6a20.838,20.838,0,0,0-2.535-5.173,21.548,21.548,0,0,0-8.036-6.756,28.984,28.984,0,0,0-13.947-3.664h-.05a29.3,29.3,0,0,0-17.209,5.786,30.249,30.249,0,0,0-6.819,6.7,10.387,10.387,0,0,0-1.2,2.551l0,0a6.018,6.018,0,0,0-.236,1.356,8.371,8.371,0,0,1-.212,1.388,9.069,9.069,0,0,1-.487,1.522,2.822,2.822,0,0,0-.278,1.434,3.1,3.1,0,0,0,.2.869c.088.278.222.7.424,1.4.189.652.272.97.339,1.226.054.21.1.369.172.617a11.939,11.939,0,0,0,1.747,3.8,8.523,8.523,0,0,0,2.961,2.322,9.32,9.32,0,0,0,2.951,1.038c.876.207,2.077.489,4.007,1.036l.3.084a8.713,8.713,0,0,0,3.764.525,7.419,7.419,0,0,0,2.719-1,3.653,3.653,0,0,0,.773-.64c.078-.085.152-.175.221-.268a4.827,4.827,0,0,0,3.28,1.2,13.31,13.31,0,0,0,5.48-1.588,12.445,12.445,0,0,0,.306,3.071l.026.064a3.539,3.539,0,0,0,.9,1.383c.666,1.437,1.682,4.468,2.613,5.192a1.891,1.891,0,0,0,1.387.46.551.551,0,0,1,.374.168c.444.436.865.9,1.307,1.335a20.879,20.879,0,0,1,1.569,1.537,7.5,7.5,0,0,1,1.524,4.3c.01.14.017.281.016.421,0,.254.047.525.35.478.12-.018.277-.317.28-.49a7.426,7.426,0,0,0-2.7-6.115c-.441-.373-.9-.727-1.349-1.089l-.864-.7a1.6,1.6,0,0,0,.353-.6.423.423,0,0,0-.129-.36.414.414,0,0,0-.372.027c-.684.439-.868.489-1.475-.044s-1.371-2.551-2.046-3.912a8.684,8.684,0,0,0,2.612.915c.064.116.127.248.177.331a8.553,8.553,0,0,0,5.221,4.067c.51.137,1.041.2,1.557.316.14.032.354.132.376.233a26.485,26.485,0,0,1,.908,5.439c0,.157.03.313.055.556.137-.122.232-.165.238-.219a21.717,21.717,0,0,0-.528-5.94,6.926,6.926,0,0,0,4.873-1.734c1.29-1.227,1.847-3.768,1.76-5.548,3.467-2.036,3.854-4.4,3.854-4.4l-.073.055a4.6,4.6,0,0,0,.359-1.4C374.3,207.447,374.156,206.911,373.964,206.691Zm-28.856-25.263a.64.64,0,0,1,.21.217c.4.784.757,1.593,1.1,2.4a2.826,2.826,0,0,1,.1.282c-.8-.128-1.585-.3-2.373-.466-.908-.194-1.151-.772-1.057-1.655a4.078,4.078,0,0,0-.043-.964c.62-.112,1.253-.207,1.9-.277Q345.02,181.2,345.108,181.427Zm-2.456-.114c-.021.578-.033,1.157-.1,1.729a1.02,1.02,0,0,1-.41.684c-.84.489-1.719.913-2.573,1.356-.062-.444-.125-.9-.189-1.356l-.116.026c-.159.517-.314,1.035-.479,1.551a1.05,1.05,0,0,1-1.073.712c-.9.058-1.808.167-2.707.137-.282-.009-.551-.4-.882-.653-.006.193-.013.462-.022.753l-2.454,1.371-.239-.371c-.046.042-.081.059-.09.085a9.24,9.24,0,0,1-.42,1.14c-.374.712-1.56,2.539-1.924,3.256-.036.07-.069.131-.1.187-.562.056-1.158.135-1.788.249a21.938,21.938,0,0,0-2.511.616C325.412,191.631,331.752,183.439,342.652,181.313Zm-.789,4.081c1.074,1.414,2.4,2.855,3.388,4.337a11.015,11.015,0,0,1,1.617,3.357l-1.345-.156-.018.035c.229.244.58.287.844.471a2.71,2.71,0,0,1,.856.685,11.014,11.014,0,0,1,.95,2.469,36.024,36.024,0,0,0-8.279-2.087.309.309,0,0,0,0-.083c-.377-2.55-1.058-2.91-2.438-3.426-.28-.1-.6-.223-.944-.382-1.138-.522-1.879-2.375-2.224-3.454a5.142,5.142,0,0,1,2.607-.515l-.652.9.081.076c1.183-.666,2.371-1.321,3.546-2,.473-.274.941-.561,1.409-.844A3.76,3.76,0,0,1,341.863,185.394Zm-5.735,27.3c.016.023.035.043.051.065l-.015,0Zm5.423-1.79a2.8,2.8,0,0,1-.407.579,2.832,2.832,0,0,1-.613.5h0a6.722,6.722,0,0,1-2.393.883,5.159,5.159,0,0,1-1.5-.027,2.164,2.164,0,0,1-.424-.507l-.065-.058-.149.046h0a.03.03,0,0,1-.011-.011.313.313,0,0,0,0-.064.356.356,0,0,0-.1-.206l-.206-.23.036.336.006.05a6.112,6.112,0,0,1-.7-.4c-.074-.046-.136-.084-.169-.1-.006,0-.618-.368-.719-.253l-.056.063.052.065c.018.023.031.032.323.206.157.093.352.21.418.257l.109.064a3.494,3.494,0,0,0,.734.371.9.9,0,0,0,.079.2c-.341-.085-.7-.186-1.1-.3l-.3-.084c-1.946-.551-3.157-.837-4.041-1.045a8.6,8.6,0,0,1-2.746-.958l-.357-.2c.047-.192.079-.323.079-.323a2.784,2.784,0,0,1,.267-.693c.155-.3.126-.415.126-.415a1.462,1.462,0,0,0-.325-1.114,2.254,2.254,0,0,1-.32,1.015l-.332-.189-.478-.088.083.16a1.448,1.448,0,0,0,.278.3,1.19,1.19,0,0,1,.207.341,2.7,2.7,0,0,1,.05.793,6.491,6.491,0,0,1-1.992-1.7,11.233,11.233,0,0,1-1.618-3.553c-.071-.235-.111-.387-.162-.586-.068-.261-.152-.585-.344-1.247-.2-.706-.341-1.132-.43-1.413a2.388,2.388,0,0,1-.165-.679,2.039,2.039,0,0,1,.222-1.082,10,10,0,0,0,.524-1.641,9,9,0,0,0,.23-1.5,5.207,5.207,0,0,1,.208-1.2,9.663,9.663,0,0,1,.712-1.659,11.147,11.147,0,0,1,1.085-.469c.99-.366,5.481-1.868,9.7.571a10.916,10.916,0,0,1,4.539,5.339l.191-.064c.018-.4.036-.809.057-1.282a4.777,4.777,0,0,0,.737.1,1.289,1.289,0,0,0,.426-.172.7.7,0,0,0-.236-.342c-.18-.135-.377-.086-.691-.141-.239-.042-.489-.081-.758-.129a11.357,11.357,0,0,0-3.395-3.38,11.488,11.488,0,0,0-6-1.785c-.141.009-.289.021-.436.032a10.545,10.545,0,0,1,4.445-4.456c.424,1.3,1.229,3.142,2.518,3.733.365.168.694.29.984.4,1.162.434,1.7.638,2.041,2.87-.483-.058-.93-.1-1.319-.123.105.036.714.21,1.508.433a.321.321,0,0,0,.061.017c1.665.468,4.088,1.136,4.438,1.219a11.124,11.124,0,0,1,4.28,2.206c.555.526.554,2.094.354,3.411-.009.056-.765,1.9-1.133,2.753a2.667,2.667,0,0,1-1.753,0c-1.508-.464-3.009-.97-4.491-1.526a8.973,8.973,0,0,1-2.6-1.817l.791-.44-.087-.172a3.052,3.052,0,0,1-.511.089,2.4,2.4,0,0,1-.973-.05c-1.354-.6-2.685-1.265-4.068-1.928l.675-.7-.136-.121c-.08.046-.162.087-.237.139a.786.786,0,0,1-1.153-.069q-.882-.943-1.767-1.884c-.061-.064-.126-.123-.27-.263.027.269.042.428.063.638l-.934-.672-.086.127a3.164,3.164,0,0,0,1.579,1.33c-.354.11-2.576-.461-4.166-.377a10.76,10.76,0,0,0-2.664.77c.638.3,1.809-.343,3.146-.329,1.454.015,3.072.578,3.9.389-.207.474-.478,1.089-.528,1.224l-1.342.06-.009.152a5.283,5.283,0,0,1,.863.169.7.7,0,0,1,.4.377c.126.418.182.857.355,1.285-.044-.487-.09-.973-.129-1.461a.808.808,0,0,1,.009-.377c.083-.178.4-.861.622-1.347a10.218,10.218,0,0,0,3.392,2.239c.631.329,1.257.669,1.883,1.007a1.467,1.467,0,0,1,.341.217,11.379,11.379,0,0,0,4.57,2.726,4.332,4.332,0,0,0-1.413,2.462,25.344,25.344,0,0,0-2.56-3.2s1.912,2.9,2.627,3.884c-1.736-.951-4.626-.916-6.052-.829a8.52,8.52,0,0,0,1.948-1.14c.211-.16,1.537-1.524,1.233-2.336a7.411,7.411,0,0,1-2.046,2.178,6.609,6.609,0,0,1-4.2,1.1c-2.331-.28-4.075-1.029-4.868-3.029a4,4,0,0,1-.189-.581c-.3-1.274.7-4.3,1.686-5.041-.8.231-2.229,3.1-2.288,3.579a6.757,6.757,0,0,0,2.072,5.013,12.2,12.2,0,0,0,3.222.714c.467.009.7.087,1.206.086a1.614,1.614,0,0,1,.791.1c.024.015.014.012.064.052a2.78,2.78,0,0,0,.606.363,3.289,3.289,0,0,0,.8.243,1.53,1.53,0,0,1-.413-1.185l.058-.015c.658.045,1.848.137,3.075.291,1.473.186,2.815.453,3.355.566a3.416,3.416,0,0,0,.19.356,5.681,5.681,0,0,1,.27.5,5.524,5.524,0,0,1,.471,2.558Zm3.707,1.251a3.612,3.612,0,0,1-3.016-1.276l-.049-.08a4.257,4.257,0,0,0-.088-2.508c-.2-.439-.266-.568-.275-.587-.041-.076-.09-.156-.142-.24a1.626,1.626,0,0,1-.3-1.432l.007-.023a4.847,4.847,0,0,1,.664-1.334,6.442,6.442,0,0,1,.576-.779c.072.02.142.044.214.064a1.773,1.773,0,0,1,.7.457,10.936,10.936,0,0,1,.737.852l.133-.073-.3-.771c.129.041.239.069.345.111a5.02,5.02,0,0,0,2.681.459,3.085,3.085,0,0,0,1.389-1.162,7.862,7.862,0,0,0,.55-.878,16.772,16.772,0,0,0,.479-5.313,1.255,1.255,0,0,0-.508-.562,3.926,3.926,0,0,0-.27-.744c-.36-.715-.419-1.444-.77-2.165a1.658,1.658,0,0,1-.169-.422c-.4-2.33-2.137-4.327-3.609-6.117a2.015,2.015,0,0,1-.336-.876c-.106-.564-.072-1.155-.171-1.721l-.344,1.337c-.091-.122-.173-.221-.243-.328a7.748,7.748,0,0,0-1.289-1.6l-.069.024c.3-.18.6-.358.91-.528a.729.729,0,0,1,.629.111,5.791,5.791,0,0,0,3.351.991c.21,1.265.893,2.512.042,3.825l.2.053.723-1.056a7.138,7.138,0,0,0,.932.07c.1,0,.236-.172.276-.291.018-.054-.155-.247-.247-.251-.763-.036-.867-.547-.991-1.165a13.28,13.28,0,0,0-1.641-4.789,1.389,1.389,0,0,1-.187-.542c.672-.051,1.353-.087,2.054-.088h.049a27.076,27.076,0,0,1,7.546,1.079,1.824,1.824,0,0,1-1.263,1.541,4.876,4.876,0,0,0-1.1.887c-.434-.21-.906-.47-1.4-.669-.371-.149-.778-.2-1.159-.329s-.733-.285-1.2-.469c.082.248.161.486.234.709-.088.225-.18.459-.271.693,1.45-.9,2.364.14,3.355.805a.5.5,0,0,1,.159.439,3.531,3.531,0,0,1-.5,1.32c-.754.892-1.608,1.7-2.46,2.578-.1-.259-.179-.449-.254-.638l-.089.009c.029.887.11,1.776.074,2.661s-.189,1.754-.281,2.544a1.862,1.862,0,0,1-.2.139c-.224.09-.449.177-.673.266a3.047,3.047,0,0,0,.6.449,8.16,8.16,0,0,0,1,.286,1.783,1.783,0,0,1,1.429,1.669,3.01,3.01,0,0,0,.12.482l.185,0c0-.411,0-.822.007-1.283a2,2,0,0,0,.523-.091.539.539,0,0,0,.254-.323c.014-.052-.181-.243-.248-.228-1.029.247-1.552-.742-2.432-.926a11.939,11.939,0,0,0,.1-4.446c-.023-.142.156-.359.3-.476.85-.721,1.716-1.423,2.641-2.186.814.566,1.708.123,2.569-.221a1.148,1.148,0,0,1,1.4.26,8.791,8.791,0,0,0,.723.581l.161-.171-.6-.661.869-.438c-1.61-.461-3.174.563-4.657.095a8.068,8.068,0,0,1,.058-1.6,2.044,2.044,0,0,1,.627-.968,5.377,5.377,0,0,1,1.066-.573,1.619,1.619,0,0,0,.944-1.474c0-.02,0-.037,0-.056a30.316,30.316,0,0,1,5.418,2.306c.412.224.883.482,1.392.779-.581,1.846-1.554,3.213-3.711,3.37.318.47.946.547,1.683.305a12.233,12.233,0,0,1,1.382-.338,2.612,2.612,0,0,1,.538,0l.068-.177-.565-.377c.41-.739.84-1.514,1.309-2.358a20.448,20.448,0,0,1,3.4,2.636h0l.009.006.064.062c-.541.211-.96.354-1.355.544-.113.054-.157.252-.234.384a2.012,2.012,0,0,0,.416.037c.5-.055.987-.146,1.484-.188a.914.914,0,0,1,.49.056c.046.051.091.105.138.157a.842.842,0,0,1-.036.524.771.771,0,0,0-.024.494l.528-.46c.269.334.534.68.79,1.052a18.248,18.248,0,0,1,1.92,3.6,1.121,1.121,0,0,0-.385-.129c-.786-.1-1.591.637-2.19,1.38a3.242,3.242,0,0,0,.092-1.263.641.641,0,0,1,.149-.375,1.9,1.9,0,0,0,.3-1.382l-.564,1.129c-.323-.412-.507-.832-1.028-.928a1.036,1.036,0,0,0,.089.217,2.439,2.439,0,0,1,.449,2.476c-.449,1.251-.934,2.486-1.464,3.694a6.015,6.015,0,0,1-1.664,1.945l-.362-.8-.153.042a3.081,3.081,0,0,1,.064.475,2.118,2.118,0,0,1-.071.859c-.567,1.083-1.184,2.135-1.8,3.234l-.589-.747-.11.1c.038.081.072.163.115.241.221.4.277.758-.093,1.016q-.849.592-1.7,1.187c-.058.041-.112.087-.238.187l.56.077c-.144.432-.3.876-.443,1.218a10.437,10.437,0,0,0-.537,3.273c.431-.513,1.358-4.312,1.684-4.825a7.544,7.544,0,0,1-.031,3.456,4.467,4.467,0,0,0,.4-3.684,6.521,6.521,0,0,0,2.164-2.634c.306-.5.621-.984.934-1.472a.989.989,0,0,1,.2-.259,8.016,8.016,0,0,0,2.714-4.092,1.193,1.193,0,0,1,.42-.526,7.038,7.038,0,0,1,.766-.481l-.06-.134-.363.057c.612-.972,1.595-2.15,2.287-2.059.511.066.822.877.994,1.546.639,2.5,1.063,4.055,1.312,4.935.017.131.028.263.044.395a5.4,5.4,0,0,1-.975,1.009,1.234,1.234,0,0,1-.384.108,1.446,1.446,0,0,0-.408.03l-.169.061.41.262.372.088a2.245,2.245,0,0,1-.459.96,1.46,1.46,0,0,0,1-.592s.1-.067.191-.39a2.781,2.781,0,0,1,.278-.689s.085-.15.2-.36a29.385,29.385,0,0,1,.086,4.578l-.046.772.3-.185a9.624,9.624,0,0,1-.022,1.63c-.086,1.171-.909,2.43-1.423,2.434h0c-.236,0-.482-.393-.931-1.144a22.9,22.9,0,0,0-1.384-2.1,19.256,19.256,0,0,0-2.222-2.49l-.141-.133a1.972,1.972,0,0,0,.113-.715.8.8,0,0,0-.109-.441.854.854,0,0,0-.665-.313.878.878,0,0,1,.415.768,2.184,2.184,0,0,1-.151.753l-.1.2c0,.009-.431.883-2.512,4.383-.059-.106-.117-.212-.175-.318-.121.059-.089.235-.072.369a1.021,1.021,0,0,1-.081.5c-.176.3-.363.607-.562.938a19.254,19.254,0,0,1-1.1,1.637.86.86,0,0,0-.3-.106.342.342,0,0,1,.158.286c-2.089,2.708-3.86,3.255-4.138,3.326-5.268-.346-5.937-2.023-6.223-2.741l-.027-.067a1.416,1.416,0,0,1-.058-.2c.238-.305.475-.619.736-.959l-.867-.129c-.009-.118-.015-.238-.022-.36a14.443,14.443,0,0,1,.376-3.157,15.758,15.758,0,0,1,1.629-2.944,4.058,4.058,0,0,0-.444.085c-.182.052-.353.131-.555.208-.373-4.728,1.568-8.314,4.827-11.283l-.2-.144-.724.155a5.876,5.876,0,0,1,.083-.871c.167-.652.273-1.312,1.3-1.236.419.031.817-.344,1.225-.535l-.148-.251c-.25.066-.5.139-.75.2-.771.175-.976.028-1.1-.741a5.182,5.182,0,0,1,.449-3.053,4.963,4.963,0,0,0,.175-.543l-.207-.119a4.006,4.006,0,0,0-.452.552,10.72,10.72,0,0,0-.951,4.618c.023.841.06,1.466.044,2.083a.764.764,0,0,1-.257.477,12.59,12.59,0,0,0-3.839,6.9.021.021,0,0,0-.015,0,3.715,3.715,0,0,0-.97.336c-.9.483-1.924,1.308-1.754,2.453a.034.034,0,0,0,.049,0,7.186,7.186,0,0,0,.651-.757,4.905,4.905,0,0,1,2.027-1.967c-.083.434-.149.876-.194,1.331a3.714,3.714,0,0,1-.96,2.1l-.258.307.1.12.986-.585a1.787,1.787,0,0,1-.125,1.658,5,5,0,0,0-.67,2.1c-.013.138-.022.276-.028.415C350.451,210.607,347.443,212.209,345.258,212.151Zm22.586,7.587a6.018,6.018,0,0,1-4.99,1.651,8.26,8.26,0,0,1-5.7-2.69c-.335-.369-.686-.727-1.031-1.157.517.08,1.09.144,1.723.188l.126.025c5.322-.217,8.874-1.21,11.241-2.4A6.991,6.991,0,0,1,367.844,219.737Zm3.258-6.214c-.08.072-.161.141-.246.208a5.924,5.924,0,0,1-1.819.918,5.056,5.056,0,0,1-2.014.321c-.452-.039-.784-.178-.809-.119s.436.366.5.405c.207.13.259.137.265.185.025.213-.954.5-1.358.611-.461.129-.931.229-1.4.324-1.524.311-3.063.581-4.609.76l-.1.01a13.622,13.622,0,0,0,4.559-4.937c1.933-3.216,2.808-4.766,3.182-5.453a18.7,18.7,0,0,1,1.752,2.02,22.2,22.2,0,0,1,1.337,2.036c.551.922.915,1.533,1.614,1.533h.01a1.011,1.011,0,0,0,.16-.017A14.778,14.778,0,0,1,371.1,213.523Z" transform="translate(-321.372 -180.01)" fill="#0e2748"/>
      <path id="Path_75460" data-name="Path 75460" d="M335.242,376.83a13.981,13.981,0,0,0-.332,2.365l.076.422a20.064,20.064,0,0,0,.268-2.293A1.4,1.4,0,0,1,335.242,376.83Z" transform="translate(-333.617 -358.16)" fill="#0e2748"/>
      <path id="Path_75461" data-name="Path 75461" d="M351.811,363.067c.148-.014.272.022.3.175.061.415-.651,1.359-.371,2.416l.016.6a7.393,7.393,0,0,1,.38-2c.3-.606.61-1.015-.031-1.214a1.1,1.1,0,0,0-.336-.054Z" transform="translate(-348.796 -345.633)" fill="#0e2748"/>
      <path id="Path_75462" data-name="Path 75462" d="M356.548,339.666a2.24,2.24,0,0,0-1.655.41c-.965.6-2.075,1.253-2.073,1.314s1.666-.949,2.174-1.182A4.858,4.858,0,0,1,356.548,339.666Z" transform="translate(-349.837 -324.495)" fill="#0e2748"/>
      <path id="Path_75463" data-name="Path 75463" d="M360.865,331.256a6.348,6.348,0,0,0-2.765,1,15.589,15.589,0,0,1,3.091-1.017Z" transform="translate(-354.616 -316.895)" fill="#0e2748"/>
      <path id="Path_75464" data-name="Path 75464" d="M354.588,342.1s.086-.054.228-.137c-.113.045-.225.09-.345.139Z" transform="translate(-351.33 -326.598)" fill="#0e2748"/>
    </g>
  </g>
  <g id="Group_14910" data-name="Group 14910" transform="translate(0 56.853)">
    <path id="Path_75465" data-name="Path 75465" d="M121.485,788.77v.156a4.8,4.8,0,0,1,2.373.729,1.886,1.886,0,0,1,.837,1.619,2.833,2.833,0,0,1-.249,1.217,2.473,2.473,0,0,1-.655.872,3.454,3.454,0,0,1-.975.559,5.4,5.4,0,0,1-1.168.309,8.554,8.554,0,0,1-1.267.089h-3.559v-.235a1.949,1.949,0,0,0,.309-.235.6.6,0,0,0,.157-.249,1.086,1.086,0,0,0,.053-.231c0-.059.007-.16.007-.3v-7.025c0-.066,0-.157.008-.274s.007-.2.007-.249a1.274,1.274,0,0,0-.022-.207.435.435,0,0,0-.071-.2,2.039,2.039,0,0,0-.15-.164.927.927,0,0,0-.256-.175c-.1-.05-.233-.1-.388-.16s-.336-.117-.544-.178v-.306l.085-.092h4.491q3.836,0,3.836,2.235a1.9,1.9,0,0,1-.252.965,2.249,2.249,0,0,1-.683.733,4.766,4.766,0,0,1-.908.488A5.677,5.677,0,0,1,121.485,788.77Zm-2.314-.085a3.979,3.979,0,0,0,2.373-.6,1.976,1.976,0,0,0,.815-1.694q0-1.736-2.406-1.737a2.593,2.593,0,0,0-.6.079.209.209,0,0,0-.157.175,2.633,2.633,0,0,0-.028.467v3.309Zm0,3.9v.292c0,.047,0,.126.01.235a.889.889,0,0,0,.032.221c.014.038.035.089.064.153a.244.244,0,0,0,.107.128,1.367,1.367,0,0,0,.16.064.723.723,0,0,0,.224.032,3.015,3.015,0,0,0,2.024-.669,2.233,2.233,0,0,0,.786-1.794,1.885,1.885,0,0,0-1.459-1.783,4.979,4.979,0,0,0-.925-.178q-.406-.031-1.024-.053v3.351Z" transform="translate(-114.998 -783.749)" fill="#ad9470"/>
    <path id="Path_75466" data-name="Path 75466" d="M213.158,823.642l-1.544.569-.292-.1q.1-3.4.1-4.27v-.48c0-.068,0-.162-.007-.282s-.01-.21-.018-.274-.019-.142-.035-.235a.707.707,0,0,0-.064-.21,1.533,1.533,0,0,0-.092-.146.3.3,0,0,0-.132-.107.46.46,0,0,0-.178-.032,1.192,1.192,0,0,0-.484.132,2.479,2.479,0,0,0-.506.309l-.235-.341q.342-.263.544-.413t.534-.356a2.921,2.921,0,0,1,.637-.306,1.9,1.9,0,0,1,.591-.1.821.821,0,0,1,.758.327,1.8,1.8,0,0,1,.2.939l.157.071a6.994,6.994,0,0,1,1.1-.936,1.973,1.973,0,0,1,1.107-.36,1.007,1.007,0,0,1,.865.38,1.519,1.519,0,0,1,.282.929l-1.089.847-.193-.121a1.177,1.177,0,0,0-.281-.569.715.715,0,0,0-.551-.228,1.164,1.164,0,0,0-.694.207,1.22,1.22,0,0,0-.427.544,3.3,3.3,0,0,0-.2.669,3.741,3.741,0,0,0-.061.68Q212.952,821.345,213.158,823.642Z" transform="translate(-199.846 -813.582)" fill="#ad9470"/>
    <path id="Path_75467" data-name="Path 75467" d="M292.128,815.652l.206.135q-.235,2.427-.235,3.978,0,.612.007.883a5.5,5.5,0,0,0,.05.587.8.8,0,0,0,.146.427.364.364,0,0,0,.282.11,1.924,1.924,0,0,0,1.018-.612l.278.306q-.256.306-.491.544a6.015,6.015,0,0,1-.548.488,2.511,2.511,0,0,1-.666.384,1.947,1.947,0,0,1-.7.135q-.775,0-.9-.968l-.185-.071a4.572,4.572,0,0,1-2.712,1.082,1.677,1.677,0,0,1-.982-.292,1.944,1.944,0,0,1-.648-.762,4.265,4.265,0,0,1-.335-.965,4.659,4.659,0,0,1-.107-.986,5.323,5.323,0,0,1,.894-3.346,3.149,3.149,0,0,1,2.629-1.132,4.026,4.026,0,0,1,2.128.626Zm-1.531,2.363q0-1.88-1.338-1.879a1.719,1.719,0,0,0-.733.153,1.449,1.449,0,0,0-.538.423,3.092,3.092,0,0,0-.595,1.32c-.052.263-.09.511-.114.744a7.006,7.006,0,0,0-.035.711,4.53,4.53,0,0,0,.071.811,3.742,3.742,0,0,0,.231.776,1.419,1.419,0,0,0,.477.616,1.234,1.234,0,0,0,.75.231,2.525,2.525,0,0,0,1.708-.79A27.639,27.639,0,0,0,290.6,818.015Z" transform="translate(-268.713 -812.297)" fill="#ad9470"/>
    <path id="Path_75468" data-name="Path 75468" d="M366.925,794.837l.249.235v.164q-1.245,1.531-2.278,1.53a1.044,1.044,0,0,1-1.032-.708,2.721,2.721,0,0,1-.089-.327,2.973,2.973,0,0,1-.039-.484c0-.215-.007-.409-.007-.58s0-.44.007-.808.008-.7.008-.986v-1.71q-.064-.711-.506-.711a2.008,2.008,0,0,0-1.011.463L362,790.6q.427-.349.744-.569a4.786,4.786,0,0,1,.79-.431,2.167,2.167,0,0,1,.865-.21.782.782,0,0,1,.733.335,1.222,1.222,0,0,1,.132.391,5.9,5.9,0,0,1,.039.833c0,.194-.007.489-.022.882s-.021.689-.021.883c0,.156,0,.342,0,.559s0,.388-.007.516,0,.275,0,.441.009.3.018.395.023.2.039.317a.852.852,0,0,0,.071.26.99.99,0,0,0,.118.175.4.4,0,0,0,.167.121.645.645,0,0,0,.224.036.742.742,0,0,0,.374-.128,2.254,2.254,0,0,0,.335-.242C366.677,795.081,366.787,794.975,366.925,794.837Zm-3.082-6.637a.96.96,0,0,1,.676-1.64.932.932,0,0,1,.676.281.96.96,0,0,1-.676,1.64A.93.93,0,0,1,363.843,788.2Z" transform="translate(-337.918 -786.03)" fill="#ad9470"/>
    <path id="Path_75469" data-name="Path 75469" d="M408.225,817.468q0,1.551.036,3.174a15.2,15.2,0,0,0,.107,1.928l-1.6.463-.178-.1q.107-3.573.107-4.27v-.121c0-.2,0-.349,0-.449s-.009-.23-.018-.392a1.73,1.73,0,0,0-.05-.366,2.743,2.743,0,0,0-.092-.263.4.4,0,0,0-.156-.2.45.45,0,0,0-.235-.061.641.641,0,0,0-.2.035,1.453,1.453,0,0,0-.238.1l-.22.118c-.062.033-.134.076-.217.128l-.146.093-.263-.349q.313-.249.551-.423c.158-.117.346-.242.562-.378a2.973,2.973,0,0,1,.64-.306,1.955,1.955,0,0,1,.6-.1.856.856,0,0,1,.723.274,1.353,1.353,0,0,1,.246.729l.171.065a5.717,5.717,0,0,1,2.9-1.024,1.557,1.557,0,0,1,.726.153,1.5,1.5,0,0,1,.441.327,1.322,1.322,0,0,1,.221.634,6.7,6.7,0,0,1,.082.726c.007.177.009.5,0,.957V819q0,.221-.025.744c-.017.349-.025.6-.025.758a4.152,4.152,0,0,0,.035.616,1,1,0,0,0,.075.292.523.523,0,0,0,.124.138.558.558,0,0,0,.413.15,1.74,1.74,0,0,0,.975-.378h.171l.164.242a13.551,13.551,0,0,1-1.1,1.018,2.093,2.093,0,0,1-1.225.541,1.1,1.1,0,0,1-.783-.285.87.87,0,0,1-.157-.193.9.9,0,0,1-.1-.288c-.024-.121-.043-.232-.057-.335a4.423,4.423,0,0,1-.028-.467c0-.209-.006-.39,0-.544s0-.39.007-.709,0-.593,0-.825q0-.591-.014-.965a5.3,5.3,0,0,0-.11-.843,1.249,1.249,0,0,0-.274-.64,1.168,1.168,0,0,0-.811-.228A4.6,4.6,0,0,0,408.225,817.468Z" transform="translate(-376.757 -812.433)" fill="#ad9470"/>
    <path id="Path_75470" data-name="Path 75470" d="M543.831,784.707l-1.374,1.252-.235-.043a4.64,4.64,0,0,0-.345-.908,3.48,3.48,0,0,0-.526-.754,2.171,2.171,0,0,0-.786-.538,2.758,2.758,0,0,0-1.053-.193,2.9,2.9,0,0,0-1.1.2,2.467,2.467,0,0,0-.847.555,3.966,3.966,0,0,0-.6.794,4.165,4.165,0,0,0-.4.954,7.219,7.219,0,0,0-.213,1,6.868,6.868,0,0,0-.067.961,6.357,6.357,0,0,0,.128,1.27,5.282,5.282,0,0,0,.423,1.242,4.338,4.338,0,0,0,.723,1.075,3.16,3.16,0,0,0,1.082.748,3.587,3.587,0,0,0,1.445.285,7.761,7.761,0,0,0,3.324-.918l.306.363a7.27,7.27,0,0,1-4.228,1.445,7.094,7.094,0,0,1-2.086-.285,4.617,4.617,0,0,1-1.526-.762,4.209,4.209,0,0,1-1-1.138,4.736,4.736,0,0,1-.565-1.381,6.681,6.681,0,0,1-.167-1.523,5.079,5.079,0,0,1,1.53-3.964,5.884,5.884,0,0,1,1.943-1.167,6.609,6.609,0,0,1,2.3-.406,5.681,5.681,0,0,1,2.349.427A3.678,3.678,0,0,1,543.831,784.707Z" transform="translate(-493.876 -782.69)" fill="#ad9470"/>
    <path id="Path_75471" data-name="Path 75471" d="M640.1,785.6v-1.936q0-.292-.363-.263l-2.932.142-.128-.128v-.847l.114-.114q.526.014,1.967.071t2.231.057q.655,0,1.363-.025t1.644-.071q.936-.046,1.363-.061l.149.142v.733l-.163.128-.612-.014q-.569-.014-1.3-.028t-1.164-.014a.475.475,0,0,0-.242.043.2.2,0,0,0-.064.178V785.6q0,2.847.249,6.8l-2.1.6-.128-.178Q640.1,788.97,640.1,785.6Z" transform="translate(-586.766 -782.292)" fill="#ad9470"/>
    <path id="Path_75472" data-name="Path 75472" d="M756.03,783.528l-.25-.078a2.49,2.49,0,0,0-.608-1.359,1.71,1.71,0,0,0-1.341-.562,1.465,1.465,0,0,0-1.1.427,1.44,1.44,0,0,0-.416,1.046,1.686,1.686,0,0,0,.142.687,2.183,2.183,0,0,0,.341.555,2.988,2.988,0,0,0,.541.473q.341.242.6.388t.662.345q.576.3.954.516a7.735,7.735,0,0,1,.758.5,3.11,3.11,0,0,1,.594.559,2.441,2.441,0,0,1,.349.626,2.1,2.1,0,0,1,.135.758,2.461,2.461,0,0,1-.41,1.355,3.464,3.464,0,0,1-1.057,1.053,5.738,5.738,0,0,1-1.438.658,5.305,5.305,0,0,1-1.558.242,3.739,3.739,0,0,1-1.672-.381,3.312,3.312,0,0,1-1.274-1.093l1.416-1.587.277.1a2.339,2.339,0,0,0,.581,1.558,1.883,1.883,0,0,0,1.505.683,1.8,1.8,0,0,0,1.317-.544,1.715,1.715,0,0,0,.548-1.249,2.016,2.016,0,0,0-.79-1.4,3.936,3.936,0,0,0-.666-.473q-.438-.26-.875-.484a9.568,9.568,0,0,1-.918-.541,7.067,7.067,0,0,1-.839-.637,2.672,2.672,0,0,1-.6-.78,2.059,2.059,0,0,1-.238-.965,2.775,2.775,0,0,1,.321-1.349,2.465,2.465,0,0,1,.865-.929,4.262,4.262,0,0,1,1.2-.512,5.552,5.552,0,0,1,1.4-.171,4.426,4.426,0,0,1,1.886.341,2.081,2.081,0,0,1,1.046,1.132Z" transform="translate(-689.399 -780.97)" fill="#ad9470"/>
    <path id="Path_75473" data-name="Path 75473" d="M844.5,817.6l-1.345.8-.25-.1a2.5,2.5,0,0,0-.313-1.3,1.047,1.047,0,0,0-.968-.526,1.091,1.091,0,0,0-.783.323,2.045,2.045,0,0,0-.506.826,6.141,6.141,0,0,0-.249.979,5.592,5.592,0,0,0-.079.9,4.485,4.485,0,0,0,.057.711,3.528,3.528,0,0,0,.2.729,2.865,2.865,0,0,0,.36.662,1.592,1.592,0,0,0,.566.469,1.7,1.7,0,0,0,.794.181,4.061,4.061,0,0,0,2.406-1l.178.043.142.207a5.272,5.272,0,0,1-3.758,1.758,2.817,2.817,0,0,1-1.221-.252,2.126,2.126,0,0,1-.837-.683,3.213,3.213,0,0,1-.459-.943,3.722,3.722,0,0,1-.154-1.075,6.209,6.209,0,0,1,.128-1.274,4.806,4.806,0,0,1,.423-1.192,3.74,3.74,0,0,1,.74-1.007,3.3,3.3,0,0,1,1.125-.687,4.221,4.221,0,0,1,1.52-.26,3.614,3.614,0,0,1,.807.085,2.563,2.563,0,0,1,.7.274,1.443,1.443,0,0,1,.534.534A1.8,1.8,0,0,1,844.5,817.6Z" transform="translate(-769.394 -812.578)" fill="#ad9470"/>
    <path id="Path_75474" data-name="Path 75474" d="M918.709,815.652l.207.135q-.235,2.427-.235,3.978,0,.612.007.883a5.293,5.293,0,0,0,.05.587.8.8,0,0,0,.146.427.363.363,0,0,0,.281.11,1.923,1.923,0,0,0,1.018-.612l.278.306q-.256.306-.491.544a6.017,6.017,0,0,1-.548.488,2.509,2.509,0,0,1-.666.384,1.947,1.947,0,0,1-.7.135q-.775,0-.9-.968l-.185-.071a4.574,4.574,0,0,1-2.712,1.082,1.682,1.682,0,0,1-.983-.292,1.944,1.944,0,0,1-.648-.762,4.314,4.314,0,0,1-.335-.965,4.657,4.657,0,0,1-.107-.986,5.322,5.322,0,0,1,.894-3.346,3.149,3.149,0,0,1,2.629-1.132,4.026,4.026,0,0,1,2.128.626Zm-1.531,2.363q0-1.88-1.338-1.879a1.719,1.719,0,0,0-.733.153,1.439,1.439,0,0,0-.537.423,3.094,3.094,0,0,0-.595,1.32c-.052.263-.09.511-.114.744a7.013,7.013,0,0,0-.036.711,4.527,4.527,0,0,0,.071.811,3.74,3.74,0,0,0,.232.776,1.419,1.419,0,0,0,.477.616,1.238,1.238,0,0,0,.751.231,2.527,2.527,0,0,0,1.708-.79A27.949,27.949,0,0,0,917.178,818.015Z" transform="translate(-836.417 -812.297)" fill="#ad9470"/>
    <path id="Path_75475" data-name="Path 75475" d="M989.158,817.468q0,1.551.035,3.174a15.22,15.22,0,0,0,.107,1.928l-1.6.463-.178-.1q.107-3.573.107-4.27v-.121c0-.2,0-.349,0-.449s-.009-.23-.018-.392a1.793,1.793,0,0,0-.05-.366,2.516,2.516,0,0,0-.093-.263.4.4,0,0,0-.156-.2.447.447,0,0,0-.235-.061.64.64,0,0,0-.2.035,1.42,1.42,0,0,0-.238.1l-.221.118c-.062.033-.134.076-.217.128l-.146.093-.264-.349q.313-.249.551-.423c.159-.117.346-.242.563-.378a2.974,2.974,0,0,1,.64-.306,1.956,1.956,0,0,1,.6-.1.857.857,0,0,1,.723.274,1.354,1.354,0,0,1,.246.729l.171.065a5.716,5.716,0,0,1,2.9-1.024,1.556,1.556,0,0,1,.726.153,1.5,1.5,0,0,1,.441.327,1.321,1.321,0,0,1,.221.634,6.656,6.656,0,0,1,.082.726c.007.178.009.5,0,.957V819q0,.221-.025.744t-.025.758a4.01,4.01,0,0,0,.036.616,1,1,0,0,0,.075.292.522.522,0,0,0,.124.138.558.558,0,0,0,.413.15,1.739,1.739,0,0,0,.975-.378h.171l.163.242a13.375,13.375,0,0,1-1.1,1.018,2.092,2.092,0,0,1-1.224.541,1.1,1.1,0,0,1-.783-.285.872.872,0,0,1-.156-.193.9.9,0,0,1-.1-.288c-.024-.121-.043-.232-.057-.335a4.417,4.417,0,0,1-.028-.467c0-.209-.006-.39,0-.544s0-.39.007-.709,0-.593,0-.825q0-.591-.014-.965a5.3,5.3,0,0,0-.11-.843,1.248,1.248,0,0,0-.274-.64,1.168,1.168,0,0,0-.812-.228A4.607,4.607,0,0,0,989.158,817.468Z" transform="translate(-903.045 -812.433)" fill="#ad9470"/>
    <path id="Path_75476" data-name="Path 75476" d="M107.894,945.75v.119a1.578,1.578,0,0,1-.538-.175,1.614,1.614,0,0,1-.416-.316,2.242,2.242,0,0,1-.308-.425,2.783,2.783,0,0,1-.217-.474,4.358,4.358,0,0,1-.138-.5,9.912,9.912,0,0,1-.176-2.033,8.338,8.338,0,0,1,.2-1.934,4.3,4.3,0,0,1,.139-.487,3.1,3.1,0,0,1,.21-.458,2.066,2.066,0,0,1,.3-.417,1.951,1.951,0,0,1,.411-.328,2,2,0,0,1,.54-.228v.156a1.435,1.435,0,0,0-.446.306,2.042,2.042,0,0,0-.333.434,2.676,2.676,0,0,0-.23.546,5.189,5.189,0,0,0-.15.6c-.036.19-.064.4-.084.643s-.033.446-.039.624-.009.377-.009.6a11.023,11.023,0,0,0,.176,2.151,3.849,3.849,0,0,0,.123.455,3.658,3.658,0,0,0,.2.469,1.457,1.457,0,0,0,.33.432A1.066,1.066,0,0,0,107.894,945.75Z" transform="translate(-106.1 -923.195)" fill="#0e2748"/>
    <path id="Path_75477" data-name="Path 75477" d="M137.448,944.512l.09,2.39-1.15.411-.078-.074q.111-1.955.111-3.909,0-1.145-.025-1.331a.354.354,0,0,0-.092-.2.445.445,0,0,0-.21-.117,1.774,1.774,0,0,0-.228-.049c-.063-.009-.142-.015-.238-.021V941.4l.046-.046h2.7q2,0,2,1.257a1.444,1.444,0,0,1-.427,1.134,1.6,1.6,0,0,1-.384.259,2.967,2.967,0,0,1-.395.166q-.171.055-.458.129l-.033.095q1.4,1.638,1.828,2.1c.112.115.207.208.284.279l.025.136-.986.427-.176-.016-2.094-2.784A.192.192,0,0,0,137.448,944.512Zm0-.344a3.017,3.017,0,0,0,.746-.105,1.243,1.243,0,0,0,.581-.282,1.438,1.438,0,0,0,.407-1.043.938.938,0,0,0-.349-.793,1.464,1.464,0,0,0-.915-.267H137.8l-.06,0c-.027,0-.048,0-.064.006a.478.478,0,0,0-.055.014.161.161,0,0,0-.051.025l-.041.033a.1.1,0,0,0-.032.047.3.3,0,0,0-.014.065c0,.011-.007.152-.012.423s-.01.591-.014.959S137.448,943.926,137.448,944.167Z" transform="translate(-132.829 -926.137)" fill="#0e2748"/>
    <path id="Path_75478" data-name="Path 75478" d="M198.06,962.924l.09.16a7.147,7.147,0,0,1-1,.6,2.115,2.115,0,0,1-.931.226,1.651,1.651,0,0,1-1.823-1.853,2.786,2.786,0,0,1,.148-.906,2.53,2.53,0,0,1,.429-.78,1.977,1.977,0,0,1,.741-.554,2.488,2.488,0,0,1,1.035-.208,2.583,2.583,0,0,1,.589.064,1.837,1.837,0,0,1,.508.2,1.013,1.013,0,0,1,.372.384,1.163,1.163,0,0,1,.138.579.3.3,0,0,1-.243.312q-.024,0-2.71.834a1.543,1.543,0,0,0,.138.651,1.226,1.226,0,0,0,.429.5,1.173,1.173,0,0,0,.682.2,2.573,2.573,0,0,0,1.277-.448Zm-2.542-1.318q.411-.131.982-.3a6.463,6.463,0,0,0,.688-.234.209.209,0,0,0,.138-.193,1.129,1.129,0,0,0-.193-.649.647.647,0,0,0-.571-.284.985.985,0,0,0-.8.393,1.62,1.62,0,0,0-.21.395,2.141,2.141,0,0,0-.115.429,2.688,2.688,0,0,0-.03.407c0,.03.021.045.062.045a.108.108,0,0,0,.025,0A.058.058,0,0,1,195.517,961.607Z" transform="translate(-186.024 -942.665)" fill="#0e2748"/>
    <path id="Path_75479" data-name="Path 75479" d="M244.957,959.4l.119.078q-.135,1.4-.136,2.3c0,.235,0,.405,0,.509a3.257,3.257,0,0,0,.028.339.465.465,0,0,0,.084.247.211.211,0,0,0,.162.064,1.108,1.108,0,0,0,.587-.353l.16.176c-.1.118-.193.222-.284.314a3.594,3.594,0,0,1-.316.282,1.454,1.454,0,0,1-.384.222,1.12,1.12,0,0,1-.4.078q-.448,0-.522-.559l-.107-.041a2.635,2.635,0,0,1-1.565.624.968.968,0,0,1-.566-.168,1.12,1.12,0,0,1-.374-.439,2.452,2.452,0,0,1-.193-.557,2.7,2.7,0,0,1-.062-.569,3.074,3.074,0,0,1,.515-1.93,1.815,1.815,0,0,1,1.518-.653,2.321,2.321,0,0,1,1.227.361Zm-.882,1.363q0-1.084-.772-1.084a.99.99,0,0,0-.423.088.825.825,0,0,0-.31.245,1.795,1.795,0,0,0-.343.762q-.046.228-.065.429c-.013.135-.021.271-.021.411a2.592,2.592,0,0,0,.041.468,2.177,2.177,0,0,0,.134.448.825.825,0,0,0,.275.356.713.713,0,0,0,.434.134,1.455,1.455,0,0,0,.986-.456A15.883,15.883,0,0,0,244.075,960.764Z" transform="translate(-228.376 -942.439)" fill="#0e2748"/>
    <path id="Path_75480" data-name="Path 75480" d="M294.124,941.7l1.606-.176.078.053c-.009.11-.02.277-.035.5s-.026.378-.031.456-.011.193-.018.347-.011.294-.014.421,0,.272,0,.433L295.7,946.2a1.036,1.036,0,0,0,.072.39.243.243,0,0,0,.231.181.651.651,0,0,0,.286-.1,1.943,1.943,0,0,0,.31-.21l.144.185c-.156.158-.3.291-.416.4a2.4,2.4,0,0,1-.458.306,1.111,1.111,0,0,1-.513.146.452.452,0,0,1-.395-.187.891.891,0,0,1-.152-.453,2.962,2.962,0,0,1-1.613.628,1.286,1.286,0,0,1-.54-.109,1.161,1.161,0,0,1-.392-.279,1.446,1.446,0,0,1-.25-.4,2.152,2.152,0,0,1-.139-.455,2.56,2.56,0,0,1-.041-.46,2.773,2.773,0,0,1,.587-1.836,1.942,1.942,0,0,1,1.573-.707,2.443,2.443,0,0,1,.768.1l.057-.041v-.785a.708.708,0,0,0-.037-.254.284.284,0,0,0-.138-.148.745.745,0,0,0-.208-.074c-.071-.013-.178-.03-.321-.049l-.033,0-.033,0-.037-.007v-.2Zm.691,4.755v-2.094a.89.89,0,0,0-.166-.626.665.665,0,0,0-.49-.166,1.137,1.137,0,0,0-.524.119,1.077,1.077,0,0,0-.374.306,1.663,1.663,0,0,0-.234.439,2.423,2.423,0,0,0-.127.5,3.384,3.384,0,0,0-.035.492,3.237,3.237,0,0,0,.023.392,2.029,2.029,0,0,0,.088.386,1.375,1.375,0,0,0,.166.345.761.761,0,0,0,.273.238.828.828,0,0,0,.4.092A1.663,1.663,0,0,0,294.814,946.452Z" transform="translate(-274.351 -926.291)" fill="#0e2748"/>
    <path id="Path_75481" data-name="Path 75481" d="M341.1,947.376l.144.136v.094q-.719.884-1.314.883a.587.587,0,0,1-.506-.238.564.564,0,0,1-.09-.171,1.529,1.529,0,0,1-.051-.189,1.747,1.747,0,0,1-.023-.279c0-.124,0-.236,0-.335s0-.254,0-.466,0-.4,0-.569v-.986c-.025-.273-.121-.411-.291-.411a1.155,1.155,0,0,0-.583.268l-.132-.185q.246-.2.43-.328a2.749,2.749,0,0,1,.455-.249,1.246,1.246,0,0,1,.5-.121.452.452,0,0,1,.423.193.686.686,0,0,1,.076.226,3.321,3.321,0,0,1,.023.48c0,.112,0,.282-.012.509s-.012.4-.012.509c0,.09,0,.2,0,.322s0,.224,0,.3,0,.158,0,.254,0,.172.01.228.013.117.023.183a.483.483,0,0,0,.041.15.645.645,0,0,0,.067.1.232.232,0,0,0,.1.07.357.357,0,0,0,.129.021.426.426,0,0,0,.215-.074,1.256,1.256,0,0,0,.193-.139C340.958,947.517,341.022,947.456,341.1,947.376Zm-1.778-3.829a.55.55,0,1,1,.39.162A.533.533,0,0,1,339.324,943.547Z" transform="translate(-316.408 -927.268)" fill="#0e2748"/>
    <path id="Path_75482" data-name="Path 75482" d="M364.941,960.452q0,.9.021,1.832a8.67,8.67,0,0,0,.062,1.113l-.924.267-.1-.058q.061-2.062.062-2.464v-.07c0-.115,0-.2,0-.259s0-.133-.01-.226a1.089,1.089,0,0,0-.028-.211,1.379,1.379,0,0,0-.053-.152.231.231,0,0,0-.09-.115.263.263,0,0,0-.136-.035.358.358,0,0,0-.113.021.858.858,0,0,0-.138.06c-.049.027-.092.048-.127.068s-.078.044-.125.074l-.084.053-.152-.2q.181-.144.318-.245c.092-.067.2-.139.324-.217a1.678,1.678,0,0,1,.37-.176,1.113,1.113,0,0,1,.347-.06.493.493,0,0,1,.416.157.783.783,0,0,1,.142.421l.1.037a3.3,3.3,0,0,1,1.675-.591.892.892,0,0,1,.418.088.843.843,0,0,1,.254.189.76.76,0,0,1,.127.365,4.063,4.063,0,0,1,.047.419c0,.1,0,.286,0,.552v.247c0,.084,0,.228-.014.429s-.014.347-.014.437a2.287,2.287,0,0,0,.021.355.578.578,0,0,0,.043.169.318.318,0,0,0,.072.08.323.323,0,0,0,.238.086,1,1,0,0,0,.563-.217h.1l.095.139a7.657,7.657,0,0,1-.633.587,1.21,1.21,0,0,1-.707.312.639.639,0,0,1-.452-.164.5.5,0,0,1-.09-.111.535.535,0,0,1-.058-.166c-.013-.07-.025-.134-.033-.193a2.526,2.526,0,0,1-.016-.269c0-.12,0-.225,0-.314s0-.225,0-.409,0-.342,0-.476c0-.227,0-.413-.009-.556a3.038,3.038,0,0,0-.064-.487.723.723,0,0,0-.158-.37.677.677,0,0,0-.469-.132A2.616,2.616,0,0,0,364.941,960.452Z" transform="translate(-338.825 -942.52)" fill="#0e2748"/>
    <path id="Path_75483" data-name="Path 75483" d="M427.506,962.734a6.4,6.4,0,0,1-.127,1.446,1.9,1.9,0,0,1-.489.9,2.338,2.338,0,0,1-.852.573,2.785,2.785,0,0,1-1.012.187,1.82,1.82,0,0,1-.741-.168,1.677,1.677,0,0,1-.606-.432l.506-.665h.176q.477.842,1.043.842a1.079,1.079,0,0,0,.462-.1.894.894,0,0,0,.347-.275,1.787,1.787,0,0,0,.328-.661,5.839,5.839,0,0,0,.083-1.039,5.1,5.1,0,0,1-.86.462,2.2,2.2,0,0,1-.832.162q-1.211,0-1.211-1.959a2.53,2.53,0,0,1,.557-1.726,1.913,1.913,0,0,1,1.521-.638,1.952,1.952,0,0,1,1.113.328l.522-.21.107.033q-.024.444-.029.852C427.51,960.916,427.506,961.612,427.506,962.734Zm-.882.111v-2.181a.593.593,0,0,0-.236-.5.823.823,0,0,0-.5-.178,1.062,1.062,0,0,0-.679.215,1.18,1.18,0,0,0-.39.554,2.411,2.411,0,0,0-.117.786q0,1.774.915,1.774a1.366,1.366,0,0,0,.566-.129A1.153,1.153,0,0,0,426.624,962.845Z" transform="translate(-393.79 -942.692)" fill="#0e2748"/>
    <path id="Path_75484" data-name="Path 75484" d="M492.574,944.623l.009-.411q.481.024.957.025.908,0,2.439-.062l-.025.48q-.575-.033-1.294-.033a1.967,1.967,0,0,1,.049.386,2.219,2.219,0,0,1-.764,1.659,1.905,1.905,0,0,0,.957.345.594.594,0,0,0,.277-.067.868.868,0,0,0,.212-.15,1.2,1.2,0,0,0,.174-.24,2.718,2.718,0,0,0,.129-.24c.025-.055.06-.139.107-.254l.21.049a4.434,4.434,0,0,1-.146.444,2.636,2.636,0,0,1-.22.434,1.93,1.93,0,0,1-.306.388,1.37,1.37,0,0,1-.409.265,1.307,1.307,0,0,1-.526.105,2.06,2.06,0,0,1-1.285-.448,4.4,4.4,0,0,1-1.758.431,2.454,2.454,0,0,1-1.008-.21,1.9,1.9,0,0,1-.762-.6,1.435,1.435,0,0,1,.054-1.8,3.971,3.971,0,0,1,1.093-.825,2.429,2.429,0,0,1-.234-.957,1.4,1.4,0,0,1,.435-1.121,1.822,1.822,0,0,1,.657-.351,2.725,2.725,0,0,1,.8-.117,1.452,1.452,0,0,1,.5.083.857.857,0,0,1,.378.265.675.675,0,0,1,.15.441.963.963,0,0,1-.033.252,1.223,1.223,0,0,1-.083.222.892.892,0,0,1-.141.2c-.062.07-.119.13-.171.181a1.643,1.643,0,0,1-.215.169c-.092.062-.169.112-.231.152s-.149.088-.261.146-.2.1-.261.131l-.273.132q.7,1.01,1.061,1.456a7.115,7.115,0,0,0,.9.91,1.328,1.328,0,0,0,.37-1,.833.833,0,0,0-.267-.633,1.038,1.038,0,0,0-.739-.25C492.855,944.607,492.686,944.613,492.574,944.623Zm.308,2.447a12.875,12.875,0,0,1-2.008-2.513,1.17,1.17,0,0,0-.3.208.8.8,0,0,0-.18.259,1.213,1.213,0,0,0-.084.279,1.938,1.938,0,0,0-.023.314,1.478,1.478,0,0,0,.136.61,1.837,1.837,0,0,0,.365.536,1.794,1.794,0,0,0,.559.379,1.689,1.689,0,0,0,.69.146,1.621,1.621,0,0,0,.414-.064A2.615,2.615,0,0,0,492.882,947.071Zm-1.253-3.2a1.694,1.694,0,0,0,.643-.515,1.182,1.182,0,0,0,.2-.688.68.68,0,0,0-.158-.421.468.468,0,0,0-.379-.2.619.619,0,0,0-.376.113.6.6,0,0,0-.213.271.948.948,0,0,0-.06.339A2.012,2.012,0,0,0,491.629,943.868Z" transform="translate(-453.243 -926.499)" fill="#0e2748"/>
    <path id="Path_75485" data-name="Path 75485" d="M589.447,947.526v-.119q.028-.037.083-.1c.035-.044.06-.075.072-.092a.957.957,0,0,0,.049-.086.4.4,0,0,0,.041-.117c.007-.038.013-.089.018-.154s.009-.14.009-.228V943.02a3.068,3.068,0,0,0-.062-.755.447.447,0,0,0-.045-.111.228.228,0,0,0-.084-.083l-.1-.055a.525.525,0,0,0-.127-.043l-.125-.028c-.027-.006-.074-.013-.144-.023l-.134-.018v-.2l.049-.053h3.491a5.514,5.514,0,0,1,.949.076,3.383,3.383,0,0,1,.744.21,2.24,2.24,0,0,1,.552.331,2.01,2.01,0,0,1,.392.418,2.079,2.079,0,0,1,.247.5,3.019,3.019,0,0,1,.134.543,4.055,4.055,0,0,1,.039.573,2.928,2.928,0,0,1-.883,2.287,3.345,3.345,0,0,1-1.254.716,5.013,5.013,0,0,1-1.538.232h-2.373Zm1.322-1.564a5.219,5.219,0,0,0,.058.891.3.3,0,0,0,.083.169.376.376,0,0,0,.176.094,1.451,1.451,0,0,0,.21.039c.065.007.145.01.238.01a2.7,2.7,0,0,0,1.918-.633,2.848,2.848,0,0,0,.747-2.193,3.576,3.576,0,0,0-.08-.79,2.325,2.325,0,0,0-.21-.591,1.47,1.47,0,0,0-.335-.416,1.87,1.87,0,0,0-.417-.277,2.158,2.158,0,0,0-.5-.158,4.466,4.466,0,0,0-.538-.076c-.167-.012-.358-.018-.571-.018a4.361,4.361,0,0,0-.656.033.126.126,0,0,0-.105.107,2.388,2.388,0,0,0-.018.378v3.432Z" transform="translate(-543.471 -926.408)" fill="#0e2748"/>
    <path id="Path_75486" data-name="Path 75486" d="M662.322,947.376l.144.136v.094q-.719.884-1.314.883a.587.587,0,0,1-.506-.238.564.564,0,0,1-.09-.171,1.518,1.518,0,0,1-.051-.189,1.749,1.749,0,0,1-.023-.279c0-.124,0-.236,0-.335s0-.254,0-.466,0-.4,0-.569v-.986c-.025-.273-.121-.411-.291-.411a1.155,1.155,0,0,0-.583.268l-.132-.185q.246-.2.43-.328a2.751,2.751,0,0,1,.455-.249,1.246,1.246,0,0,1,.5-.121.451.451,0,0,1,.423.193.686.686,0,0,1,.076.226,3.313,3.313,0,0,1,.023.48c0,.112,0,.282-.012.509s-.012.4-.012.509c0,.09,0,.2,0,.322s0,.224,0,.3,0,.158,0,.254,0,.172.01.228.013.117.023.183a.486.486,0,0,0,.041.15.647.647,0,0,0,.067.1.232.232,0,0,0,.1.07.379.379,0,0,0,.129.021.426.426,0,0,0,.215-.074,1.261,1.261,0,0,0,.193-.139C662.178,947.517,662.242,947.456,662.322,947.376Zm-1.779-3.829a.55.55,0,1,1,.39.162A.533.533,0,0,1,660.543,943.547Z" transform="translate(-607.393 -927.268)" fill="#0e2748"/>
    <path id="Path_75487" data-name="Path 75487" d="M697.347,959.4l.119.078q-.135,1.4-.136,2.3c0,.235,0,.405,0,.509a3.265,3.265,0,0,0,.028.339.465.465,0,0,0,.084.247.211.211,0,0,0,.162.064,1.108,1.108,0,0,0,.587-.353l.16.176c-.1.118-.193.222-.284.314a3.594,3.594,0,0,1-.316.282,1.454,1.454,0,0,1-.384.222,1.119,1.119,0,0,1-.4.078q-.448,0-.522-.559l-.107-.041a2.635,2.635,0,0,1-1.565.624.968.968,0,0,1-.566-.168,1.12,1.12,0,0,1-.374-.439,2.451,2.451,0,0,1-.193-.557,2.7,2.7,0,0,1-.062-.569,3.074,3.074,0,0,1,.515-1.93,1.815,1.815,0,0,1,1.518-.653,2.321,2.321,0,0,1,1.227.361Zm-.883,1.363q0-1.084-.772-1.084a.989.989,0,0,0-.423.088.825.825,0,0,0-.31.245,1.794,1.794,0,0,0-.343.762q-.046.228-.065.429c-.013.135-.021.271-.021.411a2.6,2.6,0,0,0,.041.468,2.176,2.176,0,0,0,.134.448.825.825,0,0,0,.275.356.713.713,0,0,0,.433.134,1.455,1.455,0,0,0,.986-.456A15.9,15.9,0,0,0,696.464,960.764Z" transform="translate(-638.292 -942.439)" fill="#0e2748"/>
    <path id="Path_75488" data-name="Path 75488" d="M748.206,962.734a6.4,6.4,0,0,1-.127,1.446,1.9,1.9,0,0,1-.489.9,2.339,2.339,0,0,1-.852.573,2.785,2.785,0,0,1-1.012.187,1.819,1.819,0,0,1-.741-.168,1.676,1.676,0,0,1-.606-.432l.506-.665h.176q.477.842,1.043.842a1.079,1.079,0,0,0,.462-.1.894.894,0,0,0,.347-.275,1.788,1.788,0,0,0,.328-.661,5.852,5.852,0,0,0,.083-1.039,5.1,5.1,0,0,1-.86.462,2.2,2.2,0,0,1-.832.162q-1.211,0-1.211-1.959a2.53,2.53,0,0,1,.557-1.726,1.913,1.913,0,0,1,1.521-.638,1.952,1.952,0,0,1,1.113.328l.522-.21.107.033q-.024.444-.029.852C748.207,960.914,748.206,961.612,748.206,962.734Zm-.883.111v-2.181a.593.593,0,0,0-.236-.5.823.823,0,0,0-.5-.178,1.062,1.062,0,0,0-.679.215,1.18,1.18,0,0,0-.39.554,2.413,2.413,0,0,0-.117.786q0,1.774.915,1.774a1.366,1.366,0,0,0,.566-.129A1.14,1.14,0,0,0,747.323,962.845Z" transform="translate(-684.306 -942.692)" fill="#0e2748"/>
    <path id="Path_75489" data-name="Path 75489" d="M791.011,960.452q0,.9.021,1.832a8.67,8.67,0,0,0,.062,1.113l-.924.267-.1-.058q.061-2.062.062-2.464v-.07c0-.115,0-.2,0-.259s0-.133-.01-.226a1.083,1.083,0,0,0-.029-.211,1.378,1.378,0,0,0-.053-.152.231.231,0,0,0-.09-.115.262.262,0,0,0-.136-.035.359.359,0,0,0-.113.021.86.86,0,0,0-.138.06c-.049.027-.092.048-.127.068s-.078.044-.125.074l-.084.053-.152-.2c.12-.1.227-.177.318-.245s.2-.139.324-.217a1.679,1.679,0,0,1,.37-.176,1.118,1.118,0,0,1,.347-.06.493.493,0,0,1,.417.157.776.776,0,0,1,.141.421l.1.037a3.3,3.3,0,0,1,1.675-.591.9.9,0,0,1,.419.088.843.843,0,0,1,.254.189.771.771,0,0,1,.127.365,3.821,3.821,0,0,1,.047.419c0,.1,0,.286,0,.552v.247c0,.084,0,.228-.014.429s-.014.347-.014.437a2.3,2.3,0,0,0,.021.355.569.569,0,0,0,.044.169.317.317,0,0,0,.072.08.324.324,0,0,0,.238.086,1,1,0,0,0,.563-.217h.1l.094.139a7.647,7.647,0,0,1-.633.587,1.21,1.21,0,0,1-.707.312.638.638,0,0,1-.452-.164.5.5,0,0,1-.09-.111.511.511,0,0,1-.057-.166c-.013-.07-.025-.134-.033-.193a2.526,2.526,0,0,1-.016-.269c0-.12,0-.225,0-.314s0-.225,0-.409,0-.342,0-.476c0-.227,0-.413-.008-.556a3.04,3.04,0,0,0-.064-.487.715.715,0,0,0-.158-.37.675.675,0,0,0-.468-.132A2.611,2.611,0,0,0,791.011,960.452Z" transform="translate(-724.8 -942.52)" fill="#0e2748"/>
    <path id="Path_75490" data-name="Path 75490" d="M848.71,962.558a2.015,2.015,0,0,1,.633-1.523,2.238,2.238,0,0,1,1.61-.6,2.167,2.167,0,0,1,1.491.46,1.71,1.71,0,0,1,.563,1.322,3.263,3.263,0,0,1-.119.912,2.148,2.148,0,0,1-.324.682,1.838,1.838,0,0,1-.5.458,2.073,2.073,0,0,1-.62.265,2.933,2.933,0,0,1-.712.083,2.072,2.072,0,0,1-1.421-.407A2.106,2.106,0,0,1,848.71,962.558Zm1.083-.008a3.447,3.447,0,0,0,.025.4,2.813,2.813,0,0,0,.094.45,1.947,1.947,0,0,0,.176.429.944.944,0,0,0,.293.314.732.732,0,0,0,.421.127,1.135,1.135,0,0,0,.4-.065.982.982,0,0,0,.291-.164.808.808,0,0,0,.2-.267,1.892,1.892,0,0,0,.125-.321,2.45,2.45,0,0,0,.068-.382c.016-.154.026-.285.028-.395s0-.247,0-.411a2.757,2.757,0,0,0-.049-.538,1.9,1.9,0,0,0-.16-.474.859.859,0,0,0-.318-.353.907.907,0,0,0-.49-.129.88.88,0,0,0-.453.117.941.941,0,0,0-.318.3,1.743,1.743,0,0,0-.2.425,2.614,2.614,0,0,0-.109.474A3.639,3.639,0,0,0,849.793,962.55Z" transform="translate(-778.82 -943.407)" fill="#0e2748"/>
    <path id="Path_75491" data-name="Path 75491" d="M898.266,960.312l-.612.62-.127-.033a1.433,1.433,0,0,0-.08-.3,1.11,1.11,0,0,0-.152-.271.7.7,0,0,0-.249-.2.757.757,0,0,0-.341-.076.514.514,0,0,0-.413.16.665.665,0,0,0-.138.448.537.537,0,0,0,.039.2.851.851,0,0,0,.09.171.739.739,0,0,0,.152.154c.067.053.124.1.173.129a1.811,1.811,0,0,0,.206.117c.089.045.154.078.194.1l.2.09q.324.148.5.249a2.023,2.023,0,0,1,.335.232.727.727,0,0,1,.213.282.96.96,0,0,1,.06.356,1.021,1.021,0,0,1-.166.571,1.242,1.242,0,0,1-.437.407,2.431,2.431,0,0,1-.585.232,2.585,2.585,0,0,1-.638.08,1.86,1.86,0,0,1-1.453-.562l.529-.792.127.009a3.081,3.081,0,0,0,.121.37,1.84,1.84,0,0,0,.174.323.738.738,0,0,0,.284.254.873.873,0,0,0,.4.088.749.749,0,0,0,.493-.171.552.552,0,0,0,.2-.446.53.53,0,0,0-.193-.386,1.441,1.441,0,0,0-.284-.189q-.189-.1-.384-.191t-.411-.213a2.874,2.874,0,0,1-.379-.259,1.11,1.11,0,0,1-.273-.328.835.835,0,0,1-.109-.416,1.333,1.333,0,0,1,.138-.616,1.134,1.134,0,0,1,.374-.432,1.772,1.772,0,0,1,.531-.242,2.329,2.329,0,0,1,.628-.083,2.185,2.185,0,0,1,.766.121A.855.855,0,0,1,898.266,960.312Z" transform="translate(-820.783 -942.783)" fill="#0e2748"/>
    <path id="Path_75492" data-name="Path 75492" d="M933.492,947.376l.144.136v.094q-.719.884-1.314.883a.587.587,0,0,1-.506-.238.567.567,0,0,1-.09-.171,1.529,1.529,0,0,1-.051-.189,1.745,1.745,0,0,1-.023-.279c0-.124,0-.236,0-.335s0-.254,0-.466,0-.4,0-.569v-.986c-.025-.273-.121-.411-.291-.411a1.155,1.155,0,0,0-.583.268l-.132-.185q.246-.2.43-.328a2.751,2.751,0,0,1,.455-.249,1.246,1.246,0,0,1,.5-.121.452.452,0,0,1,.423.193.688.688,0,0,1,.076.226,3.316,3.316,0,0,1,.023.48c0,.112,0,.282-.012.509s-.012.4-.012.509c0,.09,0,.2,0,.322s0,.224,0,.3,0,.158,0,.254,0,.172.01.228.013.117.023.183a.481.481,0,0,0,.041.15.647.647,0,0,0,.067.1.231.231,0,0,0,.1.07.38.38,0,0,0,.129.021.426.426,0,0,0,.215-.074,1.262,1.262,0,0,0,.193-.139C933.348,947.517,933.412,947.456,933.492,947.376Zm-1.778-3.829a.55.55,0,1,1,.39.162A.533.533,0,0,1,931.714,943.547Z" transform="translate(-853.136 -927.268)" fill="#0e2748"/>
    <path id="Path_75493" data-name="Path 75493" d="M957.331,960.452q0,.9.021,1.832a8.67,8.67,0,0,0,.062,1.113l-.924.267-.1-.058q.061-2.062.062-2.464v-.07c0-.115,0-.2,0-.259s0-.133-.01-.226a1.089,1.089,0,0,0-.028-.211,1.391,1.391,0,0,0-.053-.152.231.231,0,0,0-.09-.115.262.262,0,0,0-.136-.035.359.359,0,0,0-.113.021.863.863,0,0,0-.138.06c-.049.027-.092.048-.127.068s-.078.044-.125.074l-.084.053-.152-.2c.12-.1.227-.177.318-.245s.2-.139.324-.217a1.678,1.678,0,0,1,.37-.176,1.114,1.114,0,0,1,.347-.06.493.493,0,0,1,.416.157.783.783,0,0,1,.142.421l.1.037a3.3,3.3,0,0,1,1.675-.591.892.892,0,0,1,.418.088.843.843,0,0,1,.254.189.759.759,0,0,1,.127.365,4.049,4.049,0,0,1,.047.419c0,.1,0,.286,0,.552v.247c0,.084,0,.228-.014.429s-.014.347-.014.437a2.3,2.3,0,0,0,.021.355.579.579,0,0,0,.043.169.317.317,0,0,0,.072.08.323.323,0,0,0,.238.086,1,1,0,0,0,.563-.217h.1l.095.139a7.637,7.637,0,0,1-.633.587,1.21,1.21,0,0,1-.707.312.639.639,0,0,1-.451-.164.5.5,0,0,1-.09-.111.536.536,0,0,1-.058-.166c-.014-.069-.025-.134-.033-.193a2.285,2.285,0,0,1-.016-.269c0-.12,0-.225,0-.314s0-.225,0-.409,0-.342,0-.476c0-.227,0-.413-.009-.556a3.031,3.031,0,0,0-.064-.487.723.723,0,0,0-.158-.37.676.676,0,0,0-.469-.132A2.615,2.615,0,0,0,957.331,960.452Z" transform="translate(-875.529 -942.52)" fill="#0e2748"/>
    <path id="Path_75494" data-name="Path 75494" d="M1019.9,962.734a6.394,6.394,0,0,1-.127,1.446,1.9,1.9,0,0,1-.488.9,2.339,2.339,0,0,1-.852.573,2.785,2.785,0,0,1-1.012.187,1.823,1.823,0,0,1-.741-.168,1.676,1.676,0,0,1-.606-.432l.5-.665h.176q.477.842,1.043.842a1.08,1.08,0,0,0,.462-.1.894.894,0,0,0,.347-.275,1.787,1.787,0,0,0,.328-.661,5.84,5.84,0,0,0,.083-1.039,5.067,5.067,0,0,1-.86.462,2.2,2.2,0,0,1-.832.162q-1.211,0-1.211-1.959a2.534,2.534,0,0,1,.556-1.726,1.913,1.913,0,0,1,1.521-.638,1.952,1.952,0,0,1,1.113.328l.522-.21.107.033q-.024.444-.028.852C1019.9,960.914,1019.9,961.612,1019.9,962.734Zm-.883.111v-2.181a.593.593,0,0,0-.236-.5.824.824,0,0,0-.5-.178,1.064,1.064,0,0,0-.679.215,1.18,1.18,0,0,0-.39.554,2.413,2.413,0,0,0-.117.786q0,1.774.916,1.774a1.367,1.367,0,0,0,.566-.129A1.135,1.135,0,0,0,1019.013,962.845Z" transform="translate(-930.453 -942.692)" fill="#0e2748"/>
    <path id="Path_75495" data-name="Path 75495" d="M1074.29,938.538v-.168a1.707,1.707,0,0,1,.618.236,1.865,1.865,0,0,1,.469.415,2.6,2.6,0,0,1,.335.564,4.091,4.091,0,0,1,.226.647,6.008,6.008,0,0,1,.132.7q.05.377.065.688c.01.207.016.421.016.643a9.608,9.608,0,0,1-.2,2.119,4.27,4.27,0,0,1-.134.472,2.66,2.66,0,0,1-.2.427,1.555,1.555,0,0,1-.3.378,1.785,1.785,0,0,1-.432.282,2.276,2.276,0,0,1-.593.183v-.136c.128-.046.238-.091.328-.134a2.046,2.046,0,0,0,.279-.162,1.012,1.012,0,0,0,.246-.238,1.343,1.343,0,0,0,.173-.324,4.363,4.363,0,0,0,.185-.649,5.482,5.482,0,0,0,.094-.8q.024-.462.029-.675t0-.772a8.853,8.853,0,0,0-.193-1.98,4.643,4.643,0,0,0-.142-.5,3.59,3.59,0,0,0-.2-.469,1.605,1.605,0,0,0-.331-.439A1.494,1.494,0,0,0,1074.29,938.538Z" transform="translate(-983.15 -923.44)" fill="#0e2748"/>
  </g>
</svg>
