<svg xmlns="http://www.w3.org/2000/svg" width="107" height="52" viewBox="0 0 107 52">
  <g id="healing-logo" transform="translate(-742.018 -1.12)">
    <path id="Path_18197" data-name="Path 18197" d="M693.18,931.153c.753-2.515-.413-4.951-1.724-7.052a28.735,28.735,0,0,0-5.84-6.084c-.163-.139-3.3,3.025-3.59,3.339a21.085,21.085,0,0,0-2.872,3.865q-.24.433-.444.887a6.554,6.554,0,0,0,.913,7.276,8.356,8.356,0,0,0,6.147,2.779C688.854,936.164,692.262,934.22,693.18,931.153Z" transform="translate(71.213 -883.057)" fill="#81f2c2"/>
    <path id="Path_18198" data-name="Path 18198" d="M667.668,725.6c.026.023.892-.763.978-.836a38.549,38.549,0,0,0,3.168-3.022c.16-.175.319-.352.472-.532,2.419-2.812,4.464-6.72,2.447-10.325a8.169,8.169,0,0,0-10.776-2.877,8.413,8.413,0,0,0-.774.471,7.154,7.154,0,0,0-2.907,8.5C661.622,720.577,664.828,723.206,667.668,725.6Z" transform="translate(86.404 -705.925)" fill="#81f2c2"/>
    <path id="Path_18199" data-name="Path 18199" d="M639.525,759.02a11.477,11.477,0,0,1-2.319-7.541,16.083,16.083,0,0,1,2.34-7.264,27.887,27.887,0,0,1,3.334-4.1,66.437,66.437,0,0,1,6.28-4.983c6.087-4.462,12.381-9.075,12.723-16v0a14.546,14.546,0,0,0-4.053-10.728,14.041,14.041,0,0,0-1.528-1.377,11.766,11.766,0,0,1,2.53,7.933,16.261,16.261,0,0,1-1.947,6.663,15.614,15.614,0,0,1-1.308,2.083c-2.038,2.774-5.357,5.187-8.69,7.624-5.993,4.381-12.191,8.912-12.533,15.833A14.279,14.279,0,0,0,639.525,759.02Zm12.411-29.3c.367-.29.725-.583,1.065-.868.216-.181.431-.368.639-.554h0a.349.349,0,0,1,.476.024.327.327,0,0,1-.023.47c-.2.18-.418.366-.656.565-.345.288-.707.585-1.08.88a.341.341,0,0,1-.213.075h0a.344.344,0,0,1-.263-.125.334.334,0,0,1-.078-.212A.36.36,0,0,1,651.936,729.723Zm-3.57,2.689c.535-.39,1.168-.855,1.8-1.327v0a.353.353,0,0,1,.476.062.334.334,0,0,1,.068.2.327.327,0,0,1-.134.267c-.6.454-1.225.909-1.807,1.333a.348.348,0,0,1-.2.066h0a.335.335,0,0,1-.271-.135.323.323,0,0,1-.068-.2A.336.336,0,0,1,648.366,732.412Zm-3.61,2.678c.518-.4,1.075-.815,1.8-1.351a.352.352,0,0,1,.474.066.328.328,0,0,1-.068.465c-.69.51-1.26.936-1.789,1.343a.341.341,0,0,1-.474-.055.326.326,0,0,1-.073-.206A.337.337,0,0,1,644.756,735.09Zm-3.463,2.89c.527-.488,1.082-.975,1.7-1.486a.35.35,0,0,1,.476.04.328.328,0,0,1,.081.211.335.335,0,0,1-.117.254l0,0s-.007.007-.012.008c-.608.505-1.151.978-1.661,1.453a.337.337,0,0,1-.233.091.346.346,0,0,1-.246-.1.331.331,0,0,1-.093-.23A.335.335,0,0,1,641.292,737.981Z" transform="translate(107.68 -705.9)" fill="#10458c"/>
    <g id="Group_11" data-name="Group 11" transform="translate(777.051 14.61)">
      <path id="Path_18162" data-name="Path 18162" d="M1013.963,824.56a1.6,1.6,0,0,0-1.509.989,7.539,7.539,0,0,0,0,5.367,1.6,1.6,0,0,0,1.509.989,1.69,1.69,0,0,0,1.554-1,6.909,6.909,0,0,0,0-5.347A1.69,1.69,0,0,0,1013.963,824.56Z" transform="translate(-984.477 -819.143)" fill="none"/>
      <path id="Path_18163" data-name="Path 18163" d="M1249.07,828.909a1.157,1.157,0,0,0,1.068-.829,6.482,6.482,0,0,0,0-4.271,1.1,1.1,0,0,0-2.137,0,6.484,6.484,0,0,0,0,4.271A1.16,1.16,0,0,0,1249.07,828.909Z" transform="translate(-1181.235 -817.824)" fill="none"/>
      <path id="Path_18164" data-name="Path 18164" d="M852.6,810.351v.705h4.766v-.705h-1.059V799.405h1.059V798.7H852.6v.705h1.06v6.038h-4.414v-6.038h1.06V798.7H845.54v.705H846.6v10.946H845.54v.705h4.766v-.705h-1.06v-4.114h4.414v4.114Z" transform="translate(-845.54 -797.554)" fill="#10458c"/>
      <path id="Path_18165" data-name="Path 18165" d="M940.017,825.733l-.494-.317a3.72,3.72,0,0,1-2.877,1.324,1.89,1.89,0,0,1-1.713-1.006,5.172,5.172,0,0,1-.6-2.665,4.835,4.835,0,0,1,.636-2.647c.424-.659.867-.989,1.333-.989a1.265,1.265,0,0,1,1.042.424,1.873,1.873,0,0,1,.344,1.209,2.559,2.559,0,0,1-2.4,2.428l.035.423a4.492,4.492,0,0,0,1.059.124,3.567,3.567,0,0,0,2.586-.945,2.823,2.823,0,0,0,.979-2.056,2.277,2.277,0,0,0-.882-1.836,3.735,3.735,0,0,0-2.436-.723,5,5,0,0,0-3.7,1.333A4.471,4.471,0,0,0,931.6,823.1a4.815,4.815,0,0,0,1.253,3.346,4.3,4.3,0,0,0,3.354,1.385,4.359,4.359,0,0,0,2.225-.573A4.6,4.6,0,0,0,940.017,825.733Z" transform="translate(-917.388 -814.067)" fill="#10458c"/>
      <path id="Path_18166" data-name="Path 18166" d="M1005.725,826.635a.87.87,0,0,1-.707-.274,1.127,1.127,0,0,1-.23-.75v-6.867h-2.647v.989a2.745,2.745,0,0,0-2.418-1.253,3.97,3.97,0,0,0-3.186,1.325,4.968,4.968,0,0,0-1.138,3.362,5.184,5.184,0,0,0,1.058,3.354,3.734,3.734,0,0,0,3.09,1.314,2.944,2.944,0,0,0,2.7-1.57,1.911,1.911,0,0,0,2.066,1.57,4.228,4.228,0,0,0,2.824-1.288l-.317-.424A1.839,1.839,0,0,1,1005.725,826.635Zm-4.033-.8a1.688,1.688,0,0,1-1.554,1,1.6,1.6,0,0,1-1.51-.989,7.541,7.541,0,0,1,0-5.367,1.6,1.6,0,0,1,1.51-.989,1.692,1.692,0,0,1,1.554,1,6.916,6.916,0,0,1,0,5.351Z" transform="translate(-970.651 -814.067)" fill="#10458c"/>
      <path id="Path_18167" data-name="Path 18167" d="M1069.874,804.327a.871.871,0,0,1-.707-.274,1.127,1.127,0,0,1-.229-.75V792.837a.9.9,0,0,0-.494-.768,2.342,2.342,0,0,0-1.262-.309,4.132,4.132,0,0,0-1.554.317,3.706,3.706,0,0,0-1.3.847l.477.547a2.742,2.742,0,0,1,1.483-.865v10.327q0,2.594,2.172,2.594a4.228,4.228,0,0,0,2.824-1.288l-.317-.424A1.828,1.828,0,0,1,1069.874,804.327Z" transform="translate(-1028.198 -791.76)" fill="#10458c"/>
      <path id="Path_18168" data-name="Path 18168" d="M1113.936,826.529l-.317-.424a1.821,1.821,0,0,1-1.095.512.87.87,0,0,1-.707-.274,1.126,1.126,0,0,1-.23-.75v-5.7q0-1.429-1.66-1.43a4.365,4.365,0,0,0-1.65.317,3.707,3.707,0,0,0-1.3.847l.477.547a2.741,2.741,0,0,1,1.483-.865v5.914q0,2.593,2.172,2.594A4.214,4.214,0,0,0,1113.936,826.529Z" transform="translate(-1063.804 -814.051)" fill="#10458c"/>
      <path id="Path_18169" data-name="Path 18169" d="M1161.043,826.635a.871.871,0,0,1-.707-.274,1.127,1.127,0,0,1-.229-.75v-4.536a2.57,2.57,0,0,0-.7-1.9,2.441,2.441,0,0,0-1.8-.7,5.409,5.409,0,0,0-1.81.256,4,4,0,0,0-1.377.892,4.22,4.22,0,0,0-2.612-.882,4.27,4.27,0,0,0-1.66.317l.248.652a3.545,3.545,0,0,1,1.412-.264v8.12h2.647v-6.3a1.534,1.534,0,0,1,.573-1.235,1.822,1.822,0,0,1,1.166-.477,1.34,1.34,0,0,1,.927.3,1.08,1.08,0,0,1,.335.847v4.537q0,2.594,2.171,2.594a4.229,4.229,0,0,0,2.824-1.288l-.317-.424A1.818,1.818,0,0,1,1161.043,826.635Z" transform="translate(-1099.845 -814.067)" fill="#10458c"/>
      <path id="Path_18170" data-name="Path 18170" d="M1236.693,821.584h-3.265q-1.023,0-1.024-.882a2.685,2.685,0,0,1,.618-1.306,4.525,4.525,0,0,0,2.206.512,4.229,4.229,0,0,0,3-1.069,3.583,3.583,0,0,0-.053-5.3,4.238,4.238,0,0,0,1.166-2.048l-.689-.177a3.529,3.529,0,0,1-1.042,1.8,4.587,4.587,0,0,0-2.383-.618,4.229,4.229,0,0,0-3,1.069,3.463,3.463,0,0,0-1.148,2.639,3.363,3.363,0,0,0,1.43,2.877,4.287,4.287,0,0,0-1.306,2.665q0,2.17,2.594,2.172h3.265a1.127,1.127,0,0,1,.75.229.816.816,0,0,1,.274.662,1.8,1.8,0,0,1-.512,1.05l.425.406a4.185,4.185,0,0,0,1.288-2.771Q1239.287,821.584,1236.693,821.584Zm-2.515-7.519a1.1,1.1,0,0,1,2.137,0,6.486,6.486,0,0,1,0,4.271,1.1,1.1,0,0,1-2.137,0,5.384,5.384,0,0,1-.362-2.135A5.324,5.324,0,0,1,1234.178,814.065Z" transform="translate(-1167.41 -808.082)" fill="#10458c"/>
      <path id="Path_18171" data-name="Path 18171" d="M912.062,904.615a3.059,3.059,0,0,1-1.4-.312,2.27,2.27,0,0,1-.961-.887,2.611,2.611,0,0,1,0-2.586,2.333,2.333,0,0,1,.964-.9,3.014,3.014,0,0,1,1.391-.319,4.138,4.138,0,0,1,1.182.17,6.067,6.067,0,0,1,1.234.553v-1.313a6.032,6.032,0,0,0-1.272-.476A5.239,5.239,0,0,0,912,898.41a4.562,4.562,0,0,0-2.092.471,3.549,3.549,0,0,0-1.458,1.339,3.687,3.687,0,0,0-.53,1.96,3.566,3.566,0,0,0,.515,1.874,3.428,3.428,0,0,0,1.414,1.311,4.459,4.459,0,0,0,2.043.456,5.417,5.417,0,0,0,1.376-.155,6.368,6.368,0,0,0,1.293-.522v-1.313a8.228,8.228,0,0,1-1.362.616A3.86,3.86,0,0,1,912.062,904.615Z" transform="translate(-897.618 -880.797)" fill="#81f2c2"/>
      <path id="Path_18172" data-name="Path 18172" d="M975.964,912.9a2.312,2.312,0,0,0-1.746.7,2.489,2.489,0,0,0-.669,1.8,2.406,2.406,0,0,0,.723,1.83,2.6,2.6,0,0,0,1.866.687,3.472,3.472,0,0,0,2.058-.6v-.946a3.866,3.866,0,0,1-.872.479,2.468,2.468,0,0,1-.877.159,1.654,1.654,0,0,1-1.115-.348,1.494,1.494,0,0,1-.484-1h3.419v-.192a2.7,2.7,0,0,0-.621-1.888A2.153,2.153,0,0,0,975.964,912.9Zm-1.092,1.992a1.4,1.4,0,0,1,.37-.837,1.06,1.06,0,0,1,.773-.284.948.948,0,0,1,.74.3,1.407,1.407,0,0,1,.321.824Z" transform="translate(-952.41 -892.894)" fill="#81f2c2"/>
      <path id="Path_18173" data-name="Path 18173" d="M1030.858,912.9a1.827,1.827,0,0,0-.8.178,2.279,2.279,0,0,0-.722.593v-.677h-1.271v4.831h1.271v-3.212a2.574,2.574,0,0,1,.57-.576.974.974,0,0,1,.553-.173.748.748,0,0,1,.613.274,1.138,1.138,0,0,1,.224.745v2.943h1.267v-3.072a1.92,1.92,0,0,0-.462-1.343A1.591,1.591,0,0,0,1030.858,912.9Z" transform="translate(-997.918 -892.894)" fill="#81f2c2"/>
      <path id="Path_18174" data-name="Path 18174" d="M1081.25,910.7a.724.724,0,0,1-.2-.527v-2.229h1.655v-.961h-1.655V905.7h-.1l-1.919,2.038v.206h.755v2.312a1.6,1.6,0,0,0,.457,1.206,1.75,1.75,0,0,0,1.275.444,3.207,3.207,0,0,0,1.293-.306v-1.019a2.183,2.183,0,0,1-1.024.32A.717.717,0,0,1,1081.25,910.7Z" transform="translate(-1040.47 -886.883)" fill="#81f2c2"/>
      <path id="Path_18175" data-name="Path 18175" d="M1127.074,912.9a2.311,2.311,0,0,0-1.745.7,2.494,2.494,0,0,0-.669,1.8,2.4,2.4,0,0,0,.723,1.83,2.6,2.6,0,0,0,1.866.687,3.469,3.469,0,0,0,2.058-.6v-.946a3.911,3.911,0,0,1-.872.479,2.47,2.47,0,0,1-.877.159,1.653,1.653,0,0,1-1.115-.348,1.494,1.494,0,0,1-.484-1h3.419v-.192a2.7,2.7,0,0,0-.621-1.888A2.153,2.153,0,0,0,1127.074,912.9Zm-1.092,1.992a1.4,1.4,0,0,1,.37-.837,1.059,1.059,0,0,1,.773-.284.948.948,0,0,1,.74.3,1.409,1.409,0,0,1,.32.824Z" transform="translate(-1078.565 -892.894)" fill="#81f2c2"/>
      <path id="Path_18176" data-name="Path 18176" d="M1181.923,912.9a1.139,1.139,0,0,0-.771.312,3.34,3.34,0,0,0-.7,1.011h-.022v-1.23h-1.271v4.831h1.271v-2.2a1.659,1.659,0,0,1,.174-.723,1.557,1.557,0,0,1,.461-.581.948.948,0,0,1,.581-.22,1.688,1.688,0,0,1,.89.413l.456-1.111a2.792,2.792,0,0,0-.572-.383A1.174,1.174,0,0,0,1181.923,912.9Z" transform="translate(-1124.065 -892.894)" fill="#81f2c2"/>
      <path id="Path_18177" data-name="Path 18177" d="M1118.089,796.217a4.738,4.738,0,0,0-.516.479,2.99,2.99,0,0,0-.411.555c-.023.041-.045.084-.065.127a.941.941,0,0,0,.13,1.044,1.2,1.2,0,0,0,.882.4,1.121,1.121,0,0,0,1.063-.718,1.26,1.26,0,0,0-.247-1.012A4.131,4.131,0,0,0,1118.089,796.217Z" transform="translate(-1072.168 -795.48)" fill="#10458c"/>
    </g>
  </g>
</svg>
