<svg xmlns="http://www.w3.org/2000/svg" width="166" height="71" viewBox="0 0 166 71">
  <g id="Thyroid_Gland_SVG__1_1_1_" data-name="Thyroid Gland SVG_ (1) (1) (1)" transform="translate(0 0.001)">
    <g id="Group_150" data-name="Group 150" transform="translate(82.077 0.193)">
      <g id="Group_149" data-name="Group 149">
        <g id="Group_148" data-name="Group 148" transform="translate(0.013 45.738)">
          <path id="Path_18582" data-name="Path 18582" d="M65.982,37.26c-.334-.475-.424-.475-.552-.475a.339.339,0,0,0-.347.308c0,.18.141.283.347.283a1.177,1.177,0,0,1,1.207,1.143,1.216,1.216,0,0,1-1.259,1.233c-.3,0-.745-.026-1.259-.861l.719-.462c.27.411.424.437.539.437.154,0,.347-.116.334-.283a.371.371,0,0,0-.334-.347,1.128,1.128,0,0,1-1.246-1.169,1.223,1.223,0,0,1,1.246-1.207c.36,0,.783.026,1.3.886l-.694.5Z" transform="translate(-64.12 -35.732)" fill="#fdcf0a"/>
          <path id="Path_18583" data-name="Path 18583" d="M73.21,39.686V35.91h2.415v.925h-1.49v.514h1.49v.912h-1.49v.514h1.49V39.7c-.488-.013-2.415-.013-2.415-.013Z" transform="translate(-61.535 -35.717)" fill="#fdcf0a"/>
          <path id="Path_18584" data-name="Path 18584" d="M84.037,37.26c-.334-.475-.424-.475-.552-.475a.339.339,0,0,0-.347.308c0,.18.141.283.347.283a1.19,1.19,0,1,1-.026,2.376c-.3,0-.745-.026-1.259-.861l.719-.462c.27.411.411.437.539.437.154,0,.347-.116.334-.283a.371.371,0,0,0-.334-.347,1.128,1.128,0,0,1-1.246-1.169,1.223,1.223,0,0,1,1.246-1.207c.36,0,.783.026,1.3.886l-.719.5Z" transform="translate(-58.978 -35.732)" fill="#fdcf0a"/>
          <path id="Path_18585" data-name="Path 18585" d="M93.087,37.26c-.334-.475-.424-.475-.552-.475a.339.339,0,0,0-.347.308c0,.18.141.283.347.283a1.19,1.19,0,1,1-.026,2.376c-.3,0-.745-.026-1.259-.861l.719-.462c.27.411.411.437.539.437.154,0,.347-.116.334-.283a.371.371,0,0,0-.334-.347,1.128,1.128,0,0,1-1.246-1.169,1.223,1.223,0,0,1,1.246-1.207c.36,0,.783.026,1.3.886l-.719.5Z" transform="translate(-56.404 -35.732)" fill="#fdcf0a"/>
          <path id="Path_18586" data-name="Path 18586" d="M100.91,39.7V35.92h.925V39.7Z" transform="translate(-53.657 -35.714)" fill="#fdcf0a"/>
          <path id="Path_18587" data-name="Path 18587" d="M110.789,39.819a2.028,2.028,0,0,1-2.029-2,2.017,2.017,0,0,1,4.033,0A2.032,2.032,0,0,1,110.789,39.819Zm0-3.006a1.028,1.028,0,1,0,0,2.055,1,1,0,0,0,1.015-1.028A1.028,1.028,0,0,0,110.789,36.813Z" transform="translate(-51.424 -35.734)" fill="#fdcf0a"/>
          <path id="Path_18588" data-name="Path 18588" d="M118.835,37.661v2.081h-.925V35.76l2.774,2.273s-.013-.128-.013-.18V35.978h.925V39.96l-2.749-2.3Z" transform="translate(-48.822 -35.76)" fill="#fdcf0a"/>
          <path id="Path_18589" data-name="Path 18589" d="M129.227,37.26c-.334-.475-.424-.475-.552-.475a.339.339,0,0,0-.347.308c0,.18.141.283.347.283a1.19,1.19,0,1,1-.026,2.376c-.3,0-.745-.026-1.259-.861l.719-.462c.27.411.411.437.539.437.154,0,.347-.116.334-.283a.371.371,0,0,0-.334-.347,1.128,1.128,0,0,1-1.246-1.169,1.223,1.223,0,0,1,1.246-1.207c.36,0,.783.026,1.3.886l-.719.5Z" transform="translate(-46.126 -35.732)" fill="#fdcf0a"/>
        </g>
        <path id="Path_18590" data-name="Path 18590" d="M88.631.15V19.789H94.54v1.439H84.47V.15Z" transform="translate(-58.32 -0.15)"/>
        <path id="Path_18591" data-name="Path 18591" d="M97.99,3.62H94.317L91.08,14.576h9.967L97.99,3.62Zm-4.971,9.8,1.824-6.371,1.7,6.371Z" transform="translate(-56.44 0.837)"/>
        <path id="Path_18592" data-name="Path 18592" d="M81.68,3.62H78.007L74.77,14.576h9.967L81.68,3.62Zm-4.958,9.8,1.824-6.371,1.7,6.371Z" transform="translate(-61.078 0.837)"/>
        <path id="Path_18593" data-name="Path 18593" d="M64.11,19.877V5.53h6.4q4.932,0,4.932,3.519c0,1.67-1,2.736-2.98,3.211,2.4.475,3.583,1.747,3.583,3.815,0,2.543-1.618,3.828-4.829,3.828h-7.1Zm4.187-8.1h1.284c1.182,0,1.785-.873,1.785-2.62,0-1.631-.629-2.428-1.888-2.428H68.3Zm0,6.923h1.182c1.554,0,2.338-.886,2.338-2.672,0-2.042-.8-3.07-2.415-3.07H68.284V18.7h0Z" transform="translate(-64.11 1.38)"/>
        <path id="Path_18594" data-name="Path 18594" d="M111.853,5.53V19.89h-3.185l-6-9.094V19.89h-1.4V5.53h2.646l6.55,9.813V5.53Z" transform="translate(-53.542 1.38)"/>
        <path id="Path_18595" data-name="Path 18595" d="M121.12,14.17l1.785.462c.026.372.039.681.039.938a4.114,4.114,0,0,1-1.516,3.352,6.2,6.2,0,0,1-4.072,1.259c-4.251,0-6.4-2.4-6.4-7.193,0-2.646.3-3.738,1.875-5.536A6.162,6.162,0,0,1,117.69,5.32c3.108,0,4.662,1.5,4.662,4.483l-1.785.822c.026-.424.026-.745.026-.989,0-2.132-.848-3.185-2.543-3.185-1.8,0-2.7,2.261-2.7,6.756q0,5.8,3.006,5.793a2.608,2.608,0,0,0,2.068-.989,3.713,3.713,0,0,0,.822-2.466q-.039-.443-.154-1.387Z" transform="translate(-50.786 1.32)"/>
        <path id="Path_18596" data-name="Path 18596" d="M130.722,5.53V6.969h-5.15v4.354H129.9v1.439h-4.328v5.69H131.6V19.89H121.41V5.53h9.325Z" transform="translate(-47.814 1.38)"/>
        <path id="Path_18597" data-name="Path 18597" d="M69.2,23.05v.783H66.371v2.594h2.4v.783h-2.4v3.622H64.11V23.05H69.2Z" transform="translate(-64.11 6.363)"/>
        <path id="Path_18598" data-name="Path 18598" d="M71.909,22.953c2.273,0,3.391,1.336,3.391,4.02s-1.156,4.02-3.455,4.02-3.455-1.374-3.455-4.11c0-2.646,1.169-3.943,3.506-3.943Zm-.051.617a.857.857,0,0,0-.861.694,10.821,10.821,0,0,0-.231,2.7,10.284,10.284,0,0,0,.231,2.7.845.845,0,0,0,.861.694.88.88,0,0,0,.873-.694,10.217,10.217,0,0,0,.231-2.7,10.284,10.284,0,0,0-.231-2.7A.871.871,0,0,0,71.858,23.569Z" transform="translate(-62.893 6.332)"/>
        <path id="Path_18599" data-name="Path 18599" d="M74.56,30.823V23.04H77.9a3.475,3.475,0,0,1,2.081.552,1.71,1.71,0,0,1,.783,1.464c0,.938-.552,1.554-1.67,1.837a2.416,2.416,0,0,1,1.117.694,3.563,3.563,0,0,1,.347,1.49,3.543,3.543,0,0,0,.437,1.721H78.542a3.459,3.459,0,0,1-.231-1.361v-.462l-.026-.591c0-.9-.36-1.336-1.079-1.336h-.385v3.738H74.56Zm2.273-4.38H77.3c.861,0,1.284-.437,1.284-1.336s-.424-1.336-1.284-1.336h-.462v2.684Z" transform="translate(-61.138 6.36)"/>
        <path id="Path_18600" data-name="Path 18600" d="M85.79,26.119v5.407H82.63V20.66h3.16v4.367h2.569V20.66h3.16V31.526h-3.16V26.119Z" transform="translate(-58.843 5.683)"/>
        <path id="Path_18601" data-name="Path 18601" d="M98.021,20.676v1.079H94.13v3.288h3.262v1.079H94.13v4.316h4.547v1.079H90.97V20.65h7.051Z" transform="translate(-56.471 5.68)"/>
        <path id="Path_18602" data-name="Path 18602" d="M103.14,20.67l3.031,10.866H103l-.642-2.35H99.094l-.681,2.35H97.18l3.211-10.866h2.749ZM99.4,28.081h2.672l-1.284-4.8Z" transform="translate(-54.705 5.686)"/>
        <path id="Path_18603" data-name="Path 18603" d="M107.757,20.673v9.774h4.47v1.079H104.61V20.66h3.16Z" transform="translate(-52.592 5.683)"/>
        <path id="Path_18604" data-name="Path 18604" d="M114.21,20.67V31.536h-3.16V20.67h3.16Z" transform="translate(-50.76 5.686)"/>
        <path id="Path_18605" data-name="Path 18605" d="M122.932,20.67V31.536h-2.415l-4.534-6.884v6.884H114.93V20.67h2l4.958,7.424V20.67h1.053Z" transform="translate(-49.657 5.686)"/>
        <path id="Path_18606" data-name="Path 18606" d="M126.914,25.706h4.47v5.87h-1l-.347-.745a4.643,4.643,0,0,1-2.774.925,4.885,4.885,0,0,1-3.738-1.439,5.8,5.8,0,0,1-1.323-4.072,5.9,5.9,0,0,1,1.413-4.136,4.715,4.715,0,0,1,3.7-1.58,3.42,3.42,0,0,1,3.648,3.07l-1.49.668v-.257l-.026-.591c-.1-1.284-.681-1.914-1.772-1.914a1.634,1.634,0,0,0-1.631,1.015,10.867,10.867,0,0,0-.437,3.8,11.158,11.158,0,0,0,.36,3.519,1.312,1.312,0,0,0,1.336.925c.783,0,1.169-.424,1.169-1.3V26.8H126.9v-1.1h0Z" transform="translate(-47.589 5.646)"/>
        <rect id="Rectangle_37" data-name="Rectangle 37" width="83.794" height="0.295" transform="translate(0 4.47)"/>
        <rect id="Rectangle_38" data-name="Rectangle 38" width="83.794" height="0.295" transform="translate(0 23.903)"/>
        <rect id="Rectangle_39" data-name="Rectangle 39" width="83.807" height="0.295" transform="translate(0 40.716)"/>
      </g>
      <rect id="Rectangle_40" data-name="Rectangle 40" width="83.807" height="0.295" transform="translate(0.116 54.189)"/>
    </g>
    <g id="Group_151" data-name="Group 151" transform="translate(83.747 58.014)">
      <path id="Path_18607" data-name="Path 18607" d="M67.013,48.117a.865.865,0,0,0,.617-.257.815.815,0,0,0,.257-.617.887.887,0,0,0-.257-.617.815.815,0,0,0-.617-.257.865.865,0,0,0-.617.257.815.815,0,0,0-.257.617.887.887,0,0,0,.257.617A.865.865,0,0,0,67.013,48.117Z" transform="translate(-65.202 -45.291)" fill="#414141"/>
      <path id="Path_18608" data-name="Path 18608" d="M68.533,48.117a.877.877,0,0,0,.886-.873.887.887,0,0,0-.257-.617.824.824,0,0,0-.629-.257.865.865,0,0,0-.617.257.815.815,0,0,0-.257.617.887.887,0,0,0,.257.617A.815.815,0,0,0,68.533,48.117Z" transform="translate(-64.77 -45.291)" fill="#414141"/>
      <path id="Path_18609" data-name="Path 18609" d="M72.653,54.28a.877.877,0,0,0-.873.873.887.887,0,0,0,.257.617.873.873,0,0,0,1.49-.617.887.887,0,0,0-.257-.617A.815.815,0,0,0,72.653,54.28Z" transform="translate(-63.598 -43.041)" fill="#414141"/>
      <path id="Path_18610" data-name="Path 18610" d="M74.173,54.28a.877.877,0,0,0-.873.873.887.887,0,0,0,.257.617.88.88,0,0,0,1.5-.617.877.877,0,0,0-.886-.873Z" transform="translate(-63.166 -43.041)" fill="#414141"/>
      <path id="Path_18611" data-name="Path 18611" d="M79.623,47.277a.877.877,0,1,0-.617-.257A.815.815,0,0,0,79.623,47.277Z" transform="translate(-61.616 -45.53)" fill="#414141"/>
      <path id="Path_18612" data-name="Path 18612" d="M81.163,47.277a.877.877,0,1,0-.617-.257A.8.8,0,0,0,81.163,47.277Z" transform="translate(-61.178 -45.53)" fill="#414141"/>
      <path id="Path_18613" data-name="Path 18613" d="M86.641,47.32a5.727,5.727,0,0,0-2.594.514,3.668,3.668,0,0,0-1.567,1.374,3.312,3.312,0,0,0-.527,1.824,2.329,2.329,0,0,0,.681,1.67,2.221,2.221,0,0,0,1.67.694,2.28,2.28,0,0,0,.783-.128.887.887,0,0,1-.167.257.873.873,0,0,1-.629.257H78.909a.877.877,0,0,1-.873-.873V49.182a1.406,1.406,0,0,0-1.053.437,1.455,1.455,0,0,0-.437,1.053v2.209a.877.877,0,0,1-.873.873H71.447a.865.865,0,0,1-.617-.257.815.815,0,0,1-.257-.617V48.6a6.3,6.3,0,0,0-2.851.565A4.142,4.142,0,0,0,66,50.672a3.789,3.789,0,0,0-.591,2,2.474,2.474,0,0,0,.758,1.811,2.446,2.446,0,0,0,1.811.758h1.5a1.406,1.406,0,0,0-.437-1.053,1.444,1.444,0,0,0-1.053-.424,1.146,1.146,0,0,1-.771-.308,1.036,1.036,0,0,1-.308-.771c0-1.169.719-1.965,2.158-2.4v2.594a2.368,2.368,0,0,0,2.376,2.363h4.226a2.282,2.282,0,0,0,1.618-.642,2.358,2.358,0,0,0,1.593.642h5.407a2.319,2.319,0,0,0,1.683-.694,2.258,2.258,0,0,0,.681-1.67V47.32Zm-1.5,3.725a.865.865,0,0,1-.257.617.844.844,0,0,1-.617.257.865.865,0,0,1-.617-.257.844.844,0,0,1-.257-.617,2,2,0,0,1,.462-1.233,2.16,2.16,0,0,1,1.272-.8v2.029h.013Z" transform="translate(-65.41 -45.021)" fill="#414141"/>
      <path id="Path_18614" data-name="Path 18614" d="M84.342,50.28v3.1a2.451,2.451,0,0,1-1.528,2.312,1.8,1.8,0,0,0-1.143,1.67h0a4.015,4.015,0,0,0,2.967-1.13,3.811,3.811,0,0,0,1.194-2.851V48.79a1.491,1.491,0,0,0-1.49,1.477Z" transform="translate(-60.786 -44.603)" fill="#414141"/>
      <path id="Path_18615" data-name="Path 18615" d="M97.019,47.177v6.217a.877.877,0,0,1-.886.873H92.844a.877.877,0,0,1-.886-.886,3.282,3.282,0,0,0-.527-1.824,3.943,3.943,0,0,0-1.58-1.361,5.628,5.628,0,0,0-2.594-.527v.462a1.174,1.174,0,0,0,.257.719,1.049,1.049,0,0,0,.668.411l.565.128a2.138,2.138,0,0,1,1.284.783,1.992,1.992,0,0,1,.437,1.246.954.954,0,0,1-.257.6.8.8,0,0,1-.6.257H87.27a1.406,1.406,0,0,0-1.053.437,1.477,1.477,0,0,0-.437,1.053h3.828a2.228,2.228,0,0,0,1.554-.6,2.175,2.175,0,0,0,1.541.6h3.417a2.319,2.319,0,0,0,1.683-.694,2.258,2.258,0,0,0,.681-1.67V45.7a1.444,1.444,0,0,0-1.053.424,1.486,1.486,0,0,0-.411,1.053Z" transform="translate(-59.617 -45.482)" fill="#414141"/>
      <path id="Path_18616" data-name="Path 18616" d="M96.95,47.19v8.567A1.406,1.406,0,0,0,98,55.32a1.444,1.444,0,0,0,.424-1.053V45.7a1.444,1.444,0,0,0-1.053.424A1.494,1.494,0,0,0,96.95,47.19Z" transform="translate(-56.44 -45.482)" fill="#414141"/>
      <path id="Path_18617" data-name="Path 18617" d="M104.693,48.117a.877.877,0,0,0,.886-.873.887.887,0,0,0-.257-.617.88.88,0,0,0-1.5.617.887.887,0,0,0,.257.617A.823.823,0,0,0,104.693,48.117Z" transform="translate(-54.486 -45.291)" fill="#414141"/>
      <path id="Path_18618" data-name="Path 18618" d="M103.173,48.117a.877.877,0,0,0,.873-.873.887.887,0,0,0-.257-.617.873.873,0,0,0-1.49.617.887.887,0,0,0,.257.617A.823.823,0,0,0,103.173,48.117Z" transform="translate(-54.918 -45.291)" fill="#414141"/>
      <path id="Path_18619" data-name="Path 18619" d="M102.131,50.418a3.789,3.789,0,0,0-.591,2,2.474,2.474,0,0,0,.758,1.811,2.446,2.446,0,0,0,1.811.758,2.545,2.545,0,0,0,1.824-.758,2.5,2.5,0,0,0,.758-1.811V48.35a6.3,6.3,0,0,0-2.851.565,4.1,4.1,0,0,0-1.708,1.5Zm3.07,2.017a1.088,1.088,0,0,1-.308.771,1.017,1.017,0,0,1-.771.308,1.146,1.146,0,0,1-.771-.308,1.036,1.036,0,0,1-.308-.771c0-1.169.719-1.965,2.158-2.4v2.4h.013Z" transform="translate(-55.135 -44.728)" fill="#414141"/>
      <path id="Path_18620" data-name="Path 18620" d="M117.533,48.647a.865.865,0,0,0,.617-.257.844.844,0,0,0,.257-.617.865.865,0,0,0-.257-.617.815.815,0,0,0-.617-.257.872.872,0,0,0-.617,1.49A.8.8,0,0,0,117.533,48.647Z" transform="translate(-50.834 -45.14)" fill="#414141"/>
      <path id="Path_18621" data-name="Path 18621" d="M129.927,47.177v6.217a.877.877,0,0,1-.886.873h-5.484a2.84,2.84,0,0,0,.681-1.541,2.472,2.472,0,0,0-.617-1.914,3.6,3.6,0,0,0-2.171-1.117,4.516,4.516,0,0,0-4.662,2.209c-.039.154.128.488.514,1a9.014,9.014,0,0,0,1.284,1.361h-5.112a.877.877,0,0,1-.886-.886,3.282,3.282,0,0,0-.527-1.824,3.943,3.943,0,0,0-1.58-1.361,5.628,5.628,0,0,0-2.594-.527v.462a1.174,1.174,0,0,0,.257.719,1.049,1.049,0,0,0,.668.411l.565.128a2.138,2.138,0,0,1,1.284.783,1.992,1.992,0,0,1,.437,1.246.954.954,0,0,1-.257.6.8.8,0,0,1-.6.257H107.9a1.406,1.406,0,0,0-1.053.437,1.477,1.477,0,0,0-.437,1.053h3.828a2.228,2.228,0,0,0,1.554-.6,2.175,2.175,0,0,0,1.541.6h6.525a5.092,5.092,0,0,0,1.336-.18,5.519,5.519,0,0,0,1.361.18H129a2.319,2.319,0,0,0,1.683-.694,2.258,2.258,0,0,0,.681-1.67V45.7a1.444,1.444,0,0,0-1.053.424,1.532,1.532,0,0,0-.4,1.053Zm-7.167,5.369a1.336,1.336,0,0,1-.848,1.053,2.331,2.331,0,0,1-1.207.231,1.556,1.556,0,0,1-.437-.206,5.771,5.771,0,0,1-.912-.719,6.638,6.638,0,0,1-.8-.873,3.238,3.238,0,0,1,2.607-.873h.1a2.073,2.073,0,0,1,1.169.539,1.056,1.056,0,0,1,.334.822Z" transform="translate(-53.75 -45.482)" fill="#414141"/>
      <path id="Path_18622" data-name="Path 18622" d="M127.587,46.117a1.455,1.455,0,0,0-.437,1.053v8.567A1.406,1.406,0,0,0,128.2,55.3a1.444,1.444,0,0,0,.424-1.053V45.68A1.525,1.525,0,0,0,127.587,46.117Z" transform="translate(-47.851 -45.487)" fill="#414141"/>
    </g>
    <g id="Group_154" data-name="Group 154" transform="translate(0 -0.001)">
      <g id="Group_152" data-name="Group 152">
        <path id="Path_18623" data-name="Path 18623" d="M48.66,14.831c-.6,1.289-1.207,2.629-1.875,3.9-.424.842-.912,1.748-1.439,2.59a13.534,13.534,0,0,1-1.284,1.71l-.18.23a5.786,5.786,0,0,1-2.338,1.786,1.6,1.6,0,0,1-1.785-.6,3.381,3.381,0,0,0,1.182-2.578l.231-4.377a3.546,3.546,0,0,0-3.558-3.535h-.848A3.546,3.546,0,0,0,33.209,17.5v4.377a3.457,3.457,0,0,0,1.117,2.514c-.141.128-.283.255-.411.383-.167.153-.681.612-1.657.026a7.851,7.851,0,0,1-1.875-1.863,27.76,27.76,0,0,1-2.53-4.211c-.655-1.276-1.272-2.6-1.875-3.9l-.039-.1a57.98,57.98,0,0,0-3.545-6.865C18.682,1.905,14.752-.711,11.078.272,6.866,1.382,3.6,7.06,1.343,17.1A44.159,44.159,0,0,0,.148,29.824a20.6,20.6,0,0,0,1.374,6.482c.719,1.735,2.389,2.5,3.866,3.165,2.081.944,2.851,1.429,2.723,2.9a6.564,6.564,0,0,1-1.657,2.948c-1.079,1.365-2.312,2.9-1.939,4.772,1.952,9.978,9.389,20.442,18.47,20.671H23.2a10.318,10.318,0,0,0,7.308-3.369,12.225,12.225,0,0,0,2.415-3.751c.1-.217.206-.434.308-.664v.459c0,.268,0,.549-.013.842a19.59,19.59,0,0,0,.051,2.3,3.539,3.539,0,0,0,3.506,2.973h.848A3.549,3.549,0,0,0,41.185,66l-.026-3.279c.09.2.167.383.257.549A14.73,14.73,0,0,0,44.2,67.39a10.273,10.273,0,0,0,7.308,3.369h.218c9.081-.23,16.53-10.693,18.47-20.671.372-1.888-.861-3.432-1.939-4.8A6.508,6.508,0,0,1,66.6,42.342c-.128-1.455.655-1.952,2.723-2.9,1.464-.664,3.16-1.429,3.866-3.165A20.96,20.96,0,0,0,74.566,29.8a44.579,44.579,0,0,0-1.194-12.722C71.111,7.022,67.836,1.356,63.636.234c-3.686-.983-7.6,1.646-11.341,7.605A62.152,62.152,0,0,0,48.75,14.7l-.051.115ZM73.449,29.76A19.589,19.589,0,0,1,72.165,35.9c-.552,1.327-1.9,1.94-3.314,2.59-1.824.842-3.558,1.621-3.352,3.968a7.077,7.077,0,0,0,1.9,3.522c1.028,1.289,2,2.514,1.721,3.917-1.875,9.57-8.9,19.574-17.442,19.791H51.5a9.146,9.146,0,0,1-6.525-3.05A14.094,14.094,0,0,1,42.392,62.8c-.206-.421-.411-.931-.629-1.455s-.424-1.034-.642-1.506l-1.028-2.195v3.8c0,.128-.013.2-.013.281s-.013.179-.013.345L40.106,66a2.472,2.472,0,0,1-2.479,2.463h-.848a2.474,2.474,0,0,1-2.44-2.029,13.372,13.372,0,0,1-.051-2.156c0-.281.013-.561.013-.855V57.565l-1.554,3.9c-.334.625-.6,1.187-.861,1.71a11.612,11.612,0,0,1-2.209,3.458,9.247,9.247,0,0,1-6.525,3.05h-.18C14.443,69.47,7.4,59.453,5.53,49.9c-.27-1.4.694-2.629,1.721-3.917a7.157,7.157,0,0,0,1.888-3.522c.206-2.348-1.528-3.139-3.352-3.968-1.413-.638-2.749-1.25-3.314-2.59A19.589,19.589,0,0,1,1.188,29.76,42.927,42.927,0,0,1,2.37,17.345C4.541,7.7,7.559,2.313,11.348,1.305,14.533.45,18.027,2.926,21.495,8.438a60.954,60.954,0,0,1,3.468,6.75l.039.1c.6,1.3,1.233,2.641,1.888,3.943A27.485,27.485,0,0,0,29.535,23.6a8.7,8.7,0,0,0,2.158,2.118,2.323,2.323,0,0,0,2.941-.14c.3-.268.6-.549.886-.842L36,24.274l-.539-.37A2.439,2.439,0,0,1,34.3,21.875V17.511a2.472,2.472,0,0,1,2.479-2.463h.848a2.467,2.467,0,0,1,2.479,2.437q-.231,4.364-.231,4.377a2.488,2.488,0,0,1-.3,1.174,3.383,3.383,0,0,1-.771.842l-.411.37.218.383a2.784,2.784,0,0,0,3.327,1.442,7.065,7.065,0,0,0,2.826-2.131l.18-.217a16.335,16.335,0,0,0,1.374-1.837c.539-.88,1.028-1.8,1.464-2.667.668-1.289,1.284-2.641,1.888-3.943l.039-.1a62.1,62.1,0,0,1,3.468-6.75C56.636,2.913,60.143.438,63.328,1.293,67.1,2.3,70.135,7.7,72.293,17.332a43.926,43.926,0,0,1,1.182,12.416Z" transform="translate(0.018 0.01)" fill="#fdcf0a"/>
        <path id="Path_18624" data-name="Path 18624" d="M51.492,70.845a10.3,10.3,0,0,1-7.36-3.407,15.917,15.917,0,0,1-2.8-4.134,1.923,1.923,0,0,0-.116-.23L41.242,66a3.62,3.62,0,0,1-3.635,3.611h-.848a3.622,3.622,0,0,1-3.583-3.037,15.453,15.453,0,0,1-.051-2.31c0-.281.013-.549.013-.817v-.128c-.051.1-.1.217-.141.306l-.026.077a12.687,12.687,0,0,1-2.428,3.777,10.357,10.357,0,0,1-7.36,3.407h-.218c-9.119-.23-16.582-10.719-18.534-20.723-.372-1.914.861-3.471,1.952-4.836a6.366,6.366,0,0,0,1.644-2.909c.116-1.416-.642-1.9-2.684-2.82-1.49-.676-3.172-1.429-3.892-3.2A20.686,20.686,0,0,1,.077,29.885,44.378,44.378,0,0,1,1.284,17.137C3.558,7.057,6.846,1.366,11.084.23c3.725-1,7.668,1.646,11.418,7.631a61.212,61.212,0,0,1,3.545,6.878l.039.1c.552,1.225,1.194,2.6,1.875,3.879a27.032,27.032,0,0,0,2.53,4.2,7.371,7.371,0,0,0,1.837,1.837c.912.561,1.4.128,1.554-.013.128-.115.244-.23.36-.332a3.369,3.369,0,0,1-1.079-2.5V17.495A3.628,3.628,0,0,1,36.8,13.883h.848a3.628,3.628,0,0,1,3.635,3.611l-.231,4.377a3.589,3.589,0,0,1-.437,1.7,3.961,3.961,0,0,1-.694.868,1.572,1.572,0,0,0,1.67.523,5.748,5.748,0,0,0,2.3-1.774l.18-.23a15.528,15.528,0,0,0,1.284-1.7c.527-.855,1-1.748,1.426-2.59.668-1.289,1.3-2.667,1.875-3.879h0l.039-.1A59.147,59.147,0,0,1,52.237,7.81C55.961,1.85,59.917-.791,63.616.2,67.855,1.34,71.156,7.018,73.4,17.1a44.76,44.76,0,0,1,1.207,12.748,20.681,20.681,0,0,1-1.374,6.495c-.732,1.761-2.415,2.527-3.892,3.2-2.042.919-2.813,1.416-2.684,2.82A6.552,6.552,0,0,0,68.3,45.274c1.1,1.378,2.325,2.922,1.952,4.849-1.952,10-9.428,20.506-18.534,20.723h-.244ZM41.075,62.334l.141.345c.09.2.167.383.257.549a15.3,15.3,0,0,0,2.774,4.109,10.178,10.178,0,0,0,7.244,3.343h.218c9.029-.23,16.453-10.668,18.393-20.608.36-1.863-.861-3.369-1.927-4.721a6.559,6.559,0,0,1-1.683-2.986c-.128-1.506.655-2.016,2.774-2.973,1.451-.664,3.121-1.416,3.828-3.114a20.445,20.445,0,0,0,1.361-6.457,44.449,44.449,0,0,0-1.194-12.7C71,7.095,67.752,1.442,63.578.345,59.93-.638,56.026,1.991,52.314,7.912a57.774,57.774,0,0,0-3.519,6.865l-.039.115c-.552,1.225-1.194,2.6-1.875,3.9-.437.855-.912,1.748-1.439,2.6a13.644,13.644,0,0,1-1.3,1.71l-.18.23A5.838,5.838,0,0,1,41.6,25.151a1.706,1.706,0,0,1-1.875-.625l-.039-.051.051-.038A3.25,3.25,0,0,0,40.9,21.922l.231-4.377a3.48,3.48,0,0,0-3.481-3.458H36.8a3.472,3.472,0,0,0-3.481,3.458v4.377a3.287,3.287,0,0,0,1.1,2.45l.051.051-.051.051L34,24.857a1.311,1.311,0,0,1-1.747.026,7.728,7.728,0,0,1-1.888-1.876,28.394,28.394,0,0,1-2.543-4.224c-.668-1.289-1.3-2.68-1.875-3.9l-.039-.1a65.434,65.434,0,0,0-3.519-6.865C18.637,2,14.745-.6,11.1.357,6.91,1.48,3.66,7.12,1.4,17.15a43.955,43.955,0,0,0-1.194,12.7A20.079,20.079,0,0,0,1.58,36.3c.719,1.7,2.363,2.45,3.828,3.114,2.106.97,2.9,1.455,2.774,2.973A6.559,6.559,0,0,1,6.5,45.376C5.433,46.728,4.213,48.234,4.572,50.1c1.939,9.953,9.363,20.391,18.393,20.608h.218a10.178,10.178,0,0,0,7.244-3.343,12.472,12.472,0,0,0,2.4-3.726l.026-.077c.09-.2.18-.4.283-.6l.141-.281v.766c0,.268,0,.549-.013.817a19.652,19.652,0,0,0,.051,2.3,3.462,3.462,0,0,0,3.442,2.909h.848A3.475,3.475,0,0,0,41.088,66V62.321Zm10.417,7.426A9.321,9.321,0,0,1,44.915,66.7a14.493,14.493,0,0,1-2.594-3.854c-.206-.421-.411-.919-.629-1.455h0c-.218-.523-.424-1.046-.642-1.518l-.886-1.9v3.471c0,.128-.013.2-.013.281a2.762,2.762,0,0,0-.013.345L40.176,66a2.546,2.546,0,0,1-2.556,2.539h-.848a2.546,2.546,0,0,1-2.517-2.08,13.5,13.5,0,0,1-.051-2.169c0-.281.013-.561.013-.855V57.97l-1.4,3.535c-.347.638-.617,1.2-.861,1.71A11.517,11.517,0,0,1,29.734,66.7a9.321,9.321,0,0,1-6.576,3.062h-.18C14.4,69.544,7.347,59.5,5.471,49.918c-.283-1.429.694-2.667,1.747-3.968a6.969,6.969,0,0,0,1.875-3.484c.206-2.3-1.516-3.075-3.314-3.9-1.426-.651-2.787-1.263-3.352-2.629a19.741,19.741,0,0,1-1.3-6.163A43.012,43.012,0,0,1,2.312,17.341c2.158-9.66,5.189-15.083,9-16.091C14.526.4,18.071,2.871,21.539,8.409a57.838,57.838,0,0,1,3.468,6.75l.039.1c.6,1.289,1.207,2.641,1.888,3.93a29.9,29.9,0,0,0,2.62,4.351A8.137,8.137,0,0,0,31.7,25.636a2.262,2.262,0,0,0,2.851-.128c.3-.268.6-.549.886-.842l.4-.4-.475-.306a2.5,2.5,0,0,1-1.182-2.08V17.52a2.546,2.546,0,0,1,2.556-2.539h.848a2.533,2.533,0,0,1,2.556,2.514c-.218,4.2-.231,4.364-.231,4.377A2.706,2.706,0,0,1,39.6,23.1a3.323,3.323,0,0,1-.783.868l-.372.332.18.332a2.732,2.732,0,0,0,3.237,1.416,7.112,7.112,0,0,0,2.8-2.118l.18-.23A17.152,17.152,0,0,0,46.2,21.884c.539-.893,1.028-1.8,1.464-2.667.668-1.289,1.284-2.641,1.888-3.93l.039-.1a62.1,62.1,0,0,1,3.468-6.75C56.539,2.9,60.071.409,63.282,1.276,67.1,2.3,70.128,7.707,72.3,17.367A43.089,43.089,0,0,1,73.481,29.8a19.741,19.741,0,0,1-1.3,6.163c-.565,1.365-1.914,1.991-3.352,2.629-1.8.817-3.506,1.582-3.314,3.9a7.174,7.174,0,0,0,1.875,3.484c1.04,1.3,2.017,2.539,1.747,3.968-1.875,9.6-8.939,19.638-17.506,19.868l-.128-.026Zm-11.47-12.48,1.169,2.5c.218.472.424,1,.642,1.518h0c.218.536.411,1.046.617,1.455a14.594,14.594,0,0,0,2.569,3.828,9.174,9.174,0,0,0,6.461,3.024h.18c8.49-.217,15.5-10.208,17.365-19.74.27-1.378-.694-2.578-1.708-3.854a7.213,7.213,0,0,1-1.914-3.56c-.206-2.412,1.541-3.2,3.391-4.045,1.4-.638,2.723-1.238,3.262-2.552a19.5,19.5,0,0,0,1.284-6.125,42.8,42.8,0,0,0-1.182-12.39c-2.158-9.6-5.15-14.981-8.9-15.976C60.123.523,56.629,2.986,53.2,8.46A61.922,61.922,0,0,0,49.732,15.2l-.039.1c-.6,1.3-1.207,2.641-1.888,3.943-.437.868-.925,1.774-1.464,2.667a15.107,15.107,0,0,1-1.374,1.825l-.18.23a7.164,7.164,0,0,1-2.864,2.156,2.862,2.862,0,0,1-3.417-1.48l-.244-.421.475-.408a3.013,3.013,0,0,0,.758-.817,2.286,2.286,0,0,0,.3-1.148l.231-4.377a2.383,2.383,0,0,0-2.4-2.348h-.848a2.4,2.4,0,0,0-2.4,2.386v4.377a2.308,2.308,0,0,0,1.13,1.952l.617.421-.527.523c-.3.281-.6.561-.9.842a2.418,2.418,0,0,1-3.044.14,8.69,8.69,0,0,1-2.183-2.144,29.867,29.867,0,0,1-2.646-4.377c-.668-1.3-1.284-2.641-1.888-3.943l-.039-.1A56.679,56.679,0,0,0,21.424,8.46C17.994,2.986,14.526.536,11.38,1.366c-3.75,1.008-6.756,6.38-8.9,15.976A43.717,43.717,0,0,0,1.3,29.732a19.5,19.5,0,0,0,1.284,6.125c.539,1.3,1.875,1.914,3.262,2.552,1.85.842,3.609,1.633,3.391,4.045a7.213,7.213,0,0,1-1.914,3.56c-1.015,1.276-1.978,2.475-1.708,3.854C7.5,59.412,14.5,69.4,22.991,69.62h.18A9.078,9.078,0,0,0,29.631,66.6a11.509,11.509,0,0,0,2.2-3.445c.244-.51.514-1.1.861-1.71l1.7-4.249V61.3c-.013.715-.026,1.416-.013,2.131,0,.281,0,.561-.013.855a17.156,17.156,0,0,0,.051,2.156A2.393,2.393,0,0,0,36.772,68.4h.848a2.4,2.4,0,0,0,2.4-2.386l-.039-3.93A2.658,2.658,0,0,1,40,61.735a2.026,2.026,0,0,0,0-.281v-4.16Z" transform="translate(0 0.001)" fill="#fdcf0a"/>
      </g>
      <g id="Group_153" data-name="Group 153" transform="translate(33.368 24.017)">
        <path id="Path_18625" data-name="Path 18625" d="M30.219,46.894h-.809a3.429,3.429,0,0,1-3.429-3.429V39.239a3.429,3.429,0,0,1,3.429-3.429h.809a3.429,3.429,0,0,1,3.429,3.429v4.226A3.429,3.429,0,0,1,30.219,46.894Zm-.809-10.018a2.393,2.393,0,0,0-2.389,2.389v4.226a2.393,2.393,0,0,0,2.389,2.389h.809a2.393,2.393,0,0,0,2.389-2.389V39.265a2.393,2.393,0,0,0-2.389-2.389Z" transform="translate(-25.98 -14.296)" fill="#fdcf0a"/>
        <path id="Path_18626" data-name="Path 18626" d="M30.219,35.824h-.809A3.429,3.429,0,0,1,25.98,32.4V28.169a3.429,3.429,0,0,1,3.429-3.429h.809a3.429,3.429,0,0,1,3.429,3.429V32.4a3.429,3.429,0,0,1-3.429,3.429Zm-.809-10.018A2.393,2.393,0,0,0,27.02,28.2v4.226a2.393,2.393,0,0,0,2.389,2.389h.809a2.393,2.393,0,0,0,2.389-2.389V28.2a2.393,2.393,0,0,0-2.389-2.389Z" transform="translate(-25.98 -17.445)" fill="#fdcf0a"/>
        <rect id="Rectangle_41" data-name="Rectangle 41" width="1.04" height="11.508" transform="translate(3.314)" fill="#fdcf0a"/>
        <rect id="Rectangle_42" data-name="Rectangle 42" width="1.04" height="11.508" transform="translate(3.314 14.437)" fill="#fdcf0a"/>
        <rect id="Rectangle_43" data-name="Rectangle 43" width="1.04" height="11.508" transform="translate(3.314 28.886)" fill="#fdcf0a"/>
      </g>
    </g>
  </g>
</svg>
