<svg xmlns="http://www.w3.org/2000/svg" width="109.606" height="71" viewBox="0 0 109.606 71">
  <g id="Breast_Cancer_SVG___1_1_1_" data-name="Breast Cancer SVG__ (1) (1) (1)" transform="translate(-0.395)">
    <g id="Group_217" data-name="Group 217" transform="translate(0)">
      <path id="Path_18817" data-name="Path 18817" d="M6,24.371c-3.758.708-5.3,3.77-3,7a5.73,5.73,0,0,0,3,2,4.558,4.558,0,0,1-4-1,4.916,4.916,0,0,1-1-6,3.984,3.984,0,0,1,5-2Z" transform="translate(0 6.629)" fill="#11448e"/>
      <g id="Group_216" data-name="Group 216" transform="translate(6.841)">
        <path id="Path_18818" data-name="Path 18818" d="M50.475,62.624a34.037,34.037,0,0,1-18,2,32.982,32.982,0,0,1-23-16c-6.5-11.8-5.266-26.931,4-37a34.7,34.7,0,0,1,17-10,35.288,35.288,0,0,0-17,12c-8.146,10.658-8.67,26.1-1,37,8.494,11.8,24.256,16.337,38,12Z" transform="translate(-5.316 0.376)" fill="#11448e"/>
        <path id="Path_18819" data-name="Path 18819" d="M39.384,69.791c-11.093-1.459-22.213-8.673-27-19-4.491-9.764-4.611-21.748,1-31,6.679-10.762,20.337-16.74,33-15a27.284,27.284,0,0,1,4,1c-1.081-.23-1.893-.9-3-1-5.482-.614-11.955.837-17,3a34.03,34.03,0,0,0-15,12,31.662,31.662,0,0,0,1,36c5.289,7,14.468,12.17,23,14Z" transform="translate(-4.226 1.209)" fill="#11448e"/>
        <path id="Path_18820" data-name="Path 18820" d="M25.435,70.527c-7.722-6.515-12.1-16.067-13-26a53.047,53.047,0,0,1,7-29c2.574-4.314,5.985-8.966,10-12a14.451,14.451,0,0,1,4-2,20.381,20.381,0,0,0-4,3,42.045,42.045,0,0,0-13,20,59.152,59.152,0,0,0-2,20c.708,9.766,4.154,18.934,11,26Z" transform="translate(-3.276 0.473)" fill="#11448e"/>
        <path id="Path_18821" data-name="Path 18821" d="M18.507,0c-6.538,22.053-8.673,45,10,62a47.1,47.1,0,0,0,5,4c1,.666,1.958,1.386,3,2-3.179-1.459-6.285-2.786-9-5-19.934-16.178-17.764-41.42-9-63Z" transform="translate(-3.349)" fill="#11448e"/>
      </g>
    </g>
    <g id="Group_222" data-name="Group 222" transform="translate(40.751 4.697)">
      <g id="Group_220" data-name="Group 220">
        <g id="Group_219" data-name="Group 219">
          <g id="Group_218" data-name="Group 218" transform="translate(0 37.373)">
            <path id="Path_18822" data-name="Path 18822" d="M33.639,33.887c-.27-.386.116,0,0,0-.154,0,0-.142,0,0s-.167,0,0,0a1.024,1.024,0,0,1,1,1,.96.96,0,0,1-1,1c-.245,0-.575.682-1,0v-1a3.98,3.98,0,0,0,1,1c.129,0,.013-.858,0-1s.142,0,0,0a.932.932,0,0,1-1-1,.991.991,0,0,1,1-1c.3,0,.575.292,1,1Z" transform="translate(-32.39 -32.957)" fill="#11448e"/>
            <path id="Path_18823" data-name="Path 18823" d="M39.49,35.875v-3h2v1h0v1h-1v1h-1Z" transform="translate(-30.241 -32.946)" fill="#11448e"/>
            <path id="Path_18824" data-name="Path 18824" d="M48.369,33.887c-.27-.386.116,0,0,0-.154,0,0-.142,0,0s-.167,0,0,0a1.033,1.033,0,0,1,1,1,.96.96,0,0,1-1,1c-.245,0-.575.682-1,0v-1a3.98,3.98,0,0,0,1,1c.129,0,.013-.858,0-1s.142,0,0,0a.932.932,0,0,1-1-1,.991.991,0,0,1,1-1c.3,0,.575.292,1,1Z" transform="translate(-28.121 -32.957)" fill="#11448e"/>
            <path id="Path_18825" data-name="Path 18825" d="M56.232,33.887c-.27-.386.116,0,0,0-.154,0-1-.142-1,0s.833,0,1,0a1.033,1.033,0,0,1,1,1,.96.96,0,0,1-1,1c-.245,0-1.575.682-2,0l1-1a3.98,3.98,0,0,0,1,1c.129,0,.013-.858,0-1s.142,0,0,0a.932.932,0,0,1-1-1,.991.991,0,0,1,1-1c.3,0,.575.292,1,1Z" transform="translate(-25.983 -32.957)" fill="#11448e"/>
            <path id="Path_18826" data-name="Path 18826" d="M62.945,35.873v-3h1v3Z" transform="translate(-23.696 -32.943)" fill="#11448e"/>
            <path id="Path_18827" data-name="Path 18827" d="M71.089,35.89c-.914,0-2-.112-2-1a2.332,2.332,0,0,1,2-2c.914,0,1,1.138,1,2C72.089,35.791,71.99,35.89,71.089,35.89Zm0-2a1.116,1.116,0,0,0-1,1,1.1,1.1,0,0,0,1,1,1.094,1.094,0,0,0,1-1A1.128,1.128,0,0,0,71.089,33.89Z" transform="translate(-21.84 -32.96)" fill="#11448e"/>
            <path id="Path_18828" data-name="Path 18828" d="M77.928,34.91v1h-1v-3l2,2h0v-2h1v4Z" transform="translate(-19.68 -32.98)" fill="#11448e"/>
            <path id="Path_18829" data-name="Path 18829" d="M85.693,33.887c-.27-.386.116,0,0,0-.154,0,0-.142,0,0s-.167,0,0,0a1.033,1.033,0,0,1,1,1,.96.96,0,0,1-1,1c-.245,0-.575.682-1,0v-1a3.98,3.98,0,0,0,1,1c.129,0,.013-.858,0-1s.142,0,0,0a.932.932,0,0,1-1-1,.991.991,0,0,1,1-1c.3,0,.575.292,1,1Z" transform="translate(-17.444 -32.957)" fill="#11448e"/>
          </g>
          <path id="Path_18830" data-name="Path 18830" d="M52.83,3.953v16h5v1h-9v-17Z" transform="translate(-27.581 -3.65)"/>
          <path id="Path_18831" data-name="Path 18831" d="M60.266,6.132h-3l-3,9h9Zm-4,8,1-5,2,5Z" transform="translate(-26.018 -2.829)"/>
          <path id="Path_18832" data-name="Path 18832" d="M47.12,6.132h-3l-3,9h8Zm-4,8,1-5,2,5Z" transform="translate(-29.871 -2.829)"/>
          <path id="Path_18833" data-name="Path 18833" d="M32.639,19.682v-12h5c2.7,0,4,1.057,4,3,0,1.377-.366,2.614-2,3,1.982.386,3,1.3,3,3,0,2.1-1.349,3-4,3Zm3-6h1c.978,0,2-1.559,2-3a1.9,1.9,0,0,0-2-2h-1Zm0,5h1c1.287,0,2-.533,2-2,0-1.686-.662-2-2-2h-1v4Z" transform="translate(-32.39 -2.379)"/>
          <path id="Path_18834" data-name="Path 18834" d="M71.859,7.682v12h-3l-5-7v7h-1v-12h2l6,8v-8Z" transform="translate(-23.61 -2.379)"/>
          <path id="Path_18835" data-name="Path 18835" d="M79.566,14.728l1,1c.026.309,0,.794,0,1,0,1.158-.164,1.305-1,2a4.113,4.113,0,0,1-3,1c-3.513,0-6-1.049-6-5a6.87,6.87,0,0,1,2-5,5.284,5.284,0,0,1,4-2,3.671,3.671,0,0,1,4,4l-2,1c.026-.347,0-.807,0-1,0-1.75-.6-3-2-3-1.48,0-2,2.294-2,6,0,3.192,1.34,4,3,4,.682,0,.537.541,1,0a3.214,3.214,0,0,0,1-2C79.541,16.483,79.631,15.255,79.566,14.728Z" transform="translate(-21.318 -2.425)"/>
          <path id="Path_18836" data-name="Path 18836" d="M87.1,7.685v2h-4v3h3v1h-3v5h5v1h-9v-12Z" transform="translate(-18.85 -2.382)"/>
          <path id="Path_18837" data-name="Path 18837" d="M36.639,22.8h-2v3h0v3h-2v-6Z" transform="translate(-32.39 1.501)"/>
          <path id="Path_18838" data-name="Path 18838" d="M38.623,22.828c1.866,0,3,.787,3,3s-1.108,3-3,3-3-.735-3-3C35.623,23.653,36.693,22.828,38.623,22.828Zm0,0c-.347,0-.884.614-1,1a10.726,10.726,0,0,0,0,2,9.658,9.658,0,0,0,0,2c.116.386.653,1,1,1s.871-.614,1-1a9.658,9.658,0,0,0,0-2,9.658,9.658,0,0,0,0-2C39.494,23.455,38.983,22.828,38.623,22.828Z" transform="translate(-31.374 1.475)"/>
          <path id="Path_18839" data-name="Path 18839" d="M41.177,28.8v-6h3c.721,0,.575-.309,1,0s1,.5,1,1c0,.772-.086,1.768-1,2,.476.18-.142-.219,0,0a6.412,6.412,0,0,1,1,2c.064.721-.18.768,0,1h-2c-.129-.3,0-.55,0-1h0v-1a.876.876,0,0,0-1-1h0v3Zm2-3h0c.708,0,1-1.254,1-2s-.292-1-1-1h0Z" transform="translate(-29.928 1.499)"/>
          <path id="Path_18840" data-name="Path 18840" d="M50.263,25.355v4h-3v-9h3v4h2v-4h3v9h-3v-4Z" transform="translate(-28.015 0.948)"/>
          <path id="Path_18841" data-name="Path 18841" d="M60.292,20.355v1h-3v3h3v1h-3v3h4v1h-7v-9Z" transform="translate(-26.043 0.948)"/>
          <path id="Path_18842" data-name="Path 18842" d="M64.829,20.355l2,9h-2l-1-2h-3v2h-1l2-9Zm-3,6h2l-1-4Z" transform="translate(-24.58 0.948)"/>
          <path id="Path_18843" data-name="Path 18843" d="M68.073,20.355v8h4v1h-6v-9Z" transform="translate(-22.824 0.948)"/>
          <path id="Path_18844" data-name="Path 18844" d="M73.546,20.355v9h-2v-9Z" transform="translate(-21.298 0.948)"/>
          <path id="Path_18845" data-name="Path 18845" d="M80.634,20.355v9h-2l-4-6v6h0v-9h1l4,6v-6Z" transform="translate(-20.385 0.948)"/>
          <path id="Path_18846" data-name="Path 18846" d="M83.916,24.393h4v5h-1c-.721.515-2.189,0-3,0a3.75,3.75,0,0,1-3-1,3.83,3.83,0,0,1-1-3c0-1.454.215-3.138,1-4s2.739-1,4-1c1.647,0,2.653,1.314,3,3h-2v-1c-.077-1.055-.112-1-1-1a2.558,2.558,0,0,0-2,1c-.232.553,0,1.469,0,3a13.831,13.831,0,0,0,0,3c.206.515,1.459,0,2,0a.872.872,0,0,0,1-1v-2h-2v-1Z" transform="translate(-18.667 0.91)"/>
          <rect id="Rectangle_77" data-name="Rectangle 77" width="69" height="1" transform="translate(0.249 3.303)"/>
          <rect id="Rectangle_78" data-name="Rectangle 78" width="69" transform="translate(0.249 19.303)"/>
          <rect id="Rectangle_79" data-name="Rectangle 79" width="69" transform="translate(0.249 33.303)"/>
        </g>
        <rect id="Rectangle_80" data-name="Rectangle 80" width="69" transform="translate(0.249 44.303)"/>
      </g>
      <g id="Group_221" data-name="Group 221" transform="translate(4.427 45.583)">
        <circle id="Ellipse_24" data-name="Ellipse 24" cx="0.5" cy="0.5" r="0.5" transform="translate(1.822 11.719)" fill="#f193a7"/>
        <path id="Path_18847" data-name="Path 18847" d="M40.652,45.625c.309,0,.743,1.434,1,2h0l1-1c-.5-.347-.739-2-2-2a2.367,2.367,0,0,0-2,2c0,.309.755.627,1,1,.039.064-.026-.051,0,0h-1c-1.75,0-2-1.43-2-3-.386.734-1,1.112-1,2,0,1.132.915,2,3,2h3l-1-2a5.192,5.192,0,0,1,0-1C40.652,45.483,40.51,45.625,40.652,45.625Z" transform="translate(-35.83 -37.905)" fill="#f193a7"/>
        <path id="Path_18848" data-name="Path 18848" d="M38.892,48.506c-.347,0,0-.347,0,0s-.347,1,0,1a1.4,1.4,0,0,0,1-1C39.892,48.133,39.239,48.506,38.892,48.506Z" transform="translate(-35.07 -36.786)" fill="#f193a7"/>
        <path id="Path_18849" data-name="Path 18849" d="M60.783,44.84c.347,0,0-.627,0-1,0-.347.36,0,0,0s-1-.347-1,0A1.383,1.383,0,0,0,60.783,44.84Z" transform="translate(-28.961 -38.121)" fill="#f193a7"/>
        <path id="Path_18850" data-name="Path 18850" d="M60.611,44.141a1.449,1.449,0,0,0,1-1,1.449,1.449,0,0,0-1-1c-.335,0,0,.653,0,1S60.276,44.141,60.611,44.141Z" transform="translate(-28.789 -38.422)" fill="#f193a7"/>
        <path id="Path_18851" data-name="Path 18851" d="M61.441,43.843c0,.36-.335,1,0,1a1.383,1.383,0,0,0,1-1c0-.347-.627,0-1,0C61.094,43.843,61.441,43.5,61.441,43.843Z" transform="translate(-28.62 -38.123)" fill="#f193a7"/>
        <path id="Path_18852" data-name="Path 18852" d="M69.016,41.6c.064,2.188-.077,4.786,0,7h-1l-1-2-1,1c.039.412-.064.588,0,1h-16v-1c0-.695-1.292-1-2-1h-5l-1,1h6c.36,0-.039.846,0,1h-6v1h28v-9Z" transform="translate(-34.195 -38.878)" fill="#f193a7"/>
        <path id="Path_18853" data-name="Path 18853" d="M66.343,48.6h0v-8l-1,1-1,7c0,.965.511,1,1,1,.206,0,.472.309,1,0C65.944,49.507,66.343,48.906,66.343,48.6Z" transform="translate(-27.521 -38.878)" fill="#f193a7"/>
        <path id="Path_18854" data-name="Path 18854" d="M72.433,44.475a2.1,2.1,0,0,0-2,2,8.622,8.622,0,0,0,0,1,4.5,4.5,0,0,1-2-1,12.766,12.766,0,0,0,0,2h4a2,2,0,0,0,0-4Zm0,3c-.309,0-1-.73-1-1s.7,0,1,0c.27,0,0-.283,0,0S72.7,47.475,72.433,47.475Z" transform="translate(-26.611 -37.756)" fill="#f193a7"/>
        <path id="Path_18855" data-name="Path 18855" d="M74.858,48.6h0v-8l-1,1v7c0,.965-.489,1,0,1,.206,0,.472.309,1,0C74.472,49.507,74.858,48.906,74.858,48.6Z" transform="translate(-25.036 -38.878)" fill="#f193a7"/>
        <path id="Path_18856" data-name="Path 18856" d="M76.416,48.484c0,1.724-.575,1.794-1,2,2.458,0,2-.649,2-2v-4l-1,1Z" transform="translate(-24.594 -37.765)" fill="#f193a7"/>
        <path id="Path_18857" data-name="Path 18857" d="M79.581,45.47h0c-.965,0-2-.107-2,1a2.268,2.268,0,0,0,2,2h0a8.577,8.577,0,0,0,1,0,4.546,4.546,0,0,1-2,3c2.664,0,3-2.662,3-4h0C81.581,46.3,81.035,45.573,79.581,45.47Zm1,1a1.7,1.7,0,0,1-1,1h0c-.283-.026,0-.691,0-1h0c0-.283-.3,0,0,0h0c.283.026,1-.3,1,0Z" transform="translate(-23.759 -37.75)" fill="#f193a7"/>
        <path id="Path_18858" data-name="Path 18858" d="M82.514,48.6h0l1-8-2,1v7c0,.965.511,1,1,1,.206,0,.472.309,1,0C83.115,49.507,82.514,48.906,82.514,48.6Z" transform="translate(-22.692 -38.878)" fill="#f193a7"/>
        <path id="Path_18859" data-name="Path 18859" d="M83.568,41.079h0c-.347,0-1-.846-1-1s.588,0,1,0c.1,0-.129-.026,0,0v-1h-1a1.1,1.1,0,0,0-1,1c0,.154-.077-.129,0,0h0v1Z" transform="translate(-22.747 -39.36)" fill="#f193a7"/>
      </g>
    </g>
  </g>
</svg>
