<svg xmlns="http://www.w3.org/2000/svg" width="141" height="71" viewBox="0 0 141 71">
  <g id="Uterine_Fibroids_SVG___1_1_1_" data-name="Uterine Fibroids SVG__ (1) (1) (1)" transform="translate(-0.004)">
    <g id="Group_145" data-name="Group 145" transform="translate(64.858)">
      <g id="Group_144" data-name="Group 144">
        <g id="Group_143" data-name="Group 143" transform="translate(0.039 41.497)">
          <path id="Path_18538" data-name="Path 18538" d="M51.547,33.223c-.3-.43-.391-.43-.508-.43a.3.3,0,0,0-.312.286c0,.169.13.26.313.26a1.077,1.077,0,0,1,1.107,1.042,1.106,1.106,0,0,1-1.133,1.12c-.273,0-.677-.026-1.133-.781l.651-.417c.247.378.391.4.495.4.143,0,.313-.1.3-.26a.334.334,0,0,0-.3-.312,1.023,1.023,0,0,1-1.133-1.068,1.12,1.12,0,0,1,1.133-1.107c.326,0,.716.026,1.172.807l-.638.456Z" transform="translate(-49.88 -31.843)" fill="#e48673"/>
          <path id="Path_18539" data-name="Path 18539" d="M58,35.424V32h2.188v.846H58.846v.469h1.341v.833H58.846v.469h1.341v.846H58Z" transform="translate(-47.427 -31.831)" fill="#e48673"/>
          <path id="Path_18540" data-name="Path 18540" d="M67.7,33.223c-.3-.43-.391-.43-.508-.43a.3.3,0,0,0-.312.286c0,.169.13.26.313.26a1.082,1.082,0,1,1-.013,2.161c-.273,0-.677-.026-1.133-.781L66.7,34.3c.247.378.378.4.495.4.143,0,.313-.1.3-.26a.334.334,0,0,0-.3-.312,1.023,1.023,0,0,1-1.133-1.068A1.12,1.12,0,0,1,67.2,31.96c.326,0,.716.026,1.172.807l-.651.456Z" transform="translate(-44.995 -31.843)" fill="#e48673"/>
          <path id="Path_18541" data-name="Path 18541" d="M75.81,33.223c-.3-.43-.391-.43-.508-.43a.3.3,0,0,0-.312.286c0,.169.13.26.313.26a1.1,1.1,0,0,1,1.12,1.042,1.11,1.11,0,0,1-1.146,1.12c-.273,0-.677-.026-1.146-.781l.651-.417c.247.378.378.4.495.4.143,0,.313-.1.3-.26a.334.334,0,0,0-.3-.312,1.023,1.023,0,0,1-1.133-1.068,1.12,1.12,0,0,1,1.133-1.107c.326,0,.716.026,1.172.807l-.651.456Z" transform="translate(-42.555 -31.843)" fill="#e48673"/>
          <path id="Path_18542" data-name="Path 18542" d="M82.79,35.434V32.01h.846v3.424Z" transform="translate(-39.938 -31.828)" fill="#e48673"/>
          <path id="Path_18543" data-name="Path 18543" d="M91.656,35.544a1.8,1.8,0,1,1,1.81-1.81A1.837,1.837,0,0,1,91.656,35.544Zm0-2.734a.938.938,0,1,0,0,1.875.907.907,0,0,0,.924-.937A.931.931,0,0,0,91.656,32.809Z" transform="translate(-37.815 -31.846)" fill="#e48673"/>
          <path id="Path_18544" data-name="Path 18544" d="M98.846,33.589v1.888H98V31.87l2.513,2.057V32.065h.846v3.607l-2.5-2.083Z" transform="translate(-35.344 -31.87)" fill="#e48673"/>
          <path id="Path_18545" data-name="Path 18545" d="M108.15,33.223c-.3-.43-.391-.43-.508-.43a.3.3,0,0,0-.312.286c0,.169.13.26.312.26a1.1,1.1,0,0,1,1.12,1.042,1.11,1.11,0,0,1-1.146,1.12c-.273,0-.677-.026-1.146-.781l.651-.417c.247.378.378.4.495.4.143,0,.313-.1.3-.26a.334.334,0,0,0-.3-.312,1.023,1.023,0,0,1-1.133-1.068,1.12,1.12,0,0,1,1.133-1.107c.326,0,.716.026,1.172.807l-.651.456Z" transform="translate(-32.785 -31.843)" fill="#e48673"/>
        </g>
        <path id="Path_18546" data-name="Path 18546" d="M71.846,0V17.812h5.365v1.3H68.07V0h3.776Z" transform="translate(-44.346)"/>
        <path id="Path_18547" data-name="Path 18547" d="M80.266,3.1H76.933L73.99,13.048h9.036L80.253,3.1Zm-4.505,8.893,1.654-5.768,1.536,5.768h-3.2Z" transform="translate(-42.558 0.936)"/>
        <path id="Path_18548" data-name="Path 18548" d="M65.666,3.1H62.333L59.39,13.048h9.036L65.653,3.1Zm-4.492,8.893,1.654-5.768,1.536,5.768h-3.2Z" transform="translate(-46.968 0.936)"/>
        <path id="Path_18549" data-name="Path 18549" d="M49.85,17.844V4.81h5.794c2.982,0,4.479,1.068,4.479,3.2,0,1.51-.911,2.487-2.708,2.917,2.174.43,3.255,1.576,3.255,3.451q0,3.457-4.375,3.464H49.85Zm3.789-7.357H54.8c1.081,0,1.615-.794,1.615-2.383,0-1.471-.573-2.2-1.706-2.2H53.626v4.583Zm0,6.276H54.72c1.406,0,2.122-.807,2.122-2.422,0-1.849-.729-2.786-2.188-2.786H53.639v5.208h0Z" transform="translate(-49.85 1.453)"/>
        <path id="Path_18550" data-name="Path 18550" d="M92.706,4.81V17.831H89.816L84.373,9.589v8.242H83.11V4.81h2.4l5.937,8.906V4.81h1.25Z" transform="translate(-39.803 1.453)"/>
        <path id="Path_18551" data-name="Path 18551" d="M100.993,12.661l1.615.417q.039.508.039.859a3.788,3.788,0,0,1-1.367,3.047,5.542,5.542,0,0,1-3.685,1.133c-3.854,0-5.794-2.174-5.794-6.523,0-2.4.273-3.4,1.693-5.026a5.61,5.61,0,0,1,4.4-1.927q4.238,0,4.232,4.062l-1.615.755c.026-.391.026-.677.026-.9q0-2.891-2.3-2.891-2.441,0-2.448,6.12,0,5.254,2.734,5.26a2.348,2.348,0,0,0,1.875-.9,3.331,3.331,0,0,0,.755-2.24c-.026-.273-.065-.69-.143-1.25Z" transform="translate(-37.178 1.402)"/>
        <path id="Path_18552" data-name="Path 18552" d="M109.581,4.81v1.3h-4.674v3.945h3.919v1.3h-3.919v5.169h5.469v1.3H101.13V4.81Z" transform="translate(-34.359 1.453)"/>
        <path id="Path_18553" data-name="Path 18553" d="M54.459,20.49v.716H51.894v2.357h2.174v.716H51.894v3.294H49.85V20.516h4.609Z" transform="translate(-49.85 6.19)"/>
        <path id="Path_18554" data-name="Path 18554" d="M56.88,20.4c2.057,0,3.086,1.211,3.086,3.646s-1.055,3.646-3.138,3.646-3.138-1.237-3.138-3.724c0-2.4,1.068-3.568,3.19-3.568Zm-.052.56a.774.774,0,0,0-.781.638,9.743,9.743,0,0,0-.208,2.448,9.145,9.145,0,0,0,.208,2.448.783.783,0,0,0,.781.638.806.806,0,0,0,.794-.638,9.145,9.145,0,0,0,.208-2.448,9.145,9.145,0,0,0-.208-2.448A.81.81,0,0,0,56.828,20.96Z" transform="translate(-48.69 6.162)"/>
        <path id="Path_18555" data-name="Path 18555" d="M59.2,27.547V20.49h3.034A3.152,3.152,0,0,1,64.122,21a1.549,1.549,0,0,1,.716,1.328c0,.859-.508,1.406-1.51,1.667a2.089,2.089,0,0,1,1.016.638,3.071,3.071,0,0,1,.313,1.341,3.043,3.043,0,0,0,.4,1.563H62.833a3.082,3.082,0,0,1-.208-1.224v-.417L62.6,25.36c0-.82-.326-1.211-.99-1.211h-.352v3.4H59.213Zm2.057-3.971h.417c.781,0,1.159-.4,1.159-1.211s-.391-1.211-1.159-1.211h-.417v2.435Z" transform="translate(-47.026 6.19)"/>
        <path id="Path_18556" data-name="Path 18556" d="M69.295,23.308v4.909H66.43V18.36h2.865v3.958h2.331V18.36H74.49v9.857H71.625V23.308Z" transform="translate(-44.841 5.546)"/>
        <path id="Path_18557" data-name="Path 18557" d="M80.293,18.37v.99H76.765v2.982h2.969v.99H76.765v3.906h4.128v.99H73.9V18.37h6.393Z" transform="translate(-42.585 5.549)"/>
        <path id="Path_18558" data-name="Path 18558" d="M84.86,18.37l2.747,9.857H84.729l-.586-2.135H81.175l-.625,2.135H79.43l2.917-9.857h2.5Zm-3.4,6.719h2.422l-1.159-4.362-1.25,4.362Z" transform="translate(-40.914 5.549)"/>
        <path id="Path_18559" data-name="Path 18559" d="M88.955,18.37v8.867H93v.99H86.09V18.37Z" transform="translate(-38.903 5.549)"/>
        <path id="Path_18560" data-name="Path 18560" d="M94.725,18.37v9.857H91.86V18.37Z" transform="translate(-37.16 5.549)"/>
        <path id="Path_18561" data-name="Path 18561" d="M102.6,18.37v9.857h-2.187L96.294,21.99v6.237H95.33V18.37h1.81l4.492,6.732V18.37h.964Z" transform="translate(-36.111 5.549)"/>
        <path id="Path_18562" data-name="Path 18562" d="M106.124,22.934h4.049V28.26h-.911l-.313-.677a4.2,4.2,0,0,1-2.513.846,4.463,4.463,0,0,1-3.4-1.3,5.234,5.234,0,0,1-1.2-3.685,5.365,5.365,0,0,1,1.276-3.75,4.284,4.284,0,0,1,3.359-1.432,3.126,3.126,0,0,1,3.32,2.786l-1.341.612v-.234l-.026-.534c-.091-1.159-.625-1.732-1.6-1.732a1.454,1.454,0,0,0-1.471.924,9.982,9.982,0,0,0-.4,3.437,10.257,10.257,0,0,0,.326,3.2,1.2,1.2,0,0,0,1.211.846c.716,0,1.068-.391,1.068-1.172V23.976h-1.419v-1h0Z" transform="translate(-34.145 5.516)"/>
        <rect id="Rectangle_32" data-name="Rectangle 32" width="76.029" height="0.273" transform="translate(0 4.049)"/>
        <rect id="Rectangle_33" data-name="Rectangle 33" width="76.029" height="0.273" transform="translate(0 21.68)"/>
        <rect id="Rectangle_34" data-name="Rectangle 34" width="76.042" height="0.273" transform="translate(0 36.94)"/>
      </g>
      <rect id="Rectangle_35" data-name="Rectangle 35" width="76.042" height="0.273" transform="translate(0.104 49.154)"/>
    </g>
    <g id="Group_146" data-name="Group 146" transform="translate(0.004 0.026)">
      <path id="Path_18563" data-name="Path 18563" d="M46.442,32.557a20.263,20.263,0,0,1-.286,13.932A20.846,20.846,0,1,1,8.421,28.937c.2-.365.521-.872.729-1.224.378-.547.846-1.211,1.25-1.719a6.337,6.337,0,0,1,.456-.547,20.405,20.405,0,0,1,1.471-1.523c.156-.13.638-.573.794-.7.221-.2.612-.482.833-.664.326-.273.82-.56,1.146-.807-.521.417-1.133.911-1.6,1.354a6.046,6.046,0,0,0-.508.495c-.495.482-.99,1.029-1.419,1.536-.156.2-.495.638-.651.833-.312.456-.7.977-.977,1.432a20.546,20.546,0,0,0-2.956,8.411c-.052.391-.078.977-.117,1.367,0,.456,0,.924-.026,1.367,0,.234.026.807.039,1.029a20.734,20.734,0,0,0,1,5.026A20.065,20.065,0,0,0,30.426,58a20.418,20.418,0,0,0,16-25.456" transform="translate(1.77 5.852)" fill="#e48673"/>
      <path id="Path_18564" data-name="Path 18564" d="M38.84,21.2c-3.633-2.539-8.177-4.792-12.656-4.922a10.743,10.743,0,0,0-7.435,2.943,22.507,22.507,0,0,0-3.268,3.958l-.13-.052a12.113,12.113,0,0,1,2.5-4.753,9.5,9.5,0,0,1,8.359-3.19,21.464,21.464,0,0,1,9.909,3.789A26.082,26.082,0,0,1,38.931,21.1l-.091.091Z" transform="translate(4.632 4.336)" fill="#e48673"/>
      <path id="Path_18565" data-name="Path 18565" d="M15.149,30.207a7.435,7.435,0,0,1,5.3-2.37c1.289-.156,3.047-.339,3.906-1.406a1.041,1.041,0,0,0,.169-.286c.026-.039.065-.13.091-.169,1.25-2.422,4.766-.052,6.276.99,3.229,2.266,5.951,5.156,8.945,7.7a24.244,24.244,0,0,0,4.714,3.32,7.421,7.421,0,0,0,4,.859,2.757,2.757,0,0,0,2.591-2.4,22.072,22.072,0,0,0-.156-8.516c-.482-2.878-1.315-5.729-1.9-8.594a52.748,52.748,0,0,1-.937-5.859,15.446,15.446,0,0,0-1.367-5.43C44.133,3.111,37.988,2.681,32.988,2.72a2.879,2.879,0,0,1-3.268-2.6L29.863.09A2.527,2.527,0,0,0,32.61,2.212a28.994,28.994,0,0,1,7.8.182,10.636,10.636,0,0,1,7.526,5.013c1.51,2.656,1.562,5.924,2.018,8.776.156.951.339,1.914.534,2.865.951,4.844,2.318,9.674,2.109,14.661-.078,2.24-.573,5.352-3.151,5.99a7.818,7.818,0,0,1-5.312-.885A24.8,24.8,0,0,1,39.3,35.3c-1.419-1.263-2.93-2.708-4.31-4.023C33.3,29.7,27.818,24.4,25.5,25.611a1.407,1.407,0,0,0-.534.6l-.039.078-.052.091a2.365,2.365,0,0,1-.807.872c-2.4,1.471-5.247.378-7.747,2.148a7,7,0,0,0-1.107.951l-.1-.1Z" transform="translate(4.56 0.001)" fill="#e48673"/>
      <path id="Path_18566" data-name="Path 18566" d="M34.46,10.75a33.011,33.011,0,0,1,2.721,6.628,32.207,32.207,0,0,1,1.38,7.018,33.012,33.012,0,0,1-2.721-6.628,32.056,32.056,0,0,1-1.38-7.018" transform="translate(10.405 3.054)" fill="#e48673"/>
      <path id="Path_18567" data-name="Path 18567" d="M13.632,19.588a4.635,4.635,0,0,1-2.161-1.927,5.941,5.941,0,0,1-.143-5.768A6.553,6.553,0,0,1,13.1,9.64c-.065.234-.13.469-.2.69-.182.651-.391,1.289-.547,1.953A8.593,8.593,0,0,0,13.619,19.6" transform="translate(3.213 2.745)" fill="#e48673"/>
      <path id="Path_18568" data-name="Path 18568" d="M46.158,64.752A40.576,40.576,0,0,1,32.486,70.4,29.451,29.451,0,0,1,10.9,65.938C2,59.852-1.394,49.807.52,39.465c.859-4.874,2.526-9.478,3.646-14.274A91.907,91.907,0,0,1,7.278,14.565c.4-1.122.951-2.308,1.367-3.4.977-2.424,1.927-5,3.789-6.937C14.14,2.483,16.8,2.1,19.126,2.289a15,15,0,0,0,3.646.052A3.772,3.772,0,0,0,25.376.02a3.87,3.87,0,0,1-2.539,2.566,7.657,7.657,0,0,1-1.875.193,31.711,31.711,0,0,0-3.672,0A7.131,7.131,0,0,0,13.254,4.4C11.08,6.545,10.259,9.6,9.192,12.36A66.764,66.764,0,0,0,6.21,21.928C5.611,24.3,5.1,26.7,4.478,29.072c-.924,3.52-2.018,7.053-2.63,10.625C.09,49.6,3.176,59,11.574,64.958a29.158,29.158,0,0,0,20.781,4.784,42.978,42.978,0,0,0,13.8-4.977" transform="translate(-0.004 -0.02)" fill="#e48673"/>
      <line id="Line_4" data-name="Line 4" x1="33.854" y1="21.706" transform="translate(10.256 35.797)" fill="none"/>
      <rect id="Rectangle_36" data-name="Rectangle 36" width="1.393" height="40.195" transform="translate(9.877 36.374) rotate(-57.34)" fill="#e48673"/>
    </g>
    <g id="Group_147" data-name="Group 147" transform="translate(64.663 51.43)">
      <path id="Path_18569" data-name="Path 18569" d="M54.622,50.77a4.37,4.37,0,0,0-.794.768l-.052.065a.423.423,0,0,0-.091.26.332.332,0,0,0,.234.352l2.956.938a3.148,3.148,0,0,1-1.172.872,4.2,4.2,0,0,1-1.68.313A3.441,3.441,0,0,1,51.51,53.3a3.391,3.391,0,0,1-1.042-2.513,3.47,3.47,0,0,1,1.107-2.643,3.506,3.506,0,0,1,2.565-1.029l.1-.221h-.521a3.982,3.982,0,0,0-2.7,1.042A3.823,3.823,0,0,0,49.7,50.966a4.284,4.284,0,0,0,1.133,3.073,4.18,4.18,0,0,0,3.216,1.25,5.019,5.019,0,0,0,2.461-.573,3.912,3.912,0,0,0,1.471-1.406.906.906,0,0,0,.143-.482.314.314,0,0,0-.052-.221.232.232,0,0,0-.156-.117l-2.891-.911a1.231,1.231,0,0,1,.313-.182.864.864,0,0,1,.365-.065h2.773V50.38H55.69a1.741,1.741,0,0,0-1.055.391Z" transform="translate(-49.7 -37.958)" fill="#6d6a6a"/>
      <path id="Path_18570" data-name="Path 18570" d="M54.147,54.02a.648.648,0,0,0-.482.2.669.669,0,0,0-.2.482.613.613,0,0,0,.208.482.669.669,0,0,0,.482.2.681.681,0,0,0,.482-1.159.722.722,0,0,0-.495-.2Z" transform="translate(-48.561 -35.804)" fill="#6d6a6a"/>
      <path id="Path_18571" data-name="Path 18571" d="M52.867,54.02a.648.648,0,0,0-.482.2.669.669,0,0,0-.2.482.613.613,0,0,0,.208.482.669.669,0,0,0,.482.2.681.681,0,0,0,.482-1.159A.7.7,0,0,0,52.867,54.02Z" transform="translate(-48.948 -35.804)" fill="#6d6a6a"/>
      <path id="Path_18572" data-name="Path 18572" d="M62.677,45.224a.681.681,0,0,0,.482-1.159.669.669,0,0,0-.482-.2.648.648,0,0,0-.482.2.669.669,0,0,0-.2.482.613.613,0,0,0,.208.482A.639.639,0,0,0,62.677,45.224Z" transform="translate(-45.984 -38.87)" fill="#6d6a6a"/>
      <path id="Path_18573" data-name="Path 18573" d="M68.887,51.02a.648.648,0,0,0-.482.2.669.669,0,0,0-.2.482.613.613,0,0,0,.208.482.669.669,0,0,0,.482.2.681.681,0,0,0,.482-1.159.76.76,0,0,0-.495-.2Z" transform="translate(-44.108 -36.71)" fill="#6d6a6a"/>
      <path id="Path_18574" data-name="Path 18574" d="M67.607,51.02a.648.648,0,0,0-.482.2.669.669,0,0,0-.2.482.613.613,0,0,0,.208.482.669.669,0,0,0,.482.2.681.681,0,0,0,.482-1.159.788.788,0,0,0-.495-.2Z" transform="translate(-44.495 -36.71)" fill="#6d6a6a"/>
      <path id="Path_18575" data-name="Path 18575" d="M76.147,52.042a1.23,1.23,0,0,1-.417-.937V40.05L74.779,41V51.339a1.148,1.148,0,0,1-.273.833,1.025,1.025,0,0,1-.768.273h-.846a1.054,1.054,0,0,1-.82-.391,1.353,1.353,0,0,1-.352-.938v-3.8l-.951.951v3.086a1.5,1.5,0,0,1-.2.859.8.8,0,0,1-.677.26h-2.24a3.2,3.2,0,0,0,.69-2.1,3.252,3.252,0,0,0-.742-2.161,2.5,2.5,0,0,0-3.8.013,3.228,3.228,0,0,0-.742,2.161,3.193,3.193,0,0,0,.677,2.1H56.42v.964H69.91a1.918,1.918,0,0,0,.937-.208.964.964,0,0,0,.495-.573,1.412,1.412,0,0,0,.586.586,2.1,2.1,0,0,0,.977.2h.846a2.374,2.374,0,0,0,1-.2,1.559,1.559,0,0,0,.677-.586,1.718,1.718,0,0,0,.638.586,2.254,2.254,0,0,0,1,.2h.508V52.5h-.508a1.539,1.539,0,0,1-.924-.443Zm-9.18-.221a1.512,1.512,0,0,1-1.237.625,1.478,1.478,0,0,1-1.237-.625,2.347,2.347,0,0,1-.456-1.458,2.378,2.378,0,0,1,.469-1.484,1.493,1.493,0,0,1,1.224-.612,1.478,1.478,0,0,1,1.237.625,2.347,2.347,0,0,1,.456,1.458A2.234,2.234,0,0,1,66.967,51.821Z" transform="translate(-47.67 -40.024)" fill="#6d6a6a"/>
      <path id="Path_18576" data-name="Path 18576" d="M74.186,51.336a1.148,1.148,0,0,1-.273.833,1.025,1.025,0,0,1-.768.273H72.65v.951h.495a1.95,1.95,0,0,0,1.432-.495,2.069,2.069,0,0,0,.534-1.562V40.06l-.951.951V51.349h0Z" transform="translate(-42.767 -40.021)" fill="#6d6a6a"/>
      <path id="Path_18577" data-name="Path 18577" d="M76.661,54.7a11.83,11.83,0,0,1-.234,2.474,5.231,5.231,0,0,1-.443,1.341c-.13.273-.208.4-.234.4h.117a3.134,3.134,0,0,0,.716-.768,5.558,5.558,0,0,0,.7-1.706,12.942,12.942,0,0,0,.313-3.06V40.05L76.648,41V54.7h0Z" transform="translate(-41.831 -40.024)" fill="#6d6a6a"/>
      <path id="Path_18578" data-name="Path 18578" d="M88.59,45.636H85.283a1.7,1.7,0,0,0-1.367.586,1.938,1.938,0,0,0-.482,1.3V53.5a6.522,6.522,0,0,1-.286,1.888,7.26,7.26,0,0,1-.534,1.328,3.711,3.711,0,0,1-.273.508h.117a9.583,9.583,0,0,0,.872-.964,5.411,5.411,0,0,0,.742-1.836,17.582,17.582,0,0,0,.312-3.672V47.6a.924.924,0,0,1,1.042-1.042h1.2a3.241,3.241,0,0,0-.677,2.1,3.057,3.057,0,0,0,.807,2.148,2.9,2.9,0,0,0,2.24.885h2.253V48.722a3.434,3.434,0,0,0-.69-2.24,2.434,2.434,0,0,0-1.966-.872Zm1.693,5.13h-1.3a2.185,2.185,0,0,1-2.1-2.083,2.431,2.431,0,0,1,.469-1.484,1.493,1.493,0,0,1,1.224-.612,1.448,1.448,0,0,1,1.237.7,2.526,2.526,0,0,1,.456,1.471v2.005h0Z" transform="translate(-39.84 -38.344)" fill="#6d6a6a"/>
      <path id="Path_18579" data-name="Path 18579" d="M91.474,53.5a6.522,6.522,0,0,1-.286,1.888,7.26,7.26,0,0,1-.534,1.328,3.709,3.709,0,0,1-.273.508H90.5a9.583,9.583,0,0,0,.872-.964,5.411,5.411,0,0,0,.742-1.836,17.582,17.582,0,0,0,.312-3.672V45.62l-.951.951V53.5Z" transform="translate(-37.411 -38.341)" fill="#6d6a6a"/>
      <path id="Path_18580" data-name="Path 18580" d="M107.851,51.345a1.148,1.148,0,0,1-.273.833,1.025,1.025,0,0,1-.768.273H98.436v-2.1a3.25,3.25,0,0,0-.742-2.187,2.508,2.508,0,0,0-3.8.026,3.228,3.228,0,0,0-.742,2.161,3.321,3.321,0,0,0,.69,2.148,2.381,2.381,0,0,0,1.953.885h1.693v1.8a6.522,6.522,0,0,1-.286,1.888,7.261,7.261,0,0,1-.534,1.328,3.712,3.712,0,0,1-.273.508h.117c.495-.495.781-.794.846-.885a4.392,4.392,0,0,0,.755-1.589,11.725,11.725,0,0,0,.326-3.073h8.4a1.95,1.95,0,0,0,1.432-.495,2.069,2.069,0,0,0,.534-1.562V40.03l-.951.951V51.319h0ZM97.5,52.452H95.806a1.462,1.462,0,0,1-1.237-.625,2.347,2.347,0,0,1-.456-1.458,2.378,2.378,0,0,1,.469-1.484,1.493,1.493,0,0,1,1.224-.612,1.468,1.468,0,0,1,1.237.664,2.351,2.351,0,0,1,.456,1.432v2.083Z" transform="translate(-36.575 -40.03)" fill="#6d6a6a"/>
      <path id="Path_18581" data-name="Path 18581" d="M107.281,41V54.7a11.83,11.83,0,0,1-.234,2.474,5.231,5.231,0,0,1-.443,1.341c-.13.273-.208.4-.234.4h.117a3.134,3.134,0,0,0,.716-.768,5.558,5.558,0,0,0,.7-1.706,12.941,12.941,0,0,0,.313-3.06V40.05l-.938.951Z" transform="translate(-32.581 -40.024)" fill="#6d6a6a"/>
    </g>
  </g>
</svg>
