<svg id="Diabetes_1st_Type_SVG__1_" data-name="Diabetes 1st Type SVG_ (1)" xmlns="http://www.w3.org/2000/svg" width="151" height="71" viewBox="0 0 151 71">
  <g id="Group_29" data-name="Group 29" transform="translate(72.024)">
    <g id="Group_27" data-name="Group 27" transform="translate(1.601)">
      <g id="Group_26" data-name="Group 26" transform="translate(0 42.022)">
        <path id="Path_18248" data-name="Path 18248" d="M431.368,297.8c-.267-.4-.4-.4-.534-.4a.267.267,0,1,0,0,.534A1.052,1.052,0,0,1,431.9,299a1.09,1.09,0,0,1-1.2,1.067c-.267,0-.667,0-1.2-.8l.667-.4c.267.4.4.4.534.4a.267.267,0,1,0,0-.534c-.8,0-1.2-.4-1.2-1.067a1.09,1.09,0,0,1,1.2-1.067c.267,0,.667,0,1.2.8Z" transform="translate(-429.5 -296.467)" fill="#2d8235"/>
        <path id="Path_18249" data-name="Path 18249" d="M437.6,300.069V296.6h2.268v.8h-1.334v.534h1.334v.8h-1.334v.534h1.334v.8Z" transform="translate(-426.794 -296.467)" fill="#2d8235"/>
        <path id="Path_18250" data-name="Path 18250" d="M447.268,297.8c-.267-.4-.4-.4-.534-.4a.267.267,0,0,0,0,.534A1.052,1.052,0,0,1,447.8,299a1.09,1.09,0,0,1-1.2,1.067c-.267,0-.667,0-1.2-.8l.667-.4c.267.4.4.4.534.4a.267.267,0,0,0,0-.534c-.8,0-1.2-.4-1.2-1.067a1.09,1.09,0,0,1,1.2-1.067c.267,0,.667,0,1.2.8Z" transform="translate(-424.189 -296.467)" fill="#2d8235"/>
        <path id="Path_18251" data-name="Path 18251" d="M455.268,297.8c-.267-.4-.4-.4-.534-.4a.267.267,0,0,0,0,.534A1.052,1.052,0,0,1,455.8,299a1.09,1.09,0,0,1-1.2,1.067c-.267,0-.667,0-1.2-.8l.667-.4c.267.4.4.4.534.4a.267.267,0,0,0,0-.534c-.8,0-1.2-.4-1.2-1.067a1.09,1.09,0,0,1,1.2-1.067c.267,0,.667,0,1.2.8Z" transform="translate(-421.516 -296.467)" fill="#2d8235"/>
        <path id="Path_18252" data-name="Path 18252" d="M462.1,300.069V296.6h.8v3.469Z" transform="translate(-418.61 -296.467)" fill="#2d8235"/>
        <path id="Path_18253" data-name="Path 18253" d="M470.868,300.235A1.824,1.824,0,0,1,469,298.368a1.908,1.908,0,0,1,1.868-1.868,1.824,1.824,0,0,1,1.868,1.868A1.908,1.908,0,0,1,470.868,300.235Zm0-2.8a.934.934,0,1,0,.934.934A.912.912,0,0,0,470.868,297.434Z" transform="translate(-416.305 -296.5)" fill="#2d8235"/>
        <path id="Path_18254" data-name="Path 18254" d="M477.9,298.2v2h-.8v-3.6l2.535,2.134v-1.868h.8v3.6Z" transform="translate(-413.6 -296.467)" fill="#2d8235"/>
        <path id="Path_18255" data-name="Path 18255" d="M487.168,297.8c-.267-.4-.4-.4-.534-.4a.267.267,0,1,0,0,.534A1.052,1.052,0,0,1,487.7,299a1.09,1.09,0,0,1-1.2,1.067c-.267,0-.667,0-1.2-.8l.667-.4c.267.4.4.4.534.4a.267.267,0,0,0,0-.534c-.8,0-1.2-.4-1.2-1.067a1.09,1.09,0,0,1,1.2-1.067c.267,0,.667,0,1.2.8Z" transform="translate(-410.86 -296.467)" fill="#2d8235"/>
      </g>
      <path id="Path_18256" data-name="Path 18256" d="M451.335,265v18.01H456.8v1.334h-9.2V265Z" transform="translate(-423.454 -265)"/>
      <path id="Path_18257" data-name="Path 18257" d="M459.77,268.1h-3.335L453.5,278.105h9.072Zm-4.669,8.938,1.734-5.87,1.6,5.87Z" transform="translate(-421.483 -263.964)"/>
      <path id="Path_18258" data-name="Path 18258" d="M445.37,268.1h-3.335L439.1,278.105h9.072Zm-4.536,8.938,1.734-5.87,1.6,5.87Z" transform="translate(-426.293 -263.964)"/>
      <path id="Path_18259" data-name="Path 18259" d="M429.6,282.907V269.7h5.87c3.068,0,4.536,1.067,4.536,3.2,0,1.467-.934,2.535-2.8,2.935,2.134.4,3.335,1.6,3.335,3.469,0,2.268-1.467,3.469-4.4,3.469l-6.537.133Zm3.869-7.471h1.2q1.6,0,1.6-2.4c0-1.467-.534-2.268-1.734-2.268h-1.067v4.669Zm0,6.4h1.067c1.467,0,2.134-.8,2.134-2.4,0-1.868-.667-2.8-2.268-2.8h-1.067v5.2Z" transform="translate(-429.467 -263.43)"/>
      <path id="Path_18260" data-name="Path 18260" d="M472.138,269.7v13.207H469.2l-5.47-8.271v8.271H462.4V269.7h2.4l6,9.071V269.7Z" transform="translate(-418.51 -263.43)"/>
      <path id="Path_18261" data-name="Path 18261" d="M480.338,277.738l1.6.4v.8a3.688,3.688,0,0,1-1.334,3.068,5.465,5.465,0,0,1-3.735,1.2c-3.869,0-5.87-2.135-5.87-6.537,0-2.4.267-3.468,1.734-5.069a5.7,5.7,0,0,1,4.4-2c2.8,0,4.269,1.334,4.269,4.136l-1.6.8V273.6c0-2-.8-2.935-2.268-2.935-1.6,0-2.535,2.134-2.535,6.137,0,3.6.934,5.336,2.8,5.336a2.163,2.163,0,0,0,1.868-.934,3.366,3.366,0,0,0,.8-2.268A2.962,2.962,0,0,1,480.338,277.738Z" transform="translate(-415.637 -263.463)"/>
      <path id="Path_18262" data-name="Path 18262" d="M488.738,269.7v1.334h-4.669v4h4v1.334h-4v5.2h5.47v1.334H480.2V269.7Z" transform="translate(-412.564 -263.43)"/>
      <path id="Path_18263" data-name="Path 18263" d="M434.269,285.2v.667h-2.535v2.4h2.135v.667h-2.135v3.335H429.6V285.2Z" transform="translate(-429.467 -258.252)"/>
      <path id="Path_18264" data-name="Path 18264" d="M436.635,285.1c2.135,0,3.068,1.2,3.068,3.735s-1.067,3.735-3.2,3.735-3.2-1.2-3.2-3.735C433.433,286.3,434.5,285.1,436.635,285.1Zm0,.667a.845.845,0,0,0-.8.667,8.762,8.762,0,0,0-.267,2.535,5.955,5.955,0,0,0,.267,2.535.814.814,0,0,0,1.6,0,8.766,8.766,0,0,0,.267-2.535,5.958,5.958,0,0,0-.267-2.535C437.169,285.9,436.9,285.767,436.635,285.767Z" transform="translate(-428.231 -258.286)"/>
      <path id="Path_18265" data-name="Path 18265" d="M438.8,292.371V285.3h3.068a2.608,2.608,0,0,1,1.868.534,1.477,1.477,0,0,1,.667,1.334,1.82,1.82,0,0,1-1.467,1.734,2.105,2.105,0,0,1,1.067.667c.267.267.267.667.267,1.334a2.318,2.318,0,0,0,.4,1.6H442.4a3.185,3.185,0,0,1-.267-1.2v-.934c0-.8-.267-1.2-.934-1.2h-.4v3.469h-2Zm2.135-4h.4a1.2,1.2,0,1,0,0-2.4h-.4Z" transform="translate(-426.393 -258.219)"/>
      <path id="Path_18266" data-name="Path 18266" d="M448.835,288.169v4.936H445.9V283.1h2.935v4h2.4v-4h2.935v10.005h-2.935v-4.936Z" transform="translate(-424.022 -258.954)"/>
      <path id="Path_18267" data-name="Path 18267" d="M459.837,283.133v.934h-3.6v3.068h2.935v.934h-2.935v4h4.136v.934H453.3V283l6.537.133Z" transform="translate(-421.55 -258.987)"/>
      <path id="Path_18268" data-name="Path 18268" d="M464.236,283.1l2.8,10.005H464.1l-.534-2.135h-2.935l-.667,2.135H458.9l2.935-10.005Zm-3.469,6.8h2.4l-1.2-4.4Z" transform="translate(-419.679 -258.954)"/>
      <path id="Path_18269" data-name="Path 18269" d="M468.2,283.133v8.938h4.135v.934H465.4V283h2.8Z" transform="translate(-417.508 -258.987)"/>
      <path id="Path_18270" data-name="Path 18270" d="M473.935,283.1v10.005H471V283.1Z" transform="translate(-415.637 -258.954)"/>
      <path id="Path_18271" data-name="Path 18271" d="M481.837,283.1v10.005h-2.268l-4.136-6.27v6.27H474.5V283.1h1.868l4.536,6.8v-6.8Z" transform="translate(-414.468 -258.954)"/>
      <path id="Path_18272" data-name="Path 18272" d="M485.169,287.8H489.3v5.336h-.934l-.267-.667a4.392,4.392,0,0,1-2.535.8,4.339,4.339,0,0,1-3.469-1.334,5.464,5.464,0,0,1-1.2-3.735,4.942,4.942,0,0,1,1.334-3.735A4.547,4.547,0,0,1,485.569,283a3.109,3.109,0,0,1,3.335,2.8l-1.334.667v-.8c-.133-1.2-.667-1.734-1.6-1.734a1.443,1.443,0,0,0-1.467.934,10.055,10.055,0,0,0-.4,3.468,14.637,14.637,0,0,0,.267,3.2,1.282,1.282,0,0,0,1.2.8c.667,0,1.067-.4,1.067-1.2v-2.4h-1.467V287.8Z" transform="translate(-412.33 -258.987)"/>
      <rect id="Rectangle_23" data-name="Rectangle 23" width="76.841" height="0.267" transform="translate(0.133 4.136)"/>
      <rect id="Rectangle_24" data-name="Rectangle 24" width="76.841" height="0.267" transform="translate(0.133 21.878)"/>
      <rect id="Rectangle_25" data-name="Rectangle 25" width="76.841" height="0.267" transform="translate(0.133 37.353)"/>
    </g>
    <g id="Group_28" data-name="Group 28" transform="translate(0 49.122)">
      <path id="Path_18273" data-name="Path 18273" d="M431.1,314.672a4.426,4.426,0,0,1-2.134-2,6.5,6.5,0,0,1-.667-3.335,7.777,7.777,0,0,1,.667-3.335,4.426,4.426,0,0,1,2.134-2v.534a2.765,2.765,0,0,0-1.2,1.734,15.656,15.656,0,0,0-.4,3.068,8.958,8.958,0,0,0,.4,3.068,4.063,4.063,0,0,0,1.2,1.734Z" transform="translate(-428.3 -304)" fill="#e52e2b"/>
      <path id="Path_18274" data-name="Path 18274" d="M461.1,314.672v-.534a2.764,2.764,0,0,0,1.2-1.734,11.961,11.961,0,0,0,0-6.137,4.062,4.062,0,0,0-1.2-1.734V304a4.426,4.426,0,0,1,2.134,2,6.5,6.5,0,0,1,.667,3.335,8.236,8.236,0,0,1-.667,3.335A4.426,4.426,0,0,1,461.1,314.672Z" transform="translate(-417.343 -304)" fill="#e52e2b"/>
      <path id="Path_18275" data-name="Path 18275" d="M471.969,307.2v1.2h-2.134v2.134h2.134v1.2c0,1.334-.534,1.868-1.868,1.868h-2.268a1.063,1.063,0,0,1-.934-1.2v-4.136h1.067V312.4H470.1c.267,0,.4-.133.534-.4v-.4h-2v-2.935c0-.934.4-1.467,1.067-1.467h2.268Zm-4.136,8h1.2V314h-1.2Zm1.734,0h1.2V314h-1.2Z" transform="translate(-415.406 -302.931)" fill="#e52e2b"/>
      <path id="Path_18276" data-name="Path 18276" d="M473.168,307.2v3.468h.533v1.067h-.667a1.943,1.943,0,0,1-2.134,1.734v-1.2c.667,0,.934-.4.934-1.334V307.2Z" transform="translate(-414.07 -302.931)" fill="#e52e2b"/>
      <path id="Path_18277" data-name="Path 18277" d="M472.9,311.2h4.8c.133-1.067,0-1.6-.667-1.6h-3.469v-1.467l3.2-2.535h1.868l-3.468,2.8h1.868a1.9,1.9,0,0,1,2.134,1.868v1.067h.4V312.4h-6.537l-.133-1.2Z" transform="translate(-413.402 -303.466)" fill="#e52e2b"/>
      <path id="Path_18278" data-name="Path 18278" d="M482.136,308h1.334v2.668H484.8V307.2h1.334v3.468h.667v1.067h-9.2v-1.067h1.6v-1.734h1.334v1.734h1.334l.267-2.668Z" transform="translate(-411.832 -302.931)" fill="#e52e2b"/>
      <path id="Path_18279" data-name="Path 18279" d="M485.067,305.5H486.4v6.8h-2v-1.067h.667V305.5Z" transform="translate(-409.56 -303.499)" fill="#e52e2b"/>
      <path id="Path_18280" data-name="Path 18280" d="M487.834,312.3H486.5v-6.8h1.334Z" transform="translate(-408.859 -303.499)" fill="#e52e2b"/>
    </g>
    <rect id="Rectangle_26" data-name="Rectangle 26" width="76.841" height="0.267" transform="translate(1.868 47.502)"/>
  </g>
  <g id="Group_30" data-name="Group 30" transform="translate(0 3.202)">
    <path id="Path_18281" data-name="Path 18281" d="M397.97,318.636l-3.2-4.936H392.1l5.87,8.938,6-8.938H401.3Z" transform="translate(-365.819 -254.84)" fill="#e52e2b"/>
    <path id="Path_18282" data-name="Path 18282" d="M431.5,267.4H377.336a4.709,4.709,0,0,0-4.936,4.574v48.912a4.792,4.792,0,0,0,4.936,4.574h21.745v-2.033h0V269.306h10.406v54.121h0v2.033H431.5a4.709,4.709,0,0,0,4.936-4.574V271.974C436.568,269.56,434.3,267.4,431.5,267.4Zm-54.162,56.154a2.651,2.651,0,0,1-2.8-2.541V272.1a2.737,2.737,0,0,1,2.8-2.541h6.937v54.121h-6.937ZM431.5,269.56a2.651,2.651,0,0,1,2.8,2.541v48.912a2.737,2.737,0,0,1-2.8,2.541h-7.07V269.433h7.07Zm-34.552,53.994H386.541V269.433h10.406Zm14.808-53.994H422.16v54.121H411.754Z" transform="translate(-372.4 -267.4)" fill="#2d8235"/>
  </g>
  <g id="Group_31" data-name="Group 31" transform="translate(76.699 51.499)">
    <path id="Path_18283" data-name="Path 18283" d="M436,305.4h1.334v6.8c-.133.667-.267,1.067-.667,1.334a2.146,2.146,0,0,1-1.467.4h-2a1.822,1.822,0,0,1-1.467-.534,3.6,3.6,0,0,1-.534-2v-2h1.334v2.535a.708.708,0,0,0,.8.8H434.8q1,0,.8-1.2l.4-6.137Z" transform="translate(-431.2 -305.4)" fill="#e52e2b"/>
    <path id="Path_18284" data-name="Path 18284" d="M439.8,307.1v4.536a2.664,2.664,0,0,1-.267,1.2,1.822,1.822,0,0,1-1.467.534h-1.734v-1.2H438.2c.4,0,.534-.267.4-.534a2.106,2.106,0,0,1-2-.934,2.628,2.628,0,0,1-.267-2.268c.267-.934,1.334-1.334,3.068-1.334Zm-1.2,1.067c-.934,0-1.334.534-1.2,1.467q.4,1,1.2.8Z" transform="translate(-429.531 -304.832)" fill="#e52e2b"/>
    <path id="Path_18285" data-name="Path 18285" d="M440.834,307.668h1.334v3.469H443.5V305.4h1.334v6.8H439.5v-1.067h1.334Zm.133-1.868v.534h-.133v.4h1.2v-.4h-.667v-.267c0-.133,0-.133.133-.133h.534v-.4h-.8A.287.287,0,0,0,440.967,305.8Z" transform="translate(-428.427 -305.4)" fill="#e52e2b"/>
    <path id="Path_18286" data-name="Path 18286" d="M445.334,312.2H444v-6.8h1.334Z" transform="translate(-426.924 -305.4)" fill="#e52e2b"/>
    <path id="Path_18287" data-name="Path 18287" d="M452.741,311.648h-3.068a.287.287,0,0,0-.267.267c0,.133.267.267.667.267h2.268v1.2h-2.4c-.934,0-1.468-.133-1.6-.667a1.868,1.868,0,0,1,0-1.468,1.056,1.056,0,0,1,1.067-.667h0c-.267-.267-.267-.8-.267-1.467a2.475,2.475,0,0,1,.934-1.6,2.512,2.512,0,0,1,2-.4l.267,1.067q-2.2-.2-2,1.6c.133.534.267.8.667.8h1.467v1.067Z" transform="translate(-425.526 -304.845)" fill="#e52e2b"/>
    <path id="Path_18288" data-name="Path 18288" d="M455.7,307.1v3.469h.534v1.067H455.7a2.666,2.666,0,0,1-.267,1.2,1.822,1.822,0,0,1-1.468.534h-1.734v-1.2H454.1c.4,0,.534-.267.4-.534a2.106,2.106,0,0,1-2-.934,2.627,2.627,0,0,1-.267-2.268c.267-.934,1.334-1.334,3.068-1.334Zm-1.2,1.067c-.934,0-1.334.534-1.2,1.467q.4,1,1.2.8Z" transform="translate(-424.22 -304.832)" fill="#e52e2b"/>
    <path id="Path_18289" data-name="Path 18289" d="M456.034,307.634h1.334V311.1h.8v1.067H455.1V311.1h.934Zm0-2.134h1.2v1.2h-1.2Z" transform="translate(-423.216 -305.367)" fill="#e52e2b"/>
    <path id="Path_18290" data-name="Path 18290" d="M457.9,305.4h1.334v6.8H457.1v-1.067h.667V305.4Z" transform="translate(-422.548 -305.4)" fill="#e52e2b"/>
    <path id="Path_18291" data-name="Path 18291" d="M460.634,312.2H459.3v-6.8h1.334Z" transform="translate(-421.813 -305.4)" fill="#e52e2b"/>
  </g>
</svg>
