<svg id="Diabetes_2nd_Type_SVG__1_1_1_" data-name="Diabetes 2nd Type SVG_ (1) (1) (1)" xmlns="http://www.w3.org/2000/svg" width="148" height="71" viewBox="0 0 148 71">
  <g id="Group_210" data-name="Group 210" transform="translate(0 2.913)">
    <path id="Path_18778" data-name="Path 18778" d="M25.569,53.609,22.348,48.75H19.77l5.8,8.725,5.8-8.725H28.791Z" transform="translate(5.709 10.612)" fill="#e52e2b"/>
    <path id="Path_18779" data-name="Path 18779" d="M57.414,2.26H4.833A4.757,4.757,0,0,0,0,6.933V56.344a4.765,4.765,0,0,0,4.833,4.673H25.981V58.961h0V4.328H36.1V58.961h0v2.056H57.414a4.757,4.757,0,0,0,4.833-4.673V6.946A4.768,4.768,0,0,0,57.414,2.26ZM4.833,58.961a2.7,2.7,0,0,1-2.758-2.6V6.946a2.692,2.692,0,0,1,2.758-2.6h6.74V58.974H4.833ZM57.414,4.328a2.688,2.688,0,0,1,2.745,2.6V56.344a2.688,2.688,0,0,1-2.745,2.6H50.481V4.328ZM23.842,58.961H13.725V4.328H23.842Zm14.4-54.633H48.354V58.961H38.238V4.328Z" transform="translate(0 -2.26)" fill="#4e2a84"/>
  </g>
  <g id="Group_214" data-name="Group 214" transform="translate(72.04)">
    <g id="Group_212" data-name="Group 212" transform="translate(1.624)">
      <g id="Group_211" data-name="Group 211" transform="translate(0.026 40.39)">
        <path id="Path_18780" data-name="Path 18780" d="M58.857,32.661c-.284-.412-.374-.412-.49-.412a.289.289,0,0,0-.3.284.262.262,0,0,0,.3.258,1.038,1.038,0,0,1,1.07,1.005,1.071,1.071,0,0,1-1.108,1.083c-.271,0-.657-.026-1.108-.76l.632-.4c.245.361.374.387.477.387a.265.265,0,0,0,.284-.258.317.317,0,0,0-.284-.3.986.986,0,0,1-1.1-1.031,1.081,1.081,0,0,1,1.1-1.07c.309,0,.7.026,1.147.786l-.619.438Z" transform="translate(-57.22 -31.308)" fill="#4e2a84"/>
        <path id="Path_18781" data-name="Path 18781" d="M65.22,34.808V31.47h2.126v.825H66.032v.451h1.315v.812H66.032v.451h1.315v.825H65.22Z" transform="translate(-54.91 -31.302)" fill="#4e2a84"/>
        <path id="Path_18782" data-name="Path 18782" d="M74.754,32.661c-.284-.412-.374-.412-.49-.412a.289.289,0,0,0-.3.284.262.262,0,0,0,.3.258A1.059,1.059,0,0,1,75.347,33.8a1.071,1.071,0,0,1-1.108,1.083c-.271,0-.657-.026-1.108-.76l.632-.4c.245.361.361.387.477.387a.265.265,0,0,0,.284-.258.317.317,0,0,0-.284-.3.986.986,0,0,1-1.1-1.031,1.081,1.081,0,0,1,1.1-1.07c.309,0,.7.026,1.147.786l-.631.438Z" transform="translate(-52.626 -31.308)" fill="#4e2a84"/>
        <path id="Path_18783" data-name="Path 18783" d="M82.714,32.661c-.284-.412-.374-.412-.49-.412a.289.289,0,0,0-.3.284.262.262,0,0,0,.3.258A1.059,1.059,0,0,1,83.307,33.8,1.071,1.071,0,0,1,82.2,34.878c-.271,0-.657-.026-1.108-.76l.631-.4c.245.361.361.387.477.387a.265.265,0,0,0,.284-.258.317.317,0,0,0-.284-.3.986.986,0,0,1-1.1-1.031,1.081,1.081,0,0,1,1.1-1.07c.309,0,.7.026,1.147.786l-.631.438Z" transform="translate(-50.327 -31.308)" fill="#4e2a84"/>
        <path id="Path_18784" data-name="Path 18784" d="M89.6,34.818V31.48h.825v3.338Z" transform="translate(-47.87 -31.3)" fill="#4e2a84"/>
        <path id="Path_18785" data-name="Path 18785" d="M98.3,34.925a1.753,1.753,0,1,1,0-3.505,1.753,1.753,0,1,1,0,3.505Zm0-2.655a.9.9,0,1,0,0,1.8.87.87,0,0,0,.889-.9A.894.894,0,0,0,98.3,32.271Z" transform="translate(-45.875 -31.317)" fill="#4e2a84"/>
        <path id="Path_18786" data-name="Path 18786" d="M105.385,33.015v1.843h-.825V31.34l2.449,2V31.52h.825v3.518L105.4,33.015Z" transform="translate(-43.55 -31.34)" fill="#4e2a84"/>
        <path id="Path_18787" data-name="Path 18787" d="M114.524,32.661c-.284-.412-.374-.412-.49-.412a.289.289,0,0,0-.3.284.262.262,0,0,0,.3.258,1.059,1.059,0,0,1,1.083,1.005,1.071,1.071,0,0,1-1.108,1.083c-.271,0-.657-.026-1.108-.76l.631-.4c.245.361.361.387.477.387a.265.265,0,0,0,.284-.258.317.317,0,0,0-.284-.3.986.986,0,0,1-1.1-1.031,1.081,1.081,0,0,1,1.1-1.07c.309,0,.7.026,1.147.786l-.631.438Z" transform="translate(-41.142 -31.308)" fill="#4e2a84"/>
      </g>
      <path id="Path_18788" data-name="Path 18788" d="M78.8,0V17.347h5.219v1.276H75.13V0h3.686Z" transform="translate(-52.023)"/>
      <path id="Path_18789" data-name="Path 18789" d="M87.056,3.05H83.821L80.96,12.729h8.8L87.069,3.05Zm-4.382,8.66,1.611-5.619L85.78,11.71H82.661Z" transform="translate(-50.339 0.881)"/>
      <path id="Path_18790" data-name="Path 18790" d="M72.7,3.05H69.461L66.6,12.729h8.8L72.709,3.05Zm-4.369,8.66,1.611-5.619,1.495,5.619H68.314Z" transform="translate(-54.486 0.881)"/>
      <path id="Path_18791" data-name="Path 18791" d="M57.213,17.411V4.73h5.645c2.9,0,4.356,1.031,4.356,3.119,0,1.469-.876,2.423-2.629,2.835,2.114.412,3.157,1.534,3.157,3.364,0,2.242-1.418,3.377-4.266,3.377H57.2Zm3.7-7.153h1.134c1.044,0,1.572-.773,1.572-2.32,0-1.431-.554-2.139-1.663-2.139H60.912Zm0,6.109h1.044c1.379,0,2.062-.786,2.062-2.358q0-2.706-2.126-2.706h-.979v5.065h0Z" transform="translate(-57.2 1.366)"/>
      <path id="Path_18792" data-name="Path 18792" d="M99.264,4.73V17.411h-2.81l-5.3-8.029v8.029H89.92V4.73h2.333L98.039,13.4V4.73h1.224Z" transform="translate(-47.752 1.366)"/>
      <path id="Path_18793" data-name="Path 18793" d="M107.42,12.37l1.572.4c.026.322.039.606.039.838a3.637,3.637,0,0,1-1.34,2.964,5.428,5.428,0,0,1-3.6,1.108c-3.75,0-5.645-2.114-5.645-6.354,0-2.333.271-3.3,1.65-4.884a5.432,5.432,0,0,1,4.279-1.882c2.745,0,4.124,1.327,4.124,3.956l-1.572.735c.026-.374.026-.657.026-.863,0-1.882-.747-2.809-2.242-2.809q-2.378,0-2.384,5.967c0,3.415.876,5.116,2.655,5.116a2.288,2.288,0,0,0,1.83-.863,3.275,3.275,0,0,0,.735-2.178c-.026-.271-.064-.67-.142-1.224Z" transform="translate(-45.289 1.317)"/>
      <path id="Path_18794" data-name="Path 18794" d="M115.872,4.73V6.006h-4.549V9.846h3.815v1.276h-3.815v5.026h5.323v1.276h-9V4.73h8.235Z" transform="translate(-42.632 1.366)"/>
      <path id="Path_18795" data-name="Path 18795" d="M61.695,20.15v.7h-2.5V23.14h2.114v.7H59.195v3.2H57.21V20.163h4.485Z" transform="translate(-57.197 5.819)"/>
      <path id="Path_18796" data-name="Path 18796" d="M64.086,20.07c2,0,3,1.186,3,3.557s-1.018,3.557-3.054,3.557S60.98,25.973,60.98,23.55c0-2.333,1.031-3.48,3.106-3.48Zm-.052.541a.763.763,0,0,0-.76.619,9.347,9.347,0,0,0-.206,2.384A8.773,8.773,0,0,0,63.274,26a.763.763,0,0,0,.76.619A.786.786,0,0,0,64.808,26a8.772,8.772,0,0,0,.206-2.384,8.773,8.773,0,0,0-.206-2.384.789.789,0,0,0-.773-.619Z" transform="translate(-56.108 5.795)"/>
      <path id="Path_18797" data-name="Path 18797" d="M66.41,27.019V20.15h2.951a3.126,3.126,0,0,1,1.843.49,1.513,1.513,0,0,1,.7,1.3q0,1.257-1.469,1.624a1.963,1.963,0,0,1,.979.619,2.833,2.833,0,0,1,.3,1.315,3.055,3.055,0,0,0,.387,1.521H69.928a2.942,2.942,0,0,1-.206-1.2v-.4l-.026-.516c0-.8-.309-1.186-.954-1.186h-.335v3.3h-2Zm2-3.866h.4c.76,0,1.134-.387,1.134-1.186s-.374-1.186-1.134-1.186h-.4Z" transform="translate(-54.541 5.819)"/>
      <path id="Path_18798" data-name="Path 18798" d="M76.3,22.877v4.781H73.52V18.07H76.3v3.853h2.268V18.07h2.784v9.588H78.572V22.877Z" transform="translate(-52.487 5.218)"/>
      <path id="Path_18799" data-name="Path 18799" d="M87.085,18.066v.954H83.644v2.9h2.887v.954H83.644v3.8h4.021v.954h-6.8V18.04h6.225Z" transform="translate(-50.368 5.209)"/>
      <path id="Path_18800" data-name="Path 18800" d="M91.581,18.06l2.668,9.588h-2.8l-.567-2.075H88l-.606,2.075H86.31l2.835-9.588Zm-3.3,6.534H90.64l-1.134-4.253Z" transform="translate(-48.794 5.215)"/>
      <path id="Path_18801" data-name="Path 18801" d="M95.644,18.06v8.635h3.944v.954H92.86V18.06h2.784Z" transform="translate(-46.903 5.215)"/>
      <path id="Path_18802" data-name="Path 18802" d="M101.314,18.06v9.588H98.53V18.06Z" transform="translate(-45.266 5.215)"/>
      <path id="Path_18803" data-name="Path 18803" d="M109.012,18.06v9.588h-2.126l-4.008-6.07v6.07h-.928V18.06h1.766l4.369,6.547V18.06Z" transform="translate(-44.278 5.215)"/>
      <path id="Path_18804" data-name="Path 18804" d="M112.5,22.508h3.944v5.181h-.876l-.3-.657a4.118,4.118,0,0,1-2.449.825,4.244,4.244,0,0,1-3.3-1.276,5.078,5.078,0,0,1-1.173-3.6,5.192,5.192,0,0,1,1.25-3.66,4.151,4.151,0,0,1,3.261-1.4,3.019,3.019,0,0,1,3.222,2.706l-1.315.593v-.232l-.026-.516c-.09-1.134-.606-1.688-1.559-1.688a1.4,1.4,0,0,0-1.431.889,10,10,0,0,0-.387,3.351,10.4,10.4,0,0,0,.309,3.119,1.176,1.176,0,0,0,1.186.825c.7,0,1.031-.374,1.031-1.147V23.462H112.5V22.5h0Z" transform="translate(-42.43 5.175)"/>
      <rect id="Rectangle_64" data-name="Rectangle 64" width="74.001" height="0.271" transform="translate(0.013 3.944)"/>
      <rect id="Rectangle_65" data-name="Rectangle 65" width="74.001" height="0.271" transform="translate(0.013 21.11)"/>
      <rect id="Rectangle_66" data-name="Rectangle 66" width="74.014" height="0.271" transform="translate(0.013 35.956)"/>
    </g>
    <g id="Group_213" data-name="Group 213" transform="translate(0 49.478)">
      <path id="Path_18805" data-name="Path 18805" d="M58.634,49.1a4.16,4.16,0,0,1-2.01-1.894,6.948,6.948,0,0,1-.683-3.235,7,7,0,0,1,.683-3.248,4.106,4.106,0,0,1,2.01-1.894v.541a3.15,3.15,0,0,0-1.211,1.637,9.428,9.428,0,0,0-.361,2.964,9.825,9.825,0,0,0,.361,2.964,3.083,3.083,0,0,0,1.211,1.637V49.1Z" transform="translate(-55.94 -38.817)" fill="#e52e2b"/>
      <path id="Path_18806" data-name="Path 18806" d="M88.61,49.1v-.541a3.15,3.15,0,0,0,1.211-1.637,9.062,9.062,0,0,0,.361-2.964A9.766,9.766,0,0,0,89.821,41a3.293,3.293,0,0,0-1.211-1.637V38.82a4.106,4.106,0,0,1,2.01,1.894,6.967,6.967,0,0,1,.683,3.248A6.912,6.912,0,0,1,90.62,47.2,4.183,4.183,0,0,1,88.61,49.1Z" transform="translate(-46.506 -38.82)" fill="#e52e2b"/>
      <path id="Path_18807" data-name="Path 18807" d="M99.265,42.053v1.1H97.216v2.023h2.049v1.16c.039,1.25-.567,1.83-1.791,1.74H95.282a.963.963,0,0,1-.9-1.147V43.007h1.057V46.95h2.075c.284-.039.425-.168.464-.374v-.309H95.991V43.432c-.026-.9.322-1.379,1.07-1.392h2.2Zm-3.9,7.72h1.147V48.626H95.36Zm1.637,0h1.147V48.626H97Z" transform="translate(-44.84 -37.89)" fill="#e52e2b"/>
      <path id="Path_18808" data-name="Path 18808" d="M100.586,42.056v3.338h.541v1.044h-.606a1.8,1.8,0,0,1-2.062,1.637V46.953c.606,0,.9-.412.889-1.263V42.03h1.237Z" transform="translate(-43.662 -37.893)" fill="#e52e2b"/>
      <path id="Path_18809" data-name="Path 18809" d="M100.36,45.879h4.6c.193-1.018-.052-1.534-.7-1.572H100.9V42.837l3.093-2.487h1.766l-3.3,2.732h1.856c1.276.064,1.946.67,2,1.8v.979h.335V46.91h-6.263V45.879h-.026Z" transform="translate(-43.113 -38.378)" fill="#e52e2b"/>
      <path id="Path_18810" data-name="Path 18810" d="M109.37,42.862h1.34v2.526h1.353V42.05h1.34v3.338h.58v1.044H105.13V45.388H106.7v-1.7h1.34v1.7H109.4V42.862h0Z" transform="translate(-41.736 -37.887)" fill="#e52e2b"/>
      <path id="Path_18811" data-name="Path 18811" d="M112.516,40.35H113.8v6.573H111.82V45.879h.709V40.35h0Z" transform="translate(-39.804 -38.378)" fill="#e52e2b"/>
      <path id="Path_18812" data-name="Path 18812" d="M115.169,46.923H113.88V40.35h1.289Z" transform="translate(-39.209 -38.378)" fill="#e52e2b"/>
    </g>
    <rect id="Rectangle_67" data-name="Rectangle 67" width="74.014" height="0.271" transform="translate(1.74 47.423)"/>
  </g>
  <g id="Group_215" data-name="Group 215" transform="translate(76.194 50.212)">
    <rect id="Rectangle_68" data-name="Rectangle 68" width="1.147" height="1.147" transform="translate(2.732 9.859)" fill="#e52e2b"/>
    <rect id="Rectangle_69" data-name="Rectangle 69" width="1.147" height="1.147" transform="translate(1.083 9.859)" fill="#e52e2b"/>
    <path id="Path_18813" data-name="Path 18813" d="M65.362,45.288H61.985v1.031h.786c.039.348-.258.541-.889.541H60.349V43.355h-1.2V46.77a1.117,1.117,0,0,0,1.289,1.186h1.907a1.7,1.7,0,0,0,1.7-1.637h2.616V41.95H65.375v3.338Z" transform="translate(-59.15 -38.651)" fill="#e52e2b"/>
    <rect id="Rectangle_70" data-name="Rectangle 70" width="1.147" height="1.147" transform="translate(6.225 1.327)" fill="#e52e2b"/>
    <rect id="Rectangle_71" data-name="Rectangle 71" width="1.147" height="1.147" transform="translate(11.766 1.327)" fill="#e52e2b"/>
    <rect id="Rectangle_72" data-name="Rectangle 72" width="1.095" height="1.095" transform="translate(10.954)" fill="#e52e2b"/>
    <rect id="Rectangle_73" data-name="Rectangle 73" width="1.147" height="1.147" transform="translate(10.117 1.327)" fill="#e52e2b"/>
    <path id="Path_18814" data-name="Path 18814" d="M71.405,45.779H70.323V42.441H69.034v3.338H66.869V40.25H65.58v6.56h7.1V40.25H71.405Z" transform="translate(-57.293 -39.142)" fill="#e52e2b"/>
    <rect id="Rectangle_74" data-name="Rectangle 74" width="1.289" height="6.56" transform="translate(16.058 1.108)" fill="#e52e2b"/>
    <path id="Path_18815" data-name="Path 18815" d="M78.019,44.493c-.1-1.083.528-1.572,1.894-1.495l-.258-1.031a2.354,2.354,0,0,0-1.92.322,2.1,2.1,0,0,0-.954,1.547,2.237,2.237,0,0,0,.271,1.456h0c-.567.077-.928.284-1.07.657a1.8,1.8,0,0,0,0,1.418c.193.451.722.657,1.572.606h2.294V46.851H77.658c-.425.026-.644-.052-.631-.232a.258.258,0,0,1,.284-.284H80.2V45.3H78.753a.884.884,0,0,1-.709-.812Z" transform="translate(-54.331 -38.668)" fill="#e52e2b"/>
    <rect id="Rectangle_75" data-name="Rectangle 75" width="1.147" height="1.147" transform="translate(31.175 1.327)" fill="#e52e2b"/>
    <path id="Path_18816" data-name="Path 18816" d="M86.923,45.77H85.685V42.432H84.4V45.77H83.185V42.432H82.76c-1.688,0-2.668.451-2.951,1.327a2.393,2.393,0,0,0,.206,2.217,2.1,2.1,0,0,0,1.972.851c.077.322-.052.5-.374.528H79.86v1.108h1.6a1.679,1.679,0,0,0,1.431-.5,1.815,1.815,0,0,0,.284-1.134h5V40.28H86.884v5.5h.026Zm-4.91,0a1.036,1.036,0,0,1-1.186-.812,1.093,1.093,0,0,1,1.186-1.443Z" transform="translate(-53.234 -39.133)" fill="#e52e2b"/>
    <rect id="Rectangle_76" data-name="Rectangle 76" width="1.289" height="6.56" transform="translate(35.621 1.108)" fill="#e52e2b"/>
  </g>
</svg>
