<svg xmlns="http://www.w3.org/2000/svg" xmlns:xlink="http://www.w3.org/1999/xlink" width="117" height="71" viewBox="0 0 117 71">
  <defs>
    <clipPath id="clip-path">
      <rect id="Rectangle_95" data-name="Rectangle 95" width="4.877" height="3.63" fill="none"/>
    </clipPath>
    <clipPath id="clip-path-2">
      <rect id="Rectangle_97" data-name="Rectangle 97" width="10.702" height="13.222" fill="none"/>
    </clipPath>
    <clipPath id="clip-path-4">
      <rect id="Rectangle_104" data-name="Rectangle 104" width="40.44" height="13.696" fill="none"/>
    </clipPath>
    <clipPath id="clip-path-11">
      <rect id="Rectangle_108" data-name="Rectangle 108" width="25.97" height="11.65" fill="none"/>
    </clipPath>
  </defs>
  <g id="Eczema_1_" data-name="Eczema (1)" transform="translate(0 -0.16)">
    <g id="Group_274" data-name="Group 274" transform="translate(0 0.16)">
      <g id="Group_273" data-name="Group 273" transform="translate(6.387)">
        <path id="Path_18938" data-name="Path 18938" d="M21.76,26.44c-1.871,4.752-3.879,9.38-5.75,14.145-3.63.125-7.26.125-10.89.249,5.626-4.752,11.139-9.5,16.64-14.395" transform="translate(-5.12 6.341)" fill="#ca7c38"/>
        <path id="Path_18939" data-name="Path 18939" d="M19.1,26.84c1.622,1.123,3.131,2.382,4.752,3.505-3.38,3.38-6.636,6.885-10.016,10.141,1.746-4.5,3.505-9.131,5.251-13.634" transform="translate(-2.963 6.44)" fill="#c17837"/>
        <path id="Path_18940" data-name="Path 18940" d="M22.242,29.652l2.133,5.376c-1.123,1.5-2.382,3.131-3.505,4.628.5-3.256.873-6.636,1.372-10.016" transform="translate(-1.224 7.132)" fill="#c16c34"/>
        <path id="Path_18941" data-name="Path 18941" d="M18.06,27.782c2.632-1.622,5.251-3.131,7.883-4.752-1,2.881-2.008,5.626-3.006,8.382-1.5-1.123-3.256-2.382-4.877-3.63" transform="translate(-1.919 5.497)" fill="#ce813a"/>
        <g id="Group_272" data-name="Group 272" transform="translate(62.306 24.399)" opacity="0.74">
          <g id="Group_271" data-name="Group 271" clip-path="url(#clip-path)">
            <path id="Path_18942" data-name="Path 18942" d="M59.424,19.72c.249.374.374.748.624,1.123-1.5.873-3.006,1.622-4.5,2.507l-.374-1.5c1.372-.624,2.757-1.372,4.254-2.133" transform="translate(-55.045 -19.72)" fill="#de9f65"/>
          </g>
        </g>
        <path id="Path_18943" data-name="Path 18943" d="M26.592,20.02c-.249,1.247-.374,2.507-.624,3.755-2.632,1.622-5.376,3.256-8.008,4.877l8.632-8.632" transform="translate(-1.944 4.753)" fill="#d39045"/>
        <path id="Path_18944" data-name="Path 18944" d="M24.677,23.255c-.873,2.632-1.622,5.376-2.507,8.008,2.507-1.123,5-2.133,7.509-3.256-1.622-1.5-3.006-3.256-4.628-4.877h0Z" transform="translate(-0.902 5.522)" fill="#c97331"/>
        <path id="Path_18945" data-name="Path 18945" d="M30.1,30.423c-2.133,1.622-4.129,3.256-6.262,4.877-.624-1.871-1.247-3.755-1.871-5.75,2.757.374,5.376.624,8.133.873" transform="translate(-0.952 7.11)" fill="#c57338"/>
        <path id="Path_18946" data-name="Path 18946" d="M24.639,33.66c.5,1.746,1,3.38,1.5,5.127H20.76c1.372-1.746,2.632-3.505,3.879-5.127" transform="translate(-1.251 8.127)" fill="#e7b382"/>
        <path id="Path_18947" data-name="Path 18947" d="M29.185,16.41c.624,1.5,1.247,3.131,1.871,4.628H24.67c1.5-1.5,3.006-3.131,4.5-4.628" transform="translate(-0.284 3.86)" fill="#df944c"/>
        <path id="Path_18948" data-name="Path 18948" d="M32.441,13.6l2.008,2.881c-1.5,1.746-3.006,3.38-4.378,5.127-.624-1.5-1.247-2.881-1.871-4.378l4.254-3.63Z" transform="translate(0.589 3.165)" fill="#eba55f"/>
        <path id="Path_18949" data-name="Path 18949" d="M36.827,11.892c-1.123,1.622-2.258,3.38-3.38,5A31.7,31.7,0,0,1,31.7,14.138c1.622-.748,3.38-1.5,5.127-2.258" transform="translate(1.455 2.739)" fill="#efbb7c"/>
        <path id="Path_18950" data-name="Path 18950" d="M42.5,9.99c-.624,1.123-1.372,2.258-2.008,3.256-1.622-.249-3.256-.5-4.877-.873,2.258-.748,4.5-1.5,6.885-2.382" transform="translate(2.422 2.272)" fill="#f4be83"/>
        <path id="Path_18951" data-name="Path 18951" d="M27.69,28.033,35.2,31.289l6.624-2.008-3.256-5.75Z" transform="translate(0.463 5.621)" fill="#a75826"/>
        <path id="Path_18952" data-name="Path 18952" d="M47.547,23.9l-1.871,3.879c-3.131-1.372-6.262-2.881-9.255-4.254,3.63.125,7.384.249,11.139.374" transform="translate(2.623 5.621)" fill="#ac5c24"/>
        <path id="Path_18953" data-name="Path 18953" d="M36.41,24.3c2.507-1.247,5-2.632,7.509-3.879,1.247,1.5,2.382,2.881,3.63,4.378-3.755-.249-7.384-.374-11.139-.5" transform="translate(2.62 4.852)" fill="#cc7a3c"/>
        <path id="Path_18954" data-name="Path 18954" d="M57.227,15.6,58.6,16.972l-4.129,4.5c.873-1.871,1.871-3.879,2.757-5.875" transform="translate(7.088 3.659)" fill="#db8645"/>
        <path id="Path_18955" data-name="Path 18955" d="M40.738,17.81c1.123,1.247,2.133,2.507,3.256,3.755-2.632,1.247-5.251,2.507-7.883,3.755Z" transform="translate(2.546 4.206)" fill="#df9451"/>
        <path id="Path_18956" data-name="Path 18956" d="M41.7,17.61q-6.006,1.5-12.012,3.006c.125,0,.125.125.249.125,2.632,1.5,5.251,3.131,7.759,4.628l4.628-7.509c-.249-.125-.374-.125-.624-.249" transform="translate(0.958 4.157)" fill="#df8b4b"/>
        <path id="Path_18957" data-name="Path 18957" d="M42.132,21.19c1.622-1.123,3.131-2.258,4.752-3.38,1.871,1.746,3.879,3.38,5.75,5.127-3.505-.5-7.01-1.123-10.515-1.746" transform="translate(4.033 4.206)" fill="#e08e4e"/>
        <path id="Path_18958" data-name="Path 18958" d="M43.674,15.2,39.42,18.206c3.006.249,5.875.624,8.881.873-1.622-1.247-3.131-2.632-4.628-3.879" transform="translate(3.365 3.56)" fill="#f8c88c"/>
        <path id="Path_18959" data-name="Path 18959" d="M42.43,16.621c.748-1,1.5-2.133,2.258-3.131,1.5.374,2.881.748,4.378,1.123-2.133.624-4.378,1.247-6.636,2.008" transform="translate(4.109 3.137)" fill="#facb94"/>
        <path id="Path_18960" data-name="Path 18960" d="M34.318,15.8c-1.5,1.746-3.006,3.505-4.628,5.251,4.129-1,8.258-2.008,12.511-3.131L34.318,15.79Z" transform="translate(0.958 3.706)" fill="#f2b16f"/>
        <path id="Path_18961" data-name="Path 18961" d="M40.809,12.59c-2.507,1.372-5,2.757-7.509,4.129,2.632.748,5.251,1.372,7.883,2.133,1.372-1,2.632-1.871,4-2.881-1.622-1.123-3.006-2.258-4.378-3.38" transform="translate(1.851 2.915)" fill="#fbd09f"/>
        <path id="Path_18962" data-name="Path 18962" d="M43.239,11.192l-.5,5.5a28.438,28.438,0,0,0,1.746-2.507c-.374-1-.873-2.008-1.247-3.006" transform="translate(4.186 2.566)" fill="#fcd4a4"/>
        <path id="Path_18963" data-name="Path 18963" d="M41.551,9.992c.873.5,1.746,1,2.632,1.5L39.43,13.236c.624-1.123,1.372-2.133,2.133-3.256" transform="translate(3.367 2.269)" fill="#fbd3a2"/>
        <path id="Path_18964" data-name="Path 18964" d="M50.021,15.9l5.626,1.123c-1.247,2.258-2.507,4.628-3.879,6.885-2.008-1.871-4.129-3.755-6.137-5.626,1.5-.748,2.881-1.622,4.378-2.382" transform="translate(4.901 3.734)" fill="#e89855"/>
        <path id="Path_18965" data-name="Path 18965" d="M45.24,24.327c2.133-.873,4.254-1.622,6.511-2.507.125,1,.374,2.133.5,3.131-2.507-.125-4.752-.374-7.01-.624" transform="translate(4.805 5.198)" fill="#bd662c"/>
        <path id="Path_18966" data-name="Path 18966" d="M54.464,16.61c.5,1.372.873,2.632,1.372,4-1.746,1-3.63,2.008-5.376,3.006,1.247-2.382,2.632-4.628,4-7.01" transform="translate(6.096 3.909)" fill="#e89855"/>
        <path id="Path_18967" data-name="Path 18967" d="M54.57,14.5c.748.624,1.622,1.247,2.382,1.871L58.7,14.749c-1.372-.125-2.757-.125-4.129-.249" transform="translate(7.112 3.387)" fill="#f7ca96"/>
        <path id="Path_18968" data-name="Path 18968" d="M55.342,14.5l1.123.748c.5.374.873.748,1.247,1-1.123.374-2.382.748-3.505,1.123-.873-.873-1.871-1.746-2.757-2.632,1.247,0,2.632-.125,3.879-.249" transform="translate(6.341 3.385)" fill="#f5b571"/>
        <path id="Path_18969" data-name="Path 18969" d="M53.616,23.727c-1,.5-1.871,1.123-2.881,1.622-.125-.873-.249-1.746-.374-2.632,1.746-1,3.63-2.008,5.376-3.006-.624,1.372-1.372,2.632-2.133,4" transform="translate(6.071 4.676)" fill="#c77133"/>
        <path id="Path_18970" data-name="Path 18970" d="M50.362,25c.374.5.873.873,1.247,1.372,1.871-1.123,3.63-2.133,5.5-3.256a6.261,6.261,0,0,1-.249-1.5c-1.123.624-2.382,1.123-3.505,1.746-1,.5-2.008,1.123-3.006,1.622" transform="translate(6.069 5.149)" fill="#db9b62"/>
        <path id="Path_18971" data-name="Path 18971" d="M66.11,17.18c.249,1,.5,2.133.748,3.131,1.247-2.133,2.382-4.254,3.63-6.511-1.5,1.123-3.006,2.258-4.378,3.38" transform="translate(9.967 3.214)" fill="#e18545"/>
        <path id="Path_18972" data-name="Path 18972" d="M55.17,22.789l7.759-3.879c-.624.873-1.247,1.622-1.871,2.507-1.123.624-2.258,1.372-3.38,2.008l-2.258.374a3.856,3.856,0,0,0-.249-1" transform="translate(7.261 4.478)" fill="#c1753c"/>
        <path id="Path_18973" data-name="Path 18973" d="M61.008,20.922l.249.873,1.123,1.123c-.873.125-2.008.249-3.131.5a19.807,19.807,0,0,0-3.879,1.372c.873-.624,1.622-1.247,2.507-2.008l3.131-1.871Z" transform="translate(7.31 4.973)" fill="#8b471f"/>
        <path id="Path_18974" data-name="Path 18974" d="M66.614,18.21c-.249,1.247-.624,2.507-.873,3.63l-4.378,1.5c-.5-.249-.873-.624-1.372-.873l6.636-4.254Z" transform="translate(8.453 4.305)" fill="#b2551f"/>
        <path id="Path_18975" data-name="Path 18975" d="M63.7,19.819v-.5h3.755c.249.249.374.624.624.873-.249.249-.624.5-.873.748-.748.249-1.5.5-2.382.748A14.85,14.85,0,0,1,63.7,19.819" transform="translate(9.371 4.58)" fill="#c26b31"/>
        <path id="Path_18976" data-name="Path 18976" d="M66.655,3.286c-1,.624-2.008,1.247-2.881,1.871-.249,0-.624-.125-.873-.125.125-.748.125-1.622.249-2.382a29.22,29.22,0,0,0,3.505.624" transform="translate(9.173 0.456)" fill="#da6833"/>
        <path id="Path_18977" data-name="Path 18977" d="M63.6,8.18c-.5.624-1,1.123-1.5,1.746.5.748,1,1.5,1.5,2.133Z" transform="translate(8.975 1.824)" fill="#fcd9a3"/>
        <path id="Path_18978" data-name="Path 18978" d="M60.188,16.91c.374,1,.873,2.133,1.247,3.006a25.9,25.9,0,0,1-3.256,1.5c.624-1.5,1.247-3.006,2.008-4.5" transform="translate(8.006 3.983)" fill="#e5a062"/>
        <path id="Path_18979" data-name="Path 18979" d="M70.918,4.27c.748.748,1.372,1.5,2.133,2.258-.374,1-.748,2.008-1.123,3.006C71.3,8.411,70.556,7.276,69.92,6.029c.249-.5.624-1.123,1-1.746" transform="translate(10.91 0.857)" fill="#dd652f"/>
        <path id="Path_18980" data-name="Path 18980" d="M72.314,9.05c-.5,1.247-1,2.632-1.372,3.879-.873-.748-1.746-1.372-2.632-2.133.624-1.746,1.372-3.38,2.008-5.127.624,1.247,1.372,2.258,2.008,3.38" transform="translate(10.511 1.203)" fill="#d4632f"/>
        <path id="Path_18981" data-name="Path 18981" d="M70.642,11.163a19.446,19.446,0,0,0,2.881-.873l-1.372,4.378c-1,.374-2.133.748-3.131,1.123.5-1.622,1.123-3.131,1.622-4.628" transform="translate(10.687 2.346)" fill="#f3ac62"/>
        <path id="Path_18982" data-name="Path 18982" d="M69.144,15.022c1.247-.5,2.507-1.123,3.755-1.622-.873,1.5-1.746,3.006-2.632,4.5-.873.249-1.871.5-2.757.748l1.622-3.63Z" transform="translate(10.313 3.115)" fill="#f8c78e"/>
        <path id="Path_18983" data-name="Path 18983" d="M57.275,15.9c-1.123.374-2.382.748-3.505,1.123.5,1.247.873,2.507,1.372,3.63L57.275,15.9Z" transform="translate(6.915 3.734)" fill="#e0914c"/>
        <path id="Path_18984" data-name="Path 18984" d="M67.832,17.658l2.757-.748c-1.123,1.247-2.133,2.507-3.256,3.755a5.28,5.28,0,0,1-.624-.873l-.5-.624,1.622-1.5Z" transform="translate(9.992 3.983)" fill="#fad0a4"/>
        <path id="Path_18985" data-name="Path 18985" d="M68.382,10.19l2.632,1.123c-.873.5-1.746.873-2.632,1.372l-1.372-.873c.374-.5.873-1,1.372-1.622" transform="translate(10.19 2.321)" fill="#d26a2b"/>
        <path id="Path_18986" data-name="Path 18986" d="M66.831,16.71c.125.873.374,1.746.5,2.757,0,.249.125.624.125.873L63.7,19.966c1-1.123,2.133-2.258,3.131-3.256" transform="translate(9.371 3.934)" fill="#cd6c31"/>
        <path id="Path_18987" data-name="Path 18987" d="M68.557,12.561c1.123-.624,2.133-1.247,3.256-1.871-.624,1.622-1.372,3.256-2.008,4.877-1.372,1-2.757,2.133-4,3.131l2.757-6.137Z" transform="translate(9.89 2.445)" fill="#db7638"/>
        <path id="Path_18988" data-name="Path 18988" d="M67.058,11.59c-.249,2.008-.5,4-.748,6.012.748-1.746,1.372-3.505,2.133-5.251L67.071,11.6Z" transform="translate(10.017 2.667)" fill="#ca6325"/>
        <path id="Path_18989" data-name="Path 18989" d="M66.456,13.249c-1.123,2.881-2.133,5.626-3.256,8.507l4.129-4.129c.125-2.008.374-4.129.5-6.137a21.325,21.325,0,0,1-1.372,1.746" transform="translate(9.247 2.643)" fill="#bd5922"/>
        <path id="Path_18990" data-name="Path 18990" d="M58.352,17.91c-.5,1.247-.873,2.632-1.372,3.879.748-.5,1.5-1,2.258-1.5a19.039,19.039,0,0,0-.873-2.382" transform="translate(7.709 4.231)" fill="#dfa065"/>
        <path id="Path_18991" data-name="Path 18991" d="M59.025,17.51,55.27,23.136l2.382-1.372c.374-1.372.873-2.757,1.372-4.254" transform="translate(7.286 4.132)" fill="#cf9256"/>
        <path id="Path_18992" data-name="Path 18992" d="M58.475,16.21c.125.748.249,1.372.374,2.133-1.247.748-2.632,1.5-3.879,2.258l3.505-4.378Z" transform="translate(7.211 3.81)" fill="#d98040"/>
        <path id="Path_18993" data-name="Path 18993" d="M58.351,14.4l-.125,3.63c-.624-.5-1.123-1.123-1.746-1.622.624-.748,1.247-1.372,1.871-2.008" transform="translate(7.585 3.363)" fill="#d9823d"/>
        <path id="Path_18994" data-name="Path 18994" d="M58.9,17.912c-1.247,1.746-2.382,3.505-3.63,5.251l-.5-2.881C55.144,20.033,58.9,17.9,58.9,17.9" transform="translate(7.162 4.228)" fill="#ce7737"/>
        <path id="Path_18995" data-name="Path 18995" d="M58.58,20.143c.873-.374,1.871-.748,2.757-1.123-.249.873-.624,1.871-.873,2.757a21.683,21.683,0,0,1-1.871-1.622" transform="translate(8.104 4.505)" fill="#e5a062"/>
        <path id="Path_18996" data-name="Path 18996" d="M55.093,19.72c-.125.125-2.133,3.879-2.133,3.879a19.064,19.064,0,0,1,2.881-1l-.5-2.881h-.249Z" transform="translate(6.714 4.679)" fill="#bf6b2e"/>
        <path id="Path_18997" data-name="Path 18997" d="M60.462,16.61c-.748.5-1.622,1.123-2.382,1.622.249.873.374,1.746.624,2.632.624-1.5,1.247-2.881,1.746-4.254" transform="translate(7.981 3.909)" fill="#de9056"/>
        <path id="Path_18998" data-name="Path 18998" d="M62.338,16.71c.125,1,.125,2.008.249,3.006-.873.748-1.622,1.372-2.507,2.133l2.258-5.127Z" transform="translate(8.476 3.934)" fill="#e1a364"/>
        <path id="Path_18999" data-name="Path 18999" d="M64.971,17.11c-1,.748-1.871,1.622-2.881,2.382.624.249,1.123.374,1.746.624.125-.125.249-.374.374-.5.249-.873.5-1.622.748-2.507" transform="translate(8.973 4.033)" fill="#ab4e20"/>
        <path id="Path_19000" data-name="Path 19000" d="M64.4,14.4c.125,1.247.374,2.382.5,3.63-1,.748-2.008,1.622-3.006,2.382.873-2.008,1.622-4,2.507-6.012" transform="translate(8.923 3.363)" fill="#eeb079"/>
        <path id="Path_19001" data-name="Path 19001" d="M64.471,14.4,61.59,17.157c.125,1,.249,1.871.374,2.881,0,.624.125,1.247.125,1.871Z" transform="translate(8.849 3.363)" fill="#e29250"/>
        <path id="Path_19002" data-name="Path 19002" d="M66.282,13.2c-.748.624-1.622,1.123-2.382,1.746.249,1.123.374,2.258.624,3.38.5-1.746,1.123-3.505,1.746-5.127" transform="translate(9.42 3.066)" fill="#fbd3a1"/>
        <path id="Path_19003" data-name="Path 19003" d="M61.884,12.09c-.5,2.133-1,4.129-1.5,6.262a15.119,15.119,0,0,1-2.507-.5c1.247-2.008,2.632-3.879,4-5.75" transform="translate(7.931 2.791)" fill="#e38c48"/>
        <path id="Path_19004" data-name="Path 19004" d="M61.539,11.69c.5,1.372,1.123,2.757,1.622,4-1.123.748-2.258,1.622-3.38,2.382l1.746-6.387Z" transform="translate(8.401 2.692)" fill="#f7bf86"/>
        <path id="Path_19005" data-name="Path 19005" d="M63.2,14.9l-2.008,5.875c-.5-1.123-1-2.382-1.5-3.505,1.123-.873,2.382-1.622,3.505-2.382" transform="translate(8.379 3.484)" fill="#fbd2a7"/>
        <path id="Path_19006" data-name="Path 19006" d="M65.994,11.09c-.624,1.5-1.123,3.006-1.746,4.5-.748.624-1.5,1.5-2.258,2.133a18.836,18.836,0,0,0,.624-2.008,8.878,8.878,0,0,0,.249-3.505c1-.249,2.008-.748,3.131-1.123" transform="translate(8.948 2.544)" fill="#eb8d3c"/>
        <path id="Path_19007" data-name="Path 19007" d="M65.121,7.082c.125,1.746.249,3.505.374,5.251l-1.5.748H63L65.133,7.07Z" transform="translate(9.198 1.549)" fill="#d96725"/>
        <path id="Path_19008" data-name="Path 19008" d="M60.79,11.913c1-.374,2.133-.748,3.131-1.123-.374,1.871-.873,3.879-1.247,5.75-.624-1.5-1.247-3.131-1.871-4.628" transform="translate(8.651 2.47)" fill="#fbd297"/>
        <path id="Path_19009" data-name="Path 19009" d="M62.415,9.69c.5.624.873,1.372,1.372,2.008-.873.125-1.622.249-2.507.374.374-.873.748-1.622,1.123-2.382" transform="translate(8.772 2.197)" fill="#f9c48b"/>
        <path id="Path_19010" data-name="Path 19010" d="M65.4,11.19a19.038,19.038,0,0,0,.873,2.382c-.748.624-1.622,1.123-2.382,1.746.374-1.372,1-2.757,1.5-4.129" transform="translate(9.418 2.569)" fill="#fccb8f"/>
        <path id="Path_19011" data-name="Path 19011" d="M65.349,7.38c.374,1.5.748,2.881,1.123,4.378-.5.125-.873.374-1.372.5,0-1.622.125-3.256.249-4.877" transform="translate(9.717 1.626)" fill="#fcd296"/>
        <path id="Path_19012" data-name="Path 19012" d="M66.482,10.89c-.249,1.247-.5,2.507-.748,3.63-.249-1-.374-2.133-.624-3.131.374-.125.873-.374,1.372-.5" transform="translate(9.72 2.494)" fill="#fcd9a8"/>
        <path id="Path_19013" data-name="Path 19013" d="M64.8,7.329c.748-.125,1.372-.125,2.133-.249-.125,1.5-.249,3.131-.374,4.628-.624-1.372-1.123-2.881-1.746-4.378" transform="translate(9.643 1.552)" fill="#fddeb6"/>
        <path id="Path_19014" data-name="Path 19014" d="M65.934,3.47c-.249,1.5-.5,3.006-.624,4.378l1.5,1.5c-.249-1.871-.624-3.879-.873-5.875Z" transform="translate(9.769 0.659)" fill="none" stroke="#fdfbfb" stroke-miterlimit="10" stroke-width="1"/>
        <path id="Path_19015" data-name="Path 19015" d="M65.758,3.06c.249,2.258.624,4.628.873,6.885A10.772,10.772,0,0,0,65.01,8.2l.748-5.127Z" transform="translate(9.695 0.557)" fill="#fbcea0"/>
        <path id="Path_19016" data-name="Path 19016" d="M65.61,2.56c.5.5,1.123.873,1.622,1.372-.249,2.382-.5,4.877-.748,7.26-.249-2.881-.624-5.75-.873-8.632" transform="translate(9.843 0.434)" fill="#fde4c3"/>
        <path id="Path_19017" data-name="Path 19017" d="M65.61,3.966c.249-.873.624-1.622.873-2.507.249-.125.624-.374.873-.5-.125,1.372-.249,2.881-.249,4.254a13.212,13.212,0,0,0-1.5-1.247" transform="translate(9.843 0.038)" fill="#fee9d7"/>
        <path id="Path_19018" data-name="Path 19018" d="M65.71.16a13.149,13.149,0,0,0,.873,1.372c.249-.125.5-.374.748-.5-.5-.249-1-.5-1.622-.873" transform="translate(9.868 -0.16)" fill="#fcdfbc"/>
        <path id="Path_19019" data-name="Path 19019" d="M66.133.26V4.015c-.748-1-1.372-1.871-2.133-2.881C64.748.884,65.372.509,66.133.26" transform="translate(9.445 -0.135)" fill="#f08b51"/>
        <path id="Path_19020" data-name="Path 19020" d="M66.38,3.841,63,3.093,64.247.96c.748,1,1.5,1.871,2.133,2.881" transform="translate(9.198 0.038)" fill="#e0723a"/>
        <path id="Path_19021" data-name="Path 19021" d="M66.206,3.37c-.249.748-.5,1.372-.748,2.133-.748-.125-1.5-.125-2.258-.249,1-.624,2.008-1.247,3.006-1.871" transform="translate(9.247 0.634)" fill="#e6733b"/>
        <path id="Path_19022" data-name="Path 19022" d="M64.9,5.465l.5,2.507c.249-1.622.374-3.38.624-5-.5.873-.748,1.746-1.123,2.507" transform="translate(9.668 0.535)" fill="#f29961"/>
        <path id="Path_19023" data-name="Path 19023" d="M64.974,5.17c-.125,1-.249,1.871-.374,2.881.125,1.622.374,3.256.5,4.752.125-1.622.249-3.256.249-4.877a18.613,18.613,0,0,0-.374-2.757" transform="translate(9.594 1.079)" fill="#ea8245"/>
        <path id="Path_19024" data-name="Path 19024" d="M63.6,4.87v.5c.374,1,.873,1.871,1.247,2.881.125-1.123.249-2.258.374-3.38H63.6" transform="translate(9.346 1.005)" fill="#d45b28"/>
        <path id="Path_19025" data-name="Path 19025" d="M63.674,5.27c-.125,1.247-.249,2.632-.374,3.879.5-.249,1.123-.624,1.622-.873l.125-.873c-.374-.624-.873-1.372-1.372-2.133" transform="translate(9.272 1.104)" fill="#d45b28"/>
        <path id="Path_19026" data-name="Path 19026" d="M64.922,7.58c-.5,1.622-1.123,3.131-1.622,4.752V8.578l1.622-1Z" transform="translate(9.272 1.675)" fill="#d96725"/>
        <path id="Path_19027" data-name="Path 19027" d="M60.187,11.89V15.4c-.748.873-1.5,1.871-2.258,2.757A20.4,20.4,0,0,1,57.68,15.4c.873-1.247,1.622-2.382,2.507-3.505" transform="translate(7.882 2.742)" fill="#d9823d"/>
        <path id="Path_19028" data-name="Path 19028" d="M59.69,12.387h1.746c-.5-.5-1.123-1-1.622-1.5,0,.5-.125,1-.125,1.5" transform="translate(8.379 2.494)" fill="#d57630"/>
        <path id="Path_19029" data-name="Path 19029" d="M60.042,6.68c.624.873,1.123,1.871,1.746,2.757-.624,1-1.372,2.008-2.008,3.006V8.938a11.431,11.431,0,0,1,.249-2.258" transform="translate(8.401 1.453)" fill="#dc7337"/>
        <path id="Path_19030" data-name="Path 19030" d="M60.866,5.47a3.9,3.9,0,0,0,1.247.624c0,1.372-.125,2.757-.125,4.129A26.792,26.792,0,0,0,59.98,6.967c.249-.5.624-1,.873-1.5" transform="translate(8.451 1.154)" fill="#df7b36"/>
        <path id="Path_19031" data-name="Path 19031" d="M62.19,7.3a15.8,15.8,0,0,1,1.372,1.622c.125-1.247.249-2.507.374-3.755l-.873.249a13.4,13.4,0,0,1-.873,1.871" transform="translate(8.997 1.079)" fill="#feeed4"/>
        <path id="Path_19032" data-name="Path 19032" d="M62.325,6.98c0,1.123-.125,2.258-.125,3.256.5-.624,1-1.123,1.5-1.746l-1.372-1.5Z" transform="translate(9 1.527)" fill="#fce3c0"/>
        <path id="Path_19033" data-name="Path 19033" d="M61.464,8.78a12.465,12.465,0,0,1,1,1.746,12.974,12.974,0,0,1-1.372,2.133c.125-1.247.249-2.507.374-3.879" transform="translate(8.725 1.972)" fill="#f09759"/>
        <path id="Path_19034" data-name="Path 19034" d="M62.09,4.792c0,.873.125,1.746.125,2.632.249-.624.624-1.123.873-1.746l-.249-1a1.854,1.854,0,0,0-.748.125" transform="translate(8.973 0.958)" fill="#fbcba4"/>
        <path id="Path_19035" data-name="Path 19035" d="M62.671,4.77c-.249.624-.374,1.123-.624,1.746-.374-.249-.873-.624-1.247-.873a2.825,2.825,0,0,1,.873-.748,3.1,3.1,0,0,1,1-.125" transform="translate(8.654 0.98)" fill="#ec8548"/>
        <path id="Path_19036" data-name="Path 19036" d="M61.739,5.97c.249.5.5,1,.748,1.622a17.177,17.177,0,0,1-1,2.133c.125-1.372.125-2.507.249-3.755" transform="translate(8.824 1.277)" fill="#f28e5b"/>
        <path id="Path_19037" data-name="Path 19037" d="M60.99,9.9l1.5,1c0-1.247.125-2.507.125-3.63-.5.873-1,1.746-1.622,2.632" transform="translate(8.701 1.599)" fill="#f5a975"/>
        <path id="Path_19038" data-name="Path 19038" d="M28.39,30.224l6.761-.374c-2.258,1.622-4.5,3.131-6.636,4.752-.125-1.5-.125-3.006-.125-4.378" transform="translate(0.636 7.184)" fill="#c88a51"/>
        <path id="Path_19039" data-name="Path 19039" d="M29.3,26.84c-2.507,1.123-5.127,2.382-7.634,3.505l8.632.748c2.133-.249,4.254-.374,6.387-.624-2.382-1.123-4.877-2.382-7.384-3.63" transform="translate(-1.026 6.44)" fill="#c0692c"/>
        <path id="Path_19040" data-name="Path 19040" d="M42.03,20.42c3.505.624,7.01,1.123,10.515,1.746-2.133.873-4.254,1.622-6.262,2.507-1.5-1.372-2.881-2.881-4.254-4.254" transform="translate(4.01 4.852)" fill="#ca7137"/>
        <path id="Path_19041" data-name="Path 19041" d="M24.429,23.875c2.382-1.372,4.5-2.382,6.885-3.755,2.632,1.5,5.251,3.131,7.759,4.628L28.683,28.877c-1.5-1.5-3.006-3.38-4.5-4.877l.249-.125Z" transform="translate(-0.405 4.778)" fill="#cb692d"/>
        <path id="Path_19042" data-name="Path 19042" d="M68.634,9.382c-.249.374-.374.624-.624,1,.873.374,1.5.624,2.382,1A26.217,26.217,0,0,1,68.646,9.37" transform="translate(10.437 2.118)" fill="#cd5e27"/>
        <path id="Path_19043" data-name="Path 19043" d="M37.02,23.53c3.256,1.372,6.387,2.757,9.63,4.129-2.507.624-5.127,1.247-7.634,1.871-1-1.871-2.008-3.755-3.006-5.626a8.6,8.6,0,0,1,1-.374" transform="translate(2.521 5.621)" fill="#a15220"/>
        <path id="Path_19044" data-name="Path 19044" d="M23.872,33.709c2.008-.125,3.755-.125,5.875-.249-.748.748-1.372,1.622-2.133,2.382L23.86,33.709Z" transform="translate(-0.484 8.077)" fill="#daa069"/>
        <path id="Path_19045" data-name="Path 19045" d="M54.17,5.995C54.918,7.117,55.542,8.377,56.3,9.5c.125-1.247.249-2.382.374-3.63a17.652,17.652,0,0,1-2.507.125" transform="translate(7.014 1.252)" fill="#f8b881"/>
        <path id="Path_19046" data-name="Path 19046" d="M23.87,33.66c1.372.374,2.881,1,4.254,1.5-.873,1.247-1.871,2.382-2.757,3.63-.5-1.746-1-3.505-1.5-5.127h0" transform="translate(-0.482 8.127)" fill="#eab788"/>
        <path id="Path_19047" data-name="Path 19047" d="M55.77,9.226c.5.125,1,.374,1.5.5.249-.748.374-1.5.624-2.258l-.748-.748c-.249-.249-.624-.5-.873-.748a25.445,25.445,0,0,0-.5,3.256" transform="translate(7.409 1.277)" fill="#fcdbba"/>
        <path id="Path_19048" data-name="Path 19048" d="M56.667,8.58c.5.249.873.374,1.372.624a17.192,17.192,0,0,1-2.133,2.008A14.892,14.892,0,0,1,52.65,13.22c1.247-1.622,2.632-3.131,4-4.628" transform="translate(6.638 1.923)" fill="#f9bb8e"/>
        <path id="Path_19049" data-name="Path 19049" d="M54.393,5.97c-.374,2.507-.748,4.877-1.123,7.384,1-1.372,2.133-2.632,3.131-4L54.393,5.97Z" transform="translate(6.791 1.277)" fill="#f2a069"/>
        <path id="Path_19050" data-name="Path 19050" d="M54.766,5.97c-1,.374-2.008.624-3.006,1,.624,2.133,1.247,4.254,1.871,6.387.374-2.507.748-4.877,1.123-7.384" transform="translate(6.417 1.277)" fill="#e68148"/>
        <path id="Path_19051" data-name="Path 19051" d="M52.232,6.78c-.748,1.247-1.5,2.632-2.382,3.879,1.372.873,2.757,1.622,4.129,2.507-.5-2.133-1.123-4.254-1.746-6.387" transform="translate(5.945 1.478)" fill="#e37942"/>
        <path id="Path_19052" data-name="Path 19052" d="M47.45,9.4c1,.374,2.008.873,3.006,1.247.748-1.247,1.5-2.632,2.382-3.879-1.746.873-3.63,1.746-5.376,2.632" transform="translate(5.351 1.475)" fill="#e07d3e"/>
        <path id="Path_19053" data-name="Path 19053" d="M50.26,9.69c.249,1.5.5,3.006.873,4.5,1-.624,2.008-1.247,3.006-1.871A25.6,25.6,0,0,1,50.26,9.69" transform="translate(6.046 2.197)" fill="#e07744"/>
        <path id="Path_19054" data-name="Path 19054" d="M45.94,9.827c.873-.374,1.622-.873,2.507-1.247.624,1.123,1.372,2.133,2.008,3.256l-4.5-2.008Z" transform="translate(4.978 1.923)" fill="#e29652"/>
        <path id="Path_19055" data-name="Path 19055" d="M49.422,11.085a36.961,36.961,0,0,0,2.258,3.38c-.249-1.5-.5-3.006-.873-4.5-.873-.5-1.871-.873-2.757-1.372A10.035,10.035,0,0,0,49.422,11.1" transform="translate(5.5 1.925)" fill="#d66229"/>
        <path id="Path_19056" data-name="Path 19056" d="M49.05,10.99c0,1.247.125,2.507.125,3.755a16.009,16.009,0,0,0,2.133-.873l-1.871-2.757a.458.458,0,0,1-.374-.125" transform="translate(5.747 2.519)" fill="#e0834d"/>
        <path id="Path_19057" data-name="Path 19057" d="M46.686,9.58c-1.123.249-2.133.374-3.256.624,2.382,1.622,4.877,3.256,7.26,4.877-1.372-1.746-2.757-3.63-4-5.5" transform="translate(4.357 2.17)" fill="#f6b071"/>
        <path id="Path_19058" data-name="Path 19058" d="M43.887,9.99H41.13l2.507,1.622a16.349,16.349,0,0,1,2.382-.624c-.748-.374-1.5-.624-2.133-1" transform="translate(3.788 2.272)" fill="#fbce99"/>
        <path id="Path_19059" data-name="Path 19059" d="M36.629,11.892c1.5.249,2.881.624,4.254.873-2.757,1.746-5.5,3.38-8.382,5.127,1.372-2.008,2.757-4,4.129-6.012h0Z" transform="translate(1.653 2.739)" fill="#f6c88f"/>
        <path id="Path_19060" data-name="Path 19060" d="M45.562,23.832c2.258.125,4.5.249,6.885.374.249.5.624,1.123.873,1.622q-4.7.936-9.38,1.871a32.354,32.354,0,0,1,1.622-3.879" transform="translate(4.483 5.693)" fill="#9a491a"/>
        <path id="Path_19061" data-name="Path 19061" d="M56.362,22.954c.873-.249,1.622-.374,2.507-.624-.873.624-1.622,1.247-2.507,2.008-1.746.624-3.256,1.247-5,1.871,1.746-1.123,3.256-2.133,5-3.256" transform="translate(6.318 5.324)" fill="#ad612e"/>
        <path id="Path_19062" data-name="Path 19062" d="M59.29,21.965c.374.125.624.249,1,.374,1.372-.873,2.757-1.746,4.129-2.507-.125-.5-.125-1.123-.249-1.622L59.29,21.965" transform="translate(8.28 4.305)" fill="#a44e1f"/>
        <path id="Path_19063" data-name="Path 19063" d="M43.242,15.9c1.871-.5,3.879-1,5.75-1.5,1.5.125,3.131.374,4.628.5-2.133,1.5-4.254,3.131-6.387,4.628-1.372-1.247-2.757-2.507-4-3.63" transform="translate(4.307 3.363)" fill="#f5c18a"/>
        <path id="Path_19064" data-name="Path 19064" d="M46.04,9.58c1.247.374,2.632.873,3.879,1.247,0,1.372.125,2.881.125,4.254-1.372-1.746-2.757-3.63-4-5.5" transform="translate(5.002 2.17)" fill="#f2a66a"/>
        <path id="Path_19065" data-name="Path 19065" d="M59.69,11.89h1.871c-.624,1.123-1.247,2.382-1.871,3.505V11.89Z" transform="translate(8.379 2.742)" fill="#de8240"/>
        <path id="Path_19066" data-name="Path 19066" d="M45.138,10.59c-.624.249-1.372.624-2.008.873.5,1,.873,2.008,1.372,2.881,1.622.374,3.256.748,5,1.123.374-.125.873-.374,1.247-.5L45.126,10.59Z" transform="translate(4.283 2.42)" fill="#fac271"/>
        <path id="Path_19067" data-name="Path 19067" d="M57.88,16.61c.125.5.249,1.123.374,1.622.624-.5,1.247-.873,2.008-1.372a17.018,17.018,0,0,0-2.382-.249" transform="translate(7.931 3.909)" fill="#de8646"/>
        <path id="Path_19068" data-name="Path 19068" d="M65.71.16a13.149,13.149,0,0,0,.873,1.372L65.71,3.915Z" transform="translate(9.868 -0.16)" fill="#fbcda4"/>
        <path id="Path_19069" data-name="Path 19069" d="M62.189,4.77c.125,1,.125,2.133.249,3.131L61.69,6.4c.125-.624.374-1.123.5-1.622" transform="translate(8.874 0.98)" fill="#f5a066"/>
        <path id="Path_19070" data-name="Path 19070" d="M62.8,4.57h1c0,.249.125.5.125.748a1.722,1.722,0,0,0-.374.5c-.125-.125-.249-.125-.374-.249-.249-.249-.249-.624-.374-1" transform="translate(9.148 0.931)" fill="#feeed4"/>
        <path id="Path_19071" data-name="Path 19071" d="M70.72,4.443c.748-.249,1.5-.624,2.258-.873V7.824c-.748-1.123-1.5-2.258-2.258-3.38" transform="translate(11.108 0.684)" fill="#f5a066"/>
        <path id="Path_19072" data-name="Path 19072" d="M71.52,8.95c.5.748,1,1.5,1.5,2.258.249-.873.5-1.746.748-2.757-.374-.624-.873-1.247-1.247-1.871l-1,2.382Z" transform="translate(11.305 1.428)" fill="#f5a066"/>
        <path id="Path_19073" data-name="Path 19073" d="M73.7,5.27c.125.125.374.249.5.5L73.577,8.9C73.2,8.276,72.7,7.652,72.33,7.029A9.419,9.419,0,0,1,73.7,5.282" transform="translate(11.506 1.104)" fill="#f5a066"/>
        <path id="Path_19074" data-name="Path 19074" d="M72.577,3.572l2.008.873a8.068,8.068,0,0,1-.5,1.622c-.624.374-1.123.624-1.746,1,.125-1.123.125-2.382.249-3.505" transform="translate(11.508 0.681)" fill="#f5a066"/>
        <path id="Path_19075" data-name="Path 19075" d="M71.919,8.08c.374.873.873,1.871,1.247,2.757-1,.249-1.746.5-2.757.748a29.6,29.6,0,0,0,1.5-3.505" transform="translate(11.031 1.799)" fill="#f5a066"/>
        <path id="Path_19076" data-name="Path 19076" d="M72.952,10.59c.125,1,.125,2.008.249,3.006l-1.871.748c.5-1.247,1-2.507,1.622-3.755" transform="translate(11.258 2.42)" fill="#b94d1c"/>
        <path id="Path_19077" data-name="Path 19077" d="M74.4,9.69l.624,3.131c-.748.374-1.5.624-2.258,1-.125-1-.125-2.008-.249-3.006A12.323,12.323,0,0,0,74.391,9.69" transform="translate(11.553 2.197)" fill="#d76730"/>
        <path id="Path_19078" data-name="Path 19078" d="M76.605,11.79c-2.258,2.133-4.628,4.254-6.885,6.387l1.871-4.129c1.622-.748,3.505-1.5,5-2.258" transform="translate(10.86 2.717)" fill="#c86126"/>
        <path id="Path_19079" data-name="Path 19079" d="M75.889,9.58c.249.748.624,1.622.873,2.382-.748.5-1.5,1-2.258,1.5-.125-1.247-.249-2.507-.374-3.755.5,0,1.123-.125,1.746-.125" transform="translate(11.951 2.17)" fill="#e87c47"/>
        <path id="Path_19080" data-name="Path 19080" d="M74.979,12.09l.374,1.5c-.748.5-1.372,1-2.133,1.5V13.712l1.746-1.622Z" transform="translate(11.726 2.791)" fill="#d78243"/>
        <path id="Path_19081" data-name="Path 19081" d="M74.275,13.5c.249.249.624.374.873.624a31.962,31.962,0,0,1-3.63,2.757c-.748.374-1.372.873-2.008,1.123,1.622-1.5,3.256-3.006,4.752-4.5" transform="translate(10.808 3.14)" fill="#d78243"/>
        <path id="Path_19082" data-name="Path 19082" d="M75.54,9.582c.624.125,1.247.249,1.746.374a10.391,10.391,0,0,1-.5,1.871c-.125,0-.374.125-.5.125A18.052,18.052,0,0,0,75.54,9.57" transform="translate(12.3 2.168)" fill="#f9bf90"/>
        <path id="Path_19083" data-name="Path 19083" d="M74.778,12.687c-.249.748-.5,1.372-.748,2.133,1-.748,1.871-1.372,2.881-2.133l.374-1.5c-.748.374-1.622,1-2.507,1.5" transform="translate(11.926 2.569)" fill="#de7e61"/>
        <path id="Path_19084" data-name="Path 19084" d="M77.114,9.89c.125.5.249.873.374,1.372-.249.125-.5.125-.748.249.125-.624.249-1.123.374-1.622" transform="translate(12.597 2.247)" fill="#fcddbf"/>
        <path id="Path_19085" data-name="Path 19085" d="M77.637,10.99c0,.249-.125.624-.125.873-.5.374-.873.748-1.372,1.123.249-.624.5-1.123.748-1.746a1.773,1.773,0,0,1,.748-.249" transform="translate(12.448 2.519)" fill="#f1a87f"/>
        <path id="Path_19086" data-name="Path 19086" d="M62.011,8.48,59.89,11.611l1.247,1h.374Z" transform="translate(8.429 1.898)" fill="#de793b"/>
      </g>
      <path id="Path_19087" data-name="Path 19087" d="M21.693,34.56c-.5,3.38-1,6.761-1.372,10.141H11.44c3.505-3.38,6.885-6.761,10.266-10.141" transform="translate(2.83 7.781)" fill="#bd662d"/>
      <path id="Path_19088" data-name="Path 19088" d="M15.005,44.9c-.249,2.008-.5,3.879-.748,5.875H9.13C11.138,48.9,13.009,46.9,15.005,44.9" transform="translate(2.258 10.146)" fill="#bd662d"/>
      <path id="Path_19089" data-name="Path 19089" d="M8.114,43.19c.5,1.746,1,3.38,1.622,5.127H4.11c1.372-1.746,2.757-3.505,4-5.127" transform="translate(1.017 9.723)" fill="#e7b382"/>
      <path id="Path_19090" data-name="Path 19090" d="M4.993,39.5c-.249,1.372-.624,2.757-.873,4,2.382-1.372,4.752-2.757,7.135-4.129-2.008,0-4.129.125-6.262.125" transform="translate(1.019 8.955)" fill="#d9863f"/>
      <path id="Path_19091" data-name="Path 19091" d="M15.85,50.151h5c.249-1.746.624-3.505.873-5.251-1.871,1.746-3.879,3.505-5.875,5.251" transform="translate(3.921 10.146)" fill="#eead65"/>
      <path id="Path_19092" data-name="Path 19092" d="M6.765,50.31l3.006,5H4.52c.624-1.746,1.5-3.38,2.258-5" transform="translate(1.118 11.484)" fill="#fcdcb5"/>
      <path id="Path_19093" data-name="Path 19093" d="M1.871,52.887C1.247,51.889.624,50.878,0,49.88c.873-1.123,1.622-2.258,2.507-3.38-.249,2.133-.5,4.254-.624,6.387" transform="translate(0 10.542)" fill="#eda860"/>
    </g>
    <g id="Artwork_19" data-name="Artwork 19" transform="translate(64.523 33.721)">
      <g id="Group_276" data-name="Group 276" clip-path="url(#clip-path-2)">
        <g id="Group_275" data-name="Group 275" clip-path="url(#clip-path-2)">
          <path id="Path_19094" data-name="Path 19094" d="M58.785,37.96a1.38,1.38,0,0,0-.162-.786.894.894,0,0,0-.162-.624c0-.312-.162-.474-.474-.624l-.162-.162a.292.292,0,0,1,0-.474c.162-.162.162-.312.312-.312a2.221,2.221,0,0,0,.474-1.422v-.948a2.525,2.525,0,0,1,.948-2.046,4.172,4.172,0,0,1,2.208-1.1h.624V27.42H51.85v2.046a5.21,5.21,0,0,1,2.208.624,3.663,3.663,0,0,1,1.572,1.884,3.374,3.374,0,0,1,.162,1.26v.624a1.8,1.8,0,0,0,.474,1.26l.312.312a.378.378,0,0,1-.162.624c-.162,0-.162.162-.312.162a1.179,1.179,0,0,0-.312.624,1.982,1.982,0,0,1-.162.948v.162c0,.162-.162.312-.312.474V40.63h3.929V38.422a1.088,1.088,0,0,1-.474-.474" transform="translate(-51.85 -27.42)" fill="#a19e9e"/>
        </g>
      </g>
    </g>
    <g id="Artwork_17" data-name="Artwork 17" transform="translate(76.548 35.884)">
      <g id="Group_284" data-name="Group 284" clip-path="url(#clip-path-4)">
        <g id="Group_283" data-name="Group 283">
          <g id="Group_277" data-name="Group 277" clip-path="url(#clip-path-4)">
            <path id="Path_19095" data-name="Path 19095" d="M68.507,37.807c.162.786.162,1.572.312,2.208H66.149a13.549,13.549,0,0,0,.312-5.039,1,1,0,0,0-.624-.948c-.312-.162-.474,0-.786.162-.162.162-.474.312-.474.624a5.062,5.062,0,0,0-.474,2.669c.162.948.312,1.734.474,2.669H61.908a24.183,24.183,0,0,0,.474-4.715V31.508a2.619,2.619,0,0,0-.786-2.046q-.162-.162,0-.162H64.59c.162,0,0,.312,0,.312,0,.312-.162.474-.162.786a2.588,2.588,0,0,0-.162,1.1c-.162.786-.162,1.422-.312,2.208v1.572A2.424,2.424,0,0,1,65.837,33.7a1.814,1.814,0,0,1,2.046,1.1,4.268,4.268,0,0,1,.162,1.422c.312.312.312.948.474,1.572" transform="translate(-61.584 -29.15)" fill="#a19e9e"/>
          </g>
          <g id="Group_278" data-name="Group 278" clip-path="url(#clip-path-4)">
            <path id="Path_19096" data-name="Path 19096" d="M72.625,38a1.131,1.131,0,0,0,.474-.948h.474a3.353,3.353,0,0,1-.624,1.734,2.491,2.491,0,0,1-1.884.624,3.158,3.158,0,0,1-2.358-.948A3.5,3.5,0,0,1,67.76,35.8a7.28,7.28,0,0,1,.312-2.046,1.837,1.837,0,0,1,1.1-1.1,3.422,3.422,0,0,1,1.884-.312c1.734,0,2.52.624,2.52,1.734a1.7,1.7,0,0,1-1.1,1.734,6.73,6.73,0,0,1-2.669.624,3.139,3.139,0,0,0,.624,1.422,1.425,1.425,0,0,0,1.1.474.961.961,0,0,0,1.1-.312M69.955,33.45a5.062,5.062,0,0,0-.312,1.884v.786a2.826,2.826,0,0,0,1.572-.624,1.527,1.527,0,0,0,.624-1.422,1.385,1.385,0,0,0-.312-.948,1.164,1.164,0,0,0-.786-.312.814.814,0,0,0-.786.624" transform="translate(-60.039 -28.398)" fill="#a19e9e"/>
          </g>
          <g id="Group_279" data-name="Group 279" clip-path="url(#clip-path-4)">
            <path id="Path_19097" data-name="Path 19097" d="M77.857,32.782l-.786,1.26c0-.162-.162-.312-.162-.474a.571.571,0,0,0-.474-.162,1.256,1.256,0,0,0-.786.312,3.034,3.034,0,0,0-.624.948,2.977,2.977,0,0,0-.162,1.26,2.245,2.245,0,0,0,.162,1.1,2.245,2.245,0,0,1,.162,1.1,3.458,3.458,0,0,1,.162,1.1H72.68c0-.312.162-.624.162-1.1a2.588,2.588,0,0,0,.162-1.1,2.982,2.982,0,0,1,.162-1.1,2.245,2.245,0,0,0-.162-1.1c0-.312-.162-.624-.162-1.1a3.458,3.458,0,0,1-.162-1.1h2.669c0,.312-.162.624-.162,1.1v.312a2.85,2.85,0,0,1,.786-1.1,1.425,1.425,0,0,1,1.1-.474c.162.162.624.162.786.312" transform="translate(-58.822 -28.366)" fill="#a19e9e"/>
          </g>
          <g id="Group_280" data-name="Group 280" clip-path="url(#clip-path-4)">
            <path id="Path_19098" data-name="Path 19098" d="M83.913,38.283l-.162.948h-.312c-.474,0-.948,0-1.1-.162a1.1,1.1,0,0,1-.624-.786,1.985,1.985,0,0,1-.786.786,3.079,3.079,0,0,1-1.422.312,3.34,3.34,0,0,1-1.884-.474,1.726,1.726,0,0,1-.786-1.572,1.425,1.425,0,0,1,.474-1.1,3.034,3.034,0,0,1,.948-.624,7.828,7.828,0,0,1,1.572-.312c.312-.162.624-.162.948-.312.162-.162.474-.162.624-.474a1.159,1.159,0,0,0,.162-.786c0-.312,0-.474-.162-.624a.571.571,0,0,0-.474-.162,3.256,3.256,0,0,0-1.26.474c-.636.312-1.1.624-1.734.948l-.624-1.26a10.512,10.512,0,0,1,1.26-.474,5.736,5.736,0,0,1,1.734-.162,4.631,4.631,0,0,1,2.208.474,1.726,1.726,0,0,1,.786,1.572v2.046a3.464,3.464,0,0,0,.162,1.422.422.422,0,0,0,.474.474c-.312,0-.162-.162,0-.162m-2.994,0a4.049,4.049,0,0,0,.312-2.046v-.786c-.474.162-.948.162-1.26.312a2,2,0,0,0-1.572,2.046,1.784,1.784,0,0,0,.312.948.966.966,0,0,0,.948.474,1.978,1.978,0,0,0,1.26-.948" transform="translate(-57.793 -28.366)" fill="#a19e9e"/>
          </g>
          <g id="Group_281" data-name="Group 281" clip-path="url(#clip-path-4)">
            <path id="Path_19099" data-name="Path 19099" d="M88.862,33.209a3.864,3.864,0,0,1,.786,2.669,4.149,4.149,0,0,1-.786,2.669,3.7,3.7,0,0,1-2.52.786h-.624c-.162,0-.312-.162-.474-.162a.515.515,0,0,1-.312-.162,1.159,1.159,0,0,0,.162.786c0,.312.162.474.162.948.162.474.162,1.1.312,1.26H82.9a3.417,3.417,0,0,1,.162-1.1,2.982,2.982,0,0,0,.162-1.1V35.092c0-.312-.162-.624-.162-1.1a3.458,3.458,0,0,1-.162-1.1h2.669v.312a1.8,1.8,0,0,1,1.26-.474,1.912,1.912,0,0,1,2.046.474m-1.26,5.039a4.74,4.74,0,0,0,.312-2.358,8.813,8.813,0,0,0-.312-2.358c-.312-.474-.624-.786-1.1-.786a1.2,1.2,0,0,0-1.26.948,2.982,2.982,0,0,0-.162,1.1v1.26a5.968,5.968,0,0,0,.312,1.734,4.77,4.77,0,0,0,.474.948,1.19,1.19,0,0,0,.786.312c.312,0,.624-.312.948-.786" transform="translate(-56.294 -28.332)" fill="#a19e9e"/>
          </g>
          <g id="Group_282" data-name="Group 282" clip-path="url(#clip-path-4)">
            <path id="Path_19100" data-name="Path 19100" d="M95.154,33.663a2.982,2.982,0,0,0-.162,1.1v4.4a2.146,2.146,0,0,1-.948,2.046A4.521,4.521,0,0,1,92,41.833a6.335,6.335,0,0,1-1.734-.162,11.289,11.289,0,0,1-1.572-.624l.948-1.422.162.312a3.162,3.162,0,0,0,.948,1.1c.324.15.624.474,1.1.474s.786-.312,1.1-.786a3.139,3.139,0,0,0,.312-1.734v-1.1a2.85,2.85,0,0,1-.786,1.1,1.8,1.8,0,0,1-1.26.474,1.976,1.976,0,0,1-1.422-.474,3.035,3.035,0,0,1-.624-.948A3.4,3.4,0,0,1,89,36.619V34.885c0-.312-.162-.624-.162-1.1a3.458,3.458,0,0,1-.162-1.1h2.669c0,.312-.162.624-.162,1.1a2.982,2.982,0,0,0-.162,1.1v1.1c0,.786.162,1.422.162,1.884.162.474.474.786.786.786s.474-.162.786-.474l.474-.948a2.982,2.982,0,0,0,.162-1.1h0v-1.1c0-.312-.162-.624-.162-1.1a3.458,3.458,0,0,1-.162-1.1H95.74c-.474,0-.474.312-.624.786" transform="translate(-54.864 -28.312)" fill="#a19e9e"/>
          </g>
        </g>
      </g>
    </g>
    <g id="Artwork_18" data-name="Artwork 18" transform="translate(91.03 49.917)">
      <g id="Group_289" data-name="Group 289" clip-path="url(#clip-path-11)">
        <g id="Group_288" data-name="Group 288">
          <g id="Group_285" data-name="Group 285" clip-path="url(#clip-path-11)">
            <path id="Path_19101" data-name="Path 19101" d="M80.788,46.326v1.1c0,.312.162.624.162,1.1a3.458,3.458,0,0,1,.162,1.1H79.067a1.38,1.38,0,0,1,.162-.786.7.7,0,0,1,.162-.474v-.312a2.313,2.313,0,0,1-2.52,1.734,4.378,4.378,0,0,1-2.046-.474A3.545,3.545,0,0,1,73.4,47.735a6.014,6.014,0,0,1-.474-2.52,5.058,5.058,0,0,1,.948-3.468,3.84,3.84,0,0,1,3.143-1.1,3.972,3.972,0,0,1,2.046.474,2.713,2.713,0,0,1,1.1,1.26l-.786,1.26a2.247,2.247,0,0,1-.474-.624,3.607,3.607,0,0,1-.474-.786c-.162-.312-.312-.474-.312-.624l-.474-.474a.926.926,0,0,0-.624-.162,1.723,1.723,0,0,0-1.572.948,6.1,6.1,0,0,0-.624,2.669,5.956,5.956,0,0,0,.624,3.143,1.7,1.7,0,0,0,1.734,1.1,1.976,1.976,0,0,0,1.422-.474,1.94,1.94,0,0,0,.624-1.26.571.571,0,0,0-.162-.474c0-.162-.162-.312-.312-.474s-.312-.312-.312-.474c-.162-.162-.162-.312-.162-.624h2.358l.162,1.26h0Z" transform="translate(-73.242 -40.662)" fill="#a19e9e"/>
          </g>
          <g id="Group_286" data-name="Group 286" clip-path="url(#clip-path-11)">
            <path id="Path_19102" data-name="Path 19102" d="M86.059,43.816a2.982,2.982,0,0,0-.162,1.1v4.254a2.322,2.322,0,0,1-.948,2.046,4.474,4.474,0,0,1-2.046.624,4.725,4.725,0,0,1-1.572-.162,11.29,11.29,0,0,1-1.572-.624l.948-1.26.162.312a6.075,6.075,0,0,0,.948,1.1,1.171,1.171,0,0,0,.948.312.875.875,0,0,0,.948-.624,5.512,5.512,0,0,0,.312-1.734v-1.1a2.32,2.32,0,0,1-2.046,1.572,1.565,1.565,0,0,1-1.26-.474,3.035,3.035,0,0,1-.624-.948,2.977,2.977,0,0,1-.162-1.26V45.375c0-.312-.162-.624-.162-1.1a2.982,2.982,0,0,1-.162-1.1h2.52c0,.312-.162.624-.162,1.1a2.982,2.982,0,0,0-.162,1.1v1.1a6.233,6.233,0,0,0,.162,1.884c.162.462.474.786.786.786a.819.819,0,0,0,.624-.312,5.533,5.533,0,0,0,.474-.948,2.616,2.616,0,0,0,.162-1.1h0v-1.1c0-.312-.162-.624-.162-1.1a2.982,2.982,0,0,1-.162-1.1h2.52c0-.624,0-.162-.162.312" transform="translate(-71.589 -40.037)" fill="#a19e9e"/>
          </g>
          <g id="Group_287" data-name="Group 287" clip-path="url(#clip-path-11)">
            <path id="Path_19103" data-name="Path 19103" d="M95.7,47.019c0,.312.162.624.162.948a3.458,3.458,0,0,1,.162,1.1H93.5c0-.312.162-.624.162-1.1a1.934,1.934,0,0,0,.162-.948v-1.1a5.777,5.777,0,0,0-.162-1.734.8.8,0,0,0-.786-.624c-.312,0-.474.162-.786.312l-.474.948a2.588,2.588,0,0,0-.162,1.1v1.1c0,.312.162.624.162.948a3.458,3.458,0,0,1,.162,1.1h-2.52c0-.312.162-.624.162-1.1a1.934,1.934,0,0,0,.162-.948v-1.1a5.257,5.257,0,0,0-.162-1.734.8.8,0,0,0-.786-.624.819.819,0,0,0-.624.312,2.609,2.609,0,0,0-.474.948,2.982,2.982,0,0,0-.162,1.1v1.422c0,.312.162.624.162.948a3.458,3.458,0,0,1,.162,1.1H85.18c0-.312.162-.624.162-1.1a1.934,1.934,0,0,0,.162-.948V45.135c0-.312-.162-.624-.162-.948a3.458,3.458,0,0,1-.162-1.1H87.7a1.648,1.648,0,0,1-.162.786,2.187,2.187,0,0,1,1.572-.786,1.976,1.976,0,0,1,1.422.474,1.936,1.936,0,0,1,.474,1.422,5.883,5.883,0,0,1,.624-1.422,1.527,1.527,0,0,1,1.422-.624,1.548,1.548,0,0,1,1.26.474,3.035,3.035,0,0,1,.624.948,2.977,2.977,0,0,1,.162,1.26V46.1a.808.808,0,0,1,.624.948" transform="translate(-70.212 -40.096)" fill="#a19e9e"/>
          </g>
        </g>
      </g>
    </g>
    <g id="Group_290" data-name="Group 290" transform="translate(63.488 63.763)">
      <path id="Path_19104" data-name="Path 19104" d="M57.688,56.842h0a.486.486,0,0,0-.312-.162h-.162a.159.159,0,0,0-.162.162A.159.159,0,0,1,56.89,57v.312a.159.159,0,0,0,.162.162.159.159,0,0,1,.162.162h.312a.159.159,0,0,0,.162-.162.159.159,0,0,1,.162-.162v-.162a.428.428,0,0,0-.162-.312Z" transform="translate(-49.668 -50.543)" fill="#9a4c1a"/>
      <path id="Path_19105" data-name="Path 19105" d="M59.283,53.432H58.5V56.1H56.289V54.368a1.256,1.256,0,0,0-.312-.786,1.164,1.164,0,0,0-.786-.312h-1.1c-.312,0-.474.162-.786.312a1.19,1.19,0,0,0-.312.786V56.1h-.948V52.01H51.1v4.4a.515.515,0,0,0,.162.312.458.458,0,0,0,.312.162h6.449c.312,0,.474-.162.786-.312a1.19,1.19,0,0,0,.312-.786V53.432c.312.162.312,0,.162,0ZM55.5,56.1h-1.26V54.218h1.1V56.1H55.5Z" transform="translate(-51.1 -51.698)" fill="#9a4c1a"/>
      <path id="Path_19106" data-name="Path 19106" d="M56.678,56.842h0a.486.486,0,0,0-.312-.162H56.2a.159.159,0,0,0-.162.162A.159.159,0,0,1,55.88,57v.312a.159.159,0,0,0,.162.162.159.159,0,0,1,.162.162h.312a.159.159,0,0,0,.162-.162.159.159,0,0,1,.162-.162v-.162a.428.428,0,0,0-.162-.312Z" transform="translate(-49.918 -50.543)" fill="#9a4c1a"/>
      <path id="Path_19107" data-name="Path 19107" d="M59.332,52.558h0a.486.486,0,0,0,.312.162h.162a.159.159,0,0,0,.162-.162.159.159,0,0,1,.162-.162v-.312a.159.159,0,0,0-.162-.162.159.159,0,0,1-.162-.162h-.312a.159.159,0,0,0-.162.162.159.159,0,0,1-.162.162v.162c.162,0,.162.162.162.312Z" transform="translate(-49.104 -51.76)" fill="#9a4c1a"/>
      <path id="Path_19108" data-name="Path 19108" d="M65.21,54.066H62.067c0-.312.162-.474.162-.624.162-.162.162-.312.312-.312a.564.564,0,0,0,.312-.162h1.26V52.02h-.474a1.159,1.159,0,0,0-.786.162c-.312.162-.474.162-.624.312a2.247,2.247,0,0,0-.474.624c-.162.162-.162.474-.312.786V55h4.091v1.1H60.658V53.43h-1.1v3.929c0,.162,0,.312-.162.312,0,.162-.162.162-.162.312-.162,0-.162.162-.312.162H58.3v.948h.624c.162,0,.474-.162.624-.162l.474-.474a.8.8,0,0,0,.312-.624,1.159,1.159,0,0,0,.162-.786h5.663V55.163a1.256,1.256,0,0,0-.312-.786.8.8,0,0,0-.624-.312Z" transform="translate(-49.319 -51.696)" fill="#9a4c1a"/>
      <path id="Path_19109" data-name="Path 19109" d="M66.08,56.56h-.474a.428.428,0,0,0-.312.162.541.541,0,0,0-.162.312v.312H64.97v.312h.948v-.312h-.312v-.312h.312l.162-.474c.162.162.162,0,0,0h0Z" transform="translate(-47.669 -50.573)" fill="#9a4c1a"/>
      <path id="Path_19110" data-name="Path 19110" d="M68.4,52.02h-.786v4.091h-1.1V52.02h-.786v4.091H65.11v.948h2.669c.312,0,.474-.162.786-.312a1.19,1.19,0,0,0,.312-.786v-3.78a.642.642,0,0,1-.474-.162h0Z" transform="translate(-47.634 -51.696)" fill="#9a4c1a"/>
      <path id="Path_19111" data-name="Path 19111" d="M69.3,52.02H68.51v5.039h.948V52.182L69.3,52.02h0Z" transform="translate(-46.793 -51.696)" fill="#9a4c1a"/>
      <path id="Path_19112" data-name="Path 19112" d="M73.485,53.152h-1.1c-.312,0-.474.162-.786.312s-.312.474-.312.786v1.422a1.256,1.256,0,0,0,.312.786,1.164,1.164,0,0,0,.786.312h1.1c0,.312-.162.474-.162.624-.162.162-.162.312-.312.312a.486.486,0,0,1-.312.162H71.6v.948h.624a1.983,1.983,0,0,0,.948-.162c.324-.162.474-.162.624-.474.162-.162.312-.474.474-.624a1.934,1.934,0,0,0,.162-.948v-2.52a1.256,1.256,0,0,0-.312-.786c-.15-.162-.312-.162-.624-.162Zm0,2.669h-1.1V53.938h1.1Z" transform="translate(-46.106 -51.419)" fill="#9a4c1a"/>
      <path id="Path_19113" data-name="Path 19113" d="M77.372,52.558h0a.486.486,0,0,0,.312.162h.162a.159.159,0,0,0,.162-.162.159.159,0,0,1,.162-.162v-.312a.159.159,0,0,0-.162-.162.159.159,0,0,1-.162-.162h-.312a.159.159,0,0,0-.162.162.159.159,0,0,1-.162.162v.162a.564.564,0,0,1,.162.312Z" transform="translate(-44.641 -51.76)" fill="#9a4c1a"/>
      <path id="Path_19114" data-name="Path 19114" d="M76.362,52.558h0a.486.486,0,0,0,.312.162h.162A.159.159,0,0,0,77,52.558a.159.159,0,0,1,.162-.162v-.312A.159.159,0,0,0,77,51.922a.159.159,0,0,1-.162-.162h-.312a.159.159,0,0,0-.162.162.159.159,0,0,1-.162.162v.162c.162,0,.162.162.162.312Z" transform="translate(-44.891 -51.76)" fill="#9a4c1a"/>
      <path id="Path_19115" data-name="Path 19115" d="M80.778,56.842h0a.486.486,0,0,0-.312-.162H80.3a.159.159,0,0,0-.162.162A.159.159,0,0,1,79.98,57v.312a.159.159,0,0,0,.162.162.159.159,0,0,1,.162.162h.312a.159.159,0,0,0,.162-.162.159.159,0,0,1,.162-.162v-.162a.428.428,0,0,0-.162-.312Z" transform="translate(-43.956 -50.543)" fill="#9a4c1a"/>
      <path id="Path_19116" data-name="Path 19116" d="M79.768,56.842h0a.486.486,0,0,0-.312-.162h-.162a.159.159,0,0,0-.162.162A.159.159,0,0,1,78.97,57v.312a.159.159,0,0,0,.162.162.159.159,0,0,1,.162.162h.312a.159.159,0,0,0,.162-.162.159.159,0,0,1,.162-.162v-.162a.428.428,0,0,0-.162-.312Z" transform="translate(-44.206 -50.543)" fill="#9a4c1a"/>
      <path id="Path_19117" data-name="Path 19117" d="M82.292,52.558h0a.486.486,0,0,0,.312.162h.162a.159.159,0,0,0,.162-.162.159.159,0,0,1,.162-.162v-.312a.159.159,0,0,0-.162-.162.159.159,0,0,1-.162-.162h-.312a.159.159,0,0,0-.162.162.159.159,0,0,1-.162.162v.162a.463.463,0,0,0,.162.312Z" transform="translate(-43.424 -51.76)" fill="#9a4c1a"/>
      <path id="Path_19118" data-name="Path 19118" d="M84.636,53.152h-.948c-.312,0-.474.162-.786.312a1.19,1.19,0,0,0-.312.786v1.734H81.169V53.315h-.786v2.669H78.961V54.25a1.256,1.256,0,0,0-.312-.786,1.138,1.138,0,0,0-.624-.312h-1.1c-.312,0-.474.162-.786.312a1.19,1.19,0,0,0-.312.786v1.884a.515.515,0,0,0,.162.312.458.458,0,0,0,.312.162h8.183a.819.819,0,0,0,.624-.312,1.19,1.19,0,0,0,.312-.786V54.088a1.256,1.256,0,0,0-.312-.786c.162-.162-.162-.162-.474-.162Zm-6.611,2.669h-1.1V53.938h1.1Zm6.611,0h-1.1V53.938h1.1Z" transform="translate(-44.983 -51.419)" fill="#9a4c1a"/>
      <path id="Path_19119" data-name="Path 19119" d="M94.664,52.02h-.786v4.091H92.93v-.948a1.256,1.256,0,0,0-.312-.786,1.164,1.164,0,0,0-.786-.312H88.689v-.624h-.948v2.669h-.948V54.378a1.256,1.256,0,0,0-.312-.786,1.164,1.164,0,0,0-.786-.312H84.124v.948H85.7v1.884H83.65v.948h9.6a.819.819,0,0,0,.624-.312,1.19,1.19,0,0,0,.312-.786v-3.78q.624,0,.474-.162h0Zm-2.52,4.091H89v-1.1h3.143Z" transform="translate(-43.048 -51.696)" fill="#9a4c1a"/>
      <path id="Path_19120" data-name="Path 19120" d="M94.026,52.156H93.24V57.2h.948v-.162l-.162-4.877h0Z" transform="translate(-40.676 -51.682)" fill="#9a4c1a"/>
    </g>
  </g>
</svg>
