<svg xmlns="http://www.w3.org/2000/svg" width="215" height="71" viewBox="0 0 215 71">
  <g id="estrogym_2_" data-name="estrogym (2)" transform="translate(0 0.04)">
    <g id="Group_223" data-name="Group 223" transform="translate(0 -0.04)">
      <path id="Path_18860" data-name="Path 18860" d="M39.167,22.369c-.5-.63-.978-1.3-1.428-1.953-.914-1.3-1.827-2.583-2.766-3.88-.244-.334-.463-.681-.695-.989,0,0-2.149-2.827-4.143-3.379-1.235-.257-2.471-.5-3.706-.758a3.282,3.282,0,0,1,1.055-3.263s2.689.874,1.994-1.054c0,0,.579-.026.219-.5,0,0-.154-.116.077-.244a.351.351,0,0,0,.026-.63.214.214,0,0,1,.116-.218s.733-.154.733-.36a8.921,8.921,0,0,0-.914-1.632s.437-.244.437-.463h-.36A6.725,6.725,0,0,0,29.787,1.8,3.6,3.6,0,0,0,29.5.591.951.951,0,0,0,28.641,0H28.6c-.193.039-.373.1-.579.141L25.5,4.06v.026s.077-.026.077,0v.257s.631.244.695.283A1.3,1.3,0,0,1,26.2,6.771a3.405,3.405,0,0,1-.077,1.336c-.244.976-.618,1.9-.875,2.865a2.586,2.586,0,0,0,.618,2.724s3.487,3.3,1.531,10.831a5.639,5.639,0,0,0,2.213,6.116,5.851,5.851,0,0,1,2.213,3.533,10.256,10.256,0,0,1-.154,4.548s-1.93,11.088-2.29,14.608c0,0-1.094,11.345,2.831,17.319,0,0-3.706-11.7,0-23.525,0,0,2.007-7.645,1.994-8.441l.064.514s1.312-5.589,2.046-6.283c.836-1.683,1.686-3.353,2.522-5.049a9.609,9.609,0,0,0,1.338-3.045,3.279,3.279,0,0,0-.978-2.441ZM35.2,31.234l-1.055,1.233a5.006,5.006,0,0,0-1.132-2.505,21.71,21.71,0,0,0-2.3-2.685A5.2,5.2,0,0,1,29.542,25.9a2.726,2.726,0,0,1-.1-2.261A4.2,4.2,0,0,1,30.572,22c2.522-2.03.772-4.009.618-4.189,5.018,5.306,6.125,7.336,6.125,7.336l-2.11,6.1Z" transform="translate(7.194 0.051)" fill="#e94e46"/>
      <path id="Path_18861" data-name="Path 18861" d="M66.671,34.582l-.116-1.632-.026-.193-.026-.193-.039-.4-.1-.809a37.051,37.051,0,0,0-4-12.411A35.841,35.841,0,0,0,58.784,13.5c-.322-.437-.695-.835-1.029-1.246-.18-.193-.335-.411-.54-.617l-.553-.591-.553-.591-.592-.578-.579-.552q-.29-.27-.618-.54a35.155,35.155,0,0,0-11-6.617A34.226,34.226,0,0,0,37.166.521,32.281,32.281,0,0,0,30.9.033a42.068,42.068,0,0,1,5.97,1.593,39.889,39.889,0,0,1,5.6,2.4,37.974,37.974,0,0,1,9.573,7.118c.18.18.36.36.515.54l.5.552.5.552.476.578.476.578c.154.18.3.4.463.578.3.4.592.771.875,1.195a36.428,36.428,0,0,1,6.382,16.215l.077.732.039.36.026.18.026.18.116,1.452.039,1.465a6.949,6.949,0,0,1,0,.732v1.092l-.026.36-.039.732c-.039.5-.077.976-.116,1.452-.064.475-.116.976-.18,1.452s-.142.976-.244,1.452a37.7,37.7,0,0,1-1.557,5.666,6.39,6.39,0,0,1-.257.694l-.283.681c-.18.463-.4.9-.579,1.349-.1.218-.193.463-.322.681l-.322.681c-.219.437-.463.874-.695,1.311a38.823,38.823,0,0,1-7.347,9.392,38.02,38.02,0,0,1-4.761,3.79A51.1,51.1,0,0,1,40.5,70.943a31.407,31.407,0,0,0,5.906-2.107A34.568,34.568,0,0,0,51.874,65.6a35.769,35.769,0,0,0,8.853-9.277c.283-.463.579-.912.849-1.375l.4-.694c.142-.244.283-.475.4-.72l.373-.72c.116-.244.244-.475.36-.732l.335-.732c.116-.244.219-.5.322-.758a36.466,36.466,0,0,0,1.994-6.219,33.453,33.453,0,0,0,.849-6.476l.026-.809c0-.283.026-.54,0-.809l.026-1.67Z" transform="translate(8.86 0.057)" fill="#5c56a1"/>
      <path id="Path_18862" data-name="Path 18862" d="M35.733.05a30.5,30.5,0,0,0-6.2.463A34.42,34.42,0,0,0,12.378,8.774c-.193.18-.412.36-.618.54l-.579.552-.579.552c-.193.193-.373.4-.553.591L9.5,11.6c-.18.193-.36.411-.54.617a15.55,15.55,0,0,0-1.029,1.246,35.841,35.841,0,0,0-3.577,5.448,37.051,37.051,0,0,0-4,12.411l-.1.809-.039.4-.026.193-.026.193L.039,34.548,0,36.179v.809l.026.809a37.651,37.651,0,0,0,.849,6.476,35.361,35.361,0,0,0,1.994,6.219c.1.257.193.5.322.758l.335.732a7.725,7.725,0,0,0,.36.732l.373.72c.116.244.257.475.4.72l.4.694c.283.463.579.912.849,1.375A35.118,35.118,0,0,0,20.228,68.737a32.067,32.067,0,0,0,5.906,2.107,43.5,43.5,0,0,1-5.327-3.122,42.758,42.758,0,0,1-4.761-3.79A38.509,38.509,0,0,1,8.7,54.54Q8.332,53.884,8,53.229l-.322-.681c-.1-.218-.219-.437-.322-.681-.193-.463-.412-.9-.579-1.349L6.5,49.837c-.1-.218-.154-.463-.257-.694a37.7,37.7,0,0,1-1.557-5.666c-.1-.475-.154-.976-.244-1.452-.064-.475-.116-.976-.18-1.452-.039-.5-.077-.976-.116-1.452L4.1,38.389l-.026-.36V36.937a6.951,6.951,0,0,1,0-.732l.039-1.465.116-1.452.026-.18.026-.18.039-.36.077-.732A36.544,36.544,0,0,1,7.785,20.672a35.034,35.034,0,0,1,3-5.049c.283-.411.579-.8.875-1.195.154-.193.3-.4.463-.578l.476-.578.476-.578.5-.552.5-.552c.154-.18.335-.36.515-.54A37.445,37.445,0,0,1,24.165,3.93a40.77,40.77,0,0,1,5.6-2.4A45.033,45.033,0,0,1,35.154.076l.077-.116A2.152,2.152,0,0,0,35.707,0Z" transform="translate(0 0.04)" fill="#e94e46"/>
      <path id="Path_18863" data-name="Path 18863" d="M27.885.033a2.5,2.5,0,0,0-.437.026L27.37.174c.193-.039.373-.1.579-.142-.026-.026-.039,0-.064,0Z" transform="translate(7.848 0.058)" fill="#e94e46"/>
      <path id="Path_18864" data-name="Path 18864" d="M25.653,3.37a.65.65,0,0,0-.193.026,2.314,2.314,0,0,0-.283.077,1.593,1.593,0,0,0-.5.322,1.4,1.4,0,0,0-.322.5,1.269,1.269,0,0,0-.1.476,1.423,1.423,0,0,0,.682,1.2,1.388,1.388,0,0,0,.656.18,1.336,1.336,0,0,0,.8-.283A1.4,1.4,0,0,0,27,4.734,1.381,1.381,0,0,0,26.54,3.7a1.175,1.175,0,0,0-.3-.193,1.388,1.388,0,0,0-.592-.116Zm-.373,2.625s-.1-.026-.142-.039a.171.171,0,0,0-.064-.039c-.039-.026-.1-.039-.116-.077a.117.117,0,0,1-.039-.142c.026-.077.116.026.18.026.039,0,.077.026.116.026a.58.58,0,0,1,.142.039.135.135,0,0,1,.064.116c-.039.077-.077.1-.142.1Zm1.029-.656a.952.952,0,0,1-.978.154,1.06,1.06,0,0,1-.283-1.814.718.718,0,0,1,.1-.064,1.1,1.1,0,0,1,1.518.631,1.058,1.058,0,0,1-.36,1.081Z" transform="translate(6.953 1.018)" fill="#5c56a1"/>
      <path id="Path_18865" data-name="Path 18865" d="M25.476,3.426V3.4H25.45A.025.025,0,0,1,25.476,3.426Z" transform="translate(7.297 1.026)" fill="#847bb9"/>
      <rect id="Rectangle_81" data-name="Rectangle 81" width="0.18" height="0.373" transform="translate(32.696 4.13)" fill="#5c56a1"/>
    </g>
    <g id="Group_224" data-name="Group 224" transform="translate(81.372 16.386)">
      <path id="Path_18866" data-name="Path 18866" d="M85.779,32.5a1.881,1.881,0,0,0-1.39.553,1.9,1.9,0,0,0-.579,1.39,1.833,1.833,0,0,0,.553,1.377,1.941,1.941,0,0,0,1.415.54,1.881,1.881,0,0,0,1.39-.54,1.817,1.817,0,0,0,.579-1.351,1.881,1.881,0,0,0-.553-1.39A1.827,1.827,0,0,0,85.779,32.5Z" transform="translate(-58.152 -7.1)" fill="#5c56a1"/>
      <path id="Path_18867" data-name="Path 18867" d="M98.1,26.007c0-1.866.064-3.68.18-5.417a28.034,28.034,0,0,1-5.057,1.055v.219a1.445,1.445,0,0,1,1.467.991,7.3,7.3,0,0,1,.154,1.969v8.2H84.754A6.647,6.647,0,0,0,86.208,28.7,6.427,6.427,0,0,0,84.136,23.7a7.331,7.331,0,0,0-5.147-1.814,7.472,7.472,0,0,0-5.25,1.892,6.587,6.587,0,0,0-1.094,1.3,8.622,8.622,0,0,0-6.228,2.406,8.2,8.2,0,0,0-2.548,6.125c0,2.779,1.428,5.765,4.272,8.917l.939.154A36.611,36.611,0,0,1,67.4,33.831q0-7.315,4.709-7.695a6.916,6.916,0,0,0-.4,2.445,6.724,6.724,0,0,0,2.007,5.057,7.209,7.209,0,0,0,5.147,1.892,7.8,7.8,0,0,0,4.272-1.119h17.191V33.033H97.994V25.994h.077ZM82.463,32.891A3.538,3.538,0,0,1,79.1,35.04a3.6,3.6,0,0,1-3.423-2.149,9.387,9.387,0,0,1-.836-4.233,9.229,9.229,0,0,1,.836-4.182,3.509,3.509,0,0,1,3.346-2.123,3.665,3.665,0,0,1,3.423,2.11,9.175,9.175,0,0,1,.836,4.195,9.768,9.768,0,0,1-.811,4.233Z" transform="translate(-63.87 -10.515)" fill="#5c56a1"/>
      <path id="Path_18868" data-name="Path 18868" d="M89.319,32.5a1.881,1.881,0,0,0-1.39.553,1.9,1.9,0,0,0-.579,1.39A1.833,1.833,0,0,0,87.9,35.82a1.941,1.941,0,0,0,1.415.54,1.881,1.881,0,0,0,1.39-.54,1.817,1.817,0,0,0,.579-1.351A1.934,1.934,0,0,0,89.319,32.5Z" transform="translate(-57.137 -7.1)" fill="#5c56a1"/>
      <path id="Path_18869" data-name="Path 18869" d="M103.648,24.406a4.2,4.2,0,0,0-2.689-3.281,10.473,10.473,0,0,0-3.268-.515,12.941,12.941,0,0,0-3.307.463,9.757,9.757,0,0,0-1.029.335L95.7,24.174l.18-.064a3.956,3.956,0,0,1,.4-1.789,1.643,1.643,0,0,1,1.493-.914,2.2,2.2,0,0,1,1.608.875c.656.733,1.171,2.728,1.557,5.983a8.423,8.423,0,0,0,1.969,4.761H92.26V34.4h12.211a7.475,7.475,0,0,0,1.3.721l.54-.3a10.207,10.207,0,0,1-1.994-5.173c-.219-1.737-.437-3.487-.682-5.237Z" transform="translate(-55.729 -10.509)" fill="#5c56a1"/>
      <path id="Path_18870" data-name="Path 18870" d="M97.389,32.5a1.881,1.881,0,0,0-1.39.553,1.9,1.9,0,0,0-.579,1.39,1.833,1.833,0,0,0,.553,1.377,1.941,1.941,0,0,0,1.415.54,1.881,1.881,0,0,0,1.39-.54,1.817,1.817,0,0,0,.579-1.351,1.882,1.882,0,0,0-.553-1.39A1.845,1.845,0,0,0,97.389,32.5Z" transform="translate(-54.823 -7.1)" fill="#5c56a1"/>
      <path id="Path_18871" data-name="Path 18871" d="M113.415,22.09a8.35,8.35,0,0,0-5.276,1.634,5.709,5.709,0,0,0-2.329,4.838,4.824,4.824,0,0,0,2.226,4.143,7.764,7.764,0,0,0,4.632,1.39,5.723,5.723,0,0,0,5.816-3.706v.257q0,9.072-5.726,9.072-4,0-5.031-4.7h-.193l-1.158,3.564a12.947,12.947,0,0,0,6.292,1.75,8.828,8.828,0,0,0,6.73-2.625,9.55,9.55,0,0,0,2.432-6.82,9.006,9.006,0,0,0-2.187-6.344,8.055,8.055,0,0,0-6.2-2.445Zm3.564,9.625a4.011,4.011,0,0,1-3.346,1.608,4.082,4.082,0,0,1-3.32-1.493,5.556,5.556,0,0,1-1.094-3.539,6.609,6.609,0,0,1,1.017-3.9,3.961,3.961,0,0,1,3.5-1.686,3.838,3.838,0,0,1,3.32,1.647,6.253,6.253,0,0,1,1.029,3.719,5.87,5.87,0,0,1-1.119,3.641Z" transform="translate(-51.844 -10.085)" fill="#5c56a1"/>
      <path id="Path_18872" data-name="Path 18872" d="M135.449,20.034a1.922,1.922,0,0,0,1.39-.54,1.817,1.817,0,0,0,.579-1.351,1.893,1.893,0,0,0-1.969-1.943,1.842,1.842,0,0,0-1.39.553,1.9,1.9,0,0,0-.579,1.39,1.833,1.833,0,0,0,.553,1.377A2.057,2.057,0,0,0,135.449,20.034Z" transform="translate(-43.91 -11.774)" fill="#5c56a1"/>
      <path id="Path_18873" data-name="Path 18873" d="M131.6,20.034a1.922,1.922,0,0,0,1.39-.54,1.817,1.817,0,0,0,.579-1.351A1.893,1.893,0,0,0,131.6,16.2a1.842,1.842,0,0,0-1.39.553,1.9,1.9,0,0,0-.579,1.39,1.833,1.833,0,0,0,.553,1.377A2.057,2.057,0,0,0,131.6,20.034Z" transform="translate(-45.014 -11.774)" fill="#5c56a1"/>
      <path id="Path_18874" data-name="Path 18874" d="M168.329,22.456c-1.119,0-2.085-.026-2.96-.077V22.6c1.119.36,1.673,1.6,1.673,3.706v1.248a16.52,16.52,0,0,1-.219,3.526,2.79,2.79,0,0,1-2.522,1.956,4.525,4.525,0,0,1-.579.039c-1.866.026-2.96-1.3-3.32-3.886.039-.476.064-.991.064-1.57V26.548a7.962,7.962,0,0,1,.244-2.329,2.168,2.168,0,0,1,1.467-1.634l-.026-.219c-.772.064-1.789.077-3.05.077-1.119,0-2.11-.026-2.985-.077v.219c1.119.36,1.673,1.6,1.673,3.706v1.248a16.52,16.52,0,0,1-.219,3.526,2.773,2.773,0,0,1-2.509,1.956,5.053,5.053,0,0,1-.592.039,2.813,2.813,0,0,1-2.612-1.608,6.918,6.918,0,0,1-.759-3.165V26.548a7.963,7.963,0,0,1,.244-2.329,2.168,2.168,0,0,1,1.467-1.634l-.026-.219c-.772.064-1.814.077-3.062.077-1.119,0-2.085-.026-2.96-.077v.219c1.119.36,1.673,1.6,1.673,3.706v1.248a16.781,16.781,0,0,1-.219,3.526,2.818,2.818,0,0,1-2.522,1.969h-3.5V26.007c0-1.866.064-3.68.154-5.417a28.034,28.034,0,0,1-5.057,1.055v.219a1.445,1.445,0,0,1,1.467.991,7.3,7.3,0,0,1,.154,1.969v8.2h-9.651q-.174-7.045.026-9.715a16.5,16.5,0,0,1-4.375,1.029v.219a1.425,1.425,0,0,1,1.415.952,7.145,7.145,0,0,1,.154,1.9v6.035c-.039,3.9-.8,5.829-2.29,5.829-1.094,0-1.892-1.235-2.393-3.719h-.193l-.8,2.959a4.51,4.51,0,0,0,3.243,1.6c1.39.129,2.728-.592,4-2.11a5.8,5.8,0,0,0,1.248-3.616h16.419c1.892,0,3.243-.515,4.053-1.57a5.575,5.575,0,0,0,.991-2.213c.656,2.509,2.085,3.783,4.323,3.86a4.607,4.607,0,0,0,4.053-1.673,5.288,5.288,0,0,0,.939-2.007c.682,2.368,2.085,3.6,4.233,3.68a4.621,4.621,0,0,0,4.053-1.673,8.7,8.7,0,0,0,1.3-5.25V26.522a9.225,9.225,0,0,1,.219-2.329,2.191,2.191,0,0,1,1.467-1.634l.026-.219c-.8.064-1.814.1-3.062.1Z" transform="translate(-47.543 -10.515)" fill="#5c56a1"/>
      <path id="Path_18875" data-name="Path 18875" d="M167.408,34.2c-.039-.3-.1-1.351-.18-3.165V18.139c-.026-2.007.039-3.8.142-5.379a16.5,16.5,0,0,1-4.375,1.029v.219a1.408,1.408,0,0,1,1.428.952,7.146,7.146,0,0,1,.154,1.9v14.27a23.349,23.349,0,0,1-.116,3.1A2.494,2.494,0,0,1,162.75,36.5l.026.219c.875-.064,1.969-.077,3.268-.077.991,0,2.033.026,3.1.077V36.5a2.531,2.531,0,0,1-1.737-2.329Z" transform="translate(-35.517 -12.76)" fill="#5c56a1"/>
    </g>
  </g>
</svg>
