<svg id="Masculinity_1_" data-name="Masculinity (1)" xmlns="http://www.w3.org/2000/svg" width="127" height="71" viewBox="0 0 127 71">
  <g id="Group_208" data-name="Group 208" transform="translate(0 0)">
    <g id="Group_204" data-name="Group 204" transform="translate(25.653 49.432)">
      <rect id="Rectangle_61" data-name="Rectangle 61" width="2.055" height="20.436" transform="translate(0.442 0.572)" fill="#ef8218"/>
      <path id="Path_18761" data-name="Path 18761" d="M22.673,60.228H19.72V38.66h2.953V60.228ZM20.618,59.1h1.132V39.8H20.618Z" transform="translate(-19.72 -38.66)" fill="#ef8218"/>
    </g>
    <g id="Group_205" data-name="Group 205" transform="translate(30.921 43.851)">
      <rect id="Rectangle_62" data-name="Rectangle 62" width="2.055" height="20.436" transform="translate(0.442 0.559)" fill="#ef8218"/>
      <path id="Path_18762" data-name="Path 18762" d="M26.723,55.938H23.77V34.37h2.953Zm-2.055-1.132H25.8V35.515H24.668Z" transform="translate(-23.77 -34.37)" fill="#ef8218"/>
    </g>
    <g id="Group_206" data-name="Group 206" transform="translate(36.19 49.432)">
      <rect id="Rectangle_63" data-name="Rectangle 63" width="2.055" height="20.436" transform="translate(0.455 0.572)" fill="#ef8218"/>
      <path id="Path_18763" data-name="Path 18763" d="M30.773,60.228H27.82V38.66h2.953V60.228ZM28.718,59.1h1.132V39.8H28.718Z" transform="translate(-27.82 -38.66)" fill="#ef8218"/>
    </g>
    <g id="Group_207" data-name="Group 207">
      <path id="Path_18764" data-name="Path 18764" d="M40.645,54.465H63.709L32.19.74h-.013L.67,54.465H23.747V52.672H3.831L32.19,4.325,60.535,52.672H40.645Z" transform="translate(0.202 0.223)"/>
      <path id="Path_18765" data-name="Path 18765" d="M64.782,55.195H40.339V52.4H59.865L32.391,5.534,4.9,52.4H24.43v2.792H0L32.352.026l.039.038L32.43,0l.4.679,31.949,54.5Zm-23.441-1H63.026L32.378,1.934,1.743,54.2H23.428v-.807H3.161l29.23-49.84L61.621,53.4H41.341v.807Z" transform="translate(0 0)"/>
    </g>
  </g>
  <g id="Group_209" data-name="Group 209" transform="translate(55.635 21.031)">
    <path id="Path_18766" data-name="Path 18766" d="M52.269,24.962a1.1,1.1,0,0,0,.689.182h.091v1.262h-.377a1.76,1.76,0,0,1-1.262-.52,1.793,1.793,0,0,1-1.249.52H45.179a1.79,1.79,0,0,1-1.353-.572,1.887,1.887,0,0,1-.546-1.353V21.1H45.1v3.239c0,.546.208.807.624.807h3.616c.6,0,.9-.26.9-.794v-4.5h1.821v4.5a.735.735,0,0,0,.208.624Zm-4.605,2.511a.723.723,0,0,1,.559.247.855.855,0,0,1,.234.611.965.965,0,0,1-.065.325.9.9,0,0,1-.169.26.776.776,0,0,1-.26.182.782.782,0,0,1-.624,0,.726.726,0,0,1-.26-.182,1.174,1.174,0,0,1-.182-.26.906.906,0,0,1-.065-.325.834.834,0,0,1,.234-.611.8.8,0,0,1,.572-.247Z" transform="translate(-43.28 -15.375)"/>
    <path id="Path_18767" data-name="Path 18767" d="M53.121,25.892a1.8,1.8,0,0,1-.572.39,2.318,2.318,0,0,1-.689.13H50.61V25.15h.416a1,1,0,0,0,.689-.182.8.8,0,0,0,.2-.624V19.83h1.821v4.5a.777.777,0,0,0,.2.624,1.124,1.124,0,0,0,.689.182h.416V26.4h-.65a1.881,1.881,0,0,1-1.275-.507Zm-1.2,3.278a.894.894,0,0,1-.312-.065.726.726,0,0,1-.26-.182,1.787,1.787,0,0,1-.169-.26.663.663,0,0,1-.065-.325.852.852,0,0,1,.065-.325.9.9,0,0,1,.169-.26.776.776,0,0,1,.26-.182.782.782,0,0,1,.624,0,.726.726,0,0,1,.26.182,1.174,1.174,0,0,1,.182.26.906.906,0,0,1,.065.325.965.965,0,0,1-.065.325.726.726,0,0,1-.182.26.934.934,0,0,1-.26.182A.837.837,0,0,1,51.924,29.17Zm1.054-.846A.852.852,0,0,1,53.043,28a.726.726,0,0,1,.182-.26.934.934,0,0,1,.26-.182.782.782,0,0,1,.624,0,.726.726,0,0,1,.26.182,1.173,1.173,0,0,1,.182.26.906.906,0,0,1,.065.325.965.965,0,0,1-.065.325.726.726,0,0,1-.182.26.934.934,0,0,1-.26.182.782.782,0,0,1-.624,0,.726.726,0,0,1-.26-.182,1.174,1.174,0,0,1-.182-.26A.663.663,0,0,1,52.978,28.325Z" transform="translate(-41.075 -15.381)"/>
    <path id="Path_18768" data-name="Path 18768" d="M63.408,24.968a.886.886,0,0,0,.273.13,1.564,1.564,0,0,0,.364.039h.169V26.4h-.4a1.826,1.826,0,0,1-1.262-.507,1.8,1.8,0,0,1-1.275.507h-.533a1.831,1.831,0,0,1-1.34-.572,1.134,1.134,0,0,1-.208-.26.965.965,0,0,1-.208.26,1.852,1.852,0,0,1-1.34.572H57.1a1.76,1.76,0,0,1-1.262-.52,1.846,1.846,0,0,1-1.275.52h-.7V25.137h.559a.882.882,0,0,0,.611-.182.81.81,0,0,0,.2-.637V19.83h1.821V24.3c0,.546.208.833.624.833s.611-.26.611-.794V19.83H60.1V24.3c0,.546.208.833.624.833s.611-.273.611-.833V19.83h1.821v4.5a.777.777,0,0,0,.208.624Z" transform="translate(-40.097 -15.381)"/>
    <path id="Path_18769" data-name="Path 18769" d="M69.422,25.985a1.08,1.08,0,0,0,.676.182h.156v1.262h-.416a1.826,1.826,0,0,1-1.262-.507,1.965,1.965,0,0,1-1.262.507H61.63V26.167h5.112c.429,0,.65-.273.65-.833V22.954c0-.546-.221-.82-.65-.82H62.619V20.847l4.4-4.4h2.263l-4.41,4.41h2.472a1.8,1.8,0,0,1,1.34.559,1.907,1.907,0,0,1,.559,1.366v2.667a.632.632,0,0,0,.182.533Z" transform="translate(-37.759 -16.398)"/>
    <path id="Path_18770" data-name="Path 18770" d="M70.867,16.436V25.49A1.91,1.91,0,0,1,68.981,27.4H68.07V26.14h.169a.882.882,0,0,0,.611-.182.8.8,0,0,0,.2-.637V16.41H70.88Z" transform="translate(-35.822 -16.41)"/>
    <path id="Path_18771" data-name="Path 18771" d="M73.3,16.43V27.422H71.48V16.43Z" transform="translate(-34.796 -16.404)"/>
    <path id="Path_18772" data-name="Path 18772" d="M81.043,16.43h1.821v9.717h.807v1.262h-.807v2.758H78.116a1.782,1.782,0,0,1-1.34-.572,1.887,1.887,0,0,1-.546-1.353V22.1h1.821v6q0,.82.624.82H81.03V16.443h0Z" transform="translate(-33.367 -16.404)"/>
    <path id="Path_18773" data-name="Path 18773" d="M81.76,25.137h4.657V21.729c0-.416-.26-.624-.807-.624H82.736V19.83h3.577a1.865,1.865,0,0,1,1.353.546,1.789,1.789,0,0,1,.572,1.34V26.4H81.76V25.137h0Zm3.382,4.033a.894.894,0,0,1-.312-.065.726.726,0,0,1-.26-.182,1.787,1.787,0,0,1-.169-.26.663.663,0,0,1-.065-.325.965.965,0,0,1,.065-.325.9.9,0,0,1,.169-.26.776.776,0,0,1,.26-.182.837.837,0,0,1,.312-.065.786.786,0,0,1,.312.065.726.726,0,0,1,.26.182,1.174,1.174,0,0,1,.182.26.906.906,0,0,1,.065.325.855.855,0,0,1-.234.611.817.817,0,0,1-.572.234Z" transform="translate(-31.703 -15.381)"/>
    <path id="Path_18774" data-name="Path 18774" d="M89.811,16.43V27.422H87.99V16.43Z" transform="translate(-29.829 -16.404)"/>
    <path id="Path_18775" data-name="Path 18775" d="M93.681,26.4v.833a1.826,1.826,0,0,1-.559,1.353,1.852,1.852,0,0,1-1.34.572H90.65V27.9h.611c.4,0,.611-.273.611-.833V19.82h1.821v5.307h.676v1.262h-.663Z" transform="translate(-29.029 -15.384)"/>
    <path id="Path_18776" data-name="Path 18776" d="M96.127,16.436V25.49A1.91,1.91,0,0,1,94.241,27.4H93.33V26.14H93.5a.882.882,0,0,0,.611-.182.8.8,0,0,0,.2-.637V16.41H96.14Z" transform="translate(-28.222 -16.41)"/>
    <path id="Path_18777" data-name="Path 18777" d="M98.561,16.43V27.422H96.74V16.43Z" transform="translate(-27.197 -16.404)"/>
  </g>
</svg>
