<svg id="Multiple_Sclerosis_SVG__1_1_" data-name="Multiple Sclerosis SVG_ (1) (1)" xmlns="http://www.w3.org/2000/svg" width="127" height="71" viewBox="0 0 127 71">
  <g id="Group_201" data-name="Group 201" transform="translate(44.926)">
    <g id="Group_200" data-name="Group 200">
      <g id="Group_199" data-name="Group 199" transform="translate(0.026 44.736)">
        <path id="Path_18689" data-name="Path 18689" d="M36.881,36.051c-.323-.466-.414-.466-.543-.466A.329.329,0,0,0,36,35.9c0,.181.142.285.336.285a1.156,1.156,0,0,1,1.19,1.112A1.183,1.183,0,0,1,36.3,38.5c-.3,0-.724-.026-1.229-.841l.7-.453c.272.4.414.427.53.427.155,0,.336-.116.323-.285a.36.36,0,0,0-.323-.336,1.1,1.1,0,0,1-1.216-1.138A1.209,1.209,0,0,1,36.3,34.68c.349,0,.763.026,1.267.867l-.685.491Z" transform="translate(-35.07 -34.564)" fill="#e24514"/>
        <path id="Path_18690" data-name="Path 18690" d="M43.89,38.419v-3.7h2.354v.905H44.8v.5h1.449v.892H44.8v.5h1.449v.905C45.765,38.419,43.89,38.419,43.89,38.419Z" transform="translate(-32.483 -34.552)" fill="#e24514"/>
        <path id="Path_18691" data-name="Path 18691" d="M54.418,36.051c-.323-.466-.414-.466-.543-.466a.329.329,0,0,0-.336.31c0,.181.142.285.336.285a1.159,1.159,0,1,1-.026,2.315c-.3,0-.724-.026-1.229-.841l.7-.453c.272.4.4.427.53.427.155,0,.336-.116.323-.285a.36.36,0,0,0-.323-.336,1.1,1.1,0,0,1-1.216-1.138,1.209,1.209,0,0,1,1.216-1.19c.349,0,.763.026,1.267.867l-.7.491Z" transform="translate(-29.922 -34.564)" fill="#e24514"/>
        <path id="Path_18692" data-name="Path 18692" d="M63.208,36.051c-.323-.466-.414-.466-.543-.466a.329.329,0,0,0-.336.31c0,.181.142.285.336.285a1.159,1.159,0,1,1-.026,2.315c-.3,0-.724-.026-1.229-.841l.7-.453c.272.4.4.427.53.427.155,0,.336-.116.323-.285a.36.36,0,0,0-.323-.336,1.1,1.1,0,0,1-1.216-1.138,1.209,1.209,0,0,1,1.216-1.19c.349,0,.763.026,1.267.867l-.7.491Z" transform="translate(-27.344 -34.564)" fill="#e24514"/>
        <path id="Path_18693" data-name="Path 18693" d="M70.79,38.429v-3.7H71.7v3.7Z" transform="translate(-24.593 -34.549)" fill="#e24514"/>
        <path id="Path_18694" data-name="Path 18694" d="M80.4,38.55A1.94,1.94,0,1,1,82.352,36.6,1.982,1.982,0,0,1,80.4,38.55Zm0-2.949a1.009,1.009,0,1,0,0,2.018.983.983,0,0,0,1-1.009A1.007,1.007,0,0,0,80.4,35.6Z" transform="translate(-22.355 -34.567)" fill="#e24514"/>
        <path id="Path_18695" data-name="Path 18695" d="M88.205,36.439v2.043H87.3V34.59L90,36.815s-.013-.129-.013-.181V34.81H90.9V38.7l-2.69-2.25Z" transform="translate(-19.75 -34.59)" fill="#e24514"/>
        <path id="Path_18696" data-name="Path 18696" d="M98.308,36.051c-.323-.466-.414-.466-.543-.466a.329.329,0,0,0-.336.31c0,.181.142.285.336.285a1.159,1.159,0,1,1-.026,2.315c-.3,0-.724-.026-1.229-.841l.7-.453c.272.4.4.427.53.427.155,0,.336-.116.323-.285a.36.36,0,0,0-.323-.336,1.1,1.1,0,0,1-1.216-1.138,1.209,1.209,0,0,1,1.216-1.19c.349,0,.763.026,1.267.867l-.7.491Z" transform="translate(-17.048 -34.564)" fill="#e24514"/>
      </g>
      <path id="Path_18697" data-name="Path 18697" d="M58.894,0V19.206h5.781v1.41H54.82V0h4.074Z" transform="translate(-29.251)"/>
      <path id="Path_18698" data-name="Path 18698" d="M68.011,3.37H64.429L61.26,14.092H71Zm-4.85,9.584,1.785-6.221L66.6,12.954H63.148Z" transform="translate(-27.362 0.988)"/>
      <path id="Path_18699" data-name="Path 18699" d="M52.171,3.37H48.589L45.42,14.092h9.739L52.171,3.37Zm-4.837,9.584,1.785-6.221,1.655,6.221H47.321Z" transform="translate(-32.008 0.988)"/>
      <path id="Path_18700" data-name="Path 18700" d="M35.063,19.265V5.22H41.31c3.207,0,4.824,1.138,4.824,3.453,0,1.63-.983,2.677-2.923,3.143,2.341.466,3.5,1.707,3.5,3.725,0,2.483-1.578,3.738-4.721,3.738H35.05v-.013Zm4.087-7.928H40.4c1.164,0,1.746-.854,1.746-2.574,0-1.591-.608-2.367-1.837-2.367H39.15Zm0,6.764h1.164c1.526,0,2.289-.867,2.289-2.613,0-1.992-.776-3-2.354-3H39.163V18.1h0Z" transform="translate(-35.05 1.531)"/>
      <path id="Path_18701" data-name="Path 18701" d="M81.487,5.22V19.253H78.37l-5.859-8.885v8.885H71.14V5.22h2.587l6.4,9.6V5.22h1.358Z" transform="translate(-24.464 1.531)"/>
      <path id="Path_18702" data-name="Path 18702" d="M90.49,13.682l1.746.453c.026.362.039.673.039.918A4.07,4.07,0,0,1,90.8,18.338a5.99,5.99,0,0,1-3.983,1.229q-6.247,0-6.247-7.036c0-2.587.3-3.66,1.824-5.419A6.019,6.019,0,0,1,87.14,5.03q4.559,0,4.565,4.384l-1.746.815c.026-.414.026-.724.026-.957,0-2.082-.828-3.117-2.483-3.117q-2.638,0-2.638,6.6,0,5.665,2.949,5.665a2.542,2.542,0,0,0,2.018-.957,3.6,3.6,0,0,0,.815-2.419c-.026-.3-.065-.737-.155-1.358Z" transform="translate(-21.698 1.475)"/>
      <path id="Path_18703" data-name="Path 18703" d="M99.808,5.22V6.63H94.764v4.255h4.229v1.41H94.764v5.574h5.885v1.41H90.69V5.22Z" transform="translate(-18.73 1.531)"/>
      <path id="Path_18704" data-name="Path 18704" d="M40.026,22.24V23H37.259v2.535H39.6V26.3H37.259v3.544h-2.2v-7.6h4.966Z" transform="translate(-35.047 6.523)"/>
      <path id="Path_18705" data-name="Path 18705" d="M42.657,22.143c2.225,0,3.324,1.306,3.324,3.932s-1.125,3.932-3.376,3.932-3.376-1.345-3.376-4.022c0-2.587,1.138-3.854,3.427-3.854Zm-.052.595a.834.834,0,0,0-.841.685,10.554,10.554,0,0,0-.22,2.638,9.952,9.952,0,0,0,.22,2.638.834.834,0,0,0,.841.685.857.857,0,0,0,.854-.685,9.952,9.952,0,0,0,.22-2.638,9.952,9.952,0,0,0-.22-2.638A.86.86,0,0,0,42.606,22.738Z" transform="translate(-33.824 6.491)"/>
      <path id="Path_18706" data-name="Path 18706" d="M45.2,29.845v-7.6h3.259a3.448,3.448,0,0,1,2.043.543,1.662,1.662,0,0,1,.763,1.436c0,.918-.543,1.526-1.63,1.8a2.176,2.176,0,0,1,1.086.685,3.208,3.208,0,0,1,.336,1.449,3.36,3.36,0,0,0,.427,1.694H49.08a3.338,3.338,0,0,1-.22-1.332V28.06l-.026-.569c0-.879-.349-1.306-1.061-1.306H47.4v3.66H45.2Zm2.225-4.281h.453c.841,0,1.255-.427,1.255-1.306s-.414-1.306-1.255-1.306h-.453v2.625Z" transform="translate(-32.073 6.523)"/>
      <path id="Path_18707" data-name="Path 18707" d="M56.128,25.258v5.29H53.05V19.93h3.078V24.2h2.509V19.93h3.078V30.548H58.637v-5.29Z" transform="translate(-29.77 5.846)"/>
      <path id="Path_18708" data-name="Path 18708" d="M68.046,19.933v1.061H64.231V24.2h3.194v1.061H64.231v4.216H68.68v1.061H61.14V19.92h6.893Z" transform="translate(-27.397 5.843)"/>
      <path id="Path_18709" data-name="Path 18709" d="M73.006,19.93l2.962,10.618h-3.1l-.634-2.3H69.035l-.673,2.3h-1.2L70.3,19.93h2.69Zm-3.66,7.243h2.613L70.7,22.465l-1.358,4.708Z" transform="translate(-25.631 5.846)"/>
      <path id="Path_18710" data-name="Path 18710" d="M77.468,19.93v9.558H81.84v1.061H74.39V19.93h3.078Z" transform="translate(-23.511 5.846)"/>
      <path id="Path_18711" data-name="Path 18711" d="M83.728,19.93V30.548H80.65V19.93Z" transform="translate(-21.675 5.846)"/>
      <path id="Path_18712" data-name="Path 18712" d="M92.235,19.93V30.548H89.881l-4.436-6.725v6.725H84.41V19.93h1.953L91.2,27.186V19.93Z" transform="translate(-20.572 5.846)"/>
      <path id="Path_18713" data-name="Path 18713" d="M96.084,24.863h4.371v5.729h-.983l-.336-.724a4.586,4.586,0,0,1-2.7.905,4.773,4.773,0,0,1-3.66-1.41A5.659,5.659,0,0,1,91.48,25.38a5.779,5.779,0,0,1,1.384-4.048,4.594,4.594,0,0,1,3.608-1.552,3.353,3.353,0,0,1,3.57,3l-1.449.66v-.246l-.026-.569c-.1-1.255-.673-1.875-1.733-1.875a1.585,1.585,0,0,0-1.591,1,10.763,10.763,0,0,0-.427,3.712,11.235,11.235,0,0,0,.349,3.453,1.293,1.293,0,0,0,1.306.905c.763,0,1.138-.414,1.138-1.267V25.936H96.071V24.863h0Z" transform="translate(-18.498 5.802)"/>
      <rect id="Rectangle_57" data-name="Rectangle 57" width="81.945" height="0.297" transform="translate(0.013 4.371)"/>
      <rect id="Rectangle_58" data-name="Rectangle 58" width="81.945" height="0.297" transform="translate(0.013 23.37)"/>
      <rect id="Rectangle_59" data-name="Rectangle 59" width="81.958" height="0.297" transform="translate(0.013 39.808)"/>
    </g>
    <rect id="Rectangle_60" data-name="Rectangle 60" width="81.958" height="0.297" transform="translate(0.116 52.987)"/>
  </g>
  <g id="Group_202" data-name="Group 202" transform="translate(0 0.208)">
    <path id="Path_18714" data-name="Path 18714" d="M3.778,49.962H3.765l-.595.711c.233-.039.491-.078.724-.129-.039.349-.1.685-.142,1.035l3.1.854c-.944-.388-1.9-.776-2.832-1.164.065-.155.142-.31.194-.466,1-.194,1.992-.388,3.026-.634.828-.181,1.72-.388,3.156-.737s3.376-.841,5.729-1.461c-.194-.1-.375-.207-.569-.31-1.565.427-3.195.854-4.9,1.229-2,.466-3.932.828-5.781,1.138" transform="translate(0.93 13.341)" fill="#e24514"/>
    <path id="Path_18715" data-name="Path 18715" d="M16.567,25.7a58.653,58.653,0,0,1,1.048,7.074,10.487,10.487,0,0,1-.168,2.1,33.288,33.288,0,0,0-1.539-10.528c-.634.776-1.1,1.384-1.578,1.979.026-.052.039-.116.065-.168.608-.763,1.177-1.565,1.824-2.535a7.561,7.561,0,0,1,1.009-.724,2.938,2.938,0,0,0-.673,2.807Z" transform="translate(4.203 6.291)" fill="#e24514"/>
    <path id="Path_18716" data-name="Path 18716" d="M4.307,21.229c-.052.308-.116.591-.168.9-.414,1.233-.841,2.48-1.267,3.713.1,3.559.194,7.131.3,10.7-.466,2.865-.931,5.756-1.4,8.621-.194,3.842-.4,7.7-.595,11.537,1.216,1.863,2.419,3.726,3.634,5.589l-2.056,2.7c1.073,1.233,2.16,2.454,3.233,3.687-.1.141-.194.283-.31.424C4.5,67.726,3.337,66.339,2.16,64.964c.582-.809,1.177-1.606,1.759-2.428C2.613,60.763,1.293,59,0,57.229c.31-4.137.608-8.261.918-12.4a70.658,70.658,0,0,0,1.1-8.634,75.1,75.1,0,0,0,0-10.394c.272-.925.517-1.889.75-2.852.323-1.272.608-2.518.879-3.739.323-1.246.66-2.48.983-3.726,1.293-1.323,2.6-2.621,3.893-3.931,1.759-.193,3.518-.373,5.277-.565.142-1.7.272-3.366.4-5.062.8-.552,1.578-1.1,2.367-1.657-.5.668-1.009,1.323-1.513,1.979.181.385.362.771.543,1.169,2.651,2.48,5.29,4.959,7.941,7.426,0,.193-.013.385-.013.578L15.572,8.561a4.226,4.226,0,0,0-.673,3.456,3.737,3.737,0,0,0,.815,1.246c.517.6.673,1.979-1.048,5.4h.078c-.155-2.107-.3-4.227-.453-6.347-1.073,2.248-2.147,4.51-3.22,6.745.983-2.351,1.953-4.7,2.936-7.054-1.746.141-3.5.3-5.251.424l-3.3,3.662c-.336,1.439-.66,2.865-1,4.317l-.181.835Z" transform="translate(0 1.044)" fill="#e24514"/>
    <path id="Path_18717" data-name="Path 18717" d="M8.2,33.2c.491-1.617.892-3.117,1.384-4.591.634-1.94.453-2.5-1.267-3.35-.026-.013-.039-.052-.065-.078,1.035.039,1.94.3,2.1,1.255.53.078,1.048.013,1.293.233,1.617,1.41,3.195,2.884,4.772,4.346a.717.717,0,0,1-.1.078c-1.668-1.513-3.363-3.013-4.928-4.423-1.772,1.267-1.746,3.052-2.25,4.578a7.132,7.132,0,0,0,.052,2.276,1.705,1.705,0,0,1-.052.776,4.7,4.7,0,0,0,.246,4.63c.569.944,1.112,1.927,1.668,2.884h.026a4.6,4.6,0,0,0-.595.039c.039.1.233.349.285.453-.1.142-.349.142-.453.285-.1-.233-.233-.582-.4-1.035a22.667,22.667,0,0,0-1.19-2.962,2.6,2.6,0,0,0-.854-.815" transform="translate(2.305 6.917)" fill="#e24514"/>
    <path id="Path_18718" data-name="Path 18718" d="M25.472,12.06c.3-.155.582-.31,1.125-.595-1.2,2.056-2.419,4.1-3.608,6.156-1.41-1.4-2.832-2.794-4.242-4.19-.3-.116-.569-.207-.867-.323a13.231,13.231,0,0,0,1.112,1.474c.5.582.918,1,1.125,1.2.582.569,1.436,1.436,2.535,2.677h1.19c.582-1.306,1.19-2.625,1.759-3.945.595-1.423.7-2.729,1.746-4.177" transform="translate(5.245 2.734)" fill="#e24514"/>
    <path id="Path_18719" data-name="Path 18719" d="M4.538,54.978c-.052.194-.116.375-.168.569l8.691.233c1.306-.362,2.677-.724,4.113-1.048,1.242-.3,2.457-.543,3.634-.763,2.47.013,4.928.039,7.4.052,2.47-.323,4.953-.647,7.424-.957-.039-.388-.065-.776-.116-1.164-2.431.414-4.85.841-7.281,1.255-2.419-.116-4.824-.22-7.243-.336l-.556.556c-2.5.608-4.979,1.229-7.475,1.824l-8.42-.233Z" transform="translate(1.282 14.585)" fill="#e24514"/>
    <path id="Path_18720" data-name="Path 18720" d="M16.192,23.7c-.078-.3-.181-.582-.272-.879,1.436.427,2.884.854,4.32,1.28.569.116,1.164.22,1.733.336a8.515,8.515,0,0,1,3.414.427,5.419,5.419,0,0,1,.711.116c.1.026.466-.388.479-.608.039-.905,0-1.8.1-2.716.129,1.035.246,2.056.375,3.13.556-.155,1.073-.285,1.591-.414l.078.349c-1.009.336-1.992.66-3,1-3.182-.66-6.363-1.332-9.545-1.992Z" transform="translate(4.67 5.966)" fill="#e24514"/>
    <path id="Path_18721" data-name="Path 18721" d="M25.305,10.413c.453,1.371.867,2.755,1.345,4.1.207.595.479,1.125.776,1.785.595,1.293,1.63,3.376,3.233,6.2-.349-.724-.828-1.733-1.371-2.936-.724-1.578-1.073-2.367-1.267-2.832C27.129,14.435,27,13.788,26.3,12.03a10.06,10.06,0,0,0-1.009-1.6c-.013,0-.013-.013,0-.026Z" transform="translate(7.416 2.745)" fill="#e24514"/>
    <path id="Path_18722" data-name="Path 18722" d="M20.94,47.666c.427.052.867.129,1.293.181a6.29,6.29,0,0,1,1.487.466c1.992.931,4,1.875,5.988,2.819.116.867.22,1.733.336,2.6.194-.1.388-.181.582-.285-.129-.918-.233-1.837-.362-2.768-2.328-.944-3.854-1.643-4.837-2.108A14.953,14.953,0,0,1,22.453,47.3a8.8,8.8,0,0,1-.918-.634c-.194.336-.4.673-.595,1Z" transform="translate(6.142 13.051)" fill="#e24514"/>
    <path id="Path_18723" data-name="Path 18723" d="M14.215,50.717c-.362-1.345-.763-2.7-1.2-4.087-.905-2.949-1.9-5.7-2.923-8.29-.116.129-.233.246-.349.375q1.94,5.859,3.893,11.7c.181.1.375.194.569.3Z" transform="translate(2.857 10.608)" fill="#e24514"/>
    <path id="Path_18724" data-name="Path 18724" d="M23,16.538a3.941,3.941,0,0,0,.453,3.557,44.65,44.65,0,0,1,1.785,4.811c-.039.013-.1.026-.142.039q-1.571-3.764-3.13-7.54L21.23,15.93,23,16.525Z" transform="translate(6.227 4.322)" fill="#e24514"/>
    <path id="Path_18725" data-name="Path 18725" d="M25.947,1.117C20.761-.034,15.95-.177,14.76.858c.388.026.737.168.983.052,2.108-.918,4.177-.285,6.286.013a36.2,36.2,0,0,0,3.932.155c-.013,0,0,.026,0,.026Z" transform="translate(4.329 -0.161)" fill="#e24514"/>
    <path id="Path_18726" data-name="Path 18726" d="M24.784,3.747q-.485-.155-.5-.155c.517,2.574,1.048,5.173,1.565,7.8A.774.774,0,0,1,26,11.365C25.522,8.183,25.056,5,24.577,1.82a.164.164,0,0,0-.078.013c.078.582.181,1.19.3,1.914Z" transform="translate(7.122 0.326)" fill="#e24514"/>
    <path id="Path_18727" data-name="Path 18727" d="M28.671,25.066s.039-.052.052-.052c1.216-1.061,1.229-1.073.336-2.354a5.111,5.111,0,0,1-.569-.931c.323.31.647.608,1.1,1.048-.013-1.1-.013-2.056-.026-3.013a3.634,3.634,0,0,0,.375-.013c.013.569.052,1.138.039,1.72a5.159,5.159,0,0,0-.065,1.4,1.5,1.5,0,0,1,0,1.216c-.116.349-.427.815-1.4,1.19a.894.894,0,0,1,.155-.181Z" transform="translate(8.357 5.418)" fill="#e24514"/>
    <path id="Path_18728" data-name="Path 18728" d="M11.62,19.89c.375.31.763.595,1.112.931.1.1.052.349.065.53,1.138.685,2.3,1.358,3.453,2.043C14.815,22.115,13.56,20.563,11.62,19.89Z" transform="translate(3.408 5.463)" fill="#e24514"/>
    <path id="Path_18729" data-name="Path 18729" d="M28.015,32.436c-.039-2.173-.065-4.358-.116-6.531-.142-.052-.3-.1-.427-.155.039,2.173.065,4.358.116,6.531-.207.427-.4.867-.608,1.28l1.048-1.125Z" transform="translate(7.914 7.119)" fill="#e24514"/>
    <path id="Path_18730" data-name="Path 18730" d="M8.123,21.348c.142,1.707.3,3.4.427,5.109h0l.039-5.471a1.76,1.76,0,0,0-.272-.026,2.735,2.735,0,0,1-.207.388h0Z" transform="translate(2.379 5.763)" fill="#e24514"/>
    <path id="Path_18731" data-name="Path 18731" d="M13.223,20.318h0c-.285-.155-.582-.479-.841-.427a24.88,24.88,0,0,0-3.052.867c1.306-.142,2.6-.3,3.893-.427Z" transform="translate(2.737 5.468)" fill="#e24514"/>
    <path id="Path_18732" data-name="Path 18732" d="M21.648,25.78c-.543,1.164-1.1,2.3-1.668,3.531.129.039.414.116.711.194-.724.737-2.522.181-2.354,1.979h.052c-1.177-1.4.349-1.992.892-2.807.7-1.035,1.578-1.94,2.367-2.9Z" transform="translate(5.266 7.135)" fill="#e24514"/>
    <path id="Path_18733" data-name="Path 18733" d="M23.744,43.667c-.815,1.578-1.63,3.143-2.444,4.721.142,0,.3.013.427.013.608-1.138,1.229-2.289,1.824-3.427l1.668-3.143-1.487,1.837Z" transform="translate(6.248 11.631)" fill="#e24514"/>
    <path id="Path_18734" data-name="Path 18734" d="M22.72,41.4a.19.19,0,0,1,.026.052" transform="translate(6.664 11.611)" fill="#e24514"/>
    <path id="Path_18735" data-name="Path 18735" d="M27.207,34c-.905,2.341-1.811,4.695-2.716,7.023-.026.828-.052,1.643-.078,2.47-.142.194-.285.388-.414.582.3-.155.569-.31.867-.466.065-.867.155-1.746.22-2.613,1.19-3.026,2.354-6.053,3.544-9.066-.453.517-.879,1.022-1.332,1.539L27.22,34Z" transform="translate(7.04 8.856)" fill="#e24514"/>
    <path id="Path_18736" data-name="Path 18736" d="M25.233,24.633c.517.285,1.035.556,1.552.841.543.31,1.086.634,1.694.983.582-.957,1.19-1.94,1.772-2.9a2.83,2.83,0,0,1,.375-.569c.026.013-.246.517-.272.66a4.362,4.362,0,0,1-1.2,2.121c-.233.31-.491.608-.828,1.035-1-.7-2.056-1.423-3.1-2.147Z" transform="translate(7.398 6.346)" fill="#e24514"/>
    <path id="Path_18737" data-name="Path 18737" d="M17.178,34.482l-.466,3.22c-.065.53-.142,1.061-.207,1.591a13.788,13.788,0,0,1,.078-2.638,21.938,21.938,0,0,0,.272-5.122c0-.065.013-.142.013-.233a5.284,5.284,0,0,1,.31,3.182Z" transform="translate(4.834 8.697)" fill="#e24514"/>
    <path id="Path_18738" data-name="Path 18738" d="M18.02,37.7c.039-.685.129-1.384.129-2.069.013-1.772,0-3.531,0-5.3,0-.026.039-.039.1-.129.1.375.194.711.3,1.048-.078-.595-.168-1.2-.246-1.837.129.078.233.155.349.233.013-.013.039-.026.052-.039-.155-.207-.31-.414-.453-.634h.013c-.052.078-.168.155-.168.22-.039,2.832-.052,5.665-.065,8.5Z" transform="translate(5.286 8.031)" fill="#e24514"/>
    <path id="Path_18739" data-name="Path 18739" d="M16.56,42.25c-.233.66-.466,1.332-.711,1.979a3.333,3.333,0,0,1-.427.918,11.316,11.316,0,0,0-1.785,3.324,1.622,1.622,0,0,1-.207.31c.22-.362.427-.724.673-1.073l1.436-2.173a1.809,1.809,0,0,0,.194-.427c.272-.776.53-1.565.776-2.328.22-.013.4-.026.569-.039h0a.453.453,0,0,1-.517-.479Z" transform="translate(3.939 11.755)" fill="#e24514"/>
    <path id="Path_18740" data-name="Path 18740" d="M13.19,48.979c.31-.634.582-1.293.944-1.9a3.6,3.6,0,0,1,.879-.892c.1-.065.323.026.5.039-.1-.078-.181-.233-.285-.246a4.068,4.068,0,0,0-.711.078c.039-.595.065-1.164.116-1.733-.013,0-.039-.013-.052-.013a6.292,6.292,0,0,0-.1.828,3.581,3.581,0,0,1-.375,1.578,18.85,18.85,0,0,0-.918,2.263Z" transform="translate(3.869 12.359)" fill="#e24514"/>
    <path id="Path_18741" data-name="Path 18741" d="M16.13,36.7c.207,2.1.414,4.19.647,6.26.052-.1.1-.194.155-.285-.155-2.108-.181-3.725-.168-4.488.013-.867.065-1.875.065-1.875.013-.155.013-.285.013-.362-.155.375-.323.75-.5,1.2-.065-.155-.142-.31-.207-.466Z" transform="translate(4.731 10.025)" fill="#e24514"/>
    <path id="Path_18742" data-name="Path 18742" d="M15.408,2.166H15.4c.155-.129.323-.246.479-.375.479-.1.957-.194,1.436-.3-.8-.026-1.6-.065-2.406-.1-.233.466-.491.931-.75,1.41l.039.194a51.538,51.538,0,0,0-3,4.992c2.457-3.7,3.388-5.264,3.414-5.535a.546.546,0,0,1,.078-.31,5.967,5.967,0,0,1,.362-.491q.155.233.349.5Z" transform="translate(3.28 0.2)" fill="#e24514"/>
    <path id="Path_18743" data-name="Path 18743" d="M15.872,43.332c-.052-.142-.116-.285-.142-.336a6.475,6.475,0,0,0,.724-.815c.388-.608.737-1.267,1.1-1.9-.272.634-.53,1.255-.815,1.9-.013,0-.026-.013-.039-.013.155-.207.31-.414.517-.724a3.136,3.136,0,0,1-1.358,1.888Z" transform="translate(4.614 11.277)" fill="#e24514"/>
    <path id="Path_18744" data-name="Path 18744" d="M18.157,35.707c-.065.3-.142.582-.22.879h-.1c-.116-.543-.207-1.073-.323-1.617.1.634.22,1.255.3,1.888a6.406,6.406,0,0,1-.026,1c-.026.53-.065,1.061-.116,1.6h0s.116-.116.116-.181c.129-1.177.246-2.367.375-3.557Z" transform="translate(5.136 9.757)" fill="#e24514"/>
    <path id="Path_18745" data-name="Path 18745" d="M16.93,41.6c.078-.336.181-.673.272-1.022.039-.181.065-.375.1-.556.026-.078.013-.207.065-.246.517-.466.375-1.1.479-1.668h0c.362,1.358-.556,2.354-.905,3.5Z" transform="translate(4.966 10.657)" fill="#e24514"/>
    <path id="Path_18746" data-name="Path 18746" d="M19.715,51.352c.815-1.28,1.63-2.587,2.444-3.867-.052-.052-.129-.1-.181-.155-.66,1-1.306,1.992-1.992,3.013-.647-.1-1.306-.207-1.992-.323-.026.1-.039.181-.065.285a6.035,6.035,0,0,1,1.306.323c.22.1.31.491.466.737h.026Z" transform="translate(5.259 13.245)" fill="#e24514"/>
    <path id="Path_18747" data-name="Path 18747" d="M24.326,1.3c-.065-.052-.142-.1-.31-.22.323.026.543.039.75.065,0-.026.013-.065.013-.1C24.183.968,23.575.878,22.89.8c.517.233.931.427,1.371.634a.891.891,0,0,1,.052-.129Z" transform="translate(6.714 0.027)" fill="#e24514"/>
    <path id="Path_18748" data-name="Path 18748" d="M20.084,50.229c-.142,0-.336-.078-.4-.013A24.612,24.612,0,0,0,17.2,53.85L20.071,50.2a.045.045,0,0,0,.013.026Z" transform="translate(5.045 14.084)" fill="#e24514"/>
  </g>
  <g id="Group_203" data-name="Group 203" transform="translate(44.654 56.877)">
    <path id="Path_18749" data-name="Path 18749" d="M39.371,53.42a.725.725,0,0,0-.5.194.712.712,0,0,0-.207.517.664.664,0,0,0,.207.5.672.672,0,0,0,.5.194.766.766,0,0,0,.53-.194.683.683,0,0,0,.207-.5.692.692,0,0,0-.207-.517A.711.711,0,0,0,39.371,53.42Z" transform="translate(-33.72 -41.638)" fill="#182948"/>
    <path id="Path_18750" data-name="Path 18750" d="M37.861,53.42a.725.725,0,0,0-.5.194.712.712,0,0,0-.207.517.664.664,0,0,0,.207.5.672.672,0,0,0,.5.194.766.766,0,0,0,.53-.194.683.683,0,0,0,.207-.5.692.692,0,0,0-.207-.517A.711.711,0,0,0,37.861,53.42Z" transform="translate(-34.162 -41.638)" fill="#182948"/>
    <path id="Path_18751" data-name="Path 18751" d="M53.571,53.33a.725.725,0,0,0-.5.194.712.712,0,0,0-.207.517.664.664,0,0,0,.207.5.672.672,0,0,0,.5.194.766.766,0,0,0,.53-.194.683.683,0,0,0,.207-.5.692.692,0,0,0-.207-.517A.766.766,0,0,0,53.571,53.33Z" transform="translate(-29.554 -41.664)" fill="#182948"/>
    <path id="Path_18752" data-name="Path 18752" d="M52.061,53.33a.725.725,0,0,0-.5.194.712.712,0,0,0-.207.517.664.664,0,0,0,.207.5.672.672,0,0,0,.5.194.766.766,0,0,0,.53-.194.683.683,0,0,0,.207-.5.692.692,0,0,0-.207-.517A.766.766,0,0,0,52.061,53.33Z" transform="translate(-29.997 -41.664)" fill="#182948"/>
    <path id="Path_18753" data-name="Path 18753" d="M58.663,52.855H55.249V49.867a2.317,2.317,0,0,0-.685-1.837,1.781,1.781,0,0,0-1.255-.5H49.6l.039-.129-1.1-.427-.7,1.759H53.3a1.2,1.2,0,0,1,.466.181,1.311,1.311,0,0,1,.3.983V52.88H45.523v-5.9H43.867a4.857,4.857,0,0,0-3.13.75,2.687,2.687,0,0,0-.918,2.1v1.009H42v2.056H37.478s-.078-.013-.142-.026A.6.6,0,0,1,37,52.7a1.851,1.851,0,0,1-.414-1.423V47.72l-1.746.608.388,1.125L35.4,49.4V51.29a2.956,2.956,0,0,0,.828,2.3,1.851,1.851,0,0,0,1.293.5h5.7V49.712H41a1.538,1.538,0,0,1,.569-1.164,5.354,5.354,0,0,1,2.755-.414V54.1h9.726v.194l1.2,1.2V54.1h4.6V48.457l.285.052.233-1.177L58.65,47v5.872h.013Z" transform="translate(-34.84 -43.53)" fill="#182948"/>
    <path id="Path_18754" data-name="Path 18754" d="M67.165,51.269a2.746,2.746,0,0,1-.595,2.018,1.262,1.262,0,0,1-.905.336H63.932V45.449l-1.2-1.009v9.183H60.75V48.1l-1.2.569-1.487.31a3.352,3.352,0,0,0-1.772.918,3.246,3.246,0,0,0-.918,2.393v3.143l1.2-.595H59.56v1.086a1.284,1.284,0,0,1-.336.905,1.594,1.594,0,0,1-1.164.388H56.767v1.2H58.06a2.749,2.749,0,0,0,2.056-.776,2.441,2.441,0,0,0,.66-1.694V54.826h4.85a2.444,2.444,0,0,0,1.759-.647,3.86,3.86,0,0,0,1-2.923v-5.82l-1.2-1.086v6.919h0Zm-7.6,2.354H56.573V52.278a2,2,0,0,1,.7-1.63,2.878,2.878,0,0,1,.983-.491l1.306-.272V53.61Z" transform="translate(-28.818 -44.298)" fill="#182948"/>
    <path id="Path_18755" data-name="Path 18755" d="M66.45,54.838h1.2V46.03l.3.116.4-1.138-1.9-.7Z" transform="translate(-25.568 -44.31)" fill="#182948"/>
    <path id="Path_18756" data-name="Path 18756" d="M74.451,53.34a.725.725,0,0,0-.5.194.712.712,0,0,0-.207.517.664.664,0,0,0,.207.5.672.672,0,0,0,.5.194.766.766,0,0,0,.53-.194.683.683,0,0,0,.207-.5.692.692,0,0,0-.207-.517A.766.766,0,0,0,74.451,53.34Z" transform="translate(-23.43 -41.661)" fill="#182948"/>
    <path id="Path_18757" data-name="Path 18757" d="M92.021,46.51a.766.766,0,0,0,.53-.194.683.683,0,0,0,.207-.5.692.692,0,0,0-.207-.517.711.711,0,0,0-.53-.194.725.725,0,0,0-.5.194.712.712,0,0,0-.207.517.664.664,0,0,0,.207.5A.725.725,0,0,0,92.021,46.51Z" transform="translate(-18.276 -44.078)" fill="#182948"/>
    <path id="Path_18758" data-name="Path 18758" d="M90.511,46.51a.766.766,0,0,0,.53-.194.683.683,0,0,0,.207-.5.692.692,0,0,0-.207-.517.711.711,0,0,0-.53-.194.725.725,0,0,0-.5.194.712.712,0,0,0-.207.517.664.664,0,0,0,.207.5A.7.7,0,0,0,90.511,46.51Z" transform="translate(-18.719 -44.078)" fill="#182948"/>
    <path id="Path_18759" data-name="Path 18759" d="M101.82,51.275a2.746,2.746,0,0,1-.595,2.018,1.262,1.262,0,0,1-.905.336H98.755V48.4l-1.2-.685v5.9H94.435V51.353a2.617,2.617,0,0,0-.685-2.043,1.883,1.883,0,0,0-1.293-.491H87.568l-.5.7V47.848h-1.2v5.781H83.727V45.455l-1.2-1.009v9.183H80.067V49.18l.285.052.233-1.177-1.72-.336v5.9H73.212a1.07,1.07,0,0,1-.724-.336,2.746,2.746,0,0,1-.595-2.018V48.831h-1.2v2.431a3.86,3.86,0,0,0,1,2.923,2.259,2.259,0,0,0,1.565.647H93.258v.194l1.138,1.2v-1.4h5.833a2.444,2.444,0,0,0,1.759-.647,3.86,3.86,0,0,0,1-2.923V45.416l-1.2-1.086v6.919h.026ZM93.3,53.629H87.076v-3.6h5.587a.541.541,0,0,1,.414.181c.155.142.22.517.22,1.177v2.25Z" transform="translate(-24.324 -44.304)" fill="#182948"/>
    <path id="Path_18760" data-name="Path 18760" d="M96.72,44.31V54.838h1.2V46.03l.285.116.414-1.138Z" transform="translate(-16.689 -44.31)" fill="#182948"/>
  </g>
</svg>
