<svg xmlns="http://www.w3.org/2000/svg" xmlns:xlink="http://www.w3.org/1999/xlink" width="174" height="71" viewBox="0 0 174 71">
  <defs>
    <clipPath id="clip-path">
      <rect id="Rectangle_45" data-name="Rectangle 45" width="14.861" height="18.384" fill="none"/>
    </clipPath>
    <clipPath id="clip-path-3">
      <rect id="Rectangle_52" data-name="Rectangle 52" width="60.299" height="20.287" fill="none"/>
    </clipPath>
    <clipPath id="clip-path-10">
      <rect id="Rectangle_56" data-name="Rectangle 56" width="39.118" height="17.618" fill="none"/>
    </clipPath>
  </defs>
  <g id="PO_SVG__1_1_" data-name="PO SVG_ (1) (1)" transform="translate(-0.03 -0.05)">
    <g id="Group_180" data-name="Group 180" transform="translate(0.03 0.05)">
      <path id="Path_18627" data-name="Path 18627" d="M24.423,17.65a21.673,21.673,0,0,0,.881,6.294c.077.243.153.511.243.74l.128.37a.791.791,0,0,0,.077.179l.077.179c.192.472.447.932.689,1.392A24.4,24.4,0,0,0,28.279,29.4c.638.843,1.3,1.7,1.928,2.592a14.424,14.424,0,0,1,1.621,2.924,7.012,7.012,0,0,1,.294.83,6.756,6.756,0,0,1,.192.881,5.557,5.557,0,0,1-.038,1.838,5.259,5.259,0,0,1-.23.881l-.153.421-.14.37c-.089.243-.179.5-.268.74s-.153.5-.243.74a16.531,16.531,0,0,0-.677,2.987,10.171,10.171,0,0,0,.038,2.987,8.438,8.438,0,0,0,.958,2.758c.5.868,1.149,1.711,1.749,2.63a13.332,13.332,0,0,1,.843,1.443c.128.243.243.523.357.779s.192.511.294.779a13.084,13.084,0,0,1,.7,3.281c.013.281.038.562.038.843v.638c0,.077-.013.1-.013.14v.1c-.1.549-.192,1.072-.319,1.609-.1.523-.23,1.06-.357,1.583-.077.268-.14.523-.23.792-.038.14-.089.268-.14.409-.038.077-.051.14-.1.23a.424.424,0,0,1-.1.14c-.013.013-.013.038-.051.051a.2.2,0,0,1-.077.051c-.013.013-.038.013-.051.038s-.051.013-.089.013a.5.5,0,0,1-.192-.013l.217-.613a10.875,10.875,0,0,0,1.341.383c.46.1.919.179,1.392.243s.958.1,1.417.14.958.051,1.43.077c-.472.051-.958.089-1.43.128a10.881,10.881,0,0,1-1.443.013c-.472-.013-.97-.038-1.443-.089a8.224,8.224,0,0,1-1.443-.281l.217-.613s-.1-.013-.14-.013c-.013,0-.038.013-.051.013s-.013,0-.038.013a.063.063,0,0,1-.038.013h-.013l.013-.013c.013-.038.038-.089.051-.14a1.465,1.465,0,0,0,.089-.357c.051-.243.1-.511.14-.779.089-.511.153-1.047.23-1.57s.128-1.06.179-1.57v-.332c0-.128-.013-.243-.013-.383a7.525,7.525,0,0,0-.077-.753,11.49,11.49,0,0,0-.319-1.494,9.631,9.631,0,0,0-.5-1.443c-.089-.243-.192-.472-.294-.7s-.217-.447-.332-.677a11.624,11.624,0,0,0-.83-1.289c-.306-.421-.613-.843-.932-1.289s-.638-.881-.932-1.379a9.436,9.436,0,0,1-1.2-3.268,11.842,11.842,0,0,1-.051-3.422,18.673,18.673,0,0,1,.74-3.268l.268-.792c.089-.268.192-.511.294-.779l.153-.383c.038-.1.089-.217.128-.332a4.67,4.67,0,0,0,.23-2.03c-.038-.23-.077-.46-.128-.689a4.851,4.851,0,0,0-.23-.689A14.831,14.831,0,0,0,29.1,32.741c-.549-.881-1.162-1.749-1.762-2.643a23.02,23.02,0,0,1-1.66-2.822,9.833,9.833,0,0,1-.613-1.532l-.077-.192a1.974,1.974,0,0,0-.051-.192l-.1-.409c-.077-.268-.128-.523-.179-.792a17.4,17.4,0,0,1-.37-3.23,17.311,17.311,0,0,1,.179-3.268Z" transform="translate(6.677 4.708)" fill="#2a7d84"/>
      <path id="Path_18628" data-name="Path 18628" d="M40.591,8.808a10.978,10.978,0,0,1-2.221.6,10.1,10.1,0,0,1-2.324.1,6.876,6.876,0,0,1-2.3-.549,6.156,6.156,0,0,1-1.992-1.341l.038.038c-.37-.268-.792-.523-1.2-.779a13.521,13.521,0,0,0-1.251-.7,18.362,18.362,0,0,0-2.617-1.162c-.447-.153-.894-.294-1.353-.421a10.563,10.563,0,0,0-1.379-.281,8.355,8.355,0,0,0-1.379-.1,11.656,11.656,0,0,0-1.353.089l-.243.038L20.8,4.187a33.661,33.661,0,0,0-2.86-1.813,13.889,13.889,0,0,0-1.468-.7c-.128-.038-.243-.089-.357-.128l-.179-.038h-.089a.332.332,0,0,1-.089-.038,3.4,3.4,0,0,0-.357-.038h-.179a1.032,1.032,0,0,0-.192-.013,6.727,6.727,0,0,0-1.558.217,11.055,11.055,0,0,0-1.558.5,12.135,12.135,0,0,0-1.494.677,10.014,10.014,0,0,0-1.392.83A14.65,14.65,0,0,0,4.691,8.489,14,14,0,0,0,3.452,11.5a10.324,10.324,0,0,0-.319,3.179l-.753-.728L5.3,14l2.924.051,2.924.077,2.924.077-.332.089c.128-.077.281-.14.409-.23s.281-.153.409-.243c.268-.179.523-.357.779-.549a8.11,8.11,0,0,0,.689-.613,2.61,2.61,0,0,0,.511-.689l.587-1.047.472,1.06.051.1a.478.478,0,0,0,.077.128,2.221,2.221,0,0,0,.14.23c.1.153.192.319.294.46.217.294.46.6.7.868a8.408,8.408,0,0,0,1.711,1.443,8.925,8.925,0,0,0,2.03.958,10.276,10.276,0,0,0,2.234.409l.421.038L25.169,17s-.013.077-.013.1-.013.089-.013.128a1.885,1.885,0,0,0-.013.268c0,.179,0,.357.013.549a6.09,6.09,0,0,0,.192,1.072,6.028,6.028,0,0,0,1.021,1.941,7.79,7.79,0,0,0,.779.817,4.215,4.215,0,0,0,.447.357c.077.051.14.128.23.179l.23.153a11.85,11.85,0,0,0,2.043,1.047,11.119,11.119,0,0,1-2.158-.843,6.933,6.933,0,0,1-1.864-1.417,6.054,6.054,0,0,1-1.264-2.03,5.983,5.983,0,0,1-.294-1.187,3.22,3.22,0,0,1-.051-.613v-.319a.871.871,0,0,1,.013-.153.971.971,0,0,1,.013-.179l.332.421A9.981,9.981,0,0,1,22.36,17a8.93,8.93,0,0,1-2.311-.958,10.535,10.535,0,0,1-1.992-1.519,9.427,9.427,0,0,1-.83-.932c-.128-.153-.243-.332-.37-.511-.051-.089-.128-.179-.179-.268-.038-.051-.051-.089-.089-.14a1.628,1.628,0,0,1-.089-.153h1.06a4.113,4.113,0,0,1-.677.97c-.243.281-.523.523-.792.779-.281.23-.562.447-.868.651-.14.1-.294.192-.46.294s-.294.179-.472.281l-.14.077H2.29l-.7-.013-.051-.7a11.514,11.514,0,0,1,.332-3.69A14.2,14.2,0,0,1,3.222,7.787,16.6,16.6,0,0,1,5.342,4.838a15.805,15.805,0,0,1,2.732-2.4,2.417,2.417,0,0,1,.383-.243c.128-.089.268-.153.383-.243l.409-.23c.14-.077.268-.14.409-.217.549-.268,1.1-.511,1.66-.728A11.228,11.228,0,0,1,13.079.267,9.07,9.07,0,0,1,14.943.05h.5a3.731,3.731,0,0,1,.5.089c.038,0,.089.013.128.013l.128.038.243.077c.153.051.294.1.46.153a14.188,14.188,0,0,1,1.647.83q.766.44,1.494.958c.485.345.958.677,1.43,1.047l-.46-.128a10.762,10.762,0,0,1,1.57-.051,12.556,12.556,0,0,1,1.532.192c.5.1.983.23,1.481.37.472.153.958.332,1.43.523A21.09,21.09,0,0,1,29.7,5.514c.421.243.843.523,1.251.792s.817.587,1.2.894h.013l.013.038a5.741,5.741,0,0,0,1.711,1.3,6.709,6.709,0,0,0,2.119.651,11.1,11.1,0,0,0,2.26.077,11.784,11.784,0,0,0,2.311-.409Z" transform="translate(0.378 -0.05)" fill="#2a7d84"/>
      <path id="Path_18629" data-name="Path 18629" d="M28.691,11.953h0v-.038l-.051-.038-.089-.089a1.1,1.1,0,0,1-.179-.179c-.128-.1-.243-.23-.383-.332a10.024,10.024,0,0,0-.843-.6,7.734,7.734,0,0,0-1.89-.881,9.71,9.71,0,0,0-2.094-.447A11.372,11.372,0,0,0,20.98,9.4a10.371,10.371,0,0,1,2.183-.46,9.687,9.687,0,0,1,2.273.051,8.648,8.648,0,0,1,2.234.6,6.8,6.8,0,0,1,1.072.5,4.864,4.864,0,0,1,.511.294,1.631,1.631,0,0,1,.268.179c.038.038.089.051.128.089l.077.051.038.038.038.038L28.7,11.94Z" transform="translate(5.767 2.379)" fill="#2a7d84"/>
      <path id="Path_18630" data-name="Path 18630" d="M24.093,10.368h0v-.077l-.051-.1a1.469,1.469,0,0,0-.077-.217,4.07,4.07,0,0,0-.179-.447,6.855,6.855,0,0,0-.46-.843,6.333,6.333,0,0,0-1.251-1.494A7.475,7.475,0,0,0,20.4,6.078,8.747,8.747,0,0,0,18.45,5.44a8.261,8.261,0,0,1,2.094.268,7.874,7.874,0,0,1,2.017.843,6.992,6.992,0,0,1,1.724,1.417,8.081,8.081,0,0,1,.728.881c.1.153.217.319.319.472a2.7,2.7,0,0,1,.14.268c.013.038.051.089.077.14l.038.077v.038a.057.057,0,0,1,.038.051l-1.519.472Z" transform="translate(5.067 1.441)" fill="#2a7d84"/>
      <path id="Path_18631" data-name="Path 18631" d="M8.83,7.865c0-.077.013-.1.013-.153v-.14A2.114,2.114,0,0,0,8.919,7.3a4.9,4.9,0,0,1,.14-.511,6.537,6.537,0,0,1,.383-.983A6.81,6.81,0,0,1,10,4.891a3.617,3.617,0,0,1,.792-.74A3.228,3.228,0,0,1,12.813,3.6a5.24,5.24,0,0,1,1.89.5,5.138,5.138,0,0,0-1.864-.089,2.614,2.614,0,0,0-1.519.753,3.274,3.274,0,0,0-.753,1.481,6.445,6.445,0,0,0-.14.843c-.013.14-.013.281-.013.421v.409l-1.57-.051Z" transform="translate(2.405 0.931)" fill="#2a7d84"/>
      <path id="Path_18632" data-name="Path 18632" d="M19.54,13.848c.077-.153.14-.294.23-.447s.179-.268.268-.409a3.8,3.8,0,0,1,.651-.7,2.439,2.439,0,0,1,1.736-.6,2.413,2.413,0,0,0-.843.268,2.274,2.274,0,0,0-.651.562,3.893,3.893,0,0,0-.46.728,3.355,3.355,0,0,0-.179.383,2.692,2.692,0,0,0-.128.383l-.613-.179Z" transform="translate(5.368 3.146)" fill="#2a7d84"/>
      <path id="Path_18633" data-name="Path 18633" d="M13.521,9.985c-.013-.179,0-.332,0-.5s.038-.319.051-.472a4.649,4.649,0,0,1,.243-.919,2.315,2.315,0,0,1,.5-.792,2.169,2.169,0,0,1,.753-.523,1.874,1.874,0,0,0-.613.613,2.247,2.247,0,0,0-.319.792,3.765,3.765,0,0,0-.077.843,2.351,2.351,0,0,0,.038.421,2.1,2.1,0,0,0,.077.409Z" transform="translate(3.701 1.812)" fill="#2a7d84"/>
      <g id="Group_155" data-name="Group 155" transform="translate(52.281 0.051)">
        <path id="Path_18634" data-name="Path 18634" d="M41.044,8.925a10.46,10.46,0,0,0,2.26.383,10.251,10.251,0,0,0,2.26-.077,6.709,6.709,0,0,0,2.119-.651,5.741,5.741,0,0,0,1.711-1.3h.013l.013-.038c.383-.319.792-.613,1.2-.894s.83-.549,1.251-.792A19.52,19.52,0,0,1,54.551,4.2c.46-.192.932-.37,1.43-.523.472-.14.983-.268,1.481-.37s1.021-.153,1.532-.192a12.993,12.993,0,0,1,1.57.051l-.46.128c.472-.37.958-.7,1.43-1.047.5-.332.983-.651,1.494-.958A11.674,11.674,0,0,1,64.676.46c.153-.051.294-.1.46-.153L65.378.23l.128-.038s.089-.013.128-.013c.153-.038.332-.051.5-.077h.243A1.545,1.545,0,0,1,66.616.09,8.868,8.868,0,0,1,68.48.307a16.407,16.407,0,0,1,1.762.511,15.945,15.945,0,0,1,1.66.728c.14.077.268.14.409.217l.409.23a2.806,2.806,0,0,1,.383.243,3.179,3.179,0,0,0,.383.243,14.856,14.856,0,0,1,2.732,2.4,17.27,17.27,0,0,1,2.119,2.949A13.589,13.589,0,0,1,79.69,11.21a11.133,11.133,0,0,1,.332,3.69l-.051.7H76.332l-2.924.013H67.369l-.14-.077a4.193,4.193,0,0,1-.472-.281c-.153-.089-.294-.192-.46-.294a8.1,8.1,0,0,1-.868-.651,5.059,5.059,0,0,1-.792-.779,5.661,5.661,0,0,1-.677-.97h1.06a.81.81,0,0,1-.089.153c-.038.051-.051.089-.089.14a1.632,1.632,0,0,1-.179.268c-.128.179-.243.357-.37.511a8.308,8.308,0,0,1-.83.932,9.568,9.568,0,0,1-1.992,1.519,9.4,9.4,0,0,1-2.311.958,9.533,9.533,0,0,1-2.451.294l.332-.421a.971.971,0,0,1,.013.179.622.622,0,0,0,.013.153v.319a3.22,3.22,0,0,1-.051.613,5.569,5.569,0,0,1-.294,1.187,6.1,6.1,0,0,1-1.264,2.03,7.138,7.138,0,0,1-1.864,1.417,9.462,9.462,0,0,1-2.158.843,10.285,10.285,0,0,0,2.043-1.047l.23-.153a1.4,1.4,0,0,0,.23-.179,5.477,5.477,0,0,0,.447-.357,5.258,5.258,0,0,0,.779-.817,5.567,5.567,0,0,0,1.021-1.941,6.091,6.091,0,0,0,.192-1.072c.013-.179.013-.357.013-.549,0-.089-.013-.179-.013-.268,0-.038-.013-.089-.013-.128s-.013-.089-.013-.1l-.089-.383.421-.038a10.138,10.138,0,0,0,2.234-.409,8.009,8.009,0,0,0,2.03-.958,8.837,8.837,0,0,0,1.711-1.443,9.074,9.074,0,0,0,.7-.868,3.5,3.5,0,0,0,.294-.46c.051-.077.089-.153.14-.23a.478.478,0,0,1,.077-.128.374.374,0,0,1,.051-.1l.472-1.06.587,1.047a3.422,3.422,0,0,0,.511.689,7.874,7.874,0,0,0,.689.613c.243.192.511.37.779.549.14.089.281.179.409.243s.281.153.409.23l-.294-.077,2.924-.077,2.924-.077,2.924-.051,2.924-.051-.753.728a9.948,9.948,0,0,0-.319-3.179,11.9,11.9,0,0,0-1.238-3.013A14.65,14.65,0,0,0,72.527,3.69a9.534,9.534,0,0,0-1.392-.83c-.5-.243-.983-.472-1.494-.677a12.228,12.228,0,0,0-1.558-.5,6.634,6.634,0,0,0-1.558-.217h-.37c-.128.013-.243.038-.357.051a.217.217,0,0,0-.089.013H65.62l-.179.051c-.128.038-.23.077-.357.128a11.846,11.846,0,0,0-1.468.7,33.663,33.663,0,0,0-2.86,1.813l-.217.153L60.3,4.341a7.949,7.949,0,0,0-1.353-.089c-.46.013-.919.051-1.379.1-.46.077-.919.179-1.379.281-.46.128-.894.268-1.353.421a22.693,22.693,0,0,0-2.617,1.162c-.421.23-.843.46-1.251.7s-.83.511-1.2.779l.038-.038A6.753,6.753,0,0,1,47.81,9a7.646,7.646,0,0,1-2.3.549,10.833,10.833,0,0,1-2.324-.1,11.576,11.576,0,0,1-2.209-.6Z" transform="translate(-40.98 -0.09)" fill="#2a7d84"/>
        <path id="Path_18635" data-name="Path 18635" d="M45.27,10.9s.038-.013.038-.038l.038-.038.077-.051a.681.681,0,0,1,.128-.089c.089-.051.179-.128.268-.179.179-.1.357-.217.511-.294a9.024,9.024,0,0,1,1.072-.5,9.986,9.986,0,0,1,2.234-.6,9.687,9.687,0,0,1,2.273-.051,10.543,10.543,0,0,1,2.183.46,11.372,11.372,0,0,0-2.183-.051,9.394,9.394,0,0,0-2.094.447,9.811,9.811,0,0,0-1.89.881,6.687,6.687,0,0,0-.843.6,3.251,3.251,0,0,0-.383.332,1.18,1.18,0,0,0-.179.179L46.432,12l-.038.038h-.013s-.013.038,0,.038l-1.1-1.162Z" transform="translate(-39.793 2.38)" fill="#2a7d84"/>
        <path id="Path_18636" data-name="Path 18636" d="M49.1,9.976a.29.29,0,0,0,.013-.051V9.886l.051-.077a.762.762,0,0,1,.077-.14c.051-.089.089-.179.14-.268.1-.153.217-.332.319-.472a6.837,6.837,0,0,1,.728-.881,8.711,8.711,0,0,1,1.724-1.417,7.763,7.763,0,0,1,2.017-.843,8.487,8.487,0,0,1,2.094-.268,8.758,8.758,0,0,0-1.953.638,7.2,7.2,0,0,0-1.672,1.111,6.948,6.948,0,0,0-1.251,1.494,9.138,9.138,0,0,0-.46.843,2.719,2.719,0,0,0-.179.447,1.468,1.468,0,0,1-.077.217c-.013.038-.013.077-.038.1v.051l-.013.013h0L49.1,9.963Z" transform="translate(-38.733 1.412)" fill="#2a7d84"/>
        <path id="Path_18637" data-name="Path 18637" d="M64,7.987V7.579c0-.14,0-.281-.013-.421a4.838,4.838,0,0,0-.14-.843,3.34,3.34,0,0,0-.753-1.481,2.473,2.473,0,0,0-1.519-.753,5.744,5.744,0,0,0-1.864.089,5.24,5.24,0,0,1,1.89-.5,3.149,3.149,0,0,1,2.017.549,4.357,4.357,0,0,1,.792.74,4.549,4.549,0,0,1,.562.919,7.117,7.117,0,0,1,.383.983c.051.179.089.332.14.511.013.089.038.179.051.268v.14a.494.494,0,0,1,.038.153l-1.57.051Z" transform="translate(-35.797 0.899)" fill="#2a7d84"/>
        <path id="Path_18638" data-name="Path 18638" d="M53.63,14.144a3.367,3.367,0,0,0-.128-.383,1.76,1.76,0,0,0-.179-.383,3.893,3.893,0,0,0-.46-.728,2.491,2.491,0,0,0-.651-.562,2.331,2.331,0,0,0-.843-.268,2.324,2.324,0,0,1,.919.128,3.094,3.094,0,0,1,.817.472,4.826,4.826,0,0,1,.651.7c.089.128.179.268.268.409a2.916,2.916,0,0,1,.23.447l-.613.179Z" transform="translate(-38.105 3.155)" fill="#2a7d84"/>
        <path id="Path_18639" data-name="Path 18639" d="M59.344,9.977a3.867,3.867,0,0,0,.077-.409c.026-.14.013-.281.038-.421a3.633,3.633,0,0,0-.077-.843,2.516,2.516,0,0,0-.319-.792A2.155,2.155,0,0,0,58.45,6.9a2.222,2.222,0,0,1,.753.523,2.854,2.854,0,0,1,.5.792,3.754,3.754,0,0,1,.243.919c.013.153.038.319.051.472a3.235,3.235,0,0,1,0,.5Z" transform="translate(-36.146 1.794)" fill="#2a7d84"/>
      </g>
      <path id="Path_18640" data-name="Path 18640" d="M52.172,17.726a18.078,18.078,0,0,1,.192,3.23,19.714,19.714,0,0,1-.37,3.23c-.051.268-.1.523-.179.792l-.1.409a1.973,1.973,0,0,1-.051.192l-.077.192a14.735,14.735,0,0,1-.613,1.532,21.254,21.254,0,0,1-1.66,2.822c-.6.894-1.213,1.762-1.762,2.643A14.07,14.07,0,0,0,46.171,35.5a5.453,5.453,0,0,0-.23.689,6.53,6.53,0,0,0-.128.689,4.352,4.352,0,0,0,.051,1.353,4.415,4.415,0,0,0,.179.677c.038.1.089.217.128.332l.153.383c.1.243.192.511.294.779s.179.523.268.792a18.938,18.938,0,0,1,.74,3.268,11.835,11.835,0,0,1-.051,3.422,9.437,9.437,0,0,1-1.2,3.268c-.294.5-.613.932-.932,1.379s-.638.868-.932,1.289a13.819,13.819,0,0,0-.83,1.289c-.128.23-.23.447-.332.677s-.217.472-.294.7a14.816,14.816,0,0,0-.5,1.443,11.961,11.961,0,0,0-.319,1.494c-.038.243-.051.511-.077.753,0,.128-.013.243-.013.383v.332c.051.511.1,1.06.179,1.57s.14,1.06.23,1.57c.038.268.089.511.14.779.038.128.051.243.089.357.013.051.038.1.051.14a.129.129,0,0,0,.013.038h-.013s-.013-.038-.038-.038-.013-.013-.038-.013-.038-.013-.051-.013a.572.572,0,0,0-.14.013l.217.613a9.591,9.591,0,0,1-1.443.281,14.108,14.108,0,0,1-1.443.089c-.472,0-.97,0-1.443-.013-.472-.038-.958-.077-1.43-.128.472-.013.958-.038,1.43-.077s.958-.089,1.417-.14a12.678,12.678,0,0,0,1.392-.243,12.324,12.324,0,0,0,1.341-.383l.217.613s-.14.013-.192.013-.051-.013-.089-.013a.068.068,0,0,1-.051-.038c-.038-.013-.051-.038-.077-.051l-.051-.051s-.077-.1-.1-.14a1.16,1.16,0,0,1-.1-.23c-.051-.14-.1-.268-.14-.409-.089-.268-.153-.523-.23-.792-.128-.523-.243-1.06-.357-1.583s-.217-1.06-.294-1.609v-.1a.382.382,0,0,1-.038-.14v-.638q0-.421.038-.843a13.084,13.084,0,0,1,.7-3.281c.089-.268.192-.523.294-.779s.23-.523.357-.779c.268-.511.549-.983.843-1.443.6-.919,1.251-1.762,1.749-2.63a7.555,7.555,0,0,0,.958-2.758,11.128,11.128,0,0,0,.038-2.987,16.056,16.056,0,0,0-.677-2.987c-.089-.243-.153-.5-.243-.74s-.179-.5-.268-.74l-.14-.37-.153-.421a6.866,6.866,0,0,1-.23-.881,5.923,5.923,0,0,1-.038-1.838,5.159,5.159,0,0,1,.192-.881c.089-.294.192-.549.294-.83a15.069,15.069,0,0,1,1.621-2.924c.613-.894,1.289-1.749,1.928-2.592a24.4,24.4,0,0,0,1.762-2.592c.243-.46.5-.919.689-1.392l.077-.179s.051-.128.077-.179l.128-.37c.089-.243.179-.5.243-.74A21.745,21.745,0,0,0,52.21,17.7Z" transform="translate(10.208 4.722)" fill="#2a7d84"/>
      <g id="Group_156" data-name="Group 156" transform="translate(0 18.512)">
        <path id="Path_18641" data-name="Path 18641" d="M22.015,25.5a1.048,1.048,0,0,0,.038-.562.935.935,0,0,1,.179-.587c.128-.153.268-.294.409-.447.14-.128.294-.243.447-.37h-.013a4.716,4.716,0,0,0,.6-1.187,3.78,3.78,0,0,0,.179-1.3,4.188,4.188,0,0,0-.243-1.264c-.077-.192-.179-.409-.268-.587a2.587,2.587,0,0,0-.357-.511c-.077-.089-.14-.153-.217-.243l-.1-.1-.128-.1a1.779,1.779,0,0,0-.243-.192c-.089-.051-.179-.128-.268-.179a3.123,3.123,0,0,0-1.149-.421,3.667,3.667,0,0,0-1.238,0,4.754,4.754,0,0,0-.613.14c-.1.038-.192.051-.294.089-.051.013-.089.038-.14.051l-.077.038h-.038l-.013.013h0a.319.319,0,0,1-.1.038,1.03,1.03,0,0,1-.281,0,.585.585,0,0,1-.268-.179.958.958,0,0,1-.1-.179v.038a2.364,2.364,0,0,0-1.111-1.2,3.861,3.861,0,0,0-1.7-.447,4.836,4.836,0,0,0-1.8.243,3.589,3.589,0,0,0-1.481.868l-.409.409-.511-.357a5.027,5.027,0,0,0-2.132-.881,3.606,3.606,0,0,0-1.111-.013,3.4,3.4,0,0,0-1.915.932,3.108,3.108,0,0,0-.613.881,3.07,3.07,0,0,0-.217.511c-.038.089-.051.179-.089.268a.576.576,0,0,1-.038.14v.077H4.575v.6a3.639,3.639,0,0,0-.038.37v.1L4.5,20.12v.089a.411.411,0,0,0-.051.089,1.324,1.324,0,0,1-.051.128.056.056,0,0,0-.013.038V20.5l-.077.077c-.038.051-.077.089-.1.128l-.1.1-.153.077a3.667,3.667,0,0,0-1.8,1.519,3.356,3.356,0,0,0-.46,2.273c.013.089.038.192.051.281.038.089.051.192.089.281a2.245,2.245,0,0,0,.268.523,3,3,0,0,0,.779.881,2.931,2.931,0,0,0,.511.332,2.88,2.88,0,0,0,.281.14l.077.038h.013a.5.5,0,0,0,.14.038,2.181,2.181,0,0,0,.37.1c.038.013.077.013.1.038a.375.375,0,0,0,.128.038,2.861,2.861,0,0,1,.281.14c.038.013.051.038.089.051h.013l.038.038.051.051.051.051c.013.038.051.051.077.089a.274.274,0,0,0,.051.089c.013.038.038.051.038.089s.013.077.038.089c0,.038.013.038.013.077v.077a.29.29,0,0,1,.013.051v.153a2.379,2.379,0,0,1-.038.46c-.013.128-.038.243-.038.332v.1h0v.051a1.757,1.757,0,0,0,.192.511,3.135,3.135,0,0,0,.74.919,3.323,3.323,0,0,0,1.047.613,1.742,1.742,0,0,0,.549.14,3.07,3.07,0,0,0,.587-.013c.217-.026.447-.077.677-.128l.37-.077a1.721,1.721,0,0,0,.23-.038.994.994,0,0,1,.383.013.688.688,0,0,1,.128.038c.038.013.077.038.089.038l.077.038.051.038a.566.566,0,0,1,.153.128,1.631,1.631,0,0,0,.268.179,3.3,3.3,0,0,0,.562.281,2.848,2.848,0,0,0,2.349-.14l.281-.153.268.153.46.281.243.1a.985.985,0,0,0,.243.1l.243.089h.051a.134.134,0,0,0,.077.038h.128a1.344,1.344,0,0,0,.511.089,2.581,2.581,0,0,0,.983-.179,2.21,2.21,0,0,0,.46-.23c.077-.051.14-.1.217-.153a.154.154,0,0,0,.089-.089l.038-.038.038-.038.14-.14h.179c.128.038.268.051.383.077a3.83,3.83,0,0,0,.383,0,2.924,2.924,0,0,0,.753-.153,2.627,2.627,0,0,0,.689-.383c.051-.038.1-.089.153-.128a1.456,1.456,0,0,0,.14-.14c.089-.089.192-.192.268-.281v-.038a2.066,2.066,0,0,0,.472-.7,2.347,2.347,0,0,0,.153-.843,2.943,2.943,0,0,0-.128-.881,4.452,4.452,0,0,0-.332-.843h0l.013-.013a.84.84,0,0,0,.179-.192.668.668,0,0,1-.153.217h0a3.131,3.131,0,0,1,.447.817,3.239,3.239,0,0,1,.23.919,2.513,2.513,0,0,1-.089.97,2.9,2.9,0,0,1-.46.881v-.038a1.592,1.592,0,0,1-.268.383,1.111,1.111,0,0,0-.153.179L20.8,31.7a2.833,2.833,0,0,1-.779.511,3.166,3.166,0,0,1-.894.281,1.968,1.968,0,0,1-.472.038c-.153,0-.319-.013-.472-.013l.319-.128a.393.393,0,0,1-.077.077.4.4,0,0,0-.051.077,1.2,1.2,0,0,1-.128.128c-.089.077-.153.14-.243.217a5.209,5.209,0,0,1-.562.357,3.768,3.768,0,0,1-1.3.332,3.936,3.936,0,0,1-.677-.038h-.153a.332.332,0,0,1-.089-.038h-.089l-.319-.1a1.576,1.576,0,0,1-.294-.1l-.294-.128c-.192-.089-.37-.192-.562-.294h.549a3.759,3.759,0,0,1-3.294.383,8.388,8.388,0,0,1-.779-.332l-.357-.217-.14-.089H9.631a.013.013,0,0,1,.013-.013.1.1,0,0,1,.038.013c.051.013.077,0,.038.013s-.077.013-.128.013l-.332.089a6.544,6.544,0,0,1-.753.153,3.343,3.343,0,0,1-.881.051,3.994,3.994,0,0,1-.881-.179,4.345,4.345,0,0,1-1.481-.83A4.173,4.173,0,0,1,4.154,30.6a3.406,3.406,0,0,1-.332-.843v-.051l-.013-.038v-.051a.432.432,0,0,1-.038-.1v-.357a1.688,1.688,0,0,1,.038-.383,2.479,2.479,0,0,0,.013-.281h0v.038a.29.29,0,0,1,.013.051c0,.013.013.038.013.051s.013.038.038.051.038.038.038.051h.013l.013.038h.013a.013.013,0,0,1,.013.013.2.2,0,0,1-.051-.013c-.013,0-.038-.013-.051-.013H3.8a1.264,1.264,0,0,0-.332-.1c-.077-.013-.128-.038-.217-.051H3.171l-.089-.051-.089-.038c-.128-.051-.243-.128-.37-.179a4.947,4.947,0,0,1-.728-.46A4.662,4.662,0,0,1,.732,26.593a4.408,4.408,0,0,1-.383-.779c-.051-.14-.089-.281-.14-.421a2.529,2.529,0,0,1-.1-.421,4.8,4.8,0,0,1,.638-3.358,5.122,5.122,0,0,1,2.617-2.183l-.268.179L3,19.7a.1.1,0,0,1-.038.051v.038l-.038.013a.077.077,0,0,0-.013.051v.013h0v-.089c0-.089.013-.192.013-.281v-.332l.013-.179a1.313,1.313,0,0,1,.013-.217c0-.051.013-.153.038-.153v-.089s.051-.128.077-.179c.038-.128.077-.243.1-.37a6.785,6.785,0,0,1,.294-.7,5.548,5.548,0,0,1,.919-1.289l.14-.14.153-.128.153-.128s.1-.089.153-.128l.332-.217a2.334,2.334,0,0,1,.357-.179,4.575,4.575,0,0,1,1.519-.421,5.777,5.777,0,0,1,1.558.051,6.592,6.592,0,0,1,2.732,1.2l-.919.077a5.412,5.412,0,0,1,2.081-1.149,6.239,6.239,0,0,1,2.273-.217,5.317,5.317,0,0,1,2.209.689,4.441,4.441,0,0,1,.919.779,3.632,3.632,0,0,1,.613,1.047v.038a.339.339,0,0,0-.089-.179A.524.524,0,0,0,18.3,16.8a.666.666,0,0,0-.268-.013c-.077.013-.1.038-.089.038h.038l.051-.038.089-.038c.077-.013.128-.038.192-.051.128-.038.243-.077.37-.1a7.129,7.129,0,0,1,.753-.128,5.169,5.169,0,0,1,1.532.1,4.382,4.382,0,0,1,1.417.613,4.453,4.453,0,0,1,1.072,1.06,5.067,5.067,0,0,1,.383.651,6.635,6.635,0,0,1,.268.7,4.728,4.728,0,0,1,.179,1.468,3.9,3.9,0,0,1-.332,1.43,4.819,4.819,0,0,1-.74,1.213H23.2c-.153.14-.332.243-.472.357a2.307,2.307,0,0,0-.421.37.717.717,0,0,0-.217.5.781.781,0,0,1-.077.6Z" transform="translate(-0.03 -14.582)" fill="#2a7d84"/>
        <path id="Path_18642" data-name="Path 18642" d="M16.743,23.71A13.248,13.248,0,0,0,19.181,24a15.554,15.554,0,0,0,2.438-.038c.409-.013.792-.089,1.2-.128.192-.038.383-.077.6-.1l.294-.051.281-.077c.192-.051.383-.089.587-.14l.562-.179c.089-.038.192-.051.281-.089l.281-.1.549-.217.472,1.519-.638.128-.319.077c-.1.013-.217.038-.319.051l-.638.089c-.217.013-.421.038-.638.051h-.319l-.319.013H22.9a10.494,10.494,0,0,1-1.264-.077,20.172,20.172,0,0,1-2.49-.37,12.477,12.477,0,0,1-2.413-.677Z" transform="translate(4.591 -12.285)" fill="#2a7d84"/>
      </g>
      <g id="Group_157" data-name="Group 157" transform="translate(5.681 21.132)">
        <circle id="Ellipse_2" data-name="Ellipse 2" cx="2.413" cy="2.413" r="2.413" transform="translate(0.319 0.319)" fill="#f7c1ac"/>
        <path id="Path_18643" data-name="Path 18643" d="M7.212,22.094a2.732,2.732,0,1,1,2.732-2.732A2.735,2.735,0,0,1,7.212,22.094Zm0-4.839a2.094,2.094,0,1,0,2.094,2.094A2.087,2.087,0,0,0,7.212,17.256Z" transform="translate(-4.48 -16.63)" fill="#2a7d84"/>
      </g>
      <g id="Group_158" data-name="Group 158" transform="translate(11.733 20.303)">
        <circle id="Ellipse_3" data-name="Ellipse 3" cx="2.413" cy="2.413" r="2.413" transform="translate(0.319 0.294)" fill="#f7c1ac"/>
        <path id="Path_18644" data-name="Path 18644" d="M11.952,21.444a2.732,2.732,0,1,1,2.732-2.732A2.735,2.735,0,0,1,11.952,21.444Zm0-4.851a2.094,2.094,0,1,0,2.094,2.094A2.087,2.087,0,0,0,11.952,16.593Z" transform="translate(-9.22 -15.98)" fill="#2a7d84"/>
      </g>
      <g id="Group_159" data-name="Group 159" transform="translate(17.912 22.164)">
        <circle id="Ellipse_4" data-name="Ellipse 4" cx="2.413" cy="2.413" r="2.413" transform="translate(0.319 0.319)" fill="#f7c1ac"/>
        <path id="Path_18645" data-name="Path 18645" d="M16.792,22.9a2.732,2.732,0,1,1,2.732-2.732A2.735,2.735,0,0,1,16.792,22.9Zm0-4.839a2.094,2.094,0,1,0,2.094,2.094A2.087,2.087,0,0,0,16.792,18.066Z" transform="translate(-14.06 -17.44)" fill="#2a7d84"/>
      </g>
      <g id="Group_160" data-name="Group 160" transform="translate(5.822 29.39)">
        <circle id="Ellipse_5" data-name="Ellipse 5" cx="2.413" cy="2.413" r="2.413" transform="translate(0.319 0.319)" fill="#f7c1ac"/>
        <path id="Path_18646" data-name="Path 18646" d="M7.322,28.574a2.732,2.732,0,1,1,2.732-2.732,2.735,2.735,0,0,1-2.732,2.732Zm0-4.839a2.094,2.094,0,1,0,2.094,2.094A2.087,2.087,0,0,0,7.322,23.736Z" transform="translate(-4.59 -23.11)" fill="#2a7d84"/>
      </g>
      <g id="Group_161" data-name="Group 161" transform="translate(2.068 25.682)">
        <circle id="Ellipse_6" data-name="Ellipse 6" cx="2.094" cy="2.094" r="2.094" transform="translate(0.319 0.306)" fill="#f7c1ac"/>
        <path id="Path_18647" data-name="Path 18647" d="M4.063,25.026a2.413,2.413,0,1,1,2.413-2.413A2.419,2.419,0,0,1,4.063,25.026Zm0-4.2A1.787,1.787,0,1,0,5.85,22.613,1.784,1.784,0,0,0,4.063,20.826Z" transform="translate(-1.65 -20.2)" fill="#2a7d84"/>
      </g>
      <g id="Group_162" data-name="Group 162" transform="translate(14.069 31.902)">
        <circle id="Ellipse_7" data-name="Ellipse 7" cx="1.8" cy="1.8" r="1.8" transform="translate(0.332 0.332)" fill="#f7c1ac"/>
        <path id="Path_18648" data-name="Path 18648" d="M13.182,29.344a2.132,2.132,0,1,1,2.132-2.132A2.144,2.144,0,0,1,13.182,29.344Zm0-3.613A1.482,1.482,0,0,0,11.7,27.212a1.481,1.481,0,1,0,2.962,0A1.466,1.466,0,0,0,13.182,25.731Z" transform="translate(-11.05 -25.08)" fill="#2a7d84"/>
      </g>
      <g id="Group_163" data-name="Group 163" transform="translate(13.635 26.919)">
        <circle id="Ellipse_8" data-name="Ellipse 8" cx="1.8" cy="1.8" r="1.8" transform="translate(0.332 0.357)" fill="#f7c1ac"/>
        <path id="Path_18649" data-name="Path 18649" d="M12.842,25.434A2.132,2.132,0,1,1,14.974,23.3,2.144,2.144,0,0,1,12.842,25.434Zm0-3.613A1.482,1.482,0,0,0,11.361,23.3a1.481,1.481,0,1,0,2.962,0A1.466,1.466,0,0,0,12.842,21.821Z" transform="translate(-10.71 -21.17)" fill="#2a7d84"/>
      </g>
      <g id="Group_164" data-name="Group 164" transform="translate(10.801 32.834)">
        <circle id="Ellipse_9" data-name="Ellipse 9" cx="1.251" cy="1.251" r="1.251" transform="translate(0.319 0.319)" fill="#f7c1ac"/>
        <path id="Path_18650" data-name="Path 18650" d="M10.06,28.951a1.57,1.57,0,1,1,1.57-1.57,1.569,1.569,0,0,1-1.57,1.57Zm0-2.5a.932.932,0,1,0,.932.932.937.937,0,0,0-.932-.932Z" transform="translate(-8.49 -25.81)" fill="#2a7d84"/>
      </g>
      <g id="Group_165" data-name="Group 165" transform="translate(18.244 31.865)">
        <circle id="Ellipse_10" data-name="Ellipse 10" cx="1.251" cy="1.251" r="1.251" transform="translate(0.319 0.319)" fill="#f7c1ac"/>
        <path id="Path_18651" data-name="Path 18651" d="M15.89,28.191a1.57,1.57,0,1,1,1.57-1.57,1.569,1.569,0,0,1-1.57,1.57Zm0-2.5a.932.932,0,1,0,.932.932.937.937,0,0,0-.932-.932Z" transform="translate(-14.32 -25.05)" fill="#2a7d84"/>
      </g>
      <g id="Group_166" data-name="Group 166" transform="translate(9.613 26.588)">
        <circle id="Ellipse_11" data-name="Ellipse 11" cx="1.251" cy="1.251" r="1.251" transform="translate(0.319 0.319)" fill="#f7c1ac"/>
        <path id="Path_18652" data-name="Path 18652" d="M9.13,24.051a1.57,1.57,0,1,1,1.57-1.57,1.569,1.569,0,0,1-1.57,1.57Zm0-2.5a.932.932,0,1,0,.932.932.937.937,0,0,0-.932-.932Z" transform="translate(-7.56 -20.91)" fill="#2a7d84"/>
      </g>
      <g id="Group_167" data-name="Group 167" transform="translate(18.308 28.041)">
        <circle id="Ellipse_12" data-name="Ellipse 12" cx="1.251" cy="1.251" r="1.251" transform="translate(0.319 0.319)" fill="#f7c1ac"/>
        <path id="Path_18653" data-name="Path 18653" d="M15.94,25.191a1.57,1.57,0,1,1,1.57-1.57A1.569,1.569,0,0,1,15.94,25.191Zm0-2.5a.932.932,0,1,0,.932.932A.937.937,0,0,0,15.94,22.688Z" transform="translate(-14.37 -22.05)" fill="#2a7d84"/>
      </g>
      <g id="Group_168" data-name="Group 168" transform="translate(62.239 18.469)">
        <path id="Path_18654" data-name="Path 18654" d="M57.139,27.19a.641.641,0,0,0,.179.192h.013A4.036,4.036,0,0,0,57,28.25a3.064,3.064,0,0,0-.128.881,2.3,2.3,0,0,0,.153.843,2.16,2.16,0,0,0,.46.7v.038c.089.089.179.192.281.281a1.456,1.456,0,0,1,.14.14c.051.038.1.089.153.128a3.645,3.645,0,0,0,.689.383,3.083,3.083,0,0,0,.753.179,3.83,3.83,0,0,0,.383,0c.115,0,.268-.038.383-.051h.179l.14.128.038.038.038.038.089.089c.077.051.14.1.217.153a1.935,1.935,0,0,0,.46.23,2.4,2.4,0,0,0,.983.179,1.769,1.769,0,0,0,.511-.077h.128a.361.361,0,0,0,.077-.038h.051l.243-.1c.089-.013.153-.077.243-.1l.243-.1.46-.281.268-.153.281.153a2.71,2.71,0,0,0,2.349.14,5.761,5.761,0,0,0,.562-.281c.089-.051.179-.128.268-.179.051-.038.089-.077.153-.128l.051-.038.077-.038a.622.622,0,0,1,.089-.038c.038-.013.077-.013.1-.038a.792.792,0,0,1,.383-.013c.089.026.179.013.23.038l.37.077c.243.051.46.089.677.128a1.833,1.833,0,0,0,.587.013,3.157,3.157,0,0,0,.549-.14A3.314,3.314,0,0,0,73.148,29.9a2.081,2.081,0,0,0,.192-.511v-.038h0V29.22a1.657,1.657,0,0,0-.038-.332,3.9,3.9,0,0,1-.038-.46v-.281a.361.361,0,0,1,.038-.077c.013-.038.013-.077.038-.089.013-.038.038-.077.038-.089a.274.274,0,0,1,.051-.089c.013-.038.051-.051.077-.089l.051-.051.051-.051h.038l.013-.038c.038-.013.051-.038.089-.051a1.152,1.152,0,0,1,.281-.14.375.375,0,0,1,.128-.038c.038-.013.077-.013.1-.038a3.386,3.386,0,0,1,.37-.1.785.785,0,0,1,.14-.038h.013l.077-.038c.1-.051.192-.089.281-.14a5.025,5.025,0,0,0,.511-.332,3,3,0,0,0,.779-.881c.1-.179.192-.357.268-.523.038-.089.051-.192.089-.281a.728.728,0,0,0,.051-.281,3.356,3.356,0,0,0-.46-2.273,3.667,3.667,0,0,0-1.8-1.519l-.153-.077-.1-.1s-.077-.089-.1-.128a.4.4,0,0,1-.051-.077v-.038l-.038-.038s-.038-.089-.051-.128-.013-.077-.038-.089V20.13L74,20v-.1a1.349,1.349,0,0,1-.038-.37V19.2l-.013-.153v-.1h0v-.077a1.272,1.272,0,0,1-.051-.14,1.1,1.1,0,0,0-.089-.268,3.07,3.07,0,0,0-.217-.511,3.108,3.108,0,0,0-.613-.881,3.355,3.355,0,0,0-.868-.613,3.651,3.651,0,0,0-1.021-.319,4.046,4.046,0,0,0-1.111.013,5.194,5.194,0,0,0-2.132.881l-.511.357-.409-.409a3.619,3.619,0,0,0-1.481-.868,5.264,5.264,0,0,0-1.787-.243,4.185,4.185,0,0,0-1.7.447,2.5,2.5,0,0,0-1.123,1.2v-.038a.339.339,0,0,1-.089.179.524.524,0,0,1-.268.179.515.515,0,0,1-.281,0c-.064-.013-.128-.038-.1-.038h-.051l-.077-.051c-.051-.013-.089-.038-.14-.051a1.121,1.121,0,0,0-.294-.089c-.192-.051-.409-.1-.613-.14a4.028,4.028,0,0,0-1.238,0,3.658,3.658,0,0,0-1.149.421,1.632,1.632,0,0,0-.268.179c-.089.077-.153.128-.243.192l-.128.1-.1.1c-.077.077-.14.153-.217.243a3.028,3.028,0,0,0-.357.511,4.875,4.875,0,0,0-.268.587,3.585,3.585,0,0,0-.243,1.264,3.94,3.94,0,0,0,.179,1.289,4.4,4.4,0,0,0,.6,1.2h-.013c.14.1.281.23.447.357a2.3,2.3,0,0,1,.409.447.85.85,0,0,1,.179.587,1.191,1.191,0,0,0,.038.562,1.1,1.1,0,0,1-.1-.562.741.741,0,0,0-.217-.5,2.834,2.834,0,0,0-.421-.357c-.153-.115-.319-.217-.472-.332h-.013a5.838,5.838,0,0,1-.753-1.238,3.9,3.9,0,0,1-.332-1.43,4.775,4.775,0,0,1,.179-1.468,4.675,4.675,0,0,1,.268-.7,6.051,6.051,0,0,1,.383-.677,4.033,4.033,0,0,1,1.072-1.06,4.44,4.44,0,0,1,1.417-.638,4.776,4.776,0,0,1,1.532-.1,5.159,5.159,0,0,1,.753.128c.128.038.243.051.37.1.077.013.128.038.192.051l.089.038h.051l.013.038h.013a.292.292,0,0,0-.089-.038.54.54,0,0,0-.281.013.585.585,0,0,0-.268.179.959.959,0,0,0-.1.179v-.038a3.841,3.841,0,0,1,.638-1.047,4.081,4.081,0,0,1,.919-.779,5.136,5.136,0,0,1,2.221-.689,5.973,5.973,0,0,1,2.273.217,4.952,4.952,0,0,1,2.081,1.149l-.919-.077a6.363,6.363,0,0,1,2.732-1.2,4.874,4.874,0,0,1,1.558-.051,5.168,5.168,0,0,1,1.519.421c.128.051.243.128.357.179l.332.217a1.881,1.881,0,0,1,.153.128l.153.128.153.128.14.14a4.576,4.576,0,0,1,.919,1.289,4.107,4.107,0,0,1,.294.7,2,2,0,0,1,.1.37c.013.051.038.128.051.179v.089s.038.128.051.153a1.392,1.392,0,0,1,.013.217v.511c.013.1.038.217.038.281v.089h0v-.013c0-.013-.013-.038-.013-.051h-.013l-.013-.051c-.013-.013-.013-.038-.038-.051a.154.154,0,0,0-.089-.089l-.268-.179a5.3,5.3,0,0,1,1.494.881,5.417,5.417,0,0,1,1.111,1.3,4.869,4.869,0,0,1,.638,3.358c-.038.14-.051.281-.1.421s-.089.281-.14.421a4.888,4.888,0,0,1-.383.779,4.662,4.662,0,0,1-1.162,1.289,4.357,4.357,0,0,1-.728.46,2.454,2.454,0,0,1-.37.179l-.089.038-.089.038H75.28a.89.89,0,0,1-.217.077c-.128.038-.23.051-.332.089h-.077s-.038.038-.051.038a.2.2,0,0,1-.051.013.013.013,0,0,0,.013-.013H74.6l.013-.038c.013-.013.038-.038.038-.051s.013-.038.038-.051a.077.077,0,0,0,.013-.051c0-.013.013-.038.013-.051h0v-.038h0a2.722,2.722,0,0,0,.013.281c.013.128.013.243.038.383v.357a.359.359,0,0,1-.013.1v.051l-.013.038v.051a4.517,4.517,0,0,1-.357.843,4.669,4.669,0,0,1-1.111,1.328,5.132,5.132,0,0,1-1.481.83,3.994,3.994,0,0,1-.881.179,3.376,3.376,0,0,1-.881-.051c-.268-.051-.523-.1-.753-.153l-.332-.089s-.1-.013-.128-.013-.013,0,.038-.013L68.9,32.6h0a1.009,1.009,0,0,1-.14.1c-.1.077-.23.14-.357.217a3.864,3.864,0,0,1-.779.332,3.812,3.812,0,0,1-3.281-.383h.549c-.192.1-.37.192-.562.294l-.294.128a1.34,1.34,0,0,1-.294.1l-.319.089h-.089a.332.332,0,0,0-.089.038h-.153a2.968,2.968,0,0,1-.677.051,3.275,3.275,0,0,1-1.3-.332,2.968,2.968,0,0,1-.562-.357,2.074,2.074,0,0,1-.243-.217,1.2,1.2,0,0,1-.128-.128.2.2,0,0,1-.051-.077l-.077-.077.319.128c-.153,0-.319.013-.472.013s-.319-.013-.472-.038a2.706,2.706,0,0,1-.894-.281,3.157,3.157,0,0,1-.779-.511l-.153-.153a1.11,1.11,0,0,1-.153-.179,2.965,2.965,0,0,1-.281-.383v.038a2.869,2.869,0,0,1-.447-.881,2.513,2.513,0,0,1-.089-.97,3.135,3.135,0,0,1,.23-.919,5.2,5.2,0,0,1,.447-.83h0s-.089-.128-.14-.217Z" transform="translate(-47.27 -14.547)" fill="#2a7d84"/>
        <path id="Path_18655" data-name="Path 18655" d="M58.738,23.662a17.077,17.077,0,0,1-2.387.7,20.173,20.173,0,0,1-2.49.37c-.421.038-.843.051-1.264.077H51.333c-.217-.038-.421-.051-.638-.077l-.638-.089a1.386,1.386,0,0,1-.319-.051l-.319-.077-.638-.128.472-1.519.549.217.281.1c.089.038.192.051.281.089l.562.179c.192.051.383.089.587.14l.281.077.294.051c.192.038.383.077.6.1.409.051.792.1,1.2.128a22.2,22.2,0,0,0,2.438.038c.779-.077,1.609-.179,2.4-.332Z" transform="translate(-48.78 -12.244)" fill="#2a7d84"/>
      </g>
      <g id="Group_169" data-name="Group 169" transform="translate(82.398 21.081)">
        <circle id="Ellipse_13" data-name="Ellipse 13" cx="2.413" cy="2.413" r="2.413" transform="translate(0.319 0.306)" fill="#f7c1ac"/>
        <path id="Path_18656" data-name="Path 18656" d="M67.3,22.054a2.732,2.732,0,1,1,2.732-2.732A2.735,2.735,0,0,1,67.3,22.054Zm0-4.839A2.094,2.094,0,1,0,69.4,19.309,2.087,2.087,0,0,0,67.3,17.216Z" transform="translate(-64.57 -16.59)" fill="#2a7d84"/>
      </g>
      <g id="Group_170" data-name="Group 170" transform="translate(76.347 20.252)">
        <circle id="Ellipse_14" data-name="Ellipse 14" cx="2.413" cy="2.413" r="2.413" transform="translate(0.319 0.294)" fill="#f7c1ac"/>
        <path id="Path_18657" data-name="Path 18657" d="M62.562,21.4a2.732,2.732,0,1,1,2.732-2.732A2.735,2.735,0,0,1,62.562,21.4Zm0-4.851a2.094,2.094,0,1,0,2.094,2.094A2.087,2.087,0,0,0,62.562,16.553Z" transform="translate(-59.83 -15.94)" fill="#2a7d84"/>
      </g>
      <g id="Group_171" data-name="Group 171" transform="translate(70.155 22.113)">
        <circle id="Ellipse_15" data-name="Ellipse 15" cx="2.413" cy="2.413" r="2.413" transform="translate(0.319 0.319)" fill="#f7c1ac"/>
        <path id="Path_18658" data-name="Path 18658" d="M57.712,22.864a2.732,2.732,0,1,1,2.732-2.732A2.735,2.735,0,0,1,57.712,22.864Zm0-4.839a2.094,2.094,0,1,0,2.094,2.094A2.087,2.087,0,0,0,57.712,18.026Z" transform="translate(-54.98 -17.4)" fill="#2a7d84"/>
      </g>
      <g id="Group_172" data-name="Group 172" transform="translate(82.245 29.339)">
        <circle id="Ellipse_16" data-name="Ellipse 16" cx="2.413" cy="2.413" r="2.413" transform="translate(0.319 0.319)" fill="#f7c1ac"/>
        <path id="Path_18659" data-name="Path 18659" d="M67.182,28.534A2.732,2.732,0,1,1,69.914,25.8,2.735,2.735,0,0,1,67.182,28.534Zm0-4.839a2.094,2.094,0,1,0,2.094,2.094A2.087,2.087,0,0,0,67.182,23.7Z" transform="translate(-64.45 -23.07)" fill="#2a7d84"/>
      </g>
      <g id="Group_173" data-name="Group 173" transform="translate(86.65 25.618)">
        <circle id="Ellipse_17" data-name="Ellipse 17" cx="2.094" cy="2.094" r="2.094" transform="translate(0.319 0.319)" fill="#f7c1ac"/>
        <path id="Path_18660" data-name="Path 18660" d="M70.313,24.976a2.413,2.413,0,1,1,2.413-2.413A2.419,2.419,0,0,1,70.313,24.976Zm0-4.2A1.787,1.787,0,1,0,72.1,22.563,1.784,1.784,0,0,0,70.313,20.776Z" transform="translate(-67.9 -20.15)" fill="#2a7d84"/>
      </g>
      <g id="Group_174" data-name="Group 174" transform="translate(75.198 31.851)">
        <circle id="Ellipse_18" data-name="Ellipse 18" cx="1.8" cy="1.8" r="1.8" transform="translate(0.332 0.332)" fill="#f7c1ac"/>
        <path id="Path_18661" data-name="Path 18661" d="M61.062,29.3a2.132,2.132,0,1,1,2.132-2.132A2.144,2.144,0,0,1,61.062,29.3Zm0-3.613a1.482,1.482,0,0,0-1.481,1.481,1.481,1.481,0,0,0,2.962,0A1.482,1.482,0,0,0,61.062,25.691Z" transform="translate(-58.93 -25.04)" fill="#2a7d84"/>
      </g>
      <g id="Group_175" data-name="Group 175" transform="translate(75.619 26.868)">
        <circle id="Ellipse_19" data-name="Ellipse 19" cx="1.8" cy="1.8" r="1.8" transform="translate(0.332 0.345)" fill="#f7c1ac"/>
        <path id="Path_18662" data-name="Path 18662" d="M61.392,25.394a2.132,2.132,0,1,1,2.132-2.132A2.144,2.144,0,0,1,61.392,25.394Zm0-3.613a1.482,1.482,0,0,0-1.481,1.481,1.481,1.481,0,1,0,2.962,0A1.482,1.482,0,0,0,61.392,21.781Z" transform="translate(-59.26 -21.13)" fill="#2a7d84"/>
      </g>
      <g id="Group_176" data-name="Group 176" transform="translate(79.589 32.783)">
        <circle id="Ellipse_20" data-name="Ellipse 20" cx="1.251" cy="1.251" r="1.251" transform="translate(0.319 0.319)" fill="#f7c1ac"/>
        <path id="Path_18663" data-name="Path 18663" d="M63.94,28.911a1.57,1.57,0,1,1,1.57-1.57A1.553,1.553,0,0,1,63.94,28.911Zm0-2.5a.932.932,0,1,0,.932.932A.921.921,0,0,0,63.94,26.408Z" transform="translate(-62.37 -25.77)" fill="#2a7d84"/>
      </g>
      <g id="Group_177" data-name="Group 177" transform="translate(72.159 31.814)">
        <circle id="Ellipse_21" data-name="Ellipse 21" cx="1.251" cy="1.251" r="1.251" transform="translate(0.319 0.319)" fill="#f7c1ac"/>
        <path id="Path_18664" data-name="Path 18664" d="M58.12,28.151a1.57,1.57,0,1,1,1.57-1.57A1.569,1.569,0,0,1,58.12,28.151Zm0-2.5a.932.932,0,1,0,.932.932A.937.937,0,0,0,58.12,25.648Z" transform="translate(-56.55 -25.01)" fill="#2a7d84"/>
      </g>
      <g id="Group_178" data-name="Group 178" transform="translate(80.764 26.537)">
        <circle id="Ellipse_22" data-name="Ellipse 22" cx="1.251" cy="1.251" r="1.251" transform="translate(0.319 0.319)" fill="#f7c1ac"/>
        <path id="Path_18665" data-name="Path 18665" d="M64.86,24.011a1.57,1.57,0,1,1,1.57-1.57A1.553,1.553,0,0,1,64.86,24.011Zm0-2.5a.932.932,0,1,0,.932.932A.937.937,0,0,0,64.86,21.508Z" transform="translate(-63.29 -20.87)" fill="#2a7d84"/>
      </g>
      <g id="Group_179" data-name="Group 179" transform="translate(72.082 27.99)">
        <circle id="Ellipse_23" data-name="Ellipse 23" cx="1.251" cy="1.251" r="1.251" transform="translate(0.319 0.319)" fill="#f7c1ac"/>
        <path id="Path_18666" data-name="Path 18666" d="M58.06,25.151a1.57,1.57,0,1,1,1.57-1.57A1.569,1.569,0,0,1,58.06,25.151Zm0-2.5a.932.932,0,1,0,.932.932A.937.937,0,0,0,58.06,22.648Z" transform="translate(-56.49 -22.01)" fill="#2a7d84"/>
      </g>
    </g>
    <g id="Group_198" data-name="Group 198" transform="translate(96.113 9.025)">
      <g id="Artwork_19" data-name="Artwork 19">
        <g id="Group_182" data-name="Group 182" clip-path="url(#clip-path)">
          <g id="Group_181" data-name="Group 181" clip-path="url(#clip-path)">
            <path id="Path_18667" data-name="Path 18667" d="M85.378,21.84a9.394,9.394,0,0,1-.153-1.021c-.038-.281-.089-.562-.14-.843a1.313,1.313,0,0,0-.562-.792,2.927,2.927,0,0,1-.294-.217.5.5,0,0,1-.089-.74,5.864,5.864,0,0,1,.46-.523,2.462,2.462,0,0,0,.6-1.928,8.375,8.375,0,0,1-.051-1.264,4.222,4.222,0,0,1,1.3-2.924,5.659,5.659,0,0,1,3.128-1.583c.281-.051.562-.077.843-.1V7.12H75.56V9.89a6.338,6.338,0,0,1,3.128.932A4.713,4.713,0,0,1,80.82,13.44,4.589,4.589,0,0,1,81,15.2c-.013.281-.038.549-.051.83a2.253,2.253,0,0,0,.6,1.7c.14.153.268.319.409.472a.546.546,0,0,1-.128.881,4.738,4.738,0,0,0-.409.294,1.542,1.542,0,0,0-.46.983c-.051.409-.1.83-.153,1.251a1.246,1.246,0,0,1-.077.294.919.919,0,0,1-.472.6l.077,3h5.541L85.8,22.491a1.235,1.235,0,0,1-.409-.638" transform="translate(-75.56 -7.069)" fill="#a19e9e"/>
          </g>
        </g>
      </g>
      <g id="Artwork_17" data-name="Artwork 17" transform="translate(17.618 2.502)">
        <g id="Group_190" data-name="Group 190" clip-path="url(#clip-path-3)">
          <g id="Group_189" data-name="Group 189">
            <g id="Group_183" data-name="Group 183" clip-path="url(#clip-path-3)">
              <path id="Path_18668" data-name="Path 18668" d="M99.565,22c.14,1.123.357,2.234.562,3.358H96.207a18.865,18.865,0,0,0,.549-7.392,1.818,1.818,0,0,0-.868-1.43,1.267,1.267,0,0,0-1.149.128,2.539,2.539,0,0,0-.792.894,6.621,6.621,0,0,0-.613,3.881c.14,1.328.472,2.617.677,3.932H90.092a31.023,31.023,0,0,0,.779-7.035c.013-1.481.051-2.949,0-4.43-.013-.5-.013-.97-.051-1.468A3.978,3.978,0,0,0,89.53,9.369c-.179-.153-.357-.268.128-.281H92.99c.421,0,.843-.013,1.251-.038h.1c.179.051.013.37,0,.5-.089.37-.217.728-.294,1.1-.128.523-.23,1.06-.319,1.583-.179,1.06-.294,2.132-.37,3.2-.051.74-.089,1.481-.089,2.234a3.424,3.424,0,0,1,2.758-2.311,2.967,2.967,0,0,1,3.064,1.749,6.477,6.477,0,0,1,.268,2.221c.038.894.1,1.787.217,2.668" transform="translate(-89.364 -9.037)" fill="#a19e9e"/>
            </g>
            <g id="Group_184" data-name="Group 184" clip-path="url(#clip-path-3)">
              <path id="Path_18669" data-name="Path 18669" d="M105.547,22.14a1.775,1.775,0,0,0,.613-1.353h.74a3.731,3.731,0,0,1-1.021,2.553,3.667,3.667,0,0,1-2.783,1.009,4.877,4.877,0,0,1-3.473-1.3,5.285,5.285,0,0,1-1.353-3.958,7.376,7.376,0,0,1,.5-3.013,3.171,3.171,0,0,1,1.558-1.672,6.341,6.341,0,0,1,2.77-.523c2.553,0,3.843.83,3.843,2.49a2.689,2.689,0,0,1-1.672,2.579,10.093,10.093,0,0,1-3.881.932A3.929,3.929,0,0,0,102.394,22a2.391,2.391,0,0,0,1.724.7,2.13,2.13,0,0,0,1.443-.549m-3.894-6.869a6.462,6.462,0,0,0-.447,2.694,11.287,11.287,0,0,0,.051,1.162,4.279,4.279,0,0,0,2.349-.868,2.412,2.412,0,0,0,.932-2.017,2.5,2.5,0,0,0-.357-1.417,1.244,1.244,0,0,0-1.072-.5,1.5,1.5,0,0,0-1.468.919" transform="translate(-86.895 -7.701)" fill="#a19e9e"/>
            </g>
            <g id="Group_185" data-name="Group 185" clip-path="url(#clip-path-3)">
              <path id="Path_18670" data-name="Path 18670" d="M113.291,14.316l-1.1,1.928a1.548,1.548,0,0,0-.332-.651.962.962,0,0,0-.7-.217,1.68,1.68,0,0,0-1.238.549,3.762,3.762,0,0,0-.843,1.392,5.547,5.547,0,0,0-.332,1.787,11.78,11.78,0,0,0,.128,1.621c.077.46.153.97.294,1.532.153.792.268,1.379.294,1.749H105.58c.038-.37.14-.958.294-1.749a14.426,14.426,0,0,0,.294-1.57c.064-.472.1-1.021.128-1.66a13,13,0,0,0-.128-1.7c-.077-.472-.153-1.009-.294-1.558a17.529,17.529,0,0,1-.294-1.762h3.881a10.919,10.919,0,0,1-.294,1.711l-.1.46a4.126,4.126,0,0,1,1.1-1.57,2.429,2.429,0,0,1,1.647-.587,3.253,3.253,0,0,1,1.494.281" transform="translate(-84.872 -7.665)" fill="#a19e9e"/>
            </g>
            <g id="Group_186" data-name="Group 186" clip-path="url(#clip-path-3)">
              <path id="Path_18671" data-name="Path 18671" d="M122.173,22.434l-.319,1.494c-.14.013-.319.013-.523.013a3.542,3.542,0,0,1-1.711-.332,2.15,2.15,0,0,1-.932-1.072,3.036,3.036,0,0,1-1.238,1.2,4.032,4.032,0,0,1-2.017.447,4.854,4.854,0,0,1-2.834-.753,2.6,2.6,0,0,1-1.1-2.273,2.277,2.277,0,0,1,.613-1.672,3.127,3.127,0,0,1,1.392-.83c.511-.153,1.264-.332,2.273-.523a10.5,10.5,0,0,0,1.353-.409,1.994,1.994,0,0,0,.83-.6,1.615,1.615,0,0,0,.319-1.06,2.031,2.031,0,0,0-.191-.932.789.789,0,0,0-.728-.332,5.786,5.786,0,0,0-1.953.613,22.062,22.062,0,0,0-2.464,1.289L111.9,14.761a7.775,7.775,0,0,1,1.992-.638,13.581,13.581,0,0,1,2.528-.243,5.8,5.8,0,0,1,3.179.728,2.551,2.551,0,0,1,1.149,2.26v2.924a12.552,12.552,0,0,0,.14,2.043c.089.523.294.817.613.817a1.277,1.277,0,0,0,.677-.192m-4.468,0a7.355,7.355,0,0,0,.562-3.141V18.157a18.44,18.44,0,0,0-1.787.46c-1.621.562-2.439,1.558-2.439,2.949a2.252,2.252,0,0,0,.472,1.468,1.646,1.646,0,0,0,1.353.587,1.85,1.85,0,0,0,1.813-1.149" transform="translate(-83.234 -7.701)" fill="#a19e9e"/>
            </g>
            <g id="Group_187" data-name="Group 187" clip-path="url(#clip-path-3)">
              <path id="Path_18672" data-name="Path 18672" d="M129.429,15.08a5.8,5.8,0,0,1,1.1,3.919,5.7,5.7,0,0,1-1.149,3.958,4.905,4.905,0,0,1-3.728,1.213,5.155,5.155,0,0,1-1.009-.089,4.179,4.179,0,0,1-.74-.243c-.243-.1-.421-.179-.549-.217.038.472.077.894.128,1.264a12.851,12.851,0,0,0,.268,1.328c.153.792.332,1.621.37,1.787h-3.894c.038-.192.077-1.009.23-1.762.128-.613.23-1.187.319-1.66a11.261,11.261,0,0,0,.1-1.724V19.2a13.022,13.022,0,0,0-.1-1.724c-.064-.472-.179-1.021-.319-1.66a14.076,14.076,0,0,1-.294-1.749h3.894l-.038.421a3.029,3.029,0,0,1,1.953-.613,4.466,4.466,0,0,1,3.46,1.213m-1.992,7.494a8.508,8.508,0,0,0,.549-3.562,8.447,8.447,0,0,0-.562-3.473,1.8,1.8,0,0,0-1.7-1.187,2.017,2.017,0,0,0-1.953,1.468c-.14.613-.23,1.162-.319,1.66a11.728,11.728,0,0,0-.1,1.749v.268a13.519,13.519,0,0,0,.357,2.464,2.616,2.616,0,0,0,.7,1.341,1.81,1.81,0,0,0,1.251.421,1.964,1.964,0,0,0,1.787-1.149" transform="translate(-80.838 -7.701)" fill="#a19e9e"/>
            </g>
            <g id="Group_188" data-name="Group 188" clip-path="url(#clip-path-3)">
              <path id="Path_18673" data-name="Path 18673" d="M138.457,15.772c-.14.613-.23,1.187-.319,1.66a11.261,11.261,0,0,0-.1,1.724v4.864a3.394,3.394,0,0,1-1.353,3.064,5.685,5.685,0,0,1-3.064.868,9.9,9.9,0,0,1-2.464-.281,7.658,7.658,0,0,1-2.311-1.047l1.519-2.043.294.421a10.411,10.411,0,0,0,1.43,1.7,2.27,2.27,0,0,0,1.558.587,1.584,1.584,0,0,0,1.558-1.072,7.234,7.234,0,0,0,.421-2.63V21.874a3.783,3.783,0,0,1-1.1,1.621,2.971,2.971,0,0,1-1.953.638,3.021,3.021,0,0,1-2.017-.613,2.836,2.836,0,0,1-.868-1.494,8.731,8.731,0,0,1-.191-2.017v-.868a13.022,13.022,0,0,0-.1-1.724c-.064-.472-.179-1.021-.319-1.66a14.072,14.072,0,0,1-.294-1.749h3.881a17.006,17.006,0,0,1-.294,1.749c-.14.613-.23,1.187-.319,1.66a11.261,11.261,0,0,0-.1,1.724,11.741,11.741,0,0,0,.319,2.809,1.249,1.249,0,0,0,1.238,1.1,1.406,1.406,0,0,0,1.1-.6,4.216,4.216,0,0,0,.753-1.494,6.621,6.621,0,0,0,.268-1.749v-.038a13.022,13.022,0,0,0-.1-1.724c-.064-.472-.179-1.021-.319-1.66a14.072,14.072,0,0,1-.294-1.749h3.881a11.654,11.654,0,0,1-.281,1.749" transform="translate(-78.452 -7.665)" fill="#a19e9e"/>
            </g>
          </g>
        </g>
      </g>
      <g id="Artwork_18" data-name="Artwork 18" transform="translate(38.761 23.361)">
        <g id="Group_195" data-name="Group 195" clip-path="url(#clip-path-10)">
          <g id="Group_194" data-name="Group 194">
            <g id="Group_191" data-name="Group 191" clip-path="url(#clip-path-10)">
              <path id="Path_18674" data-name="Path 18674" d="M117.393,34.145a12.482,12.482,0,0,0,.1,1.672c.077.472.179,1.009.294,1.621.153.753.243,1.341.294,1.724h-3.1c.038-.409.1-.792.179-1.187a5.536,5.536,0,0,0,.14-.689,4.781,4.781,0,0,1,.1-.472,3.486,3.486,0,0,1-3.753,2.553,5.774,5.774,0,0,1-2.987-.753,5.036,5.036,0,0,1-2.03-2.311,9.1,9.1,0,0,1-.74-3.919c0-2.438.511-4.213,1.519-5.324a7.247,7.247,0,0,1,7.673-.983,4.606,4.606,0,0,1,1.762,1.979l-1.111,1.813a3.469,3.469,0,0,1-.792-.83,13.4,13.4,0,0,1-.638-1.187,7.952,7.952,0,0,0-.587-1.06,1.879,1.879,0,0,0-.651-.613,1.847,1.847,0,0,0-1.047-.243,2.663,2.663,0,0,0-2.387,1.417,8.094,8.094,0,0,0-.843,4.149,10.59,10.59,0,0,0,.83,4.673,2.723,2.723,0,0,0,2.553,1.647,3.39,3.39,0,0,0,2.17-.677,2.314,2.314,0,0,0,.868-1.928,1.36,1.36,0,0,0-.153-.677,3.08,3.08,0,0,0-.5-.613,4.019,4.019,0,0,1-.549-.728,1.754,1.754,0,0,1-.192-.894h3.524v1.838h.013Z" transform="translate(-105.928 -25.438)" fill="#a19e9e"/>
            </g>
            <g id="Group_192" data-name="Group 192" clip-path="url(#clip-path-10)">
              <path id="Path_18675" data-name="Path 18675" d="M125.152,30.3c-.128.613-.23,1.149-.294,1.621a11.014,11.014,0,0,0-.1,1.7v4.749a3.312,3.312,0,0,1-1.341,3,5.4,5.4,0,0,1-2.987.83,10.042,10.042,0,0,1-2.413-.268,7.571,7.571,0,0,1-2.26-1.009l1.481-2.017.294.409a11.154,11.154,0,0,0,1.392,1.647,2.176,2.176,0,0,0,1.519.587,1.531,1.531,0,0,0,1.519-1.06,6.946,6.946,0,0,0,.421-2.579V36.241a3.6,3.6,0,0,1-1.072,1.57,2.818,2.818,0,0,1-1.9.613,2.755,2.755,0,0,1-1.953-.6,2.605,2.605,0,0,1-.843-1.468,9.123,9.123,0,0,1-.192-1.979V33.56a12.473,12.473,0,0,0-.1-1.7c-.077-.472-.179-1.009-.294-1.621-.153-.728-.243-1.3-.294-1.711h3.792a16.047,16.047,0,0,1-.294,1.711c-.128.613-.23,1.149-.294,1.621a12.892,12.892,0,0,0-.1,1.7,11.526,11.526,0,0,0,.319,2.758c.192.7.6,1.072,1.2,1.072a1.36,1.36,0,0,0,1.06-.587,4.175,4.175,0,0,0,.74-1.468,5.884,5.884,0,0,0,.268-1.711v-.038a12.47,12.47,0,0,0-.1-1.7c-.077-.472-.179-1.009-.294-1.621-.153-.728-.243-1.3-.332-1.724h3.792a8.6,8.6,0,0,1-.268,1.749" transform="translate(-103.206 -24.572)" fill="#a19e9e"/>
            </g>
            <g id="Group_193" data-name="Group 193" clip-path="url(#clip-path-10)">
              <path id="Path_18676" data-name="Path 18676" d="M139.368,35.03c.077.472.153.983.294,1.532.153.753.243,1.341.294,1.724h-3.792c.038-.383.14-.97.294-1.724.128-.549.23-1.06.294-1.532s.1-1.047.128-1.7a9.591,9.591,0,0,0-.294-2.592,1.208,1.208,0,0,0-1.213-1.009,1.4,1.4,0,0,0-1.1.562,3.857,3.857,0,0,0-.7,1.392,7.713,7.713,0,0,0-.268,1.7,12.043,12.043,0,0,0,.128,1.66c.077.472.153.983.294,1.532.153.779.243,1.353.294,1.724h-3.792c.038-.383.14-.97.294-1.724.128-.549.23-1.06.294-1.532a14.951,14.951,0,0,0,.128-1.7,10.458,10.458,0,0,0-.294-2.681,1.22,1.22,0,0,0-1.213-1.06,1.327,1.327,0,0,0-1.009.511,3.987,3.987,0,0,0-.728,1.328,6.4,6.4,0,0,0-.319,1.621,3.019,3.019,0,0,0-.013.383,11.615,11.615,0,0,0,.128,1.621c.077.46.153.97.294,1.532.153.779.243,1.353.294,1.711H124.29c.038-.37.14-.932.294-1.711.128-.562.23-1.072.294-1.532A13.956,13.956,0,0,0,125,33.447a12.35,12.35,0,0,0-.128-1.647c-.077-.472-.153-.97-.294-1.519-.153-.779-.243-1.353-.294-1.711h3.792a10.25,10.25,0,0,1-.192,1.264,2.894,2.894,0,0,1,2.464-1.251,2.592,2.592,0,0,1,2.183.83,3.938,3.938,0,0,1,.779,2.158,4.466,4.466,0,0,1,.919-2.081,2.554,2.554,0,0,1,2.094-.894,2.912,2.912,0,0,1,1.979.613,2.77,2.77,0,0,1,.843,1.481,9.338,9.338,0,0,1,.179,1.979v.689a5.142,5.142,0,0,0,0,1.66" transform="translate(-100.837 -24.561)" fill="#a19e9e"/>
            </g>
          </g>
        </g>
      </g>
      <g id="Group_197" data-name="Group 197" transform="translate(0.026 44.074)">
        <g id="Group_196" data-name="Group 196" transform="translate(0 0.587)">
          <path id="Path_18677" data-name="Path 18677" d="M83.325,43.972a1.081,1.081,0,0,0,.243.179.77.77,0,0,0,.294.077.463.463,0,0,0,.294-.077.667.667,0,0,0,.243-.179,1.7,1.7,0,0,0,.179-.243.749.749,0,0,0,.051-.294.71.71,0,0,0-.051-.294A.575.575,0,0,0,84.4,42.9a1.7,1.7,0,0,0-.243-.179.792.792,0,0,0-.294-.051.709.709,0,0,0-.294.051.794.794,0,0,0-.243.179,1.7,1.7,0,0,0-.179.243.835.835,0,0,0-.077.294.463.463,0,0,0,.077.294A.667.667,0,0,0,83.325,43.972Z" transform="translate(-73.508 -42.006)" fill="#f7c1ac"/>
          <path id="Path_18678" data-name="Path 18678" d="M95.42,44.02H94.411a.272.272,0,0,0-.192.089.3.3,0,0,0-.077.217v4.43H90.3v-1.7a2,2,0,0,0-.421-1.417,1.641,1.641,0,0,0-1.238-.421H83.317a1.755,1.755,0,0,0-1.238.421,1.851,1.851,0,0,0-.421,1.417v2.809a6.263,6.263,0,0,1-.077.843,2.031,2.031,0,0,1-.319.792,1.714,1.714,0,0,1-.651.587,2.408,2.408,0,0,1-1.123.23,2.6,2.6,0,0,1-.894-.128,2.367,2.367,0,0,1-.638-.357,1.657,1.657,0,0,1-.409-.523,2.525,2.525,0,0,1-.23-.638,4.281,4.281,0,0,1-.1-.689c-.013-.23-.013-.46-.013-.689V47.85a.4.4,0,0,0-.089-.217.308.308,0,0,0-.217-.089H75.886a.333.333,0,0,0-.217.089.263.263,0,0,0-.089.217v1.468a8.567,8.567,0,0,0,.089,1.162,4.792,4.792,0,0,0,.281,1.06,3.991,3.991,0,0,0,.5.919,3.457,3.457,0,0,0,.7.728,3.259,3.259,0,0,0,.932.5,4.558,4.558,0,0,0,1.187.23,3.913,3.913,0,0,0,1.443-.268,3.778,3.778,0,0,0,1.213-.74,3.9,3.9,0,0,0,.868-1.149,3.461,3.461,0,0,0,.383-1.443H93.99a1.755,1.755,0,0,0,1.238-.421,1.973,1.973,0,0,0,.421-1.43V44.339a.333.333,0,0,0-.089-.217c-.013-.077-.089-.089-.153-.089Zm-6.7,4.711h-5.49V46.752h5.49Z" transform="translate(-75.58 -41.633)" fill="#f7c1ac"/>
          <path id="Path_18679" data-name="Path 18679" d="M89.522,50.244a.557.557,0,0,0-.243-.153,1.087,1.087,0,0,0-.294-.051.71.71,0,0,0-.294.051,1.561,1.561,0,0,0-.243.153,1.081,1.081,0,0,0-.179.243.749.749,0,0,0-.051.294.928.928,0,0,0,.051.319.667.667,0,0,0,.179.243,1.7,1.7,0,0,0,.243.179.749.749,0,0,0,.294.051.709.709,0,0,0,.294-.051.794.794,0,0,0,.243-.179A1.7,1.7,0,0,0,89.7,51.1a.838.838,0,0,0,.077-.319.463.463,0,0,0-.077-.294A1.7,1.7,0,0,0,89.522,50.244Z" transform="translate(-72.083 -39.967)" fill="#f7c1ac"/>
          <path id="Path_18680" data-name="Path 18680" d="M91.162,50.244a.557.557,0,0,0-.243-.153,1.087,1.087,0,0,0-.294-.051.71.71,0,0,0-.294.051,1.562,1.562,0,0,0-.243.153,1.081,1.081,0,0,0-.179.243.749.749,0,0,0-.051.294.928.928,0,0,0,.051.319.667.667,0,0,0,.179.243,1.7,1.7,0,0,0,.243.179.749.749,0,0,0,.294.051.709.709,0,0,0,.294-.051.575.575,0,0,0,.243-.179,1.7,1.7,0,0,0,.179-.243.838.838,0,0,0,.051-.319.71.71,0,0,0-.051-.294A.629.629,0,0,0,91.162,50.244Z" transform="translate(-71.629 -39.967)" fill="#f7c1ac"/>
          <path id="Path_18681" data-name="Path 18681" d="M96.018,50.244a.557.557,0,0,0-.243-.153.792.792,0,0,0-.294-.051.71.71,0,0,0-.294.051,1.561,1.561,0,0,0-.243.153,1.081,1.081,0,0,0-.179.243.77.77,0,0,0-.077.294.59.59,0,0,0,.077.319.667.667,0,0,0,.179.243,1.7,1.7,0,0,0,.243.179.749.749,0,0,0,.294.051.709.709,0,0,0,.294-.051.794.794,0,0,0,.243-.179A1.7,1.7,0,0,0,96.2,51.1a.838.838,0,0,0,.077-.319.463.463,0,0,0-.077-.294A1.7,1.7,0,0,0,96.018,50.244Z" transform="translate(-70.292 -39.967)" fill="#f7c1ac"/>
          <path id="Path_18682" data-name="Path 18682" d="M106.568,42.183h-1.009a.333.333,0,0,0-.217.089.247.247,0,0,0-.089.192v6.792h-1.532V46.383h-.013a2,2,0,0,0-.421-1.417,1.692,1.692,0,0,0-1.238-.421h-1.8a1.755,1.755,0,0,0-1.238.421,1.959,1.959,0,0,0-.421,1.417v2.873H96.98v-4.43h0a.333.333,0,0,0-.089-.217.263.263,0,0,0-.217-.089H95.69a.333.333,0,0,0-.217.089.263.263,0,0,0-.089.217v4.43H93.673v-6.8h.013a.272.272,0,0,0-.089-.192.308.308,0,0,0-.217-.089H92.4a.4.4,0,0,0-.217.089.3.3,0,0,0-.089.192v6.511a3.167,3.167,0,0,0,.1.843,1.735,1.735,0,0,0,.319.587,1.313,1.313,0,0,0,.523.332,2.389,2.389,0,0,0,.7.1h11.4a1.648,1.648,0,0,0,1.213-.421,1.973,1.973,0,0,0,.421-1.43V42.464a.272.272,0,0,0-.089-.192.15.15,0,0,0-.153-.089Zm-4.43,7.073h-1.979V46.1h1.979Z" transform="translate(-71.012 -42.144)" fill="#f7c1ac"/>
          <path id="Path_18683" data-name="Path 18683" d="M106.112,42.239a.509.509,0,0,0-.217-.089h-1.009a.4.4,0,0,0-.217.089.3.3,0,0,0-.089.192v8.133a.272.272,0,0,0,.089.192.308.308,0,0,0,.217.089H105.9a.333.333,0,0,0,.217-.089.233.233,0,0,0,.077-.192V42.431A.219.219,0,0,0,106.112,42.239Z" transform="translate(-67.556 -42.15)" fill="#f7c1ac"/>
        </g>
        <path id="Path_18684" data-name="Path 18684" d="M125.042,50.244a.557.557,0,0,0-.243-.153.792.792,0,0,0-.294-.051.709.709,0,0,0-.294.051,1.561,1.561,0,0,0-.243.153,1.081,1.081,0,0,0-.179.243.574.574,0,0,0-.051.294.928.928,0,0,0,.051.319.667.667,0,0,0,.179.243,1.7,1.7,0,0,0,.243.179.749.749,0,0,0,.294.051.709.709,0,0,0,.294-.051.794.794,0,0,0,.243-.179,1.7,1.7,0,0,0,.179-.243.838.838,0,0,0,.051-.319.71.71,0,0,0-.051-.294A.854.854,0,0,0,125.042,50.244Z" transform="translate(-62.254 -39.38)" fill="#f7c1ac"/>
        <path id="Path_18685" data-name="Path 18685" d="M123.392,50.244a.557.557,0,0,0-.243-.153,1.088,1.088,0,0,0-.294-.051.71.71,0,0,0-.294.051,1.561,1.561,0,0,0-.243.153,1.081,1.081,0,0,0-.179.243.749.749,0,0,0-.051.294.928.928,0,0,0,.051.319.667.667,0,0,0,.179.243,1.7,1.7,0,0,0,.243.179.749.749,0,0,0,.294.051.71.71,0,0,0,.294-.051.794.794,0,0,0,.243-.179,1.7,1.7,0,0,0,.179-.243.838.838,0,0,0,.051-.319.71.71,0,0,0-.051-.294A.548.548,0,0,0,123.392,50.244Z" transform="translate(-62.711 -39.38)" fill="#f7c1ac"/>
        <path id="Path_18686" data-name="Path 18686" d="M135.324,43.018a1.081,1.081,0,0,0,.243.179.77.77,0,0,0,.294.077.463.463,0,0,0,.294-.077.667.667,0,0,0,.243-.179,1.7,1.7,0,0,0,.179-.243.835.835,0,0,0,.077-.294.463.463,0,0,0-.077-.294.667.667,0,0,0-.179-.243,1.7,1.7,0,0,0-.243-.179.835.835,0,0,0-.294-.077.463.463,0,0,0-.294.077.667.667,0,0,0-.243.179.706.706,0,0,0-.153.243.792.792,0,0,0-.051.294.71.71,0,0,0,.051.294A.785.785,0,0,0,135.324,43.018Z" transform="translate(-59.105 -41.69)" fill="#f7c1ac"/>
        <path id="Path_18687" data-name="Path 18687" d="M133.66,43.018a1.081,1.081,0,0,0,.243.179.769.769,0,0,0,.294.077.463.463,0,0,0,.294-.077.667.667,0,0,0,.243-.179,1.7,1.7,0,0,0,.179-.243.792.792,0,0,0,.051-.294.71.71,0,0,0-.051-.294.667.667,0,0,0-.179-.243,1.7,1.7,0,0,0-.243-.179.769.769,0,0,0-.294-.077.463.463,0,0,0-.294.077.667.667,0,0,0-.243.179,1.7,1.7,0,0,0-.179.243.792.792,0,0,0-.051.294.71.71,0,0,0,.051.294A.854.854,0,0,0,133.66,43.018Z" transform="translate(-59.573 -41.69)" fill="#f7c1ac"/>
        <path id="Path_18688" data-name="Path 18688" d="M143.714,44.624a.534.534,0,0,0-.191-.089h-1.009a.333.333,0,0,0-.217.089.3.3,0,0,0-.077.217v4.43H139.08v-1.7a2,2,0,0,0-.421-1.417,1.641,1.641,0,0,0-1.238-.421h-5.554a3.243,3.243,0,0,1,.37-1.021,1.754,1.754,0,0,1,.549-.587,1.64,1.64,0,0,1,.677-.268,4.693,4.693,0,0,1,.728-.077h.881a.271.271,0,0,0,.191-.089.3.3,0,0,0,.089-.192V42.492a.191.191,0,0,0-.128-.192,1.055,1.055,0,0,0-.281-.1,2.791,2.791,0,0,0-.357-.038h-.294a4.23,4.23,0,0,0-1.417.23,4.03,4.03,0,0,0-1.149.638,3.505,3.505,0,0,0-.817,1.009,4.365,4.365,0,0,0-.447,1.3v1.647a.272.272,0,0,0,.089.192.308.308,0,0,0,.217.089h6.754v1.979h-9.371v-4.43a.333.333,0,0,0-.089-.217.263.263,0,0,0-.217-.089h-.983a.333.333,0,0,0-.217.089.308.308,0,0,0-.089.217v4.43h-2.324v-4.43a.333.333,0,0,0-.089-.217.263.263,0,0,0-.217-.089h-1.009a.272.272,0,0,0-.191.089.308.308,0,0,0-.089.217v4.43h-2.017v-4.43a.333.333,0,0,0-.089-.217.263.263,0,0,0-.217-.089H119.3a.333.333,0,0,0-.217.089.263.263,0,0,0-.089.217v4.43h-1.979v-4.43a.333.333,0,0,0-.089-.217.263.263,0,0,0-.217-.089H115.7a.333.333,0,0,0-.217.089.263.263,0,0,0-.089.217v5.541a3.766,3.766,0,0,1-.077.843,2.031,2.031,0,0,1-.319.792,1.715,1.715,0,0,1-.651.587,2.408,2.408,0,0,1-1.124.23,2.6,2.6,0,0,1-.894-.128,2.367,2.367,0,0,1-.638-.357,1.657,1.657,0,0,1-.409-.523,2.525,2.525,0,0,1-.23-.638,4.281,4.281,0,0,1-.1-.689c-.013-.23-.013-.46-.013-.689V48.339a.4.4,0,0,0-.089-.217.308.308,0,0,0-.217-.089h-1.009a.333.333,0,0,0-.217.089.263.263,0,0,0-.089.217v1.468a9.118,9.118,0,0,0,.089,1.187,5.129,5.129,0,0,0,.281,1.1,4.079,4.079,0,0,0,.5.932,4,4,0,0,0,.728.74,2.813,2.813,0,0,0,.983.472,4.693,4.693,0,0,0,1.251.179,3.846,3.846,0,0,0,1.43-.268,3.8,3.8,0,0,0,1.162-.753,4.018,4.018,0,0,0,.83-1.149,4.157,4.157,0,0,0,.383-1.443H142a1.713,1.713,0,0,0,1.238-.421,1.973,1.973,0,0,0,.421-1.43V44.828a.122.122,0,0,0-.038-.192Z" transform="translate(-66.244 -41.56)" fill="#f7c1ac"/>
      </g>
    </g>
  </g>
</svg>
