<svg xmlns="http://www.w3.org/2000/svg" xmlns:xlink="http://www.w3.org/1999/xlink" width="166" height="166" viewBox="0 0 166 166">
  <defs>
    <filter id="logo-bg" x="0" y="0" width="166" height="166" filterUnits="userSpaceOnUse">
      <feOffset dy="3" input="SourceAlpha"/>
      <feGaussianBlur stdDeviation="6" result="blur"/>
      <feFlood flood-opacity="0.051"/>
      <feComposite operator="in" in2="blur"/>
      <feComposite in="SourceGraphic"/>
    </filter>
    <radialGradient id="radial-gradient" cx="0.5" cy="0.5" r="0.478" gradientTransform="translate(-0.048) scale(1.097 1)" gradientUnits="objectBoundingBox">
      <stop offset="0" stop-color="#192847"/>
      <stop offset="0.751" stop-color="#442e46"/>
      <stop offset="1" stop-color="#e5361c"/>
    </radialGradient>
  </defs>
  <g id="logo-bg-2" data-name="logo-bg" transform="translate(18 15)">
    <g transform="matrix(1, 0, 0, 1, -18, -15)" filter="url(#logo-bg)">
      <circle id="logo-bg-3" data-name="logo-bg" cx="65" cy="65" r="65" transform="translate(18 15)" fill="#fff"/>
    </g>
    <g id="CT_Scan_Sessions___" data-name="CT Scan Sessions___" transform="translate(7 40)">
      <g id="Group_14846" data-name="Group 14846" transform="translate(30.962 44.601)">
        <path id="Path_75275" data-name="Path 75275" d="M897.413,704.307a.552.552,0,0,0,0-.784.54.54,0,0,0-.389-.163.554.554,0,0,0-.39.947.549.549,0,0,0,.78,0Z" transform="translate(-882.117 -703.057)" fill="#b79c72"/>
        <g id="Group_14845" data-name="Group 14845" transform="translate(0)">
          <path id="Path_75276" data-name="Path 75276" d="M863.1,719.33a.99.99,0,0,0-.423.089.826.826,0,0,0-.31.244,1.76,1.76,0,0,0-.209.344,1.864,1.864,0,0,0-.134.416c-.03.152-.053.3-.066.429s-.02.27-.02.41a2.57,2.57,0,0,0,.041.467,2.185,2.185,0,0,0,.133.447.809.809,0,0,0,.275.355.717.717,0,0,0,.433.134,1.458,1.458,0,0,0,.985-.455,16.215,16.215,0,0,0,.065-1.8Q863.874,719.33,863.1,719.33Z" transform="translate(-851.715 -717.118)" fill="none"/>
          <path id="Path_75277" data-name="Path 75277" d="M792.046,729.6c.008.021.02.052.037.088a.144.144,0,0,0,.061.074.753.753,0,0,0,.092.037.415.415,0,0,0,.129.018,1.736,1.736,0,0,0,1.167-.386,1.286,1.286,0,0,0,.453-1.034,1.089,1.089,0,0,0-.841-1.028,2.89,2.89,0,0,0-.533-.1c-.156-.012-.353-.023-.591-.031v2.1c0,.027,0,.073.006.135A.568.568,0,0,0,792.046,729.6Z" transform="translate(-790.153 -724.083)" fill="none"/>
          <path id="Path_75278" data-name="Path 75278" d="M1175.129,719.662a1.747,1.747,0,0,0-.209.344,1.818,1.818,0,0,0-.134.416c-.03.151-.053.3-.066.429a4.1,4.1,0,0,0-.021.41,2.643,2.643,0,0,0,.04.467,2.209,2.209,0,0,0,.133.447.82.82,0,0,0,.275.355.716.716,0,0,0,.433.134,1.457,1.457,0,0,0,.985-.455,16.079,16.079,0,0,0,.066-1.8q0-1.083-.771-1.083a1,1,0,0,0-.423.089A.817.817,0,0,0,1175.129,719.662Z" transform="translate(-1127.087 -717.118)" fill="none"/>
          <path id="Path_75279" data-name="Path 75279" d="M793.877,706.19q0-1-1.387-1a1.507,1.507,0,0,0-.344.045.119.119,0,0,0-.09.1,1.541,1.541,0,0,0-.017.269v1.908a2.3,2.3,0,0,0,1.369-.345A1.145,1.145,0,0,0,793.877,706.19Z" transform="translate(-790.17 -704.669)" fill="none"/>
          <path id="Path_75280" data-name="Path 75280" d="M776.939,702.647a.537.537,0,0,1,.147.1.907.907,0,0,1,.086.094.246.246,0,0,1,.041.112.773.773,0,0,1,.012.12c0,.029,0,.076,0,.143s0,.12,0,.158v4.049c0,.082,0,.14,0,.174a.6.6,0,0,1-.031.134.334.334,0,0,1-.091.143,1.14,1.14,0,0,1-.178.135v.135h2.051a4.929,4.929,0,0,0,.73-.051,3.1,3.1,0,0,0,.673-.178,2.016,2.016,0,0,0,.562-.322,1.443,1.443,0,0,0,.378-.5,1.645,1.645,0,0,0,.143-.7,1.087,1.087,0,0,0-.481-.934,2.783,2.783,0,0,0-1.369-.421v-.091a3.569,3.569,0,0,0,.587-.177,2.8,2.8,0,0,0,.524-.281,1.3,1.3,0,0,0,.393-.423,1.1,1.1,0,0,0,.146-.556q0-1.288-2.212-1.289h-2.59l-.048.054v.177c.12.036.224.069.314.1S776.879,702.618,776.939,702.647Zm1.329.408v-.066a1.517,1.517,0,0,1,.017-.269.12.12,0,0,1,.089-.1,1.517,1.517,0,0,1,.344-.045q1.386,0,1.387,1a1.14,1.14,0,0,1-.47.977,2.3,2.3,0,0,1-1.369.344v-1.841Zm0,4.091v-1.932c.238.008.435.018.591.031a2.8,2.8,0,0,1,.533.1,1.087,1.087,0,0,1,.842,1.028,1.289,1.289,0,0,1-.453,1.034,1.738,1.738,0,0,1-1.167.386.418.418,0,0,1-.13-.018.63.63,0,0,1-.092-.037.134.134,0,0,1-.061-.074c-.017-.037-.029-.066-.037-.088a.494.494,0,0,1-.018-.127c0-.063-.006-.108-.006-.135S778.268,707.23,778.268,707.145Z" transform="translate(-776.4 -702.054)" fill="#b79c72"/>
          <path id="Path_75281" data-name="Path 75281" d="M821.33,718.463a.711.711,0,0,1,.246-.315.675.675,0,0,1,.4-.119.412.412,0,0,1,.318.131.687.687,0,0,1,.163.329l.111.07.628-.488a.874.874,0,0,0-.162-.535.579.579,0,0,0-.5-.22,1.139,1.139,0,0,0-.638.207,3.991,3.991,0,0,0-.633.539l-.09-.04a1.039,1.039,0,0,0-.117-.542.474.474,0,0,0-.437-.189,1.092,1.092,0,0,0-.341.058,1.634,1.634,0,0,0-.367.177c-.127.079-.23.147-.307.206s-.183.136-.314.238l.135.2a1.358,1.358,0,0,1,.292-.178.69.69,0,0,1,.278-.075.271.271,0,0,1,.1.018.169.169,0,0,1,.077.062.941.941,0,0,1,.054.084.4.4,0,0,1,.037.121c.01.054.017.1.02.135s.007.09.011.158,0,.122,0,.163v.276q0,.5-.057,2.461l.168.058.891-.328q-.119-1.325-.118-1.879a2.257,2.257,0,0,1,.034-.392A1.708,1.708,0,0,1,821.33,718.463Z" transform="translate(-814.163 -715.322)" fill="#b79c72"/>
          <path id="Path_75282" data-name="Path 75282" d="M857.782,716.691l-.5.32a2.325,2.325,0,0,0-1.226-.361,1.814,1.814,0,0,0-1.516.653,3.067,3.067,0,0,0-.515,1.928,2.729,2.729,0,0,0,.061.568,2.443,2.443,0,0,0,.193.556,1.117,1.117,0,0,0,.373.439.966.966,0,0,0,.567.169,2.636,2.636,0,0,0,1.564-.624l.106.041q.074.558.521.558a1.131,1.131,0,0,0,.4-.078,1.446,1.446,0,0,0,.383-.221,3.317,3.317,0,0,0,.316-.281c.09-.092.184-.2.283-.314l-.16-.177a1.108,1.108,0,0,1-.587.353.216.216,0,0,1-.163-.064.458.458,0,0,1-.084-.246,3.068,3.068,0,0,1-.029-.338q0-.156,0-.509,0-.9.135-2.293Zm-.948,3.159a1.453,1.453,0,0,1-.985.456.709.709,0,0,1-.433-.134.81.81,0,0,1-.274-.355,2.15,2.15,0,0,1-.133-.447,2.6,2.6,0,0,1-.04-.467c0-.14.007-.276.02-.41s.036-.277.066-.429a1.73,1.73,0,0,1,.134-.416,1.752,1.752,0,0,1,.209-.344.818.818,0,0,1,.309-.244.989.989,0,0,1,.423-.089q.771,0,.771,1.083A16.591,16.591,0,0,1,856.834,719.85Z" transform="translate(-844.741 -714.759)" fill="#b79c72"/>
          <path id="Path_75283" data-name="Path 75283" d="M889.925,719.568c0,.212,0,.367,0,.466s0,.21,0,.335a1.742,1.742,0,0,0,.023.279,1.555,1.555,0,0,0,.051.189.568.568,0,0,0,.09.17.583.583,0,0,0,.5.238q.6,0,1.313-.882v-.094l-.144-.135c-.079.079-.144.141-.191.184a1.263,1.263,0,0,1-.193.14.432.432,0,0,1-.215.074.394.394,0,0,1-.129-.02.229.229,0,0,1-.1-.07.528.528,0,0,1-.068-.1.483.483,0,0,1-.041-.149c-.01-.066-.016-.127-.023-.183s-.009-.132-.011-.227,0-.181,0-.255,0-.173,0-.3,0-.232,0-.321q0-.169.011-.51c.009-.227.012-.4.012-.509a3.333,3.333,0,0,0-.022-.481.715.715,0,0,0-.076-.226.45.45,0,0,0-.423-.192,1.251,1.251,0,0,0-.5.121,2.851,2.851,0,0,0-.455.249c-.122.085-.264.194-.429.329l.131.184a1.153,1.153,0,0,1,.583-.266c.169,0,.267.137.291.41V719C889.929,719.168,889.928,719.357,889.925,719.568Z" transform="translate(-875.469 -715.058)" fill="#b79c72"/>
          <path id="Path_75284" data-name="Path 75284" d="M912.226,719.745c0,.088,0,.193,0,.314a2.39,2.39,0,0,0,.017.269c.008.058.019.123.032.192a.519.519,0,0,0,.058.166.535.535,0,0,0,.091.111.637.637,0,0,0,.451.164,1.2,1.2,0,0,0,.705-.312,7.714,7.714,0,0,0,.633-.587l-.094-.14h-.1a1,1,0,0,1-.562.218.321.321,0,0,1-.238-.086.3.3,0,0,1-.072-.08.566.566,0,0,1-.043-.169,2.485,2.485,0,0,1-.02-.355c0-.091,0-.235.014-.437s.014-.344.014-.429v-.246c0-.265,0-.449,0-.552a4.106,4.106,0,0,0-.047-.419.76.76,0,0,0-.126-.365.858.858,0,0,0-.255-.189.9.9,0,0,0-.419-.088,3.3,3.3,0,0,0-1.674.591l-.1-.037a.778.778,0,0,0-.141-.421.5.5,0,0,0-.417-.158,1.118,1.118,0,0,0-.346.06,1.625,1.625,0,0,0-.37.177c-.124.078-.232.151-.324.218s-.2.148-.318.244l.152.2.084-.054q.072-.045.125-.074l.127-.068a.9.9,0,0,1,.138-.06.387.387,0,0,1,.113-.02.258.258,0,0,1,.135.035.235.235,0,0,1,.091.115c.022.054.04.1.054.152a1.1,1.1,0,0,1,.029.212c.006.093.008.168.011.226s0,.143,0,.258v.069q0,.4-.061,2.461l.1.058.923-.267a8.716,8.716,0,0,1-.061-1.112q-.022-.936-.021-1.83a2.632,2.632,0,0,1,1.017-.386.675.675,0,0,1,.468.132.72.72,0,0,1,.158.37,2.914,2.914,0,0,1,.063.486c.006.144.008.328.008.556q0,.2,0,.476C912.228,719.52,912.227,719.655,912.226,719.745Z" transform="translate(-892.779 -714.803)" fill="#b79c72"/>
          <path id="Path_75285" data-name="Path 75285" d="M987.257,702.235v-.025a1.909,1.909,0,0,0-.435-.274,3.283,3.283,0,0,0-1.355-.246,3.8,3.8,0,0,0-1.325.234,3.381,3.381,0,0,0-1.12.673,2.928,2.928,0,0,0-.882,2.285,3.85,3.85,0,0,0,.1.878,2.76,2.76,0,0,0,.327.8,2.422,2.422,0,0,0,.576.656,2.653,2.653,0,0,0,.88.439,4.108,4.108,0,0,0,1.2.164,4.191,4.191,0,0,0,2.437-.833l-.177-.209a4.472,4.472,0,0,1-1.916.53,2.085,2.085,0,0,1-.833-.164,1.851,1.851,0,0,1-.624-.43,2.55,2.55,0,0,1-.416-.619,3.017,3.017,0,0,1-.244-.716,3.685,3.685,0,0,1-.074-.733,4.008,4.008,0,0,1,.04-.553,4.22,4.22,0,0,1,.123-.574,2.425,2.425,0,0,1,.232-.55,2.3,2.3,0,0,1,.347-.458,1.425,1.425,0,0,1,.488-.321,1.684,1.684,0,0,1,.634-.117,1.583,1.583,0,0,1,.607.111,1.244,1.244,0,0,1,.453.31,1.965,1.965,0,0,1,.3.435,2.647,2.647,0,0,1,.2.524l.135.025.792-.722a2.419,2.419,0,0,0-.362-.441h-.036Z" transform="translate(-957.545 -701.587)" fill="#b79c72"/>
          <path id="Path_75286" data-name="Path 75286" d="M1037.011,701.976v-.423l-.086-.083c-.164.006-.425.017-.785.035s-.675.031-.948.041-.534.014-.785.014q-.455,0-1.287-.032c-.553-.022-.932-.036-1.134-.041l-.066.066v.462c.037.031.074.064.11.1l1.655-.08c.14-.011.209.04.209.152V703.3q0,1.94-.066,4.16l.075.1,1.21-.344q-.144-2.278-.143-3.919v-1.157a.115.115,0,0,1,.037-.1.271.271,0,0,1,.139-.025c.167,0,.391,0,.671.008s.53.011.748.017l.353.008Z" transform="translate(-1001.375 -701.393)" fill="#b79c72"/>
          <path id="Path_75287" data-name="Path 75287" d="M1096,706.506a2.008,2.008,0,0,0,.609-.607,1.425,1.425,0,0,0,.236-.782,1.237,1.237,0,0,0-.077-.438,1.457,1.457,0,0,0-.2-.361,1.759,1.759,0,0,0-.343-.322,4.351,4.351,0,0,0-.438-.289c-.144-.084-.327-.183-.549-.3-.156-.076-.284-.142-.382-.2s-.213-.13-.344-.224a1.775,1.775,0,0,1-.312-.272,1.283,1.283,0,0,1-.2-.32.966.966,0,0,1-.082-.4.829.829,0,0,1,.24-.6.846.846,0,0,1,.633-.246.984.984,0,0,1,.774.324,1.436,1.436,0,0,1,.35.784l.143.045.8-.624a1.2,1.2,0,0,0-.6-.652,2.544,2.544,0,0,0-1.086-.2,3.179,3.179,0,0,0-.806.1,2.444,2.444,0,0,0-.694.3,1.426,1.426,0,0,0-.5.536,1.6,1.6,0,0,0-.184.777,1.191,1.191,0,0,0,.137.556,1.553,1.553,0,0,0,.344.45,4.306,4.306,0,0,0,.485.367,5.3,5.3,0,0,0,.529.312c.168.086.336.179.5.279a2.359,2.359,0,0,1,.384.273,1.161,1.161,0,0,1,.455.8.986.986,0,0,1-.315.719,1.041,1.041,0,0,1-.76.314,1.088,1.088,0,0,1-.868-.393,1.352,1.352,0,0,1-.335-.9l-.16-.057-.817.914a1.909,1.909,0,0,0,.734.63,2.157,2.157,0,0,0,.964.22,3.047,3.047,0,0,0,.9-.14A3.254,3.254,0,0,0,1096,706.506Z" transform="translate(-1054.774 -700.83)" fill="#b79c72"/>
          <path id="Path_75288" data-name="Path 75288" d="M1136.6,719.916l-.1-.025a2.341,2.341,0,0,1-1.387.578.982.982,0,0,1-.458-.105.936.936,0,0,1-.326-.27,1.556,1.556,0,0,1-.207-.381,2,2,0,0,1-.118-.421,2.655,2.655,0,0,1-.032-.41,3.2,3.2,0,0,1,.046-.521,3.529,3.529,0,0,1,.143-.564,1.178,1.178,0,0,1,.292-.476.631.631,0,0,1,.452-.186.608.608,0,0,1,.559.3,1.442,1.442,0,0,1,.18.747l.144.057.776-.459a1.04,1.04,0,0,0-.133-.47.819.819,0,0,0-.307-.307,1.494,1.494,0,0,0-.406-.158,2.132,2.132,0,0,0-.466-.049,2.465,2.465,0,0,0-.877.149,1.911,1.911,0,0,0-.648.4,2.136,2.136,0,0,0-.427.581,2.71,2.71,0,0,0-.244.687,3.6,3.6,0,0,0-.074.734,2.163,2.163,0,0,0,.088.619,1.864,1.864,0,0,0,.264.544,1.223,1.223,0,0,0,.482.393,1.623,1.623,0,0,0,.7.146,3.038,3.038,0,0,0,2.166-1.014Z" transform="translate(-1090.354 -714.891)" fill="#b79c72"/>
          <path id="Path_75289" data-name="Path 75289" d="M1167.285,717.3a3.069,3.069,0,0,0-.515,1.928,2.643,2.643,0,0,0,.062.568,2.458,2.458,0,0,0,.193.556,1.117,1.117,0,0,0,.373.439.966.966,0,0,0,.567.169,2.636,2.636,0,0,0,1.564-.624l.107.041q.073.558.521.558a1.129,1.129,0,0,0,.4-.078,1.442,1.442,0,0,0,.384-.221,3.467,3.467,0,0,0,.316-.281c.089-.092.184-.2.283-.314l-.16-.177a1.1,1.1,0,0,1-.587.353.216.216,0,0,1-.162-.064.458.458,0,0,1-.084-.246,3.245,3.245,0,0,1-.029-.338q0-.156,0-.509,0-.9.135-2.293l-.119-.078-.5.32a2.323,2.323,0,0,0-1.227-.361A1.815,1.815,0,0,0,1167.285,717.3Zm2.365.751a16.012,16.012,0,0,1-.066,1.8,1.454,1.454,0,0,1-.985.456.706.706,0,0,1-.433-.134.8.8,0,0,1-.275-.355,2.139,2.139,0,0,1-.133-.447,2.588,2.588,0,0,1-.04-.467c0-.14.007-.276.02-.41s.036-.277.066-.429a1.8,1.8,0,0,1,.344-.76.816.816,0,0,1,.309-.244.991.991,0,0,1,.423-.088Q1169.649,716.97,1169.65,718.053Z" transform="translate(-1120.105 -714.759)" fill="#b79c72"/>
          <path id="Path_75290" data-name="Path 75290" d="M1200.7,717.539c.048-.03.09-.055.126-.074l.127-.068a.891.891,0,0,1,.137-.06.39.39,0,0,1,.113-.02.262.262,0,0,1,.135.034.239.239,0,0,1,.091.115c.021.054.039.1.054.152a1.1,1.1,0,0,1,.028.212c.006.093.008.169.011.226s0,.143,0,.258v.069q0,.4-.06,2.461l.1.057.923-.267a8.7,8.7,0,0,1-.062-1.111q-.02-.936-.02-1.83a2.632,2.632,0,0,1,1.017-.386.674.674,0,0,1,.468.131.723.723,0,0,1,.158.37,2.877,2.877,0,0,1,.063.486q.009.215.009.556c0,.134,0,.293,0,.476s0,.319,0,.409,0,.194,0,.315a2.368,2.368,0,0,0,.017.269c.009.059.019.123.032.193a.488.488,0,0,0,.057.166.551.551,0,0,0,.091.111.637.637,0,0,0,.45.164,1.2,1.2,0,0,0,.705-.312,7.647,7.647,0,0,0,.633-.587l-.094-.14h-.1a1,1,0,0,1-.561.217.324.324,0,0,1-.239-.086.31.31,0,0,1-.071-.08.558.558,0,0,1-.043-.169,2.489,2.489,0,0,1-.021-.355c0-.091,0-.235.014-.437s.014-.344.014-.429v-.246c0-.265,0-.45,0-.552s-.021-.242-.046-.419a.765.765,0,0,0-.127-.364.839.839,0,0,0-.254-.189.9.9,0,0,0-.418-.089,3.3,3.3,0,0,0-1.674.591l-.1-.037a.779.779,0,0,0-.141-.421.5.5,0,0,0-.416-.158,1.117,1.117,0,0,0-.346.06,1.607,1.607,0,0,0-.37.177c-.125.078-.232.15-.324.217s-.2.148-.318.244l.152.2Z" transform="translate(-1149.776 -714.794)" fill="#b79c72"/>
        </g>
      </g>
      <g id="Group_14847" data-name="Group 14847" transform="translate(0 0.249)">
        <path id="Path_75291" data-name="Path 75291" d="M770.087,568.118a11.246,11.246,0,0,0,1.437-1.33,2.13,2.13,0,0,0,.611-1.258q.036-.287-.342-.306a2.164,2.164,0,0,0-1.06.378,6.6,6.6,0,0,0-.935.683,21.247,21.247,0,0,0-1.581,1.6,15.29,15.29,0,0,0-1.006,1.312q-.181.288-.36.539c-.119.167-.239.348-.36.539q.827-.394,1.743-.917A15.712,15.712,0,0,0,770.087,568.118Z" transform="translate(-736.6 -537.188)" fill="none"/>
        <path id="Path_75292" data-name="Path 75292" d="M1088.225,569.73q.573-.719.989-1.33c.275-.408.5-.754.664-1.043a3.142,3.142,0,0,0,.468-1.329.607.607,0,0,0-.305-.611,1.311,1.311,0,0,0-.844-.018,5.528,5.528,0,0,0-1.186.45,14.462,14.462,0,0,0-3.845,2.7,27.454,27.454,0,0,0-3.271,3.917,9.426,9.426,0,0,0-1.1,2.067q-.343.952.162,1.132a1.8,1.8,0,0,0,1.006-.089,6.428,6.428,0,0,0,1.347-.647,18.812,18.812,0,0,0,1.564-1.078c.551-.418,1.1-.881,1.653-1.383a5.454,5.454,0,0,1-.055-2.193,4.792,4.792,0,0,1,.611-1.689,1.524,1.524,0,0,1,.935-.754q.52-.108.953.647A2.816,2.816,0,0,1,1088.225,569.73Z" transform="translate(-1012.524 -537.26)" fill="none"/>
        <path id="Path_75293" data-name="Path 75293" d="M747.848,561.776q-.935.647-1.869,1.24t-1.868,1.078a16.324,16.324,0,0,1-1.8.808,6.83,6.83,0,0,1-1.473.269,1.127,1.127,0,0,1-1.006-.269,1.471,1.471,0,0,1-.27-1.168,5.445,5.445,0,0,1,.485-1.6q.97-.466,2.139-1.114t2.282-1.383q1.113-.735,2.067-1.492a10.284,10.284,0,0,0,1.492-1.4,2.563,2.563,0,0,0,.539-1.2,2.234,2.234,0,0,0-.108-1.2,1.648,1.648,0,0,0-.772-.844,2.169,2.169,0,0,0-1.419-.161,6.643,6.643,0,0,0-2.713,1.293,13.929,13.929,0,0,0-2.372,2.318,18.623,18.623,0,0,0-1.832,2.714,14.168,14.168,0,0,0-1.1,2.407,6.916,6.916,0,0,0-.324,2.947,1.918,1.918,0,0,0,1.33,1.689,4.188,4.188,0,0,0,2.677-.018,14.2,14.2,0,0,0,2.965-1.294,30.64,30.64,0,0,0,2.8-1.815c.521-.38.986-.718,1.408-1.024l-.653-1.2Zm-6.182-2.552q.179-.251.36-.539a15.175,15.175,0,0,1,1.007-1.311,21.237,21.237,0,0,1,1.582-1.6,6.5,6.5,0,0,1,.935-.683,2.172,2.172,0,0,1,1.06-.377c.252.012.365.113.342.306a2.129,2.129,0,0,1-.611,1.258,11.345,11.345,0,0,1-1.437,1.331,15.983,15.983,0,0,1-1.851,1.24q-.916.522-1.743.917C741.428,559.572,741.547,559.393,741.667,559.224Z" transform="translate(-711.406 -526.572)" fill="#e53519"/>
        <path id="Path_75294" data-name="Path 75294" d="M837.866,552.091l-.52.366q-1.1.773-2.21,1.564a2.488,2.488,0,0,0-.521-1.546,17.065,17.065,0,0,1-1.024-1.51c-.143-.191-.294-.4-.449-.629a1.449,1.449,0,0,1-.27-.629,1.812,1.812,0,0,1,.054-.521,1.4,1.4,0,0,1,.342-.449q.287-.287.844-.826t1.563-1.653a4.437,4.437,0,0,0,1.258-2c.1-.539.048-.868-.143-.989a.641.641,0,0,0-.629-.108,2.677,2.677,0,0,0-.773.378,7.183,7.183,0,0,0-.79.629c-.264.24-.5.468-.719.682a14.7,14.7,0,0,0-1.546,1.815,15.887,15.887,0,0,1-1.365,1.672q-.683.647-1.15,1.114t-.953.9q-.486.43-1.078.9l-1.456,1.15h0c.4-.281.784-.557,1.149-.828l.323,1.437-.82.593.03.054a21.7,21.7,0,0,0,2.012-1.563q.826-.736,1.8-1.528a.766.766,0,0,1,.36-.2.22.22,0,0,1,.215.072.926.926,0,0,1,.126.215.621.621,0,0,0,.125.2c.1.144.227.33.4.557s.342.48.521.755a6.767,6.767,0,0,1,.468.844,1.916,1.916,0,0,1,.2.791,4.615,4.615,0,0,1-.089.935,1.483,1.483,0,0,1-.485.79,2.6,2.6,0,0,1-1.473.575,1.411,1.411,0,0,1-1.329-.539,1.712,1.712,0,0,0-1.257-.7,1.146,1.146,0,0,0-.9.233.957.957,0,0,0-.233.647,1.677,1.677,0,0,0,.161.628,1.8,1.8,0,0,0,.36.521,2.385,2.385,0,0,0,.324.287,3.563,3.563,0,0,0,1.4.557,4.471,4.471,0,0,0,1.491,0,5.3,5.3,0,0,0,1.438-.467,5.671,5.671,0,0,0,1.24-.808q.719-.431,1.492-.953t1.492-1.024c.455-.319.876-.61,1.268-.874l-.658-1.21C837.609,552.3,837.739,552.191,837.866,552.091Z" transform="translate(-789.331 -517.699)" fill="#e53519"/>
        <path id="Path_75295" data-name="Path 75295" d="M827.5,613.79c-.366.27-.753.548-1.149.828l.653,1.2.82-.593Z" transform="translate(-789.331 -579.923)" fill="#e53519"/>
        <path id="Path_75296" data-name="Path 75296" d="M934.8,551.509q-.529.367-1.353.948-1.1.773-2.21,1.564a2.491,2.491,0,0,0-.521-1.546,16.932,16.932,0,0,1-1.025-1.51c-.144-.191-.294-.4-.449-.629a1.456,1.456,0,0,1-.271-.629,1.811,1.811,0,0,1,.054-.521,1.4,1.4,0,0,1,.342-.449q.287-.287.844-.826t1.563-1.653a4.433,4.433,0,0,0,1.258-1.995c.1-.539.047-.868-.144-.989a.64.64,0,0,0-.629-.108,2.679,2.679,0,0,0-.772.378,7.257,7.257,0,0,0-.79.629q-.4.361-.718.683a14.645,14.645,0,0,0-1.546,1.815,15.892,15.892,0,0,1-1.365,1.671q-.684.647-1.15,1.114t-.953.9q-.486.43-1.078.9l-1.06.838q.721-.506,1.151-.8l.179,1.582c-.264.191-.6.426-1.006.7l-.062.042.027.048a21.712,21.712,0,0,0,2.012-1.564q.827-.735,1.8-1.528a.773.773,0,0,1,.36-.2.22.22,0,0,1,.215.072.932.932,0,0,1,.126.215.624.624,0,0,0,.125.2c.1.144.228.33.4.557s.342.479.521.754a6.723,6.723,0,0,1,.468.844,1.92,1.92,0,0,1,.2.791,4.592,4.592,0,0,1-.089.935,1.48,1.48,0,0,1-.485.79,2.6,2.6,0,0,1-1.473.575,1.411,1.411,0,0,1-1.329-.539,1.711,1.711,0,0,0-1.257-.7,1.145,1.145,0,0,0-.9.233.957.957,0,0,0-.233.647,1.682,1.682,0,0,0,.161.629,1.793,1.793,0,0,0,.36.521,2.274,2.274,0,0,0,.324.287,3.564,3.564,0,0,0,1.4.557,4.468,4.468,0,0,0,1.492,0,5.308,5.308,0,0,0,1.438-.467,5.657,5.657,0,0,0,1.24-.808q.719-.43,1.492-.953t1.492-1.024c.239-.168.469-.326.69-.479a17.56,17.56,0,0,1,1-2.234C934.7,551.684,934.754,551.6,934.8,551.509Z" transform="translate(-874.353 -517.699)" fill="#e53519"/>
        <path id="Path_75297" data-name="Path 75297" d="M921.255,612.961l-.179-1.582q-.43.3-1.151.8l-.395.312.658,1.21.062-.042Q920.859,613.249,921.255,612.961Z" transform="translate(-871.422 -577.801)" fill="#e53519"/>
        <path id="Path_75298" data-name="Path 75298" d="M1018.365,572.333c-.306.211-.7.488-1.194.831q-.773.54-1.635,1.132t-1.654,1.114q-.79.521-1.293.808c-.408.24-.66.269-.754.089a1.249,1.249,0,0,1,.036-.881,12.881,12.881,0,0,1,1.2-2.767q.88-1.581,1.922-3.127c.414-.615.82-1.189,1.218-1.732a2.2,2.2,0,0,1-.7-.479,2.246,2.246,0,0,1-.417-.57c-.091.118-.182.233-.278.357q-.934,1.205-1.851,2.588c-.555.839-1.072,1.712-1.557,2.609l.318-.22.179,1.581c-.263.191-.6.426-1.007.7-.2.139-.419.285-.641.438-.08.221-.155.441-.222.659a4.277,4.277,0,0,0-.2,1.347,2.208,2.208,0,0,0,.269,1.06,1.229,1.229,0,0,0,.719.575,1.935,1.935,0,0,0,1.186-.108,7.23,7.23,0,0,0,1.546-.791q.9-.574,1.832-1.258c.511-.372,1-.741,1.468-1.107a8.859,8.859,0,0,1,.474-1.12A15.085,15.085,0,0,1,1018.365,572.333Z" transform="translate(-950.999 -538.491)" fill="#e53519"/>
        <path id="Path_75299" data-name="Path 75299" d="M1056.968,544.078a5.973,5.973,0,0,0,1.042.018,10.964,10.964,0,0,0-1.51,1.671c-.194.249-.391.508-.589.774a1.86,1.86,0,0,0,1.951-.435,1.737,1.737,0,0,0,.561-1.3,1.924,1.924,0,0,0-1.885-1.885,1.742,1.742,0,0,0-1.3.561,1.823,1.823,0,0,0-.547,1.323,1.8,1.8,0,0,0,.126.674c.412-.525.784-.987,1.11-1.382A4.4,4.4,0,0,1,1056.968,544.078Z" transform="translate(-990.503 -517.577)" fill="#e53519"/>
        <path id="Path_75300" data-name="Path 75300" d="M1056.836,554.9c.2-.267.4-.527.589-.775a11.083,11.083,0,0,1,1.51-1.671,5.908,5.908,0,0,1-1.042-.018,4.4,4.4,0,0,0-1.043.018c-.326.4-.7.859-1.111,1.382a1.837,1.837,0,0,0,.42.63A1.8,1.8,0,0,0,1056.836,554.9Z" transform="translate(-991.427 -525.936)" fill="#e53519"/>
        <path id="Path_75301" data-name="Path 75301" d="M1015.034,612.961l-.179-1.582-.318.22c-.048.09-.1.175-.149.266a17.561,17.561,0,0,0-1,2.234q.334-.23.641-.437C1014.436,613.387,1014.771,613.154,1015.034,612.961Z" transform="translate(-954.112 -577.799)" fill="#e53519"/>
        <path id="Path_75302" data-name="Path 75302" d="M1080.58,560.32l-.008-.064q-.5.36-1.474,1.06t-2.013,1.311a1.979,1.979,0,0,1-.7.234.433.433,0,0,1-.4-.143.83.83,0,0,1-.143-.467,4.64,4.64,0,0,1,.018-.7,13.573,13.573,0,0,0,2.048-2.3,18.621,18.621,0,0,0,1.258-1.886,7.955,7.955,0,0,0,.809-1.833,2.48,2.48,0,0,0,.018-1.474,1.477,1.477,0,0,0-1.114-.88,4.019,4.019,0,0,0-1.85,0,9.4,9.4,0,0,0-2.139.754,15.476,15.476,0,0,0-2.246,1.347,18.886,18.886,0,0,0-2.139,1.779,22.016,22.016,0,0,0-2.174,2.444c-.2.264-.389.526-.567.786l.046-.031.179,1.581q-.575.4-1.419,1.06c-.1.08-.208.16-.311.24a6.127,6.127,0,0,0-.282,1.143,2.259,2.259,0,0,0,.324,1.689,1.459,1.459,0,0,0,1.437.629,5.982,5.982,0,0,0,2.013-.611,15.376,15.376,0,0,0,2.193-1.311q1.112-.791,2.012-1.51a3.05,3.05,0,0,0,1.132,1.4,1.715,1.715,0,0,0,1.706-.143,17.036,17.036,0,0,0,2.264-1.383c.445-.326.837-.607,1.186-.854l-.323-1.393C1080.149,560.636,1080.366,560.478,1080.58,560.32Zm-5.632-3.3a1.529,1.529,0,0,0-.935.755,4.762,4.762,0,0,0-.61,1.689,5.432,5.432,0,0,0,.054,2.192q-.827.755-1.654,1.383a18.6,18.6,0,0,1-1.564,1.078,6.468,6.468,0,0,1-1.346.647,1.807,1.807,0,0,1-1.007.09q-.5-.179-.162-1.132a9.463,9.463,0,0,1,1.1-2.067,27.4,27.4,0,0,1,3.271-3.918,14.449,14.449,0,0,1,3.846-2.7,5.551,5.551,0,0,1,1.186-.45,1.313,1.313,0,0,1,.844.018.606.606,0,0,1,.3.611,3.139,3.139,0,0,1-.467,1.329q-.251.431-.664,1.042t-.989,1.331a2.8,2.8,0,0,0-.252-1.258Q1075.47,556.914,1074.948,557.022Z" transform="translate(-1000.456 -526.448)" fill="#e53519"/>
        <path id="Path_75303" data-name="Path 75303" d="M1070.321,614.762l-.18-1.582-.045.031a14.673,14.673,0,0,0-1.033,1.73,9.005,9.005,0,0,0-.473,1.12c.1-.08.211-.16.311-.24Q1069.745,615.159,1070.321,614.762Z" transform="translate(-1002.744 -579.381)" fill="#e53519"/>
        <path id="Path_75304" data-name="Path 75304" d="M1202.686,556.787l.006,0-.167.112q-1.024.683-2.085,1.4t-1.886,1.24a4.511,4.511,0,0,1-.935.521q-.539.215-.539-.179a5.443,5.443,0,0,1,.773-1.815q.627-1.024,1.437-2.138t1.653-2.282a17.393,17.393,0,0,0,1.383-2.21,2.605,2.605,0,0,0,.2-1.419.908.908,0,0,0-.521-.682,1.69,1.69,0,0,0-.989-.036,4.062,4.062,0,0,0-1.2.486,16.751,16.751,0,0,0-2.031,1.528q-1.2,1.024-2.5,2.21t-2.5,2.336q-1.205,1.149-1.994,1.94.573-1.077,1.024-1.976c.3-.6.593-1.174.88-1.725s.588-1.126.9-1.725.671-1.258,1.079-1.976l.358-.719a5.156,5.156,0,0,0,.288-.683.632.632,0,0,0-.036-.629.666.666,0,0,0-.521-.251,1.489,1.489,0,0,0-.774.215,2.764,2.764,0,0,0-.826.736q-1.113,1.259-2.947,3.2a32.176,32.176,0,0,1-4.3,3.694l.172,1.517c-.154.105-.324.225-.5.35l.036.153q1.689-1.221,2.624-1.958t1.473-1.2q.541-.466.844-.772t.7-.664q-.5.97-1.1,2.049t-1.222,2.21q-.629,1.132-1.222,2.228t-1.025,2.067a.752.752,0,0,0,1.078.683q1.436-1.114,3.036-2.588t3.2-3.019q1.6-1.545,3.127-2.965t2.785-2.426q.323-.25.323-.053a1.6,1.6,0,0,1-.36.7q-.538.755-1.4,1.869t-1.671,2.372a17.117,17.117,0,0,0-1.347,2.515,4.16,4.16,0,0,0-.4,2.228,1.169,1.169,0,0,0,.9.774,2.721,2.721,0,0,0,1.185.054,7.9,7.9,0,0,0,1.618-.826q.97-.611,1.976-1.311t1.94-1.383l.92-.672-.235.169Z" transform="translate(-1105.937 -522.014)" fill="#e53519"/>
        <path id="Path_75305" data-name="Path 75305" d="M1183.533,613.72c-.214.158-.43.316-.653.475l.324,1.393c.177-.125.349-.245.5-.35Z" transform="translate(-1103.429 -579.862)" fill="#e53519"/>
        <path id="Path_75306" data-name="Path 75306" d="M1341.392,581.215q-.575.4-1.671,1.168t-2.21,1.564a2.489,2.489,0,0,0-.521-1.546,17.166,17.166,0,0,1-1.024-1.51c-.143-.191-.294-.4-.449-.629a1.452,1.452,0,0,1-.271-.629,1.792,1.792,0,0,1,.054-.521,1.4,1.4,0,0,1,.342-.449c.091-.092.208-.206.342-.337a3.09,3.09,0,0,1-1.671-1.206,14.8,14.8,0,0,1-.971,1.148q-.683.647-1.15,1.114c-.312.312-.629.611-.953.9s-.683.587-1.079.9l-1.449,1.145c.443-.3.8-.54,1.059-.727.087-.062.164-.118.229-.167l.179,1.581-.555.407a20.991,20.991,0,0,0,1.776-1.395q.827-.735,1.8-1.528a.774.774,0,0,1,.36-.2.224.224,0,0,1,.217.072.924.924,0,0,1,.126.215.608.608,0,0,0,.125.2c.1.144.227.33.4.557s.341.479.521.754a6.7,6.7,0,0,1,.467.844,1.915,1.915,0,0,1,.2.791,4.624,4.624,0,0,1-.09.935,1.475,1.475,0,0,1-.485.79,2.6,2.6,0,0,1-1.474.575,1.409,1.409,0,0,1-1.328-.539,1.714,1.714,0,0,0-1.258-.7,1.145,1.145,0,0,0-.9.233.964.964,0,0,0-.234.647,1.686,1.686,0,0,0,.161.629,1.806,1.806,0,0,0,.36.521,2.454,2.454,0,0,0,.323.287,3.56,3.56,0,0,0,1.4.557,4.445,4.445,0,0,0,1.491,0,5.293,5.293,0,0,0,1.438-.467,5.7,5.7,0,0,0,1.24-.808c.479-.287.975-.6,1.492-.953s1.013-.689,1.492-1.024.922-.641,1.33-.917.742-.509,1.006-.7Z" transform="translate(-1231.958 -547.618)" fill="#e53519"/>
        <path id="Path_75307" data-name="Path 75307" d="M1329.745,613.347c-.26.187-.616.43-1.059.727h0l-.006,0,.682,1.258.235-.169.554-.406-.179-1.582C1329.907,613.23,1329.831,613.285,1329.745,613.347Z" transform="translate(-1231.931 -579.385)" fill="#e53519"/>
        <path id="Path_75308" data-name="Path 75308" d="M1329.789,614.58c-.261.187-.616.43-1.059.727h0C1329.172,615.01,1329.528,614.766,1329.789,614.58Z" transform="translate(-1231.975 -580.624)" fill="#e53519"/>
        <path id="Path_75309" data-name="Path 75309" d="M1337.818,613.19c-.066.049-.142.106-.229.168" transform="translate(-1239.775 -579.404)" fill="none" stroke="#e53519" stroke-linecap="round" stroke-linejoin="round" stroke-width="0"/>
        <path id="Path_75310" data-name="Path 75310" d="M538,361.417a15.135,15.135,0,0,0-2.911-1.773,34.691,34.691,0,0,0-3.324-1.356q-1.708-.6-3.45-1.049t-3.289-.85a16.513,16.513,0,0,1-4.546-1.737,4.717,4.717,0,0,1-2.012-2.1,3.071,3.071,0,0,1,.054-2.37,8.553,8.553,0,0,1,1.653-2.514q.278-.305.582-.611c.375-.378.785-.756,1.222-1.136.306-.266.622-.532.957-.8l.006,0c.3-.239.609-.475.918-.71q1.2-.908,2.5-1.769a36.993,36.993,0,0,1,3.593-2.153q2.012-1.067,4.276-2.027t4.672-1.773a48.824,48.824,0,0,1,4.779-1.356,38.822,38.822,0,0,1,4.636-.779,21.861,21.861,0,0,1,4.24-.054,16.167,16.167,0,0,1,2.911.561,6.627,6.627,0,0,1,2.318,1.122,2.416,2.416,0,0,1,.971,1.7,3.178,3.178,0,0,1-1.168,2.3,14.13,14.13,0,0,1-1.923,1.719c-.252.191-.519.376-.781.561s-.558.386-.845.574-.561.369-.852.548q-.6.366-1.215.69c-.371.2-.741.382-1.114.556-.1.049-.209.1-.313.147-.4.18-.779.332-1.145.466l-.977.309-2.406,2.862q1.149-.361,2.642-.868,1.287-.437,2.631-1c.141-.059.282-.116.423-.177q.371-.159.741-.327.85-.386,1.69-.824c.22-.114.44-.23.66-.349.116-.064.227-.131.342-.2a16.949,16.949,0,0,0,2.443-1.685,13.435,13.435,0,0,0,2.013-2.026,7.141,7.141,0,0,0,1.311-2.388,3.591,3.591,0,0,0-.09-2.424,4.5,4.5,0,0,0-2.192-2.135,13.491,13.491,0,0,0-5.427-1.664,29.591,29.591,0,0,0-5.642.108,39.768,39.768,0,0,0-6.11,1.176,58.941,58.941,0,0,0-6.074,2.007,59.951,59.951,0,0,0-5.57,2.514,45.5,45.5,0,0,0-4.6,2.7l-.115.079q-.551.379-1.237.878c-.352.256-.723.529-1.127.832-.276.207-.551.422-.824.643q-.6.484-1.19,1.011c-.294.262-.587.529-.879.807a21.913,21.913,0,0,0-2.133,2.355l-.266.347c-.044.059-.091.116-.135.176a7.119,7.119,0,0,0-1.365,3.039,4.279,4.279,0,0,0,.593,2.949,7.51,7.51,0,0,0,3.325,2.624,15.007,15.007,0,0,0,2.318.832q1.2.325,2.39.687,2.408.724,4.707,1.284a24.951,24.951,0,0,1,4.564,1.61,14.676,14.676,0,0,1,3.611,2.189,4.147,4.147,0,0,1,1.456,2.28,3.623,3.623,0,0,1-.575,2.514,14.051,14.051,0,0,1-2.479,2.93,27.76,27.76,0,0,1-4.744,3.545,29.539,29.539,0,0,1-5.462,2.568,11.863,11.863,0,0,1-2.569.579,10.045,10.045,0,0,1-2.408,0,5.5,5.5,0,0,1-1.85-.543,1.59,1.59,0,0,1-.9-1.013,1.8,1.8,0,0,1,.647-1.574,9.8,9.8,0,0,1,2.138-1.592,26.579,26.579,0,0,1,3.036-1.484q1.689-.706,3.289-1.266t2.929-.941q1.329-.381,1.976-.525l-3.7-.867a17.648,17.648,0,0,0-2.372.543,27,27,0,0,0-2.8,1,28.236,28.236,0,0,0-2.839,1.374,17.24,17.24,0,0,0-2.515,1.682,8.945,8.945,0,0,0-1.779,1.881,3.228,3.228,0,0,0-.629,1.953,2.466,2.466,0,0,0,.953,1.882c1.882,1.56,4.975,1.6,7.275,1.29a23.583,23.583,0,0,0,9.746-3.808c2.721-1.8,5.812-4.364,7.207-7.411a4.869,4.869,0,0,0,.047-4.11A8.173,8.173,0,0,0,538,361.417Z" transform="translate(-515.284 -332.46)" fill="#e53519"/>
      </g>
      <g id="Group_14848" data-name="Group 14848" transform="translate(83.879)">
        <path id="Path_75311" data-name="Path 75311" d="M1239.927,343.48c.021-.034.041-.071.063-.114.221-.436.944-1.549,1.171-1.983a5.67,5.67,0,0,0,.256-.695c.006-.016.027-.026.055-.051.056.087.109.17.146.226l1.495-.834c0-.178.009-.342.013-.459.2.157.365.392.537.4.547.018,1.1-.048,1.648-.084a.64.64,0,0,0,.653-.434c.1-.313.2-.629.292-.945l.071-.015c.038.277.078.555.115.825.52-.269,1.055-.527,1.567-.825a.624.624,0,0,0,.25-.416c.04-.349.047-.7.06-1.053A18.977,18.977,0,0,0,1237.31,344a13.331,13.331,0,0,1,1.529-.374C1239.223,343.561,1239.586,343.514,1239.927,343.48Z" transform="translate(-1235.363 -336.226)" fill="none"/>
        <path id="Path_75312" data-name="Path 75312" d="M1225.2,376.65c.055.172.136.431.262.861.117.4.169.6.211.759.031.121.055.213.1.356a6.847,6.847,0,0,0,.985,2.164,3.964,3.964,0,0,0,1.212,1.033,1.693,1.693,0,0,0-.031-.483.762.762,0,0,0-.126-.208.917.917,0,0,1-.169-.183l-.05-.1.292.054.2.115a1.37,1.37,0,0,0,.194-.618.887.887,0,0,1,.2.678s.017.073-.076.252a1.738,1.738,0,0,0-.162.422l-.048.2.217.122a5.267,5.267,0,0,0,1.673.583c.538.127,1.275.3,2.46.636l.181.051c.245.071.466.132.672.183a.522.522,0,0,1-.047-.12,2.179,2.179,0,0,1-.447-.226l-.067-.039c-.041-.029-.16-.1-.254-.157-.177-.105-.186-.111-.2-.126l-.032-.041.034-.038c.063-.069.434.152.438.154l.1.063a3.907,3.907,0,0,0,.427.243.272.272,0,0,1,0-.031l-.022-.2.126.14a.213.213,0,0,1,.059.126.163.163,0,0,1,0,.038s0,0,.008.007h0l.091-.027.041.036a1.263,1.263,0,0,0,.258.308,3.132,3.132,0,0,0,.911.017,4.085,4.085,0,0,0,1.458-.538h0a1.729,1.729,0,0,0,.373-.307,1.705,1.705,0,0,0,.247-.353l.148-.279a3.362,3.362,0,0,0-.287-1.558,3.27,3.27,0,0,0-.165-.3,2.162,2.162,0,0,1-.116-.216c-.329-.069-1.145-.232-2.043-.346-.747-.094-1.472-.151-1.872-.177l-.036.01a.94.94,0,0,0,.252.722,1.986,1.986,0,0,1-.487-.148,1.659,1.659,0,0,1-.369-.221c-.03-.024-.025-.023-.04-.032a.97.97,0,0,0-.481-.06c-.308,0-.449-.047-.734-.052a7.407,7.407,0,0,1-1.962-.435,4.114,4.114,0,0,1-1.262-3.053c.036-.29.906-2.038,1.395-2.179a4.275,4.275,0,0,0-1.026,3.07,2.512,2.512,0,0,0,.115.354c.483,1.217,1.544,1.673,2.963,1.844a4.026,4.026,0,0,0,2.559-.671,4.52,4.52,0,0,0,1.246-1.326c.185.495-.623,1.326-.751,1.423a5.164,5.164,0,0,1-1.186.694,7.747,7.747,0,0,1,3.684.5c-.434-.6-1.6-2.364-1.6-2.364a15.5,15.5,0,0,1,1.559,1.951,2.639,2.639,0,0,1,.861-1.5,6.94,6.94,0,0,1-2.783-1.66.918.918,0,0,0-.206-.133c-.382-.206-.763-.412-1.146-.613a6.229,6.229,0,0,1-2.067-1.363l-.378.82a.469.469,0,0,0,0,.229c.024.3.052.593.079.889-.106-.26-.14-.528-.217-.783a.425.425,0,0,0-.244-.229,3.3,3.3,0,0,0-.526-.1c0-.031,0-.062,0-.092l.818-.036c.031-.082.2-.456.322-.745a21.791,21.791,0,0,1-2.374-.237c-.815-.008-1.528.383-1.917.2.39.122.2.371.019.74a4.5,4.5,0,0,0-.232,1.219l-.01-.366c-.171-.643.263-1.219.226-1.472-.014-.093-.09-.116-.179-.108l-.029-.047a.649.649,0,0,1,.2.032,6.577,6.577,0,0,1,1.622-.47c.969-.051,2.322.3,2.536.23a1.922,1.922,0,0,1-.961-.809l.052-.078.569.409c-.013-.128-.021-.225-.038-.389.087.085.127.121.165.16l1.075,1.147a.479.479,0,0,0,.7.042c.045-.031.1-.056.144-.085l.083.074-.411.423c.843.4,1.653.806,2.477,1.174a1.457,1.457,0,0,0,.592.03,1.719,1.719,0,0,0,.311-.055l.053.1-.482.268a5.5,5.5,0,0,0,1.582,1.107q1.354.507,2.735.93a1.622,1.622,0,0,0,1.067,0c.224-.516.685-1.642.69-1.676.122-.8.122-1.756-.215-2.076a6.77,6.77,0,0,0-2.606-1.344c-.213-.05-1.689-.458-2.7-.742a.13.13,0,0,1-.037-.011c-.483-.136-.854-.241-.918-.264.236.013.509.039.8.075-.208-1.359-.536-1.484-1.243-1.748-.177-.066-.377-.141-.6-.243a3.81,3.81,0,0,1-1.534-2.272,6.417,6.417,0,0,0-2.706,2.714c.089-.007.179-.014.265-.019a6.994,6.994,0,0,1,3.654,1.087,6.881,6.881,0,0,1,2.067,2.058c.164.029.315.052.461.079.192.033.311,0,.421.086a.424.424,0,0,1,.143.208.764.764,0,0,1-.259.1,2.8,2.8,0,0,1-.449-.061c-.013.288-.024.534-.035.781l-.116.038a6.64,6.64,0,0,0-2.764-3.25,7.165,7.165,0,0,0-5.9-.348,6.621,6.621,0,0,0-.661.286,5.946,5.946,0,0,0-.434,1.01,3.228,3.228,0,0,0-.127.73,5.479,5.479,0,0,1-.141.916,6.025,6.025,0,0,1-.319,1,1.25,1.25,0,0,0-.135.659A1.352,1.352,0,0,0,1225.2,376.65Zm1.532-3.651a3.861,3.861,0,0,1,1.682-.61l.2-.009a9.526,9.526,0,0,0-1.881.619l-.139.082-.071,0Zm.956.131a1.365,1.365,0,0,1,1.008-.25,2.96,2.96,0,0,0-.946.33c-.309.142-1.324.757-1.324.72S1227.1,373.5,1227.689,373.131Zm-2.089,1.881a.847.847,0,0,0,.008.3,12.322,12.322,0,0,1-.164,1.4l-.047-.257A8.533,8.533,0,0,1,1225.6,375.012Z" transform="translate(-1224.612 -363.644)" fill="none"/>
        <path id="Path_75313" data-name="Path 75313" d="M1295.182,361.856a6.711,6.711,0,0,0-.578-1.5,1.664,1.664,0,0,0-.522-.417c-.162-.112-.375-.139-.514-.287a.184.184,0,0,0,.011-.022l.818.094a6.68,6.68,0,0,0-.985-2.044c-.6-.9-1.409-1.779-2.064-2.641a2.213,2.213,0,0,0-.363-.376c-.285.173-.57.347-.858.514-.715.414-1.44.813-2.159,1.218l-.049-.047.4-.548a3.136,3.136,0,0,0-1.588.313c.21.656.661,1.785,1.354,2.1.211.1.4.169.575.233.84.314,1.255.534,1.484,2.086a.151.151,0,0,1,0,.05A22.044,22.044,0,0,1,1295.182,361.856Z" transform="translate(-1278.875 -351.758)" fill="none"/>
        <path id="Path_75314" data-name="Path 75314" d="M1322.989,336.656a4.744,4.744,0,0,1,.785.974c.043.066.092.126.148.2.077-.3.14-.543.21-.814.061.344.04.7.1,1.047a1.211,1.211,0,0,0,.2.533,8.7,8.7,0,0,1,2.2,3.725,1.018,1.018,0,0,0,.1.257c.213.439.25.882.468,1.317a2.375,2.375,0,0,1,.165.453.76.76,0,0,1,.31.342,10.26,10.26,0,0,1-.292,3.235,4.966,4.966,0,0,1-.335.535,1.892,1.892,0,0,1-.845.708,3.059,3.059,0,0,1-1.632-.28c-.064-.025-.131-.043-.21-.067.066.17.124.319.182.47l-.08.044a6.636,6.636,0,0,0-.449-.519,1.075,1.075,0,0,0-.423-.279l-.13-.038a3.929,3.929,0,0,0-.35.473,2.988,2.988,0,0,0-.4.811l0,.013a.991.991,0,0,0,.185.873c.032.051.062.1.086.146.006.012.044.09.168.357a2.6,2.6,0,0,1,.054,1.528l.03.048a2.2,2.2,0,0,0,1.835.777,8.434,8.434,0,0,0,3.414-1.078c0-.085.01-.168.017-.252a3.045,3.045,0,0,1,.408-1.279,1.089,1.089,0,0,0,.076-1.01l-.6.356-.063-.073.158-.187a2.264,2.264,0,0,0,.584-1.277q.041-.414.118-.81a2.991,2.991,0,0,0-1.234,1.2,4.45,4.45,0,0,1-.4.461.02.02,0,0,1-.03,0c-.1-.7.518-1.2,1.068-1.493a2.239,2.239,0,0,1,.59-.2s.006,0,.01,0a7.672,7.672,0,0,1,2.337-4.2.456.456,0,0,0,.157-.291c.01-.375-.013-.756-.026-1.268a6.536,6.536,0,0,1,.579-2.812,2.333,2.333,0,0,1,.275-.336l.125.072a2.98,2.98,0,0,1-.106.33,3.146,3.146,0,0,0-.272,1.859c.077.469.2.558.672.451.154-.035.3-.08.457-.121.029.052.06.1.089.153-.248.116-.49.345-.746.326-.627-.046-.693.355-.794.752a3.656,3.656,0,0,0-.05.53l.441-.094.125.087a8.043,8.043,0,0,0-2.94,6.87c.123-.047.227-.095.338-.127a2.5,2.5,0,0,1,.27-.051,9.6,9.6,0,0,0-.99,1.793,8.77,8.77,0,0,0-.229,1.922c0,.074.008.148.013.22l.529.079c-.159.207-.3.4-.448.583a.691.691,0,0,0,.036.123l.017.04c.174.438.581,1.459,3.789,1.669a5.192,5.192,0,0,0,2.519-2.025.208.208,0,0,0-.1-.175.5.5,0,0,1,.179.065,11.841,11.841,0,0,0,.669-1l.342-.571a.625.625,0,0,0,.049-.3c-.011-.081-.03-.189.044-.225.036.065.072.129.106.194,1.267-2.132,1.527-2.663,1.529-2.668l.059-.122a1.327,1.327,0,0,0,.092-.459.534.534,0,0,0-.252-.467.519.519,0,0,1,.405.191.484.484,0,0,1,.067.269,1.191,1.191,0,0,1-.069.435l.086.081a11.851,11.851,0,0,1,1.353,1.516,14.12,14.12,0,0,1,.842,1.281c.272.457.424.7.567.7h0c.313,0,.814-.77.866-1.482a5.72,5.72,0,0,0,.014-.992l-.179.112.028-.47a17.9,17.9,0,0,0-.052-2.788l-.124.22a1.691,1.691,0,0,0-.17.42c-.054.2-.116.237-.116.237a.891.891,0,0,1-.607.361,1.369,1.369,0,0,0,.28-.584l-.226-.054-.25-.159.1-.037a.825.825,0,0,1,.248-.018.771.771,0,0,0,.234-.066,3.272,3.272,0,0,0,.594-.615c-.009-.08-.016-.16-.026-.24-.153-.536-.41-1.482-.8-3.005-.1-.408-.294-.9-.6-.942-.422-.056-1.02.662-1.392,1.254l.221-.035c.012.028.024.054.037.081a4.3,4.3,0,0,0-.466.293.735.735,0,0,0-.256.32,4.868,4.868,0,0,1-1.652,2.491.6.6,0,0,0-.122.158c-.191.3-.383.6-.569.9a3.961,3.961,0,0,1-1.317,1.6,2.722,2.722,0,0,1-.245,2.244,4.584,4.584,0,0,0,.019-2.1c-.2.313-.763,2.626-1.026,2.938a6.377,6.377,0,0,1,.327-1.993c.088-.208.182-.479.27-.741l-.341-.047c.077-.061.11-.089.144-.113q.517-.363,1.034-.722c.226-.156.191-.375.056-.618-.026-.048-.047-.1-.069-.147l.067-.059.358.455c.377-.668.752-1.309,1.1-1.969a1.283,1.283,0,0,0,.042-.524,1.966,1.966,0,0,0-.038-.289l.093-.025c.071.155.141.311.222.486a3.668,3.668,0,0,0,1.012-1.183c.322-.735.618-1.487.891-2.249a1.483,1.483,0,0,0-.274-1.507.661.661,0,0,1-.055-.133c.318.059.429.314.626.565.121-.241.232-.464.343-.687a1.153,1.153,0,0,1-.18.841.4.4,0,0,0-.091.228,1.969,1.969,0,0,1-.056.769c.365-.452.855-.9,1.334-.84a.686.686,0,0,1,.234.079,11.062,11.062,0,0,0-1.168-2.195c-.155-.226-.317-.438-.482-.641l-.322.28a.473.473,0,0,1,.015-.3.5.5,0,0,0,.021-.318c-.027-.032-.054-.064-.083-.1a.565.565,0,0,0-.3-.035c-.3.025-.6.081-.9.115a1.214,1.214,0,0,1-.253-.023c.047-.08.073-.2.142-.233.242-.116.5-.2.827-.331l-.038-.037-.005,0h0a12.413,12.413,0,0,0-2.07-1.605l-.8,1.436c.106.069.225.149.345.229-.015.036-.028.072-.042.108a1.56,1.56,0,0,0-.328,0,7.39,7.39,0,0,0-.841.206c-.449.147-.831.1-1.025-.185a2.47,2.47,0,0,0,2.26-2.052c-.31-.182-.6-.338-.848-.475a18.393,18.393,0,0,0-3.3-1.4.311.311,0,0,1,0,.034.986.986,0,0,1-.575.9,3.242,3.242,0,0,0-.649.349,1.238,1.238,0,0,0-.381.589,4.9,4.9,0,0,0-.035.974c.9.286,1.856-.338,2.835-.057l-.529.267.365.4-.1.1a5.272,5.272,0,0,1-.44-.354.7.7,0,0,0-.851-.158c-.524.21-1.069.479-1.564.135-.563.464-1.09.892-1.608,1.331-.084.072-.192.2-.179.29a7.276,7.276,0,0,1-.061,2.706c.535.112.855.714,1.481.563.041-.009.16.106.151.139a.329.329,0,0,1-.155.2,1.17,1.17,0,0,1-.318.055c0,.281,0,.531,0,.782h-.112a1.989,1.989,0,0,1-.073-.293,1.085,1.085,0,0,0-.87-1.016,4.872,4.872,0,0,1-.609-.174,1.9,1.9,0,0,1-.366-.274c.136-.054.274-.106.41-.161a1.165,1.165,0,0,0,.122-.085c.056-.481.149-1.014.171-1.549s-.028-1.079-.046-1.62l.054,0c.047.116.092.232.156.389.519-.536,1.039-1.027,1.5-1.569a2.151,2.151,0,0,0,.3-.8.307.307,0,0,0-.1-.268c-.6-.405-1.16-1.04-2.043-.49.056-.142.111-.286.165-.422-.045-.135-.093-.281-.142-.432.284.112.5.211.732.286s.48.11.7.2c.3.121.589.28.854.408a2.979,2.979,0,0,1,.67-.54,1.11,1.11,0,0,0,.769-.938,16.488,16.488,0,0,0-4.6-.658h-.029c-.427,0-.842.023-1.251.054a.849.849,0,0,0,.114.33,8.1,8.1,0,0,1,1,2.916c.075.375.138.687.6.709.056,0,.161.12.149.153-.025.073-.106.175-.168.177a4.429,4.429,0,0,1-.568-.043l-.44.643-.123-.032c.519-.8.1-1.559-.025-2.329a3.526,3.526,0,0,1-2.04-.6.444.444,0,0,0-.383-.068c-.187.1-.371.213-.554.321Zm11.119,8.069a2.326,2.326,0,0,1-.332-1.587l.07-.546.051.549a3.5,3.5,0,0,0,.383,1.374v0a1.474,1.474,0,0,1,.436-.8l.2-.154-.3.64.307-.077-.093.133c-.008.011-.015.019-.02.029q-.364.484-.73.968c-.136.181-.111.353.079.542.013.013.026.028.039.043l.3.345-.69-.468c-.046.182-.094.361-.142.54-.136.516-.266,1.005-.382,1.511a.74.74,0,0,0,.041.343c.012.043.022.081.03.118a.813.813,0,0,0,.059.161l.2.43-.532-.634-.07.116a3.624,3.624,0,0,0-.542,1.232c-.118.717-.218,1.468-.294,2.232a1.2,1.2,0,0,0,.541,1.2l.019.018.083.1h-.128a.708.708,0,0,1-.429-.194c-.038-.029-.077-.059-.118-.087l-.167.781-.058-.287a1.137,1.137,0,0,1,.044-.583l0-.012a.368.368,0,0,0,.026-.209,2.373,2.373,0,0,1-.042-1.3c.006-.036.01-.072.013-.11l0-.048-.563.324.282-.322a2.638,2.638,0,0,0,.232-.288.8.8,0,0,0,.15-.358,5.179,5.179,0,0,1,.875-2.674l.011-.017a.556.556,0,0,0,.068-.157l.049-.157c.086-.272.175-.553.258-.831.031-.1.06-.2.089-.307A3.453,3.453,0,0,1,1334.108,344.725Z" transform="translate(-1310.523 -333.955)" fill="none"/>
        <path id="Path_75315" data-name="Path 75315" d="M1331.417,336.025c-.058.538.091.891.643,1.008.48.1.961.206,1.445.283a1.493,1.493,0,0,0-.06-.171c-.208-.495-.426-.986-.669-1.464a.379.379,0,0,0-.128-.133c-.036-.092-.068-.185-.1-.279-.4.043-.78.1-1.158.169A2.445,2.445,0,0,1,1331.417,336.025Z" transform="translate(-1318.197 -334.685)" fill="none"/>
        <path id="Path_75316" data-name="Path 75316" d="M1422.856,470.023c-.425,0-.648-.372-.983-.934a13.64,13.64,0,0,0-.814-1.24,11.273,11.273,0,0,0-1.066-1.23c-.229.419-.76,1.363-1.938,3.321a8.3,8.3,0,0,1-2.776,3.007l.06-.006c.941-.11,1.879-.274,2.808-.463.286-.058.571-.118.852-.2.246-.069.841-.241.827-.372,0-.03-.036-.033-.161-.112-.039-.024-.321-.2-.3-.246s.217.049.492.072a3.074,3.074,0,0,0,1.227-.195,3.579,3.579,0,0,0,1.108-.56c.051-.041.1-.083.15-.127a8.994,8.994,0,0,0,.621-.728.8.8,0,0,1-.1.011Z" transform="translate(-1392.058 -450.334)" fill="none"/>
        <path id="Path_75317" data-name="Path 75317" d="M1399.1,511.874q-.577-.041-1.048-.115c.211.262.425.479.628.7a5.028,5.028,0,0,0,3.468,1.638,3.662,3.662,0,0,0,3.038-1.005,4.261,4.261,0,0,0,.836-2.666,16.8,16.8,0,0,1-6.844,1.458Z" transform="translate(-1376.888 -488.906)" fill="none"/>
        <path id="Path_75318" data-name="Path 75318" d="M1296.2,496.877l.009,0c-.009-.013-.021-.025-.031-.039Z" transform="translate(-1287.195 -476.941)" fill="none"/>
        <path id="Path_75319" data-name="Path 75319" d="M1397.546,406.557c-.083.277-.172.558-.258.831l-.049.156a.531.531,0,0,1-.068.157l-.011.017a5.186,5.186,0,0,0-.875,2.674.809.809,0,0,1-.15.359,2.822,2.822,0,0,1-.232.288l-.282.322.563-.324,0,.048c0,.038-.007.074-.013.11a2.367,2.367,0,0,0,.042,1.3.355.355,0,0,1-.026.209l0,.012a1.176,1.176,0,0,0-.044.583l.059.287.166-.781c.042.029.081.059.119.087a.7.7,0,0,0,.429.194h.128l-.083-.1-.019-.018a1.206,1.206,0,0,1-.541-1.2c.077-.764.176-1.514.294-2.232a3.571,3.571,0,0,1,.543-1.232l.069-.116.532.634-.2-.431a.835.835,0,0,1-.059-.161c-.008-.037-.018-.075-.03-.118a.741.741,0,0,1-.04-.343c.117-.506.246-.995.382-1.511.048-.179.095-.359.143-.54l.69.469-.3-.345c-.013-.014-.025-.029-.04-.043-.189-.19-.215-.362-.078-.542l.729-.968.02-.028.093-.133-.307.077.3-.64-.2.154a1.472,1.472,0,0,0-.435.795v0a3.5,3.5,0,0,1-.383-1.373l-.051-.549-.069.546a2.326,2.326,0,0,0,.332,1.587,3.509,3.509,0,0,0-.7,1.512C1397.6,406.352,1397.576,406.455,1397.546,406.557Z" transform="translate(-1374.748 -393.967)" fill="#1a2847"/>
        <path id="Path_75320" data-name="Path 75320" d="M1246.808,365.532a89.156,89.156,0,0,0-.194-9.467,4.218,4.218,0,0,0,2.967-1.055,4.81,4.81,0,0,0,1.071-3.378,4.4,4.4,0,0,0,2.347-2.68l-.044.033a2.823,2.823,0,0,0,.219-.85c.078-1.05-.012-1.377-.129-1.51a18.186,18.186,0,0,0-.144-3.437c.019-.05.019-.068-.006-.048a16.793,16.793,0,0,0-.8-3.267,12.741,12.741,0,0,0-1.543-3.15,13.124,13.124,0,0,0-4.893-4.113,17.653,17.653,0,0,0-8.493-2.231h-.031a17.846,17.846,0,0,0-10.478,3.523,18.408,18.408,0,0,0-4.151,4.078,6.6,6.6,0,0,0-.736,1.552,3.674,3.674,0,0,0-.143.825,5.092,5.092,0,0,1-.129.845,5.45,5.45,0,0,1-.3.928,1.735,1.735,0,0,0-.169.873,1.909,1.909,0,0,0,.122.528c.054.17.135.426.258.85.115.4.166.59.206.746.034.128.059.225.1.375a7.257,7.257,0,0,0,1.064,2.317,5.2,5.2,0,0,0,1.8,1.414,5.638,5.638,0,0,0,1.8.631c.533.126,1.265.3,2.44.631l.18.051a5.321,5.321,0,0,0,2.292.319,4.512,4.512,0,0,0,1.656-.61,2.221,2.221,0,0,0,.471-.39c.048-.051.092-.106.135-.163a2.936,2.936,0,0,0,2,.731,8.1,8.1,0,0,0,3.336-.967,7.6,7.6,0,0,0,.187,1.87l.015.038a2.174,2.174,0,0,0,.547.843c.406.875,1.025,2.721,1.592,3.161a1.15,1.15,0,0,0,.844.28.342.342,0,0,1,.229.1c.27.265.526.546.8.813a12.7,12.7,0,0,1,.955.935,3.953,3.953,0,0,1,.72,1.406,9,9,0,0,1,.256,1.635c.006.061.055,4.637.061,4.7l.273-.191.012-4.678a4.521,4.521,0,0,0-1.644-3.724c-.268-.227-.547-.442-.821-.664l-.526-.423a.98.98,0,0,0,.215-.363.263.263,0,0,0-.078-.219.251.251,0,0,0-.226.017c-.416.267-.529.3-.9-.026a11.859,11.859,0,0,1-1.246-2.382,5.281,5.281,0,0,0,1.591.557c.04.07.077.151.108.2a5.205,5.205,0,0,0,3.178,2.477c.311.083.634.12.948.192.085.019.216.08.229.142a15.947,15.947,0,0,1,.368,3.309c0,.094,0,5.8,0,5.953l0,.255Zm-16.779-15.216-.022-.037c.01.014.022.026.031.04Zm19.29,4.254a3.663,3.663,0,0,1-3.038,1.005,5.033,5.033,0,0,1-3.469-1.638c-.2-.225-.417-.442-.628-.7.314.049.664.087,1.048.115l.077.016a16.811,16.811,0,0,0,6.844-1.458A4.25,4.25,0,0,1,1249.319,354.57Zm1.983-3.784c-.048.044-.1.086-.15.127a3.6,3.6,0,0,1-1.108.56,3.073,3.073,0,0,1-1.226.195c-.275-.024-.478-.109-.493-.072s.265.224.3.246c.126.079.158.084.162.112.014.13-.581.3-.827.372-.281.079-.567.139-.852.2-.928.189-1.865.354-2.807.463l-.06.006a8.3,8.3,0,0,0,2.775-3.006c1.177-1.958,1.71-2.9,1.938-3.321a11.224,11.224,0,0,1,1.067,1.23,13.335,13.335,0,0,1,.813,1.24c.336.562.558.934.983.934h.006a.665.665,0,0,0,.1-.011A8.752,8.752,0,0,1,1251.3,350.787Zm-15.927-19.822c.031.093.065.186.1.279a.383.383,0,0,1,.128.133c.244.478.462.97.669,1.464a1.672,1.672,0,0,1,.06.171c-.485-.078-.965-.182-1.446-.283-.553-.117-.7-.47-.642-1.008a2.44,2.44,0,0,0-.027-.587C1234.6,331.065,1234.98,331.008,1235.375,330.965Zm-.993,1.877a3.536,3.536,0,0,0,2.041.6c.128.771.544,1.53.025,2.329l.123.032.44-.643a4.4,4.4,0,0,0,.568.043c.062,0,.143-.105.168-.177.011-.032-.094-.151-.149-.153-.464-.021-.528-.334-.6-.709a8.087,8.087,0,0,0-1-2.916.84.84,0,0,1-.114-.33c.409-.031.824-.053,1.25-.054h.029a16.488,16.488,0,0,1,4.6.657,1.109,1.109,0,0,1-.769.938,2.941,2.941,0,0,0-.67.54c-.264-.128-.551-.286-.854-.408-.226-.091-.473-.123-.706-.2s-.447-.173-.731-.286c.051.151.1.3.142.431l-.165.422c.884-.55,1.44.085,2.043.49a.307.307,0,0,1,.1.268,2.141,2.141,0,0,1-.3.8c-.459.543-.979,1.034-1.5,1.569-.063-.158-.109-.274-.155-.388l-.054,0c.018.54.067,1.082.046,1.62s-.115,1.068-.171,1.549a.966.966,0,0,1-.122.085c-.136.055-.274.108-.41.161a1.884,1.884,0,0,0,.366.274,5.161,5.161,0,0,0,.609.174,1.084,1.084,0,0,1,.869,1.016,1.8,1.8,0,0,0,.074.293h.113c0-.25,0-.5,0-.782a1.279,1.279,0,0,0,.318-.055.327.327,0,0,0,.155-.2c.008-.032-.11-.148-.151-.139-.626.151-.944-.452-1.481-.563a7.266,7.266,0,0,0,.062-2.706c-.013-.086.094-.219.178-.29.519-.439,1.045-.867,1.609-1.331.495.344,1.04.075,1.563-.135a.7.7,0,0,1,.851.158,5.449,5.449,0,0,0,.439.354l.1-.1-.365-.4.529-.267c-.979-.281-1.933.343-2.836.057a4.929,4.929,0,0,1,.035-.974,1.238,1.238,0,0,1,.381-.589,3.315,3.315,0,0,1,.649-.349.99.99,0,0,0,.575-.9.244.244,0,0,1,0-.033,18.5,18.5,0,0,1,3.3,1.4c.251.136.539.293.848.475a2.472,2.472,0,0,1-2.259,2.053c.193.287.576.333,1.024.185a7.437,7.437,0,0,1,.842-.206,1.593,1.593,0,0,1,.327,0c.015-.036.028-.072.042-.108l-.344-.229.8-1.436a12.48,12.48,0,0,1,2.069,1.605h0l.005,0,.038.037c-.329.128-.584.215-.826.331-.07.033-.1.153-.142.233a1.227,1.227,0,0,0,.253.023c.3-.034.6-.09.9-.115a.542.542,0,0,1,.3.035l.083.1a.511.511,0,0,1-.022.318.468.468,0,0,0-.014.3l.321-.28c.164.2.326.415.482.641a11.071,11.071,0,0,1,1.168,2.195.681.681,0,0,0-.234-.079c-.48-.061-.969.388-1.334.84a1.986,1.986,0,0,0,.056-.769.394.394,0,0,1,.091-.228,1.154,1.154,0,0,0,.18-.842c-.111.224-.224.446-.343.687-.2-.251-.309-.507-.626-.565a.588.588,0,0,0,.055.133,1.488,1.488,0,0,1,.274,1.507c-.273.762-.569,1.513-.891,2.249a3.66,3.66,0,0,1-1.012,1.183l-.222-.487-.093.025a1.789,1.789,0,0,1,.039.289,1.316,1.316,0,0,1-.043.524c-.346.66-.721,1.3-1.1,1.969l-.358-.456-.067.059c.023.049.043.1.07.147.133.244.168.461-.056.618q-.518.36-1.034.722c-.035.025-.068.053-.144.113l.341.047c-.089.263-.182.533-.271.741a6.42,6.42,0,0,0-.327,1.993c.262-.312.827-2.625,1.026-2.938a4.578,4.578,0,0,1-.02,2.1,2.712,2.712,0,0,0,.245-2.244,3.964,3.964,0,0,0,1.317-1.6c.187-.3.379-.6.569-.9a.612.612,0,0,1,.122-.158,4.868,4.868,0,0,0,1.652-2.491.724.724,0,0,1,.256-.32,4.268,4.268,0,0,1,.466-.293c-.012-.028-.024-.054-.037-.081l-.222.035c.374-.592.971-1.309,1.393-1.254.312.041.5.534.6.942.389,1.523.648,2.47.8,3.005.011.08.018.16.026.24a3.285,3.285,0,0,1-.594.614.766.766,0,0,1-.234.066.923.923,0,0,0-.249.018l-.1.037.25.159.226.054a1.372,1.372,0,0,1-.28.585.891.891,0,0,0,.607-.361s.062-.042.116-.237a1.7,1.7,0,0,1,.17-.42s.052-.091.124-.22a17.816,17.816,0,0,1,.052,2.788l-.027.47.179-.112a5.955,5.955,0,0,1-.013.992c-.053.712-.553,1.48-.867,1.482h0c-.144,0-.293-.239-.567-.7a13.732,13.732,0,0,0-.843-1.282,11.851,11.851,0,0,0-1.354-1.516l-.086-.081a1.215,1.215,0,0,0,.069-.435.479.479,0,0,0-.067-.269.524.524,0,0,0-.4-.191.531.531,0,0,1,.252.467,1.345,1.345,0,0,1-.092.459l-.058.122c0,.006-.262.538-1.529,2.668-.036-.065-.072-.129-.106-.194-.074.036-.054.143-.044.225a.614.614,0,0,1-.049.3c-.107.181-.221.369-.342.571a11.887,11.887,0,0,1-.668,1,.514.514,0,0,0-.179-.065.21.21,0,0,1,.1.174,5.212,5.212,0,0,1-2.519,2.025c-3.208-.21-3.615-1.232-3.79-1.669l-.016-.041a.79.79,0,0,1-.036-.123c.145-.186.289-.376.448-.583l-.528-.079c0-.072-.009-.145-.013-.22a8.657,8.657,0,0,1,.23-1.922,9.61,9.61,0,0,1,.99-1.793,2.414,2.414,0,0,0-.27.051c-.112.032-.216.08-.339.127a8.043,8.043,0,0,1,2.939-6.87l-.124-.087-.441.094a3.609,3.609,0,0,1,.051-.53c.1-.4.166-.8.793-.752.255.019.5-.21.746-.326l-.09-.153c-.153.04-.3.085-.456.121-.471.108-.595.018-.672-.451a3.163,3.163,0,0,1,.272-1.859,3.079,3.079,0,0,0,.106-.33l-.125-.072a2.464,2.464,0,0,0-.275.336,6.506,6.506,0,0,0-.579,2.812c.014.513.036.893.027,1.268a.459.459,0,0,1-.157.29,7.667,7.667,0,0,0-2.337,4.2l-.01,0a2.238,2.238,0,0,0-.591.2c-.551.294-1.172.8-1.067,1.493a.02.02,0,0,0,.029,0,4.583,4.583,0,0,0,.4-.461,2.988,2.988,0,0,1,1.234-1.2c-.05.264-.091.533-.118.81a2.267,2.267,0,0,1-.584,1.277l-.158.187.064.073.6-.356a1.086,1.086,0,0,1-.077,1.01,3.042,3.042,0,0,0-.407,1.279c-.009.084-.013.169-.017.252a8.44,8.44,0,0,1-3.414,1.078,2.2,2.2,0,0,1-1.836-.777l-.03-.048a2.576,2.576,0,0,0-.054-1.528c-.123-.268-.161-.346-.168-.358-.024-.046-.054-.094-.085-.146a.99.99,0,0,1-.186-.873l0-.013a3,3,0,0,1,.4-.812,4.044,4.044,0,0,1,.35-.474c.044.012.086.026.13.038a1.073,1.073,0,0,1,.424.278,6.511,6.511,0,0,1,.448.519l.08-.044c-.059-.149-.116-.3-.182-.47.079.025.147.042.21.067a3.064,3.064,0,0,0,1.632.28,1.877,1.877,0,0,0,.845-.708,4.9,4.9,0,0,0,.335-.534,10.194,10.194,0,0,0,.292-3.235.766.766,0,0,0-.31-.342,2.416,2.416,0,0,0-.165-.453c-.219-.435-.256-.879-.468-1.317a1,1,0,0,1-.1-.257,8.728,8.728,0,0,0-2.2-3.725,1.211,1.211,0,0,1-.2-.533c-.064-.343-.044-.7-.1-1.047-.07.271-.133.516-.21.814-.055-.074-.1-.134-.148-.2a4.709,4.709,0,0,0-.785-.974l-.042.014q.275-.165.553-.322A.436.436,0,0,1,1234.382,332.841Zm-2.09,6.315c-.229-1.553-.643-1.772-1.485-2.086-.171-.064-.365-.136-.574-.233-.694-.318-1.145-1.446-1.355-2.1a3.136,3.136,0,0,1,1.588-.313l-.4.547.049.047c.72-.405,1.444-.8,2.159-1.218.288-.167.572-.341.858-.514a2.244,2.244,0,0,1,.364.377c.653.861,1.462,1.738,2.063,2.641a6.736,6.736,0,0,1,.985,2.044l-.819-.095a.168.168,0,0,0-.011.022c.14.148.353.174.514.287a1.65,1.65,0,0,1,.521.417,6.67,6.67,0,0,1,.579,1.5,21.936,21.936,0,0,0-5.041-1.271A.27.27,0,0,0,1232.293,339.157Zm1.687-7.982c-.014.351-.02.7-.061,1.053a.619.619,0,0,1-.25.416c-.511.3-1.047.556-1.566.825-.037-.27-.076-.547-.115-.825l-.071.016c-.1.314-.191.63-.292.944a.64.64,0,0,1-.654.434c-.55.035-1.1.1-1.648.084-.173-.006-.336-.242-.537-.4,0,.117-.008.281-.013.459l-1.494.834c-.036-.056-.09-.139-.146-.226-.027.025-.049.036-.054.051a5.754,5.754,0,0,1-.256.695c-.229.434-.951,1.546-1.172,1.983a1.152,1.152,0,0,1-.063.114c-.344.033-.705.081-1.089.152a13.352,13.352,0,0,0-1.529.374A18.975,18.975,0,0,1,1233.98,331.175Zm-12.332,11.138a6.028,6.028,0,0,0,.32-1,5.579,5.579,0,0,0,.141-.916,3.155,3.155,0,0,1,.127-.73,5.744,5.744,0,0,1,.433-1.01,7,7,0,0,1,.662-.286,7.171,7.171,0,0,1,5.9.348,6.643,6.643,0,0,1,2.763,3.25l.116-.038c.011-.246.022-.492.035-.78a2.808,2.808,0,0,0,.448.061.768.768,0,0,0,.26-.1.423.423,0,0,0-.144-.208c-.109-.083-.229-.053-.42-.086-.146-.025-.3-.049-.462-.079a6.88,6.88,0,0,0-5.722-3.145c-.086,0-.176.012-.265.019a6.424,6.424,0,0,1,2.707-2.714,3.813,3.813,0,0,0,1.534,2.273c.223.1.423.177.6.243.708.264,1.034.389,1.243,1.748-.294-.036-.566-.061-.8-.075.063.021.436.128.918.264a.3.3,0,0,0,.037.011c1.014.284,2.489.692,2.7.742a6.78,6.78,0,0,1,2.607,1.344c.336.32.336,1.274.214,2.076,0,.034-.465,1.16-.689,1.676a1.625,1.625,0,0,1-1.068,0c-.918-.282-1.832-.591-2.734-.93a5.466,5.466,0,0,1-1.583-1.107l.482-.268-.053-.1a2.011,2.011,0,0,1-.311.055,1.48,1.48,0,0,1-.593-.03c-.825-.368-1.635-.771-2.477-1.174l.411-.423-.083-.074c-.047.027-.1.053-.145.085a.478.478,0,0,1-.7-.042q-.536-.574-1.076-1.146c-.037-.039-.076-.075-.165-.16.015.164.025.261.038.388l-.569-.409-.053.078a1.927,1.927,0,0,0,.962.809c-.215.067-1.568-.281-2.537-.23a6.552,6.552,0,0,0-1.622.47c.389.182,1.1-.209,1.916-.2a21.819,21.819,0,0,0,2.375.237c-.126.289-.291.664-.322.745l-.817.036c0,.031,0,.062-.005.092a3.173,3.173,0,0,1,.526.1.429.429,0,0,1,.244.23c.076.255.111.522.216.783-.026-.3-.055-.593-.079-.889a.507.507,0,0,1,0-.23l.379-.82a6.216,6.216,0,0,0,2.065,1.363c.384.2.765.408,1.146.613a.9.9,0,0,1,.207.133,6.928,6.928,0,0,0,2.783,1.661,2.644,2.644,0,0,0-.861,1.5,15.458,15.458,0,0,0-1.558-1.951s1.164,1.768,1.6,2.365a7.744,7.744,0,0,0-3.684-.5,5.161,5.161,0,0,0,1.186-.695c.128-.1.936-.927.751-1.422a4.508,4.508,0,0,1-1.246,1.326,4.02,4.02,0,0,1-2.56.671c-1.418-.171-2.481-.626-2.963-1.845a2.5,2.5,0,0,1-.115-.354,4.284,4.284,0,0,1,1.025-3.07c-.489.141-1.358,1.889-1.394,2.179a4.119,4.119,0,0,0,1.261,3.053,7.416,7.416,0,0,0,1.962.435c.285.006.425.054.734.053a1,1,0,0,1,.482.06c.014.01.008.007.039.032a1.653,1.653,0,0,0,.369.221,2,2,0,0,0,.487.148.935.935,0,0,1-.251-.722l.036-.009c.4.027,1.125.083,1.872.177.9.113,1.714.276,2.043.345a2.067,2.067,0,0,0,.116.216,3.108,3.108,0,0,1,.452,1.863l-.148.278a1.709,1.709,0,0,1-.621.66h0a4.093,4.093,0,0,1-1.457.538,3.14,3.14,0,0,1-.912-.017,1.326,1.326,0,0,1-.258-.308l-.041-.036-.091.028h0a.019.019,0,0,1-.007-.007.191.191,0,0,0,0-.038.218.218,0,0,0-.059-.126l-.125-.14.021.2c0,.011,0,.02,0,.031a3.762,3.762,0,0,1-.427-.243l-.1-.063s-.375-.224-.437-.154l-.034.038.032.041c.01.014.019.019.2.125.1.058.214.128.255.157l.067.039a2.2,2.2,0,0,0,.447.226.56.56,0,0,0,.048.12c-.208-.051-.427-.114-.672-.183l-.182-.052c-1.185-.336-1.922-.509-2.46-.636a5.233,5.233,0,0,1-1.672-.583q-.111-.061-.217-.122l.047-.2a1.676,1.676,0,0,1,.162-.422c.095-.181.077-.252.077-.252a.886.886,0,0,0-.2-.678,1.366,1.366,0,0,1-.2.618l-.2-.115-.292-.054.05.1a.865.865,0,0,0,.17.183.693.693,0,0,1,.125.208,1.681,1.681,0,0,1,.031.483,3.922,3.922,0,0,1-1.212-1.033,6.858,6.858,0,0,1-.985-2.164c-.043-.143-.067-.235-.1-.356-.042-.159-.093-.356-.21-.759-.124-.429-.207-.689-.262-.861a1.4,1.4,0,0,1-.1-.414A1.257,1.257,0,0,1,1221.647,342.312Z" transform="translate(-1221.023 -330.38)" fill="url(#radial-gradient)"/>
        <path id="Path_75321" data-name="Path 75321" d="M1227.612,427.178a12.209,12.209,0,0,0,.164-1.4.85.85,0,0,1-.008-.3,8.523,8.523,0,0,0-.2,1.439C1227.613,427.176,1227.612,427.178,1227.612,427.178Z" transform="translate(-1226.779 -414.112)" fill="#1a2847"/>
        <path id="Path_75322" data-name="Path 75322" d="M1235.742,418.846c.089-.008.166.013.179.108.037.252-.4.828-.226,1.471l.01.366a4.481,4.481,0,0,1,.232-1.219c.181-.369.372-.618-.019-.74a.659.659,0,0,0-.2-.032Z" transform="translate(-1233.905 -408.229)" fill="#1a2847"/>
        <path id="Path_75323" data-name="Path 75323" d="M1238.48,407.531a1.363,1.363,0,0,0-1.007.25c-.587.366-1.264.763-1.263.8s1.014-.578,1.324-.72A2.97,2.97,0,0,1,1238.48,407.531Z" transform="translate(-1234.394 -398.293)" fill="#1a2847"/>
        <path id="Path_75324" data-name="Path 75324" d="M1240.453,403.469a3.856,3.856,0,0,0-1.683.61,9.513,9.513,0,0,1,1.882-.619Z" transform="translate(-1236.648 -394.724)" fill="#1a2847"/>
        <path id="Path_75325" data-name="Path 75325" d="M1237.22,408.64l-.21.085.072,0Z" transform="translate(-1235.099 -399.285)" fill="#1a2847"/>
      </g>
    </g>
  </g>
</svg>
