<svg xmlns="http://www.w3.org/2000/svg" xmlns:xlink="http://www.w3.org/1999/xlink" width="166" height="166" viewBox="0 0 166 166">
  <defs>
    <filter id="logo-bg" x="0" y="0" width="166" height="166" filterUnits="userSpaceOnUse">
      <feOffset dy="3" input="SourceAlpha"/>
      <feGaussianBlur stdDeviation="6" result="blur"/>
      <feFlood flood-opacity="0.051"/>
      <feComposite operator="in" in2="blur"/>
      <feComposite in="SourceGraphic"/>
    </filter>
  </defs>
  <g id="logo-bg-2" data-name="logo-bg" transform="translate(18 15)">
    <g transform="matrix(1, 0, 0, 1, -18, -15)" filter="url(#logo-bg)">
      <circle id="logo-bg-3" data-name="logo-bg" cx="65" cy="65" r="65" transform="translate(18 15)" fill="#fff"/>
    </g>
    <g id="tl3thom-logo" transform="translate(8.724 18.319)">
      <g id="Group_33" data-name="Group 33" transform="translate(46.044 0.199)">
        <path id="Path_18298" data-name="Path 18298" d="M29.091,1.681l-.969,1.3-.5.623c1.3.346,2.128-.415,2.821-1.332.415-.519.779-.882,1.056-1.229L32.1.435A2.6,2.6,0,0,0,29.091,1.681Z" transform="translate(-26.997 0.014)" fill="#5da760"/>
        <path id="Path_18299" data-name="Path 18299" d="M28.506,4.2a3.05,3.05,0,0,1-.727-.1l-.519-.121,1.817-2.353C30.046.275,31.205-.158,32.451.292l.519.173-.969,1c-.1.1-.208.208-.329.346a10.028,10.028,0,0,0-.727.848,3.178,3.178,0,0,1-2.44,1.557ZM31.517.794a2.386,2.386,0,0,0-1.9,1.229L28.489,3.442c.727,0,1.3-.519,1.9-1.246a7.476,7.476,0,0,1,.779-.9L31.5.967l.121-.121a.152.152,0,0,0-.1-.035Z" transform="translate(-27.26 -0.121)" fill="#5da760"/>
      </g>
      <g id="Group_34" data-name="Group 34" transform="translate(50.348 0.82)">
        <path id="Path_18300" data-name="Path 18300" d="M31.831,1.831,30.689,3.008l-.519.554c1.246.5,2.146-.208,2.924-1A12.19,12.19,0,0,1,34.34,1.381l.554-.45c-1.3-.623-2.3.069-3.08.9Z" transform="translate(-29.547 -0.325)" fill="#5da760"/>
        <path id="Path_18301" data-name="Path 18301" d="M31.264,4.253a3.476,3.476,0,0,1-.952-.173l-.5-.208,2.025-2.128C32.959.5,34.1.169,35.365.775l.519.242-1,.8s-.208.173-.329.277a7.111,7.111,0,0,0-.9.882,3.477,3.477,0,0,1-2.388,1.3Zm-.121-.727a2.457,2.457,0,0,0,1.973-1.073c.346-.346.675-.675.952-.9a1.644,1.644,0,0,1,.329-.277l.069-.035a2.336,2.336,0,0,0-2.094,1l-1.229,1.3Z" transform="translate(-29.81 -0.48)" fill="#5da760"/>
      </g>
      <g id="Group_35" data-name="Group 35" transform="translate(54.636 1.88)">
        <path id="Path_18302" data-name="Path 18302" d="M33.264,3.354l-.554.45c1.177.623,2.146.035,3.028-.692.519-.45.952-.727,1.332-1l.675-.415a2.451,2.451,0,0,0-3.167.606Z" transform="translate(-32.087 -0.918)" fill="#5da760"/>
        <path id="Path_18303" data-name="Path 18303" d="M33.994,4.618a2.073,2.073,0,0,1-1.142-.329l-.5-.242.969-.8,1.246-1.125C35.793,1,37,.794,38.164,1.5l.5.329L37.247,2.8a10.037,10.037,0,0,0-.969.779A3.919,3.919,0,0,1,33.994,4.618Zm-.277-.727a2.481,2.481,0,0,0,2.059-.882,12.335,12.335,0,0,1,1-.8l.415-.329a2.267,2.267,0,0,0-2.146.779Z" transform="translate(-32.35 -1.092)" fill="#5da760"/>
      </g>
      <g id="Group_36" data-name="Group 36" transform="translate(58.806 3.444)">
        <path id="Path_18304" data-name="Path 18304" d="M35.813,3.922l-.623.415c1.125.727,2.146.242,3.08-.381.554-.381,1.073-.623,1.471-.882l.623-.346a2.48,2.48,0,0,0-3.2.242l-1.332.969Z" transform="translate(-34.55 -1.822)" fill="#5da760"/>
        <path id="Path_18305" data-name="Path 18305" d="M36.62,5.2a2.394,2.394,0,0,1-1.35-.415l-.45-.329,1.073-.692,1.35-.969c1.332-.969,2.544-1.073,3.634-.242l.415.346-1.125.623a3.524,3.524,0,0,1-.45.242,6.193,6.193,0,0,0-1,.606,3.88,3.88,0,0,1-2.094.813Zm-.433-.779A2.547,2.547,0,0,0,38.333,3.8c.381-.277.727-.45,1.073-.675a4.41,4.41,0,0,0,.415-.242l.069-.035a2.229,2.229,0,0,0-2.267.554l-1.436,1Z" transform="translate(-34.82 -1.996)" fill="#5da760"/>
      </g>
      <g id="Group_37" data-name="Group 37" transform="translate(62.841 5.357)">
        <path id="Path_18306" data-name="Path 18306" d="M38.213,4.742l-.623.329c1.056.882,2.128.45,3.1-.069.606-.329,1.056-.5,1.471-.692l.727-.329a2.427,2.427,0,0,0-3.2-.069l-1.471.813Z" transform="translate(-36.932 -2.928)" fill="#5da760"/>
        <path id="Path_18307" data-name="Path 18307" d="M39.2,6.11A2.415,2.415,0,0,1,37.625,5.5l-.415-.346,1.125-.606L39.806,3.7c1.419-.848,2.647-.8,3.634.121l.381.381-1.246.519c-.121.069-.277.121-.45.208a4.719,4.719,0,0,0-.969.5,3.86,3.86,0,0,1-1.955.64Zm-.606-.8a2.516,2.516,0,0,0,2.2-.415c.415-.208.779-.381,1.056-.5a2.984,2.984,0,0,1,.415-.173l.173-.069a2.2,2.2,0,0,0-2.3.329L38.612,5.3Z" transform="translate(-37.21 -3.102)" fill="#5da760"/>
      </g>
      <g id="Group_38" data-name="Group 38" transform="translate(66.673 7.898)">
        <path id="Path_18308" data-name="Path 18308" d="M40.582,5.845l-.692.208c.969.969,2.059.692,3.1.242.623-.277,1.125-.45,1.575-.623l.727-.121a2.446,2.446,0,0,0-3.167-.415l-1.557.709Z" transform="translate(-39.181 -4.443)" fill="#5da760"/>
        <path id="Path_18309" data-name="Path 18309" d="M41.678,7.2A2.555,2.555,0,0,1,39.9,6.473l-.415-.415,1.246-.381,1.505-.692q2.258-1.038,3.634.519l.415.45-1.35.277c-.346.121-.8.329-1.505.606A5.336,5.336,0,0,1,41.678,7.2Zm-.727-.882A2.533,2.533,0,0,0,43.1,6.11c.692-.277,1.142-.5,1.575-.623h.069a2.3,2.3,0,0,0-2.232.1Z" transform="translate(-39.48 -4.57)" fill="#5da760"/>
      </g>
      <g id="Group_39" data-name="Group 39" transform="translate(66.708 7.863)">
        <path id="Path_18310" data-name="Path 18310" d="M40.6,5.793l-.727.277c.969.969,2.059.692,3.1.242.623-.277,1.125-.381,1.523-.554l.779-.208A2.446,2.446,0,0,0,42.1,5.135L40.6,5.81Z" transform="translate(-39.23 -4.408)" fill="#5da760"/>
        <path id="Path_18311" data-name="Path 18311" d="M41.663,7.215a2.555,2.555,0,0,1-1.782-.727L39.5,6.107l2.717-1.142c1.505-.692,2.717-.519,3.6.519L46.2,5.9l-1.3.381a2.371,2.371,0,0,1-.415.121,9.011,9.011,0,0,0-1.073.381,4.073,4.073,0,0,1-1.748.433Zm-.8-.9A2.581,2.581,0,0,0,43.1,6.142a10.685,10.685,0,0,1,1.142-.415,2.91,2.91,0,0,1,.415-.121l.173-.035a2.282,2.282,0,0,0-2.3.069l-1.661.692Z" transform="translate(-39.5 -4.55)" fill="#5da760"/>
      </g>
      <g id="Group_40" data-name="Group 40" transform="translate(70.425 10.622)">
        <path id="Path_18312" data-name="Path 18312" d="M42.777,7.077l-.727.242c.882,1.056,1.973.9,3.08.554a14.3,14.3,0,0,1,1.644-.381l.727-.121a2.438,2.438,0,0,0-3.149-.727l-1.575.45Z" transform="translate(-41.444 -5.977)" fill="#5da760"/>
        <path id="Path_18313" data-name="Path 18313" d="M44.019,8.646a2.432,2.432,0,0,1-1.973-.952L41.7,7.279,44.5,6.4a2.822,2.822,0,0,1,3.53.882l.329.45-1.3.277c-.121.035-.329.069-.5.1a5.779,5.779,0,0,0-1.073.277,5.942,5.942,0,0,1-1.471.242Zm-1-1a2.56,2.56,0,0,0,2.267.069c.45-.121.848-.208,1.177-.277.173-.035.329-.069.5-.1l.121-.035a2.364,2.364,0,0,0-2.353-.173L43,7.66Z" transform="translate(-41.7 -6.144)" fill="#5da760"/>
      </g>
      <g id="Group_41" data-name="Group 41" transform="translate(73.821 13.802)">
        <path id="Path_18314" data-name="Path 18314" d="M44.787,8.63l-.727.121c.779,1.142,1.9,1.073,2.994.882.675-.121,1.125-.121,1.609-.208l.848-.069a2.4,2.4,0,0,0-2.976-1.073Z" transform="translate(-43.454 -7.855)" fill="#5da760"/>
        <path id="Path_18315" data-name="Path 18315" d="M46.271,10.3a2.5,2.5,0,0,1-2.232-1.142l-.329-.45L46.634,8.1a2.79,2.79,0,0,1,3.357,1.246l.277.5-1.4.1a1.617,1.617,0,0,1-.415.035,8.167,8.167,0,0,0-1.125.173,5.36,5.36,0,0,1-1.073.121Zm-1.3-1.142a2.337,2.337,0,0,0,2.232.277c.45-.1.848-.121,1.177-.173.121,0,.277-.035.415-.035H49a2.151,2.151,0,0,0-2.232-.415l-1.817.346Z" transform="translate(-43.71 -7.982)" fill="#5da760"/>
      </g>
      <g id="Group_42" data-name="Group 42" transform="translate(76.982 16.715)">
        <path id="Path_18316" data-name="Path 18316" d="M46.726,10.369l-.8.069c.623,1.229,1.782,1.3,2.907,1.177a14.5,14.5,0,0,1,1.644-.069l.8.035a2.485,2.485,0,0,0-2.924-1.35l-1.609.121Z" transform="translate(-45.324 -9.772)" fill="#5da760"/>
        <path id="Path_18317" data-name="Path 18317" d="M48.4,12.169a2.639,2.639,0,0,1-2.578-1.4l-.242-.5L48.5,9.988a2.808,2.808,0,0,1,3.27,1.575l.242.519-1.4-.069h-.329a8.059,8.059,0,0,0-1.246.069,1.555,1.555,0,0,1-.64.087Zm-1.592-1.246a2.577,2.577,0,0,0,2.2.519c.519-.035.952-.069,1.332-.069h.5a2.245,2.245,0,0,0-2.232-.623l-1.782.173Z" transform="translate(-45.58 -9.945)" fill="#5da760"/>
      </g>
      <g id="Group_43" data-name="Group 43" transform="translate(79.824 20.338)">
        <path id="Path_18318" data-name="Path 18318" d="M49.975,12.34H47.57a2.615,2.615,0,0,0,2.751,1.471c.675,0,1.142.069,1.609.1l.8.1a2.519,2.519,0,0,0-2.751-1.678Z" transform="translate(-47.034 -11.925)" fill="#5da760"/>
        <path id="Path_18319" data-name="Path 18319" d="M53.472,14.574l-1.4-.173c-.1,0-.242-.035-.381-.035a10.649,10.649,0,0,0-1.142-.069,2.936,2.936,0,0,1-3.08-1.7l-.208-.5,2.924.035c1.644-.035,2.7.606,3.1,1.921Zm-5.053-1.73a2.413,2.413,0,0,0,2.128.727,11.56,11.56,0,0,1,1.229.069c.121,0,.277.035.415.035l.173.035a2.4,2.4,0,0,0-2.146-.882H48.437Z" transform="translate(-47.26 -12.1)" fill="#5da760"/>
      </g>
      <g id="Group_44" data-name="Group 44" transform="translate(82.312 23.898)">
        <path id="Path_18320" data-name="Path 18320" d="M49.981,14.606l1.471.121a2.524,2.524,0,0,1,2.578,1.921l-.8-.173c-.45-.069-.882-.173-1.575-.242a5.419,5.419,0,0,1-1.471-.381h0a2.341,2.341,0,0,1-1.229-1.4l1,.156Z" transform="translate(-48.562 -14.052)" fill="#5da760"/>
        <path id="Path_18321" data-name="Path 18321" d="M54.683,17.317l-1.7-.346c-.346-.069-.675-.121-1.142-.173a4.183,4.183,0,0,1-1.575-.415,2.576,2.576,0,0,1-1.419-1.644l-.121-.519,2.924.346A2.808,2.808,0,0,1,54.561,16.8l.121.5ZM50.6,15.743a4.756,4.756,0,0,0,1.3.329c.5.069.882.121,1.229.173l.554.1a2.217,2.217,0,0,0-2.059-1.073l-1.782-.208a1.923,1.923,0,0,0,.692.623l.086.069Z" transform="translate(-48.73 -14.22)" fill="#5da760"/>
      </g>
      <g id="Group_45" data-name="Group 45" transform="translate(78.881 72.988)">
        <path id="Path_18322" data-name="Path 18322" d="M48.324,46.221l-.45-1.644-.1-.727c-1.073.848-.969,1.973-.692,3.08.173.675.277,1.177.381,1.678l.035.779a2.67,2.67,0,0,0,.813-3.167Z" transform="translate(-46.494 -43.192)" fill="#5da760"/>
        <path id="Path_18323" data-name="Path 18323" d="M47.264,50.305l-.069-1.4c-.069-.415-.208-.952-.346-1.609-.277-1.177-.415-2.526.848-3.443l.5-.381.208,1.35.45,1.575c.45,1.609.1,2.8-1.056,3.547l-.536.363Zm.415-5.4a2.787,2.787,0,0,0-.1,2.232c.173.675.277,1.177.381,1.678v.069a2.433,2.433,0,0,0,.208-2.267l-.5-1.73Z" transform="translate(-46.662 -43.47)" fill="#5da760"/>
      </g>
      <g id="Group_46" data-name="Group 46" transform="translate(78.881 72.99)">
        <path id="Path_18324" data-name="Path 18324" d="M48.339,46.221l-.415-1.575-.173-.8c-1.073.848-.969,1.973-.692,3.08.173.675.173,1.125.277,1.609l.121.848a2.645,2.645,0,0,0,.865-3.167Z" transform="translate(-46.508 -43.192)" fill="#5da760"/>
        <path id="Path_18325" data-name="Path 18325" d="M47.333,50.236l-.208-1.4c-.035-.121-.035-.329-.069-.5a7.253,7.253,0,0,0-.208-1.073c-.277-1.177-.415-2.526.848-3.443l.45-.346.277,1.35.415,1.523c.45,1.609.1,2.8-1.056,3.53l-.433.346Zm.346-5.381a2.722,2.722,0,0,0-.121,2.267,11.041,11.041,0,0,1,.208,1.142c.035.173.035.329.069.45l.035.208a2.388,2.388,0,0,0,.277-2.353l-.467-1.73Z" transform="translate(-46.662 -43.47)" fill="#5da760"/>
      </g>
      <g id="Group_47" data-name="Group 47" transform="translate(75.843 75.963)">
        <path id="Path_18326" data-name="Path 18326" d="M46.51,48.257l-.329-1.678-.035-.779a2.677,2.677,0,0,0-1,2.994c.1.675.173,1.229.208,1.678l-.035.779a2.557,2.557,0,0,0,1.211-2.994Z" transform="translate(-44.717 -45.177)" fill="#5da760"/>
        <path id="Path_18327" data-name="Path 18327" d="M45.047,52.137l.1-1.4c-.035-.381-.1-.848-.208-1.609a3.032,3.032,0,0,1,1.177-3.357l.519-.329.069,1.35.329,1.609c.277,1.644-.173,2.8-1.4,3.426l-.588.294ZM46,46.842a2.84,2.84,0,0,0-.346,2.2c.1.779.173,1.3.208,1.7V50.8a2.341,2.341,0,0,0,.415-2.232Z" transform="translate(-44.864 -45.44)" fill="#5da760"/>
      </g>
      <g id="Group_48" data-name="Group 48" transform="translate(75.843 76.032)">
        <path id="Path_18328" data-name="Path 18328" d="M46.488,48.243l-.208-1.419-.1-1a2.677,2.677,0,0,0-1,2.994,12.242,12.242,0,0,1,.121,1.644l.035.848a2.655,2.655,0,0,0,1.159-3.028Z" transform="translate(-44.695 -45.232)" fill="#5da760"/>
        <path id="Path_18329" data-name="Path 18329" d="M45.116,52.107l-.035-1.4c0-.121-.035-.277-.035-.45-.035-.346-.035-.692-.1-1.142a3.032,3.032,0,0,1,1.177-3.357l.5-.277.173,1.575.208,1.4c.277,1.644-.173,2.8-1.4,3.426l-.467.242Zm.934-5.364a2.6,2.6,0,0,0-.381,2.232,9,9,0,0,1,.1,1.229,2.21,2.21,0,0,0,.035.45v.173a2.445,2.445,0,0,0,.5-2.3h0l-.26-1.782Z" transform="translate(-44.864 -45.48)" fill="#5da760"/>
      </g>
      <g id="Group_49" data-name="Group 49" transform="translate(72.336 79.146)">
        <path id="Path_18330" data-name="Path 18330" d="M44.511,50.047l-.069-1.575-.035-.882c-1.229.606-1.35,1.748-1.3,2.872.035.692-.035,1.177-.035,1.678l-.035.8a2.5,2.5,0,0,0,1.488-2.89Z" transform="translate(-42.607 -47.054)" fill="#5da760"/>
        <path id="Path_18331" data-name="Path 18331" d="M42.79,53.717l.069-1.35a2.713,2.713,0,0,1,.035-.5,6.264,6.264,0,0,0,0-1.142c-.035-1.229.1-2.544,1.505-3.2l.5-.242.121,2.976c.1,1.678-.45,2.751-1.7,3.253Zm1.471-5.226a2.581,2.581,0,0,0-.623,2.2c.035.5,0,.882,0,1.229a1.759,1.759,0,0,1-.035.45v.173a2.471,2.471,0,0,0,.727-2.232h0Z" transform="translate(-42.79 -47.28)" fill="#5da760"/>
      </g>
      <g id="Group_50" data-name="Group 50" transform="translate(68.27 81.915)">
        <path id="Path_18332" data-name="Path 18332" d="M42.48,49.917l.1-.727c-1.246.45-1.505,1.609-1.575,2.717-.035.692-.069,1.229-.121,1.7l-.208.727a2.57,2.57,0,0,0,1.782-2.717v-1.7Z" transform="translate(-40.178 -48.654)" fill="#5da760"/>
        <path id="Path_18333" data-name="Path 18333" d="M40.39,55.109l.346-1.35c.035-.346.069-.848.1-1.644.069-1.229.346-2.526,1.817-3.028l.554-.208L43,50.212l-.035,1.678c-.035,1.678-.727,2.717-2.025,3.08l-.536.156Zm1.955-5.035a2.944,2.944,0,0,0-.779,2.094c-.035.606-.069,1.177-.121,1.7v.069a2.469,2.469,0,0,0,.882-2.094V50.074Z" transform="translate(-40.39 -48.88)" fill="#5da760"/>
      </g>
      <g id="Group_51" data-name="Group 51" transform="translate(68.338 81.915)">
        <path id="Path_18334" data-name="Path 18334" d="M42.495,50.3l.1-1.125c-1.246.45-1.505,1.609-1.575,2.717-.035.692-.1,1.177-.173,1.678l-.121.8a2.57,2.57,0,0,0,1.782-2.717V50.3Z" transform="translate(-40.211 -48.661)" fill="#5da760"/>
        <path id="Path_18335" data-name="Path 18335" d="M40.43,55.075l.329-1.748c.035-.381.1-.779.121-1.246.069-1.229.346-2.526,1.817-3.028l.519-.173-.121,1.678-.035,1.332c-.035,1.678-.727,2.7-2.025,3.08l-.588.1Zm1.955-5.018a2.488,2.488,0,0,0-.8,2.128c-.035.519-.069.952-.121,1.3L41.4,54a2.434,2.434,0,0,0,.952-2.128Z" transform="translate(-40.43 -48.88)" fill="#5da760"/>
      </g>
      <g id="Group_52" data-name="Group 52" transform="translate(64.034 84.355)">
        <path id="Path_18336" data-name="Path 18336" d="M40.474,51.277l.173-.727c-1.332.329-1.678,1.419-1.852,2.544a16.059,16.059,0,0,1-.329,1.678l-.277.727a2.543,2.543,0,0,0,2.025-2.544Z" transform="translate(-37.671 -50.1)" fill="#5da760"/>
        <path id="Path_18337" data-name="Path 18337" d="M37.89,56.173l.5-1.332c.069-.415.173-.952.277-1.609.173-1.177.606-2.474,2.128-2.821l.606-.121-.329,1.3-.208,1.678c-.208,1.678-.969,2.63-2.353,2.872l-.623.069Zm2.457-4.828a2.633,2.633,0,0,0-.952,1.973c-.1.675-.208,1.229-.329,1.7l-.035.069A2.384,2.384,0,0,0,40.1,53.111Z" transform="translate(-37.89 -50.29)" fill="#5da760"/>
      </g>
      <g id="Group_53" data-name="Group 53" transform="translate(64.12 84.32)">
        <path id="Path_18338" data-name="Path 18338" d="M40.452,51.47l.173-.9c-1.332.329-1.678,1.419-1.852,2.544-.1.675-.277,1.229-.346,1.678l-.208.727a2.543,2.543,0,0,0,2.025-2.544l.208-1.505Z" transform="translate(-37.735 -50.051)" fill="#5da760"/>
        <path id="Path_18339" data-name="Path 18339" d="M37.94,56.153l.346-1.3c.035-.1.069-.277.1-.415.069-.346.173-.727.242-1.229.173-1.177.606-2.474,2.128-2.821l.554-.121-.277,1.471-.208,1.505c-.208,1.644-.969,2.63-2.353,2.821l-.536.087Zm2.44-4.793a2.532,2.532,0,0,0-1,2.025,7.991,7.991,0,0,1-.277,1.246c-.035.121-.069.277-.1.415l-.035.1A2.425,2.425,0,0,0,40.1,53.125L40.4,51.36Z" transform="translate(-37.94 -50.27)" fill="#5da760"/>
      </g>
      <g id="Group_54" data-name="Group 54" transform="translate(59.632 86.31)">
        <path id="Path_18340" data-name="Path 18340" d="M37.911,54.056l.346-1.644.242-.692c-1.332.173-1.817,1.246-2.094,2.353-.173.675-.329,1.177-.45,1.644l-.346.692a2.608,2.608,0,0,0,2.3-2.353Z" transform="translate(-35.056 -51.201)" fill="#5da760"/>
        <path id="Path_18341" data-name="Path 18341" d="M35.29,56.94l.623-1.246c.1-.381.242-.882.45-1.575.329-1.142.848-2.405,2.371-2.63l.606-.069-.45,1.246-.346,1.609c-.381,1.644-1.246,2.526-2.63,2.578l-.623.069Zm2.907-4.5a2.741,2.741,0,0,0-1.142,1.9,14.611,14.611,0,0,1-.5,1.678l-.035.069a2.354,2.354,0,0,0,1.246-1.9l.433-1.748Z" transform="translate(-35.29 -51.42)" fill="#5da760"/>
      </g>
      <g id="Group_55" data-name="Group 55" transform="translate(59.65 86.327)">
        <path id="Path_18342" data-name="Path 18342" d="M37.9,54.078l.381-1.505.242-.882c-1.332.173-1.817,1.246-2.094,2.353-.173.675-.381,1.142-.519,1.609l-.277.692c1.471-.069,2.025-1.177,2.267-2.267Z" transform="translate(-35.059 -51.24)" fill="#5da760"/>
        <path id="Path_18343" data-name="Path 18343" d="M35.317,56.933l.5-1.246a1.72,1.72,0,0,0,.121-.415c.1-.346.242-.727.381-1.142.329-1.142.848-2.405,2.371-2.63l.554-.069L38.467,54.3c-.381,1.644-1.246,2.526-2.63,2.578l-.536.035Zm2.924-4.516a2.7,2.7,0,0,0-1.229,1.921c-.121.5-.277.882-.381,1.229a2.908,2.908,0,0,0-.121.415l-.035.1a2.349,2.349,0,0,0,1.35-1.921h0l.433-1.748Z" transform="translate(-35.3 -51.43)" fill="#5da760"/>
      </g>
      <g id="Group_56" data-name="Group 56" transform="translate(55.079 87.937)">
        <path id="Path_18344" data-name="Path 18344" d="M35.452,54.874l.519-1.609.329-.675c-1.35.035-1.921,1.056-2.3,2.128-.242.623-.415,1.142-.623,1.575l-.415.675a2.638,2.638,0,0,0,2.492-2.094Z" transform="translate(-32.337 -52.192)" fill="#5da760"/>
        <path id="Path_18345" data-name="Path 18345" d="M33.344,57.465h-.121L32.6,57.43l.727-1.177c.173-.381.346-.883.606-1.505.415-1.125,1.073-2.3,2.647-2.353l.606-.035-.606,1.229-.519,1.575c-.519,1.557-1.419,2.319-2.717,2.319Zm2.613-4.239c-.675.242-1,.9-1.332,1.748-.242.623-.45,1.142-.623,1.609l-.035.069A2.453,2.453,0,0,0,35.438,54.9l.536-1.678Z" transform="translate(-32.6 -52.36)" fill="#5da760"/>
      </g>
      <g id="Group_57" data-name="Group 57" transform="translate(55.148 87.954)">
        <path id="Path_18346" data-name="Path 18346" d="M35.437,54.867l.554-1.419.329-.848c-1.35.035-1.921,1.056-2.3,2.128-.242.623-.5,1.125-.692,1.523l-.346.692a2.63,2.63,0,0,0,2.457-2.094Z" transform="translate(-32.392 -52.202)" fill="#5da760"/>
        <path id="Path_18347" data-name="Path 18347" d="M33.315,57.457h-.121l-.554-.035.623-1.177a2.509,2.509,0,0,0,.173-.415c.121-.329.329-.675.5-1.073.415-1.125,1.073-2.3,2.647-2.353l.519-.035-1.056,2.8c-.519,1.523-1.419,2.3-2.717,2.3ZM35.98,53.2c-.692.242-1.073.9-1.419,1.782a11,11,0,0,1-.5,1.142,2.983,2.983,0,0,0-.173.415l-.069.121c.692-.173,1.177-.779,1.523-1.748l.623-1.73Z" transform="translate(-32.64 -52.37)" fill="#5da760"/>
      </g>
      <g id="Group_58" data-name="Group 58" transform="translate(50.426 89.126)">
        <path id="Path_18348" data-name="Path 18348" d="M32.954,55.379l.692-1.523.381-.623c-1.332-.1-2.025.848-2.526,1.851-.329.623-.554,1.073-.779,1.505l-.5.606c1.436.208,2.215-.8,2.717-1.817Z" transform="translate(-29.58 -52.917)" fill="#5da760"/>
        <path id="Path_18349" data-name="Path 18349" d="M30.888,57.707a1.756,1.756,0,0,1-.415-.035L29.85,57.6l.882-1.073c.173-.329.415-.779.727-1.419a3.033,3.033,0,0,1,2.872-2.059l.606.035-.692,1.142-.675,1.505a3.009,3.009,0,0,1-2.7,1.973Zm2.734-3.945a2.677,2.677,0,0,0-1.505,1.609c-.346.692-.554,1.142-.8,1.523l-.035.069c.675-.121,1.177-.675,1.609-1.575l.727-1.644Z" transform="translate(-29.85 -53.047)" fill="#5da760"/>
      </g>
      <g id="Group_59" data-name="Group 59" transform="translate(50.495 89.057)">
        <path id="Path_18350" data-name="Path 18350" d="M32.954,55.394l.675-1.4.381-.779c-1.332-.1-2.025.848-2.526,1.852-.329.623-.606,1.073-.848,1.471l-.415.623c1.436.26,2.215-.761,2.717-1.765Z" transform="translate(-29.649 -52.863)" fill="#5da760"/>
        <path id="Path_18351" data-name="Path 18351" d="M30.859,57.736a1.756,1.756,0,0,1-.415-.035l-.554-.069.727-1.125a2.671,2.671,0,0,1,.242-.381c.173-.329.381-.623.606-1.056a3.033,3.033,0,0,1,2.872-2.059l.554.035-1.332,2.665C32.884,57.044,32.036,57.736,30.859,57.736Zm2.8-3.98c-.692.173-1.142.779-1.575,1.609a7.354,7.354,0,0,1-.623,1.073c-.069.121-.173.277-.242.381l-.069.1c.692-.1,1.246-.623,1.7-1.609h0l.8-1.575Z" transform="translate(-29.89 -53.007)" fill="#5da760"/>
      </g>
      <g id="Group_60" data-name="Group 60" transform="translate(45.827 89.691)">
        <path id="Path_18352" data-name="Path 18352" d="M30.352,55.664l.883-1.4.415-.675c-1.332-.242-2.094.623-2.7,1.609A11.9,11.9,0,0,1,28,56.529l-.519.623a2.485,2.485,0,0,0,2.872-1.505Z" transform="translate(-26.874 -53.248)" fill="#5da760"/>
        <path id="Path_18353" data-name="Path 18353" d="M28.376,57.762a2.585,2.585,0,0,1-.692-.1l-.554-.121.882-1.073a2.425,2.425,0,0,1,.277-.346c.208-.277.415-.554.675-.952.606-.969,1.505-2.025,3.028-1.748l.519.1-.727,1.125-.848,1.4a3.073,3.073,0,0,1-2.561,1.73Zm2.872-3.668c-.727.1-1.229.675-1.748,1.471-.242.415-.5.727-.692,1-.1.121-.173.242-.277.346l-.1.121a2.333,2.333,0,0,0,1.852-1.4l.969-1.557Z" transform="translate(-27.13 -53.374)" fill="#5da760"/>
      </g>
      <g id="Group_61" data-name="Group 61" transform="translate(41.059 89.87)">
        <path id="Path_18354" data-name="Path 18354" d="M27.714,55.659l.969-1.35.519-.554c-1.3-.346-2.128.415-2.821,1.332-.415.519-.727.969-1.056,1.332l-.606.5a2.581,2.581,0,0,0,2.994-1.246Z" transform="translate(-24.011 -53.336)" fill="#5da760"/>
        <path id="Path_18355" data-name="Path 18355" d="M25.867,57.549a3.072,3.072,0,0,1-.952-.173l-.606-.208,1.056-.9c.277-.329.606-.727,1-1.246.692-.9,1.678-1.9,3.2-1.419l.554.173-.9.969-.952,1.332a3.086,3.086,0,0,1-2.44,1.488Zm-.035-.727a2.363,2.363,0,0,0,1.9-1.229l1.056-1.419a2.61,2.61,0,0,0-1.782,1.246c-.415.519-.779.969-1.073,1.332l-.087.069Z" transform="translate(-24.31 -53.477)" fill="#5da760"/>
      </g>
      <g id="Group_62" data-name="Group 62" transform="translate(41.144 89.87)">
        <path id="Path_18356" data-name="Path 18356" d="M27.7,55.667l.952-1.229.554-.692c-1.3-.346-2.128.415-2.821,1.332-.415.519-.8.9-1.125,1.3l-.519.519a2.5,2.5,0,0,0,2.942-1.229Z" transform="translate(-24.082 -53.343)" fill="#5da760"/>
        <path id="Path_18357" data-name="Path 18357" d="M25.831,57.549a3.072,3.072,0,0,1-.952-.173L24.36,57.2l.9-.952a1.461,1.461,0,0,1,.329-.329,11.182,11.182,0,0,0,.8-.9c.692-.9,1.678-1.9,3.2-1.419l.519.121-1.817,2.353a3.328,3.328,0,0,1-2.474,1.471Zm-.1-.727A2.286,2.286,0,0,0,27.7,55.593h0l1.125-1.419a2.773,2.773,0,0,0-1.9,1.246c-.277.381-.606.692-.848.969l-.329.329-.035.1Z" transform="translate(-24.36 -53.477)" fill="#5da760"/>
      </g>
      <g id="Group_63" data-name="Group 63" transform="translate(36.477 89.488)">
        <path id="Path_18358" data-name="Path 18358" d="M25.075,55.378,26.2,54.133l.554-.5c-1.246-.5-2.146.208-2.924,1-.45.5-.848.882-1.177,1.229l-.623.415c1.3.64,2.319-.069,3.063-.9Z" transform="translate(-21.286 -53.106)" fill="#5da760"/>
        <path id="Path_18359" data-name="Path 18359" d="M23.3,57.052a2.7,2.7,0,0,1-1.142-.277L21.6,56.5l1.142-.8c.329-.329.727-.727,1.125-1.142a2.965,2.965,0,0,1,3.357-1.125l.554.208-1,.882L25.7,55.754a3.254,3.254,0,0,1-2.388,1.3Zm-.173-.727a2.416,2.416,0,0,0,2.025-1l1.177-1.332A2.628,2.628,0,0,0,24.4,55.062c-.381.415-.8.882-1.177,1.229l-.1.035Z" transform="translate(-21.6 -53.257)" fill="#5da760"/>
      </g>
      <g id="Group_64" data-name="Group 64" transform="translate(36.528 89.436)">
        <path id="Path_18360" data-name="Path 18360" d="M25.075,55.378l1.073-1.142.606-.606c-1.246-.5-2.146.208-2.924,1a11.391,11.391,0,0,1-1.246,1.142l-.554.5c1.3.64,2.319-.069,3.063-.9Z" transform="translate(-21.338 -53.054)" fill="#5da760"/>
        <path id="Path_18361" data-name="Path 18361" d="M23.274,57.074a2.7,2.7,0,0,1-1.142-.277l-.5-.242,1-.848c.1-.1.208-.208.346-.329.277-.242.554-.5.882-.848a2.965,2.965,0,0,1,3.357-1.125l.519.208-1,.969-1.056,1.142a3.282,3.282,0,0,1-2.405,1.315ZM23,56.347a2.336,2.336,0,0,0,2.094-1h0l1.229-1.332a2.428,2.428,0,0,0-1.955,1.073c-.329.346-.623.623-.9.882-.1.1-.242.208-.346.329l-.1.069Z" transform="translate(-21.63 -53.227)" fill="#5da760"/>
      </g>
      <g id="Group_65" data-name="Group 65" transform="translate(31.982 88.65)">
        <path id="Path_18362" data-name="Path 18362" d="M23.725,53.686l.606-.415c-1.177-.623-2.146-.035-3.028.692A16.686,16.686,0,0,1,20,55.036l-.675.381a2.451,2.451,0,0,0,3.167-.606l1.229-1.142Z" transform="translate(-18.655 -52.6)" fill="#5da760"/>
        <path id="Path_18363" data-name="Path 18363" d="M20.809,56.316a2.412,2.412,0,0,1-1.35-.415l-.519-.329,1.229-.675c.277-.242.675-.554,1.229-1.056.882-.727,2.025-1.505,3.426-.779l.519.277-1.073.779-1.229,1.125A3.373,3.373,0,0,1,20.826,56.3Zm-.381-.779a2.383,2.383,0,0,0,2.094-.8l1.3-1.177a2.6,2.6,0,0,0-2.025.882,9.948,9.948,0,0,1-1.332,1.073h-.017Z" transform="translate(-18.94 -52.772)" fill="#5da760"/>
      </g>
      <g id="Group_66" data-name="Group 66" transform="translate(31.999 88.736)">
        <path id="Path_18364" data-name="Path 18364" d="M23.681,53.815l.675-.554c-1.177-.623-2.146-.035-3.028.692-.519.45-.952.727-1.332,1l-.675.415a2.451,2.451,0,0,0,3.167-.606l1.211-.952Z" transform="translate(-18.68 -52.693)" fill="#5da760"/>
        <path id="Path_18365" data-name="Path 18365" d="M20.8,56.279a2.412,2.412,0,0,1-1.35-.415l-.5-.277,1.125-.727a2.992,2.992,0,0,1,.346-.242,11.747,11.747,0,0,0,.952-.727c.882-.727,2.025-1.505,3.426-.779l.5.242-1.073.882-1.177,1.056a3.609,3.609,0,0,1-2.215.986Zm-.45-.779a2.267,2.267,0,0,0,2.146-.779l1.35-1.177a2.481,2.481,0,0,0-2.059.882c-.381.329-.692.554-.969.779-.1.069-.242.173-.346.242l-.121.069Z" transform="translate(-18.95 -52.822)" fill="#5da760"/>
      </g>
      <g id="Group_67" data-name="Group 67" transform="translate(27.555 87.494)">
        <path id="Path_18366" data-name="Path 18366" d="M21.269,53l.675-.346c-1.125-.727-2.146-.242-3.08.381-.554.381-1,.692-1.4.952l-.692.329a2.48,2.48,0,0,0,3.2-.242Z" transform="translate(-15.991 -51.969)" fill="#5da760"/>
        <path id="Path_18367" data-name="Path 18367" d="M18.4,55.264a2.535,2.535,0,0,1-1.575-.554l-.5-.381,1.3-.519c.381-.242.882-.554,1.332-.9.952-.623,2.146-1.246,3.5-.381l.5.329-1.142.623-1.332,1a3.556,3.556,0,0,1-2.059.8Zm-.519-.848a2.238,2.238,0,0,0,2.146-.606l1.4-1.056a2.5,2.5,0,0,0-2.094.675c-.5.329-.969.675-1.419.952Z" transform="translate(-16.32 -52.104)" fill="#5da760"/>
      </g>
      <g id="Group_68" data-name="Group 68" transform="translate(27.606 87.494)">
        <path id="Path_18368" data-name="Path 18368" d="M21.274,53.079l.675-.415c-1.125-.727-2.146-.242-3.08.381-.554.381-.969.623-1.4.882l-.727.381a2.48,2.48,0,0,0,3.2-.242l1.332-1Z" transform="translate(-16.065 -51.961)" fill="#5da760"/>
        <path id="Path_18369" data-name="Path 18369" d="M18.375,55.264A2.535,2.535,0,0,1,16.8,54.71l-.45-.346,1.229-.623c.1-.069.208-.121.346-.208a7.624,7.624,0,0,0,1-.623c.952-.623,2.146-1.246,3.5-.381l.45.329-1.125.727-1.3.952a3.987,3.987,0,0,1-2.094.761Zm-.588-.848a2.322,2.322,0,0,0,2.232-.554l1.471-1.056a2.5,2.5,0,0,0-2.128.623c-.415.277-.779.5-1.056.675a3.663,3.663,0,0,0-.346.208Z" transform="translate(-16.35 -52.104)" fill="#5da760"/>
      </g>
      <g id="Group_69" data-name="Group 69" transform="translate(23.416 85.703)">
        <path id="Path_18370" data-name="Path 18370" d="M18.925,52.071l.675-.277c-1.056-.882-2.128-.45-3.1.069A14.231,14.231,0,0,1,15,52.642l-.727.208a2.427,2.427,0,0,0,3.2.069l1.471-.848Z" transform="translate(-13.578 -50.91)" fill="#5da760"/>
        <path id="Path_18371" data-name="Path 18371" d="M16.068,54.029A2.539,2.539,0,0,1,14.32,53.3l-.45-.415,1.332-.415c.346-.173.8-.415,1.419-.779a2.922,2.922,0,0,1,3.53-.035l.45.381-1.177.519-1.4.882A4.47,4.47,0,0,1,16.068,54.029Zm-.692-.882a2.386,2.386,0,0,0,2.232-.346l1.505-.9a2.609,2.609,0,0,0-2.128.415c-.623.346-1.073.606-1.505.8Z" transform="translate(-13.87 -51.069)" fill="#5da760"/>
      </g>
      <g id="Group_70" data-name="Group 70" transform="translate(23.45 85.703)">
        <path id="Path_18372" data-name="Path 18372" d="M18.91,52.13l.675-.346c-1.056-.882-2.128-.45-3.1.069-.606.329-1.073.519-1.505.727l-.692.277a2.427,2.427,0,0,0,3.2.069Z" transform="translate(-13.598 -50.918)" fill="#5da760"/>
        <path id="Path_18373" data-name="Path 18373" d="M16.053,54.029a2.539,2.539,0,0,1-1.748-.727l-.415-.381,1.229-.5a1.617,1.617,0,0,0,.346-.173,11.01,11.01,0,0,0,1.125-.554,2.922,2.922,0,0,1,3.53-.035l.415.346-1.142.606-1.419.8a3.616,3.616,0,0,1-1.921.64Zm-.779-.9a2.326,2.326,0,0,0,2.3-.329l1.575-.882a2.516,2.516,0,0,0-2.2.415,8.468,8.468,0,0,1-1.142.554c-.121.069-.242.1-.381.173l-.156.069Z" transform="translate(-13.89 -51.069)" fill="#5da760"/>
      </g>
      <g id="Group_71" data-name="Group 71" transform="translate(19.463 83.548)">
        <path id="Path_18374" data-name="Path 18374" d="M16.647,50.9l.692-.208c-.969-.969-2.059-.692-3.1-.242-.623.277-1.125.45-1.575.623l-.727.121a2.446,2.446,0,0,0,3.167.415l1.557-.709Z" transform="translate(-11.231 -49.664)" fill="#5da760"/>
        <path id="Path_18375" data-name="Path 18375" d="M13.9,52.534a2.516,2.516,0,0,1-1.955-.952l-.415-.45,1.35-.277c.346-.121.779-.329,1.505-.606,1.056-.45,2.371-.8,3.5.329l.415.415-1.246.381-1.505.692a3.188,3.188,0,0,1-1.644.467Zm-.865-.969a2.3,2.3,0,0,0,2.232-.1l1.575-.727a2.533,2.533,0,0,0-2.146.208,11.01,11.01,0,0,1-1.575.623Z" transform="translate(-11.53 -49.824)" fill="#5da760"/>
      </g>
      <g id="Group_72" data-name="Group 72" transform="translate(19.531 83.531)">
        <path id="Path_18376" data-name="Path 18376" d="M16.627,50.963l.692-.277c-.969-.969-2.059-.692-3.1-.242-.623.277-1.229.415-1.678.606l-.623.208a2.446,2.446,0,0,0,3.167.415l1.557-.709Z" transform="translate(-11.314 -49.654)" fill="#5da760"/>
        <path id="Path_18377" data-name="Path 18377" d="M13.871,52.541a2.516,2.516,0,0,1-1.955-.952l-.346-.415,1.142-.346c.121-.035.329-.1.5-.173a11.863,11.863,0,0,0,1.142-.415c1.056-.45,2.371-.8,3.5.329l.381.381L17,51.4l-1.505.675a3.164,3.164,0,0,1-1.609.45Zm-.969-1a2.292,2.292,0,0,0,2.353-.069l1.644-.727a2.588,2.588,0,0,0-2.232.173,7.913,7.913,0,0,1-1.229.415c-.173.069-.346.1-.5.173v.035Z" transform="translate(-11.57 -49.814)" fill="#5da760"/>
      </g>
      <g id="Group_73" data-name="Group 73" transform="translate(16.236 80.965)">
        <path id="Path_18378" data-name="Path 18378" d="M14.481,49.484l.727-.121c-.882-1.056-1.973-.9-3.08-.554a15.937,15.937,0,0,1-1.609.45l-.779.069a2.438,2.438,0,0,0,3.149.727l1.592-.554Z" transform="translate(-9.134 -48.171)" fill="#5da760"/>
        <path id="Path_18379" data-name="Path 18379" d="M11.864,50.821a2.445,2.445,0,0,1-2.128-1.142L9.39,49.16l1.4-.121c.381-.1.882-.242,1.523-.45,1.073-.329,2.44-.554,3.443.692l.381.45-1.3.277-1.523.554a4.979,4.979,0,0,1-1.471.26Zm-1.073-1.073a2.26,2.26,0,0,0,2.232.1l1.644-.606a2.554,2.554,0,0,0-2.2,0c-.675.208-1.177.346-1.644.45l-.035.035Z" transform="translate(-9.39 -48.331)" fill="#5da760"/>
      </g>
      <g id="Group_74" data-name="Group 74" transform="translate(16.236 80.948)">
        <path id="Path_18380" data-name="Path 18380" d="M14.5,49.571l.692-.208c-.882-1.056-1.973-.9-3.08-.554-.623.208-1.142.277-1.609.415l-.779.121a2.438,2.438,0,0,0,3.149.727l1.644-.5Z" transform="translate(-9.149 -48.154)" fill="#5da760"/>
        <path id="Path_18381" data-name="Path 18381" d="M11.864,50.828a2.494,2.494,0,0,1-2.146-1.142l-.329-.45,1.678-.329a12.329,12.329,0,0,0,1.229-.329c1.073-.329,2.44-.554,3.443.692l.346.415-1.229.346-1.575.519a4.183,4.183,0,0,1-1.419.277Zm-1.142-1.09a2.324,2.324,0,0,0,2.3.173l1.7-.554a2.448,2.448,0,0,0-2.232-.035c-.5.121-.9.242-1.246.329l-.519.1Z" transform="translate(-9.39 -48.321)" fill="#5da760"/>
      </g>
      <g id="Group_75" data-name="Group 75" transform="translate(12.758 78.068)">
        <path id="Path_18382" data-name="Path 18382" d="M12.419,47.878l.727-.069c-.779-1.142-1.9-1.073-2.994-.882-.675.121-1.177.242-1.644.329H7.73a2.438,2.438,0,0,0,3.028,1.056l1.644-.433Z" transform="translate(-7.124 -46.54)" fill="#5da760"/>
        <path id="Path_18383" data-name="Path 18383" d="M10.079,48.929a2.565,2.565,0,0,1-2.371-1.35l-.329-.554,1.4.035c.45-.069,1-.173,1.575-.277,1.125-.208,2.474-.329,3.357,1.056l.329.5-1.3.121-1.609.381C10.754,48.842,10.408,48.929,10.079,48.929ZM8.764,47.718A2.452,2.452,0,0,0,11,48.064l1.7-.415a2.618,2.618,0,0,0-2.146-.242c-.554.1-1.142.242-1.678.329h-.1Z" transform="translate(-7.38 -46.657)" fill="#5da760"/>
      </g>
      <g id="Group_76" data-name="Group 76" transform="translate(12.81 78.051)">
        <path id="Path_18384" data-name="Path 18384" d="M12.326,47.982l.848-.173c-.779-1.142-1.9-1.073-2.994-.882-.675.121-1.142.173-1.644.242l-.8.069a2.438,2.438,0,0,0,3.028,1.056L12.326,48Z" transform="translate(-7.169 -46.523)" fill="#5da760"/>
        <path id="Path_18385" data-name="Path 18385" d="M10.057,48.936a2.565,2.565,0,0,1-2.371-1.35l-.277-.5,1.35-.1a1.617,1.617,0,0,1,.415-.035,8.376,8.376,0,0,0,1.142-.173c1.125-.208,2.474-.329,3.357,1.056l.277.45-2.907.554c-.329.017-.675.1-.986.1ZM8.673,47.673a2.242,2.242,0,0,0,2.267.381l1.748-.346a2.337,2.337,0,0,0-2.232-.277c-.5.1-.882.121-1.229.173-.121,0-.277.035-.415.035H8.69Z" transform="translate(-7.41 -46.647)" fill="#5da760"/>
      </g>
      <g id="Group_77" data-name="Group 77" transform="translate(9.747 75.183)">
        <path id="Path_18386" data-name="Path 18386" d="M10.567,46.114h.727c-.623-1.229-1.782-1.3-2.907-1.177-.675.069-1.177.1-1.678.121l-.779-.1A2.485,2.485,0,0,0,8.854,46.3l1.7-.19Z" transform="translate(-5.428 -44.574)" fill="#5da760"/>
        <path id="Path_18387" data-name="Path 18387" d="M8.512,46.873a2.638,2.638,0,0,1-2.63-1.609L5.64,44.71l1.4.173c.45-.035,1.056-.069,1.609-.121a3.02,3.02,0,0,1,3.253,1.35l.277.519H10.848L9.2,46.838c-.294,0-.519.035-.709.035ZM6.9,45.558a2.255,2.255,0,0,0,2.146.554l1.7-.242a2.474,2.474,0,0,0-2.128-.45c-.554.069-1.177.1-1.7.121H6.9Z" transform="translate(-5.64 -44.71)" fill="#5da760"/>
      </g>
      <g id="Group_78" data-name="Group 78" transform="translate(9.747 75.151)">
        <path id="Path_18388" data-name="Path 18388" d="M10.456,46.174,11.3,46.1c-.623-1.229-1.782-1.3-2.907-1.177A15.084,15.084,0,0,1,6.719,45l-.779-.035a2.485,2.485,0,0,0,2.924,1.35l1.592-.121Z" transform="translate(-5.421 -44.549)" fill="#5da760"/>
        <path id="Path_18389" data-name="Path 18389" d="M8.512,46.887a2.663,2.663,0,0,1-2.63-1.644l-.242-.519,1.35.069h.277c.381,0,.8-.035,1.332-.069a3.02,3.02,0,0,1,3.253,1.35l.242.5-1.35.1-1.575.173c-.26-.017-.467.017-.675.017Zm-1.661-1.4a2.325,2.325,0,0,0,2.2.623l1.782-.173a2.577,2.577,0,0,0-2.2-.519,9.765,9.765,0,0,1-1.35.069H6.851Z" transform="translate(-5.64 -44.691)" fill="#5da760"/>
      </g>
      <g id="Group_79" data-name="Group 79" transform="translate(7.065 71.222)">
        <path id="Path_18390" data-name="Path 18390" d="M7.141,44.3l1.678-.069.727.069A2.615,2.615,0,0,0,6.8,42.828c-.675,0-1.229,0-1.678-.035L4.39,42.62A2.48,2.48,0,0,0,7.141,44.3Z" transform="translate(-3.871 -42.17)" fill="#5da760"/>
        <path id="Path_18391" data-name="Path 18391" d="M10.337,44.938,9,44.817,7.4,44.886c-1.644.035-2.7-.606-3.1-1.921L4.09,42.36l1.35.329c.381.035.882.035,1.609.035a2.946,2.946,0,0,1,3.08,1.678Zm-5.1-1.609a2.389,2.389,0,0,0,2.094.8L9,44.056h.069a2.628,2.628,0,0,0-2.094-.675c-.727,0-1.229,0-1.7-.035H5.249Z" transform="translate(-4.09 -42.36)" fill="#5da760"/>
      </g>
      <g id="Group_80" data-name="Group 80" transform="translate(7.048 71.24)">
        <path id="Path_18392" data-name="Path 18392" d="M7.141,44.284H8.751l.8.035A2.615,2.615,0,0,0,6.8,42.848c-.675,0-1.229-.069-1.678-.1l-.727-.1a2.491,2.491,0,0,0,2.751,1.644Z" transform="translate(-3.854 -42.173)" fill="#5da760"/>
        <path id="Path_18393" data-name="Path 18393" d="M10.292,44.879,8.96,44.844H7.35c-1.644.035-2.7-.606-3.1-1.921L4.08,42.37l1.644.242c.381.035.8.069,1.3.069A2.946,2.946,0,0,1,10.1,44.36l.208.536Zm-1.315-.761H9.15a2.413,2.413,0,0,0-2.128-.727c-.519,0-.969-.035-1.35-.069l-.45-.035a2.286,2.286,0,0,0,2.128.848H8.994Z" transform="translate(-4.08 -42.37)" fill="#5da760"/>
      </g>
      <g id="Group_81" data-name="Group 81" transform="translate(4.746 67.004)">
        <path id="Path_18394" data-name="Path 18394" d="M7.3,42.246l.727.121c-.381-1.332-1.505-1.609-2.578-1.748-.675-.069-1.177-.121-1.678-.208L3.04,40.17a2.486,2.486,0,0,0,2.578,1.921Z" transform="translate(-2.538 -39.634)" fill="#5da760"/>
        <path id="Path_18395" data-name="Path 18395" d="M8.737,43.1l-1.3-.277-1.644-.1a2.841,2.841,0,0,1-2.924-2.232L2.75,39.86l1.332.45c.45.069,1,.121,1.575.208A2.972,2.972,0,0,1,8.564,42.49l.173.606ZM3.857,41a2.38,2.38,0,0,0,2.025,1l1.748.121a2.506,2.506,0,0,0-1.973-.882c-.554-.069-1.142-.121-1.678-.208L3.875,41Z" transform="translate(-2.75 -39.86)" fill="#5da760"/>
      </g>
      <g id="Group_82" data-name="Group 82" transform="translate(4.781 67.125)">
        <path id="Path_18396" data-name="Path 18396" d="M7.2,42.264l.8.1C7.62,41.035,6.5,40.758,5.423,40.62a14.666,14.666,0,0,1-1.644-.277L3,40.17a2.486,2.486,0,0,0,2.578,1.921l1.609.173Z" transform="translate(-2.602 -39.755)" fill="#5da760"/>
        <path id="Path_18397" data-name="Path 18397" d="M8.723,43.01l-1.35-.173L5.8,42.716a2.808,2.808,0,0,1-2.907-2.232L2.77,39.93l1.678.381c.346.069.779.121,1.229.208a2.972,2.972,0,0,1,2.907,1.973l.156.519ZM3.791,40.882A2.348,2.348,0,0,0,5.85,41.937l1.782.173a2.583,2.583,0,0,0-2.025-.952,12.848,12.848,0,0,1-1.3-.208l-.536-.069Z" transform="translate(-2.77 -39.93)" fill="#5da760"/>
      </g>
      <g id="Group_83" data-name="Group 83" transform="translate(2.947 62.639)">
        <path id="Path_18398" data-name="Path 18398" d="M5.969,40.084l.692.208a2.532,2.532,0,0,0-2.405-1.973,14.794,14.794,0,0,1-1.644-.381L1.92,37.61a2.566,2.566,0,0,0,2.371,2.2Z" transform="translate(-1.557 -37.022)" fill="#5da760"/>
        <path id="Path_18399" data-name="Path 18399" d="M7.334,41.077,6.088,40.7l-1.609-.277c-1.644-.329-2.526-1.142-2.7-2.526L1.71,37.27l1.3.606c.381.1.9.208,1.575.346a3.074,3.074,0,0,1,2.7,2.3l.069.554ZM2.644,38.5a2.3,2.3,0,0,0,1.921,1.177l1.7.329A2.51,2.51,0,0,0,4.34,38.931c-.675-.121-1.177-.277-1.644-.381l-.069-.035Z" transform="translate(-1.71 -37.27)" fill="#5da760"/>
      </g>
      <g id="Group_84" data-name="Group 84" transform="translate(2.947 62.623)">
        <path id="Path_18400" data-name="Path 18400" d="M5.888,40.122l.779.173a2.532,2.532,0,0,0-2.405-1.973,9.147,9.147,0,0,1-1.523-.415L1.96,37.63a2.566,2.566,0,0,0,2.371,2.2l1.575.294Z" transform="translate(-1.527 -36.99)" fill="#5da760"/>
        <path id="Path_18401" data-name="Path 18401" d="M7.3,41.015l-2.872-.623a2.777,2.777,0,0,1-2.647-2.526L1.71,37.26l1.644.554c.346.1.692.208,1.177.329a3.074,3.074,0,0,1,2.7,2.3L7.3,41ZM2.644,38.437A2.258,2.258,0,0,0,4.6,39.683l1.748.381a2.52,2.52,0,0,0-1.955-1.142,9.02,9.02,0,0,1-1.246-.329l-.5-.173Z" transform="translate(-1.71 -37.26)" fill="#5da760"/>
      </g>
      <g id="Group_85" data-name="Group 85" transform="translate(1.58 58.107)">
        <path id="Path_18402" data-name="Path 18402" d="M4.9,37.8l.675.277c-.1-1.35-1.142-1.9-2.2-2.232-.623-.208-1.142-.381-1.575-.554L1.13,34.91a2.534,2.534,0,0,0,2.146,2.44l1.609.467Z" transform="translate(-0.767 -34.339)" fill="#5da760"/>
        <path id="Path_18403" data-name="Path 18403" d="M6.128,38.923,4.9,38.4l-1.575-.45C1.751,37.5.92,36.553.92,35.2V34.58l1.229.692c.381.121.882.329,1.505.519,1.125.381,2.3.969,2.44,2.544l.035.606Zm-4.4-3.08a2.338,2.338,0,0,0,1.782,1.4l1.678.5a2.662,2.662,0,0,0-1.782-1.3c-.675-.208-1.142-.381-1.609-.554l-.069-.035Z" transform="translate(-0.92 -34.58)" fill="#5da760"/>
      </g>
      <g id="Group_86" data-name="Group 86" transform="translate(1.614 58.159)">
        <path id="Path_18404" data-name="Path 18404" d="M4.823,37.837l.727.277c-.1-1.35-1.142-1.9-2.2-2.232a15.864,15.864,0,0,1-1.505-.606L1.12,34.93a2.534,2.534,0,0,0,2.146,2.44l1.557.467Z" transform="translate(-0.809 -34.376)" fill="#5da760"/>
        <path id="Path_18405" data-name="Path 18405" d="M6.114,38.867l-1.246-.45-1.523-.5A2.86,2.86,0,0,1,.94,35.164V34.61l1.246.606a2.666,2.666,0,0,1,.415.173c.329.121.623.277,1.056.415,1.125.381,2.3.969,2.44,2.544l.035.536Zm-4.4-3.1a2.441,2.441,0,0,0,1.817,1.505l1.678.519A2.593,2.593,0,0,0,3.4,36.462a10.828,10.828,0,0,1-1.125-.45c-.121-.069-.277-.1-.415-.173L1.7,35.769Z" transform="translate(-0.94 -34.61)" fill="#5da760"/>
      </g>
      <g id="Group_87" data-name="Group 87" transform="translate(0.601 53.425)">
        <path id="Path_18406" data-name="Path 18406" d="M2.467,34.827l1.523.623.675.346c.035-1.35-.952-1.973-1.955-2.44-.623-.277-1.125-.5-1.523-.727l-.623-.45a2.6,2.6,0,0,0,1.921,2.647Z" transform="translate(-0.207 -31.522)" fill="#5da760"/>
        <path id="Path_18407" data-name="Path 18407" d="M5.175,36.7,4,36.022l-1.505-.606A2.892,2.892,0,0,1,.364,32.423L.433,31.8l1.142.848c.329.173.779.381,1.471.675a2.957,2.957,0,0,1,2.146,2.8v.588ZM2.769,34.742l1.609.675c-.208-.692-.848-1.073-1.644-1.471-.692-.329-1.142-.519-1.523-.727l-.035-.035c.121.709.64,1.211,1.592,1.575Z" transform="translate(-0.354 -31.8)" fill="#5da760"/>
      </g>
      <g id="Group_88" data-name="Group 88" transform="translate(0.584 53.427)">
        <path id="Path_18408" data-name="Path 18408" d="M2.48,34.791l1.471.675.727.346c.035-1.35-.952-1.973-1.955-2.44-.623-.277-1.073-.519-1.505-.727L.542,32.23A2.6,2.6,0,0,0,2.48,34.791Z" transform="translate(-0.204 -31.486)" fill="#5da760"/>
        <path id="Path_18409" data-name="Path 18409" d="M5.182,36.628,2.483,35.4A2.892,2.892,0,0,1,.354,32.406L.389,31.8l1.332.848c.346.173.779.381,1.246.623a2.957,2.957,0,0,1,2.146,2.8l.035.554Zm-4.049-3.5c.121.692.692,1.229,1.644,1.609h0l1.609.727c-.208-.727-.848-1.142-1.678-1.523-.519-.242-.952-.45-1.332-.675l-.242-.156Z" transform="translate(-0.344 -31.8)" fill="#5da760"/>
      </g>
      <g id="Group_89" data-name="Group 89" transform="translate(0.073 48.679)">
        <path id="Path_18410" data-name="Path 18410" d="M1.923,32.225,3.394,33,4,33.419a2.7,2.7,0,0,0-1.7-2.647,13.31,13.31,0,0,1-1.419-.882L.331,29.37a2.573,2.573,0,0,0,1.609,2.872Z" transform="translate(0.119 -28.695)" fill="#5da760"/>
        <path id="Path_18411" data-name="Path 18411" d="M4.463,34.361l-1.125-.779L1.919,32.8A2.871,2.871,0,0,1,.1,29.6l.1-.623,1.056.952c.329.208.692.45,1.4.848a3.06,3.06,0,0,1,1.9,2.994l-.1.606Zm-2.2-2.146,1.523.8c-.121-.692-.727-1.177-1.505-1.644a14.693,14.693,0,0,1-1.471-.882l-.035-.035a2.59,2.59,0,0,0,1.488,1.765Z" transform="translate(-0.049 -28.98)" fill="#5da760"/>
      </g>
      <g id="Group_90" data-name="Group 90" transform="translate(0.073 48.714)">
        <path id="Path_18412" data-name="Path 18412" d="M1.94,32.232l1.4.8.675.381a2.7,2.7,0,0,0-1.7-2.647c-.606-.346-1-.623-1.4-.9L.3,29.36a2.643,2.643,0,0,0,1.661,2.872Z" transform="translate(0.102 -28.737)" fill="#5da760"/>
        <path id="Path_18413" data-name="Path 18413" d="M4.463,34.278,1.919,32.807A2.871,2.871,0,0,1,.1,29.606L.206,29l1.332,1c.329.208.675.45,1.125.692a3.06,3.06,0,0,1,1.9,2.994l-.1.588ZM.794,30.367a2.329,2.329,0,0,0,1.471,1.782l1.523.9a2.56,2.56,0,0,0-1.505-1.7c-.45-.277-.848-.519-1.142-.727Z" transform="translate(-0.049 -29)" fill="#5da760"/>
      </g>
      <g id="Group_91" data-name="Group 91" transform="translate(0 43.935)">
        <path id="Path_18414" data-name="Path 18414" d="M1.678,29.539l1.4.9.554.5a2.683,2.683,0,0,0-1.419-2.8c-.554-.381-.969-.692-1.35-1L.346,26.58a2.6,2.6,0,0,0,1.332,2.976Z" transform="translate(0.161 -25.853)" fill="#5da760"/>
        <path id="Path_18415" data-name="Path 18415" d="M3.992,31.957l-1-.9-1.35-.9c-1.35-.9-1.9-2.059-1.505-3.374l.173-.623.952,1.056c.329.242.779.606,1.3.969.9.675,1.921,1.609,1.575,3.167l-.1.623ZM2.037,29.552l1.419.969a2.759,2.759,0,0,0-1.332-1.782c-.554-.381-.969-.727-1.35-1L.739,27.7a2.6,2.6,0,0,0,1.315,1.869Z" transform="translate(-0.007 -26.16)" fill="#5da760"/>
      </g>
      <g id="Group_92" data-name="Group 92" transform="translate(0.037 43.97)">
        <path id="Path_18416" data-name="Path 18416" d="M1.68,29.517l1.3.952.675.5a2.683,2.683,0,0,0-1.419-2.8c-.554-.381-.952-.727-1.3-1L.33,26.61a2.6,2.6,0,0,0,1.35,2.924Z" transform="translate(0.122 -25.866)" fill="#5da760"/>
        <path id="Path_18417" data-name="Path 18417" d="M4.028,31.856,1.623,30.108A2.9,2.9,0,0,1,.152,26.734l.173-.554,1.246,1.142c.277.242.606.5,1,.8.9.675,1.921,1.609,1.575,3.167l-.121.588ZM.74,27.616a2.316,2.316,0,0,0,1.3,1.921h0l1.419,1.056c-.035-.779-.606-1.3-1.332-1.852-.415-.329-.779-.606-1.056-.848L.74,27.616Z" transform="translate(-0.029 -26.18)" fill="#5da760"/>
      </g>
      <g id="Group_93" data-name="Group 93" transform="translate(0.417 39.193)">
        <path id="Path_18418" data-name="Path 18418" d="M1.688,26.87l1.3,1.056.519.554a2.682,2.682,0,0,0-1.142-2.924c-.519-.45-.9-.8-1.246-1.142l-.45-.623A2.519,2.519,0,0,0,1.7,26.87Z" transform="translate(-0.092 -23.011)" fill="#5da760"/>
        <path id="Path_18419" data-name="Path 18419" d="M3.8,29.5l-.952-.969L1.6,27.476a2.959,2.959,0,0,1-1.142-3.53L.7,23.34l.848,1.142c.277.277.692.675,1.177,1.073a3.012,3.012,0,0,1,1.246,3.322Zm-1.73-2.561L3.4,28.064a2.787,2.787,0,0,0-1.142-1.9c-.519-.45-.9-.8-1.246-1.142l-.035-.035a2.358,2.358,0,0,0,1.09,1.955Z" transform="translate(-0.248 -23.34)" fill="#5da760"/>
      </g>
      <g id="Group_94" data-name="Group 94" transform="translate(0.4 39.279)">
        <path id="Path_18420" data-name="Path 18420" d="M1.695,26.855,2.941,27.98l.554.5a2.682,2.682,0,0,0-1.142-2.924c-.519-.45-.848-.848-1.177-1.142L.657,23.81a2.511,2.511,0,0,0,1.038,3.063Z" transform="translate(-0.082 -23.083)" fill="#5da760"/>
        <path id="Path_18421" data-name="Path 18421" d="M3.823,29.394,1.591,27.439a2.925,2.925,0,0,1-1.142-3.5l.208-.554L1.8,24.722c.242.242.519.554.882.882a3.012,3.012,0,0,1,1.246,3.322l-.1.467ZM.951,24.826a2.375,2.375,0,0,0,1.073,2.059h0l1.332,1.177a2.57,2.57,0,0,0-1.142-1.973c-.381-.346-.675-.623-.952-.9l-.329-.363Z" transform="translate(-0.238 -23.39)" fill="#5da760"/>
      </g>
      <g id="Group_95" data-name="Group 95" transform="translate(1.272 34.639)">
        <path id="Path_18422" data-name="Path 18422" d="M3.137,25.413l.45.606c.554-1.246-.1-2.2-.848-3.028-.45-.5-.848-.9-1.125-1.246l-.381-.675a2.563,2.563,0,0,0,.727,3.167l1.159,1.177Z" transform="translate(-0.597 -20.309)" fill="#5da760"/>
        <path id="Path_18423" data-name="Path 18423" d="M3.836,27.015l-.8-1.056L1.863,24.783a2.935,2.935,0,0,1-.8-3.6L1.4,20.63l.727,1.229c.277.329.623.727,1.073,1.229.8.882,1.575,1.973.9,3.426l-.26.519ZM1.465,22.17a2.439,2.439,0,0,0,.9,2.094l1.229,1.229a2.638,2.638,0,0,0-.952-1.973c-.45-.5-.848-.9-1.142-1.3l-.035-.035Z" transform="translate(-0.742 -20.63)" fill="#5da760"/>
      </g>
      <g id="Group_96" data-name="Group 96" transform="translate(1.242 34.673)">
        <path id="Path_18424" data-name="Path 18424" d="M3.1,25.435l.5.554c.554-1.246-.1-2.2-.848-3.028-.45-.5-.779-.952-1.073-1.3l-.45-.623a2.563,2.563,0,0,0,.727,3.167Z" transform="translate(-0.567 -20.365)" fill="#5da760"/>
        <path id="Path_18425" data-name="Path 18425" d="M3.848,26.966,2.966,26,1.841,24.768C.7,23.592.422,22.363,1.062,21.169l.277-.519.8,1.125c.069.1.173.208.242.329a8.255,8.255,0,0,0,.8.952c.8.882,1.575,1.973.9,3.426l-.242.5Zm-2.371-4.88a2.357,2.357,0,0,0,.882,2.146l1.229,1.3a2.719,2.719,0,0,0-.952-2.059c-.346-.346-.606-.692-.848-.969a1.465,1.465,0,0,1-.242-.329l-.087-.087Z" transform="translate(-0.725 -20.65)" fill="#5da760"/>
      </g>
      <g id="Group_97" data-name="Group 97" transform="translate(2.562 30.102)">
        <path id="Path_18426" data-name="Path 18426" d="M3.56,22.906l.381.623c.675-1.177.121-2.2-.554-3.1-.415-.554-.727-.969-.969-1.35L2.09,18.39A2.641,2.641,0,0,0,2.5,21.643Z" transform="translate(-1.341 -17.594)" fill="#5da760"/>
        <path id="Path_18427" data-name="Path 18427" d="M4.139,24.557l-.692-1.142-1.056-1.3c-1.056-1.3-1.177-2.544-.415-3.668l.346-.519.606,1.3c.208.329.5.692.952,1.332.727.969,1.35,2.128.554,3.53l-.294.45Zm-1.9-5.018a2.325,2.325,0,0,0,.692,2.146L4,23.035a2.733,2.733,0,0,0-.779-2.094c-.346-.45-.692-.952-1-1.4h0l.017-.017Z" transform="translate(-1.488 -17.93)" fill="#5da760"/>
      </g>
      <g id="Group_98" data-name="Group 98" transform="translate(2.578 30.136)">
        <path id="Path_18428" data-name="Path 18428" d="M3.536,22.928l.45.623c.675-1.177.121-2.2-.554-3.1-.415-.554-.675-.969-.952-1.4L2.1,18.36a2.641,2.641,0,0,0,.415,3.253l1.038,1.315Z" transform="translate(-1.35 -17.651)" fill="#5da760"/>
        <path id="Path_18429" data-name="Path 18429" d="M4.167,24.525l-.779-1.073-1-1.332c-1-1.3-1.177-2.526-.415-3.668l.329-.5.848,1.505a11.831,11.831,0,0,0,.727,1.073c.727.969,1.35,2.128.554,3.53l-.26.45Zm-1.9-5.053A2.363,2.363,0,0,0,2.938,21.7l1.073,1.419a2.618,2.618,0,0,0-.727-2.146c-.329-.415-.554-.8-.779-1.125Z" transform="translate(-1.497 -17.95)" fill="#5da760"/>
      </g>
      <g id="Group_99" data-name="Group 99" transform="translate(4.322 25.784)">
        <path id="Path_18430" data-name="Path 18430" d="M4.259,20.472l.329.675c.8-1.125.346-2.2-.242-3.149C4,17.392,3.723,16.942,3.5,16.527L3.255,15.8a2.6,2.6,0,0,0,.069,3.27l.934,1.4Z" transform="translate(-2.364 -15.039)" fill="#5da760"/>
        <path id="Path_18431" data-name="Path 18431" d="M4.694,22.143l-.606-1.229-.9-1.4a2.964,2.964,0,0,1-.069-3.7l.415-.45.45,1.332c.173.346.45.8.8,1.4.623,1.056,1.125,2.267.208,3.547Zm-1.35-5.208a2.447,2.447,0,0,0,.45,2.232l.952,1.471a2.642,2.642,0,0,0-.554-2.146c-.381-.606-.623-1.073-.882-1.505l.035-.035Z" transform="translate(-2.505 -15.36)" fill="#5da760"/>
      </g>
      <g id="Group_100" data-name="Group 100" transform="translate(4.344 25.835)">
        <path id="Path_18432" data-name="Path 18432" d="M4.222,20.5l.381.623c.8-1.125.346-2.2-.242-3.149-.346-.606-.554-1.056-.779-1.471l-.346-.727A2.6,2.6,0,0,0,3.3,19.05l.9,1.436Z" transform="translate(-2.4 -15.105)" fill="#5da760"/>
        <path id="Path_18433" data-name="Path 18433" d="M4.719,22.087,3.2,19.543a2.915,2.915,0,0,1-.035-3.7l.381-.45.554,1.3c.069.1.1.242.173.346.173.329.329.675.554,1.056.623,1.056,1.125,2.267.208,3.547l-.329.45ZM4.633,20.6l.069.1a2.657,2.657,0,0,0-.519-2.232c-.242-.415-.415-.8-.606-1.125a2.547,2.547,0,0,1-.173-.381l-.069-.121a2.5,2.5,0,0,0,.415,2.3l.882,1.471Z" transform="translate(-2.517 -15.39)" fill="#5da760"/>
      </g>
      <g id="Group_101" data-name="Group 101" transform="translate(6.447 21.652)">
        <path id="Path_18434" data-name="Path 18434" d="M4.4,16.58l.779,1.505.242.692c.9-1,.554-2.128.1-3.167-.277-.623-.519-1.125-.692-1.523l-.173-.779a2.631,2.631,0,0,0-.26,3.27Z" transform="translate(-3.574 -12.601)" fill="#5da760"/>
        <path id="Path_18435" data-name="Path 18435" d="M5.475,19.787l-.45-1.3-.779-1.471c-.779-1.505-.675-2.717.329-3.668l.45-.45.329,1.35c.121.346.346.779.675,1.471.519,1.073.9,2.371-.121,3.547l-.415.5Zm-.554-3.028.8,1.575a2.8,2.8,0,0,0-.329-2.2A11.305,11.305,0,0,1,4.7,14.561v-.069A2.285,2.285,0,0,0,4.9,16.759Z" transform="translate(-3.733 -12.9)" fill="#5da760"/>
      </g>
      <g id="Group_102" data-name="Group 102" transform="translate(6.464 21.72)">
        <path id="Path_18436" data-name="Path 18436" d="M4.4,16.58l.727,1.505.329.692c.9-1,.554-2.128.1-3.167-.277-.623-.45-1.073-.623-1.505l-.242-.8A2.592,2.592,0,0,0,4.4,16.58Z" transform="translate(-3.589 -12.67)" fill="#5da760"/>
        <path id="Path_18437" data-name="Path 18437" d="M5.486,19.723l-1.246-2.7a2.876,2.876,0,0,1,.329-3.668l.415-.415.45,1.332a1.971,1.971,0,0,1,.121.381A8.485,8.485,0,0,0,6,15.726c.519,1.073.9,2.371-.121,3.547l-.381.415Zm-.8-5.364A2.447,2.447,0,0,0,4.9,16.712l.779,1.644A2.651,2.651,0,0,0,5.4,16.089c-.208-.45-.346-.8-.5-1.142-.035-.121-.1-.277-.121-.381l-.087-.19Z" transform="translate(-3.743 -12.94)" fill="#5da760"/>
      </g>
      <g id="Group_103" data-name="Group 103" transform="translate(9.036 17.875)">
        <path id="Path_18438" data-name="Path 18438" d="M5.72,14.256,6.274,15.9l.242.675c.969-.952.779-2.059.415-3.149-.242-.623-.346-1.177-.5-1.678l-.173-.727a2.767,2.767,0,0,0-.536,3.253Z" transform="translate(-5.078 -10.38)" fill="#5da760"/>
        <path id="Path_18439" data-name="Path 18439" d="M6.528,17.45,5.559,14.63A2.9,2.9,0,0,1,6.252,11l.45-.346.329,1.3c.035.121.069.277.1.45A10.26,10.26,0,0,0,7.48,13.54c.381,1.073.675,2.44-.5,3.53l-.45.381Zm-.277-5.4a2.453,2.453,0,0,0-.035,2.371h0l.606,1.7a2.693,2.693,0,0,0-.069-2.3,7.536,7.536,0,0,1-.346-1.229c-.035-.173-.069-.329-.1-.45l-.035-.087Z" transform="translate(-5.229 -10.65)" fill="#5da760"/>
      </g>
      <g id="Group_104" data-name="Group 104" transform="translate(11.979 14.315)">
        <path id="Path_18440" data-name="Path 18440" d="M7.282,12.039l.381,1.644.173.727c1.073-.848.969-1.973.692-3.08-.173-.675-.208-1.142-.329-1.644l-.1-.8C6.936,9.686,7.005,10.949,7.282,12.039Z" transform="translate(-6.798 -8.267)" fill="#5da760"/>
        <path id="Path_18441" data-name="Path 18441" d="M7.812,15.3,7.12,12.389c-.45-1.609-.1-2.8,1.056-3.53l.5-.329.173,1.4c.035.121.035.277.069.415.069.346.1.727.208,1.142.277,1.177.415,2.526-.848,3.443Zm.242-5.433a2.526,2.526,0,0,0-.277,2.353h0l.415,1.748a2.711,2.711,0,0,0,.173-2.3c-.1-.5-.173-.882-.242-1.229-.035-.121-.035-.277-.069-.415V9.862Z" transform="translate(-6.93 -8.53)" fill="#5da760"/>
      </g>
      <g id="Group_105" data-name="Group 105" transform="translate(15.188 11.428)">
        <path id="Path_18442" data-name="Path 18442" d="M9.059,10.005,9.3,11.684l.1.727a2.677,2.677,0,0,0,1-2.994,15.422,15.422,0,0,1-.1-1.609L10.27,6.96C8.955,7.6,8.886,8.881,9.059,9.988Z" transform="translate(-8.634 -6.354)" fill="#5da760"/>
        <path id="Path_18443" data-name="Path 18443" d="M9.279,13.255l-.415-2.976c-.277-1.644.173-2.8,1.4-3.426l.5-.242.069,1.419c0,.121.035.329.035.5a6.218,6.218,0,0,0,.1,1.073A3.032,3.032,0,0,1,9.8,12.96l-.519.277Zm.8-5.381a2.446,2.446,0,0,0-.519,2.3h0L9.8,11.957a2.649,2.649,0,0,0,.381-2.267c-.069-.45-.069-.848-.1-1.142a2.449,2.449,0,0,0-.035-.5l.035-.19Z" transform="translate(-8.784 -6.61)" fill="#5da760"/>
      </g>
      <g id="Group_106" data-name="Group 106" transform="translate(18.75 8.486)">
        <path id="Path_18444" data-name="Path 18444" d="M11.053,8.144l.069,1.7.035.727c1.229-.606,1.35-1.748,1.3-2.872-.035-.692,0-1.229,0-1.7l.069-.779C11.192,5.756,11,7,11.053,8.127Z" transform="translate(-10.695 -4.684)" fill="#5da760"/>
        <path id="Path_18445" data-name="Path 18445" d="M10.959,11.4l-.035-1.3-.069-1.73c-.1-1.678.45-2.751,1.7-3.253L13.1,4.91l-.121,1.678c0,.381-.035.848,0,1.332.035,1.229-.1,2.544-1.505,3.2l-.519.26Zm1.3-5.278a2.419,2.419,0,0,0-.692,2.232h0l.069,1.817a2.817,2.817,0,0,0,.606-2.2c-.035-.519,0-.969,0-1.35v-.5Z" transform="translate(-10.843 -4.91)" fill="#5da760"/>
      </g>
      <g id="Group_107" data-name="Group 107" transform="translate(21.847 5.994)">
        <path id="Path_18446" data-name="Path 18446" d="M13.175,8.222l-.035.692c1.246-.45,1.505-1.609,1.575-2.717a11.623,11.623,0,0,1,.208-1.678l.1-.779a2.57,2.57,0,0,0-1.782,2.717l-.069,1.765Z" transform="translate(-12.777 -3.273)" fill="#5da760"/>
        <path id="Path_18447" data-name="Path 18447" d="M12.93,9.647,13.1,6.671c.035-1.678.727-2.7,2.025-3.08l.519-.121L15.439,4.8c-.035.121-.035.329-.069.5-.035.346-.1.692-.121,1.142-.069,1.229-.346,2.526-1.817,3.028l-.5.173Zm.761-1.177V8.54a2.668,2.668,0,0,0,.848-2.128c.035-.45.069-.882.121-1.229.035-.173.035-.346.069-.5l.035-.121a2.292,2.292,0,0,0-.952,2.146Z" transform="translate(-12.93 -3.47)" fill="#5da760"/>
      </g>
      <g id="Group_108" data-name="Group 108" transform="translate(25.462 3.918)">
        <path id="Path_18448" data-name="Path 18448" d="M15.5,6.556l-.173.9c1.332-.329,1.678-1.419,1.852-2.544.1-.675.242-1.142.346-1.644l.208-.779a2.543,2.543,0,0,0-2.025,2.544L15.5,6.539Z" transform="translate(-14.88 -2.109)" fill="#5da760"/>
        <path id="Path_18449" data-name="Path 18449" d="M15.07,8.119l.5-2.924c.208-1.644.969-2.63,2.353-2.821l.554-.1L18.1,3.6c-.035.121-.069.277-.1.415-.069.346-.173.692-.242,1.142A3.021,3.021,0,0,1,15.658,7.98l-.588.156Zm2.319-4.88a2.313,2.313,0,0,0-1.142,2.025L15.97,7.046a2.615,2.615,0,0,0,1-2.025c.069-.5.173-.882.242-1.229.035-.121.069-.277.1-.415l.069-.156Z" transform="translate(-15.07 -2.27)" fill="#5da760"/>
      </g>
      <g id="Group_109" data-name="Group 109" transform="translate(29.295 2.257)">
        <path id="Path_18450" data-name="Path 18450" d="M18.253,3.839l-.415,1.644-.208.727c1.332-.173,1.817-1.246,2.094-2.353.173-.675.381-1.142.519-1.609l.277-.727A2.59,2.59,0,0,0,18.253,3.839Z" transform="translate(-17.128 -1.157)" fill="#5da760"/>
        <path id="Path_18451" data-name="Path 18451" d="M17.34,6.8l.779-2.872c.381-1.644,1.246-2.526,2.63-2.578L21.3,1.31l-.5,1.246c-.035.1-.069.242-.121.381-.1.346-.242.727-.381,1.177-.329,1.142-.848,2.405-2.371,2.63l-.588.035Zm2.821-4.6a2.349,2.349,0,0,0-1.35,1.921h0l-.45,1.748A2.7,2.7,0,0,0,19.589,3.94c.121-.5.277-.882.381-1.229.035-.121.1-.277.121-.381l.069-.121Z" transform="translate(-17.34 -1.31)" fill="#5da760"/>
      </g>
      <g id="Group_110" data-name="Group 110" transform="translate(33.314 1.059)">
        <path id="Path_18452" data-name="Path 18452" d="M20.881,2.894l-.554,1.523-.277.727c1.35-.035,1.921-1.056,2.3-2.128.242-.623.45-1.073.675-1.523L23.407.8A2.678,2.678,0,0,0,20.881,2.894Z" transform="translate(-19.479 -0.484)" fill="#5da760"/>
        <path id="Path_18453" data-name="Path 18453" d="M19.72,5.726l1.056-2.8c.519-1.575,1.505-2.371,2.872-2.3L24.2.656l-.8,1.575c-.121.329-.329.692-.5,1.142-.415,1.125-1.073,2.3-2.647,2.353H19.72ZM22.99,1.4c-.692.173-1.177.779-1.523,1.748h0l-.623,1.7c.692-.242,1.073-.9,1.4-1.782a6.514,6.514,0,0,1,.519-1.177l.242-.467Z" transform="translate(-19.72 -0.618)" fill="#5da760"/>
      </g>
      <g id="Group_111" data-name="Group 111" transform="translate(37.501 0.346)">
        <path id="Path_18454" data-name="Path 18454" d="M23.607,2.2l-.779,1.523L22.5,4.4c1.35.1,2.025-.848,2.526-1.852.329-.623.623-1.125.848-1.523L26.29.47c-1.436-.277-2.2.692-2.665,1.748Z" transform="translate(-21.981 -0.048)" fill="#5da760"/>
        <path id="Path_18455" data-name="Path 18455" d="M22.927,4.9h-.208L22.2,4.868l.519-1.125L23.5,2.22c.692-1.505,1.7-2.2,3.08-1.973l.606.069-.882,1.3c-.208.346-.45.779-.675,1.246a3.019,3.019,0,0,1-2.7,2.059Zm2.907-4c-.692.1-1.229.623-1.678,1.575h0l-.8,1.644c.727-.173,1.177-.779,1.609-1.644.242-.5.5-.952.692-1.3l.173-.277Z" transform="translate(-22.2 -0.206)" fill="#5da760"/>
      </g>
      <g id="Group_112" data-name="Group 112" transform="translate(41.755)">
        <path id="Path_18456" data-name="Path 18456" d="M26.348,1.8l-.882,1.419-.415.623c1.332.242,2.094-.623,2.7-1.609a11.963,11.963,0,0,1,1-1.419L29.2.264A2.652,2.652,0,0,0,26.33,1.821Z" transform="translate(-24.479 0.141)" fill="#5da760"/>
        <path id="Path_18457" data-name="Path 18457" d="M25.741,4.426a2.713,2.713,0,0,1-.5-.035l-.519-.1,1.575-2.526C27.143.342,28.215-.212,29.548.082L30.1.2l-.8.969c-.069.1-.173.242-.277.381-.208.329-.5.623-.727,1a3.122,3.122,0,0,1-2.561,1.852Zm2.994-3.7a2.382,2.382,0,0,0-1.852,1.4l-.952,1.523c.727-.1,1.229-.675,1.748-1.471A6.879,6.879,0,0,1,28.458,1.1a1.942,1.942,0,0,0,.277-.381h0Z" transform="translate(-24.72 -0.006)" fill="#5da760"/>
      </g>
      <g id="Group_113" data-name="Group 113" transform="translate(105.052 53.167)">
        <path id="Path_18458" data-name="Path 18458" d="M64.529,32.125c-.606.277-1.142.5-1.575.675l-.675.242a2.5,2.5,0,0,0,3.167.208l1.4-.623.848-.346c-1.038-.952-2.146-.64-3.167-.156Z" transform="translate(-62.124 -31.588)" fill="#5da760"/>
        <path id="Path_18459" data-name="Path 18459" d="M63.938,33.835a2.292,2.292,0,0,1-1.644-.692l-.1-.1.8-.277a2.222,2.222,0,0,1,.45-.173,9.574,9.574,0,0,0,1.125-.5,2.69,2.69,0,0,1,3.253.173l.1.1-.952.381-1.4.623a4.343,4.343,0,0,1-1.644.45Zm-1.384-.727a2.454,2.454,0,0,0,2.976.1l1.4-.623.692-.277a2.494,2.494,0,0,0-2.924-.035h0c-.415.208-.779.346-1.125.5-.173.069-.329.121-.45.173l-.554.173Z" transform="translate(-62.19 -31.619)" fill="#5da760"/>
      </g>
      <g id="Group_114" data-name="Group 114" transform="translate(107.458 54.816)">
        <path id="Path_18460" data-name="Path 18460" d="M64.4,33.713l-.727.277a1.989,1.989,0,0,0,2.2.554c1.056-.45,1-1.9,1-1.9-.415.173-.883.346-1.177.5-.64.242-.882.381-1.3.554Z" transform="translate(-63.514 -32.571)" fill="#5da760"/>
        <path id="Path_18461" data-name="Path 18461" d="M65.258,34.815a2.422,2.422,0,0,1-1.575-.692l-.1-.1.848-.346a7.845,7.845,0,0,1,.848-.346l.5-.208c.173-.069.381-.173.606-.242s.381-.173.606-.242l.1-.035v.121s.035,1.505-1.073,1.973a5.65,5.65,0,0,1-.727.1Zm-1.35-.761a1.813,1.813,0,0,0,1.973.415,1.946,1.946,0,0,0,.969-1.678,4.8,4.8,0,0,1-.45.173,5.517,5.517,0,0,1-.606.242l-.5.208c-.329.121-.519.208-.848.346h0l-.554.294Z" transform="translate(-63.58 -32.6)" fill="#5da760"/>
      </g>
      <g id="Group_115" data-name="Group 115" transform="translate(103.547 50.046)">
        <path id="Path_18462" data-name="Path 18462" d="M62.764,29.81a2.209,2.209,0,0,1,1,.606l-.8.277L61.5,31.3a1.344,1.344,0,0,0-.121.069,4.686,4.686,0,0,0,.121-.8l1.246-.761Z" transform="translate(-61.276 -29.723)" fill="#5da760"/>
        <path id="Path_18463" data-name="Path 18463" d="M61.337,31.542l.035-.173a4.69,4.69,0,0,0,.121-.8v-.035l1.3-.779h.035a2.318,2.318,0,0,1,1.073.623l.1.1-.9.329-1.782.727Zm.346-.9a4.662,4.662,0,0,1-.1.623L63,30.66l.675-.242a2.21,2.21,0,0,0-.848-.5l-1.142.709Z" transform="translate(-61.32 -29.76)" fill="#5da760"/>
      </g>
      <g id="Group_116" data-name="Group 116" transform="translate(103.582 51.495)">
        <path id="Path_18464" data-name="Path 18464" d="M63.892,32.229l1.419-.623.8-.277a2.085,2.085,0,0,0-2.128-.554,4.911,4.911,0,0,0-1,.346c-.519.242-.952.415-1.332.606a4.993,4.993,0,0,1-.242.779,2.277,2.277,0,0,0,1.471.121,8.1,8.1,0,0,0,1.038-.381Z" transform="translate(-61.296 -30.576)" fill="#5da760"/>
        <path id="Path_18465" data-name="Path 18465" d="M62.361,32.762a2.135,2.135,0,0,1-.952-.208l-.069-.035.035-.069a5.814,5.814,0,0,0,.242-.779v-.035h.035c.381-.121.779-.346,1.3-.554l.035-.035a4.331,4.331,0,0,1,1-.346,2.25,2.25,0,0,1,2.232.606l.1.1-.9.346L64,32.381a3.972,3.972,0,0,1-1.056.346,2.023,2.023,0,0,1-.623.069Zm-.8-.294a2.145,2.145,0,0,0,1.332.1,3.246,3.246,0,0,0,.969-.346h0l1.419-.623.675-.242A2.027,2.027,0,0,0,64,30.911a3.85,3.85,0,0,0-.969.346L63,31.291c-.5.208-.882.415-1.246.554-.035.156-.1.346-.173.606Z" transform="translate(-61.34 -30.625)" fill="#5da760"/>
      </g>
      <g id="Group_117" data-name="Group 117" transform="translate(93.788 46.171)">
        <path id="Path_18466" data-name="Path 18466" d="M60.487,28.709l-1.3.5a5.493,5.493,0,0,1-1.056.242,2.209,2.209,0,0,1-2.094-.882,9.2,9.2,0,0,0,1.125-.329,7.955,7.955,0,0,1,1-.277c.381-.1.779-.173,1.125-.242a2.483,2.483,0,0,1,1.125.069l.069.934Z" transform="translate(-55.417 -27.294)" fill="#5da760"/>
        <path id="Path_18467" data-name="Path 18467" d="M58.12,29.95a2.449,2.449,0,0,1-2.094-1.056l-.346-.45.554-.121a5.587,5.587,0,0,0,.882-.242l.606-.173a5.447,5.447,0,0,1,.675-.173c.381-.1.779-.173,1.177-.242a3.323,3.323,0,0,1,1.3.069l.208.069.069,1.419-1.523.554a5.716,5.716,0,0,1-1.125.242A.629.629,0,0,1,58.12,29.95ZM57,28.895a2.012,2.012,0,0,0,1.35.346,5.12,5.12,0,0,0,.969-.208c.519-.173.848-.329,1-.381l-.035-.415a2.535,2.535,0,0,0-.727.035,5.354,5.354,0,0,0-1.073.208c-.242.069-.45.121-.675.173l-.606.173Z" transform="translate(-55.68 -27.462)" fill="#5da760"/>
      </g>
      <g id="Group_118" data-name="Group 118" transform="translate(87.215 40.504)">
        <path id="Path_18468" data-name="Path 18468" d="M55.048,25.716l1.644-.346.727-.035A2.262,2.262,0,0,0,55.5,24.28a5.592,5.592,0,0,0-1.056.1c-.675.1-1.177.208-1.644.277l-.779-.035A2.207,2.207,0,0,0,53.975,25.8a4.352,4.352,0,0,0,1.056-.087Z" transform="translate(-51.362 -23.951)" fill="#5da760"/>
        <path id="Path_18469" data-name="Path 18469" d="M54.409,26.3h-.173a2.586,2.586,0,0,1-2.267-1.35L51.64,24.4l1.4.035c.415-.069.969-.121,1.575-.242a6.962,6.962,0,0,1,1.125-.1,2.6,2.6,0,0,1,2.232,1.229l.329.519-1.35.1-1.575.346c-.346,0-.675.017-.969.017Zm-1.384-1.177a2.038,2.038,0,0,0,1.229.45,4.65,4.65,0,0,0,.969-.069l1.7-.346a2.117,2.117,0,0,0-1.177-.381c-.277,0-.623.035-.969.069-.606.1-1.177.208-1.678.277Z" transform="translate(-51.64 -24.09)" fill="#5da760"/>
      </g>
      <g id="Group_119" data-name="Group 119" transform="translate(87.266 40.538)">
        <path id="Path_18470" data-name="Path 18470" d="M55.048,25.716l1.575-.277.8-.1A2.262,2.262,0,0,0,55.5,24.28a5.592,5.592,0,0,0-1.056.1c-.675.1-1.177.121-1.644.208l-.779.035A2.207,2.207,0,0,0,53.975,25.8a5.456,5.456,0,0,0,1.056-.1Z" transform="translate(-51.414 -23.986)" fill="#5da760"/>
        <path id="Path_18471" data-name="Path 18471" d="M54.387,26.29h-.173a2.586,2.586,0,0,1-2.267-1.35l-.277-.5L53,24.37c.121,0,.277-.035.45-.035.346-.035.727-.069,1.177-.121a6.962,6.962,0,0,1,1.125-.1,2.6,2.6,0,0,1,2.232,1.229l.329.5-1.35.173-1.575.277c-.381,0-.709.017-1,.017ZM52.95,25.044a1.875,1.875,0,0,0,1.3.519,4.9,4.9,0,0,0,.969-.069h0l1.748-.329a2.017,2.017,0,0,0-1.229-.415c-.277,0-.623.035-.969.069-.5.069-.883.1-1.229.121-.121,0-.329.035-.45.035l-.121.035Z" transform="translate(-51.67 -24.11)" fill="#5da760"/>
      </g>
      <g id="Group_120" data-name="Group 120" transform="translate(90.206 43.493)">
        <path id="Path_18472" data-name="Path 18472" d="M57.428,26.058a5.832,5.832,0,0,0-1.056.173,13.213,13.213,0,0,1-1.644.381l-.779.035a2.182,2.182,0,0,0,2.025,1,3.843,3.843,0,0,0,1.056-.173l1.609-.45.727-.1a2.133,2.133,0,0,0-1.955-.882Z" transform="translate(-53.362 -25.744)" fill="#5da760"/>
        <path id="Path_18473" data-name="Path 18473" d="M56.188,28.19a2.532,2.532,0,0,1-2.232-1.177l-.346-.519,1.4-.069c.415-.069.9-.208,1.575-.381a4.447,4.447,0,0,1,1.125-.173h0a2.479,2.479,0,0,1,2.3,1.056l.346.5-1.332.173-1.575.45a4.461,4.461,0,0,1-1.142.173.257.257,0,0,0-.1-.017Zm-1.177-1.073a1.918,1.918,0,0,0,1.246.346,3.273,3.273,0,0,0,.969-.173l1.678-.45a1.862,1.862,0,0,0-1.229-.277h0a3.273,3.273,0,0,0-.969.173,13.21,13.21,0,0,1-1.644.381h-.069Z" transform="translate(-53.61 -25.869)" fill="#5da760"/>
      </g>
      <g id="Group_121" data-name="Group 121" transform="translate(90.223 43.477)">
        <path id="Path_18474" data-name="Path 18474" d="M57.406,26.05a5.831,5.831,0,0,0-1.056.173c-.675.173-1.125.242-1.575.329l-.8.1a2.182,2.182,0,0,0,2.025,1,3.843,3.843,0,0,0,1.056-.173l1.523-.381.8-.173A2.178,2.178,0,0,0,57.406,26.05Z" transform="translate(-53.357 -25.719)" fill="#5da760"/>
        <path id="Path_18475" data-name="Path 18475" d="M56.181,28.2a2.532,2.532,0,0,1-2.232-1.177l-.329-.5,1.4-.173a1.6,1.6,0,0,1,.415-.069,10.4,10.4,0,0,0,1.125-.242,4.447,4.447,0,0,1,1.125-.173h0a2.479,2.479,0,0,1,2.3,1.056l.346.45-1.35.277-1.523.381a4.447,4.447,0,0,1-1.125.173.456.456,0,0,0-.121-.017Zm-1.229-1.125a2.045,2.045,0,0,0,1.332.415,3.274,3.274,0,0,0,.969-.173l1.7-.415a2.015,2.015,0,0,0-1.246-.329h0a3.273,3.273,0,0,0-.969.173c-.45.1-.848.173-1.142.242a1.6,1.6,0,0,1-.415.069h-.242Z" transform="translate(-53.62 -25.859)" fill="#5da760"/>
      </g>
      <g id="Group_122" data-name="Group 122" transform="translate(106.229 43.674)">
        <path id="Path_18476" data-name="Path 18476" d="M63.113,30.337l-.173.727a2.823,2.823,0,0,0,2.025-2.544,8.044,8.044,0,0,1,.779-2.44,2.658,2.658,0,0,0-2.3,2.526Z" transform="translate(-62.819 -25.942)" fill="#5da760"/>
        <path id="Path_18477" data-name="Path 18477" d="M62.87,31.243l.173-.882.329-1.748a2.707,2.707,0,0,1,2.371-2.578L65.915,26l-.1.121a6.442,6.442,0,0,0-.727,2.353v.069c-.242,1.177-.675,2.3-2.094,2.63l-.1.087Zm2.734-5a2.552,2.552,0,0,0-2.059,2.405L63.216,30.4,63.095,31c1.229-.329,1.575-1.35,1.817-2.44v-.069a12.767,12.767,0,0,1,.709-2.267Z" transform="translate(-62.87 -26)" fill="#5da760"/>
      </g>
      <g id="Group_123" data-name="Group 123" transform="translate(108.929 44.283)">
        <path id="Path_18478" data-name="Path 18478" d="M65.6,26.44s1.3,1.332.415,2.578a2.638,2.638,0,0,1-.381.381,2.19,2.19,0,0,1-1.125.5c.242-.692.381-1.3.623-2.025L65.6,26.44Z" transform="translate(-64.372 -26.284)" fill="#5da760"/>
        <path id="Path_18479" data-name="Path 18479" d="M64.43,30.1l.035-.121c.121-.415.242-.779.381-1.177.069-.277.173-.554.277-.882l.5-1.575.1.1s1.332,1.4.415,2.717a1.272,1.272,0,0,1-.381.415,2.367,2.367,0,0,1-1.142.5l-.19.035Zm1.263-3.374-.381,1.3c-.1.329-.173.606-.277.882-.1.346-.208.675-.329,1.056a1.886,1.886,0,0,0,.9-.415,2.451,2.451,0,0,0,.346-.381,2.029,2.029,0,0,0-.26-2.44Z" transform="translate(-64.43 -26.35)" fill="#5da760"/>
      </g>
      <g id="Group_124" data-name="Group 124" transform="translate(103.824 44.699)">
        <path id="Path_18480" data-name="Path 18480" d="M61.547,29.531a12.132,12.132,0,0,1,.1,2.094,2.475,2.475,0,0,0,1.177-1.419,5.38,5.38,0,0,0,.242-1.073c.1-.692.173-1.246.277-1.7l.277-.727a2.427,2.427,0,0,0-1.851,1.575,4.793,4.793,0,0,0-.242,1.073v.19h0Z" transform="translate(-61.443 -26.537)" fill="#5da760"/>
        <path id="Path_18481" data-name="Path 18481" d="M61.584,31.87v-.156a10.619,10.619,0,0,0-.1-2.094h0l.035-.242a4.465,4.465,0,0,1,.242-1.125,2.419,2.419,0,0,1,1.921-1.609l.121-.035-.346.9c-.1.45-.173,1-.277,1.7a5.2,5.2,0,0,1-.242,1.073,2.43,2.43,0,0,1-1.246,1.471l-.1.1ZM61.67,29.6a10.429,10.429,0,0,1,.1,1.955,2.147,2.147,0,0,0,1-1.3,8.622,8.622,0,0,0,.242-1.056c.1-.692.173-1.246.277-1.748l.208-.606A2.227,2.227,0,0,0,61.9,28.323a4.882,4.882,0,0,0-.242,1.073v.19Z" transform="translate(-61.48 -26.61)" fill="#5da760"/>
      </g>
      <g id="Group_125" data-name="Group 125" transform="translate(97.234 48.688)">
        <path id="Path_18482" data-name="Path 18482" d="M59.411,30.139c0,.277-.035.519-.035.8-.035.519-.069,1.056-.121,1.575-.035.208-.069.381-.1.554a3.586,3.586,0,0,1-.242.727c-.069.121-.173.329-.329.381a.409.409,0,0,1-.346-.035.6.6,0,0,1-.208-.329,3.234,3.234,0,0,1-.121-.969,5.43,5.43,0,0,1,.035-1.056,3.085,3.085,0,0,1,.346-1.3,1.728,1.728,0,0,1,.5-.675,1.243,1.243,0,0,1,.346-.242l.346-.208-.035.761Z" transform="translate(-57.511 -28.72)" fill="#5da760"/>
        <path id="Path_18483" data-name="Path 18483" d="M58.62,34.839a.808.808,0,0,1-.415-.121.729.729,0,0,1-.346-.5,5.774,5.774,0,0,1-.173-1.073,6.251,6.251,0,0,1,.035-1.125A4.264,4.264,0,0,1,58.1,30.6a2.674,2.674,0,0,1,.554-.779c.121-.1.242-.208.381-.329l.882-.5.035,1.4h0c0,.277-.035.519-.035.8-.035.623-.069,1.142-.121,1.609-.035.208-.069.415-.1.606a5.382,5.382,0,0,1-.277.8,1,1,0,0,1-.5.554.625.625,0,0,1-.329.069Zm.606-4.585s-.069.069-.1.069a1.791,1.791,0,0,0-.415.554,7.528,7.528,0,0,0-.329,1.177,9.893,9.893,0,0,0-.035,1,4.712,4.712,0,0,0,.121.9c.035.1.069.121.069.121.035,0,.1-.121.121-.208a3.424,3.424,0,0,0,.242-.675l.1-.519a12.644,12.644,0,0,0,.121-1.523c0-.277.035-.519.035-.8v-.121h.035Z" transform="translate(-57.672 -28.99)" fill="#5da760"/>
      </g>
      <g id="Group_126" data-name="Group 126" transform="translate(94.512 50.706)">
        <path id="Path_18484" data-name="Path 18484" d="M56.955,35.351l.208.675a2.137,2.137,0,0,0,.8-1.973c-.035-.346-.1-.692-.173-1.056a11.671,11.671,0,0,1-.277-1.419l-.1-.969A2.219,2.219,0,0,0,56.333,32.7a3.644,3.644,0,0,0,.173,1.056c.19.588.294,1.142.45,1.609Z" transform="translate(-55.933 -29.901)" fill="#5da760"/>
        <path id="Path_18485" data-name="Path 18485" d="M57.139,36.914l-.381-1.177c-.069-.242-.121-.5-.208-.779a7.674,7.674,0,0,0-.242-.882,7.261,7.261,0,0,1-.208-1.142,2.64,2.64,0,0,1,1.229-2.405l.5-.329.208,1.817c.069.329.1.623.242,1.125a7.851,7.851,0,0,1,.208,1.125,2.569,2.569,0,0,1-.952,2.3l-.381.363Zm.1-5.364a1.7,1.7,0,0,0-.415,1.35,3.273,3.273,0,0,0,.173.969c.1.329.173.623.242.882a5.329,5.329,0,0,0,.208.727l.035.1a1.8,1.8,0,0,0,.277-1.3,4.971,4.971,0,0,0-.173-.969c-.121-.519-.173-.848-.242-1.177l-.121-.606Z" transform="translate(-56.099 -30.2)" fill="#5da760"/>
      </g>
      <g id="Group_127" data-name="Group 127" transform="translate(91.733 53.544)">
        <path id="Path_18486" data-name="Path 18486" d="M55.587,36.613c.069.242.381.848.45,1.056a2.1,2.1,0,0,0,.5-2.059,4.259,4.259,0,0,0-.329-1c-.242-.623-.381-1.142-.519-1.609l-.173-.727a2.187,2.187,0,0,0-.8,2.2,5.269,5.269,0,0,0,.329,1.056c.294.588.329.692.536,1.125Z" transform="translate(-54.363 -31.612)" fill="#5da760"/>
        <path id="Path_18487" data-name="Path 18487" d="M56.063,38.621l-.208-.554c-.035-.1-.1-.242-.173-.415-.1-.208-.208-.45-.277-.606-.121-.277-.208-.415-.346-.727l-.173-.381a4.444,4.444,0,0,1-.346-1.125,2.5,2.5,0,0,1,.952-2.544l.45-.381.329,1.3c.035.1.069.242.1.346a10.21,10.21,0,0,0,.381,1.177,4.811,4.811,0,0,1,.346,1.073,2.485,2.485,0,0,1-.606,2.371l-.433.467Zm-.588-5.381a1.987,1.987,0,0,0-.277,1.419,2.6,2.6,0,0,0,.329.952l.173.381c.121.277.208.415.346.727l.035.035a3.6,3.6,0,0,0,.173.415,1.879,1.879,0,0,0,.069-1.246,5.691,5.691,0,0,0-.329-.952,8.672,8.672,0,0,1-.415-1.246c-.035-.121-.069-.242-.1-.346v-.156Z" transform="translate(-54.492 -31.89)" fill="#5da760"/>
      </g>
      <g id="Group_128" data-name="Group 128" transform="translate(89.378 57.204)">
        <path id="Path_18488" data-name="Path 18488" d="M54.83,39.86a2.141,2.141,0,0,0,.415-2.059,4.285,4.285,0,0,0-.346-.969,9.311,9.311,0,0,1-.8-2.3,2.171,2.171,0,0,0-.727,2.232,4.912,4.912,0,0,0,.346,1c.381.675.8,1.35,1.125,2.094Z" transform="translate(-52.998 -33.734)" fill="#5da760"/>
        <path id="Path_18489" data-name="Path 18489" d="M54.894,40.87l-.242-.519c-.208-.45-.45-.952-.692-1.4-.121-.242-.242-.5-.381-.727A3.929,3.929,0,0,1,53.2,37.1a2.523,2.523,0,0,1,.848-2.578l.5-.45.1.675a8.144,8.144,0,0,0,.779,2.2,4.221,4.221,0,0,1,.381,1.073,2.561,2.561,0,0,1-.5,2.405Zm-.848-5.278a1.785,1.785,0,0,0-.173,1.35,3.519,3.519,0,0,0,.346.952,3.765,3.765,0,0,0,.381.692c.121.277.277.554.415.848a2.4,2.4,0,0,0,.035-1.229,4.612,4.612,0,0,0-.346-.952,7.108,7.108,0,0,1-.675-1.661Z" transform="translate(-53.132 -34.07)" fill="#5da760"/>
      </g>
      <path id="Path_18490" data-name="Path 18490" d="M59.132,34.289c-.173.381-.035.779.277.848a.862.862,0,0,0,.8-.329,1.08,1.08,0,0,0,.173-.277,8.481,8.481,0,0,0,.121-6.316,1.029,1.029,0,0,0-.952-.675c-.346.069-.5.415-.346.848a7.825,7.825,0,0,1-.087,5.9Z" transform="translate(40.574 18.685)" fill="#5da760"/>
      <path id="Path_18491" data-name="Path 18491" d="M60.071,34.688c-.121.381-.1.727.121.882a.127.127,0,0,0,.1.035.863.863,0,0,0,.9-.5.264.264,0,0,0,.069-.173,9.55,9.55,0,0,0,.173-6.852c-.173-.45-.623-.779-.952-.692-.035,0-.069.035-.1.035a.649.649,0,0,0-.173.848,8.71,8.71,0,0,1-.156,6.4Z" transform="translate(41.261 18.561)" fill="#5da760"/>
      <g id="Group_129" data-name="Group 129" transform="translate(59.95 32.279)">
        <path id="Path_18492" data-name="Path 18492" d="M38.756,19.633c.952,0,1.852-.035,2.8-.1a23.207,23.207,0,0,1,5.693.035,7.211,7.211,0,0,1,5.8,4.932,37.918,37.918,0,0,0-8.029-.381,16.732,16.732,0,0,1-3.5-.208c-2.405-.381-5.1-2.146-5.745-4.257h2.994Z" transform="translate(-35.469 -19.114)" fill="#5da760"/>
        <path id="Path_18493" data-name="Path 18493" d="M53.423,24.792l-.329-.069a38.708,38.708,0,0,0-7.994-.381,18.813,18.813,0,0,1-3.53-.208c-2.353-.381-5.174-2.128-5.9-4.4L35.6,19.5h.242c1,.035,2.059.035,3.028,0h0c.952,0,1.9-.035,2.8-.1.329-.035.623-.035.952-.069a18.4,18.4,0,0,1,4.776.1,7.39,7.39,0,0,1,5.935,5.018l.069.346ZM47.7,23.944a29.971,29.971,0,0,1,5.191.381,6.967,6.967,0,0,0-5.555-4.5,19.578,19.578,0,0,0-4.724-.069c-.329.035-.623.035-.952.069-.9.035-1.852.069-2.8.1H36.1c.8,2.025,3.374,3.547,5.52,3.911a15.779,15.779,0,0,0,3.443.173c.848-.035,1.73-.087,2.63-.087Z" transform="translate(-35.6 -19.22)" fill="#5da760"/>
      </g>
      <g id="Group_130" data-name="Group 130" transform="translate(83.488 28.473)">
        <path id="Path_18494" data-name="Path 18494" d="M54.263,18.354a1.524,1.524,0,0,1-.121-.242,1.9,1.9,0,0,0-.727-.5,10.372,10.372,0,0,0-3.426-.45H49.92l.1.121a3.546,3.546,0,0,0,2.44,1.505c.329.035.623.069.952.121l1.35.277a7.433,7.433,0,0,1-.5-.865Z" transform="translate(-49.072 -16.779)" fill="#5da760"/>
        <path id="Path_18495" data-name="Path 18495" d="M55.763,19.882l-2.128-.415c-.277-.035-.606-.069-.9-.1a3.613,3.613,0,0,1-2.7-1.644l-.606-.779.882.069c.277,0,.519.035.779.035a8.576,8.576,0,0,1,2.751.415,1.738,1.738,0,0,1,.882.606,2.422,2.422,0,0,1,.173.277c.069.121.173.329.277.5Zm-4.741-2.128a3.166,3.166,0,0,0,1.817.882c.329.035.623.069.952.121l.623.121s-.069-.121-.1-.173h0s-.069-.121-.1-.173a1.221,1.221,0,0,0-.606-.381,7.219,7.219,0,0,0-2.526-.381c0-.017-.035-.017-.035-.017Z" transform="translate(-49.43 -16.94)" fill="#5da760"/>
      </g>
      <g id="Group_131" data-name="Group 131" transform="translate(84.552 32.729)">
        <path id="Path_18496" data-name="Path 18496" d="M55.535,21.536a2.383,2.383,0,0,0-1.609-1.678,7.068,7.068,0,0,0-1.056-.173l-.519-.035H50.5a2.743,2.743,0,0,0,.45.554,2.857,2.857,0,0,0,1.523.848c.121.035.277.035.381.069.329.035.623.035.952.069a6.363,6.363,0,0,1,1,.121c.277.087.5.19.709.242Z" transform="translate(-49.739 -19.339)" fill="#5da760"/>
        <path id="Path_18497" data-name="Path 18497" d="M56.41,22.2l-.848-.242a3.054,3.054,0,0,0-.5-.121,5.978,5.978,0,0,0-.848-.1l-.5-.035c-.208,0-.381-.035-.606-.035a1.891,1.891,0,0,1-.415-.069,3.243,3.243,0,0,1-1.748-.952,5.279,5.279,0,0,1-.5-.623l-.381-.554h2.526l.519.035a5.651,5.651,0,0,1,1.142.173A2.76,2.76,0,0,1,56.1,21.6l.277.623Zm-4.828-2.042a2.377,2.377,0,0,0,1.332.692c.121.035.242.035.381.069a2.976,2.976,0,0,0,.554.035l.5.035a7.546,7.546,0,0,1,.848.1,1.941,1.941,0,0,0-1.056-.779c-.277-.069-.606-.121-.969-.173l-.519-.035c-.346.035-.727.035-1.073.035Z" transform="translate(-50.06 -19.47)" fill="#5da760"/>
      </g>
      <g id="Group_132" data-name="Group 132" transform="translate(85.379 36.601)">
        <path id="Path_18498" data-name="Path 18498" d="M53.708,23.57l1.609-.069.8.035c-.554-1.246-1.7-1.4-2.8-1.4-.675,0-1.142-.035-1.644-.035l-.8-.069a2.576,2.576,0,0,0,2.821,1.523Z" transform="translate(-50.316 -21.58)" fill="#5da760"/>
        <path id="Path_18499" data-name="Path 18499" d="M53.665,24.106a2.818,2.818,0,0,1-2.907-1.782l-.208-.554,1.4.121a1.552,1.552,0,0,1,.381.035c.346.035.727.035,1.177.035,1.125-.035,2.526.121,3.149,1.609l.242.519-1.35-.035-1.575.069s-.19-.017-.294-.017Zm-1.921-1.471a2.444,2.444,0,0,0,2.146.779h0l1.609-.069h.121a2.484,2.484,0,0,0-2.128-.623c-.5,0-.9,0-1.246-.035a1.358,1.358,0,0,1-.381-.035h-.121Z" transform="translate(-50.55 -21.77)" fill="#5da760"/>
      </g>
      <g id="Group_133" data-name="Group 133" transform="translate(81.731 69.478)">
        <path id="Path_18500" data-name="Path 18500" d="M50.257,45.189a5.871,5.871,0,0,0-.208-1.073L49.5,42.507l-.121-.727a2.276,2.276,0,0,0-.779,2.059,5.983,5.983,0,0,0,.208,1.056c.208.675.346,1.177.45,1.644l.069.779a2.262,2.262,0,0,0,.952-2.111Z" transform="translate(-48.179 -41.088)" fill="#5da760"/>
        <path id="Path_18501" data-name="Path 18501" d="M49.182,48.232l-.121-1.4c-.1-.415-.242-.9-.45-1.575a7.311,7.311,0,0,1-.242-1.125,2.569,2.569,0,0,1,.9-2.371l.45-.381.277,1.332.519,1.575a6.46,6.46,0,0,1,.242,1.142,2.579,2.579,0,0,1-1.125,2.44Zm.121-5.381a2,2,0,0,0-.208,1.229,5.122,5.122,0,0,0,.208.969c.208.675.346,1.177.45,1.678V46.8a2.111,2.111,0,0,0,.329-1.3h0a5.12,5.12,0,0,0-.208-.969l-.554-1.678Z" transform="translate(-48.349 -41.38)" fill="#5da760"/>
      </g>
      <g id="Group_134" data-name="Group 134" transform="translate(81.731 69.548)">
        <path id="Path_18502" data-name="Path 18502" d="M50.265,45.2a5.871,5.871,0,0,0-.208-1.073l-.45-1.471-.242-.882a2.276,2.276,0,0,0-.779,2.059,5.983,5.983,0,0,0,.208,1.056c.208.675.277,1.177.381,1.644l.121.779a2.262,2.262,0,0,0,.952-2.111Z" transform="translate(-48.186 -41.164)" fill="#5da760"/>
        <path id="Path_18503" data-name="Path 18503" d="M49.233,48.168l-.242-1.332c-.035-.121-.069-.329-.1-.45a7.042,7.042,0,0,0-.277-1.125,7.315,7.315,0,0,1-.242-1.125,2.569,2.569,0,0,1,.9-2.371l.415-.346.848,2.872a5.874,5.874,0,0,1,.242,1.142,2.579,2.579,0,0,1-1.125,2.44l-.415.294Zm.1-5.4a1.863,1.863,0,0,0-.242,1.3,5.122,5.122,0,0,0,.208.969c.121.45.208.848.277,1.177.035.173.069.329.1.45l.035.121a1.839,1.839,0,0,0,.346-1.35h0a5.12,5.12,0,0,0-.208-.969l-.536-1.7Z" transform="translate(-48.349 -41.42)" fill="#5da760"/>
      </g>
      <g id="Group_135" data-name="Group 135" transform="translate(84.622 65.817)">
        <path id="Path_18504" data-name="Path 18504" d="M51.967,42.989a5.867,5.867,0,0,0-.208-1.073l-.554-1.609-.121-.727a2.276,2.276,0,0,0-.779,2.059,5.986,5.986,0,0,0,.208,1.056c.208.675.346,1.177.45,1.644l.069.779a2.254,2.254,0,0,0,.952-2.111Z" transform="translate(-49.889 -38.922)" fill="#5da760"/>
        <path id="Path_18505" data-name="Path 18505" d="M50.892,46.052l-.121-1.4c-.1-.415-.242-.952-.45-1.575a7.309,7.309,0,0,1-.242-1.125,2.569,2.569,0,0,1,.9-2.371l.45-.381.277,1.332.519,1.575a6.459,6.459,0,0,1,.242,1.142,2.579,2.579,0,0,1-1.125,2.44l-.45.363Zm.121-5.4a2,2,0,0,0-.208,1.229,5.121,5.121,0,0,0,.208.969c.208.675.346,1.177.45,1.678V44.6a2.111,2.111,0,0,0,.329-1.3h0a5.121,5.121,0,0,0-.208-.969l-.554-1.678Z" transform="translate(-50.059 -39.2)" fill="#5da760"/>
      </g>
      <g id="Group_136" data-name="Group 136" transform="translate(84.656 65.852)">
        <path id="Path_18506" data-name="Path 18506" d="M51.982,42.989a5.869,5.869,0,0,0-.208-1.073l-.5-1.609-.208-.727a2.276,2.276,0,0,0-.779,2.059,5.981,5.981,0,0,0,.208,1.056c.208.675.242,1,.381,1.505l.121.9a2.2,2.2,0,0,0,.969-2.111Z" transform="translate(-49.938 -38.957)" fill="#5da760"/>
        <path id="Path_18507" data-name="Path 18507" d="M50.946,46l-.329-1.817a10.341,10.341,0,0,0-.277-1.125,7.311,7.311,0,0,1-.242-1.125,2.569,2.569,0,0,1,.9-2.371l.415-.346.848,2.872a6.152,6.152,0,0,1,.242,1.142,2.579,2.579,0,0,1-1.125,2.44L50.946,46Zm.1-5.451a1.863,1.863,0,0,0-.242,1.3,5.121,5.121,0,0,0,.208.969c.121.5.208.848.277,1.142l.121.623a2.012,2.012,0,0,0,.346-1.35h0a5.121,5.121,0,0,0-.208-.969l-.519-1.7Z" transform="translate(-50.079 -39.22)" fill="#5da760"/>
      </g>
      <g id="Group_137" data-name="Group 137" transform="translate(87.451 61.602)">
        <path id="Path_18508" data-name="Path 18508" d="M53.839,40.36a6.818,6.818,0,0,0-.346-1.056l-.727-1.523-.242-.692A2.18,2.18,0,0,0,52,39.218a4.911,4.911,0,0,0,.346,1c.277.623.5,1.125.675,1.575l.173.779A2.286,2.286,0,0,0,53.839,40.36Z" transform="translate(-51.598 -36.398)" fill="#5da760"/>
        <path id="Path_18509" data-name="Path 18509" d="M53.059,43.56l-.277-1.4a15.057,15.057,0,0,0-.623-1.505,4.813,4.813,0,0,1-.346-1.073,2.56,2.56,0,0,1,.623-2.44l.415-.45.415,1.3.727,1.471a4.544,4.544,0,0,1,.381,1.125,2.554,2.554,0,0,1-.8,2.544l-.519.45Zm-.5-5.381a2.278,2.278,0,0,0-.069,1.246,4.146,4.146,0,0,0,.329.952c.277.623.5,1.142.675,1.609v.069a1.832,1.832,0,0,0,.121-1.332h0a5.207,5.207,0,0,0-.329-.952l-.727-1.592Z" transform="translate(-51.735 -36.69)" fill="#5da760"/>
      </g>
      <g id="Group_138" data-name="Group 138" transform="translate(87.451 61.688)">
        <path id="Path_18510" data-name="Path 18510" d="M53.853,40.368a6.82,6.82,0,0,0-.346-1.056l-.675-1.505L52.5,37.08a2.18,2.18,0,0,0-.519,2.128,4.912,4.912,0,0,0,.346,1,11.961,11.961,0,0,1,.554,1.609l.242.727a2.138,2.138,0,0,0,.709-2.2Z" transform="translate(-51.613 -36.492)" fill="#5da760"/>
        <path id="Path_18511" data-name="Path 18511" d="M53.111,43.488l-.415-1.3a2.388,2.388,0,0,1-.121-.45,5.646,5.646,0,0,0-.415-1.073,4.812,4.812,0,0,1-.346-1.073,2.561,2.561,0,0,1,.623-2.44l.381-.415.519,1.246.675,1.505a4.545,4.545,0,0,1,.381,1.125,2.554,2.554,0,0,1-.8,2.544l-.5.329Zm-.554-5.4a2.025,2.025,0,0,0-.1,1.3,4.145,4.145,0,0,0,.329.952c.173.45.329.848.415,1.142.035.173.1.329.121.45l.035.121a1.855,1.855,0,0,0,.208-1.4h0a5.209,5.209,0,0,0-.329-.952L52.54,38.09Z" transform="translate(-51.735 -36.74)" fill="#5da760"/>
      </g>
    </g>
  </g>
</svg>
